<svg width="194" height="157" viewBox="0 0 194 157" fill="none" xmlns="http://www.w3.org/2000/svg">
<mask id="path-1-outside-1_126_3195" maskUnits="userSpaceOnUse" x="0" y="-0.461227" width="262" height="239" fill="black">
<rect fill="white" y="-0.461227" width="262" height="239"/>
<path fill-rule="evenodd" clip-rule="evenodd" d="M87.9767 14.2038C80.807 11.8418 75.4614 12.2643 71.6519 14.504C67.8423 16.7437 64.8103 21.2466 63.2341 28.7504C61.6582 36.2534 61.7014 46.1175 63.5427 57.821C64.2503 62.318 65.2159 67.0407 66.4347 71.9482C77.1292 69.4833 88.7853 67.6191 101.107 66.4589C108.256 56.1716 115.67 46.8238 123.114 38.6245C119.55 35.0962 116.016 31.8835 112.546 29.0112C103.513 21.5356 95.1457 16.5655 87.9767 14.2038ZM131 30.3776C127.201 26.6161 123.416 23.1736 119.675 20.0782C110.016 12.0838 100.418 6.20364 91.4562 3.25135C82.4952 0.29931 73.5444 0.0992184 65.9997 4.53491C58.455 8.97061 54.1498 16.9641 52.1798 26.3427C50.2097 35.7221 50.4116 47.1264 52.3807 59.642C53.1432 64.4884 54.1782 69.5482 55.4777 74.7798C50.3793 76.2494 45.5591 77.8664 41.0567 79.617C29.4281 84.1383 19.6283 89.6624 12.6366 96.0895C5.64554 102.516 1 110.309 1 119.181C1 128.052 5.64554 135.846 12.6366 142.272C19.6283 148.699 29.4281 154.223 41.0567 158.745C45.559 160.495 50.379 162.112 55.4772 163.582C54.178 168.813 53.1431 173.872 52.3807 178.718C50.4116 191.233 50.2097 202.637 52.1798 212.017C54.1498 221.395 58.455 229.389 65.9997 233.825C73.5444 238.26 82.4952 238.06 91.4562 235.108C100.418 232.156 110.016 226.276 119.675 218.281C123.416 215.186 127.201 211.744 131 207.982C134.799 211.743 138.584 215.185 142.324 218.28C151.984 226.275 161.581 232.155 170.543 235.107C179.504 238.059 188.455 238.259 196 233.824C203.544 229.388 207.85 221.394 209.82 212.016C211.79 202.636 211.588 191.232 209.619 178.717C208.856 173.871 207.822 168.812 206.522 163.582C211.621 162.112 216.441 160.495 220.943 158.745C232.572 154.223 242.372 148.699 249.363 142.272C256.354 135.846 261 128.052 261 119.181C261 110.309 256.354 102.516 249.363 96.0895C242.372 89.6624 232.572 84.1383 220.943 79.617C216.441 77.8664 211.62 76.2494 206.522 74.7797C207.821 69.5485 208.856 64.489 209.619 59.643C211.588 47.1274 211.79 35.7231 209.82 26.3437C207.85 16.9651 203.544 8.97161 196 4.53591C188.455 0.100217 179.504 0.300309 170.543 3.25235C161.581 6.20464 151.984 12.0848 142.324 20.0792C138.584 23.1743 134.799 26.6165 131 30.3776ZM131 46.8962C125.937 52.5049 120.859 58.7048 115.857 65.4266C120.828 65.1961 125.881 65.0778 131 65.0778C136.119 65.0778 141.172 65.1961 146.143 65.4266C141.141 58.7048 136.064 52.5049 131 46.8962ZM92.8545 78.9506C84.6379 80.0004 76.8272 81.3781 69.5262 83.039C71.7642 90.3081 74.4979 97.8851 77.7134 105.656C80.0023 101.158 82.4281 96.6427 84.9874 92.1287C87.5466 87.6149 90.1736 83.2181 92.8545 78.9506ZM83.711 119.18C87.0336 112.155 90.7255 105.031 94.7772 97.8844C98.829 90.7381 103.042 83.92 107.355 77.4778C114.99 76.8956 122.896 76.5891 131 76.5891C139.104 76.5891 147.01 76.8956 154.645 77.4778C158.958 83.9197 163.171 90.7375 167.222 97.8834C171.274 105.03 174.966 112.155 178.289 119.18C174.966 126.205 171.274 133.33 167.222 140.476C163.17 147.623 158.957 154.441 154.644 160.884C147.009 161.466 139.103 161.773 131 161.773C122.897 161.773 114.992 161.466 107.356 160.884C103.043 154.441 98.8294 147.622 94.7773 140.475C90.7255 133.329 87.0336 126.204 83.711 119.18ZM71.2162 119.18C66.0419 107.733 61.7992 96.5219 58.5482 85.8582C53.7656 87.2371 49.2669 88.7467 45.0889 90.3711C34.215 94.599 25.8044 99.4929 20.2114 104.634C14.6179 109.776 12.3043 114.701 12.3043 119.181C12.3043 123.66 14.6179 128.586 20.2114 133.728C25.8044 138.869 34.215 143.763 45.0889 147.991C49.2667 149.615 53.7653 151.125 58.5476 152.503C61.7986 141.839 66.0415 130.627 71.2162 119.18ZM69.5255 155.323C71.7637 148.053 74.4976 140.475 77.7134 132.704C80.0023 137.202 82.4281 141.717 84.9874 146.231C87.5471 150.746 90.1745 155.143 92.856 159.411C84.6386 158.361 76.8272 156.984 69.5255 155.323ZM66.4342 166.413C65.2156 171.32 64.2502 176.042 63.5427 180.539C61.7014 192.242 61.6582 202.106 63.2341 209.609C64.8103 217.113 67.8423 221.616 71.6519 223.856C75.4614 226.095 80.807 226.518 87.9767 224.156C95.1457 221.794 103.513 216.824 112.546 209.348C116.016 206.476 119.55 203.263 123.114 199.735C115.67 191.536 108.257 182.189 101.109 171.903C88.7861 170.743 77.1293 168.878 66.4342 166.413ZM138.887 199.735C142.451 203.263 145.984 206.475 149.454 209.347C158.486 216.823 166.854 221.793 174.023 224.155C181.192 226.517 186.538 226.094 190.348 223.855C194.157 221.615 197.189 217.112 198.765 209.608C200.341 202.105 200.298 192.241 198.457 180.538C197.749 176.042 196.784 171.32 195.565 166.413C184.871 168.879 173.214 170.743 160.891 171.903C153.743 182.189 146.33 191.536 138.887 199.735ZM146.141 172.935C141.14 179.656 136.063 185.855 131 191.463C125.937 185.855 120.86 179.656 115.859 172.935C120.829 173.166 125.882 173.284 131 173.284C136.118 173.284 141.171 173.166 146.141 172.935ZM169.144 159.411C177.361 158.361 185.173 156.984 192.474 155.323C190.236 148.053 187.502 140.475 184.286 132.704C181.997 137.202 179.571 141.718 177.012 146.232C174.453 150.746 171.825 155.143 169.144 159.411ZM190.784 119.18C195.958 130.627 200.201 141.839 203.452 152.503C208.235 151.125 212.733 149.615 216.911 147.991C227.785 143.763 236.196 138.869 241.789 133.728C247.382 128.586 249.696 123.66 249.696 119.181C249.696 114.701 247.382 109.776 241.789 104.634C236.196 99.4929 227.785 94.599 216.911 90.3711C212.733 88.7467 208.234 87.237 203.452 85.8581C200.201 96.5218 195.958 107.733 190.784 119.18ZM195.565 71.9481C184.871 69.4832 173.215 67.6191 160.893 66.4589C153.745 56.1717 146.331 46.8239 138.887 38.6246C142.451 35.0966 145.984 31.8842 149.454 29.0122C158.486 21.5366 166.854 16.5665 174.023 14.2048C181.192 11.8428 186.538 12.2653 190.348 14.505C194.157 16.7447 197.189 21.2476 198.765 28.7514C200.341 36.2544 200.298 46.1185 198.457 57.8219C197.749 62.3187 196.784 67.041 195.565 71.9481ZM192.474 83.039C190.236 90.308 187.502 97.885 184.286 105.656C181.997 101.157 179.571 96.642 177.012 92.1277C174.453 87.6142 171.826 83.2178 169.146 78.9506C177.362 80.0004 185.173 81.3781 192.474 83.039ZM154.173 119.18C154.173 132.213 143.798 142.778 130.999 142.778C118.201 142.778 107.825 132.213 107.825 119.18C107.825 106.147 118.201 95.5819 130.999 95.5819C143.798 95.5819 154.173 106.147 154.173 119.18Z"/>
</mask>
<path fill-rule="evenodd" clip-rule="evenodd" d="M87.9767 14.2038C80.807 11.8418 75.4614 12.2643 71.6519 14.504C67.8423 16.7437 64.8103 21.2466 63.2341 28.7504C61.6582 36.2534 61.7014 46.1175 63.5427 57.821C64.2503 62.318 65.2159 67.0407 66.4347 71.9482C77.1292 69.4833 88.7853 67.6191 101.107 66.4589C108.256 56.1716 115.67 46.8238 123.114 38.6245C119.55 35.0962 116.016 31.8835 112.546 29.0112C103.513 21.5356 95.1457 16.5655 87.9767 14.2038ZM131 30.3776C127.201 26.6161 123.416 23.1736 119.675 20.0782C110.016 12.0838 100.418 6.20364 91.4562 3.25135C82.4952 0.29931 73.5444 0.0992184 65.9997 4.53491C58.455 8.97061 54.1498 16.9641 52.1798 26.3427C50.2097 35.7221 50.4116 47.1264 52.3807 59.642C53.1432 64.4884 54.1782 69.5482 55.4777 74.7798C50.3793 76.2494 45.5591 77.8664 41.0567 79.617C29.4281 84.1383 19.6283 89.6624 12.6366 96.0895C5.64554 102.516 1 110.309 1 119.181C1 128.052 5.64554 135.846 12.6366 142.272C19.6283 148.699 29.4281 154.223 41.0567 158.745C45.559 160.495 50.379 162.112 55.4772 163.582C54.178 168.813 53.1431 173.872 52.3807 178.718C50.4116 191.233 50.2097 202.637 52.1798 212.017C54.1498 221.395 58.455 229.389 65.9997 233.825C73.5444 238.26 82.4952 238.06 91.4562 235.108C100.418 232.156 110.016 226.276 119.675 218.281C123.416 215.186 127.201 211.744 131 207.982C134.799 211.743 138.584 215.185 142.324 218.28C151.984 226.275 161.581 232.155 170.543 235.107C179.504 238.059 188.455 238.259 196 233.824C203.544 229.388 207.85 221.394 209.82 212.016C211.79 202.636 211.588 191.232 209.619 178.717C208.856 173.871 207.822 168.812 206.522 163.582C211.621 162.112 216.441 160.495 220.943 158.745C232.572 154.223 242.372 148.699 249.363 142.272C256.354 135.846 261 128.052 261 119.181C261 110.309 256.354 102.516 249.363 96.0895C242.372 89.6624 232.572 84.1383 220.943 79.617C216.441 77.8664 211.62 76.2494 206.522 74.7797C207.821 69.5485 208.856 64.489 209.619 59.643C211.588 47.1274 211.79 35.7231 209.82 26.3437C207.85 16.9651 203.544 8.97161 196 4.53591C188.455 0.100217 179.504 0.300309 170.543 3.25235C161.581 6.20464 151.984 12.0848 142.324 20.0792C138.584 23.1743 134.799 26.6165 131 30.3776ZM131 46.8962C125.937 52.5049 120.859 58.7048 115.857 65.4266C120.828 65.1961 125.881 65.0778 131 65.0778C136.119 65.0778 141.172 65.1961 146.143 65.4266C141.141 58.7048 136.064 52.5049 131 46.8962ZM92.8545 78.9506C84.6379 80.0004 76.8272 81.3781 69.5262 83.039C71.7642 90.3081 74.4979 97.8851 77.7134 105.656C80.0023 101.158 82.4281 96.6427 84.9874 92.1287C87.5466 87.6149 90.1736 83.2181 92.8545 78.9506ZM83.711 119.18C87.0336 112.155 90.7255 105.031 94.7772 97.8844C98.829 90.7381 103.042 83.92 107.355 77.4778C114.99 76.8956 122.896 76.5891 131 76.5891C139.104 76.5891 147.01 76.8956 154.645 77.4778C158.958 83.9197 163.171 90.7375 167.222 97.8834C171.274 105.03 174.966 112.155 178.289 119.18C174.966 126.205 171.274 133.33 167.222 140.476C163.17 147.623 158.957 154.441 154.644 160.884C147.009 161.466 139.103 161.773 131 161.773C122.897 161.773 114.992 161.466 107.356 160.884C103.043 154.441 98.8294 147.622 94.7773 140.475C90.7255 133.329 87.0336 126.204 83.711 119.18ZM71.2162 119.18C66.0419 107.733 61.7992 96.5219 58.5482 85.8582C53.7656 87.2371 49.2669 88.7467 45.0889 90.3711C34.215 94.599 25.8044 99.4929 20.2114 104.634C14.6179 109.776 12.3043 114.701 12.3043 119.181C12.3043 123.66 14.6179 128.586 20.2114 133.728C25.8044 138.869 34.215 143.763 45.0889 147.991C49.2667 149.615 53.7653 151.125 58.5476 152.503C61.7986 141.839 66.0415 130.627 71.2162 119.18ZM69.5255 155.323C71.7637 148.053 74.4976 140.475 77.7134 132.704C80.0023 137.202 82.4281 141.717 84.9874 146.231C87.5471 150.746 90.1745 155.143 92.856 159.411C84.6386 158.361 76.8272 156.984 69.5255 155.323ZM66.4342 166.413C65.2156 171.32 64.2502 176.042 63.5427 180.539C61.7014 192.242 61.6582 202.106 63.2341 209.609C64.8103 217.113 67.8423 221.616 71.6519 223.856C75.4614 226.095 80.807 226.518 87.9767 224.156C95.1457 221.794 103.513 216.824 112.546 209.348C116.016 206.476 119.55 203.263 123.114 199.735C115.67 191.536 108.257 182.189 101.109 171.903C88.7861 170.743 77.1293 168.878 66.4342 166.413ZM138.887 199.735C142.451 203.263 145.984 206.475 149.454 209.347C158.486 216.823 166.854 221.793 174.023 224.155C181.192 226.517 186.538 226.094 190.348 223.855C194.157 221.615 197.189 217.112 198.765 209.608C200.341 202.105 200.298 192.241 198.457 180.538C197.749 176.042 196.784 171.32 195.565 166.413C184.871 168.879 173.214 170.743 160.891 171.903C153.743 182.189 146.33 191.536 138.887 199.735ZM146.141 172.935C141.14 179.656 136.063 185.855 131 191.463C125.937 185.855 120.86 179.656 115.859 172.935C120.829 173.166 125.882 173.284 131 173.284C136.118 173.284 141.171 173.166 146.141 172.935ZM169.144 159.411C177.361 158.361 185.173 156.984 192.474 155.323C190.236 148.053 187.502 140.475 184.286 132.704C181.997 137.202 179.571 141.718 177.012 146.232C174.453 150.746 171.825 155.143 169.144 159.411ZM190.784 119.18C195.958 130.627 200.201 141.839 203.452 152.503C208.235 151.125 212.733 149.615 216.911 147.991C227.785 143.763 236.196 138.869 241.789 133.728C247.382 128.586 249.696 123.66 249.696 119.181C249.696 114.701 247.382 109.776 241.789 104.634C236.196 99.4929 227.785 94.599 216.911 90.3711C212.733 88.7467 208.234 87.237 203.452 85.8581C200.201 96.5218 195.958 107.733 190.784 119.18ZM195.565 71.9481C184.871 69.4832 173.215 67.6191 160.893 66.4589C153.745 56.1717 146.331 46.8239 138.887 38.6246C142.451 35.0966 145.984 31.8842 149.454 29.0122C158.486 21.5366 166.854 16.5665 174.023 14.2048C181.192 11.8428 186.538 12.2653 190.348 14.505C194.157 16.7447 197.189 21.2476 198.765 28.7514C200.341 36.2544 200.298 46.1185 198.457 57.8219C197.749 62.3187 196.784 67.041 195.565 71.9481ZM192.474 83.039C190.236 90.308 187.502 97.885 184.286 105.656C181.997 101.157 179.571 96.642 177.012 92.1277C174.453 87.6142 171.826 83.2178 169.146 78.9506C177.362 80.0004 185.173 81.3781 192.474 83.039ZM154.173 119.18C154.173 132.213 143.798 142.778 130.999 142.778C118.201 142.778 107.825 132.213 107.825 119.18C107.825 106.147 118.201 95.5819 130.999 95.5819C143.798 95.5819 154.173 106.147 154.173 119.18Z" fill="url(#paint0_linear_126_3195)"/>
<path d="M71.6519 14.504L72.1587 15.366L71.6519 14.504ZM87.9767 14.2038L87.6638 15.1536L87.9767 14.2038ZM63.2341 28.7504L64.2128 28.956L63.2341 28.7504ZM63.5427 57.821L62.5549 57.9764L63.5427 57.821ZM66.4347 71.9482L65.4642 72.1892L65.7012 73.1435L66.6593 72.9227L66.4347 71.9482ZM101.107 66.4589L101.201 67.4545L101.664 67.411L101.929 67.0296L101.107 66.4589ZM123.114 38.6245L123.854 39.2967L124.498 38.5876L123.817 37.9139L123.114 38.6245ZM112.546 29.0112L111.908 29.7816L112.546 29.0112ZM119.675 20.0782L120.313 19.3078L119.675 20.0782ZM131 30.3776L130.297 31.0882L131 31.7848L131.704 31.0882L131 30.3776ZM91.4562 3.25135L91.1433 4.20114L91.4562 3.25135ZM65.9997 4.53491L65.4929 3.67286V3.67286L65.9997 4.53491ZM52.1798 26.3427L51.2012 26.1372L52.1798 26.3427ZM52.3807 59.642L53.3686 59.4866L52.3807 59.642ZM55.4777 74.7798L55.7547 75.7406L56.6805 75.4738L56.4482 74.5387L55.4777 74.7798ZM41.0567 79.617L40.6943 78.685L41.0567 79.617ZM12.6366 96.0895L11.9599 95.3533L12.6366 96.0895ZM12.6366 142.272L13.3134 141.536L12.6366 142.272ZM41.0567 158.745L40.6943 159.677L41.0567 158.745ZM55.4772 163.582L56.4477 163.823L56.68 162.888L55.7542 162.621L55.4772 163.582ZM52.3807 178.718L51.3929 178.562L52.3807 178.718ZM52.1798 212.017L51.2012 212.222L52.1798 212.017ZM65.9997 233.825L65.4929 234.687V234.687L65.9997 233.825ZM91.4562 235.108L91.7691 236.058L91.4562 235.108ZM119.675 218.281L119.038 217.511L119.675 218.281ZM131 207.982L131.704 207.271L131 206.575L130.297 207.271L131 207.982ZM142.324 218.28L141.686 219.051L142.324 218.28ZM170.543 235.107L170.856 234.157L170.543 235.107ZM196 233.824L196.507 234.686V234.686L196 233.824ZM209.82 212.016L210.798 212.221L209.82 212.016ZM209.619 178.717L208.631 178.872L209.619 178.717ZM206.522 163.582L206.245 162.621L205.32 162.888L205.552 163.823L206.522 163.582ZM220.943 158.745L221.306 159.677L220.943 158.745ZM249.363 142.272L250.04 143.008L249.363 142.272ZM249.363 96.0895L250.04 95.3533L249.363 96.0895ZM220.943 79.617L221.306 78.685L220.943 79.617ZM206.522 74.7797L205.551 74.5386L205.319 75.4737L206.245 75.7405L206.522 74.7797ZM209.619 59.643L210.607 59.7984L209.619 59.643ZM209.82 26.3437L210.798 26.1382L209.82 26.3437ZM196 4.53591L196.507 3.67386V3.67386L196 4.53591ZM170.543 3.25235L170.856 4.20214L170.543 3.25235ZM142.324 20.0792L141.686 19.3088V19.3088L142.324 20.0792ZM131 46.8962L131.742 46.2261L131 45.4039L130.258 46.2261L131 46.8962ZM115.857 65.4266L115.055 64.8297L113.795 66.5234L115.904 66.4255L115.857 65.4266ZM146.143 65.4266L146.096 66.4256L148.205 66.5234L146.945 64.8297L146.143 65.4266ZM69.5262 83.039L69.3043 82.0639L68.2532 82.3031L68.5704 83.3333L69.5262 83.039ZM92.8545 78.9506L93.7013 79.4826L94.8271 77.6905L92.7278 77.9587L92.8545 78.9506ZM77.7134 105.656L76.7894 106.038L77.6197 108.045L78.6046 106.109L77.7134 105.656ZM84.9874 92.1287L85.8573 92.6219L84.9874 92.1287ZM94.7772 97.8844L93.9073 97.3912L94.7772 97.8844ZM83.711 119.18L82.8071 118.752L82.6048 119.18L82.8071 119.607L83.711 119.18ZM107.355 77.4778L107.279 76.4807L106.794 76.5177L106.524 76.9215L107.355 77.4778ZM154.645 77.4778L155.476 76.9215L155.206 76.5177L154.721 76.4807L154.645 77.4778ZM167.222 97.8834L168.092 97.3902L167.222 97.8834ZM178.289 119.18L179.193 119.607L179.395 119.18L179.193 118.752L178.289 119.18ZM167.222 140.476L168.092 140.969L167.222 140.476ZM154.644 160.884L154.72 161.881L155.204 161.844L155.475 161.44L154.644 160.884ZM107.356 160.884L106.525 161.44L106.796 161.844L107.28 161.881L107.356 160.884ZM94.7773 140.475L95.6472 139.982L94.7773 140.475ZM58.5482 85.8582L59.5047 85.5666L59.2175 84.6245L58.2712 84.8974L58.5482 85.8582ZM71.2162 119.18L72.1275 119.592L72.3137 119.18L72.1275 118.768L71.2162 119.18ZM45.0889 90.3711L44.7266 89.4391L45.0889 90.3711ZM20.2114 104.634L19.5347 103.898L20.2114 104.634ZM20.2114 133.728L19.5347 134.464L20.2114 133.728ZM45.0889 147.991L45.4513 147.059V147.059L45.0889 147.991ZM58.5476 152.503L58.2705 153.464L59.2169 153.737L59.5041 152.795L58.5476 152.503ZM77.7134 132.704L78.6046 132.25L77.6197 130.315L76.7894 132.321L77.7134 132.704ZM69.5255 155.323L68.5698 155.028L68.2526 156.059L69.3037 156.298L69.5255 155.323ZM84.9874 146.231L84.1175 146.724L84.9874 146.231ZM92.856 159.411L92.7292 160.403L94.8286 160.671L93.7027 158.879L92.856 159.411ZM66.4342 166.413L66.6588 165.439L65.7006 165.218L65.4637 166.172L66.4342 166.413ZM63.5427 180.539L64.5306 180.694L63.5427 180.539ZM63.2341 209.609L62.2555 209.815L63.2341 209.609ZM71.6519 223.856L72.1587 222.994L72.1587 222.994L71.6519 223.856ZM87.9767 224.156L87.6638 223.206L87.9767 224.156ZM112.546 209.348L111.908 208.578H111.908L112.546 209.348ZM123.114 199.735L123.817 200.446L124.498 199.772L123.854 199.063L123.114 199.735ZM101.109 171.903L101.93 171.332L101.665 170.951L101.203 170.907L101.109 171.903ZM138.887 199.735L138.146 199.063L137.503 199.772L138.183 200.446L138.887 199.735ZM149.454 209.347L148.816 210.118L149.454 209.347ZM174.023 224.155L173.71 225.105L174.023 224.155ZM190.348 223.855L190.854 224.717V224.717L190.348 223.855ZM198.765 209.608L199.744 209.814L198.765 209.608ZM198.457 180.538L197.469 180.693L198.457 180.538ZM195.565 166.413L196.536 166.172L196.299 165.218L195.341 165.439L195.565 166.413ZM160.891 171.903L160.797 170.907L160.335 170.951L160.07 171.332L160.891 171.903ZM131 191.463L130.258 192.133L131 192.956L131.742 192.133L131 191.463ZM146.141 172.935L146.943 173.532L148.204 171.838L146.095 171.936L146.141 172.935ZM115.859 172.935L115.905 171.936L113.797 171.838L115.057 173.532L115.859 172.935ZM192.474 155.323L192.696 156.298L193.747 156.059L193.43 155.028L192.474 155.323ZM169.144 159.411L168.297 158.879L167.171 160.671L169.271 160.403L169.144 159.411ZM184.286 132.704L185.21 132.321L184.38 130.315L183.395 132.25L184.286 132.704ZM177.012 146.232L176.142 145.739L177.012 146.232ZM190.784 119.18L189.872 118.768L189.686 119.18L189.872 119.592L190.784 119.18ZM203.452 152.503L202.496 152.795L202.783 153.737L203.729 153.464L203.452 152.503ZM216.911 147.991L217.273 148.923L216.911 147.991ZM241.789 133.728L242.465 134.464L241.789 133.728ZM241.789 104.634L242.465 103.898L241.789 104.634ZM216.911 90.3711L216.549 91.3031L216.911 90.3711ZM203.452 85.8581L203.729 84.8973L202.782 84.6244L202.495 85.5665L203.452 85.8581ZM160.893 66.4589L160.071 67.0296L160.337 67.411L160.799 67.4545L160.893 66.4589ZM195.565 71.9481L195.34 72.9226L196.299 73.1434L196.536 72.1891L195.565 71.9481ZM138.887 38.6246L138.183 37.9139L137.503 38.5877L138.146 39.2967L138.887 38.6246ZM149.454 29.0122L150.091 29.7826L149.454 29.0122ZM174.023 14.2048L174.336 15.1546L174.023 14.2048ZM190.348 14.505L190.854 13.6429V13.6429L190.348 14.505ZM198.765 28.7514L199.744 28.5459L198.765 28.7514ZM198.457 57.8219L199.445 57.9774L198.457 57.8219ZM184.286 105.656L183.395 106.109L184.38 108.045L185.21 106.038L184.286 105.656ZM192.474 83.039L193.429 83.3332L193.746 82.303L192.695 82.0639L192.474 83.039ZM177.012 92.1277L176.142 92.6209L177.012 92.1277ZM169.146 78.9506L169.272 77.9587L167.173 77.6905L168.299 79.4826L169.146 78.9506ZM72.1587 15.366C75.6354 13.322 80.6572 12.8454 87.6638 15.1536L88.2896 13.254C80.9567 10.8383 75.2874 11.2066 71.1451 13.6419L72.1587 15.366ZM64.2128 28.956C65.7554 21.6118 68.6779 17.4124 72.1587 15.366L71.1451 13.6419C67.0068 16.0749 63.8652 20.8814 62.2555 28.5449L64.2128 28.956ZM64.5306 57.6655C62.7001 46.0314 62.6705 36.2987 64.2128 28.956L62.2555 28.5449C60.6458 36.2081 60.7026 46.2036 62.5549 57.9764L64.5306 57.6655ZM67.4052 71.7072C66.1927 66.8251 65.2332 62.1311 64.5306 57.6655L62.5549 57.9764C63.2674 62.5049 64.2391 67.2562 65.4642 72.1892L67.4052 71.7072ZM101.014 65.4633C88.6513 66.6273 76.9512 68.4981 66.2101 70.9738L66.6593 72.9227C77.3071 70.4685 88.9193 68.6109 101.201 67.4545L101.014 65.4633ZM101.929 67.0296C109.054 56.7747 116.442 47.4612 123.854 39.2967L122.373 37.9523C114.898 46.1864 107.457 55.5686 100.286 65.8883L101.929 67.0296ZM111.908 29.7816C115.354 32.6331 118.865 35.8256 122.41 39.3352L123.817 37.9139C120.234 34.3668 116.679 31.1339 113.183 28.2408L111.908 29.7816ZM87.6638 15.1536C94.6724 17.4624 102.93 22.3514 111.908 29.7816L113.183 28.2408C104.096 20.7198 95.619 15.6685 88.2896 13.254L87.6638 15.1536ZM119.038 20.8485C122.753 23.9233 126.516 27.3455 130.297 31.0882L131.704 29.667C127.885 25.8866 124.078 22.4239 120.313 19.3078L119.038 20.8485ZM91.1433 4.20114C99.9447 7.1006 109.433 12.8997 119.038 20.8485L120.313 19.3078C110.599 11.268 100.891 5.30669 91.7691 2.30156L91.1433 4.20114ZM66.5065 5.39697C73.7165 1.15808 82.3424 1.30185 91.1433 4.20114L91.7691 2.30156C82.648 -0.703226 73.3724 -0.959643 65.4929 3.67286L66.5065 5.39697ZM53.1585 26.5483C55.0955 17.3263 59.2924 9.63827 66.5065 5.39697L65.4929 3.67286C57.6175 8.30295 53.204 16.602 51.2012 26.1372L53.1585 26.5483ZM53.3686 59.4866C51.4104 47.0403 51.222 35.7674 53.1585 26.5483L51.2012 26.1372C49.1974 35.6768 49.4128 47.2124 51.3929 59.7974L53.3686 59.4866ZM56.4482 74.5387C55.1551 69.3327 54.1261 64.3015 53.3686 59.4866L51.3929 59.7974C52.1603 64.6752 53.2014 69.7637 54.5072 75.0208L56.4482 74.5387ZM41.4191 80.5491C45.8909 78.8103 50.6824 77.2028 55.7547 75.7406L55.2008 73.8189C50.0762 75.2961 45.2273 76.9225 40.6943 78.685L41.4191 80.5491ZM13.3134 96.8257C20.1818 90.5119 29.8584 85.0439 41.4191 80.5491L40.6943 78.685C28.9978 83.2327 19.0749 88.8129 11.9599 95.3533L13.3134 96.8257ZM2 119.181C2 110.685 6.44556 103.139 13.3134 96.8257L11.9599 95.3533C4.84553 101.893 0 109.934 0 119.181H2ZM13.3134 141.536C6.44556 135.223 2 127.677 2 119.181H0C0 128.428 4.84553 136.469 11.9599 143.008L13.3134 141.536ZM41.4191 157.813C29.8584 153.318 20.1818 147.85 13.3134 141.536L11.9599 143.008C19.0749 149.549 28.9978 155.129 40.6943 159.677L41.4191 157.813ZM55.7542 162.621C50.6821 161.159 45.8908 159.551 41.4191 157.813L40.6943 159.677C45.2272 161.439 50.0758 163.066 55.2002 164.543L55.7542 162.621ZM53.3686 178.873C54.126 174.059 55.1548 169.028 56.4477 163.823L54.5067 163.341C53.2011 168.597 52.1602 173.685 51.3929 178.562L53.3686 178.873ZM53.1585 211.811C51.222 202.592 51.4104 191.319 53.3686 178.873L51.3929 178.562C49.4128 191.147 49.1974 202.683 51.2012 212.222L53.1585 211.811ZM66.5065 232.963C59.2924 228.721 55.0955 221.033 53.1585 211.811L51.2012 212.222C53.204 221.758 57.6175 230.057 65.4929 234.687L66.5065 232.963ZM91.1433 234.158C82.3424 237.058 73.7165 237.201 66.5065 232.963L65.4929 234.687C73.3724 239.319 82.6479 239.063 91.7691 236.058L91.1433 234.158ZM119.038 217.511C109.433 225.46 99.9447 231.259 91.1433 234.158L91.7691 236.058C100.891 233.053 110.599 227.092 120.313 219.052L119.038 217.511ZM130.297 207.271C126.516 211.014 122.753 214.436 119.038 217.511L120.313 219.052C124.078 215.936 127.885 212.473 131.704 208.693L130.297 207.271ZM142.962 217.51C139.247 214.436 135.484 211.014 131.704 207.271L130.297 208.693C134.115 212.473 137.922 215.935 141.686 219.051L142.962 217.51ZM170.856 234.157C162.055 231.258 152.566 225.459 142.962 217.51L141.686 219.051C151.401 227.091 161.108 233.052 170.23 236.057L170.856 234.157ZM195.493 232.962C188.283 237.2 179.657 237.057 170.856 234.157L170.23 236.057C179.351 239.062 188.627 239.318 196.507 234.686L195.493 232.962ZM208.841 211.81C206.904 221.032 202.707 228.72 195.493 232.962L196.507 234.686C204.382 230.056 208.795 221.757 210.798 212.221L208.841 211.81ZM208.631 178.872C210.589 191.318 210.777 202.591 208.841 211.81L210.798 212.221C212.802 202.682 212.587 191.146 210.607 178.561L208.631 178.872ZM205.552 163.823C206.845 169.028 207.873 174.058 208.631 178.872L210.607 178.561C209.839 173.684 208.798 168.597 207.493 163.341L205.552 163.823ZM220.581 157.813C216.109 159.551 211.318 161.159 206.245 162.621L206.799 164.543C211.924 163.066 216.773 161.439 221.306 159.677L220.581 157.813ZM248.687 141.536C241.818 147.85 232.142 153.318 220.581 157.813L221.306 159.677C233.002 155.129 242.925 149.549 250.04 143.008L248.687 141.536ZM260 119.181C260 127.677 255.554 135.223 248.687 141.536L250.04 143.008C257.154 136.469 262 128.428 262 119.181H260ZM248.687 96.8257C255.554 103.139 260 110.685 260 119.181H262C262 109.934 257.154 101.893 250.04 95.3533L248.687 96.8257ZM220.581 80.5491C232.142 85.0439 241.818 90.5119 248.687 96.8257L250.04 95.3533C242.925 88.8129 233.002 83.2327 221.306 78.685L220.581 80.5491ZM206.245 75.7405C211.317 77.2027 216.109 78.8103 220.581 80.5491L221.306 78.685C216.773 76.9225 211.924 75.296 206.799 73.8188L206.245 75.7405ZM208.631 59.4876C207.873 64.3022 206.844 69.333 205.551 74.5386L207.492 75.0207C208.798 69.7639 209.839 64.6759 210.607 59.7984L208.631 59.4876ZM208.841 26.5493C210.777 35.7684 210.589 47.0413 208.631 59.4876L210.607 59.7984C212.587 47.2134 212.802 35.6778 210.798 26.1382L208.841 26.5493ZM195.493 5.39797C202.707 9.63927 206.904 17.3273 208.841 26.5493L210.798 26.1382C208.795 16.603 204.382 8.30395 196.507 3.67386L195.493 5.39797ZM170.856 4.20214C179.657 1.30285 188.283 1.15908 195.493 5.39797L196.507 3.67386C188.627 -0.958644 179.351 -0.702227 170.23 2.30256L170.856 4.20214ZM142.962 20.8495C152.566 12.9007 162.055 7.1016 170.856 4.20214L170.23 2.30256C161.108 5.30769 151.401 11.269 141.686 19.3088L142.962 20.8495ZM131.704 31.0882C135.484 27.3459 139.247 23.924 142.962 20.8495L141.686 19.3088C137.922 22.4246 134.115 25.887 130.297 29.667L131.704 31.0882ZM130.258 46.2261C125.172 51.8598 120.074 58.0843 115.055 64.8297L116.66 66.0236C121.644 59.3253 126.701 53.15 131.742 47.5663L130.258 46.2261ZM131 64.0778C125.866 64.0778 120.797 64.1964 115.811 64.4277L115.904 66.4255C120.859 66.1957 125.896 66.0778 131 66.0778V64.0778ZM146.189 64.4277C141.203 64.1964 136.134 64.0778 131 64.0778V66.0778C136.104 66.0778 141.142 66.1957 146.096 66.4256L146.189 64.4277ZM130.258 47.5663C135.299 53.15 140.356 59.3253 145.34 66.0236L146.945 64.8297C141.926 58.0843 136.828 51.8598 131.742 46.2261L130.258 47.5663ZM69.748 84.0141C77.0155 82.3608 84.7945 80.9885 92.9812 79.9426L92.7278 77.9587C84.4814 79.0123 76.6388 80.3954 69.3043 82.0639L69.748 84.0141ZM78.6374 105.274C75.433 97.5296 72.7101 89.982 70.4819 82.7448L68.5704 83.3333C70.8182 90.6341 73.5627 98.2405 76.7894 106.038L78.6374 105.274ZM78.6046 106.109C80.8867 101.625 83.3054 97.1229 85.8573 92.6219L84.1175 91.6355C81.5508 96.1625 79.1179 100.691 76.8222 105.202L78.6046 106.109ZM85.8573 92.6219C88.4091 88.1211 91.0284 83.7373 93.7013 79.4826L92.0077 78.4187C89.3188 82.6989 86.6841 87.1087 84.1175 91.6355L85.8573 92.6219ZM93.9073 97.3912C89.8435 104.559 86.1402 111.705 82.8071 118.752L84.615 119.607C87.9269 112.605 91.6075 105.503 95.6472 98.3776L93.9073 97.3912ZM106.524 76.9215C102.197 83.3845 97.9711 90.2237 93.9073 97.3912L95.6472 98.3776C99.6868 91.2526 103.887 84.4556 108.186 78.0341L106.524 76.9215ZM107.431 78.4749C115.041 77.8946 122.921 77.5891 131 77.5891V75.5891C122.871 75.5891 114.94 75.8965 107.279 76.4807L107.431 78.4749ZM131 77.5891C139.079 77.5891 146.959 77.8946 154.569 78.4749L154.721 76.4807C147.06 75.8965 139.129 75.5891 131 75.5891V77.5891ZM153.814 78.0341C158.113 84.4553 162.313 91.252 166.352 98.3766L168.092 97.3902C164.028 90.223 159.803 83.3842 155.476 76.9215L153.814 78.0341ZM166.352 98.3766C170.392 105.502 174.073 112.605 177.385 119.607L179.193 118.752C175.86 111.705 172.156 104.558 168.092 97.3902L166.352 98.3766ZM168.092 140.969C172.156 133.801 175.86 126.655 179.193 119.607L177.385 118.752C174.073 125.754 170.392 132.858 166.352 139.983L168.092 140.969ZM155.475 161.44C159.802 154.977 164.028 148.137 168.092 140.969L166.352 139.983C162.312 147.108 158.112 153.906 153.813 160.328L155.475 161.44ZM154.568 159.887C146.958 160.467 139.078 160.773 131 160.773V162.773C139.129 162.773 147.059 162.465 154.72 161.881L154.568 159.887ZM131 160.773C122.922 160.773 115.042 160.467 107.432 159.887L107.28 161.881C114.941 162.465 122.871 162.773 131 162.773V160.773ZM108.187 160.328C103.888 153.906 99.6873 147.108 95.6472 139.982L93.9073 140.968C97.9716 148.137 102.198 154.977 106.525 161.44L108.187 160.328ZM95.6472 139.982C91.6075 132.857 87.9269 125.754 84.615 118.752L82.8071 119.607C86.1402 126.654 89.8435 133.801 93.9073 140.968L95.6472 139.982ZM57.5916 86.1498C60.8562 96.8579 65.1145 108.109 70.305 119.592L72.1275 118.768C66.9693 107.357 62.7422 96.1859 59.5047 85.5666L57.5916 86.1498ZM45.4513 91.3031C49.5986 89.6906 54.0687 88.1904 58.8252 86.8191L58.2712 84.8974C53.4626 86.2837 48.9351 87.8027 44.7266 89.4391L45.4513 91.3031ZM20.8882 105.37C26.3579 100.342 34.6453 95.5046 45.4513 91.3031L44.7266 89.4391C33.7847 93.6934 25.251 98.6433 19.5347 103.898L20.8882 105.37ZM13.3043 119.181C13.3043 115.075 15.4201 110.397 20.8882 105.37L19.5347 103.898C13.8156 109.155 11.3043 114.328 11.3043 119.181H13.3043ZM20.8882 132.991C15.4201 127.965 13.3043 123.287 13.3043 119.181H11.3043C11.3043 124.033 13.8156 129.206 19.5347 134.464L20.8882 132.991ZM45.4513 147.059C34.6453 142.857 26.3579 138.019 20.8882 132.991L19.5347 134.464C25.251 139.718 33.7847 144.668 44.7266 148.923L45.4513 147.059ZM58.8246 151.542C54.0683 150.171 49.5984 148.671 45.4513 147.059L44.7266 148.923C48.935 150.559 53.4622 152.078 58.2705 153.464L58.8246 151.542ZM59.5041 152.795C62.7416 142.175 66.9689 131.003 72.1275 119.592L70.305 118.768C65.1142 130.251 60.8556 141.503 57.591 152.212L59.5041 152.795ZM76.7894 132.321C73.5624 140.12 70.8177 147.727 68.5698 155.028L70.4813 155.617C72.7096 148.379 75.4327 140.831 78.6374 133.086L76.7894 132.321ZM76.8222 133.157C79.1179 137.669 81.5508 142.197 84.1175 146.724L85.8573 145.738C83.3054 141.237 80.8867 136.735 78.6046 132.25L76.8222 133.157ZM84.1175 146.724C86.6846 151.252 89.3197 155.662 92.0092 159.943L93.7027 158.879C91.0294 154.624 88.4096 150.239 85.8573 145.738L84.1175 146.724ZM92.9827 158.419C84.7952 157.373 77.0155 156.001 69.7474 154.347L69.3037 156.298C76.6388 157.966 84.4821 159.35 92.7292 160.403L92.9827 158.419ZM65.4637 166.172C64.2388 171.105 63.2673 175.855 62.5549 180.383L64.5306 180.694C65.2331 176.229 66.1925 171.536 67.4047 166.654L65.4637 166.172ZM62.5549 180.383C60.7026 192.156 60.6459 202.151 62.2555 209.815L64.2128 209.404C62.6705 202.061 62.7001 192.328 64.5306 180.694L62.5549 180.383ZM62.2555 209.815C63.8652 217.478 67.0068 222.285 71.1451 224.718L72.1587 222.994C68.6779 220.947 65.7554 216.748 64.2128 209.404L62.2555 209.815ZM71.1451 224.718C75.2874 227.153 80.9567 227.521 88.2896 225.106L87.6638 223.206C80.6572 225.514 75.6354 225.038 72.1587 222.994L71.1451 224.718ZM88.2896 225.106C95.619 222.691 104.096 217.64 113.183 210.119L111.908 208.578C102.93 216.008 94.6724 220.897 87.6638 223.206L88.2896 225.106ZM113.183 210.119C116.679 207.226 120.234 203.993 123.817 200.446L122.41 199.024C118.865 202.534 115.354 205.726 111.908 208.578L113.183 210.119ZM123.854 199.063C116.442 190.899 109.055 181.586 101.93 171.332L100.288 172.474C107.458 182.792 114.898 192.174 122.373 200.407L123.854 199.063ZM101.203 170.907C88.9201 169.751 77.3072 167.893 66.6588 165.439L66.2096 167.388C76.9513 169.864 88.6521 171.735 101.015 172.899L101.203 170.907ZM138.183 200.446C141.766 203.992 145.321 207.225 148.816 210.118L150.091 208.577C146.646 205.726 143.135 202.534 139.59 199.024L138.183 200.446ZM148.816 210.118C157.904 217.639 166.38 222.69 173.71 225.105L174.336 223.205C167.327 220.896 159.069 216.007 150.091 208.577L148.816 210.118ZM173.71 225.105C181.043 227.52 186.712 227.152 190.854 224.717L189.841 222.993C186.364 225.037 181.342 225.513 174.336 223.205L173.71 225.105ZM190.854 224.717C194.993 222.284 198.134 217.477 199.744 209.814L197.787 209.403C196.244 216.747 193.321 220.946 189.841 222.993L190.854 224.717ZM199.744 209.814C201.354 202.15 201.297 192.155 199.445 180.382L197.469 180.693C199.299 192.327 199.329 202.06 197.787 209.403L199.744 209.814ZM199.445 180.382C198.732 175.855 197.761 171.104 196.536 166.172L194.595 166.655C195.807 171.535 196.766 176.228 197.469 180.693L199.445 180.382ZM195.341 165.439C184.693 167.893 173.08 169.751 160.797 170.907L160.985 172.899C173.348 171.735 185.048 169.864 195.79 167.388L195.341 165.439ZM160.07 171.332C152.945 181.586 145.558 190.899 138.146 199.063L139.627 200.407C147.102 192.174 154.542 182.792 161.712 172.474L160.07 171.332ZM131.742 192.133C136.828 186.5 141.925 180.277 146.943 173.532L145.339 172.338C140.355 179.036 135.298 185.21 130.258 190.793L131.742 192.133ZM115.057 173.532C120.075 180.277 125.172 186.5 130.258 192.133L131.742 190.793C126.702 185.21 121.645 179.036 116.661 172.338L115.057 173.532ZM131 172.284C125.897 172.284 120.86 172.166 115.905 171.936L115.813 173.934C120.798 174.165 125.866 174.284 131 174.284V172.284ZM146.095 171.936C141.14 172.166 136.103 172.284 131 172.284V174.284C136.134 174.284 141.202 174.165 146.187 173.934L146.095 171.936ZM192.252 154.348C184.984 156.001 177.205 157.373 169.017 158.419L169.271 160.403C177.518 159.35 185.361 157.966 192.696 156.298L192.252 154.348ZM183.362 133.086C186.567 140.831 189.29 148.379 191.518 155.617L193.43 155.028C191.182 147.727 188.437 140.12 185.21 132.321L183.362 133.086ZM183.395 132.25C181.113 136.735 178.694 141.237 176.142 145.739L177.882 146.725C180.449 142.198 182.882 137.669 185.178 133.157L183.395 132.25ZM176.142 145.739C173.59 150.24 170.97 154.624 168.297 158.879L169.991 159.943C172.68 155.663 175.315 151.252 177.882 146.725L176.142 145.739ZM189.872 119.592C195.031 131.003 199.258 142.175 202.496 152.795L204.409 152.212C201.144 141.503 196.886 130.251 191.695 118.768L189.872 119.592ZM203.729 153.464C208.538 152.078 213.065 150.559 217.273 148.923L216.549 147.059C212.402 148.671 207.932 150.171 203.175 151.543L203.729 153.464ZM217.273 148.923C228.215 144.668 236.749 139.718 242.465 134.464L241.112 132.991C235.642 138.019 227.355 142.857 216.549 147.059L217.273 148.923ZM242.465 134.464C248.184 129.206 250.696 124.033 250.696 119.181H248.696C248.696 123.287 246.58 127.965 241.112 132.991L242.465 134.464ZM250.696 119.181C250.696 114.328 248.184 109.155 242.465 103.898L241.112 105.37C246.58 110.397 248.696 115.075 248.696 119.181H250.696ZM242.465 103.898C236.749 98.6433 228.215 93.6934 217.273 89.4391L216.549 91.3031C227.355 95.5046 235.642 100.342 241.112 105.37L242.465 103.898ZM217.273 89.4391C213.065 87.8027 208.537 86.2837 203.729 84.8973L203.175 86.819C207.931 88.1904 212.401 89.6906 216.549 91.3031L217.273 89.4391ZM202.495 85.5665C199.258 96.1858 195.031 107.357 189.872 118.768L191.695 119.592C196.885 108.109 201.144 96.8578 204.408 86.1498L202.495 85.5665ZM160.799 67.4545C173.081 68.6109 184.693 70.4684 195.34 72.9226L195.79 70.9737C185.049 68.498 173.349 66.6273 160.986 65.4633L160.799 67.4545ZM138.146 39.2967C145.559 47.4612 152.946 56.7747 160.071 67.0296L161.714 65.8883C154.543 55.5687 147.103 46.1865 139.627 37.9524L138.146 39.2967ZM148.816 28.2418C145.321 31.1346 141.766 34.3672 138.183 37.9139L139.59 39.3352C143.135 35.826 146.646 32.6339 150.091 29.7826L148.816 28.2418ZM173.71 13.255C166.38 15.6695 157.904 20.7208 148.816 28.2418L150.091 29.7826C159.069 22.3524 167.327 17.4634 174.336 15.1546L173.71 13.255ZM190.854 13.6429C186.712 11.2076 181.043 10.8393 173.71 13.255L174.336 15.1546C181.342 12.8464 186.364 13.323 189.841 15.367L190.854 13.6429ZM199.744 28.5459C198.134 20.8824 194.993 16.0759 190.854 13.6429L189.841 15.367C193.321 17.4134 196.244 21.6128 197.787 28.957L199.744 28.5459ZM199.445 57.9774C201.297 46.2046 201.354 36.2091 199.744 28.5459L197.787 28.957C199.329 36.2997 199.299 46.0324 197.469 57.6665L199.445 57.9774ZM196.536 72.1891C197.76 67.2565 198.732 62.5056 199.445 57.9774L197.469 57.6665C196.766 62.1317 195.807 66.8254 194.594 71.7071L196.536 72.1891ZM185.21 106.038C188.437 98.2404 191.182 90.634 193.429 83.3332L191.518 82.7447C189.29 89.982 186.567 97.5295 183.362 105.273L185.21 106.038ZM176.142 92.6209C178.694 97.1222 181.113 101.624 183.395 106.109L185.178 105.202C182.882 100.69 180.449 96.1618 177.882 91.6345L176.142 92.6209ZM168.299 79.4826C170.971 83.7369 173.59 88.1205 176.142 92.6209L177.882 91.6345C175.316 87.108 172.681 82.6986 169.992 78.4187L168.299 79.4826ZM192.695 82.0639C185.361 80.3954 177.518 79.0123 169.272 77.9587L169.019 79.9426C177.205 80.9885 184.984 82.3608 192.252 84.0141L192.695 82.0639ZM130.999 143.778C144.367 143.778 155.173 132.748 155.173 119.18H153.173C153.173 131.678 143.229 141.778 130.999 141.778V143.778ZM106.825 119.18C106.825 132.748 117.631 143.778 130.999 143.778V141.778C118.77 141.778 108.825 131.678 108.825 119.18H106.825ZM130.999 94.5819C117.631 94.5819 106.825 105.612 106.825 119.18H108.825C108.825 106.682 118.77 96.5819 130.999 96.5819V94.5819ZM155.173 119.18C155.173 105.612 144.367 94.5819 130.999 94.5819V96.5819C143.229 96.5819 153.173 106.682 153.173 119.18H155.173Z" fill="white" fill-opacity="0.2" mask="url(#path-1-outside-1_126_3195)"/>
<defs>
<linearGradient id="paint0_linear_126_3195" x1="68.6981" y1="12.1338" x2="206.466" y2="242.277" gradientUnits="userSpaceOnUse">
<stop stop-color="#07090D" stop-opacity="0.5"/>
<stop offset="1" stop-color="#07090D" stop-opacity="0"/>
</linearGradient>
</defs>
</svg>
