<svg xmlns="http://www.w3.org/2000/svg" width="143" height="40" fill="none"><path fill="#000" fill-rule="evenodd" d="M108.348 16.953c0-3.198 1.306-5.8 3.918-7.807 2.644-2.007 6.096-3.01 10.357-3.01 4.291 0 7.79 1.05 10.496 3.15 2.737 2.102 4.105 4.297 4.105 6.586 0 .282-.109.533-.326.752a.894.894 0 0 1-.654.282h-9.33c-.715 0-1.368-.266-1.959-.8-.591-.532-1.384-.799-2.379-.799-1.493 0-2.239.44-2.239 1.317 0 .47.358.862 1.073 1.176.746.314 2.115.596 4.105.847 4.634.595 7.93 1.693 9.89 3.292 1.99 1.568 2.985 3.966 2.985 7.196 0 3.198-1.461 5.817-4.385 7.855-2.892 2.007-6.686 3.01-11.382 3.01s-8.382-.972-11.056-2.916c-2.675-1.944-4.012-4.312-4.012-7.102a.96.96 0 0 1 .28-.706c.217-.22.466-.329.746-.329h8.864c.653 0 1.368.314 2.145.94.809.628 1.913.941 3.313.941 2.332 0 3.498-.439 3.498-1.317 0-.564-.419-.987-1.259-1.27-.84-.313-2.426-.627-4.758-.94-8.024-1.066-12.036-4.515-12.036-10.348ZM91.956 30.358h14.368c.342 0 .637.125.886.376s.373.549.373.894v6.632c0 .345-.124.643-.373.893-.249.251-.544.377-.886.377H82.019c-.342 0-.637-.126-.886-.377a1.226 1.226 0 0 1-.373-.893V7.876c0-.345.124-.643.373-.894.249-.25.544-.376.886-.376h23.932c.342 0 .637.125.886.376s.373.549.373.894v6.632c0 .345-.124.642-.373.893s-.544.377-.886.377H91.956v2.963h12.968c.342 0 .638.125.887.376.248.25.373.549.373.894v6.114c0 .345-.125.643-.373.894-.249.25-.545.376-.887.376H91.956v2.963ZM50.5 39.53h15.954c8.77 0 13.155-3.45 13.155-10.348 0-1.505-.435-2.885-1.306-4.139-.84-1.285-1.882-2.179-3.126-2.68.934-.471 1.789-1.224 2.566-2.258.778-1.067 1.166-2.274 1.166-3.622v-.141c0-3.261-1.057-5.691-3.172-7.29-2.083-1.63-5.333-2.446-9.75-2.446H50.502c-.342 0-.638.125-.887.376-.248.251-.373.549-.373.894V38.26c0 .345.125.643.373.893.25.251.545.377.887.377Zm-4.918 0h-9.517c-.342 0-.637-.126-.886-.377a1.226 1.226 0 0 1-.373-.893V7.876c0-.345.124-.643.373-.894.249-.25.544-.376.886-.376h9.517c.342 0 .637.125.886.376s.373.549.373.894V38.26c0 .345-.124.643-.373.893-.249.251-.544.377-.886.377ZM32.942 6.606h-8.677c-1.12 0-1.82.517-2.1 1.552l-4.43 17.497-4.433-17.497c-.28-1.035-.98-1.552-2.099-1.552H2.526c-.28 0-.528.11-.746.33-.187.187-.28.375-.28.564 0 .188.016.344.047.47l8.77 30.008c.28 1.034.98 1.552 2.099 1.552h10.636c1.12 0 1.82-.518 2.1-1.553l8.77-30.007c.03-.126.046-.282.046-.47 0-.189-.109-.377-.326-.565a.881.881 0 0 0-.7-.33Z" clip-rule="evenodd"/><path fill="#fff" fill-rule="evenodd" d="M111.457 13.818c0-3.198 1.307-5.801 3.919-7.808C118.02 4.003 121.472 3 125.732 3c4.292 0 7.791 1.05 10.496 3.151 2.737 2.101 4.106 4.296 4.106 6.585 0 .282-.109.533-.327.753a.89.89 0 0 1-.653.282h-9.33c-.715 0-1.368-.267-1.959-.8s-1.384-.8-2.379-.8c-1.493 0-2.24.44-2.24 1.318 0 .47.358.862 1.073 1.175.747.314 2.115.596 4.106.847 4.633.596 7.93 1.693 9.889 3.292 1.991 1.568 2.986 3.967 2.986 7.197 0 3.198-1.462 5.816-4.385 7.854-2.892 2.007-6.687 3.01-11.383 3.01-4.696 0-8.381-.972-11.056-2.916-2.674-1.944-4.012-4.311-4.012-7.102 0-.282.094-.517.28-.705.218-.22.467-.33.747-.33h8.863c.653 0 1.369.314 2.146.941.809.627 1.913.94 3.312.94 2.333 0 3.499-.438 3.499-1.316 0-.565-.42-.988-1.26-1.27-.839-.314-2.425-.627-4.758-.94-8.024-1.067-12.036-4.516-12.036-10.348ZM95.065 27.223h14.368c.342 0 .638.125.887.376.248.25.373.549.373.893v6.632c0 .345-.125.643-.373.894-.249.25-.545.376-.887.376H85.129c-.342 0-.638-.125-.887-.376a1.226 1.226 0 0 1-.373-.894V4.74c0-.345.124-.643.373-.893.25-.251.545-.377.887-.377h23.931c.342 0 .638.126.886.377.249.25.374.548.374.893v6.632c0 .345-.125.643-.374.894-.248.25-.544.376-.886.376H95.065v2.963h12.969c.342 0 .637.125.886.376s.373.55.373.894v6.114c0 .345-.124.643-.373.894-.249.25-.544.376-.886.376H95.065v2.963ZM69.845 13.77c0 .564-.172 1.05-.514 1.458-.31.407-.777.611-1.4.611h-3.918v-4.28h3.919c.622 0 1.088.235 1.4.706.341.439.512.94.512 1.505Zm-5.832 14.533v-4.61h4.338c.653 0 1.167.22 1.54.66.404.438.606.956.606 1.552v.047c0 .595-.186 1.144-.56 1.646-.342.47-.87.705-1.586.705h-4.338Zm-10.403 8.09h15.954c8.77 0 13.156-3.45 13.156-10.347 0-1.506-.436-2.885-1.307-4.14-.84-1.285-1.881-2.179-3.125-2.68.933-.47 1.788-1.223 2.566-2.258.777-1.066 1.166-2.273 1.166-3.622v-.14c0-3.262-1.058-5.692-3.172-7.29-2.084-1.631-5.334-2.447-9.75-2.447H53.61c-.342 0-.637.126-.886.377-.249.25-.373.548-.373.893v30.384c0 .345.124.643.373.894.249.25.544.376.886.376Zm-4.918 0h-9.516c-.343 0-.638-.125-.887-.376a1.226 1.226 0 0 1-.373-.894V4.74c0-.345.124-.643.373-.893.249-.251.544-.377.887-.377h9.516c.342 0 .638.126.886.377.25.25.374.548.374.893v30.384c0 .345-.125.643-.373.894-.25.25-.545.376-.887.376ZM36.052 3.47h-8.677c-1.12 0-1.82.518-2.1 1.552L20.845 22.52 16.412 5.022c-.28-1.034-.98-1.552-2.099-1.552H5.636c-.28 0-.529.11-.746.33-.187.188-.28.376-.28.564 0 .188.015.345.047.47l8.77 30.008c.28 1.035.98 1.552 2.099 1.552h10.636c1.12 0 1.82-.517 2.1-1.552l8.77-30.008c.03-.125.046-.282.046-.47s-.109-.376-.327-.564a.881.881 0 0 0-.7-.33Z" clip-rule="evenodd"/><path fill="#000" d="m115.376 6.01-.453-.597-.004.002.457.595Zm20.852.141-.459.593.003.002.456-.595Zm3.779 7.338.533.528-.533-.528Zm-11.942-.518-.503.557.503-.557Zm-3.546 1.693-.301.687.011.005.29-.692Zm4.106.847.095-.744h-.002l-.093.744Zm9.889 3.292-.474.581.01.009.464-.59Zm-1.399 15.051.427.617.002-.002-.429-.615Zm-22.439.094-.441.607.441-.607Zm-3.732-7.807-.532-.528.532.528Zm11.756.611-.471.584.011.009.46-.593Zm5.551-1.646-.262.703.023.008.239-.711Zm-4.758-.94.1-.744h-.001l-.099.743Zm-28.428 3.056h-.75c0 .415.336.75.75.75v-.75Zm15.255.377.532-.528-.532.528Zm0 8.419.532.528-.532-.528Zm-26.078 0 .533-.528-.533.528Zm0-32.171.533.528-.533-.528Zm25.704 0 .533-.529-.533.529Zm0 8.419.533.528-.533-.528Zm-14.88.376v-.75a.75.75 0 0 0-.75.75h.75Zm0 2.963h-.75c0 .414.335.75.75.75v-.75Zm13.854.376.533-.528-.533.528Zm0 7.902.533.528-.533-.528Zm-13.855.376v-.75a.75.75 0 0 0-.75.75h.75Zm-25.734-9.03-.574-.482a.72.72 0 0 0-.022.027l.596.455Zm-5.318.611h-.75c0 .415.336.75.75.75v-.75Zm0-4.28v-.75a.75.75 0 0 0-.75.75h.75Zm5.318.706-.626.413.035.048.591-.461Zm-5.318 11.429v-.75a.75.75 0 0 0-.75.75h.75Zm0 4.61h-.75c0 .413.336.75.75.75v-.75Zm5.878-3.952-.572.486a.826.826 0 0 0 .02.023l.552-.509Zm.046 3.246-.601-.448-.005.007.606.44Zm11.476-5.691-.628.41.012.017.616-.427Zm-3.125-2.681-.338-.67a.75.75 0 0 0 .057 1.365l.28-.695Zm2.566-2.258.6.45.006-.008-.606-.442ZM78.848 5.916l-.463.59.01.008.453-.598Zm-29.27-2.07.533-.528-.532.529Zm0 32.172.533.528-.532-.528ZM25.276 5.022l-.724-.195-.003.011.727.184ZM20.844 22.52l-.727.184a.75.75 0 0 0 1.454 0l-.727-.184ZM16.412 5.022l.727-.184-.003-.011-.724.195ZM4.89 3.8l.532.528L4.89 3.8Zm-.233 1.034-.728.18.008.03.72-.21Zm8.77 30.008.724-.196a.345.345 0 0 0-.005-.014l-.72.21Zm14.834 0-.72-.21-.004.014.724.196Zm8.77-30.008.72.21a.77.77 0 0 0 .008-.03l-.728-.18Zm-.28-1.034-.57.485c.024.03.051.057.08.082l.49-.567Zm78.168 1.615c-2.791 2.144-4.212 4.963-4.212 8.403h1.5c0-2.957 1.192-5.343 3.626-7.213l-.914-1.19Zm10.813-3.165c-4.377 0-8.003 1.032-10.809 3.163l.907 1.195c2.48-1.883 5.759-2.858 9.902-2.858v-1.5Zm10.956 3.309c-2.867-2.227-6.54-3.309-10.956-3.309v1.5c4.168 0 7.493 1.018 10.037 2.994l.919-1.185Zm4.396 7.177c0-2.622-1.574-5.011-4.399-7.18l-.913 1.19c2.648 2.033 3.812 4.034 3.812 5.99h1.5Zm-.544 1.28a1.79 1.79 0 0 0 .544-1.28h-1.5c0 .065-.016.13-.109.224l1.065 1.057Zm-1.186.505c.463 0 .868-.184 1.186-.504l-1.065-1.057c-.056.057-.086.06-.121.06v1.5Zm-9.33 0h9.33v-1.5h-9.33v1.5Zm-2.462-.993c.712.642 1.54.993 2.462.993v-1.5c-.508 0-.987-.183-1.457-.607l-1.005 1.114Zm-1.876-.606c.858 0 1.455.226 1.876.606l1.005-1.114c-.761-.686-1.749-.992-2.881-.992v1.5Zm-1.49.567c0-.178.05-.26.19-.342.203-.119.602-.225 1.3-.225v-1.5c-.796 0-1.516.112-2.06.432-.606.357-.93.934-.93 1.635h1.5Zm.625.488c-.304-.132-.469-.256-.552-.347-.07-.077-.073-.118-.073-.141h-1.5c0 .935.731 1.515 1.522 1.862l.603-1.374Zm3.897.79c-1.993-.251-3.267-.525-3.908-.794l-.581 1.383c.852.358 2.314.649 4.302.9l.187-1.49Zm10.271 3.455c-2.126-1.735-5.596-2.854-10.269-3.455l-.191 1.488c4.595.59 7.718 1.666 9.511 3.13l.949-1.163ZM142.25 26c0-3.391-1.053-6.038-3.272-7.786l-.928 1.179c1.762 1.387 2.7 3.538 2.7 6.607h1.5Zm-4.706 8.47c3.098-2.16 4.706-4.996 4.706-8.47h-1.5c0 2.922-1.315 5.323-4.064 7.239l.858 1.23Zm-11.812 3.144c4.799 0 8.757-1.025 11.81-3.143l-.855-1.233c-2.731 1.895-6.361 2.876-10.955 2.876v1.5Zm-11.497-3.059c2.847 2.069 6.707 3.06 11.497 3.06v-1.5c-4.602 0-8.112-.954-10.615-2.773l-.882 1.213Zm-4.321-7.709c0 3.077 1.493 5.653 4.321 7.709l.882-1.213c-2.521-1.833-3.703-3.991-3.703-6.496h-1.5Zm.498-1.233a1.71 1.71 0 0 0-.498 1.233h1.5c0-.098.025-.14.063-.177l-1.065-1.056Zm1.279-.552c-.502 0-.937.206-1.279.552l1.065 1.056c.093-.094.156-.108.214-.108v-1.5Zm8.863 0h-8.863v1.5h8.863v-1.5Zm2.617 1.107c-.844-.68-1.722-1.107-2.617-1.107v1.5c.412 0 .964.201 1.675.775l.942-1.168Zm2.841.775c-1.293 0-2.216-.29-2.852-.784l-.92 1.186c.981.76 2.267 1.098 3.772 1.098v-1.5Zm2.749-.567c0 .036-.006.051-.03.079-.038.043-.137.123-.359.207-.454.17-1.219.28-2.36.28v1.5c1.192 0 2.176-.108 2.888-.377.362-.135.7-.33.954-.616.267-.301.407-.67.407-1.073h-1.5Zm-.749-.56c.359.121.554.249.652.347.079.08.097.14.097.213h1.5c0-1.06-.83-1.665-1.771-1.981l-.478 1.422Zm-4.619-.907c2.339.314 3.846.62 4.596.9l.525-1.406c-.929-.347-2.594-.668-4.921-.981l-.2 1.487Zm-12.686-11.091c0 3.11 1.081 5.647 3.27 7.53 2.161 1.857 5.332 3.018 9.417 3.56l.198-1.486c-3.939-.524-6.785-1.62-8.637-3.212-1.822-1.566-2.748-3.67-2.748-6.392h-1.5Zm-1.274 12.655H95.065v1.5h14.368v-1.5Zm1.419.598a1.955 1.955 0 0 0-1.419-.599v1.5c.135 0 .241.04.354.155l1.065-1.056Zm.591 1.421c0-.548-.207-1.034-.591-1.421l-1.065 1.056a.48.48 0 0 1 .156.365h1.5Zm0 6.632v-6.632h-1.5v6.632h1.5Zm-.591 1.422c.384-.388.591-.874.591-1.422h-1.5a.48.48 0 0 1-.156.366l1.065 1.056Zm-1.419.598c.549 0 1.035-.21 1.419-.598l-1.065-1.056a.459.459 0 0 1-.354.154v1.5Zm-24.304 0h24.304v-1.5H85.129v1.5Zm-1.42-.598c.385.388.87.598 1.42.598v-1.5a.46.46 0 0 1-.354-.154l-1.065 1.056Zm-.59-1.422c0 .548.207 1.034.59 1.422l1.066-1.056a.479.479 0 0 1-.156-.366h-1.5Zm0-30.384v30.384h1.5V4.74h-1.5Zm.59-1.422c-.383.388-.59.874-.59 1.422h1.5c0-.142.043-.251.156-.365L83.71 3.318Zm1.42-.598c-.55 0-1.035.21-1.42.598l1.066 1.057a.46.46 0 0 1 .354-.155v-1.5Zm23.931 0H85.129v1.5h23.931v-1.5Zm1.419.598a1.957 1.957 0 0 0-1.419-.598v1.5c.135 0 .241.04.354.155l1.065-1.057Zm.591 1.422c0-.548-.207-1.034-.591-1.422l-1.065 1.057a.48.48 0 0 1 .156.365h1.5Zm0 6.632V4.74h-1.5v6.632h1.5Zm-.591 1.422c.384-.388.591-.874.591-1.422h-1.5a.48.48 0 0 1-.156.366l1.065 1.056Zm-1.419.598c.549 0 1.034-.21 1.419-.598l-1.065-1.056a.459.459 0 0 1-.354.154v1.5Zm-13.995 0h13.995v-1.5H95.065v1.5Zm.75 2.213v-2.963h-1.5v2.963h1.5Zm12.219-.75H95.065v1.5h12.969v-1.5Zm1.419.598a1.957 1.957 0 0 0-1.419-.598v1.5c.135 0 .24.04.354.154l1.065-1.056Zm.59 1.422c0-.548-.206-1.034-.59-1.422l-1.065 1.056a.479.479 0 0 1 .155.366h1.5Zm0 6.114v-6.114h-1.5v6.114h1.5Zm-.59 1.422c.384-.387.59-.873.59-1.422h-1.5a.479.479 0 0 1-.155.366l1.065 1.056Zm-1.419.598c.549 0 1.034-.21 1.419-.598l-1.065-1.056a.46.46 0 0 1-.354.154v1.5Zm-12.969 0h12.969v-1.5H95.065v1.5Zm.75 2.213V24.26h-1.5v2.963h1.5Zm-25.91-11.511c.463-.551.69-1.211.69-1.94h-1.5c0 .4-.117.712-.338.976l1.149.964Zm-1.973.88c.8 0 1.512-.274 1.995-.907l-1.192-.91c-.139.181-.36.316-.803.316v1.5Zm-3.919 0h3.919v-1.5h-3.919v1.5Zm-.75-5.03v4.28h1.5v-4.28h-1.5Zm4.669-.75h-3.919v1.5h3.919v-1.5Zm2.025 1.041c-.466-.705-1.182-1.042-2.025-1.042v1.5c.4 0 .617.133.773.37l1.252-.828Zm.637 1.919c0-.73-.225-1.394-.671-1.966l-1.183.922c.237.305.354.644.354 1.044h1.5Zm-7.331 9.924v4.61h1.5v-4.61h-1.5Zm5.088-.75h-4.338v1.5h4.338v-1.5Zm2.111.923c-.535-.63-1.27-.923-2.11-.923v1.5c.465 0 .757.146.968.394l1.142-.971Zm.785 2.038c0-.785-.273-1.483-.804-2.06l-1.104 1.015c.277.301.408.637.408 1.044h1.5Zm0 .047v-.047h-1.5v.047h1.5Zm-.708 2.093a3.448 3.448 0 0 0 .708-2.093h-1.5c0 .426-.13.819-.411 1.198l1.203.895Zm-2.188 1.008c.894 0 1.677-.305 2.193-1.014l-1.213-.882c-.168.23-.442.396-.98.396v1.5Zm-4.338 0h4.338v-1.5h-4.338v1.5Zm5.551 6.59H53.61v1.5h15.954v-1.5Zm12.406-9.597c0 3.279-1.034 5.622-3.003 7.17-2.004 1.577-5.096 2.427-9.403 2.427v1.5c4.463 0 7.949-.874 10.33-2.747 2.416-1.9 3.576-4.731 3.576-8.35h-1.5Zm-1.173-3.712c.785 1.13 1.173 2.362 1.173 3.712h1.5c0-1.66-.484-3.19-1.44-4.567l-1.233.855Zm-2.79-2.413c1.082.436 2.01 1.22 2.778 2.396l1.256-.82c-.91-1.395-2.066-2.4-3.473-2.967l-.56 1.391Zm2.247-3.404c-.724.965-1.495 1.631-2.304 2.039l.675 1.34c1.058-.534 1.998-1.372 2.828-2.477l-1.199-.902Zm1.016-3.17c0 1.193-.34 2.244-1.022 3.18l1.212.883c.873-1.197 1.31-2.56 1.31-4.064h-1.5Zm0-.142v.141h1.5v-.14h-1.5Zm-2.875-6.692c1.884 1.425 2.875 3.606 2.875 6.692h1.5c0-3.436-1.124-6.114-3.47-7.888l-.905 1.196ZM69.098 4.22c4.351 0 7.398.809 9.287 2.287l.925-1.182C77.03 3.543 73.58 2.72 69.098 2.72v1.5Zm-15.488 0h15.488v-1.5H53.61v1.5Zm-.354.155a.459.459 0 0 1 .354-.155v-1.5c-.55 0-1.034.21-1.419.598l1.065 1.057Zm-.155.365c0-.142.042-.251.155-.365l-1.065-1.057c-.384.388-.59.874-.59 1.422h1.5Zm0 30.384V4.74h-1.5v30.384h1.5Zm.155.366a.478.478 0 0 1-.155-.366h-1.5c0 .548.206 1.034.59 1.422l1.065-1.056Zm.354.154a.459.459 0 0 1-.354-.154l-1.065 1.056c.385.388.87.598 1.42.598v-1.5Zm-14.434 1.5h9.516v-1.5h-9.516v1.5Zm-1.42-.598c.385.388.87.598 1.42.598v-1.5a.46.46 0 0 1-.354-.154l-1.065 1.056Zm-.59-1.422c0 .548.206 1.034.59 1.422l1.066-1.056a.478.478 0 0 1-.156-.366h-1.5Zm0-30.384v30.384h1.5V4.74h-1.5Zm.59-1.422c-.384.388-.59.874-.59 1.422h1.5c0-.142.042-.251.156-.365l-1.065-1.057Zm1.42-.598c-.55 0-1.035.21-1.42.598l1.066 1.057a.46.46 0 0 1 .354-.155v-1.5Zm9.516 0h-9.516v1.5h9.516v-1.5Zm1.419.598a1.955 1.955 0 0 0-1.419-.598v1.5c.135 0 .24.04.354.155l1.065-1.057Zm.59 1.422c0-.548-.206-1.034-.59-1.422l-1.065 1.057a.479.479 0 0 1 .156.365h1.5Zm0 30.384V4.74h-1.5v30.384h1.5Zm-.59 1.422c.384-.388.59-.874.59-1.422h-1.5a.479.479 0 0 1-.155.366l1.065 1.056Zm-1.419.598c.55 0 1.035-.21 1.419-.598l-1.065-1.056a.46.46 0 0 1-.354.154v1.5ZM27.375 4.22h8.677v-1.5h-8.677v1.5ZM26 5.218c.106-.393.272-.62.456-.757.188-.139.474-.24.919-.24v-1.5c-.674 0-1.299.156-1.81.534-.515.381-.84.93-1.013 1.572L26 5.218ZM21.57 22.703l4.432-17.496-1.454-.369-4.432 17.497 1.454.368ZM15.685 5.207l4.432 17.496 1.454-.368-4.432-17.497-1.454.369Zm-1.372-.987c.445 0 .73.102.919.241.184.137.35.364.456.757l1.448-.391c-.173-.642-.498-1.191-1.013-1.572-.511-.378-1.136-.535-1.81-.535v1.5Zm-8.677 0h8.677v-1.5H5.636v1.5Zm-.214.108c.093-.094.156-.108.214-.108v-1.5c-.502 0-.936.206-1.279.551l1.065 1.057Zm-.062.036c0 .016-.002.03-.005.04l-.003.011a.39.39 0 0 1 .07-.087L4.357 3.27c-.268.271-.497.638-.497 1.093h1.5Zm.024.29a1.287 1.287 0 0 1-.024-.29h-1.5c0 .224.018.446.069.65l1.455-.36Zm8.762 29.978L5.377 4.624l-1.44.42 8.77 30.008 1.44-.42Zm1.38 1.012c-.445 0-.73-.102-.919-.241-.184-.137-.35-.364-.456-.757l-1.448.392c.173.642.498 1.19 1.013 1.571.511.378 1.136.535 1.81.535v-1.5Zm10.636 0H15.526v1.5h10.636v-1.5Zm1.375-.998c-.106.393-.272.62-.456.757-.188.139-.473.241-.919.241v1.5c.674 0 1.299-.157 1.81-.535.515-.38.84-.93 1.013-1.571l-1.448-.392Zm8.775-30.022-8.77 30.008 1.44.42 8.77-30.007-1.44-.421Zm.016-.26c0 .152-.013.244-.025.29l1.456.36a2.73 2.73 0 0 0 .07-.65h-1.5Zm-.067.003a.665.665 0 0 1 .086.09s-.005-.008-.01-.026a.244.244 0 0 1-.009-.067h1.5c0-.5-.291-.877-.586-1.132l-.98 1.135Zm-.21-.147c.04 0 .058.007.066.011.01.004.031.016.063.054l1.143-.971a1.63 1.63 0 0 0-1.271-.594v1.5Z"/></svg>