<svg width="120" height="24" viewBox="0 0 120 24" fill="none" xmlns="http://www.w3.org/2000/svg">
<path d="M16.9715 4.99163C17.0547 5.07482 17.1379 5.32441 17.0547 5.49079L14.6421 18.9682C14.5589 19.3842 14.3093 19.6337 13.8934 19.6337H11.6471C11.3976 19.6337 11.2312 19.5506 11.148 19.4674C11.0648 19.3842 10.9816 19.1346 11.0648 18.9682L12.4791 10.9816L8.48577 16.1396C8.31939 16.3892 8.153 16.4724 7.90342 16.4724C7.65383 16.4724 7.48745 16.3892 7.32106 16.1396L5.15802 10.9816L3.74372 18.9682C3.66053 19.3842 3.41095 19.6337 2.99498 19.6337H0.665551C0.415969 19.6337 0.249582 19.5506 0.166388 19.4674C0 19.3842 0 19.2178 0 18.9682L2.41262 5.4076C2.49582 4.99163 2.7454 4.74205 3.16137 4.74205H5.32441C5.74038 4.74205 5.98996 4.90844 6.07315 5.15802L8.65216 11.2312L13.3942 5.15802C13.6438 4.90844 13.8934 4.74205 14.2261 4.74205H16.4724C16.6388 4.74205 16.8884 4.82524 16.9715 4.99163ZM21.88 13.727H25.1245L24.459 8.65216L21.88 13.727ZM27.2044 5.4076L29.4506 18.885C29.4506 19.1346 29.4506 19.301 29.3674 19.4674C29.2842 19.6337 29.0347 19.7169 28.8683 19.7169H26.4556C26.0397 19.7169 25.7069 19.4674 25.7069 19.0514L25.3741 16.8884H20.6321L19.4674 19.0514C19.301 19.4674 18.9682 19.6337 18.5522 19.6337H15.9732C15.7236 19.6337 15.5573 19.5506 15.4741 19.3842C15.3909 19.2178 15.3909 19.0514 15.5573 18.8018L22.5455 5.32441C22.6287 5.07482 22.7951 4.90844 22.8783 4.82524C23.0447 4.74205 23.2111 4.65886 23.4607 4.65886H26.3725C26.8716 4.74205 27.1212 4.99163 27.2044 5.4076ZM38.2692 11.7303L42.2625 18.7186C42.4289 18.885 42.4289 19.1346 42.3457 19.301C42.2625 19.4674 42.0961 19.6337 41.8465 19.6337H39.3507C38.9347 19.6337 38.6851 19.4674 38.4356 19.0514L35.191 13.4774L34.1927 18.9682C34.1095 19.3842 33.8599 19.6337 33.4439 19.6337H31.1145C30.8649 19.6337 30.6985 19.5506 30.6153 19.4674C30.5321 19.3842 30.449 19.1346 30.5321 18.9682L32.9448 5.49079C33.028 5.07482 33.2775 4.82524 33.6935 4.82524H36.0229C36.2725 4.82524 36.4389 4.90844 36.5221 4.99163C36.6053 5.07482 36.6053 5.24121 36.5221 5.49079L35.7734 9.73368L40.349 5.32441C40.6818 4.90844 41.0146 4.74205 41.3473 4.74205H44.1759C44.5087 4.74205 44.5919 4.90844 44.6751 5.07482C44.7583 5.24121 44.6751 5.49079 44.4255 5.65718L38.2692 11.7303ZM54.076 10.732C54.1592 10.8152 54.2424 11.0648 54.2424 11.2312L53.9096 12.895C53.8264 13.311 53.5768 13.5606 53.1609 13.5606H48.0029L47.4205 16.4724H52.9113C53.1609 16.4724 53.3273 16.5556 53.4105 16.6388C53.4936 16.722 53.5768 16.9715 53.4937 17.1379L53.2441 18.9682C53.1609 19.4674 52.8281 19.6337 52.4121 19.6337H43.9264C43.6768 19.6337 43.5104 19.5506 43.4272 19.4674C43.344 19.3842 43.2608 19.1346 43.344 18.9682L45.7566 5.49079C45.8398 5.07482 46.0894 4.82524 46.5054 4.82524H54.9079C55.1575 4.82524 55.3239 4.90844 55.4071 4.99163C55.4903 5.07482 55.5735 5.32441 55.4903 5.49079L55.1575 7.32106C55.0743 7.73703 54.8248 7.98661 54.4088 7.98661H48.918L48.502 10.5656H53.5768C53.8264 10.5656 53.9928 10.6488 54.076 10.732ZM66.4719 5.4076C66.8047 5.57399 66.8879 5.90676 66.7215 6.32273L65.8895 7.82022C65.64 8.40258 65.224 8.31938 64.8912 8.23619C64.1425 7.98661 63.2273 7.82022 62.229 7.82022C60.6483 7.82022 59.8164 8.23619 59.8164 9.15132C59.8164 9.4841 59.9828 9.73368 60.3155 9.98326C60.6483 10.2328 61.2307 10.4824 61.9794 10.8152C62.5618 11.0648 63.0609 11.3144 63.3937 11.4808C63.7265 11.6471 64.1425 11.8967 64.5584 12.2295C64.9744 12.5623 65.3072 12.895 65.4736 13.3942C65.64 13.8102 65.8063 14.3093 65.8063 14.8917C65.8063 16.5556 65.224 17.8867 63.9761 18.7186C62.8114 19.5506 61.2307 20.0497 59.4004 20.0497C58.4021 20.0497 57.487 19.9665 56.5718 19.8001C55.6567 19.6337 54.9911 19.3842 54.5752 19.1346C54.2424 18.9682 54.1592 18.6354 54.3256 18.3026L55.2407 16.722C55.5735 16.2228 55.9063 16.2228 56.1559 16.306C57.071 16.722 58.0693 16.8884 59.1508 16.8884C59.8996 16.8884 60.5651 16.8052 61.1475 16.5556C61.7298 16.306 61.9794 15.9732 61.9794 15.3909C61.9794 15.0581 61.813 14.8085 61.4803 14.5589C61.1475 14.3093 60.5651 14.0598 59.7332 13.727C58.5685 13.311 57.6533 12.7287 56.9878 12.1463C56.3222 11.5639 55.9895 10.6488 55.9895 9.65049C55.9895 7.98661 56.5718 6.7387 57.7365 5.90676C58.9013 5.07482 60.3987 4.65886 62.229 4.65886C63.9761 4.49247 65.4736 4.82524 66.4719 5.4076ZM87.6031 4.74205C87.8527 4.74205 88.0191 4.82524 88.1023 4.99163C88.1855 5.15802 88.1855 5.32441 88.1023 5.57399L81.9459 19.0514C81.6964 19.4674 81.4468 19.6337 81.0308 19.6337H78.4518C77.8695 19.6337 77.7031 19.301 77.7031 18.9682L77.0375 13.0614L76.8711 10.2328L75.7064 13.1446L72.961 19.0514C72.7946 19.4674 72.4618 19.6337 72.0459 19.6337H69.4669C69.0509 19.6337 68.7181 19.3842 68.7181 18.9682L67.387 5.57399C67.387 5.24121 67.387 5.07482 67.5534 4.90844C67.6366 4.82524 67.803 4.74205 68.0526 4.74205H70.4652C71.0476 4.74205 71.2139 5.07482 71.2139 5.4076L71.6299 11.6471L71.7963 14.9749L73.1274 11.5639L75.7896 5.32441C75.956 4.90844 76.2888 4.74205 76.7047 4.74205H78.7846C79.3669 4.74205 79.5333 5.07482 79.6165 5.4076L80.1157 11.6471L80.2821 14.9749L81.6132 11.6471L84.1922 5.4076C84.3586 4.99163 84.6082 4.82524 85.1073 4.82524H87.6031V4.74205ZM107.403 4.74205C107.653 4.74205 107.819 4.82524 107.902 4.90844C107.986 4.99163 108.069 5.24121 107.986 5.4076L107.653 7.23786C107.57 7.65383 107.32 7.90342 106.904 7.90342H101.497L100.997 10.8152H106.072C106.322 10.8152 106.488 10.8984 106.571 10.9816C106.655 11.0648 106.738 11.3144 106.655 11.4808L106.322 13.2278C106.239 13.6438 105.989 13.8934 105.573 13.8934H100.415L99.583 18.885C99.4998 19.301 99.2503 19.5506 98.8343 19.5506H96.5049C96.2553 19.5506 96.0889 19.4674 96.0057 19.3842C95.9225 19.301 95.8393 19.0514 95.9225 18.885L98.3351 5.4076C98.4183 4.99163 98.6679 4.74205 99.0839 4.74205H107.403ZM119.882 4.99163C119.966 5.07482 120.049 5.32441 119.966 5.49079L119.633 7.40425C119.55 7.90342 119.3 8.0698 118.801 8.0698H115.806L113.892 18.885C113.809 19.301 113.56 19.5506 113.144 19.5506H110.814C110.565 19.5506 110.398 19.4674 110.315 19.3842C110.232 19.301 110.149 19.0514 110.232 18.885L112.145 8.0698H109.15C108.901 8.0698 108.734 7.98661 108.651 7.90342C108.568 7.73703 108.485 7.57064 108.568 7.32106L108.901 5.32441C108.984 4.90844 109.234 4.65886 109.65 4.65886H119.383C119.633 4.74205 119.799 4.82524 119.882 4.99163ZM89.8494 8.153C89.5166 8.153 89.1838 7.82022 89.3502 7.48745L91.2637 0.582357C91.3469 0.249582 91.6796 0 92.0124 0H96.3385C96.7545 0 97.0872 0.499163 96.8376 0.831939L94.0091 4.74205H95.7561C96.1721 4.74205 96.4217 5.24121 96.2553 5.57399L91.5132 13.3942C91.43 13.5606 91.2637 13.6438 91.0141 13.6438H90.3485C90.0989 13.6438 89.9326 13.3942 90.0157 13.1446L91.3469 7.98661H89.8494V8.153ZM91.7628 15.9732C92.0956 15.9732 92.4284 16.306 92.262 16.6388L91.5964 19.1346C91.5132 19.4674 91.1805 19.7169 90.8477 19.7169H88.4351C88.1023 19.7169 87.7695 19.3842 87.8527 19.0514L88.5183 16.5556C88.6015 16.2228 88.9342 15.9732 89.267 15.9732H91.7628Z" fill="#EA3BA7"/>
</svg>
