<svg width="20" height="20" viewBox="0 0 20 20" fill="none" xmlns="http://www.w3.org/2000/svg">
<g clip-path="url(#clip0_424_85)">
<mask id="path-1-inside-1_424_85" fill="white">
<path fill-rule="evenodd" clip-rule="evenodd" d="M19.9028 11.3998C18.4401 12.9979 16.3371 14 14 14C9.58172 14 6 10.4183 6 6.00002C6 3.66289 7.00219 1.55984 8.60027 0.097168C3.74008 0.777911 0 4.95217 0 9.99998C0 15.5228 4.47715 20 10 20C15.0478 20 19.222 16.26 19.9028 11.3998Z"/>
</mask>
<path fill-rule="evenodd" clip-rule="evenodd" d="M19.9028 11.3998C18.4401 12.9979 16.3371 14 14 14C9.58172 14 6 10.4183 6 6.00002C6 3.66289 7.00219 1.55984 8.60027 0.097168C3.74008 0.777911 0 4.95217 0 9.99998C0 15.5228 4.47715 20 10 20C15.0478 20 19.222 16.26 19.9028 11.3998Z" fill="#94D0DD"/>
<path d="M19.9028 11.3998L20.8931 11.5385C20.9539 11.1047 20.7252 10.6818 20.3289 10.4951C19.9326 10.3085 19.4609 10.4015 19.1651 10.7246L19.9028 11.3998ZM8.60027 0.097168L9.27543 0.834835C9.59858 0.539062 9.69161 0.0673885 9.50494 -0.328929C9.31828 -0.725246 8.8954 -0.953931 8.46155 -0.893165L8.60027 0.097168ZM19.1651 10.7246C17.8839 12.1244 16.0449 13 14 13V15C16.6293 15 18.9963 13.8713 20.6405 12.075L19.1651 10.7246ZM14 13C10.134 13 7 9.86601 7 6.00002H5C5 10.9706 9.02944 15 14 15V13ZM7 6.00002C7 3.95505 7.87562 2.11604 9.27543 0.834835L7.9251 -0.640499C6.12877 1.00363 5 3.37073 5 6.00002H7ZM1 9.99998C1 5.4578 4.36576 1.70004 8.73898 1.0875L8.46155 -0.893165C3.11439 -0.144214 -1 4.44655 -1 9.99998H1ZM10 19C5.02944 19 1 14.9705 1 9.99998H-1C-1 16.0751 3.92487 21 10 21V19ZM18.9125 11.2611C18.2999 15.6343 14.5422 19 10 19V21C15.5534 21 20.1441 16.8856 20.8931 11.5385L18.9125 11.2611Z" fill="white" mask="url(#path-1-inside-1_424_85)"/>
<path fill-rule="evenodd" clip-rule="evenodd" d="M14.375 5.625L11 4.5L14.375 3.375L15.5 0L16.625 3.375L20 4.5L16.625 5.625L15.5 9L14.375 5.625Z" fill="white"/>
</g>
<defs>
<clipPath id="clip0_424_85">
<rect width="20" height="20" fill="white"/>
</clipPath>
</defs>
</svg>
