<svg width="20" height="20" viewBox="0 0 20 20" fill="none" xmlns="http://www.w3.org/2000/svg">
<g clip-path="url(#clip0_47_81)">
<circle cx="10" cy="10" r="5.5" fill="#FAD880" stroke="black"/>
<path fill-rule="evenodd" clip-rule="evenodd" d="M10.5 2V0H9.5V2H10.5ZM10.5 20V18H9.5V20H10.5ZM15.433 1.58972L14.433 3.32177L13.567 2.82177L14.567 1.08972L15.433 1.58972ZM5.43301 18.9102L6.43301 17.1782L5.56699 16.6782L4.56699 18.4102L5.43301 18.9102ZM18.9103 5.43301L17.1782 6.43301L16.6782 5.56699L18.4103 4.56699L18.9103 5.43301ZM1.58977 15.433L3.32182 14.433L2.82182 13.567L1.08977 14.567L1.58977 15.433ZM20 10.5H18V9.5H20V10.5ZM0 10.5H2V9.5H0V10.5ZM18.4103 15.433L16.6782 14.433L17.1782 13.567L18.9103 14.567L18.4103 15.433ZM1.08977 5.43301L2.82182 6.43301L3.32182 5.56699L1.58977 4.56699L1.08977 5.43301ZM14.567 18.9103L13.567 17.1782L14.433 16.6782L15.433 18.4103L14.567 18.9103ZM4.56699 1.58977L5.56699 3.32182L6.43301 2.82182L5.43301 1.08977L4.56699 1.58977Z" fill="black"/>
</g>
<defs>
<clipPath id="clip0_47_81">
<rect width="20" height="20" fill="white"/>
</clipPath>
</defs>
</svg>
