<svg width="227" height="242" viewBox="0 0 227 242" fill="none" xmlns="http://www.w3.org/2000/svg">
<path d="M211.366 205.724C210.836 205.724 210.406 206.154 210.406 206.684V228.605C210.406 233.265 206.635 237.04 201.986 237.04H47.2113C44.4642 237.04 41.8894 235.698 40.3135 233.443L7.48252 186.469C6.49161 185.051 5.96 183.362 5.96 181.632V40.7105C5.96 38.1476 7.12323 35.7241 9.12074 34.1237L48.2052 2.80786C49.6983 1.61159 51.5532 0.96 53.4648 0.96H217.62C222.269 0.96 226.04 4.73497 226.04 9.39474V197.289C226.04 201.949 222.269 205.724 217.62 205.724H211.366Z" fill="white" stroke="black" stroke-width="1.92" stroke-linejoin="round"/>
<path d="M55.6923 14H214V194.857H55.6923V14Z" fill="url(#paint0_linear_2130_78731)"/>
<path d="M18 44.1429L55.6923 14V194.857L49.6615 225L18 179.786V44.1429Z" fill="url(#paint1_linear_2130_78731)"/>
<path d="M49.6616 194.857H198.923V225H49.6616V194.857Z" fill="url(#paint2_linear_2130_78731)"/>
<rect x="55.6923" y="200.886" width="1.50769" height="18.0857" fill="url(#paint3_linear_2130_78731)"/>
<rect x="60.2154" y="200.886" width="1.50769" height="18.0857" fill="url(#paint4_linear_2130_78731)"/>
<rect x="64.7385" y="200.886" width="1.50769" height="18.0857" fill="url(#paint5_linear_2130_78731)"/>
<rect x="69.2615" y="200.886" width="1.50769" height="18.0857" fill="url(#paint6_linear_2130_78731)"/>
<rect x="73.7846" y="200.886" width="1.50769" height="18.0857" fill="url(#paint7_linear_2130_78731)"/>
<rect x="78.3077" y="200.886" width="1.50769" height="18.0857" fill="url(#paint8_linear_2130_78731)"/>
<rect x="82.8307" y="200.886" width="1.50769" height="18.0857" fill="url(#paint9_linear_2130_78731)"/>
<rect x="87.3539" y="200.886" width="1.50769" height="18.0857" fill="url(#paint10_linear_2130_78731)"/>
<rect x="91.8769" y="200.886" width="1.50769" height="18.0857" fill="url(#paint11_linear_2130_78731)"/>
<rect x="96.4" y="200.886" width="1.50769" height="18.0857" fill="url(#paint12_linear_2130_78731)"/>
<rect x="100.923" y="200.886" width="1.50769" height="18.0857" fill="url(#paint13_linear_2130_78731)"/>
<rect x="105.446" y="200.886" width="1.50769" height="18.0857" fill="url(#paint14_linear_2130_78731)"/>
<rect x="109.969" y="200.886" width="1.50769" height="18.0857" fill="url(#paint15_linear_2130_78731)"/>
<rect x="114.492" y="200.886" width="1.50769" height="18.0857" fill="url(#paint16_linear_2130_78731)"/>
<rect x="119.015" y="200.886" width="1.50769" height="18.0857" fill="url(#paint17_linear_2130_78731)"/>
<rect x="123.538" y="200.886" width="1.50769" height="18.0857" fill="url(#paint18_linear_2130_78731)"/>
<rect x="128.062" y="200.886" width="1.50769" height="18.0857" fill="url(#paint19_linear_2130_78731)"/>
<rect x="132.585" y="200.886" width="1.50769" height="18.0857" fill="url(#paint20_linear_2130_78731)"/>
<rect x="137.108" y="200.886" width="1.50769" height="18.0857" fill="url(#paint21_linear_2130_78731)"/>
<path d="M49.6616 194.857H198.923V203.9H49.6616V194.857Z" fill="black" fill-opacity="0.1"/>
<g clip-path="url(#clip0_2130_78731)">
<mask id="mask0_2130_78731" style="mask-type:alpha" maskUnits="userSpaceOnUse" x="70" y="157" width="24" height="23">
<path d="M91.1212 175.192L93.2745 167.179C93.5799 166.043 93.2556 164.827 92.4214 163.995L86.5692 158.149C85.7318 157.314 84.5104 156.987 83.3677 157.292L75.3685 159.439C74.229 159.744 73.3381 160.636 73.0327 161.772L70.8826 169.782C70.5773 170.919 70.9015 172.134 71.7357 172.966L77.5848 178.816C78.4221 179.651 79.6436 179.977 80.7863 179.673L88.7854 177.525C89.925 177.22 90.8159 176.329 91.1212 175.192Z" fill="#DE489A"/>
</mask>
<g mask="url(#mask0_2130_78731)">
<rect x="70.7692" y="176.179" width="28.5" height="4.75" fill="#973E97"/>
<rect x="70.7692" y="171.429" width="28.5" height="4.75" fill="#E13B3E"/>
<rect x="70.7692" y="166.679" width="28.5" height="4.75" fill="#F5821E"/>
<rect x="70.7692" y="161.929" width="28.5" height="4.75" fill="#FDB827"/>
<rect x="70.7692" y="157.179" width="28.5" height="4.75" fill="#63BB47"/>
</g>
<path fill-rule="evenodd" clip-rule="evenodd" d="M81.6457 167.346H80.3927L80.3896 167.352C80.122 167.352 79.93 167.097 79.9992 166.84L81.3718 161.816C81.4379 161.581 81.6519 161.417 81.8943 161.417H85.0424C85.3666 161.417 85.5618 161.779 85.3792 162.049L83.4337 164.922H84.844C85.1588 164.922 85.354 165.264 85.1903 165.534L81.7621 171.195C81.6897 171.314 81.5575 171.39 81.4158 171.39H80.9153C80.739 171.39 80.6068 171.223 80.654 171.051L81.6457 167.346ZM80.0087 173.004H81.7747L81.7716 173C82.0391 173 82.2312 173.252 82.1651 173.509L81.696 175.297C81.633 175.532 81.419 175.699 81.1734 175.699H79.4137C79.1461 175.699 78.9541 175.45 79.0202 175.193L79.4861 173.406C79.5491 173.17 79.7631 173.004 80.0087 173.004Z" fill="white"/>
</g>
<rect x="171.031" y="145.121" width="24.1231" height="12.8107" rx="2.85" fill="url(#paint22_linear_2130_78731)"/>
<rect x="124.292" y="150.396" width="64.8308" height="2.26154" fill="black"/>
<rect x="174.046" y="148.136" width="18.0923" height="6.78214" rx="1.9" fill="black"/>
<path d="M70.7692 36.6714C70.7692 32.4741 74.1719 29.0714 78.3692 29.0714H191.323C195.52 29.0714 198.923 32.4741 198.923 36.6714V119.436C198.923 123.633 195.52 127.036 191.323 127.036H78.3692C74.1719 127.036 70.7692 123.633 70.7692 119.436V36.6714Z" fill="url(#paint23_linear_2130_78731)"/>
<path d="M76.0461 41.9464C76.0461 37.7491 79.4488 34.3464 83.6461 34.3464H186.046C190.244 34.3464 193.646 37.7491 193.646 41.9464V114.161C193.646 118.358 190.244 121.761 186.046 121.761H83.6461C79.4488 121.761 76.0461 118.358 76.0461 114.161V41.9464Z" fill="#223528"/>
<path fill-rule="evenodd" clip-rule="evenodd" d="M142.674 64.0704H143.017V65.4412H145.417V52.1148H143.017V57.3692H142.674C142.421 56.8489 142.071 56.4491 141.627 56.1698C141.183 55.8779 140.58 55.732 139.818 55.732C139.246 55.732 138.701 55.8399 138.18 56.0556C137.672 56.2714 137.221 56.5887 136.828 57.0075C136.447 57.4136 136.142 57.915 135.914 58.5115C135.698 59.108 135.59 59.787 135.59 60.5485V60.8912C135.59 61.6654 135.691 62.3507 135.895 62.9472C136.11 63.5437 136.402 64.0514 136.771 64.4702C137.152 64.8764 137.59 65.1873 138.085 65.4031C138.593 65.6061 139.139 65.7077 139.723 65.7077C140.18 65.7077 140.567 65.6633 140.884 65.5744C141.214 65.4856 141.494 65.365 141.722 65.2127C141.963 65.0604 142.154 64.8891 142.294 64.6987C142.446 64.4956 142.573 64.2862 142.674 64.0704ZM142.313 62.7188C141.856 63.1884 141.252 63.4232 140.503 63.4232C139.754 63.4232 139.145 63.1947 138.675 62.7378C138.218 62.2682 137.99 61.6336 137.99 60.8341V60.6056C137.99 59.806 138.218 59.1778 138.675 58.7209C139.145 58.2513 139.754 58.0165 140.503 58.0165C141.252 58.0165 141.856 58.2576 142.313 58.7399C142.782 59.2095 143.017 59.8314 143.017 60.6056V60.8341C143.017 61.6083 142.782 62.2365 142.313 62.7188Z" fill="#0ACF83"/>
<path fill-rule="evenodd" clip-rule="evenodd" d="M166.339 84.6945H165.997C165.895 84.9103 165.768 85.1197 165.616 85.3227C165.476 85.5131 165.286 85.6845 165.044 85.8368C164.816 85.9891 164.536 86.1096 164.206 86.1985C163.889 86.2873 163.502 86.3317 163.045 86.3317C162.461 86.3317 161.915 86.2302 161.407 86.0271C160.912 85.8114 160.474 85.5004 160.093 85.0943C159.725 84.6755 159.433 84.1678 159.217 83.5713C159.014 82.9748 158.912 82.2894 158.912 81.5152V81.1726C158.912 80.411 159.02 79.732 159.236 79.1355C159.464 78.539 159.769 78.0377 160.15 77.6316C160.543 77.2127 160.994 76.8954 161.502 76.6797C162.023 76.4639 162.569 76.356 163.14 76.356C163.902 76.356 164.505 76.502 164.949 76.7939C165.394 77.0731 165.743 77.4729 165.997 77.9933H166.339V72.7389H168.739V86.0652H166.339V84.6945ZM163.826 84.0472C164.575 84.0472 165.178 83.8124 165.635 83.3428C166.105 82.8606 166.339 82.2323 166.339 81.4581V81.2297C166.339 80.4555 166.105 79.8336 165.635 79.364C165.178 78.8817 164.575 78.6406 163.826 78.6406C163.076 78.6406 162.467 78.8753 161.997 79.3449C161.54 79.8018 161.312 80.4301 161.312 81.2297V81.4581C161.312 82.2577 161.54 82.8923 161.997 83.3619C162.467 83.8188 163.076 84.0472 163.826 84.0472Z" fill="#0ACF83"/>
<path fill-rule="evenodd" clip-rule="evenodd" d="M119.352 105.319H119.695V106.689H122.095V93.363H119.695V98.6173H119.352C119.098 98.097 118.749 97.6972 118.305 97.418C117.861 97.1261 117.257 96.9801 116.496 96.9801C115.924 96.9801 115.378 97.088 114.858 97.3037C114.35 97.5195 113.899 97.8368 113.506 98.2556C113.125 98.6618 112.82 99.1631 112.592 99.7596C112.376 100.356 112.268 101.035 112.268 101.797V102.139C112.268 102.913 112.369 103.599 112.572 104.195C112.788 104.792 113.08 105.3 113.449 105.718C113.829 106.124 114.267 106.435 114.763 106.651C115.27 106.854 115.816 106.956 116.4 106.956C116.858 106.956 117.245 106.911 117.562 106.823C117.892 106.734 118.172 106.613 118.4 106.461C118.641 106.309 118.832 106.137 118.971 105.947C119.124 105.744 119.251 105.534 119.352 105.319ZM118.991 103.967C118.533 104.436 117.93 104.671 117.181 104.671C116.432 104.671 115.823 104.443 115.353 103.986C114.896 103.516 114.667 102.882 114.667 102.082V101.854C114.667 101.054 114.896 100.426 115.353 99.969C115.823 99.4994 116.432 99.2646 117.181 99.2646C117.93 99.2646 118.533 99.5058 118.991 99.988C119.46 100.458 119.695 101.08 119.695 101.854V102.082C119.695 102.856 119.46 103.485 118.991 103.967Z" fill="#0ACF83"/>
<path d="M136.599 104.214V101.93L143.074 100.197V99.8548L136.599 98.1224V95.8378L144.56 98.0462V102.006L136.599 104.214Z" fill="#0ACF83"/>
<path fill-rule="evenodd" clip-rule="evenodd" d="M126.69 102.748C126.703 103.028 126.766 103.288 126.881 103.529C127.008 103.757 127.173 103.961 127.376 104.138C127.592 104.303 127.833 104.436 128.1 104.538C128.379 104.627 128.671 104.671 128.976 104.671C129.572 104.671 130.029 104.57 130.347 104.367C130.664 104.151 130.893 103.897 131.032 103.605L133.089 104.747C132.975 104.989 132.816 105.242 132.613 105.509C132.41 105.763 132.143 105.998 131.813 106.213C131.496 106.429 131.102 106.607 130.633 106.746C130.175 106.886 129.636 106.956 129.014 106.956C128.303 106.956 127.655 106.842 127.071 106.613C126.487 106.385 125.979 106.055 125.548 105.623C125.129 105.192 124.799 104.665 124.557 104.043C124.329 103.421 124.214 102.717 124.214 101.93V101.816C124.214 101.092 124.335 100.432 124.576 99.8357C124.83 99.2392 125.173 98.7316 125.605 98.3127C126.036 97.8939 126.538 97.5703 127.109 97.3418C127.693 97.1007 128.315 96.9801 128.976 96.9801C129.788 96.9801 130.486 97.1261 131.071 97.418C131.655 97.6972 132.137 98.0589 132.518 98.5031C132.899 98.9346 133.178 99.4169 133.356 99.95C133.534 100.47 133.622 100.978 133.622 101.473V102.748H126.69ZM128.957 99.1504C128.347 99.1504 127.852 99.309 127.471 99.6263C127.09 99.9309 126.843 100.286 126.728 100.692H131.185C131.109 100.248 130.867 99.8802 130.461 99.5883C130.068 99.2963 129.566 99.1504 128.957 99.1504Z" fill="#0ACF83"/>
<path fill-rule="evenodd" clip-rule="evenodd" d="M110.51 102.082C110.51 102.869 110.377 103.567 110.11 104.176C109.843 104.773 109.481 105.28 109.024 105.699C108.567 106.105 108.04 106.416 107.444 106.632C106.86 106.848 106.244 106.956 105.596 106.956C104.949 106.956 104.327 106.848 103.73 106.632C103.146 106.416 102.625 106.105 102.168 105.699C101.711 105.28 101.349 104.773 101.083 104.176C100.816 103.567 100.683 102.869 100.683 102.082V101.854C100.683 101.08 100.816 100.394 101.083 99.7977C101.349 99.1885 101.711 98.6744 102.168 98.2556C102.625 97.8368 103.146 97.5195 103.73 97.3037C104.327 97.088 104.949 96.9801 105.596 96.9801C106.244 96.9801 106.86 97.088 107.444 97.3037C108.04 97.5195 108.567 97.8368 109.024 98.2556C109.481 98.6744 109.843 99.1885 110.11 99.7977C110.377 100.394 110.51 101.08 110.51 101.854V102.082ZM105.596 104.671C105.939 104.671 106.263 104.614 106.568 104.5C106.872 104.386 107.139 104.221 107.368 104.005C107.596 103.789 107.774 103.529 107.901 103.224C108.04 102.907 108.11 102.552 108.11 102.158V101.778C108.11 101.384 108.04 101.035 107.901 100.731C107.774 100.413 107.596 100.147 107.368 99.9309C107.139 99.7152 106.872 99.5502 106.568 99.436C106.263 99.3217 105.939 99.2646 105.596 99.2646C105.254 99.2646 104.93 99.3217 104.625 99.436C104.32 99.5502 104.054 99.7152 103.825 99.9309C103.597 100.147 103.413 100.413 103.273 100.731C103.146 101.035 103.083 101.384 103.083 101.778V102.158C103.083 102.552 103.146 102.907 103.273 103.224C103.413 103.529 103.597 103.789 103.825 104.005C104.054 104.221 104.32 104.386 104.625 104.5C104.93 104.614 105.254 104.671 105.596 104.671Z" fill="#0ACF83"/>
<path d="M97.2681 105.928C98.0807 105.242 98.5949 104.341 98.8107 103.224L96.4492 102.634C96.3349 103.256 96.081 103.751 95.6874 104.119C95.3065 104.487 94.7479 104.671 94.0115 104.671C93.6687 104.671 93.345 104.621 93.0402 104.519C92.7355 104.405 92.4689 104.24 92.2404 104.024C92.0118 103.808 91.8277 103.542 91.6881 103.224C91.5611 102.894 91.4976 102.52 91.4976 102.101V101.987C91.4976 101.568 91.5611 101.194 91.6881 100.864C91.8277 100.521 92.0118 100.236 92.2404 100.007C92.4689 99.7659 92.7355 99.5819 93.0402 99.455C93.345 99.3281 93.6687 99.2646 94.0115 99.2646C94.7479 99.2646 95.3192 99.4677 95.7255 99.8738C96.1318 100.28 96.373 100.762 96.4492 101.321L98.8107 100.711C98.5949 99.5946 98.0743 98.6935 97.2491 98.0081C96.4365 97.3228 95.37 96.9801 94.0496 96.9801C93.364 96.9801 92.7165 97.0943 92.1071 97.3228C91.5103 97.5512 90.9834 97.8812 90.5264 98.3127C90.082 98.7443 89.7328 99.2646 89.4789 99.8738C89.225 100.483 89.098 101.168 89.098 101.93V102.158C89.098 102.92 89.225 103.599 89.4789 104.195C89.7328 104.792 90.082 105.293 90.5264 105.699C90.9707 106.105 91.4913 106.416 92.088 106.632C92.6974 106.848 93.3513 106.956 94.0496 106.956C95.3954 106.956 96.4683 106.613 97.2681 105.928Z" fill="#0ACF83"/>
<path fill-rule="evenodd" clip-rule="evenodd" d="M150.203 82.905C150.089 82.6638 150.025 82.4037 150.012 82.1244H156.945V80.8489C156.945 80.3539 156.856 79.8463 156.678 79.3259C156.5 78.7929 156.221 78.3106 155.84 77.8791C155.459 77.4348 154.977 77.0731 154.393 76.7939C153.809 76.502 153.11 76.356 152.298 76.356C151.638 76.356 151.015 76.4766 150.431 76.7178C149.86 76.9462 149.359 77.2698 148.927 77.6887C148.495 78.1075 148.152 78.6152 147.898 79.2117C147.657 79.8082 147.537 80.4682 147.537 81.1916V81.3058C147.537 82.0927 147.651 82.7971 147.879 83.419C148.121 84.0409 148.451 84.5676 148.87 84.9991C149.301 85.4306 149.809 85.7606 150.393 85.9891C150.977 86.2175 151.625 86.3317 152.336 86.3317C152.958 86.3317 153.498 86.2619 153.955 86.1223C154.424 85.9827 154.818 85.805 155.135 85.5893C155.465 85.3735 155.732 85.1387 155.935 84.8849C156.138 84.6184 156.297 84.3645 156.411 84.1234L154.355 82.9811C154.215 83.273 153.986 83.5269 153.669 83.7426C153.352 83.9457 152.894 84.0472 152.298 84.0472C151.993 84.0472 151.701 84.0028 151.422 83.914C151.155 83.8124 150.914 83.6792 150.698 83.5142C150.495 83.3365 150.33 83.1334 150.203 82.905ZM150.793 79.0023C151.174 78.685 151.669 78.5263 152.279 78.5263C152.888 78.5263 153.39 78.6723 153.783 78.9642C154.19 79.2561 154.431 79.6242 154.507 80.0684H150.05C150.165 79.6622 150.412 79.3069 150.793 79.0023Z" fill="#0ACF83"/>
<path d="M135.971 76.6226H138.77V72.7389H141.17V76.6226H144.579V78.9071H141.17V83.2096C141.17 83.5903 141.341 83.7807 141.684 83.7807H144.236V86.0652H140.237C139.805 86.0652 139.45 85.9256 139.17 85.6464C138.904 85.3672 138.77 85.0118 138.77 84.5803V78.9071H135.971V76.6226Z" fill="#0ACF83"/>
<path d="M127.185 76.6226H124.5V78.9071H127.185V86.0652H129.585V78.9071H133.299V76.6226H129.585V75.5945C129.585 75.2138 129.756 75.0234 130.099 75.0234H132.956V72.7389H129.109C128.563 72.7389 128.106 72.9293 127.738 73.31C127.37 73.6781 127.185 74.135 127.185 74.6807V76.6226Z" fill="#0ACF83"/>
<path fill-rule="evenodd" clip-rule="evenodd" d="M119.029 84.6945C118.775 85.291 118.419 85.7162 117.962 85.97C117.505 86.2112 116.972 86.3317 116.362 86.3317C115.791 86.3317 115.251 86.2239 114.744 86.0081C114.248 85.7923 113.81 85.4751 113.429 85.0562C113.049 84.6374 112.744 84.1297 112.515 83.5332C112.3 82.9367 112.192 82.2577 112.192 81.4962V81.1916C112.192 80.4428 112.3 79.7701 112.515 79.1736C112.731 78.5771 113.023 78.0694 113.391 77.6506C113.76 77.2318 114.185 76.9145 114.667 76.6987C115.163 76.4703 115.689 76.356 116.248 76.356C116.921 76.356 117.461 76.4703 117.867 76.6987C118.286 76.9272 118.616 77.2825 118.857 77.7648H119.2V76.6226H121.6V83.2096C121.6 83.5903 121.771 83.7807 122.114 83.7807H122.476V86.0652H120.838C120.406 86.0652 120.051 85.9383 119.771 85.6845C119.505 85.4306 119.371 85.1006 119.371 84.6945H119.029ZM116.896 84.0472C117.594 84.0472 118.153 83.8188 118.572 83.3619C118.991 82.8923 119.2 82.2577 119.2 81.4581V81.2297C119.2 80.4301 118.991 79.8018 118.572 79.3449C118.153 78.8754 117.594 78.6406 116.896 78.6406C116.197 78.6406 115.639 78.8754 115.22 79.3449C114.801 79.8018 114.591 80.4301 114.591 81.2297V81.4581C114.591 82.2577 114.801 82.8923 115.22 83.3619C115.639 83.8188 116.197 84.0472 116.896 84.0472Z" fill="#0ACF83"/>
<path d="M104.797 76.6226H100.797V78.9071H102.511V83.7807H100.569V86.0652H107.082V83.7807H104.911V80.7347C104.911 80.0493 105.063 79.5226 105.368 79.1546C105.673 78.7865 106.092 78.6025 106.625 78.6025C107.158 78.6025 107.558 78.7611 107.825 79.0784C108.091 79.383 108.225 79.7955 108.225 80.3159V80.5824L110.7 80.3539V79.9351C110.7 78.7294 110.415 77.8346 109.843 77.2508C109.272 76.6543 108.517 76.356 107.577 76.356C106.98 76.356 106.466 76.502 106.034 76.7939C105.615 77.0731 105.317 77.4729 105.139 77.9933H104.797V76.6226Z" fill="#0ACF83"/>
<path d="M98.8107 82.6004C98.5949 83.7172 98.0807 84.6184 97.2681 85.3037C96.4683 85.9891 95.3954 86.3317 94.0496 86.3317C93.3513 86.3317 92.6974 86.2239 92.088 86.0081C91.4913 85.7923 90.9707 85.4814 90.5264 85.0753C90.082 84.6691 89.7328 84.1678 89.4789 83.5713C89.225 82.9748 89.098 82.2958 89.098 81.5343V81.3058C89.098 80.5443 89.225 79.859 89.4789 79.2498C89.7328 78.6406 90.082 78.1202 90.5264 77.6887C90.9834 77.2572 91.5103 76.9272 92.1071 76.6987C92.7165 76.4703 93.364 76.356 94.0496 76.356C95.37 76.356 96.4365 76.6987 97.2491 77.3841C98.0743 78.0694 98.5949 78.9705 98.8107 80.0874L96.4492 80.6966C96.373 80.1382 96.1318 79.6559 95.7255 79.2498C95.3192 78.8436 94.7479 78.6406 94.0115 78.6406C93.6687 78.6406 93.345 78.704 93.0402 78.8309C92.7355 78.9578 92.4689 79.1419 92.2404 79.383C92.0118 79.6115 91.8277 79.897 91.6881 80.2397C91.5611 80.5697 91.4976 80.9441 91.4976 81.3629V81.4772C91.4976 81.896 91.5611 82.2704 91.6881 82.6004C91.8277 82.9177 92.0118 83.1842 92.2404 83.4C92.4689 83.6157 92.7355 83.7807 93.0402 83.8949C93.345 83.9965 93.6687 84.0472 94.0115 84.0472C94.7479 84.0472 95.3065 83.8632 95.6874 83.4951C96.081 83.1271 96.3349 82.6321 96.4492 82.0102L98.8107 82.6004Z" fill="#0ACF83"/>
<path d="M126.976 65.4412H124.576V55.9985H126.976V57.4073H127.319C127.535 56.8742 127.884 56.4618 128.366 56.1698C128.849 55.8779 129.414 55.732 130.061 55.732C130.518 55.732 130.944 55.8081 131.337 55.9604C131.743 56.1 132.099 56.3221 132.404 56.6267C132.708 56.9314 132.943 57.3184 133.108 57.788C133.286 58.2576 133.375 58.8161 133.375 59.4634V65.4412H130.975V60.0726C130.975 59.3999 130.81 58.8732 130.48 58.4924C130.163 58.099 129.699 57.9023 129.09 57.9023C128.379 57.9023 127.846 58.1434 127.49 58.6257C127.147 59.0953 126.976 59.7299 126.976 60.5295V65.4412Z" fill="#0ACF83"/>
<path fill-rule="evenodd" clip-rule="evenodd" d="M117.962 65.346C118.419 65.0921 118.775 64.667 119.029 64.0704H119.371C119.371 64.4766 119.505 64.8066 119.771 65.0604C120.051 65.3142 120.406 65.4412 120.838 65.4412H122.476V63.1566H122.114C121.771 63.1566 121.6 62.9663 121.6 62.5855V55.9985H119.2V57.1408H118.857C118.616 56.6585 118.286 56.3031 117.867 56.0747C117.461 55.8462 116.921 55.732 116.248 55.732C115.689 55.732 115.163 55.8462 114.667 56.0747C114.185 56.2904 113.76 56.6077 113.391 57.0265C113.023 57.4454 112.731 57.953 112.515 58.5495C112.3 59.1461 112.192 59.8187 112.192 60.5675V60.8721C112.192 61.6336 112.3 62.3126 112.515 62.9092C112.744 63.5057 113.049 64.0133 113.429 64.4322C113.81 64.851 114.248 65.1683 114.744 65.384C115.251 65.5998 115.791 65.7077 116.362 65.7077C116.972 65.7077 117.505 65.5871 117.962 65.346ZM118.572 62.7378C118.153 63.1947 117.594 63.4232 116.896 63.4232C116.197 63.4232 115.639 63.1947 115.22 62.7378C114.801 62.2682 114.591 61.6336 114.591 60.8341V60.6056C114.591 59.806 114.801 59.1778 115.22 58.7209C115.639 58.2513 116.197 58.0165 116.896 58.0165C117.594 58.0165 118.153 58.2513 118.572 58.7209C118.991 59.1778 119.2 59.806 119.2 60.6056V60.8341C119.2 61.6336 118.991 62.2682 118.572 62.7378Z" fill="#0ACF83"/>
<path d="M100.93 52.1148H103.444V57.5596H107.748V52.1148H110.262V65.4412H107.748V59.9583H103.444V65.4412H100.93V52.1148Z" fill="#0ACF83"/>
<path d="M89.955 56.7981V60.7579L97.9156 62.9663V60.6818L91.4405 58.9493V58.6067L97.9156 56.8742V54.5897L89.955 56.7981Z" fill="#0ACF83"/>
<defs>
<linearGradient id="paint0_linear_2130_78731" x1="142.385" y1="-1.07143" x2="142.385" y2="194.857" gradientUnits="userSpaceOnUse">
<stop stop-color="#FCF5DB"/>
<stop offset="1" stop-color="#FCE9DB"/>
</linearGradient>
<linearGradient id="paint1_linear_2130_78731" x1="34.5846" y1="-1.07143" x2="34.5846" y2="225" gradientUnits="userSpaceOnUse">
<stop stop-color="#C0F7FF"/>
<stop offset="1" stop-color="#9FB8F9"/>
</linearGradient>
<linearGradient id="paint2_linear_2130_78731" x1="131.831" y1="194.857" x2="131.831" y2="225" gradientUnits="userSpaceOnUse">
<stop stop-color="#FCE9DB"/>
<stop offset="1" stop-color="#FBE4D3"/>
</linearGradient>
<linearGradient id="paint3_linear_2130_78731" x1="56.4462" y1="200.886" x2="56.4462" y2="218.971" gradientUnits="userSpaceOnUse">
<stop stop-color="#B79079"/>
<stop offset="1" stop-color="#A37F6A" stop-opacity="0.5"/>
</linearGradient>
<linearGradient id="paint4_linear_2130_78731" x1="60.9692" y1="200.886" x2="60.9692" y2="218.971" gradientUnits="userSpaceOnUse">
<stop stop-color="#B79079"/>
<stop offset="1" stop-color="#A37F6A" stop-opacity="0.5"/>
</linearGradient>
<linearGradient id="paint5_linear_2130_78731" x1="65.4923" y1="200.886" x2="65.4923" y2="218.971" gradientUnits="userSpaceOnUse">
<stop stop-color="#B79079"/>
<stop offset="1" stop-color="#A37F6A" stop-opacity="0.5"/>
</linearGradient>
<linearGradient id="paint6_linear_2130_78731" x1="70.0154" y1="200.886" x2="70.0154" y2="218.971" gradientUnits="userSpaceOnUse">
<stop stop-color="#B79079"/>
<stop offset="1" stop-color="#A37F6A" stop-opacity="0.5"/>
</linearGradient>
<linearGradient id="paint7_linear_2130_78731" x1="74.5385" y1="200.886" x2="74.5384" y2="218.971" gradientUnits="userSpaceOnUse">
<stop stop-color="#B79079"/>
<stop offset="1" stop-color="#A37F6A" stop-opacity="0.5"/>
</linearGradient>
<linearGradient id="paint8_linear_2130_78731" x1="79.0615" y1="200.886" x2="79.0615" y2="218.971" gradientUnits="userSpaceOnUse">
<stop stop-color="#B79079"/>
<stop offset="1" stop-color="#A37F6A" stop-opacity="0.5"/>
</linearGradient>
<linearGradient id="paint9_linear_2130_78731" x1="83.5846" y1="200.886" x2="83.5846" y2="218.971" gradientUnits="userSpaceOnUse">
<stop stop-color="#B79079"/>
<stop offset="1" stop-color="#A37F6A" stop-opacity="0.5"/>
</linearGradient>
<linearGradient id="paint10_linear_2130_78731" x1="88.1077" y1="200.886" x2="88.1077" y2="218.971" gradientUnits="userSpaceOnUse">
<stop stop-color="#B79079"/>
<stop offset="1" stop-color="#A37F6A" stop-opacity="0.5"/>
</linearGradient>
<linearGradient id="paint11_linear_2130_78731" x1="92.6307" y1="200.886" x2="92.6307" y2="218.971" gradientUnits="userSpaceOnUse">
<stop stop-color="#B79079"/>
<stop offset="1" stop-color="#A37F6A" stop-opacity="0.5"/>
</linearGradient>
<linearGradient id="paint12_linear_2130_78731" x1="97.1538" y1="200.886" x2="97.1538" y2="218.971" gradientUnits="userSpaceOnUse">
<stop stop-color="#B79079"/>
<stop offset="1" stop-color="#A37F6A" stop-opacity="0.5"/>
</linearGradient>
<linearGradient id="paint13_linear_2130_78731" x1="101.677" y1="200.886" x2="101.677" y2="218.971" gradientUnits="userSpaceOnUse">
<stop stop-color="#B79079"/>
<stop offset="1" stop-color="#A37F6A" stop-opacity="0.5"/>
</linearGradient>
<linearGradient id="paint14_linear_2130_78731" x1="106.2" y1="200.886" x2="106.2" y2="218.971" gradientUnits="userSpaceOnUse">
<stop stop-color="#B79079"/>
<stop offset="1" stop-color="#A37F6A" stop-opacity="0.5"/>
</linearGradient>
<linearGradient id="paint15_linear_2130_78731" x1="110.723" y1="200.886" x2="110.723" y2="218.971" gradientUnits="userSpaceOnUse">
<stop stop-color="#B79079"/>
<stop offset="1" stop-color="#A37F6A" stop-opacity="0.5"/>
</linearGradient>
<linearGradient id="paint16_linear_2130_78731" x1="115.246" y1="200.886" x2="115.246" y2="218.971" gradientUnits="userSpaceOnUse">
<stop stop-color="#B79079"/>
<stop offset="1" stop-color="#A37F6A" stop-opacity="0.5"/>
</linearGradient>
<linearGradient id="paint17_linear_2130_78731" x1="119.769" y1="200.886" x2="119.769" y2="218.971" gradientUnits="userSpaceOnUse">
<stop stop-color="#B79079"/>
<stop offset="1" stop-color="#A37F6A" stop-opacity="0.5"/>
</linearGradient>
<linearGradient id="paint18_linear_2130_78731" x1="124.292" y1="200.886" x2="124.292" y2="218.971" gradientUnits="userSpaceOnUse">
<stop stop-color="#B79079"/>
<stop offset="1" stop-color="#A37F6A" stop-opacity="0.5"/>
</linearGradient>
<linearGradient id="paint19_linear_2130_78731" x1="128.815" y1="200.886" x2="128.815" y2="218.971" gradientUnits="userSpaceOnUse">
<stop stop-color="#B79079"/>
<stop offset="1" stop-color="#A37F6A" stop-opacity="0.5"/>
</linearGradient>
<linearGradient id="paint20_linear_2130_78731" x1="133.339" y1="200.886" x2="133.338" y2="218.971" gradientUnits="userSpaceOnUse">
<stop stop-color="#B79079"/>
<stop offset="1" stop-color="#A37F6A" stop-opacity="0.5"/>
</linearGradient>
<linearGradient id="paint21_linear_2130_78731" x1="137.862" y1="200.886" x2="137.862" y2="218.971" gradientUnits="userSpaceOnUse">
<stop stop-color="#B79079"/>
<stop offset="1" stop-color="#A37F6A" stop-opacity="0.5"/>
</linearGradient>
<linearGradient id="paint22_linear_2130_78731" x1="183.092" y1="145.121" x2="183.092" y2="157.932" gradientUnits="userSpaceOnUse">
<stop stop-color="#FAC4A4"/>
<stop offset="1" stop-color="#FAC4A4" stop-opacity="0.5"/>
</linearGradient>
<linearGradient id="paint23_linear_2130_78731" x1="142.385" y1="14" x2="142.385" y2="127.036" gradientUnits="userSpaceOnUse">
<stop stop-color="#FAC4A4" stop-opacity="0.75"/>
<stop offset="1" stop-color="white" stop-opacity="0.75"/>
</linearGradient>
<clipPath id="clip0_2130_78731">
<rect width="22.6154" height="22.6071" fill="white" transform="translate(70.7692 157.179)"/>
</clipPath>
</defs>
</svg>
