<svg width="278" height="296" viewBox="0 0 278 296" fill="none" xmlns="http://www.w3.org/2000/svg">
<mask id="mask0_647_26153" style="mask-type:alpha" maskUnits="userSpaceOnUse" x="0" y="4" width="274" height="292">
<path d="M254.2 256.48C253.67 256.48 253.24 256.91 253.24 257.44V284.32C253.24 290.152 248.512 294.88 242.68 294.88H52.6C49.1541 294.88 45.925 293.199 43.9489 290.376L3.62892 232.776C2.38645 231.001 1.72001 228.887 1.72001 226.72V53.92C1.72001 50.712 3.17823 47.678 5.68323 45.674L53.6832 7.27402C55.5557 5.77609 57.8821 4.96 60.28 4.96H261.88C267.712 4.96 272.44 9.68787 272.44 15.52V245.92C272.44 251.752 267.712 256.48 261.88 256.48H254.2Z" fill="white" stroke="#07090D" stroke-width="1.92" stroke-linejoin="round"/>
</mask>
<g mask="url(#mask0_647_26153)">
<path d="M3.98804 -51L-386.012 339" stroke="black" stroke-width="1.5"/>
<path d="M8.98804 -51L-381.012 339" stroke="black" stroke-width="1.5"/>
<path d="M13.988 -51L-376.012 339" stroke="black" stroke-width="1.5"/>
<path d="M18.988 -51L-371.012 339" stroke="black" stroke-width="1.5"/>
<path d="M23.988 -51L-366.012 339" stroke="black" stroke-width="1.5"/>
<path d="M28.988 -51L-361.012 339" stroke="black" stroke-width="1.5"/>
<path d="M33.988 -51L-356.012 339" stroke="black" stroke-width="1.5"/>
<path d="M38.988 -51L-351.012 339" stroke="black" stroke-width="1.5"/>
<path d="M43.988 -51L-346.012 339" stroke="black" stroke-width="1.5"/>
<path d="M48.988 -51L-341.012 339" stroke="black" stroke-width="1.5"/>
<path d="M53.988 -51L-336.012 339" stroke="black" stroke-width="1.5"/>
<path d="M58.988 -51L-331.012 339" stroke="black" stroke-width="1.5"/>
<path d="M63.988 -51L-326.012 339" stroke="black" stroke-width="1.5"/>
<path d="M68.988 -51L-321.012 339" stroke="black" stroke-width="1.5"/>
<path d="M73.988 -51L-316.012 339" stroke="black" stroke-width="1.5"/>
<path d="M78.988 -51L-311.012 339" stroke="black" stroke-width="1.5"/>
<path d="M83.988 -51L-306.012 339" stroke="black" stroke-width="1.5"/>
<path d="M88.988 -51L-301.012 339" stroke="black" stroke-width="1.5"/>
<path d="M93.988 -51L-296.012 339" stroke="black" stroke-width="1.5"/>
<path d="M98.988 -51L-291.012 339" stroke="black" stroke-width="1.5"/>
<path d="M103.988 -51L-286.012 339" stroke="black" stroke-width="1.5"/>
<path d="M108.988 -51L-281.012 339" stroke="black" stroke-width="1.5"/>
<path d="M113.988 -51L-276.012 339" stroke="black" stroke-width="1.5"/>
<path d="M118.988 -51L-271.012 339" stroke="black" stroke-width="1.5"/>
<path d="M123.988 -51L-266.012 339" stroke="black" stroke-width="1.5"/>
<path d="M128.988 -51L-261.012 339" stroke="black" stroke-width="1.5"/>
<path d="M133.988 -51L-256.012 339" stroke="black" stroke-width="1.5"/>
<path d="M138.988 -51L-251.012 339" stroke="black" stroke-width="1.5"/>
<path d="M143.988 -51L-246.012 339" stroke="black" stroke-width="1.5"/>
<path d="M148.988 -51L-241.012 339" stroke="black" stroke-width="1.5"/>
<path d="M153.988 -51L-236.012 339" stroke="black" stroke-width="1.5"/>
<path d="M158.988 -51L-231.012 339" stroke="black" stroke-width="1.5"/>
<path d="M163.988 -51L-226.012 339" stroke="black" stroke-width="1.5"/>
<path d="M168.988 -51L-221.012 339" stroke="black" stroke-width="1.5"/>
<path d="M173.988 -51L-216.012 339" stroke="black" stroke-width="1.5"/>
<path d="M178.988 -51L-211.012 339" stroke="black" stroke-width="1.5"/>
<path d="M183.988 -51L-206.012 339" stroke="black" stroke-width="1.5"/>
<path d="M188.988 -51L-201.012 339" stroke="black" stroke-width="1.5"/>
<path d="M193.988 -51L-196.012 339" stroke="black" stroke-width="1.5"/>
<path d="M198.988 -51L-191.012 339" stroke="black" stroke-width="1.5"/>
<path d="M203.988 -51L-186.012 339" stroke="black" stroke-width="1.5"/>
<path d="M208.988 -51L-181.012 339" stroke="black" stroke-width="1.5"/>
<path d="M213.988 -51L-176.012 339" stroke="black" stroke-width="1.5"/>
<path d="M218.988 -51L-171.012 339" stroke="black" stroke-width="1.5"/>
<path d="M223.988 -51L-166.012 339" stroke="black" stroke-width="1.5"/>
<path d="M228.988 -51L-161.012 339" stroke="black" stroke-width="1.5"/>
<path d="M233.988 -51L-156.012 339" stroke="black" stroke-width="1.5"/>
<path d="M238.988 -51L-151.012 339" stroke="black" stroke-width="1.5"/>
<path d="M243.988 -51L-146.012 339" stroke="black" stroke-width="1.5"/>
<path d="M248.988 -51L-141.012 339" stroke="black" stroke-width="1.5"/>
<path d="M253.988 -51L-136.012 339" stroke="black" stroke-width="1.5"/>
<path d="M258.988 -51L-131.012 339" stroke="black" stroke-width="1.5"/>
<path d="M263.988 -51L-126.012 339" stroke="black" stroke-width="1.5"/>
<path d="M268.988 -51L-121.012 339" stroke="black" stroke-width="1.5"/>
<path d="M273.988 -51L-116.012 339" stroke="black" stroke-width="1.5"/>
<path d="M278.988 -51L-111.012 339" stroke="black" stroke-width="1.5"/>
<path d="M283.988 -51L-106.012 339" stroke="black" stroke-width="1.5"/>
<path d="M288.988 -51L-101.012 339" stroke="black" stroke-width="1.5"/>
<path d="M293.988 -51L-96.012 339" stroke="black" stroke-width="1.5"/>
<path d="M298.988 -51L-91.012 339" stroke="black" stroke-width="1.5"/>
<path d="M303.988 -51L-86.012 339" stroke="black" stroke-width="1.5"/>
<path d="M308.988 -51L-81.012 339" stroke="black" stroke-width="1.5"/>
<path d="M313.988 -51L-76.012 339" stroke="black" stroke-width="1.5"/>
<path d="M318.988 -51L-71.012 339" stroke="black" stroke-width="1.5"/>
<path d="M323.988 -51L-66.012 339" stroke="black" stroke-width="1.5"/>
<path d="M328.988 -51L-61.012 339" stroke="black" stroke-width="1.5"/>
<path d="M333.988 -51L-56.012 339" stroke="black" stroke-width="1.5"/>
<path d="M338.988 -51L-51.012 339" stroke="black" stroke-width="1.5"/>
<path d="M343.988 -51L-46.012 339" stroke="black" stroke-width="1.5"/>
<path d="M348.988 -51L-41.012 339" stroke="black" stroke-width="1.5"/>
<path d="M353.988 -51L-36.012 339" stroke="black" stroke-width="1.5"/>
<path d="M358.988 -51L-31.012 339" stroke="black" stroke-width="1.5"/>
<path d="M363.988 -51L-26.012 339" stroke="black" stroke-width="1.5"/>
<path d="M368.988 -51L-21.012 339" stroke="black" stroke-width="1.5"/>
<path d="M373.988 -51L-16.012 339" stroke="black" stroke-width="1.5"/>
<path d="M378.988 -51L-11.012 339" stroke="black" stroke-width="1.5"/>
<path d="M383.988 -51L-6.01196 339" stroke="black" stroke-width="1.5"/>
<path d="M388.988 -51L-1.01196 339" stroke="black" stroke-width="1.5"/>
<path d="M393.988 -51L3.98804 339" stroke="black" stroke-width="1.5"/>
<path d="M398.988 -51L8.98804 339" stroke="black" stroke-width="1.5"/>
<path d="M403.988 -51L13.988 339" stroke="black" stroke-width="1.5"/>
<path d="M408.988 -51L18.988 339" stroke="black" stroke-width="1.5"/>
<path d="M413.988 -51L23.988 339" stroke="black" stroke-width="1.5"/>
<path d="M418.988 -51L28.988 339" stroke="black" stroke-width="1.5"/>
<path d="M423.988 -51L33.988 339" stroke="black" stroke-width="1.5"/>
<path d="M428.988 -51L38.988 339" stroke="black" stroke-width="1.5"/>
<path d="M433.988 -51L43.988 339" stroke="black" stroke-width="1.5"/>
<path d="M438.988 -51L48.988 339" stroke="black" stroke-width="1.5"/>
<path d="M443.988 -51L53.988 339" stroke="black" stroke-width="1.5"/>
<path d="M448.988 -51L58.988 339" stroke="black" stroke-width="1.5"/>
<path d="M453.988 -51L63.988 339" stroke="black" stroke-width="1.5"/>
<path d="M458.988 -51L68.988 339" stroke="black" stroke-width="1.5"/>
<path d="M463.988 -51L73.988 339" stroke="black" stroke-width="1.5"/>
<path d="M468.988 -51L78.988 339" stroke="black" stroke-width="1.5"/>
<path d="M473.988 -51L83.988 339" stroke="black" stroke-width="1.5"/>
<path d="M478.988 -51L88.988 339" stroke="black" stroke-width="1.5"/>
<path d="M483.988 -51L93.988 339" stroke="black" stroke-width="1.5"/>
<path d="M488.988 -51L98.988 339" stroke="black" stroke-width="1.5"/>
<path d="M493.988 -51L103.988 339" stroke="black" stroke-width="1.5"/>
<path d="M498.988 -51L108.988 339" stroke="black" stroke-width="1.5"/>
<path d="M503.988 -51L113.988 339" stroke="black" stroke-width="1.5"/>
<path d="M508.988 -51L118.988 339" stroke="black" stroke-width="1.5"/>
<path d="M513.988 -51L123.988 339" stroke="black" stroke-width="1.5"/>
<path d="M518.988 -51L128.988 339" stroke="black" stroke-width="1.5"/>
<path d="M523.988 -51L133.988 339" stroke="black" stroke-width="1.5"/>
<path d="M528.988 -51L138.988 339" stroke="black" stroke-width="1.5"/>
<path d="M533.988 -51L143.988 339" stroke="black" stroke-width="1.5"/>
<path d="M538.988 -51L148.988 339" stroke="black" stroke-width="1.5"/>
<path d="M543.988 -51L153.988 339" stroke="black" stroke-width="1.5"/>
<path d="M548.988 -51L158.988 339" stroke="black" stroke-width="1.5"/>
<path d="M553.988 -51L163.988 339" stroke="black" stroke-width="1.5"/>
<path d="M558.988 -51L168.988 339" stroke="black" stroke-width="1.5"/>
<path d="M563.988 -51L173.988 339" stroke="black" stroke-width="1.5"/>
<path d="M568.988 -51L178.988 339" stroke="black" stroke-width="1.5"/>
<path d="M573.988 -51L183.988 339" stroke="black" stroke-width="1.5"/>
<path d="M578.988 -51L188.988 339" stroke="black" stroke-width="1.5"/>
<path d="M583.988 -51L193.988 339" stroke="black" stroke-width="1.5"/>
<path d="M588.988 -51L198.988 339" stroke="black" stroke-width="1.5"/>
<path d="M593.988 -51L203.988 339" stroke="black" stroke-width="1.5"/>
<path d="M598.988 -51L208.988 339" stroke="black" stroke-width="1.5"/>
<path d="M603.988 -51L213.988 339" stroke="black" stroke-width="1.5"/>
<path d="M608.988 -51L218.988 339" stroke="black" stroke-width="1.5"/>
<path d="M613.988 -51L223.988 339" stroke="black" stroke-width="1.5"/>
<path d="M618.988 -51L228.988 339" stroke="black" stroke-width="1.5"/>
<path d="M623.988 -51L233.988 339" stroke="black" stroke-width="1.5"/>
<path d="M628.988 -51L238.988 339" stroke="black" stroke-width="1.5"/>
<path d="M633.988 -51L243.988 339" stroke="black" stroke-width="1.5"/>
<path d="M638.988 -51L248.988 339" stroke="black" stroke-width="1.5"/>
<path d="M643.988 -51L253.988 339" stroke="black" stroke-width="1.5"/>
<path d="M648.988 -51L258.988 339" stroke="black" stroke-width="1.5"/>
<path d="M653.988 -51L263.988 339" stroke="black" stroke-width="1.5"/>
<path d="M658.988 -51L268.988 339" stroke="black" stroke-width="1.5"/>
</g>
</svg>
