<svg width="227" height="242" viewBox="0 0 227 242" fill="none" xmlns="http://www.w3.org/2000/svg">
<mask id="mask0_2130_78731" style="mask-type:alpha" maskUnits="userSpaceOnUse" x="0" y="4" width="223" height="238">
<path d="M207.126 209.724C206.596 209.724 206.166 210.154 206.166 210.684V232.605C206.166 237.265 202.395 241.04 197.746 241.04H42.9713C40.2243 241.04 37.6495 239.698 36.0735 237.443L3.24253 190.469C2.25162 189.051 1.72001 187.362 1.72001 185.632V44.7105C1.72001 42.1476 2.88324 39.7241 4.88075 38.1237L43.9653 6.80786C45.4583 5.61159 47.3132 4.96 49.2248 4.96H213.38C218.029 4.96 221.8 8.73497 221.8 13.3947V201.289C221.8 205.949 218.029 209.724 213.38 209.724H207.126Z" fill="white" stroke="#07090D" stroke-width="1.92" stroke-linejoin="round"/>
</mask>
<g mask="url(#mask0_2130_78731)">
<path d="M0.545166 -40.8533L-389.455 349.147" stroke="black" stroke-width="1.5"/>
<path d="M5.54517 -40.8533L-384.455 349.147" stroke="black" stroke-width="1.5"/>
<path d="M10.5452 -40.8533L-379.455 349.147" stroke="black" stroke-width="1.5"/>
<path d="M15.5452 -40.8533L-374.455 349.147" stroke="black" stroke-width="1.5"/>
<path d="M20.5452 -40.8533L-369.455 349.147" stroke="black" stroke-width="1.5"/>
<path d="M25.5452 -40.8533L-364.455 349.147" stroke="black" stroke-width="1.5"/>
<path d="M30.5452 -40.8533L-359.455 349.147" stroke="black" stroke-width="1.5"/>
<path d="M35.5452 -40.8533L-354.455 349.147" stroke="black" stroke-width="1.5"/>
<path d="M40.5452 -40.8533L-349.455 349.147" stroke="black" stroke-width="1.5"/>
<path d="M45.5452 -40.8533L-344.455 349.147" stroke="black" stroke-width="1.5"/>
<path d="M50.5452 -40.8533L-339.455 349.147" stroke="black" stroke-width="1.5"/>
<path d="M55.5452 -40.8533L-334.455 349.147" stroke="black" stroke-width="1.5"/>
<path d="M60.5452 -40.8533L-329.455 349.147" stroke="black" stroke-width="1.5"/>
<path d="M65.5452 -40.8533L-324.455 349.147" stroke="black" stroke-width="1.5"/>
<path d="M70.5452 -40.8533L-319.455 349.147" stroke="black" stroke-width="1.5"/>
<path d="M75.5452 -40.8533L-314.455 349.147" stroke="black" stroke-width="1.5"/>
<path d="M80.5452 -40.8533L-309.455 349.147" stroke="black" stroke-width="1.5"/>
<path d="M85.5452 -40.8533L-304.455 349.147" stroke="black" stroke-width="1.5"/>
<path d="M90.5452 -40.8533L-299.455 349.147" stroke="black" stroke-width="1.5"/>
<path d="M95.5452 -40.8533L-294.455 349.147" stroke="black" stroke-width="1.5"/>
<path d="M100.545 -40.8533L-289.455 349.147" stroke="black" stroke-width="1.5"/>
<path d="M105.545 -40.8533L-284.455 349.147" stroke="black" stroke-width="1.5"/>
<path d="M110.545 -40.8533L-279.455 349.147" stroke="black" stroke-width="1.5"/>
<path d="M115.545 -40.8533L-274.455 349.147" stroke="black" stroke-width="1.5"/>
<path d="M120.545 -40.8533L-269.455 349.147" stroke="black" stroke-width="1.5"/>
<path d="M125.545 -40.8533L-264.455 349.147" stroke="black" stroke-width="1.5"/>
<path d="M130.545 -40.8533L-259.455 349.147" stroke="black" stroke-width="1.5"/>
<path d="M135.545 -40.8533L-254.455 349.147" stroke="black" stroke-width="1.5"/>
<path d="M140.545 -40.8533L-249.455 349.147" stroke="black" stroke-width="1.5"/>
<path d="M145.545 -40.8533L-244.455 349.147" stroke="black" stroke-width="1.5"/>
<path d="M150.545 -40.8533L-239.455 349.147" stroke="black" stroke-width="1.5"/>
<path d="M155.545 -40.8533L-234.455 349.147" stroke="black" stroke-width="1.5"/>
<path d="M160.545 -40.8533L-229.455 349.147" stroke="black" stroke-width="1.5"/>
<path d="M165.545 -40.8533L-224.455 349.147" stroke="black" stroke-width="1.5"/>
<path d="M170.545 -40.8533L-219.455 349.147" stroke="black" stroke-width="1.5"/>
<path d="M175.545 -40.8533L-214.455 349.147" stroke="black" stroke-width="1.5"/>
<path d="M180.545 -40.8533L-209.455 349.147" stroke="black" stroke-width="1.5"/>
<path d="M185.545 -40.8533L-204.455 349.147" stroke="black" stroke-width="1.5"/>
<path d="M190.545 -40.8533L-199.455 349.147" stroke="black" stroke-width="1.5"/>
<path d="M195.545 -40.8533L-194.455 349.147" stroke="black" stroke-width="1.5"/>
<path d="M200.545 -40.8533L-189.455 349.147" stroke="black" stroke-width="1.5"/>
<path d="M205.545 -40.8533L-184.455 349.147" stroke="black" stroke-width="1.5"/>
<path d="M210.545 -40.8533L-179.455 349.147" stroke="black" stroke-width="1.5"/>
<path d="M215.545 -40.8533L-174.455 349.147" stroke="black" stroke-width="1.5"/>
<path d="M220.545 -40.8533L-169.455 349.147" stroke="black" stroke-width="1.5"/>
<path d="M225.545 -40.8533L-164.455 349.147" stroke="black" stroke-width="1.5"/>
<path d="M230.545 -40.8533L-159.455 349.147" stroke="black" stroke-width="1.5"/>
<path d="M235.545 -40.8533L-154.455 349.147" stroke="black" stroke-width="1.5"/>
<path d="M240.545 -40.8533L-149.455 349.147" stroke="black" stroke-width="1.5"/>
<path d="M245.545 -40.8533L-144.455 349.147" stroke="black" stroke-width="1.5"/>
<path d="M250.545 -40.8533L-139.455 349.147" stroke="black" stroke-width="1.5"/>
<path d="M255.545 -40.8533L-134.455 349.147" stroke="black" stroke-width="1.5"/>
<path d="M260.545 -40.8533L-129.455 349.147" stroke="black" stroke-width="1.5"/>
<path d="M265.545 -40.8533L-124.455 349.147" stroke="black" stroke-width="1.5"/>
<path d="M270.545 -40.8533L-119.455 349.147" stroke="black" stroke-width="1.5"/>
<path d="M275.545 -40.8533L-114.455 349.147" stroke="black" stroke-width="1.5"/>
<path d="M280.545 -40.8533L-109.455 349.147" stroke="black" stroke-width="1.5"/>
<path d="M285.545 -40.8533L-104.455 349.147" stroke="black" stroke-width="1.5"/>
<path d="M290.545 -40.8533L-99.4548 349.147" stroke="black" stroke-width="1.5"/>
<path d="M295.545 -40.8533L-94.4548 349.147" stroke="black" stroke-width="1.5"/>
<path d="M300.545 -40.8533L-89.4548 349.147" stroke="black" stroke-width="1.5"/>
<path d="M305.545 -40.8533L-84.4548 349.147" stroke="black" stroke-width="1.5"/>
<path d="M310.545 -40.8533L-79.4548 349.147" stroke="black" stroke-width="1.5"/>
<path d="M315.545 -40.8533L-74.4548 349.147" stroke="black" stroke-width="1.5"/>
<path d="M320.545 -40.8533L-69.4548 349.147" stroke="black" stroke-width="1.5"/>
<path d="M325.545 -40.8533L-64.4548 349.147" stroke="black" stroke-width="1.5"/>
<path d="M330.545 -40.8533L-59.4548 349.147" stroke="black" stroke-width="1.5"/>
<path d="M335.545 -40.8533L-54.4548 349.147" stroke="black" stroke-width="1.5"/>
<path d="M340.545 -40.8533L-49.4548 349.147" stroke="black" stroke-width="1.5"/>
<path d="M345.545 -40.8533L-44.4548 349.147" stroke="black" stroke-width="1.5"/>
<path d="M350.545 -40.8533L-39.4548 349.147" stroke="black" stroke-width="1.5"/>
<path d="M355.545 -40.8533L-34.4548 349.147" stroke="black" stroke-width="1.5"/>
<path d="M360.545 -40.8533L-29.4548 349.147" stroke="black" stroke-width="1.5"/>
<path d="M365.545 -40.8533L-24.4548 349.147" stroke="black" stroke-width="1.5"/>
<path d="M370.545 -40.8533L-19.4548 349.147" stroke="black" stroke-width="1.5"/>
<path d="M375.545 -40.8533L-14.4548 349.147" stroke="black" stroke-width="1.5"/>
<path d="M380.545 -40.8533L-9.45483 349.147" stroke="black" stroke-width="1.5"/>
<path d="M385.545 -40.8533L-4.45483 349.147" stroke="black" stroke-width="1.5"/>
<path d="M390.545 -40.8533L0.545169 349.147" stroke="black" stroke-width="1.5"/>
<path d="M395.545 -40.8533L5.54517 349.147" stroke="black" stroke-width="1.5"/>
<path d="M400.545 -40.8533L10.5452 349.147" stroke="black" stroke-width="1.5"/>
<path d="M405.545 -40.8533L15.5452 349.147" stroke="black" stroke-width="1.5"/>
<path d="M410.545 -40.8533L20.5452 349.147" stroke="black" stroke-width="1.5"/>
<path d="M415.545 -40.8533L25.5452 349.147" stroke="black" stroke-width="1.5"/>
<path d="M420.545 -40.8533L30.5452 349.147" stroke="black" stroke-width="1.5"/>
<path d="M425.545 -40.8533L35.5452 349.147" stroke="black" stroke-width="1.5"/>
<path d="M430.545 -40.8533L40.5452 349.147" stroke="black" stroke-width="1.5"/>
<path d="M435.545 -40.8533L45.5452 349.147" stroke="black" stroke-width="1.5"/>
<path d="M440.545 -40.8533L50.5452 349.147" stroke="black" stroke-width="1.5"/>
<path d="M445.545 -40.8533L55.5452 349.147" stroke="black" stroke-width="1.5"/>
<path d="M450.545 -40.8533L60.5452 349.147" stroke="black" stroke-width="1.5"/>
<path d="M455.545 -40.8533L65.5452 349.147" stroke="black" stroke-width="1.5"/>
<path d="M460.545 -40.8533L70.5452 349.147" stroke="black" stroke-width="1.5"/>
<path d="M465.545 -40.8533L75.5452 349.147" stroke="black" stroke-width="1.5"/>
<path d="M470.545 -40.8533L80.5452 349.147" stroke="black" stroke-width="1.5"/>
<path d="M475.545 -40.8533L85.5452 349.147" stroke="black" stroke-width="1.5"/>
<path d="M480.545 -40.8533L90.5452 349.147" stroke="black" stroke-width="1.5"/>
<path d="M485.545 -40.8533L95.5452 349.147" stroke="black" stroke-width="1.5"/>
<path d="M490.545 -40.8533L100.545 349.147" stroke="black" stroke-width="1.5"/>
<path d="M495.545 -40.8533L105.545 349.147" stroke="black" stroke-width="1.5"/>
<path d="M500.545 -40.8533L110.545 349.147" stroke="black" stroke-width="1.5"/>
<path d="M505.545 -40.8533L115.545 349.147" stroke="black" stroke-width="1.5"/>
<path d="M510.545 -40.8533L120.545 349.147" stroke="black" stroke-width="1.5"/>
<path d="M515.545 -40.8533L125.545 349.147" stroke="black" stroke-width="1.5"/>
<path d="M520.545 -40.8533L130.545 349.147" stroke="black" stroke-width="1.5"/>
<path d="M525.545 -40.8533L135.545 349.147" stroke="black" stroke-width="1.5"/>
<path d="M530.545 -40.8533L140.545 349.147" stroke="black" stroke-width="1.5"/>
<path d="M535.545 -40.8533L145.545 349.147" stroke="black" stroke-width="1.5"/>
<path d="M540.545 -40.8533L150.545 349.147" stroke="black" stroke-width="1.5"/>
<path d="M545.545 -40.8533L155.545 349.147" stroke="black" stroke-width="1.5"/>
<path d="M550.545 -40.8533L160.545 349.147" stroke="black" stroke-width="1.5"/>
<path d="M555.545 -40.8533L165.545 349.147" stroke="black" stroke-width="1.5"/>
<path d="M560.545 -40.8533L170.545 349.147" stroke="black" stroke-width="1.5"/>
<path d="M565.545 -40.8533L175.545 349.147" stroke="black" stroke-width="1.5"/>
<path d="M570.545 -40.8533L180.545 349.147" stroke="black" stroke-width="1.5"/>
<path d="M575.545 -40.8533L185.545 349.147" stroke="black" stroke-width="1.5"/>
<path d="M580.545 -40.8533L190.545 349.147" stroke="black" stroke-width="1.5"/>
<path d="M585.545 -40.8533L195.545 349.147" stroke="black" stroke-width="1.5"/>
<path d="M590.545 -40.8533L200.545 349.147" stroke="black" stroke-width="1.5"/>
<path d="M595.545 -40.8533L205.545 349.147" stroke="black" stroke-width="1.5"/>
<path d="M600.545 -40.8533L210.545 349.147" stroke="black" stroke-width="1.5"/>
<path d="M605.545 -40.8533L215.545 349.147" stroke="black" stroke-width="1.5"/>
<path d="M610.545 -40.8533L220.545 349.147" stroke="black" stroke-width="1.5"/>
</g>
</svg>
