<svg width="227" height="242" viewBox="0 0 227 242" fill="none" xmlns="http://www.w3.org/2000/svg">
<path d="M211.366 205.724C210.836 205.724 210.406 206.154 210.406 206.684V228.605C210.406 233.265 206.635 237.04 201.986 237.04H47.2113C44.4642 237.04 41.8894 235.698 40.3135 233.443L7.48252 186.469C6.49161 185.051 5.96 183.362 5.96 181.632V40.7105C5.96 38.1476 7.12323 35.7241 9.12074 34.1237L48.2052 2.80786C49.6983 1.61159 51.5532 0.96 53.4648 0.96H217.62C222.269 0.96 226.04 4.73497 226.04 9.39474V197.289C226.04 201.949 222.269 205.724 217.62 205.724H211.366Z" fill="white" stroke="black" stroke-width="1.92" stroke-linejoin="round"/>
</svg>
