<svg width="278" height="296" viewBox="0 0 278 296" fill="none" xmlns="http://www.w3.org/2000/svg">
<path d="M258.04 252.64C257.51 252.64 257.08 253.07 257.08 253.6V280.48C257.08 286.312 252.352 291.04 246.52 291.04H56.44C52.9941 291.04 49.765 289.359 47.7889 286.536L7.46889 228.936C6.22642 227.161 5.55998 225.047 5.55998 222.88V50.08C5.55998 46.872 7.0182 43.838 9.5232 41.834L57.5232 3.43403C59.3956 1.93609 61.7221 1.12 64.12 1.12H265.72C271.552 1.12 276.28 5.84788 276.28 11.68V242.08C276.28 247.912 271.552 252.64 265.72 252.64H258.04Z" fill="white" stroke="#07090D" stroke-width="1.92" stroke-linejoin="round"/>
</svg>
