<svg width="258" height="289" viewBox="0 0 258 289" fill="none" xmlns="http://www.w3.org/2000/svg">
<mask id="path-1-inside-1_647_26157" fill="white">
<path fill-rule="evenodd" clip-rule="evenodd" d="M191.318 0.226109C185.471 -0.310302 180.094 3.46336 178.611 9.14475L173.584 28.4001L173.537 28.4C171.292 28.4 169.234 28.8522 167.459 29.4639C166.016 28.6392 164.291 28.0202 162.258 27.8303C161.953 27.3818 161.639 26.9598 161.319 26.5663C159.319 24.1021 155.139 20.4 148.963 20.4C143.425 20.4 139.409 23.4337 137.2 26.1529C136.707 26.7591 136.253 27.4071 135.843 28.0908C134.236 28.0304 132.621 28 131 28C127.353 28 123.739 28.154 120.165 28.4564C118.61 27.8584 116.792 27.5097 114.709 27.6299C111.727 27.8019 109.357 28.8995 107.573 30.1584C106.336 30.3893 105.104 30.6382 103.879 30.9048C103.609 30.7408 103.339 30.5822 103.072 30.4286C99.7363 28.4717 96.473 28.16 94.235 28.16C89.4233 28.16 84.8476 29.8337 80.7872 32.5961C80.6323 32.4814 80.4771 32.3688 80.3217 32.2583C80.7388 30.3772 80.8921 28.4619 80.7214 26.5501C80.8991 24.2871 80.6817 21.9218 79.8876 19.6207C78.9272 16.8175 76.2622 12.0711 70.2982 10.6132C63.9037 9.0501 59.1082 12.5212 56.9047 15.1209C56.7354 15.3206 56.5638 15.5205 56.3901 15.7203C54.7466 13.6551 51.553 10.6734 46.4244 10.3885C39.4338 10.0001 35.4825 14.9551 34.4587 16.32C34.4083 16.3873 34.3585 16.4551 34.3095 16.5234C31.2541 20.7809 26.2439 29.9753 22.0469 38.2117C17.9243 46.3021 13.4611 55.6624 12.0887 60.2191C12.0455 60.3623 12.0051 60.5062 11.9673 60.6509C11.3233 63.1199 10.8587 65.7828 10.8587 68.48C10.8587 68.9638 10.8754 69.4442 10.9087 69.9207C10.8764 70.4337 10.8587 70.954 10.8587 71.48C10.8587 76.0597 12.3409 79.6389 14.0446 82.2891C14.2387 82.591 14.4462 82.884 14.6665 83.1673C15.7012 84.4976 18.4731 87.5341 22.8053 88.4654C10.8841 107.813 4 130.607 4 155C4 155.501 4.0029 156.001 4.00869 156.5C4.0029 156.999 4 157.499 4 158C4 228.14 60.8598 285 131 285C201.14 285 258 228.14 258 158C258 157.499 257.997 156.999 257.991 156.5C257.997 156.001 258 155.501 258 155C258 128.265 249.73 103.45 235.622 82.9876C236.291 82.4877 236.902 81.9889 237.452 81.5102C240.807 78.5891 243.53 74.996 244.916 72.0589C246.085 69.6073 247.351 66.2823 246.976 62.049C247.141 60.1929 246.998 58.3222 246.546 56.4204C246.527 56.3429 246.508 56.2656 246.488 56.1885C246.251 55.2749 245.852 54.1909 245.268 53.0712C246.263 52.3305 247.219 51.387 248.08 50.1884C250.375 46.9918 250.744 43.7645 250.422 41.1252C250.881 37.2101 249.439 34.0866 248.642 32.6522C248.601 32.5789 248.56 32.506 248.517 32.4336C248.091 31.7031 247.595 30.9905 247.032 30.3081C247.015 27.4336 246.223 24.0061 244.528 21.0921C243.819 19.8698 240.184 13.8189 232.512 13.9724C228.842 14.0458 226.116 15.6246 224.51 16.8989C222.974 18.1175 221.915 19.4745 221.239 20.4587C220.872 20.9858 220.511 21.5119 220.152 22.0462C219.077 21.498 217.878 21.0416 216.559 20.7495C216.416 20.4382 216.261 20.1348 216.094 19.8398C216.957 18.0442 217.353 16.0702 217.264 14.1006C217.347 12.2723 217.013 10.4188 216.244 8.6874C214.479 4.71314 210.703 2.00443 206.373 1.60719L191.318 0.226109Z"/>
</mask>
<path fill-rule="evenodd" clip-rule="evenodd" d="M191.318 0.226109C185.471 -0.310302 180.094 3.46336 178.611 9.14475L173.584 28.4001L173.537 28.4C171.292 28.4 169.234 28.8522 167.459 29.4639C166.016 28.6392 164.291 28.0202 162.258 27.8303C161.953 27.3818 161.639 26.9598 161.319 26.5663C159.319 24.1021 155.139 20.4 148.963 20.4C143.425 20.4 139.409 23.4337 137.2 26.1529C136.707 26.7591 136.253 27.4071 135.843 28.0908C134.236 28.0304 132.621 28 131 28C127.353 28 123.739 28.154 120.165 28.4564C118.61 27.8584 116.792 27.5097 114.709 27.6299C111.727 27.8019 109.357 28.8995 107.573 30.1584C106.336 30.3893 105.104 30.6382 103.879 30.9048C103.609 30.7408 103.339 30.5822 103.072 30.4286C99.7363 28.4717 96.473 28.16 94.235 28.16C89.4233 28.16 84.8476 29.8337 80.7872 32.5961C80.6323 32.4814 80.4771 32.3688 80.3217 32.2583C80.7388 30.3772 80.8921 28.4619 80.7214 26.5501C80.8991 24.2871 80.6817 21.9218 79.8876 19.6207C78.9272 16.8175 76.2622 12.0711 70.2982 10.6132C63.9037 9.0501 59.1082 12.5212 56.9047 15.1209C56.7354 15.3206 56.5638 15.5205 56.3901 15.7203C54.7466 13.6551 51.553 10.6734 46.4244 10.3885C39.4338 10.0001 35.4825 14.9551 34.4587 16.32C34.4083 16.3873 34.3585 16.4551 34.3095 16.5234C31.2541 20.7809 26.2439 29.9753 22.0469 38.2117C17.9243 46.3021 13.4611 55.6624 12.0887 60.2191C12.0455 60.3623 12.0051 60.5062 11.9673 60.6509C11.3233 63.1199 10.8587 65.7828 10.8587 68.48C10.8587 68.9638 10.8754 69.4442 10.9087 69.9207C10.8764 70.4337 10.8587 70.954 10.8587 71.48C10.8587 76.0597 12.3409 79.6389 14.0446 82.2891C14.2387 82.591 14.4462 82.884 14.6665 83.1673C15.7012 84.4976 18.4731 87.5341 22.8053 88.4654C10.8841 107.813 4 130.607 4 155C4 155.501 4.0029 156.001 4.00869 156.5C4.0029 156.999 4 157.499 4 158C4 228.14 60.8598 285 131 285C201.14 285 258 228.14 258 158C258 157.499 257.997 156.999 257.991 156.5C257.997 156.001 258 155.501 258 155C258 128.265 249.73 103.45 235.622 82.9876C236.291 82.4877 236.902 81.9889 237.452 81.5102C240.807 78.5891 243.53 74.996 244.916 72.0589C246.085 69.6073 247.351 66.2823 246.976 62.049C247.141 60.1929 246.998 58.3222 246.546 56.4204C246.527 56.3429 246.508 56.2656 246.488 56.1885C246.251 55.2749 245.852 54.1909 245.268 53.0712C246.263 52.3305 247.219 51.387 248.08 50.1884C250.375 46.9918 250.744 43.7645 250.422 41.1252C250.881 37.2101 249.439 34.0866 248.642 32.6522C248.601 32.5789 248.56 32.506 248.517 32.4336C248.091 31.7031 247.595 30.9905 247.032 30.3081C247.015 27.4336 246.223 24.0061 244.528 21.0921C243.819 19.8698 240.184 13.8189 232.512 13.9724C228.842 14.0458 226.116 15.6246 224.51 16.8989C222.974 18.1175 221.915 19.4745 221.239 20.4587C220.872 20.9858 220.511 21.5119 220.152 22.0462C219.077 21.498 217.878 21.0416 216.559 20.7495C216.416 20.4382 216.261 20.1348 216.094 19.8398C216.957 18.0442 217.353 16.0702 217.264 14.1006C217.347 12.2723 217.013 10.4188 216.244 8.6874C214.479 4.71314 210.703 2.00443 206.373 1.60719L191.318 0.226109Z" fill="white"/>
<path d="M178.611 9.14475L176.676 8.63955L176.676 8.63955L178.611 9.14475ZM191.318 0.226109L191.135 2.21775L191.135 2.21775L191.318 0.226109ZM173.584 28.4001L173.581 30.4001C174.492 30.4014 175.289 29.7868 175.519 28.9053L173.584 28.4001ZM173.537 28.4L173.54 26.4H173.537V28.4ZM167.459 29.4639L166.466 31.2002C166.966 31.4862 167.565 31.5425 168.11 31.3548L167.459 29.4639ZM162.258 27.8303L160.602 28.9529C160.938 29.4474 161.477 29.7661 162.072 29.8216L162.258 27.8303ZM161.319 26.5663L162.872 25.3057L162.872 25.3057L161.319 26.5663ZM137.2 26.1529L138.752 27.4141L138.752 27.4141L137.2 26.1529ZM135.843 28.0908L135.768 30.0894C136.497 30.1168 137.183 29.7449 137.558 29.1192L135.843 28.0908ZM120.165 28.4564L119.447 30.3232C119.729 30.4316 120.032 30.4747 120.334 30.4493L120.165 28.4564ZM114.709 27.6299L114.824 29.6266L114.824 29.6266L114.709 27.6299ZM107.573 30.1584L107.94 32.1245C108.223 32.0717 108.491 31.9584 108.727 31.7924L107.573 30.1584ZM103.879 30.9048L102.844 32.6157C103.282 32.8808 103.805 32.9679 104.305 32.859L103.879 30.9048ZM103.072 30.4286L102.059 32.1536C102.065 32.1567 102.07 32.1598 102.075 32.1629L103.072 30.4286ZM80.7872 32.5961L79.5966 34.2032C80.28 34.7095 81.2089 34.7282 81.9122 34.2497L80.7872 32.5961ZM80.3217 32.2583L78.3691 31.8255C78.1952 32.6101 78.5078 33.4227 79.1628 33.8884L80.3217 32.2583ZM80.7214 26.5501L78.7275 26.3935C78.7188 26.5049 78.7194 26.6168 78.7293 26.7281L80.7214 26.5501ZM79.8876 19.6207L77.9956 20.2689L77.997 20.2731L79.8876 19.6207ZM70.2982 10.6132L69.8233 12.556L69.8233 12.556L70.2982 10.6132ZM56.9047 15.1209L58.4304 16.4141L58.4304 16.414L56.9047 15.1209ZM56.3901 15.7203L54.8251 16.9657C55.1951 17.4306 55.7526 17.707 56.3466 17.7199C56.9406 17.7328 57.5096 17.4809 57.8994 17.0325L56.3901 15.7203ZM46.4244 10.3885L46.5353 8.39154L46.5353 8.39154L46.4244 10.3885ZM34.4587 16.32L36.0587 17.52L36.0587 17.52L34.4587 16.32ZM34.3095 16.5234L35.9344 17.6895L35.9344 17.6895L34.3095 16.5234ZM22.0469 38.2117L20.2649 37.3037L20.2649 37.3037L22.0469 38.2117ZM12.0887 60.2191L10.1736 59.6423L10.1736 59.6423L12.0887 60.2191ZM11.9673 60.6509L13.9026 61.1558L13.9026 61.1558L11.9673 60.6509ZM10.9087 69.9207L12.9047 70.0466C12.9103 69.9582 12.91 69.8696 12.9038 69.7813L10.9087 69.9207ZM14.0446 82.2891L15.727 81.2076L15.727 81.2076L14.0446 82.2891ZM14.6665 83.1673L13.0878 84.3952L13.0878 84.3952L14.6665 83.1673ZM22.8053 88.4654L24.508 89.5146C24.8487 88.9616 24.8997 88.2777 24.6448 87.6803C24.3898 87.083 23.8607 86.6466 23.2257 86.5101L22.8053 88.4654ZM4.00869 156.5L6.00856 156.523C6.00874 156.508 6.00874 156.492 6.00856 156.477L4.00869 156.5ZM257.991 156.5L255.991 156.477C255.991 156.492 255.991 156.508 255.991 156.523L257.991 156.5ZM235.622 82.9876L234.425 81.3852C233.564 82.0286 233.365 83.2378 233.975 84.1228L235.622 82.9876ZM237.452 81.5102L236.138 80.0019L236.138 80.0019L237.452 81.5102ZM244.916 72.0589L243.111 71.198L243.107 71.2055L244.916 72.0589ZM246.976 62.049L244.984 61.8725C244.973 61.9898 244.973 62.1079 244.984 62.2253L246.976 62.049ZM246.546 56.4204L248.491 55.9572L248.491 55.957L246.546 56.4204ZM246.488 56.1885L248.424 55.6867L248.424 55.6865L246.488 56.1885ZM245.268 53.0712L244.074 51.4667C243.286 52.0533 243.04 53.1253 243.495 53.9963L245.268 53.0712ZM248.08 50.1884L246.455 49.022L246.455 49.022L248.08 50.1884ZM250.422 41.1252L248.435 40.8919C248.417 41.0502 248.417 41.21 248.436 41.3682L250.422 41.1252ZM248.642 32.6522L246.893 33.6235L246.893 33.6235L248.642 32.6522ZM248.517 32.4336L246.79 33.4413L246.79 33.4415L248.517 32.4336ZM247.032 30.3081L245.032 30.3196C245.034 30.7804 245.196 31.2262 245.489 31.5815L247.032 30.3081ZM244.528 21.0921L242.798 22.0952L242.799 22.0976L244.528 21.0921ZM232.512 13.9724L232.472 11.9728L232.472 11.9728L232.512 13.9724ZM224.51 16.8989L225.753 18.4656L225.753 18.4656L224.51 16.8989ZM221.239 20.4587L222.88 21.6016L222.888 21.5913L221.239 20.4587ZM220.152 22.0462L219.243 23.8279C220.145 24.2875 221.247 24.0018 221.812 23.1623L220.152 22.0462ZM216.559 20.7495L214.741 21.5827C215.002 22.1524 215.515 22.5668 216.127 22.7022L216.559 20.7495ZM216.094 19.8398L214.291 18.9741C214.008 19.564 214.031 20.2551 214.354 20.8246L216.094 19.8398ZM217.264 14.1006L215.266 14.0098C215.263 14.0703 215.263 14.1308 215.266 14.1912L217.264 14.1006ZM216.244 8.6874L218.072 7.8758L218.072 7.8758L216.244 8.6874ZM206.373 1.60719L206.19 3.59883L206.19 3.59883L206.373 1.60719ZM180.546 9.64995C181.782 4.91545 186.262 1.77074 191.135 2.21775L191.501 -1.76553C184.679 -2.39134 178.406 2.01126 176.676 8.63955L180.546 9.64995ZM175.519 28.9053L180.546 9.64995L176.676 8.63955L171.649 27.8949L175.519 28.9053ZM173.534 30.4L173.581 30.4001L173.587 26.4001L173.54 26.4L173.534 30.4ZM168.11 31.3548C169.725 30.7983 171.56 30.4 173.537 30.4V26.4C171.023 26.4 168.742 26.9061 166.807 27.5731L168.11 31.3548ZM162.072 29.8216C163.799 29.9829 165.251 30.5057 166.466 31.2002L168.451 27.7277C166.781 26.7727 164.783 26.0574 162.444 25.839L162.072 29.8216ZM159.767 27.8269C160.05 28.1762 160.331 28.5522 160.602 28.9529L163.913 26.7077C163.576 26.2114 163.227 25.7433 162.872 25.3057L159.767 27.8269ZM148.963 22.4C154.288 22.4 157.955 25.595 159.767 27.8269L162.872 25.3057C160.683 22.6093 155.991 18.4 148.963 18.4V22.4ZM138.752 27.4141C140.708 25.0063 144.203 22.4 148.963 22.4V18.4C142.647 18.4 138.11 21.8611 135.648 24.8917L138.752 27.4141ZM137.558 29.1192C137.92 28.5165 138.319 27.9464 138.752 27.4141L135.648 24.8917C135.095 25.5719 134.586 26.2976 134.128 27.0624L137.558 29.1192ZM131 30C132.596 30 134.185 30.03 135.768 30.0894L135.918 26.0922C134.286 26.0309 132.646 26 131 26V30ZM120.334 30.4493C123.852 30.1517 127.409 30 131 30V26C127.296 26 123.626 26.1564 119.996 26.4635L120.334 30.4493ZM114.824 29.6266C116.609 29.5236 118.143 29.8218 119.447 30.3232L120.883 26.5896C119.076 25.8951 116.975 25.4958 114.594 25.6332L114.824 29.6266ZM108.727 31.7924C110.272 30.7014 112.29 29.7728 114.824 29.6266L114.594 25.6332C111.164 25.8311 108.442 27.0975 106.42 28.5243L108.727 31.7924ZM104.305 32.859C105.51 32.5967 106.722 32.3517 107.94 32.1245L107.206 28.1923C105.949 28.4269 104.698 28.6797 103.454 28.9505L104.305 32.859ZM102.075 32.1629C102.331 32.3095 102.587 32.4603 102.844 32.6157L104.915 29.1939C104.63 29.0214 104.347 28.855 104.068 28.6942L102.075 32.1629ZM94.235 30.16C96.2851 30.16 99.1492 30.4461 102.059 32.1536L104.084 28.7035C100.323 26.4973 96.6609 26.16 94.235 26.16V30.16ZM81.9122 34.2497C85.7087 31.6668 89.8995 30.16 94.235 30.16V26.16C88.9472 26.16 83.9865 28.0006 79.6622 30.9425L81.9122 34.2497ZM79.1628 33.8884C79.3078 33.9915 79.4525 34.0964 79.5966 34.2032L81.9777 30.9891C81.8121 30.8664 81.6464 30.7462 81.4806 30.6283L79.1628 33.8884ZM78.7293 26.7281C78.88 28.4148 78.7465 30.1234 78.3691 31.8255L82.2743 32.6912C82.731 30.631 82.9043 28.509 82.7135 26.3722L78.7293 26.7281ZM77.997 20.2731C78.6892 22.2788 78.8869 24.3641 78.7275 26.3935L82.7152 26.7067C82.9113 24.21 82.6742 21.5647 81.7782 18.9682L77.997 20.2731ZM69.8233 12.556C74.8508 13.7849 77.1456 17.7879 77.9956 20.2689L81.7796 18.9725C80.7089 15.8471 77.6736 10.3572 70.7731 8.6704L69.8233 12.556ZM58.4304 16.414C60.3613 14.136 64.4428 11.2408 69.8233 12.556L70.7731 8.6704C63.3646 6.85943 57.8551 10.9064 55.379 13.8277L58.4304 16.414ZM57.8994 17.0325C58.0785 16.8265 58.2556 16.6203 58.4304 16.4141L55.3791 13.8277C55.2152 14.0209 55.0491 14.2144 54.8807 14.4082L57.8994 17.0325ZM46.3135 12.3854C50.6449 12.626 53.3648 15.1306 54.8251 16.9657L57.955 14.475C56.1284 12.1796 52.4611 8.72076 46.5353 8.39154L46.3135 12.3854ZM36.0587 17.52C37.023 16.2344 40.4078 12.0573 46.3135 12.3854L46.5353 8.39154C38.4598 7.9429 33.9419 13.6757 32.8587 15.12L36.0587 17.52ZM35.9344 17.6895C35.9752 17.6326 36.0167 17.5761 36.0587 17.52L32.8588 15.12C32.7999 15.1985 32.7418 15.2776 32.6846 15.3574L35.9344 17.6895ZM23.8288 39.1198C28.0358 30.8638 32.9813 21.8044 35.9344 17.6895L32.6846 15.3574C29.5269 19.7574 24.452 29.0868 20.2649 37.3037L23.8288 39.1198ZM14.0037 60.7959C15.3143 56.4446 19.6845 47.2528 23.8288 39.1198L20.2649 37.3037C16.164 45.3514 11.608 54.8802 10.1736 59.6423L14.0037 60.7959ZM13.9026 61.1558C13.934 61.0352 13.9677 60.9152 14.0037 60.7959L10.1736 59.6423C10.1233 59.8093 10.0761 59.9773 10.0321 60.1461L13.9026 61.1558ZM12.8587 68.48C12.8587 66.0055 13.2859 63.5197 13.9026 61.1558L10.0321 60.1461C9.36062 62.7201 8.85875 65.5601 8.85875 68.48H12.8587ZM12.9038 69.7813C12.8738 69.3517 12.8587 68.9178 12.8587 68.48H8.85875C8.85875 69.0098 8.877 69.5366 8.91357 70.0601L12.9038 69.7813ZM12.8587 71.48C12.8587 70.9986 12.8749 70.5203 12.9047 70.0466L8.91268 69.7949C8.87786 70.347 8.85875 70.9094 8.85875 71.48H12.8587ZM15.727 81.2076C14.1865 78.8113 12.8587 75.602 12.8587 71.48H8.85875C8.85875 76.5174 10.4954 80.4665 12.3623 83.3706L15.727 81.2076ZM16.2452 81.9394C16.0616 81.7033 15.8887 81.4591 15.727 81.2076L12.3622 83.3706C12.5887 83.7228 12.8308 84.0647 13.0878 84.3952L16.2452 81.9394ZM23.2257 86.5101C19.5748 85.7252 17.1707 83.1293 16.2452 81.9394L13.0878 84.3952C14.2317 85.8659 17.3713 89.3429 22.3849 90.4208L23.2257 86.5101ZM6 155C6 130.988 12.7755 108.556 24.508 89.5146L21.1026 87.4163C8.99278 107.07 2 130.225 2 155H6ZM6.00856 156.477C6.00286 155.985 6 155.493 6 155H2C2 155.508 2.00295 156.016 2.00883 156.523L6.00856 156.477ZM6 158C6 157.507 6.00286 157.015 6.00856 156.523L2.00883 156.477C2.00295 156.984 2 157.492 2 158H6ZM131 283C61.9644 283 6 227.036 6 158H2C2 229.245 59.7553 287 131 287V283ZM256 158C256 227.036 200.036 283 131 283V287C202.245 287 260 229.245 260 158H256ZM255.991 156.523C255.997 157.015 256 157.507 256 158H260C260 157.492 259.997 156.984 259.991 156.477L255.991 156.523ZM256 155C256 155.493 255.997 155.985 255.991 156.477L259.991 156.523C259.997 156.016 260 155.508 260 155H256ZM233.975 84.1228C247.861 104.262 256 128.684 256 155H260C260 127.847 251.599 102.637 237.269 81.8523L233.975 84.1228ZM236.138 80.0019C235.623 80.4507 235.051 80.9178 234.425 81.3852L236.819 84.5899C237.532 84.0576 238.181 83.527 238.765 83.0186L236.138 80.0019ZM243.107 71.2055C241.857 73.8557 239.318 77.2338 236.138 80.0019L238.765 83.0186C242.296 79.9444 245.204 76.1362 246.725 72.9123L243.107 71.2055ZM244.984 62.2253C245.313 65.9426 244.214 68.8846 243.111 71.198L246.721 72.9198C247.956 70.3299 249.389 66.622 248.968 61.8727L244.984 62.2253ZM244.6 56.8837C245.005 58.5855 245.128 60.2402 244.984 61.8725L248.968 62.2255C249.153 60.1457 248.992 58.0589 248.491 55.9572L244.6 56.8837ZM244.552 56.6902C244.568 56.7546 244.585 56.8191 244.6 56.8839L248.491 55.957C248.47 55.8667 248.447 55.7766 248.424 55.6867L244.552 56.6902ZM243.495 53.9963C244.01 54.9826 244.353 55.9247 244.552 56.6904L248.424 55.6865C248.149 54.625 247.695 53.3992 247.041 52.146L243.495 53.9963ZM246.455 49.022C245.716 50.0514 244.906 50.8477 244.074 51.4667L246.462 54.6756C247.621 53.8134 248.722 52.7226 249.704 51.3549L246.455 49.022ZM248.436 41.3682C248.71 43.6077 248.404 46.3074 246.455 49.022L249.704 51.3549C252.346 47.6762 252.779 43.9212 252.407 40.8823L248.436 41.3682ZM246.893 33.6235C247.602 34.899 248.824 37.5796 248.435 40.8919L252.408 41.3586C252.939 36.8405 251.275 33.2742 250.39 31.6809L246.893 33.6235ZM246.79 33.4415C246.825 33.5017 246.859 33.5623 246.893 33.6235L250.39 31.681C250.343 31.5955 250.294 31.5104 250.245 31.4257L246.79 33.4415ZM245.489 31.5815C245.985 32.1813 246.419 32.8052 246.79 33.4413L250.245 31.4259C249.764 30.601 249.205 29.7996 248.574 29.0347L245.489 31.5815ZM242.799 22.0976C244.303 24.6833 245.017 27.7627 245.032 30.3196L249.032 30.2966C249.013 27.1045 248.143 23.3289 246.257 20.0866L242.799 22.0976ZM232.552 15.972C239.013 15.8428 242.12 20.9258 242.798 22.0952L246.258 20.089C245.519 18.8138 241.355 11.7951 232.472 11.9728L232.552 15.972ZM225.753 18.4656C227.14 17.365 229.455 16.0339 232.552 15.972L232.472 11.9728C228.228 12.0577 225.091 13.8842 223.267 15.3323L225.753 18.4656ZM222.888 21.5913C223.5 20.7005 224.429 19.5166 225.753 18.4656L223.267 15.3323C221.52 16.7185 220.331 18.2484 219.591 19.3261L222.888 21.5913ZM221.812 23.1623C222.165 22.6377 222.519 22.1205 222.88 21.6016L219.598 19.3157C219.225 19.851 218.858 20.3861 218.493 20.93L221.812 23.1623ZM216.127 22.7022C217.265 22.9543 218.305 23.3492 219.243 23.8279L221.061 20.2645C219.85 19.6469 218.491 19.1289 216.991 18.7968L216.127 22.7022ZM214.354 20.8246C214.493 21.0703 214.622 21.3232 214.741 21.5827L218.377 19.9163C218.211 19.5532 218.03 19.1993 217.835 18.8551L214.354 20.8246ZM215.266 14.1912C215.341 15.833 215.01 17.4783 214.291 18.9741L217.897 20.7056C218.903 18.6102 219.366 16.3073 219.262 14.01L215.266 14.1912ZM214.416 9.499C215.057 10.9421 215.335 12.4862 215.266 14.0098L219.262 14.1914C219.359 12.0585 218.969 9.89552 218.072 7.8758L214.416 9.499ZM206.19 3.59883C209.798 3.92986 212.945 6.18712 214.416 9.49901L218.072 7.8758C216.013 3.23916 211.607 0.0790034 206.555 -0.384445L206.19 3.59883ZM191.135 2.21775L206.19 3.59883L206.555 -0.384445L191.501 -1.76553L191.135 2.21775Z" fill="#07090D" mask="url(#path-1-inside-1_647_26157)"/>
</svg>
