<svg width="258" height="289" viewBox="0 0 258 289" fill="none" xmlns="http://www.w3.org/2000/svg">
<mask id="path-1-inside-1_647_26157" fill="white">
<path fill-rule="evenodd" clip-rule="evenodd" d="M191.318 0.226109C185.471 -0.310302 180.094 3.46336 178.611 9.14475L173.584 28.4001L173.537 28.4C171.292 28.4 169.234 28.8522 167.459 29.4639C166.016 28.6392 164.291 28.0202 162.258 27.8303C161.953 27.3818 161.639 26.9598 161.319 26.5663C159.319 24.1021 155.139 20.4 148.963 20.4C143.425 20.4 139.409 23.4337 137.2 26.1529C136.707 26.7591 136.253 27.4071 135.843 28.0908C134.236 28.0304 132.621 28 131 28C127.353 28 123.739 28.154 120.165 28.4564C118.61 27.8584 116.792 27.5097 114.709 27.6299C111.727 27.8019 109.357 28.8995 107.573 30.1584C106.336 30.3893 105.104 30.6382 103.879 30.9048C103.609 30.7408 103.339 30.5822 103.072 30.4286C99.7363 28.4717 96.473 28.16 94.235 28.16C89.4233 28.16 84.8476 29.8337 80.7872 32.5961C80.6323 32.4814 80.4771 32.3688 80.3217 32.2583C80.7388 30.3772 80.8921 28.4619 80.7214 26.5501C80.8991 24.2871 80.6817 21.9218 79.8876 19.6207C78.9272 16.8175 76.2622 12.0711 70.2982 10.6132C63.9037 9.0501 59.1082 12.5212 56.9047 15.1209C56.7354 15.3206 56.5638 15.5205 56.3901 15.7203C54.7466 13.6551 51.553 10.6734 46.4244 10.3885C39.4338 10.0001 35.4825 14.9551 34.4587 16.32C34.4083 16.3873 34.3585 16.4551 34.3095 16.5234C31.2541 20.7809 26.2439 29.9753 22.0469 38.2117C17.9243 46.3021 13.4611 55.6624 12.0887 60.2191C12.0455 60.3623 12.0051 60.5062 11.9673 60.6509C11.3233 63.1199 10.8587 65.7828 10.8587 68.48C10.8587 68.9638 10.8754 69.4442 10.9087 69.9207C10.8764 70.4337 10.8587 70.954 10.8587 71.48C10.8587 76.0597 12.3409 79.6389 14.0446 82.2891C14.2387 82.591 14.4462 82.884 14.6665 83.1673C15.7012 84.4976 18.4731 87.5341 22.8053 88.4654C10.8841 107.813 4 130.607 4 155C4 155.501 4.0029 156.001 4.00869 156.5C4.0029 156.999 4 157.499 4 158C4 228.14 60.8598 285 131 285C201.14 285 258 228.14 258 158C258 157.499 257.997 156.999 257.991 156.5C257.997 156.001 258 155.501 258 155C258 128.265 249.73 103.45 235.622 82.9876C236.291 82.4877 236.902 81.9889 237.452 81.5102C240.807 78.5891 243.53 74.996 244.916 72.0589C246.085 69.6073 247.351 66.2823 246.976 62.049C247.141 60.1929 246.998 58.3222 246.546 56.4204C246.527 56.3429 246.508 56.2656 246.488 56.1885C246.251 55.2749 245.852 54.1909 245.268 53.0712C246.263 52.3305 247.219 51.387 248.08 50.1884C250.375 46.9918 250.744 43.7645 250.422 41.1252C250.881 37.2101 249.439 34.0866 248.642 32.6522C248.601 32.5789 248.56 32.506 248.517 32.4336C248.091 31.7031 247.595 30.9905 247.032 30.3081C247.015 27.4336 246.223 24.0061 244.528 21.0921C243.819 19.8698 240.184 13.8189 232.512 13.9724C228.842 14.0458 226.116 15.6246 224.51 16.8989C222.974 18.1175 221.915 19.4745 221.239 20.4587C220.872 20.9858 220.511 21.5119 220.152 22.0462C219.077 21.498 217.878 21.0416 216.559 20.7495C216.416 20.4382 216.261 20.1348 216.094 19.8398C216.957 18.0442 217.353 16.0702 217.264 14.1006C217.347 12.2723 217.013 10.4188 216.244 8.6874C214.479 4.71314 210.703 2.00443 206.373 1.60719L191.318 0.226109Z"/>
</mask>
<path fill-rule="evenodd" clip-rule="evenodd" d="M191.318 0.226109C185.471 -0.310302 180.094 3.46336 178.611 9.14475L173.584 28.4001L173.537 28.4C171.292 28.4 169.234 28.8522 167.459 29.4639C166.016 28.6392 164.291 28.0202 162.258 27.8303C161.953 27.3818 161.639 26.9598 161.319 26.5663C159.319 24.1021 155.139 20.4 148.963 20.4C143.425 20.4 139.409 23.4337 137.2 26.1529C136.707 26.7591 136.253 27.4071 135.843 28.0908C134.236 28.0304 132.621 28 131 28C127.353 28 123.739 28.154 120.165 28.4564C118.61 27.8584 116.792 27.5097 114.709 27.6299C111.727 27.8019 109.357 28.8995 107.573 30.1584C106.336 30.3893 105.104 30.6382 103.879 30.9048C103.609 30.7408 103.339 30.5822 103.072 30.4286C99.7363 28.4717 96.473 28.16 94.235 28.16C89.4233 28.16 84.8476 29.8337 80.7872 32.5961C80.6323 32.4814 80.4771 32.3688 80.3217 32.2583C80.7388 30.3772 80.8921 28.4619 80.7214 26.5501C80.8991 24.2871 80.6817 21.9218 79.8876 19.6207C78.9272 16.8175 76.2622 12.0711 70.2982 10.6132C63.9037 9.0501 59.1082 12.5212 56.9047 15.1209C56.7354 15.3206 56.5638 15.5205 56.3901 15.7203C54.7466 13.6551 51.553 10.6734 46.4244 10.3885C39.4338 10.0001 35.4825 14.9551 34.4587 16.32C34.4083 16.3873 34.3585 16.4551 34.3095 16.5234C31.2541 20.7809 26.2439 29.9753 22.0469 38.2117C17.9243 46.3021 13.4611 55.6624 12.0887 60.2191C12.0455 60.3623 12.0051 60.5062 11.9673 60.6509C11.3233 63.1199 10.8587 65.7828 10.8587 68.48C10.8587 68.9638 10.8754 69.4442 10.9087 69.9207C10.8764 70.4337 10.8587 70.954 10.8587 71.48C10.8587 76.0597 12.3409 79.6389 14.0446 82.2891C14.2387 82.591 14.4462 82.884 14.6665 83.1673C15.7012 84.4976 18.4731 87.5341 22.8053 88.4654C10.8841 107.813 4 130.607 4 155C4 155.501 4.0029 156.001 4.00869 156.5C4.0029 156.999 4 157.499 4 158C4 228.14 60.8598 285 131 285C201.14 285 258 228.14 258 158C258 157.499 257.997 156.999 257.991 156.5C257.997 156.001 258 155.501 258 155C258 128.265 249.73 103.45 235.622 82.9876C236.291 82.4877 236.902 81.9889 237.452 81.5102C240.807 78.5891 243.53 74.996 244.916 72.0589C246.085 69.6073 247.351 66.2823 246.976 62.049C247.141 60.1929 246.998 58.3222 246.546 56.4204C246.527 56.3429 246.508 56.2656 246.488 56.1885C246.251 55.2749 245.852 54.1909 245.268 53.0712C246.263 52.3305 247.219 51.387 248.08 50.1884C250.375 46.9918 250.744 43.7645 250.422 41.1252C250.881 37.2101 249.439 34.0866 248.642 32.6522C248.601 32.5789 248.56 32.506 248.517 32.4336C248.091 31.7031 247.595 30.9905 247.032 30.3081C247.015 27.4336 246.223 24.0061 244.528 21.0921C243.819 19.8698 240.184 13.8189 232.512 13.9724C228.842 14.0458 226.116 15.6246 224.51 16.8989C222.974 18.1175 221.915 19.4745 221.239 20.4587C220.872 20.9858 220.511 21.5119 220.152 22.0462C219.077 21.498 217.878 21.0416 216.559 20.7495C216.416 20.4382 216.261 20.1348 216.094 19.8398C216.957 18.0442 217.353 16.0702 217.264 14.1006C217.347 12.2723 217.013 10.4188 216.244 8.6874C214.479 4.71314 210.703 2.00443 206.373 1.60719L191.318 0.226109Z" fill="white"/>
<path d="M178.611 9.14475L176.676 8.63955L176.676 8.63955L178.611 9.14475ZM191.318 0.226109L191.135 2.21775L191.135 2.21775L191.318 0.226109ZM173.584 28.4001L173.581 30.4001C174.492 30.4014 175.289 29.7868 175.519 28.9053L173.584 28.4001ZM173.537 28.4L173.54 26.4H173.537V28.4ZM167.459 29.4639L166.466 31.2002C166.966 31.4862 167.565 31.5425 168.11 31.3548L167.459 29.4639ZM162.258 27.8303L160.602 28.9529C160.938 29.4474 161.477 29.7661 162.072 29.8216L162.258 27.8303ZM161.319 26.5663L162.872 25.3057L162.872 25.3057L161.319 26.5663ZM137.2 26.1529L138.752 27.4141L138.752 27.4141L137.2 26.1529ZM135.843 28.0908L135.768 30.0894C136.497 30.1168 137.183 29.7449 137.558 29.1192L135.843 28.0908ZM120.165 28.4564L119.447 30.3232C119.729 30.4316 120.032 30.4747 120.334 30.4493L120.165 28.4564ZM114.709 27.6299L114.824 29.6266L114.824 29.6266L114.709 27.6299ZM107.573 30.1584L107.94 32.1245C108.223 32.0717 108.491 31.9584 108.727 31.7924L107.573 30.1584ZM103.879 30.9048L102.844 32.6157C103.282 32.8808 103.805 32.9679 104.305 32.859L103.879 30.9048ZM103.072 30.4286L102.059 32.1536C102.065 32.1567 102.07 32.1598 102.075 32.1629L103.072 30.4286ZM80.7872 32.5961L79.5966 34.2032C80.28 34.7095 81.2089 34.7282 81.9122 34.2497L80.7872 32.5961ZM80.3217 32.2583L78.3691 31.8255C78.1952 32.6101 78.5078 33.4227 79.1628 33.8884L80.3217 32.2583ZM80.7214 26.5501L78.7275 26.3935C78.7188 26.5049 78.7194 26.6168 78.7293 26.7281L80.7214 26.5501ZM79.8876 19.6207L77.9956 20.2689L77.997 20.2731L79.8876 19.6207ZM70.2982 10.6132L69.8233 12.556L69.8233 12.556L70.2982 10.6132ZM56.9047 15.1209L58.4304 16.4141L58.4304 16.414L56.9047 15.1209ZM56.3901 15.7203L54.8251 16.9657C55.1951 17.4306 55.7526 17.707 56.3466 17.7199C56.9406 17.7328 57.5096 17.4809 57.8994 17.0325L56.3901 15.7203ZM46.4244 10.3885L46.5353 8.39154L46.5353 8.39154L46.4244 10.3885ZM34.4587 16.32L36.0587 17.52L36.0587 17.52L34.4587 16.32ZM34.3095 16.5234L35.9344 17.6895L35.9344 17.6895L34.3095 16.5234ZM22.0469 38.2117L20.2649 37.3037L20.2649 37.3037L22.0469 38.2117ZM12.0887 60.2191L10.1736 59.6423L10.1736 59.6423L12.0887 60.2191ZM11.9673 60.6509L13.9026 61.1558L13.9026 61.1558L11.9673 60.6509ZM10.9087 69.9207L12.9047 70.0466C12.9103 69.9582 12.91 69.8696 12.9038 69.7813L10.9087 69.9207ZM14.0446 82.2891L15.727 81.2076L15.727 81.2076L14.0446 82.2891ZM14.6665 83.1673L13.0878 84.3952L13.0878 84.3952L14.6665 83.1673ZM22.8053 88.4654L24.508 89.5146C24.8487 88.9616 24.8997 88.2777 24.6448 87.6803C24.3898 87.083 23.8607 86.6466 23.2257 86.5101L22.8053 88.4654ZM4.00869 156.5L6.00856 156.523C6.00874 156.508 6.00874 156.492 6.00856 156.477L4.00869 156.5ZM257.991 156.5L255.991 156.477C255.991 156.492 255.991 156.508 255.991 156.523L257.991 156.5ZM235.622 82.9876L234.425 81.3852C233.564 82.0286 233.365 83.2378 233.975 84.1228L235.622 82.9876ZM237.452 81.5102L236.138 80.0019L236.138 80.0019L237.452 81.5102ZM244.916 72.0589L243.111 71.198L243.107 71.2055L244.916 72.0589ZM246.976 62.049L244.984 61.8725C244.973 61.9898 244.973 62.1079 244.984 62.2253L246.976 62.049ZM246.546 56.4204L248.491 55.9572L248.491 55.957L246.546 56.4204ZM246.488 56.1885L248.424 55.6867L248.424 55.6865L246.488 56.1885ZM245.268 53.0712L244.074 51.4667C243.286 52.0533 243.04 53.1253 243.495 53.9963L245.268 53.0712ZM248.08 50.1884L246.455 49.022L246.455 49.022L248.08 50.1884ZM250.422 41.1252L248.435 40.8919C248.417 41.0502 248.417 41.21 248.436 41.3682L250.422 41.1252ZM248.642 32.6522L246.893 33.6235L246.893 33.6235L248.642 32.6522ZM248.517 32.4336L246.79 33.4413L246.79 33.4415L248.517 32.4336ZM247.032 30.3081L245.032 30.3196C245.034 30.7804 245.196 31.2262 245.489 31.5815L247.032 30.3081ZM244.528 21.0921L242.798 22.0952L242.799 22.0976L244.528 21.0921ZM232.512 13.9724L232.472 11.9728L232.472 11.9728L232.512 13.9724ZM224.51 16.8989L225.753 18.4656L225.753 18.4656L224.51 16.8989ZM221.239 20.4587L222.88 21.6016L222.888 21.5913L221.239 20.4587ZM220.152 22.0462L219.243 23.8279C220.145 24.2875 221.247 24.0018 221.812 23.1623L220.152 22.0462ZM216.559 20.7495L214.741 21.5827C215.002 22.1524 215.515 22.5668 216.127 22.7022L216.559 20.7495ZM216.094 19.8398L214.291 18.9741C214.008 19.564 214.031 20.2551 214.354 20.8246L216.094 19.8398ZM217.264 14.1006L215.266 14.0098C215.263 14.0703 215.263 14.1308 215.266 14.1912L217.264 14.1006ZM216.244 8.6874L218.072 7.8758L218.072 7.8758L216.244 8.6874ZM206.373 1.60719L206.19 3.59883L206.19 3.59883L206.373 1.60719ZM180.546 9.64995C181.782 4.91545 186.262 1.77074 191.135 2.21775L191.501 -1.76553C184.679 -2.39134 178.406 2.01126 176.676 8.63955L180.546 9.64995ZM175.519 28.9053L180.546 9.64995L176.676 8.63955L171.649 27.8949L175.519 28.9053ZM173.534 30.4L173.581 30.4001L173.587 26.4001L173.54 26.4L173.534 30.4ZM168.11 31.3548C169.725 30.7983 171.56 30.4 173.537 30.4V26.4C171.023 26.4 168.742 26.9061 166.807 27.5731L168.11 31.3548ZM162.072 29.8216C163.799 29.9829 165.251 30.5057 166.466 31.2002L168.451 27.7277C166.781 26.7727 164.783 26.0574 162.444 25.839L162.072 29.8216ZM159.767 27.8269C160.05 28.1762 160.331 28.5522 160.602 28.9529L163.913 26.7077C163.576 26.2114 163.227 25.7433 162.872 25.3057L159.767 27.8269ZM148.963 22.4C154.288 22.4 157.955 25.595 159.767 27.8269L162.872 25.3057C160.683 22.6093 155.991 18.4 148.963 18.4V22.4ZM138.752 27.4141C140.708 25.0063 144.203 22.4 148.963 22.4V18.4C142.647 18.4 138.11 21.8611 135.648 24.8917L138.752 27.4141ZM137.558 29.1192C137.92 28.5165 138.319 27.9464 138.752 27.4141L135.648 24.8917C135.095 25.5719 134.586 26.2976 134.128 27.0624L137.558 29.1192ZM131 30C132.596 30 134.185 30.03 135.768 30.0894L135.918 26.0922C134.286 26.0309 132.646 26 131 26V30ZM120.334 30.4493C123.852 30.1517 127.409 30 131 30V26C127.296 26 123.626 26.1564 119.996 26.4635L120.334 30.4493ZM114.824 29.6266C116.609 29.5236 118.143 29.8218 119.447 30.3232L120.883 26.5896C119.076 25.8951 116.975 25.4958 114.594 25.6332L114.824 29.6266ZM108.727 31.7924C110.272 30.7014 112.29 29.7728 114.824 29.6266L114.594 25.6332C111.164 25.8311 108.442 27.0975 106.42 28.5243L108.727 31.7924ZM104.305 32.859C105.51 32.5967 106.722 32.3517 107.94 32.1245L107.206 28.1923C105.949 28.4269 104.698 28.6797 103.454 28.9505L104.305 32.859ZM102.075 32.1629C102.331 32.3095 102.587 32.4603 102.844 32.6157L104.915 29.1939C104.63 29.0214 104.347 28.855 104.068 28.6942L102.075 32.1629ZM94.235 30.16C96.2851 30.16 99.1492 30.4461 102.059 32.1536L104.084 28.7035C100.323 26.4973 96.6609 26.16 94.235 26.16V30.16ZM81.9122 34.2497C85.7087 31.6668 89.8995 30.16 94.235 30.16V26.16C88.9472 26.16 83.9865 28.0006 79.6622 30.9425L81.9122 34.2497ZM79.1628 33.8884C79.3078 33.9915 79.4525 34.0964 79.5966 34.2032L81.9777 30.9891C81.8121 30.8664 81.6464 30.7462 81.4806 30.6283L79.1628 33.8884ZM78.7293 26.7281C78.88 28.4148 78.7465 30.1234 78.3691 31.8255L82.2743 32.6912C82.731 30.631 82.9043 28.509 82.7135 26.3722L78.7293 26.7281ZM77.997 20.2731C78.6892 22.2788 78.8869 24.3641 78.7275 26.3935L82.7152 26.7067C82.9113 24.21 82.6742 21.5647 81.7782 18.9682L77.997 20.2731ZM69.8233 12.556C74.8508 13.7849 77.1456 17.7879 77.9956 20.2689L81.7796 18.9725C80.7089 15.8471 77.6736 10.3572 70.7731 8.6704L69.8233 12.556ZM58.4304 16.414C60.3613 14.136 64.4428 11.2408 69.8233 12.556L70.7731 8.6704C63.3646 6.85943 57.8551 10.9064 55.379 13.8277L58.4304 16.414ZM57.8994 17.0325C58.0785 16.8265 58.2556 16.6203 58.4304 16.4141L55.3791 13.8277C55.2152 14.0209 55.0491 14.2144 54.8807 14.4082L57.8994 17.0325ZM46.3135 12.3854C50.6449 12.626 53.3648 15.1306 54.8251 16.9657L57.955 14.475C56.1284 12.1796 52.4611 8.72076 46.5353 8.39154L46.3135 12.3854ZM36.0587 17.52C37.023 16.2344 40.4078 12.0573 46.3135 12.3854L46.5353 8.39154C38.4598 7.9429 33.9419 13.6757 32.8587 15.12L36.0587 17.52ZM35.9344 17.6895C35.9752 17.6326 36.0167 17.5761 36.0587 17.52L32.8588 15.12C32.7999 15.1985 32.7418 15.2776 32.6846 15.3574L35.9344 17.6895ZM23.8288 39.1198C28.0358 30.8638 32.9813 21.8044 35.9344 17.6895L32.6846 15.3574C29.5269 19.7574 24.452 29.0868 20.2649 37.3037L23.8288 39.1198ZM14.0037 60.7959C15.3143 56.4446 19.6845 47.2528 23.8288 39.1198L20.2649 37.3037C16.164 45.3514 11.608 54.8802 10.1736 59.6423L14.0037 60.7959ZM13.9026 61.1558C13.934 61.0352 13.9677 60.9152 14.0037 60.7959L10.1736 59.6423C10.1233 59.8093 10.0761 59.9773 10.0321 60.1461L13.9026 61.1558ZM12.8587 68.48C12.8587 66.0055 13.2859 63.5197 13.9026 61.1558L10.0321 60.1461C9.36062 62.7201 8.85875 65.5601 8.85875 68.48H12.8587ZM12.9038 69.7813C12.8738 69.3517 12.8587 68.9178 12.8587 68.48H8.85875C8.85875 69.0098 8.877 69.5366 8.91357 70.0601L12.9038 69.7813ZM12.8587 71.48C12.8587 70.9986 12.8749 70.5203 12.9047 70.0466L8.91268 69.7949C8.87786 70.347 8.85875 70.9094 8.85875 71.48H12.8587ZM15.727 81.2076C14.1865 78.8113 12.8587 75.602 12.8587 71.48H8.85875C8.85875 76.5174 10.4954 80.4665 12.3623 83.3706L15.727 81.2076ZM16.2452 81.9394C16.0616 81.7033 15.8887 81.4591 15.727 81.2076L12.3622 83.3706C12.5887 83.7228 12.8308 84.0647 13.0878 84.3952L16.2452 81.9394ZM23.2257 86.5101C19.5748 85.7252 17.1707 83.1293 16.2452 81.9394L13.0878 84.3952C14.2317 85.8659 17.3713 89.3429 22.3849 90.4208L23.2257 86.5101ZM6 155C6 130.988 12.7755 108.556 24.508 89.5146L21.1026 87.4163C8.99278 107.07 2 130.225 2 155H6ZM6.00856 156.477C6.00286 155.985 6 155.493 6 155H2C2 155.508 2.00295 156.016 2.00883 156.523L6.00856 156.477ZM6 158C6 157.507 6.00286 157.015 6.00856 156.523L2.00883 156.477C2.00295 156.984 2 157.492 2 158H6ZM131 283C61.9644 283 6 227.036 6 158H2C2 229.245 59.7553 287 131 287V283ZM256 158C256 227.036 200.036 283 131 283V287C202.245 287 260 229.245 260 158H256ZM255.991 156.523C255.997 157.015 256 157.507 256 158H260C260 157.492 259.997 156.984 259.991 156.477L255.991 156.523ZM256 155C256 155.493 255.997 155.985 255.991 156.477L259.991 156.523C259.997 156.016 260 155.508 260 155H256ZM233.975 84.1228C247.861 104.262 256 128.684 256 155H260C260 127.847 251.599 102.637 237.269 81.8523L233.975 84.1228ZM236.138 80.0019C235.623 80.4507 235.051 80.9178 234.425 81.3852L236.819 84.5899C237.532 84.0576 238.181 83.527 238.765 83.0186L236.138 80.0019ZM243.107 71.2055C241.857 73.8557 239.318 77.2338 236.138 80.0019L238.765 83.0186C242.296 79.9444 245.204 76.1362 246.725 72.9123L243.107 71.2055ZM244.984 62.2253C245.313 65.9426 244.214 68.8846 243.111 71.198L246.721 72.9198C247.956 70.3299 249.389 66.622 248.968 61.8727L244.984 62.2253ZM244.6 56.8837C245.005 58.5855 245.128 60.2402 244.984 61.8725L248.968 62.2255C249.153 60.1457 248.992 58.0589 248.491 55.9572L244.6 56.8837ZM244.552 56.6902C244.568 56.7546 244.585 56.8191 244.6 56.8839L248.491 55.957C248.47 55.8667 248.447 55.7766 248.424 55.6867L244.552 56.6902ZM243.495 53.9963C244.01 54.9826 244.353 55.9247 244.552 56.6904L248.424 55.6865C248.149 54.625 247.695 53.3992 247.041 52.146L243.495 53.9963ZM246.455 49.022C245.716 50.0514 244.906 50.8477 244.074 51.4667L246.462 54.6756C247.621 53.8134 248.722 52.7226 249.704 51.3549L246.455 49.022ZM248.436 41.3682C248.71 43.6077 248.404 46.3074 246.455 49.022L249.704 51.3549C252.346 47.6762 252.779 43.9212 252.407 40.8823L248.436 41.3682ZM246.893 33.6235C247.602 34.899 248.824 37.5796 248.435 40.8919L252.408 41.3586C252.939 36.8405 251.275 33.2742 250.39 31.6809L246.893 33.6235ZM246.79 33.4415C246.825 33.5017 246.859 33.5623 246.893 33.6235L250.39 31.681C250.343 31.5955 250.294 31.5104 250.245 31.4257L246.79 33.4415ZM245.489 31.5815C245.985 32.1813 246.419 32.8052 246.79 33.4413L250.245 31.4259C249.764 30.601 249.205 29.7996 248.574 29.0347L245.489 31.5815ZM242.799 22.0976C244.303 24.6833 245.017 27.7627 245.032 30.3196L249.032 30.2966C249.013 27.1045 248.143 23.3289 246.257 20.0866L242.799 22.0976ZM232.552 15.972C239.013 15.8428 242.12 20.9258 242.798 22.0952L246.258 20.089C245.519 18.8138 241.355 11.7951 232.472 11.9728L232.552 15.972ZM225.753 18.4656C227.14 17.365 229.455 16.0339 232.552 15.972L232.472 11.9728C228.228 12.0577 225.091 13.8842 223.267 15.3323L225.753 18.4656ZM222.888 21.5913C223.5 20.7005 224.429 19.5166 225.753 18.4656L223.267 15.3323C221.52 16.7185 220.331 18.2484 219.591 19.3261L222.888 21.5913ZM221.812 23.1623C222.165 22.6377 222.519 22.1205 222.88 21.6016L219.598 19.3157C219.225 19.851 218.858 20.3861 218.493 20.93L221.812 23.1623ZM216.127 22.7022C217.265 22.9543 218.305 23.3492 219.243 23.8279L221.061 20.2645C219.85 19.6469 218.491 19.1289 216.991 18.7968L216.127 22.7022ZM214.354 20.8246C214.493 21.0703 214.622 21.3232 214.741 21.5827L218.377 19.9163C218.211 19.5532 218.03 19.1993 217.835 18.8551L214.354 20.8246ZM215.266 14.1912C215.341 15.833 215.01 17.4783 214.291 18.9741L217.897 20.7056C218.903 18.6102 219.366 16.3073 219.262 14.01L215.266 14.1912ZM214.416 9.499C215.057 10.9421 215.335 12.4862 215.266 14.0098L219.262 14.1914C219.359 12.0585 218.969 9.89552 218.072 7.8758L214.416 9.499ZM206.19 3.59883C209.798 3.92986 212.945 6.18712 214.416 9.49901L218.072 7.8758C216.013 3.23916 211.607 0.0790034 206.555 -0.384445L206.19 3.59883ZM191.135 2.21775L206.19 3.59883L206.555 -0.384445L191.501 -1.76553L191.135 2.21775Z" fill="#07090D" mask="url(#path-1-inside-1_647_26157)"/>
<path d="M245 157C245 219.96 193.96 271 131 271C68.0395 271 17 219.96 17 157C17 94.0395 68.0395 43 131 43C193.96 43 245 94.0395 245 157Z" fill="#07090D" stroke="black" stroke-width="2"/>
<path d="M245 155C245 217.96 193.96 269 131 269C68.0395 269 17 217.96 17 155C17 92.0395 68.0395 41 131 41C193.96 41 245 92.0395 245 155Z" fill="url(#paint0_linear_647_26157)" stroke="black" stroke-width="2"/>
<path d="M131 255C186.228 255 231 210.228 231 155C231 99.7715 186.228 55 131 55C75.7715 55 31 99.7715 31 155C31 210.228 75.7715 255 131 255Z" stroke="url(#paint1_linear_647_26157)" stroke-width="12"/>
<path d="M77.4609 187V132.156L79.5264 134.222L64.2773 141.077V130.662L84.5801 122.225H87.832V187H77.4609ZM63.2666 187V177.64H99.4336V187H63.2666ZM126.794 187.703C122.312 187.703 118.488 186.619 115.324 184.451C112.16 182.254 109.743 178.987 108.073 174.651C106.403 170.315 105.568 164.939 105.568 158.523V151.009C105.568 144.534 106.403 139.114 108.073 134.749C109.743 130.384 112.16 127.088 115.324 124.861C118.488 122.635 122.312 121.521 126.794 121.521C131.276 121.521 135.085 122.635 138.22 124.861C141.384 127.088 143.786 130.384 145.427 134.749C147.097 139.114 147.932 144.534 147.932 151.009V158.523C147.932 164.939 147.097 170.315 145.427 174.651C143.786 178.987 141.384 182.254 138.22 184.451C135.085 186.619 131.276 187.703 126.794 187.703ZM126.794 178.167C129.079 178.167 131.013 177.493 132.595 176.145C134.206 174.769 135.422 172.747 136.242 170.081C137.092 167.386 137.517 164.046 137.517 160.062V149.295C137.517 145.281 137.092 141.927 136.242 139.231C135.422 136.536 134.206 134.5 132.595 133.123C131.013 131.746 129.079 131.058 126.794 131.058C124.509 131.058 122.561 131.746 120.949 133.123C119.367 134.471 118.137 136.492 117.258 139.187C116.408 141.883 115.983 145.252 115.983 149.295V160.062C115.983 164.017 116.408 167.342 117.258 170.037C118.107 172.732 119.338 174.769 120.949 176.145C122.561 177.493 124.509 178.167 126.794 178.167ZM113.962 171.092L109.699 163.885L139.714 138.221L143.713 145.252L113.962 171.092ZM177.419 187.703C172.937 187.703 169.113 186.619 165.949 184.451C162.785 182.254 160.368 178.987 158.698 174.651C157.028 170.315 156.193 164.939 156.193 158.523V151.009C156.193 144.534 157.028 139.114 158.698 134.749C160.368 130.384 162.785 127.088 165.949 124.861C169.113 122.635 172.937 121.521 177.419 121.521C181.901 121.521 185.71 122.635 188.845 124.861C192.009 127.088 194.411 130.384 196.052 134.749C197.722 139.114 198.557 144.534 198.557 151.009V158.523C198.557 164.939 197.722 170.315 196.052 174.651C194.411 178.987 192.009 182.254 188.845 184.451C185.71 186.619 181.901 187.703 177.419 187.703ZM177.419 178.167C179.704 178.167 181.638 177.493 183.22 176.145C184.831 174.769 186.047 172.747 186.867 170.081C187.717 167.386 188.142 164.046 188.142 160.062V149.295C188.142 145.281 187.717 141.927 186.867 139.231C186.047 136.536 184.831 134.5 183.22 133.123C181.638 131.746 179.704 131.058 177.419 131.058C175.134 131.058 173.186 131.746 171.574 133.123C169.992 134.471 168.762 136.492 167.883 139.187C167.033 141.883 166.608 145.252 166.608 149.295V160.062C166.608 164.017 167.033 167.342 167.883 170.037C168.732 172.732 169.963 174.769 171.574 176.145C173.186 177.493 175.134 178.167 177.419 178.167ZM164.587 171.092L160.324 163.885L190.339 138.221L194.338 145.252L164.587 171.092Z" fill="url(#paint2_linear_647_26157)"/>
<path d="M212.952 67.24C212.952 65.48 213.432 63.24 214.552 60.6C216.152 56.68 219.192 50.36 222.392 44.6C219.912 44.28 218.472 43.4 217.832 42.44C216.712 40.76 217.512 39.96 219.352 40.04C221.192 40.12 223.352 40.04 225.112 39.88C227.592 35.56 229.272 32.92 231.112 30.28C232.312 28.52 233.272 28.6 234.152 30.12C234.712 31.08 235.032 32.44 235.032 33.4C235.032 34.84 234.712 36.68 233.752 38.92C236.232 39.24 237.592 40.52 238.152 41.48C238.952 42.92 238.392 43.88 236.472 43.64C235.032 43.48 232.952 43.64 231.192 43.88C228.152 49.08 223.592 57 220.792 63.08C219.832 65.24 219.352 67.32 219.352 69.08C219.352 71.48 220.152 73.16 221.512 73.16C224.632 73.16 228.792 68.12 231.592 62.12C232.472 60.2 234.312 60.04 234.872 62.2C235.272 63.88 234.952 65.08 234.072 66.92C232.952 69.32 227.592 76.2 220.872 76.2C216.632 76.2 212.952 72.76 212.952 67.24Z" fill="#07090D"/>
<path d="M209.818 39.72C209.818 37.48 211.498 35.4 213.338 35.4C215.578 35.4 217.738 38.28 217.738 40.6C217.738 42.76 216.538 44.6 214.538 44.6C211.978 44.6 209.818 42.2 209.818 39.72ZM215.738 67.8C213.338 72.84 207.818 76.2 203.098 76.2C198.218 76.2 196.058 73.4 196.058 69.4C196.058 67.88 196.378 66.2 197.018 64.12C199.018 58.52 204.138 49.24 207.098 45.08C208.298 43.48 209.258 43.32 210.298 44.52C211.818 46.12 212.458 49.56 210.378 53.56C208.858 57 205.178 63 203.818 66.2C203.098 68.04 202.698 69.72 202.698 71C202.698 72.28 203.018 73 203.898 73C207.098 73 211.258 67.64 213.738 62.2C214.378 60.76 215.418 60.92 216.138 62.36C216.858 63.72 216.778 65.72 215.738 67.8Z" fill="#07090D"/>
<path d="M162.417 43.88C163.137 45.08 163.457 46.36 163.457 47.64C163.457 48.2 163.457 48.76 163.377 49.24C166.817 46.04 170.657 43.4 173.537 43.4C175.857 43.4 178.017 46.2 178.017 49.24C178.017 51 176.577 53.56 174.017 58.04C171.457 62.12 168.737 67.4 168.737 70.36C168.737 72.04 169.297 73.08 170.337 73.08C173.057 73.08 177.217 67.88 180.097 62.52C180.897 61 182.017 61.08 182.737 62.2C183.377 63.16 183.457 65.64 182.337 67.8C180.097 72.2 174.257 76.44 169.457 76.44C164.097 76.44 161.777 73.72 161.777 69.56C161.777 65.24 165.457 57.88 168.577 52.92C170.257 50.28 171.537 48.2 170.977 48.2C170.257 48.2 166.337 50.44 161.937 55.4C157.537 60.04 153.937 67.88 150.657 75.08C150.097 76.36 149.057 76.84 147.777 75.56C146.657 74.44 146.017 73.08 146.017 71.16C146.017 69.96 146.257 68.6 146.737 67C148.257 62.52 154.417 51.32 159.377 43.88C160.417 42.36 161.617 42.44 162.417 43.88Z" fill="#07090D"/>
<path d="M145.443 39.72C145.443 37.48 147.123 35.4 148.963 35.4C151.203 35.4 153.363 38.28 153.363 40.6C153.363 42.76 152.163 44.6 150.163 44.6C147.603 44.6 145.443 42.2 145.443 39.72ZM151.363 67.8C148.963 72.84 143.443 76.2 138.723 76.2C133.843 76.2 131.683 73.4 131.683 69.4C131.683 67.88 132.003 66.2 132.643 64.12C134.643 58.52 139.763 49.24 142.723 45.08C143.923 43.48 144.883 43.32 145.923 44.52C147.443 46.12 148.083 49.56 146.003 53.56C144.483 57 140.803 63 139.443 66.2C138.723 68.04 138.323 69.72 138.323 71C138.323 72.28 138.643 73 139.523 73C142.723 73 146.883 67.64 149.363 62.2C150.003 60.76 151.043 60.92 151.763 62.36C152.483 63.72 152.403 65.72 151.363 67.8Z" fill="#07090D"/>
<path d="M114.42 56.2L111.86 60.52C109.38 65.64 109.94 71.4 112.02 71.4C114.5 71.4 118.1 67 121.38 60.36C123.3 56.6 124.26 52.52 124.26 49.88C124.26 48.44 124.1 47.48 123.7 47.32C122.26 46.68 117.86 50.36 114.42 56.2ZM131.06 52.28C131.06 55.72 129.78 59.8 127.94 63.64C126.02 68.04 123.38 71.64 120.82 73.72C126.74 72.52 131.3 67.24 133.62 62.6C134.58 60.76 136.26 61.16 136.58 62.76C136.74 63.56 136.82 65.8 135.46 68.2C131.86 74.68 125.14 76.92 118.5 76.92C112.18 76.92 108.26 74.76 106.42 70.44C102.9 77 99.46 83.88 96.1 91.72C95.46 93.16 94.5 93.48 93.7 92.52C92.5 91 92.1 89.88 92.1 88.2C92.1 86.92 92.34 85.24 93.06 83C95.38 75.4 108.58 50.52 113.54 43.88C114.98 42.12 116.02 42.44 116.66 43.32C117.3 44.2 117.46 45.24 117.46 46.28C119.46 44.92 121.78 43.88 123.94 43.88C128.74 43.88 131.06 48.2 131.06 52.28Z" fill="#07090D"/>
<path d="M96.795 47.72C95.595 46.76 89.675 51.64 85.835 59.32C86.475 59.72 87.035 59.88 87.595 59.88C89.515 59.88 92.075 57.48 93.675 55.32C95.995 52.2 97.675 48.44 96.795 47.72ZM102.795 50.92C102.795 55.72 97.435 64.12 90.395 64.12C88.475 64.12 86.555 63.56 84.715 62.36C84.235 63.96 83.995 65.64 83.995 67.08C83.995 70.6 85.435 73.08 87.835 73.08C93.915 73.08 99.275 67.16 102.555 62.2C103.435 60.92 104.475 60.76 105.115 62.36C105.355 63.08 105.435 65.4 103.995 67.56C100.635 72.44 94.235 76.2 87.995 76.28C80.555 76.36 76.475 71.48 76.475 65.08C76.475 62.2 77.275 59.08 78.955 55.88C83.115 47.4 89.595 43.16 94.235 43.16C95.355 43.16 96.235 43.32 97.035 43.8C99.275 45.08 100.875 46.36 101.995 47.96C102.475 48.68 102.795 49.88 102.795 50.92Z" fill="#07090D"/>
<path d="M71.17 47.72C69.97 46.76 64.05 51.64 60.21 59.32C60.85 59.72 61.41 59.88 61.97 59.88C63.89 59.88 66.45 57.48 68.05 55.32C70.37 52.2 72.05 48.44 71.17 47.72ZM77.17 50.92C77.17 55.72 71.81 64.12 64.77 64.12C62.85 64.12 60.93 63.56 59.09 62.36C58.61 63.96 58.37 65.64 58.37 67.08C58.37 70.6 59.81 73.08 62.21 73.08C68.29 73.08 73.65 67.16 76.93 62.2C77.81 60.92 78.85 60.76 79.49 62.36C79.73 63.08 79.81 65.4 78.37 67.56C75.01 72.44 68.61 76.2 62.37 76.28C54.93 76.36 50.85 71.48 50.85 65.08C50.85 62.2 51.65 59.08 53.33 55.88C57.49 47.4 63.97 43.16 68.61 43.16C69.73 43.16 70.61 43.32 71.41 43.8C73.65 45.08 75.25 46.36 76.37 47.96C76.85 48.68 77.17 49.88 77.17 50.92Z" fill="#07090D"/>
<path d="M46.6188 75.56C45.8188 76.68 44.5388 76.84 43.7388 75.32C40.7788 69.64 37.7388 64.36 34.3788 59.48C31.8188 64.44 29.2588 69.8 26.9388 75.4C26.2988 76.92 25.2588 77.24 24.1388 75.8C23.4188 74.68 22.8588 73.32 22.8588 71.48C22.8588 70.12 23.0988 68.52 23.5788 66.68C25.5788 60.04 39.1788 33.32 44.0588 26.52C45.2588 24.92 46.2988 25 47.3388 26.68C47.8188 27.56 48.2188 28.84 48.2188 30.2C48.2188 32.28 47.6588 35.16 45.6588 38.68C42.5388 44.28 41.8988 45.24 39.5788 49.48C48.8588 42.28 58.9388 34.28 66.0588 25.88C66.9388 24.84 68.0588 25.08 68.5388 26.52C69.0988 28.12 68.8588 31.16 65.8988 35.16C62.4588 39.96 51.6588 49.32 41.3388 56.76C43.6588 60.52 45.8188 64.28 46.7788 66.36C47.5788 68.28 47.9788 70.2 47.9788 71.48C47.9788 73.08 47.3388 74.6 46.6188 75.56Z" fill="#07090D"/>
<path fill-rule="evenodd" clip-rule="evenodd" d="M232.643 31.5808C230.885 34.112 229.254 36.6821 226.846 40.8757C226.522 41.4411 225.942 41.8128 225.293 41.8718C223.846 42.0033 222.137 42.0837 220.523 42.0698C221.008 42.2871 221.694 42.4933 222.648 42.6164C223.305 42.7013 223.878 43.1065 224.177 43.6983C224.476 44.2902 224.462 44.9917 224.14 45.5713C220.97 51.2769 217.967 57.5243 216.404 61.3558L216.393 61.3811C215.344 63.8532 214.952 65.8228 214.952 67.24C214.952 70.644 216.585 72.8544 218.67 73.7488C218.462 73.4905 218.287 73.2138 218.143 72.9341C217.576 71.8312 217.352 70.4621 217.352 69.08C217.352 66.978 217.919 64.6198 218.964 62.2677L218.975 62.2434C221.823 56.0608 226.432 48.0585 229.465 42.8706C229.776 42.3399 230.313 41.9814 230.922 41.8983C232.318 41.7079 234.011 41.5505 235.494 41.5792C235.029 41.2845 234.38 41.0176 233.496 40.9035C232.874 40.8233 232.326 40.4561 232.015 39.9117C231.704 39.3672 231.667 38.7084 231.914 38.1322C232.78 36.1112 233.032 34.5384 233.032 33.4C233.032 32.9009 232.884 32.1743 232.643 31.5808ZM228.84 70.4239C230.661 68.7032 231.875 66.8979 232.26 66.0742L232.268 66.0571C232.769 65.0079 232.999 64.3428 233.037 63.7325C231.818 66.2134 230.371 68.5382 228.84 70.4239ZM235.879 29.1123C235.397 28.2809 234.409 26.9364 232.712 26.9704C231.892 26.9868 231.221 27.3395 230.726 27.7321C230.241 28.1175 229.826 28.6162 229.466 29.1443C227.723 31.6449 226.125 34.1415 223.906 37.9685C222.448 38.0655 220.835 38.1026 219.439 38.0419C218.846 38.0161 218.221 38.054 217.633 38.2214C217.049 38.3876 216.356 38.7261 215.863 39.4061C214.769 40.914 215.534 42.5986 216.168 43.5494C216.86 44.5883 217.964 45.3887 219.391 45.9258C216.639 51.0632 214.129 56.3455 212.705 59.8315C211.518 62.6343 210.952 65.1404 210.952 67.24C210.952 73.7368 215.404 78.2 220.872 78.2C224.913 78.2 228.385 76.145 230.885 73.9684C233.377 71.7988 235.181 69.267 235.88 67.7744C236.845 65.7548 237.37 64.0554 236.818 61.7368C236.814 61.7238 236.811 61.7109 236.808 61.6981C236.409 60.1581 235.266 58.5998 233.321 58.6302C231.595 58.6572 230.381 59.9663 229.777 61.2802C228.438 64.1467 226.798 66.7312 225.175 68.564C224.362 69.4818 223.596 70.1627 222.921 70.6011C222.388 70.9469 221.989 71.0918 221.719 71.1399C221.713 71.1294 221.707 71.1181 221.701 71.1059C221.528 70.7688 221.352 70.0979 221.352 69.08C221.352 67.6649 221.743 65.8676 222.614 63.9044C225.221 58.2471 229.398 50.9275 232.42 45.744C233.847 45.588 235.272 45.5208 236.24 45.6265C237.358 45.7637 239 45.6882 239.957 44.3564C240.946 42.9784 240.398 41.4054 239.9 40.5087C239.893 40.4965 239.887 40.4843 239.879 40.4722C239.259 39.4085 238.113 38.265 236.378 37.5523C236.845 35.995 237.032 34.6093 237.032 33.4C237.032 32.1168 236.633 30.4037 235.879 29.1123Z" fill="#07090D"/>
<path fill-rule="evenodd" clip-rule="evenodd" d="M212.44 37.9812C212.064 38.4447 211.818 39.0845 211.818 39.72C211.818 41.2034 213.188 42.6 214.538 42.6C214.852 42.6 215.082 42.4834 215.291 42.2065C215.531 41.8871 215.738 41.333 215.738 40.6C215.738 40.001 215.428 39.1323 214.825 38.3906C214.202 37.623 213.615 37.4 213.338 37.4C213.188 37.4 212.83 37.501 212.44 37.9812ZM209.336 35.4588C210.246 34.3389 211.648 33.4 213.338 33.4C215.301 33.4 216.914 34.617 217.931 35.8694C218.969 37.1477 219.738 38.8789 219.738 40.6C219.738 42.027 219.345 43.4729 218.485 44.6135C217.594 45.7966 216.224 46.6 214.538 46.6C214.176 46.6 213.822 46.5686 213.477 46.5089C213.99 48.7913 213.64 51.5927 212.182 54.4255C211.398 56.1885 210.112 58.5295 208.893 60.747L208.791 60.933C207.498 63.2869 206.304 65.4709 205.67 66.9556C205.053 68.5394 204.748 69.8559 204.704 70.7732C204.886 70.6867 205.093 70.5701 205.325 70.4149C206.009 69.9576 206.775 69.2552 207.576 68.3304C209.175 66.4848 210.737 63.9599 211.913 61.381C212.343 60.4192 213.343 59.0458 215.093 59.2086C216.595 59.3483 217.478 60.576 217.917 61.4454C219.022 63.5544 218.744 66.2505 217.536 68.6766C214.816 74.3708 208.62 78.2 203.098 78.2C200.275 78.2 197.931 77.381 196.304 75.6838C194.693 74.003 194.058 71.7429 194.058 69.4C194.058 67.6022 194.437 65.7092 195.107 63.5318C195.115 63.5035 195.125 63.4753 195.135 63.4473C197.207 57.6453 202.421 48.2032 205.469 43.9205C205.478 43.9069 205.488 43.8934 205.498 43.88C206.108 43.0665 206.976 42.1325 208.175 41.8306C207.943 41.1496 207.818 40.4363 207.818 39.72C207.818 38.1155 208.412 36.5953 209.336 35.4588ZM208.713 46.2608C205.845 50.2984 200.852 59.3571 198.917 64.7508C198.316 66.7118 198.058 68.1667 198.058 69.4C198.058 71.0571 198.503 72.197 199.192 72.9162C199.694 73.4403 200.476 73.8967 201.694 74.0949C201.503 73.8964 201.347 73.679 201.222 73.4556C200.775 72.655 200.698 71.7281 200.698 71C200.698 69.3654 201.193 67.4196 201.956 65.4712C201.963 65.4533 201.97 65.4354 201.977 65.4177C202.706 63.7029 204.026 61.299 205.285 59.007L205.317 58.95C206.604 56.6064 207.838 54.3603 208.549 52.7517C208.566 52.713 208.584 52.6748 208.604 52.6373C210.356 49.2675 209.66 46.8722 208.93 45.9902C208.866 46.0649 208.793 46.1543 208.713 46.2608ZM209.871 71.7496C211.551 70.5185 213.011 68.8753 213.932 66.9401C213.938 66.9286 213.944 66.917 213.949 66.9056C214.298 66.2087 214.485 65.5831 214.564 65.0454C213.418 67.2039 212.051 69.2749 210.6 70.9496C210.362 71.2244 210.118 71.4918 209.871 71.7496Z" fill="#07090D"/>
<path fill-rule="evenodd" clip-rule="evenodd" d="M160.881 45.2306C158.479 48.8528 155.798 53.3534 153.521 57.5108C151.183 61.7791 149.349 65.5448 148.642 67.6093C148.203 69.0806 148.017 70.2268 148.017 71.16C148.017 72.4108 148.364 73.228 148.984 73.9268C152.176 66.9221 155.864 58.9117 160.462 54.0483C161.397 52.9963 162.313 52.0585 163.189 51.2312C162.928 51.2067 162.67 51.1308 162.43 51.0015C161.676 50.5961 161.263 49.7557 161.404 48.9112C161.451 48.627 161.457 48.2452 161.457 47.64C161.457 46.818 161.279 46.0074 160.881 45.2306ZM170.835 46.2044C170.882 46.2015 170.929 46.2 170.977 46.2C171.317 46.2 171.808 46.2812 172.268 46.6294C172.737 46.9844 172.955 47.4515 173.045 47.8152C173.194 48.4172 173.047 48.9433 172.997 49.1157C172.865 49.5805 172.609 50.0901 172.376 50.5219C171.876 51.4454 171.096 52.6868 170.266 53.9913C168.749 56.4034 167.101 59.3919 165.84 62.2803C164.546 65.242 163.777 67.8395 163.777 69.56C163.777 71.2767 164.249 72.4038 164.992 73.1172C165.614 73.7148 166.639 74.2261 168.304 74.3873C167.942 74.1029 167.642 73.7461 167.413 73.3462C166.898 72.4503 166.737 71.3737 166.737 70.36C166.737 68.4159 167.586 66.0154 168.596 63.7924C169.638 61.5005 170.996 59.0939 172.301 57.0122C173.583 54.7687 174.535 53.0895 175.173 51.7562C175.836 50.3711 176.017 49.6395 176.017 49.24C176.017 48.1761 175.632 47.1416 175.061 46.3987C174.469 45.628 173.876 45.4 173.537 45.4C172.86 45.4 171.951 45.6502 170.835 46.2044ZM175.752 72.1024C177.866 70.6418 179.62 68.7277 180.555 66.8926L180.561 66.8794C180.936 66.1564 181.132 65.3728 181.186 64.6763C179.829 67.0382 178.251 69.3282 176.656 71.134C176.359 71.4696 176.058 71.7939 175.752 72.1024ZM165.118 45.1386C165.951 44.5016 166.793 43.9166 167.631 43.4093C169.488 42.2842 171.549 41.4 173.537 41.4C175.518 41.4 177.165 42.572 178.233 43.9613C179.322 45.3784 180.017 47.2639 180.017 49.24C180.017 50.6005 179.477 52.0288 178.781 53.4838C178.063 54.9835 177.021 56.8135 175.753 59.0323C175.743 59.0497 175.733 59.0669 175.723 59.084C175.719 59.0904 175.715 59.0967 175.711 59.103C174.462 61.0932 173.19 63.3524 172.238 65.4476C171.248 67.6245 170.737 69.3441 170.737 70.36C170.737 70.5952 170.752 70.79 170.775 70.9469C170.95 70.8672 171.177 70.7414 171.459 70.5443C172.101 70.0953 172.849 69.4019 173.658 68.486C175.27 66.6607 176.945 64.1595 178.331 61.5806C178.877 60.5481 179.844 59.4682 181.319 59.3741C182.803 59.2794 183.849 60.2373 184.411 61.106C185.063 62.0946 185.242 63.4463 185.195 64.6291C185.145 65.9017 184.821 67.3505 184.116 68.7134C182.814 71.2676 180.542 73.6621 177.99 75.4177C175.451 77.1648 172.399 78.44 169.457 78.44C166.46 78.44 163.967 77.6779 162.222 76.0028C160.465 74.3162 159.777 72.0033 159.777 69.56C159.777 66.9605 160.847 63.718 162.174 60.6796C163.001 58.7847 163.975 56.8675 164.972 55.0825C164.47 55.59 163.956 56.1379 163.433 56.7272C163.418 56.7438 163.403 56.7601 163.388 56.7762C159.271 61.1177 155.81 68.5926 152.483 75.8964C152.093 76.7793 151.327 77.8883 149.963 78.2226C148.501 78.5806 147.238 77.8493 146.363 76.9742C144.872 75.4834 144.017 73.6164 144.017 71.16C144.017 69.7005 144.308 68.1373 144.821 66.4253C144.828 66.4025 144.835 66.3799 144.843 66.3574C145.665 63.9345 147.663 59.8778 150.013 55.5891C152.385 51.2594 155.194 46.5482 157.713 42.7706L157.726 42.7506C158.4 41.7658 159.5 40.7416 161.025 40.7703C162.572 40.7995 163.589 41.8862 164.148 42.878C164.584 43.6105 164.904 44.3687 165.118 45.1386ZM171.338 50.1528C171.338 50.1534 171.328 50.1568 171.31 50.1616C171.33 50.1546 171.339 50.1522 171.338 50.1528Z" fill="#07090D"/>
<path fill-rule="evenodd" clip-rule="evenodd" d="M148.065 37.9812C147.689 38.4447 147.443 39.0845 147.443 39.72C147.443 41.2034 148.813 42.6 150.163 42.6C150.477 42.6 150.707 42.4834 150.916 42.2065C151.156 41.8871 151.363 41.333 151.363 40.6C151.363 40.001 151.053 39.1323 150.45 38.3906C149.827 37.623 149.24 37.4 148.963 37.4C148.813 37.4 148.455 37.501 148.065 37.9812ZM144.961 35.4588C145.871 34.3389 147.273 33.4 148.963 33.4C150.926 33.4 152.539 34.617 153.556 35.8694C154.594 37.1477 155.363 38.8789 155.363 40.6C155.363 42.027 154.97 43.4729 154.11 44.6135C153.219 45.7966 151.849 46.6 150.163 46.6C149.801 46.6 149.447 46.5686 149.102 46.5089C149.615 48.7914 149.265 51.5928 147.807 54.4256C147.023 56.1883 145.737 58.529 144.519 60.7463L144.416 60.933C143.123 63.2871 141.929 65.4713 141.295 66.956C140.678 68.5396 140.373 69.856 140.329 70.7732C140.511 70.6867 140.718 70.5701 140.95 70.4149C141.634 69.9576 142.4 69.2552 143.201 68.3304C144.801 66.4842 146.363 63.958 147.54 61.3782C147.97 60.4166 148.97 59.0459 150.718 59.2086C152.22 59.3483 153.103 60.576 153.542 61.4454C154.647 63.5544 154.369 66.2505 153.161 68.6766C150.441 74.3708 144.245 78.2 138.723 78.2C135.9 78.2 133.556 77.381 131.929 75.6838C130.318 74.003 129.683 71.7429 129.683 69.4C129.683 67.6022 130.062 65.7092 130.732 63.5318C130.74 63.5035 130.75 63.4753 130.76 63.4473C132.832 57.6453 138.046 48.2032 141.094 43.9205C141.103 43.9069 141.113 43.8934 141.123 43.88C141.733 43.0665 142.601 42.1325 143.8 41.8306C143.568 41.1496 143.443 40.4363 143.443 39.72C143.443 38.1155 144.037 36.5953 144.961 35.4588ZM144.337 46.261C141.47 50.2986 136.477 59.3573 134.542 64.7509C133.941 66.7119 133.683 68.1667 133.683 69.4C133.683 71.0571 134.128 72.197 134.817 72.9162C135.319 73.4403 136.101 73.8967 137.319 74.0949C137.128 73.8964 136.972 73.679 136.847 73.4556C136.4 72.655 136.323 71.7281 136.323 71C136.323 69.3654 136.818 67.4196 137.581 65.4712C137.588 65.4533 137.595 65.4354 137.602 65.4177C138.331 63.7029 139.651 61.299 140.91 59.007L140.942 58.9491C142.229 56.6059 143.463 54.3601 144.174 52.7517C144.191 52.713 144.209 52.6748 144.229 52.6373C145.981 49.2675 145.285 46.8722 144.555 45.9902C144.491 46.0649 144.418 46.1544 144.337 46.261ZM145.496 71.7496C147.176 70.5185 148.636 68.8753 149.557 66.9401C149.563 66.9286 149.569 66.917 149.574 66.9056C149.923 66.2087 150.11 65.5831 150.189 65.0454C149.043 67.2039 147.676 69.2749 146.225 70.9496C145.987 71.2244 145.743 71.4918 145.496 71.7496Z" fill="#07090D"/>
<path fill-rule="evenodd" clip-rule="evenodd" d="M115.114 45.1143C112.734 48.3143 108.279 56.0319 104.08 64.0114C99.854 72.0415 96.0684 79.9951 94.9728 83.5839L94.964 83.612C94.2926 85.7008 94.1 87.1716 94.1 88.2C94.1 88.8716 94.1787 89.3261 94.3271 89.7299C94.3855 89.8886 94.4606 90.0558 94.5602 90.2386C97.854 82.6185 101.222 75.8976 104.658 69.4944C105.021 68.8166 105.741 68.4075 106.51 68.442C107.278 68.4765 107.959 68.9486 108.26 69.6563C108.373 69.9216 108.495 70.1755 108.625 70.4184C108.389 69.6566 108.268 68.8134 108.232 67.9665C108.127 65.5489 108.679 62.5002 110.06 59.6481C110.084 59.5978 110.111 59.5485 110.139 59.5004L112.697 55.1849C112.697 55.184 112.698 55.183 112.698 55.1821C114.401 52.2926 116.345 49.8725 118.129 48.165C117.608 48.3496 117.026 48.3131 116.524 48.0477C115.87 47.7011 115.46 47.0209 115.46 46.28C115.46 45.7015 115.397 45.2696 115.273 44.9328C115.224 44.9859 115.171 45.0461 115.114 45.1143ZM125.306 46.0572C125.5 46.266 125.635 46.4809 125.725 46.6515C125.919 47.0197 126.025 47.4038 126.089 47.7192C126.22 48.3563 126.26 49.1141 126.26 49.88C126.26 52.8902 125.199 57.2747 123.167 61.2574C121.487 64.6578 119.687 67.5646 117.932 69.6558C117.055 70.7008 116.143 71.5972 115.214 72.2472C114.308 72.8818 113.216 73.4 112.02 73.4C111.79 73.4 111.574 73.3767 111.37 73.334C111.488 73.4052 111.608 73.4739 111.73 73.5402C113.348 74.4139 115.552 74.92 118.5 74.92C118.738 74.92 118.976 74.917 119.213 74.9108C119.136 74.8069 119.068 74.6944 119.011 74.574C118.618 73.7415 118.844 72.7483 119.559 72.1678C121.81 70.3384 124.279 67.0281 126.107 62.8401C126.112 62.8287 126.117 62.8173 126.122 62.8059C126.127 62.7958 126.132 62.7858 126.136 62.7758C127.919 59.056 129.06 55.2904 129.06 52.28C129.06 50.5848 128.572 48.925 127.694 47.7419C127.101 46.9434 126.322 46.3398 125.306 46.0572ZM126.737 73.415C129.605 72.2101 132.05 70.2203 133.712 67.2287L133.72 67.214C134.142 66.4685 134.384 65.7507 134.518 65.1279C132.741 68.1323 130.099 71.2871 126.737 73.415ZM129.048 66.0025C130.164 64.6363 131.105 63.1575 131.831 61.7056L131.847 61.6749C132.554 60.319 133.88 59.1993 135.58 59.4044C137.249 59.6058 138.262 60.9737 138.541 62.3678C138.781 63.5672 138.83 66.3046 137.204 69.1783C133.115 76.5311 125.535 78.92 118.5 78.92C115.128 78.92 112.212 78.3461 109.83 77.0598C108.552 76.3698 107.463 75.4935 106.56 74.4443C103.626 80.0485 100.753 85.9401 97.9383 92.5078L97.9276 92.5323C97.5243 93.4398 96.8094 94.5117 95.5924 94.9174C94.1259 95.4062 92.8852 94.6663 92.1635 93.8004C92.1522 93.7868 92.1411 93.7731 92.1302 93.7593C91.4514 92.8994 90.9199 92.0541 90.5728 91.1101C90.2213 90.1539 90.1 89.2084 90.1 88.2C90.1 86.6714 90.3862 84.7866 91.1514 82.402C92.3809 78.3856 96.3508 70.1092 100.54 62.1486C104.744 54.1593 109.351 46.1462 111.938 42.6831C111.955 42.6595 111.973 42.6363 111.992 42.6135C112.838 41.5792 113.927 40.6917 115.285 40.6133C116.757 40.5284 117.75 41.4184 118.277 42.1436C118.519 42.4755 118.713 42.8169 118.867 43.1609C120.453 42.4041 122.192 41.88 123.94 41.88C127.024 41.88 129.38 43.3022 130.906 45.3581C132.388 47.355 133.06 49.8952 133.06 52.28C133.06 56.1393 131.649 60.5205 129.759 64.4725C129.531 64.9921 129.294 65.5025 129.048 66.0025ZM95.2528 91.2579C95.2528 91.258 95.2519 91.2571 95.2501 91.2552C95.2518 91.2568 95.2527 91.2578 95.2528 91.2579ZM121.163 50.8032C119.615 52.2242 117.775 54.4443 116.143 57.2151L116.141 57.2196L113.625 61.465C112.553 63.7111 112.154 66.0698 112.228 67.7935C112.256 68.4488 112.35 68.9335 112.452 69.2546C112.579 69.1911 112.735 69.1002 112.921 68.9703C113.467 68.5878 114.125 67.9691 114.868 67.0842C116.351 65.3178 117.989 62.7089 119.587 59.4742L119.599 59.4504C121.4 55.9229 122.257 52.1605 122.26 49.8925C121.935 50.13 121.567 50.4318 121.163 50.8032Z" fill="#07090D"/>
<path fill-rule="evenodd" clip-rule="evenodd" d="M94.235 45.16C90.6588 45.16 84.7313 48.6462 80.7506 56.7608C80.7425 56.7772 80.7343 56.7935 80.7258 56.8097C79.1719 59.7695 78.475 62.5727 78.475 65.08C78.475 67.858 79.3554 70.1454 80.8805 71.7174C81.7831 72.6478 82.9758 73.3941 84.4857 73.8364C84.0321 73.4448 83.6409 72.977 83.3172 72.4571C82.3981 70.9811 81.995 69.077 81.995 67.08C81.995 65.4369 82.2659 63.5635 82.7993 61.7853C82.9805 61.1814 83.4358 60.6983 84.0278 60.4817C84.0761 60.4641 84.1249 60.4483 84.1739 60.4345C83.7844 59.8534 83.7149 59.088 84.0461 58.4256C86.0671 54.3836 88.6403 51.0627 90.9078 48.8489C92.033 47.7504 93.1446 46.8639 94.1329 46.3059C94.6184 46.0318 95.1719 45.7806 95.7466 45.6663C95.8683 45.6421 96.0111 45.6204 96.1689 45.609C96.1272 45.5849 96.0851 45.5607 96.0427 45.5365C96.0304 45.5294 96.0181 45.5223 96.006 45.515C95.6365 45.2933 95.1635 45.16 94.235 45.16ZM98.921 47.5239C98.9425 47.6029 98.9598 47.6794 98.9736 47.7523C99.0625 48.2204 99.0379 48.6748 98.9858 49.0484C98.8814 49.7979 98.6081 50.6156 98.2773 51.3984C97.605 52.9894 96.5191 54.8466 95.2813 56.5115C94.4013 57.6993 93.2471 58.9706 92.0096 59.9675C91.0156 60.7683 89.7015 61.6112 88.2797 61.8272C88.9887 62.0266 89.6952 62.12 90.395 62.12C93.0946 62.12 95.6818 60.4923 97.6901 58.0498C99.7173 55.5843 100.795 52.7188 100.795 50.92C100.795 50.1951 100.554 49.4165 100.341 49.0843C99.9579 48.5416 99.494 48.0285 98.921 47.5239ZM87.9821 75.079C91.442 75.0346 94.5526 73.4265 97.1353 71.3559C99.223 70.0237 101.039 68.3226 102.34 66.437C102.337 66.4415 102.334 66.4461 102.331 66.4506L103.995 67.5599L102.348 66.4258C102.345 66.4295 102.342 66.4333 102.34 66.437C102.642 65.9813 102.852 65.5149 102.994 65.0693C103.427 64.4778 103.834 63.8915 104.212 63.3206C104.34 63.1365 104.418 63.0733 104.421 63.0715L104.421 63.0714C104.42 63.0718 104.293 63.1653 104.056 63.1926L103.671 62.9377L105.115 62.36L103.574 62.8737L102.555 62.2L103.548 62.8824L103.251 62.9813C103.229 62.9639 103.21 62.9479 103.196 62.9343C103.168 62.9078 103.155 62.8915 103.155 62.8916C103.155 62.8918 103.18 62.9265 103.221 63.015C103.236 63.1134 103.291 63.5162 103.204 64.146C103.164 64.4348 103.097 64.7466 102.994 65.0693C101.477 67.1401 99.6313 69.2745 97.5284 71.0339C97.3987 71.1424 97.2677 71.2498 97.1353 71.3559C94.3681 73.1217 91.1238 74.2395 87.9701 74.2801C87.9699 74.2801 87.9696 74.2802 87.9693 74.2802L87.9796 75.0791M103.369 63.0585C103.398 63.0748 103.431 63.091 103.466 63.1063C103.606 63.1662 103.763 63.2 103.925 63.2C103.953 63.2 103.98 63.199 104.006 63.1972L103.644 62.9485L103.369 63.0585ZM87.9821 75.079L87.995 76.28L87.9796 75.0791M77.1714 54.9747C81.5116 46.1445 88.5365 41.16 94.235 41.16C95.5395 41.16 96.8198 41.3447 98.0443 42.0733C100.409 43.4261 102.281 44.8813 103.633 46.8131C103.642 46.8255 103.651 46.838 103.659 46.8506C104.404 47.9673 104.795 49.5759 104.795 50.92C104.795 53.9212 103.193 57.6556 100.78 60.5902C98.3482 63.5476 94.7354 66.12 90.395 66.12C88.9479 66.12 87.513 65.8557 86.1184 65.3193C86.0359 65.9369 85.995 66.5329 85.995 67.08C85.995 68.6029 86.3118 69.6989 86.7128 70.3429C87.0739 70.9228 87.4424 71.08 87.835 71.08C90.2182 71.08 92.6351 69.9125 94.9616 67.9661C97.2718 66.0332 99.3089 63.4828 100.887 61.0968C100.893 61.0868 100.9 61.0768 100.907 61.0669C101.429 60.3072 102.431 59.2 103.925 59.2C105.649 59.2 106.564 60.5962 106.972 61.6172C106.986 61.6536 107 61.6904 107.012 61.7275C107.261 62.4721 107.322 63.5641 107.166 64.694C107.002 65.8824 106.573 67.2992 105.659 68.6694L105.642 68.6942C101.945 74.0635 94.9627 78.1908 88.0206 78.2798L88.0165 78.2799C83.8373 78.3248 80.3993 76.966 78.0095 74.5026C75.6345 72.0546 74.475 68.702 74.475 65.08C74.475 61.835 75.3738 58.4067 77.1714 54.9747ZM89.6085 56.7641C90.4945 56.0308 91.3761 55.0634 92.0679 54.1295L92.0701 54.1266C92.6313 53.3718 93.1473 52.5827 93.5876 51.8237C92.3262 53.073 90.9257 54.7527 89.6085 56.7641Z" fill="#07090D"/>
<path fill-rule="evenodd" clip-rule="evenodd" d="M68.61 45.16C65.0338 45.16 59.1063 48.6462 55.1256 56.7608C55.1208 56.7705 55.116 56.7801 55.1112 56.7896C55.1077 56.7963 55.1043 56.803 55.1008 56.8097C53.5469 59.7695 52.85 62.5727 52.85 65.08C52.85 67.858 53.7304 70.1454 55.2555 71.7174C56.1581 72.6478 57.3508 73.3941 58.8607 73.8364C58.4071 73.4448 58.0159 72.977 57.6922 72.4571C56.7731 70.9811 56.37 69.077 56.37 67.08C56.37 65.4369 56.6409 63.5635 57.1743 61.7853C57.3555 61.1814 57.8108 60.6983 58.4028 60.4817C58.4511 60.4641 58.4999 60.4483 58.5489 60.4345C58.1594 59.8534 58.0899 59.088 58.4211 58.4256C60.4421 54.3836 63.0153 51.0627 65.2828 48.8489C66.408 47.7504 67.5196 46.8639 68.5079 46.3059C68.9934 46.0318 69.5469 45.7806 70.1216 45.6663C70.2433 45.6421 70.3861 45.6204 70.5439 45.609C70.5021 45.5849 70.4601 45.5607 70.4177 45.5365C70.4054 45.5294 70.3931 45.5223 70.381 45.515C70.0115 45.2933 69.5385 45.16 68.61 45.16ZM73.296 47.5239C73.3175 47.6029 73.3348 47.6794 73.3486 47.7523C73.4375 48.2204 73.4129 48.6748 73.3608 49.0484C73.2564 49.7979 72.983 50.6156 72.6523 51.3984C71.98 52.9894 70.8941 54.8466 69.6563 56.5115C68.7763 57.6993 67.6221 58.9706 66.3846 59.9675C65.3906 60.7683 64.0765 61.6112 62.6547 61.8272C63.3637 62.0266 64.0702 62.12 64.77 62.12C67.4696 62.12 70.0568 60.4923 72.0651 58.0498C74.0923 55.5843 75.17 52.7188 75.17 50.92C75.17 50.1951 74.9288 49.4165 74.7157 49.0843C74.3329 48.5417 73.869 48.0285 73.296 47.5239ZM62.3571 75.079C65.817 75.0346 68.9276 73.4265 71.5103 71.3559C73.5973 70.0241 75.413 68.3236 76.7138 66.4386C76.7112 66.4426 76.7085 66.4466 76.7059 66.4506L78.3699 67.5599L76.7227 66.4258C76.7197 66.4301 76.7168 66.4344 76.7138 66.4386C77.0162 65.9825 77.2269 65.5155 77.369 65.0693C77.8024 64.4778 78.2088 63.8914 78.5868 63.3205C78.7171 63.1332 78.7962 63.0711 78.7958 63.0714C78.7954 63.0718 78.6684 63.1653 78.431 63.1926L78.0456 62.9377L79.49 62.36L77.9488 62.8737L76.93 62.2L77.9226 62.8824L77.626 62.9813C77.6035 62.9639 77.5851 62.9479 77.5707 62.9343C77.5427 62.9078 77.5303 62.8915 77.5302 62.8916C77.5299 62.8918 77.5552 62.9265 77.5956 63.015C77.6107 63.1134 77.6659 63.5162 77.5788 64.146C77.5389 64.4348 77.4719 64.7466 77.369 65.0693C75.8522 67.1401 74.0063 69.2745 71.9033 71.0339C71.7737 71.1424 71.6427 71.2498 71.5103 71.3559C68.7431 73.1217 65.4988 74.2395 62.3451 74.2801C62.3449 74.2801 62.3446 74.2802 62.3443 74.2802L62.3546 75.0791M77.7437 63.0585C77.7731 63.0748 77.8055 63.091 77.8413 63.1063C77.9806 63.1662 78.1384 63.2 78.3 63.2C78.328 63.2 78.3548 63.199 78.3805 63.1972L78.0187 62.9485L77.7437 63.0585ZM62.3571 75.079L62.37 76.28L62.3546 75.0791M51.5464 54.9746C55.8866 46.1445 62.9115 41.16 68.61 41.16C69.9144 41.16 71.1947 41.3447 72.4192 42.0732C74.7835 43.4261 76.6562 44.8813 78.0084 46.8131C78.0171 46.8255 78.0257 46.838 78.0341 46.8506C78.7786 47.9673 79.17 49.5759 79.17 50.92C79.17 53.9212 77.5677 57.6556 75.1548 60.5902C72.7232 63.5476 69.1104 66.12 64.77 66.12C63.3229 66.12 61.888 65.8557 60.4934 65.3193C60.4109 65.9369 60.37 66.5329 60.37 67.08C60.37 68.6029 60.6868 69.6989 61.0878 70.3429C61.4489 70.9228 61.8174 71.08 62.21 71.08C64.5932 71.08 67.0101 69.9125 69.3366 67.9661C71.6468 66.0332 73.6839 63.4828 75.2617 61.0968C75.2684 61.0868 75.2751 61.0768 75.2819 61.0669C75.8042 60.3072 76.8061 59.2 78.3 59.2C80.0237 59.2 80.9385 60.5962 81.3469 61.6172C81.3615 61.6536 81.375 61.6904 81.3873 61.7275C81.6355 62.4721 81.6974 63.5641 81.5411 64.694C81.3768 65.8824 80.9475 67.2992 80.0341 68.6694L80.0173 68.6942C76.3204 74.0635 69.3377 78.1908 62.3956 78.2798L62.3915 78.2799C58.2123 78.3248 54.7743 76.966 52.3845 74.5026C50.0095 72.0546 48.85 68.702 48.85 65.08C48.85 61.8349 49.7488 58.4067 51.5464 54.9746ZM63.9835 56.7641C64.8695 56.0308 65.7511 55.0634 66.4429 54.1295L66.4451 54.1266C67.0063 53.3718 67.5223 52.5827 67.9626 51.8237C66.7012 53.073 65.3007 54.7527 63.9835 56.7641Z" fill="#07090D"/>
<path fill-rule="evenodd" clip-rule="evenodd" d="M67.6286 27.1266C67.6286 27.1266 67.6281 27.127 67.6271 27.1278C67.628 27.127 67.6286 27.1266 67.6286 27.1266ZM66.7774 28.1097C59.5625 36.3484 49.7227 44.1411 40.8048 51.0602C40.0561 51.641 39.0026 51.6168 38.2815 51.0022C37.5603 50.3875 37.3694 49.3512 37.8242 48.52C39.0529 46.2745 39.8299 44.9146 40.752 43.3006C41.56 41.8865 42.4793 40.2774 43.9116 37.7066L43.9199 37.692C45.7622 34.4495 46.2188 31.9074 46.2188 30.2C46.2188 29.2613 45.9511 28.3606 45.6403 27.7467C43.2902 31.0446 38.765 39.239 34.5207 47.568C30.2538 55.9416 26.4601 64.082 25.5044 67.2218C25.0585 68.9402 24.8588 70.3509 24.8588 71.48C24.8588 72.4645 25.0645 73.2498 25.3836 73.9326C27.651 68.5247 30.1288 63.3537 32.6015 58.5627C32.924 57.938 33.5507 57.5284 34.2523 57.484C34.9539 57.4395 35.6274 57.7667 36.0261 58.3458C39.3599 63.1879 42.3714 68.3976 45.2836 73.9577C45.6688 73.2948 45.9788 72.3881 45.9788 71.48C45.9788 70.5366 45.6643 68.8971 44.947 67.1638C44.034 65.1959 41.9426 61.5473 39.6367 57.8102C39.0859 56.9176 39.3183 55.751 40.1692 55.1376C45.2799 51.4531 50.5104 47.2923 54.8813 43.4653C59.2952 39.6006 62.6994 36.1909 64.2731 33.995L64.2911 33.9703C66.3029 31.2516 66.772 29.2662 66.7774 28.1097ZM70.4313 25.8731C70.0742 24.8124 69.2989 23.6634 67.9237 23.3272C66.4826 22.9749 65.2666 23.7206 64.5331 24.5868M70.4313 25.8731C71.2854 28.3339 70.6773 32.0592 67.5155 36.3375C65.6463 38.9408 61.9353 42.6056 57.5163 46.4747C53.475 50.0131 48.7303 53.8181 44.0071 57.291C45.9593 60.5174 47.7214 63.6298 48.5947 65.5219C48.6052 65.5446 48.6153 65.5676 48.6249 65.5908C49.4974 67.6848 49.9788 69.8696 49.9788 71.48C49.9788 73.5609 49.1689 75.4853 48.2319 76.7425C47.5974 77.621 46.5316 78.4564 45.1403 78.4296C43.6499 78.401 42.5784 77.4096 41.9689 76.2515L41.9652 76.2443C39.5961 71.6983 37.1871 67.4333 34.6126 63.4391C32.597 67.4826 30.6152 71.7513 28.7865 76.1655L28.7821 76.1761L28.782 76.1761C28.3937 77.0985 27.5988 78.3923 26.0873 78.6757C24.4707 78.9789 23.2596 77.9273 22.5601 77.0279C22.5233 76.9807 22.4888 76.9318 22.4564 76.8815C21.5725 75.5065 20.8588 73.7766 20.8588 71.48C20.8588 69.8971 21.1362 68.12 21.6435 66.1751C21.6498 66.151 21.6566 66.127 21.6637 66.1032C22.7258 62.5771 26.7197 54.067 30.9568 45.7519C35.2063 37.4125 39.8913 28.8968 42.4339 25.3539C42.4421 25.3425 42.4504 25.3312 42.4588 25.32C43.1294 24.4258 44.2546 23.2833 45.8697 23.3731C47.4642 23.4617 48.4638 24.6977 49.0393 25.6273C49.0586 25.6584 49.077 25.6901 49.0946 25.7223C49.7201 26.8691 50.2188 28.4759 50.2188 30.2C50.2188 32.651 49.5562 35.8662 47.402 39.6604C46.993 40.3945 46.6274 41.0476 46.2957 41.6375C53.0168 36.2074 59.5338 30.4846 64.532 24.5881" fill="#07090D"/>
<path d="M212.952 64.24C212.952 62.48 213.432 60.24 214.552 57.6C216.152 53.68 219.192 47.36 222.392 41.6C219.912 41.28 218.472 40.4 217.832 39.44C216.712 37.76 217.512 36.96 219.352 37.04C221.192 37.12 223.352 37.04 225.112 36.88C227.592 32.56 229.272 29.92 231.112 27.28C232.312 25.52 233.272 25.6 234.152 27.12C234.712 28.08 235.032 29.44 235.032 30.4C235.032 31.84 234.712 33.68 233.752 35.92C236.232 36.24 237.592 37.52 238.152 38.48C238.952 39.92 238.392 40.88 236.472 40.64C235.032 40.48 232.952 40.64 231.192 40.88C228.152 46.08 223.592 54 220.792 60.08C219.832 62.24 219.352 64.32 219.352 66.08C219.352 68.48 220.152 70.16 221.512 70.16C224.632 70.16 228.792 65.12 231.592 59.12C232.472 57.2 234.312 57.04 234.872 59.2C235.272 60.88 234.952 62.08 234.072 63.92C232.952 66.32 227.592 73.2 220.872 73.2C216.632 73.2 212.952 69.76 212.952 64.24Z" fill="#07090D"/>
<path d="M209.818 36.72C209.818 34.48 211.498 32.4 213.338 32.4C215.578 32.4 217.738 35.28 217.738 37.6C217.738 39.76 216.538 41.6 214.538 41.6C211.978 41.6 209.818 39.2 209.818 36.72ZM215.738 64.8C213.338 69.84 207.818 73.2 203.098 73.2C198.218 73.2 196.058 70.4 196.058 66.4C196.058 64.88 196.378 63.2 197.018 61.12C199.018 55.52 204.138 46.24 207.098 42.08C208.298 40.48 209.258 40.32 210.298 41.52C211.818 43.12 212.458 46.56 210.378 50.56C208.858 54 205.178 60 203.818 63.2C203.098 65.04 202.698 66.72 202.698 68C202.698 69.28 203.018 70 203.898 70C207.098 70 211.258 64.64 213.738 59.2C214.378 57.76 215.418 57.92 216.138 59.36C216.858 60.72 216.778 62.72 215.738 64.8Z" fill="#07090D"/>
<path d="M162.417 40.88C163.137 42.08 163.457 43.36 163.457 44.64C163.457 45.2 163.457 45.76 163.377 46.24C166.817 43.04 170.657 40.4 173.537 40.4C175.857 40.4 178.017 43.2 178.017 46.24C178.017 48 176.577 50.56 174.017 55.04C171.457 59.12 168.737 64.4 168.737 67.36C168.737 69.04 169.297 70.08 170.337 70.08C173.057 70.08 177.217 64.88 180.097 59.52C180.897 58 182.017 58.08 182.737 59.2C183.377 60.16 183.457 62.64 182.337 64.8C180.097 69.2 174.257 73.44 169.457 73.44C164.097 73.44 161.777 70.72 161.777 66.56C161.777 62.24 165.457 54.88 168.577 49.92C170.257 47.28 171.537 45.2 170.977 45.2C170.257 45.2 166.337 47.44 161.937 52.4C157.537 57.04 153.937 64.88 150.657 72.08C150.097 73.36 149.057 73.84 147.777 72.56C146.657 71.44 146.017 70.08 146.017 68.16C146.017 66.96 146.257 65.6 146.737 64C148.257 59.52 154.417 48.32 159.377 40.88C160.417 39.36 161.617 39.44 162.417 40.88Z" fill="#07090D"/>
<path d="M145.443 36.72C145.443 34.48 147.123 32.4 148.963 32.4C151.203 32.4 153.363 35.28 153.363 37.6C153.363 39.76 152.163 41.6 150.163 41.6C147.603 41.6 145.443 39.2 145.443 36.72ZM151.363 64.8C148.963 69.84 143.443 73.2 138.723 73.2C133.843 73.2 131.683 70.4 131.683 66.4C131.683 64.88 132.003 63.2 132.643 61.12C134.643 55.52 139.763 46.24 142.723 42.08C143.923 40.48 144.883 40.32 145.923 41.52C147.443 43.12 148.083 46.56 146.003 50.56C144.483 54 140.803 60 139.443 63.2C138.723 65.04 138.323 66.72 138.323 68C138.323 69.28 138.643 70 139.523 70C142.723 70 146.883 64.64 149.363 59.2C150.003 57.76 151.043 57.92 151.763 59.36C152.483 60.72 152.403 62.72 151.363 64.8Z" fill="#07090D"/>
<path d="M114.42 53.2L111.86 57.52C109.38 62.64 109.94 68.4 112.02 68.4C114.5 68.4 118.1 64 121.38 57.36C123.3 53.6 124.26 49.52 124.26 46.88C124.26 45.44 124.1 44.48 123.7 44.32C122.26 43.68 117.86 47.36 114.42 53.2ZM131.06 49.28C131.06 52.72 129.78 56.8 127.94 60.64C126.02 65.04 123.38 68.64 120.82 70.72C126.74 69.52 131.3 64.24 133.62 59.6C134.58 57.76 136.26 58.16 136.58 59.76C136.74 60.56 136.82 62.8 135.46 65.2C131.86 71.68 125.14 73.92 118.5 73.92C112.18 73.92 108.26 71.76 106.42 67.44C102.9 74 99.46 80.88 96.1 88.72C95.46 90.16 94.5 90.48 93.7 89.52C92.5 88 92.1 86.88 92.1 85.2C92.1 83.92 92.34 82.24 93.06 80C95.38 72.4 108.58 47.52 113.54 40.88C114.98 39.12 116.02 39.44 116.66 40.32C117.3 41.2 117.46 42.24 117.46 43.28C119.46 41.92 121.78 40.88 123.94 40.88C128.74 40.88 131.06 45.2 131.06 49.28Z" fill="#07090D"/>
<path d="M96.795 44.72C95.595 43.76 89.675 48.64 85.835 56.32C86.475 56.72 87.035 56.88 87.595 56.88C89.515 56.88 92.075 54.48 93.675 52.32C95.995 49.2 97.675 45.44 96.795 44.72ZM102.795 47.92C102.795 52.72 97.435 61.12 90.395 61.12C88.475 61.12 86.555 60.56 84.715 59.36C84.235 60.96 83.995 62.64 83.995 64.08C83.995 67.6 85.435 70.08 87.835 70.08C93.915 70.08 99.275 64.16 102.555 59.2C103.435 57.92 104.475 57.76 105.115 59.36C105.355 60.08 105.435 62.4 103.995 64.56C100.635 69.44 94.235 73.2 87.995 73.28C80.555 73.36 76.475 68.48 76.475 62.08C76.475 59.2 77.275 56.08 78.955 52.88C83.115 44.4 89.595 40.16 94.235 40.16C95.355 40.16 96.235 40.32 97.035 40.8C99.275 42.08 100.875 43.36 101.995 44.96C102.475 45.68 102.795 46.88 102.795 47.92Z" fill="#07090D"/>
<path d="M71.17 44.72C69.97 43.76 64.05 48.64 60.21 56.32C60.85 56.72 61.41 56.88 61.97 56.88C63.89 56.88 66.45 54.48 68.05 52.32C70.37 49.2 72.05 45.44 71.17 44.72ZM77.17 47.92C77.17 52.72 71.81 61.12 64.77 61.12C62.85 61.12 60.93 60.56 59.09 59.36C58.61 60.96 58.37 62.64 58.37 64.08C58.37 67.6 59.81 70.08 62.21 70.08C68.29 70.08 73.65 64.16 76.93 59.2C77.81 57.92 78.85 57.76 79.49 59.36C79.73 60.08 79.81 62.4 78.37 64.56C75.01 69.44 68.61 73.2 62.37 73.28C54.93 73.36 50.85 68.48 50.85 62.08C50.85 59.2 51.65 56.08 53.33 52.88C57.49 44.4 63.97 40.16 68.61 40.16C69.73 40.16 70.61 40.32 71.41 40.8C73.65 42.08 75.25 43.36 76.37 44.96C76.85 45.68 77.17 46.88 77.17 47.92Z" fill="#07090D"/>
<path d="M46.6188 72.56C45.8188 73.68 44.5388 73.84 43.7388 72.32C40.7788 66.64 37.7388 61.36 34.3788 56.48C31.8188 61.44 29.2588 66.8 26.9388 72.4C26.2988 73.92 25.2588 74.24 24.1388 72.8C23.4188 71.68 22.8588 70.32 22.8588 68.48C22.8588 67.12 23.0988 65.52 23.5788 63.68C25.5788 57.04 39.1788 30.32 44.0588 23.52C45.2588 21.92 46.2988 22 47.3388 23.68C47.8188 24.56 48.2188 25.84 48.2188 27.2C48.2188 29.28 47.6588 32.16 45.6588 35.68C42.5388 41.28 41.8988 42.24 39.5788 46.48C48.8588 39.28 58.9388 31.28 66.0588 22.88C66.9388 21.84 68.0588 22.08 68.5388 23.52C69.0988 25.12 68.8588 28.16 65.8988 32.16C62.4588 36.96 51.6588 46.32 41.3388 53.76C43.6588 57.52 45.8188 61.28 46.7788 63.36C47.5788 65.28 47.9788 67.2 47.9788 68.48C47.9788 70.08 47.3388 71.6 46.6188 72.56Z" fill="#07090D"/>
<path fill-rule="evenodd" clip-rule="evenodd" d="M232.643 28.5808C230.885 31.112 229.254 33.6821 226.846 37.8757C226.522 38.4411 225.942 38.8128 225.293 38.8718C223.846 39.0033 222.137 39.0837 220.523 39.0698C221.008 39.2871 221.694 39.4933 222.648 39.6164C223.305 39.7013 223.878 40.1065 224.177 40.6983C224.476 41.2902 224.462 41.9917 224.14 42.5713C220.97 48.2769 217.967 54.5243 216.404 58.3558L216.393 58.3811C215.344 60.8532 214.952 62.8228 214.952 64.24C214.952 67.644 216.585 69.8544 218.67 70.7488C218.462 70.4905 218.287 70.2138 218.143 69.9341C217.576 68.8312 217.352 67.4621 217.352 66.08C217.352 63.978 217.919 61.6198 218.964 59.2677L218.975 59.2434C221.823 53.0608 226.432 45.0585 229.465 39.8706C229.776 39.3399 230.313 38.9814 230.922 38.8983C232.318 38.7079 234.011 38.5505 235.494 38.5792C235.029 38.2845 234.38 38.0176 233.496 37.9035C232.874 37.8233 232.326 37.4561 232.015 36.9117C231.704 36.3672 231.667 35.7084 231.914 35.1322C232.78 33.1112 233.032 31.5384 233.032 30.4C233.032 29.9009 232.884 29.1743 232.643 28.5808ZM228.84 67.4239C230.661 65.7032 231.875 63.8979 232.26 63.0742L232.268 63.0571C232.769 62.0079 232.999 61.3428 233.037 60.7325C231.818 63.2134 230.371 65.5382 228.84 67.4239ZM235.879 26.1123C235.397 25.2809 234.409 23.9364 232.712 23.9704C231.892 23.9868 231.221 24.3395 230.726 24.7321C230.241 25.1175 229.826 25.6162 229.466 26.1443C227.723 28.6449 226.125 31.1415 223.906 34.9685C222.448 35.0655 220.835 35.1026 219.439 35.0419C218.846 35.0161 218.221 35.054 217.633 35.2214C217.049 35.3876 216.356 35.7261 215.863 36.4061C214.769 37.914 215.534 39.5986 216.168 40.5494C216.86 41.5883 217.964 42.3887 219.391 42.9258C216.639 48.0632 214.129 53.3455 212.705 56.8315C211.518 59.6343 210.952 62.1404 210.952 64.24C210.952 70.7368 215.404 75.2 220.872 75.2C224.913 75.2 228.385 73.145 230.885 70.9684C233.377 68.7988 235.181 66.267 235.88 64.7744C236.845 62.7548 237.37 61.0554 236.818 58.7368C236.814 58.7238 236.811 58.7109 236.808 58.6981C236.409 57.1581 235.266 55.5998 233.321 55.6302C231.595 55.6572 230.381 56.9663 229.777 58.2802C228.438 61.1467 226.798 63.7312 225.175 65.564C224.362 66.4818 223.596 67.1627 222.921 67.6011C222.388 67.9469 221.989 68.0918 221.719 68.1399C221.713 68.1294 221.707 68.1181 221.701 68.1059C221.528 67.7688 221.352 67.0979 221.352 66.08C221.352 64.6649 221.743 62.8676 222.614 60.9044C225.221 55.2471 229.398 47.9275 232.42 42.744C233.847 42.588 235.272 42.5208 236.24 42.6265C237.358 42.7637 239 42.6882 239.957 41.3564C240.946 39.9784 240.398 38.4054 239.9 37.5087C239.893 37.4965 239.887 37.4843 239.879 37.4722C239.259 36.4085 238.113 35.265 236.378 34.5523C236.845 32.995 237.032 31.6093 237.032 30.4C237.032 29.1168 236.633 27.4037 235.879 26.1123Z" fill="#07090D"/>
<path fill-rule="evenodd" clip-rule="evenodd" d="M212.44 34.9812C212.064 35.4447 211.818 36.0844 211.818 36.72C211.818 38.2034 213.188 39.6 214.538 39.6C214.852 39.6 215.082 39.4834 215.291 39.2065C215.531 38.8871 215.738 38.333 215.738 37.6C215.738 37.001 215.428 36.1323 214.825 35.3906C214.202 34.623 213.615 34.4 213.338 34.4C213.188 34.4 212.83 34.501 212.44 34.9812ZM209.336 32.4588C210.246 31.3389 211.648 30.4 213.338 30.4C215.301 30.4 216.914 31.617 217.931 32.8694C218.969 34.1477 219.738 35.8789 219.738 37.6C219.738 39.027 219.345 40.4729 218.485 41.6135C217.594 42.7966 216.224 43.6 214.538 43.6C214.176 43.6 213.822 43.5686 213.477 43.5089C213.99 45.7913 213.64 48.5927 212.182 51.4255C211.398 53.1885 210.112 55.5295 208.893 57.747L208.791 57.933C207.498 60.2869 206.304 62.4709 205.67 63.9556C205.053 65.5394 204.748 66.8559 204.704 67.7732C204.886 67.6867 205.093 67.5701 205.325 67.4148C206.009 66.9576 206.775 66.2552 207.576 65.3304C209.175 63.4848 210.737 60.9599 211.913 58.381C212.343 57.4192 213.343 56.0458 215.093 56.2086C216.595 56.3483 217.478 57.576 217.917 58.4454C219.022 60.5544 218.744 63.2505 217.536 65.6766C214.816 71.3708 208.62 75.2 203.098 75.2C200.275 75.2 197.931 74.381 196.304 72.6838C194.693 71.003 194.058 68.7429 194.058 66.4C194.058 64.6022 194.437 62.7092 195.107 60.5318C195.115 60.5034 195.125 60.4753 195.135 60.4473C197.207 54.6453 202.421 45.2032 205.469 40.9205C205.478 40.9069 205.488 40.8934 205.498 40.88C206.108 40.0665 206.976 39.1325 208.175 38.8306C207.943 38.1496 207.818 37.4363 207.818 36.72C207.818 35.1155 208.412 33.5953 209.336 32.4588ZM208.713 43.2608C205.845 47.2984 200.852 56.3571 198.917 61.7508C198.316 63.7118 198.058 65.1667 198.058 66.4C198.058 68.0571 198.503 69.197 199.192 69.9162C199.694 70.4403 200.476 70.8967 201.694 71.0949C201.503 70.8964 201.347 70.679 201.222 70.4556C200.775 69.655 200.698 68.7281 200.698 68C200.698 66.3654 201.193 64.4196 201.956 62.4712C201.963 62.4533 201.97 62.4354 201.977 62.4177C202.706 60.7029 204.026 58.299 205.285 56.007L205.317 55.95C206.604 53.6064 207.838 51.3603 208.549 49.7517C208.566 49.713 208.584 49.6748 208.604 49.6373C210.356 46.2675 209.66 43.8722 208.93 42.9902C208.866 43.0649 208.793 43.1543 208.713 43.2608ZM209.871 68.7496C211.551 67.5185 213.011 65.8753 213.932 63.9401C213.938 63.9286 213.944 63.917 213.949 63.9056C214.298 63.2087 214.485 62.5831 214.564 62.0454C213.418 64.2039 212.051 66.2749 210.6 67.9496C210.362 68.2244 210.118 68.4918 209.871 68.7496Z" fill="#07090D"/>
<path fill-rule="evenodd" clip-rule="evenodd" d="M160.881 42.2306C158.479 45.8528 155.798 50.3534 153.521 54.5108C151.183 58.7791 149.349 62.5448 148.642 64.6093C148.203 66.0806 148.017 67.2268 148.017 68.16C148.017 69.4108 148.364 70.228 148.984 70.9268C152.176 63.9221 155.864 55.9117 160.462 51.0483C161.397 49.9963 162.313 49.0585 163.189 48.2312C162.928 48.2067 162.67 48.1308 162.43 48.0015C161.676 47.5961 161.263 46.7557 161.404 45.9112C161.451 45.627 161.457 45.2452 161.457 44.64C161.457 43.818 161.279 43.0074 160.881 42.2306ZM170.835 43.2044C170.882 43.2015 170.929 43.2 170.977 43.2C171.317 43.2 171.808 43.2812 172.268 43.6294C172.737 43.9844 172.955 44.4515 173.045 44.8152C173.194 45.4172 173.047 45.9433 172.997 46.1157C172.865 46.5805 172.609 47.0901 172.376 47.5219C171.876 48.4454 171.096 49.6868 170.266 50.9913C168.749 53.4034 167.101 56.3919 165.84 59.2803C164.546 62.242 163.777 64.8395 163.777 66.56C163.777 68.2767 164.249 69.4038 164.992 70.1172C165.614 70.7148 166.639 71.2261 168.304 71.3873C167.942 71.1029 167.642 70.7461 167.413 70.3462C166.898 69.4503 166.737 68.3737 166.737 67.36C166.737 65.4159 167.586 63.0154 168.596 60.7924C169.638 58.5005 170.996 56.0939 172.301 54.0122C173.583 51.7687 174.535 50.0895 175.173 48.7562C175.836 47.3711 176.017 46.6395 176.017 46.24C176.017 45.1761 175.632 44.1416 175.061 43.3987C174.469 42.628 173.876 42.4 173.537 42.4C172.86 42.4 171.951 42.6502 170.835 43.2044ZM175.752 69.1024C177.866 67.6418 179.62 65.7277 180.555 63.8926L180.561 63.8794C180.936 63.1564 181.132 62.3728 181.186 61.6763C179.829 64.0382 178.251 66.3282 176.656 68.134C176.359 68.4696 176.058 68.7939 175.752 69.1024ZM165.118 42.1386C165.951 41.5016 166.793 40.9166 167.631 40.4093C169.488 39.2842 171.549 38.4 173.537 38.4C175.518 38.4 177.165 39.572 178.233 40.9613C179.322 42.3784 180.017 44.2639 180.017 46.24C180.017 47.6005 179.477 49.0288 178.781 50.4838C178.063 51.9835 177.021 53.8135 175.753 56.0323C175.743 56.0497 175.733 56.0669 175.723 56.084C175.719 56.0904 175.715 56.0967 175.711 56.103C174.462 58.0932 173.19 60.3524 172.238 62.4476C171.248 64.6245 170.737 66.3441 170.737 67.36C170.737 67.5952 170.752 67.79 170.775 67.9469C170.95 67.8672 171.177 67.7414 171.459 67.5443C172.101 67.0953 172.849 66.4019 173.658 65.486C175.27 63.6607 176.945 61.1595 178.331 58.5806C178.877 57.5481 179.844 56.4682 181.319 56.3741C182.803 56.2794 183.849 57.2373 184.411 58.106C185.063 59.0946 185.242 60.4463 185.195 61.6291C185.145 62.9017 184.821 64.3505 184.116 65.7134C182.814 68.2676 180.542 70.6621 177.99 72.4177C175.451 74.1648 172.399 75.44 169.457 75.44C166.46 75.44 163.967 74.6779 162.222 73.0028C160.465 71.3162 159.777 69.0033 159.777 66.56C159.777 63.9605 160.847 60.718 162.174 57.6796C163.001 55.7847 163.975 53.8675 164.972 52.0825C164.47 52.59 163.956 53.1379 163.433 53.7272C163.418 53.7438 163.403 53.7601 163.388 53.7762C159.271 58.1177 155.81 65.5926 152.483 72.8964C152.093 73.7793 151.327 74.8883 149.963 75.2226C148.501 75.5806 147.238 74.8493 146.363 73.9742C144.872 72.4834 144.017 70.6164 144.017 68.16C144.017 66.7005 144.308 65.1373 144.821 63.4253C144.828 63.4025 144.835 63.3799 144.843 63.3574C145.665 60.9345 147.663 56.8778 150.013 52.5891C152.385 48.2594 155.194 43.5482 157.713 39.7706L157.726 39.7506C158.4 38.7658 159.5 37.7416 161.025 37.7703C162.572 37.7995 163.589 38.8862 164.148 39.878C164.584 40.6105 164.904 41.3687 165.118 42.1386ZM171.338 47.1528C171.338 47.1534 171.328 47.1568 171.31 47.1616C171.33 47.1546 171.339 47.1522 171.338 47.1528Z" fill="#07090D"/>
<path fill-rule="evenodd" clip-rule="evenodd" d="M148.065 34.9812C147.689 35.4447 147.443 36.0844 147.443 36.72C147.443 38.2034 148.813 39.6 150.163 39.6C150.477 39.6 150.707 39.4834 150.916 39.2065C151.156 38.8871 151.363 38.333 151.363 37.6C151.363 37.001 151.053 36.1323 150.45 35.3906C149.827 34.623 149.24 34.4 148.963 34.4C148.813 34.4 148.455 34.501 148.065 34.9812ZM144.961 32.4588C145.871 31.3389 147.273 30.4 148.963 30.4C150.926 30.4 152.539 31.617 153.556 32.8694C154.594 34.1477 155.363 35.8789 155.363 37.6C155.363 39.027 154.97 40.4729 154.11 41.6135C153.219 42.7966 151.849 43.6 150.163 43.6C149.801 43.6 149.447 43.5686 149.102 43.5089C149.615 45.7914 149.265 48.5927 147.807 51.4256C147.023 53.1883 145.737 55.529 144.519 57.7462L144.416 57.933C143.123 60.2871 141.929 62.4713 141.295 63.956C140.678 65.5396 140.373 66.856 140.329 67.7732C140.511 67.6867 140.718 67.5701 140.95 67.4148C141.634 66.9576 142.4 66.2552 143.201 65.3304C144.801 63.4842 146.363 60.958 147.54 58.3782C147.97 57.4166 148.97 56.0459 150.718 56.2086C152.22 56.3483 153.103 57.576 153.542 58.4454C154.647 60.5544 154.369 63.2505 153.161 65.6766C150.441 71.3708 144.245 75.2 138.723 75.2C135.9 75.2 133.556 74.381 131.929 72.6838C130.318 71.003 129.683 68.7429 129.683 66.4C129.683 64.6022 130.062 62.7092 130.732 60.5318C130.74 60.5034 130.75 60.4753 130.76 60.4473C132.832 54.6453 138.046 45.2032 141.094 40.9205C141.103 40.9069 141.113 40.8934 141.123 40.88C141.733 40.0665 142.601 39.1325 143.8 38.8306C143.568 38.1496 143.443 37.4363 143.443 36.72C143.443 35.1155 144.037 33.5953 144.961 32.4588ZM144.337 43.261C141.47 47.2986 136.477 56.3573 134.542 61.7509C133.941 63.7119 133.683 65.1667 133.683 66.4C133.683 68.0571 134.128 69.197 134.817 69.9162C135.319 70.4403 136.101 70.8967 137.319 71.0949C137.128 70.8964 136.972 70.679 136.847 70.4556C136.4 69.655 136.323 68.7281 136.323 68C136.323 66.3654 136.818 64.4196 137.581 62.4712C137.588 62.4533 137.595 62.4354 137.602 62.4177C138.331 60.7029 139.651 58.299 140.91 56.007L140.942 55.9491C142.229 53.6059 143.463 51.3601 144.174 49.7517C144.191 49.713 144.209 49.6748 144.229 49.6373C145.981 46.2675 145.285 43.8722 144.555 42.9902C144.491 43.0649 144.418 43.1544 144.337 43.261ZM145.496 68.7496C147.176 67.5185 148.636 65.8753 149.557 63.9401C149.563 63.9286 149.569 63.917 149.574 63.9056C149.923 63.2087 150.11 62.5831 150.189 62.0454C149.043 64.2039 147.676 66.2749 146.225 67.9496C145.987 68.2244 145.743 68.4918 145.496 68.7496Z" fill="#07090D"/>
<path fill-rule="evenodd" clip-rule="evenodd" d="M115.114 42.1143C112.734 45.3143 108.279 53.0319 104.08 61.0114C99.854 69.0415 96.0684 76.9951 94.9728 80.5839L94.964 80.612C94.2926 82.7008 94.1 84.1716 94.1 85.2C94.1 85.8716 94.1787 86.3261 94.3271 86.7299C94.3855 86.8886 94.4606 87.0558 94.5602 87.2386C97.854 79.6185 101.222 72.8976 104.658 66.4944C105.021 65.8166 105.741 65.4075 106.51 65.442C107.278 65.4765 107.959 65.9486 108.26 66.6563C108.373 66.9216 108.495 67.1755 108.625 67.4184C108.389 66.6566 108.268 65.8134 108.232 64.9665C108.127 62.5489 108.679 59.5002 110.06 56.6481C110.084 56.5978 110.111 56.5485 110.139 56.5004L112.697 52.1849C112.697 52.184 112.698 52.183 112.698 52.1821C114.401 49.2926 116.345 46.8725 118.129 45.165C117.608 45.3496 117.026 45.3131 116.524 45.0477C115.87 44.7011 115.46 44.0209 115.46 43.28C115.46 42.7015 115.397 42.2696 115.273 41.9328C115.224 41.9859 115.171 42.0461 115.114 42.1143ZM125.306 43.0572C125.5 43.266 125.635 43.4809 125.725 43.6515C125.919 44.0197 126.025 44.4038 126.089 44.7192C126.22 45.3563 126.26 46.1141 126.26 46.88C126.26 49.8902 125.199 54.2747 123.167 58.2574C121.487 61.6578 119.687 64.5646 117.932 66.6558C117.055 67.7008 116.143 68.5972 115.214 69.2472C114.308 69.8818 113.216 70.4 112.02 70.4C111.79 70.4 111.574 70.3767 111.37 70.334C111.488 70.4052 111.608 70.4739 111.73 70.5402C113.348 71.4139 115.552 71.92 118.5 71.92C118.738 71.92 118.976 71.917 119.213 71.9108C119.136 71.8069 119.068 71.6944 119.011 71.574C118.618 70.7415 118.844 69.7483 119.559 69.1678C121.81 67.3384 124.279 64.0281 126.107 59.8401C126.112 59.8287 126.117 59.8173 126.122 59.8059C126.127 59.7958 126.132 59.7858 126.136 59.7758C127.919 56.056 129.06 52.2904 129.06 49.28C129.06 47.5848 128.572 45.925 127.694 44.7419C127.101 43.9434 126.322 43.3398 125.306 43.0572ZM126.737 70.415C129.605 69.2101 132.05 67.2203 133.712 64.2287L133.72 64.214C134.142 63.4685 134.384 62.7507 134.518 62.1279C132.741 65.1323 130.099 68.2871 126.737 70.415ZM129.048 63.0025C130.164 61.6363 131.105 60.1575 131.831 58.7056L131.847 58.6749C132.554 57.319 133.88 56.1993 135.58 56.4044C137.249 56.6058 138.262 57.9737 138.541 59.3678C138.781 60.5672 138.83 63.3046 137.204 66.1783C133.115 73.5311 125.535 75.92 118.5 75.92C115.128 75.92 112.212 75.3461 109.83 74.0598C108.552 73.3698 107.463 72.4935 106.56 71.4443C103.626 77.0485 100.753 82.9401 97.9383 89.5078L97.9276 89.5323C97.5243 90.4398 96.8094 91.5117 95.5924 91.9174C94.1259 92.4062 92.8852 91.6663 92.1635 90.8004C92.1522 90.7868 92.1411 90.7731 92.1302 90.7593C91.4514 89.8994 90.9199 89.0541 90.5728 88.1101C90.2213 87.1539 90.1 86.2084 90.1 85.2C90.1 83.6714 90.3862 81.7866 91.1514 79.402C92.3809 75.3856 96.3508 67.1092 100.54 59.1486C104.744 51.1593 109.351 43.1462 111.938 39.6831C111.955 39.6595 111.973 39.6363 111.992 39.6135C112.838 38.5792 113.927 37.6917 115.285 37.6133C116.757 37.5284 117.75 38.4184 118.277 39.1436C118.519 39.4755 118.713 39.8169 118.867 40.1609C120.453 39.4041 122.192 38.88 123.94 38.88C127.024 38.88 129.38 40.3022 130.906 42.3581C132.388 44.355 133.06 46.8952 133.06 49.28C133.06 53.1393 131.649 57.5205 129.759 61.4725C129.531 61.9921 129.294 62.5025 129.048 63.0025ZM95.2528 88.2579C95.2528 88.258 95.2519 88.2571 95.2501 88.2552C95.2518 88.2568 95.2527 88.2578 95.2528 88.2579ZM121.163 47.8032C119.615 49.2242 117.775 51.4443 116.143 54.2151L116.141 54.2196L113.625 58.465C112.553 60.7111 112.154 63.0698 112.228 64.7935C112.256 65.4488 112.35 65.9335 112.452 66.2546C112.579 66.1911 112.735 66.1002 112.921 65.9703C113.467 65.5878 114.125 64.9691 114.868 64.0842C116.351 62.3178 117.989 59.7089 119.587 56.4742L119.599 56.4504C121.4 52.9229 122.257 49.1605 122.26 46.8925C121.935 47.13 121.567 47.4318 121.163 47.8032Z" fill="#07090D"/>
<path fill-rule="evenodd" clip-rule="evenodd" d="M94.235 42.16C90.6588 42.16 84.7313 45.6462 80.7506 53.7608C80.7425 53.7772 80.7343 53.7935 80.7258 53.8097C79.1719 56.7695 78.475 59.5727 78.475 62.08C78.475 64.858 79.3554 67.1454 80.8805 68.7174C81.7831 69.6478 82.9758 70.3941 84.4857 70.8364C84.0321 70.4448 83.6409 69.977 83.3172 69.4571C82.3981 67.9811 81.995 66.077 81.995 64.08C81.995 62.4369 82.2659 60.5635 82.7993 58.7853C82.9805 58.1814 83.4358 57.6983 84.0278 57.4817C84.0761 57.4641 84.1249 57.4483 84.1739 57.4345C83.7844 56.8534 83.7149 56.088 84.0461 55.4256C86.0671 51.3836 88.6403 48.0627 90.9078 45.8489C92.033 44.7504 93.1446 43.8639 94.1329 43.3059C94.6184 43.0318 95.1719 42.7806 95.7466 42.6663C95.8683 42.6421 96.0111 42.6204 96.1689 42.609C96.1272 42.5849 96.0851 42.5607 96.0427 42.5365C96.0304 42.5294 96.0181 42.5223 96.006 42.515C95.6365 42.2933 95.1635 42.16 94.235 42.16ZM98.921 44.5239C98.9425 44.6029 98.9598 44.6794 98.9736 44.7523C99.0625 45.2204 99.0379 45.6748 98.9858 46.0484C98.8814 46.7979 98.6081 47.6156 98.2773 48.3984C97.605 49.9894 96.5191 51.8466 95.2813 53.5115C94.4013 54.6993 93.2471 55.9706 92.0096 56.9675C91.0156 57.7683 89.7015 58.6112 88.2797 58.8272C88.9887 59.0266 89.6952 59.12 90.395 59.12C93.0946 59.12 95.6818 57.4923 97.6901 55.0498C99.7173 52.5843 100.795 49.7188 100.795 47.92C100.795 47.1951 100.554 46.4165 100.341 46.0843C99.9579 45.5416 99.494 45.0285 98.921 44.5239ZM87.9821 72.079C91.442 72.0346 94.5526 70.4265 97.1353 68.3559C99.223 67.0237 101.039 65.3226 102.34 63.437C102.337 63.4415 102.334 63.4461 102.331 63.4506L103.995 64.5599L102.348 63.4258C102.345 63.4295 102.342 63.4333 102.34 63.437C102.642 62.9813 102.852 62.5149 102.994 62.0693C103.427 61.4778 103.834 60.8915 104.212 60.3206C104.34 60.1365 104.418 60.0733 104.421 60.0715L104.421 60.0714C104.42 60.0718 104.293 60.1653 104.056 60.1926L103.671 59.9377L105.115 59.36L103.574 59.8737L102.555 59.2L103.548 59.8824L103.251 59.9813C103.229 59.9639 103.21 59.9479 103.196 59.9343C103.168 59.9078 103.155 59.8915 103.155 59.8916C103.155 59.8918 103.18 59.9265 103.221 60.015C103.236 60.1134 103.291 60.5162 103.204 61.146C103.164 61.4348 103.097 61.7466 102.994 62.0693C101.477 64.1401 99.6313 66.2745 97.5284 68.0339C97.3987 68.1424 97.2677 68.2498 97.1353 68.3559C94.3681 70.1217 91.1238 71.2395 87.9701 71.2801C87.9699 71.2801 87.9696 71.2802 87.9693 71.2802L87.9796 72.0791M103.369 60.0585C103.398 60.0748 103.431 60.091 103.466 60.1063C103.606 60.1662 103.763 60.2 103.925 60.2C103.953 60.2 103.98 60.199 104.006 60.1972L103.644 59.9485L103.369 60.0585ZM87.9821 72.079L87.995 73.28L87.9796 72.0791M77.1714 51.9747C81.5116 43.1445 88.5365 38.16 94.235 38.16C95.5395 38.16 96.8198 38.3447 98.0443 39.0733C100.409 40.4261 102.281 41.8813 103.633 43.8131C103.642 43.8255 103.651 43.838 103.659 43.8506C104.404 44.9673 104.795 46.5759 104.795 47.92C104.795 50.9212 103.193 54.6556 100.78 57.5902C98.3482 60.5476 94.7354 63.12 90.395 63.12C88.9479 63.12 87.513 62.8557 86.1184 62.3193C86.0359 62.9369 85.995 63.5329 85.995 64.08C85.995 65.6029 86.3118 66.6989 86.7128 67.3429C87.0739 67.9228 87.4424 68.08 87.835 68.08C90.2182 68.08 92.6351 66.9125 94.9616 64.9661C97.2718 63.0332 99.3089 60.4828 100.887 58.0968C100.893 58.0868 100.9 58.0768 100.907 58.0669C101.429 57.3072 102.431 56.2 103.925 56.2C105.649 56.2 106.564 57.5962 106.972 58.6172C106.986 58.6536 107 58.6904 107.012 58.7275C107.261 59.4721 107.322 60.5641 107.166 61.694C107.002 62.8824 106.573 64.2992 105.659 65.6694L105.642 65.6942C101.945 71.0635 94.9627 75.1908 88.0206 75.2798L88.0165 75.2799C83.8373 75.3248 80.3993 73.966 78.0095 71.5026C75.6345 69.0546 74.475 65.702 74.475 62.08C74.475 58.835 75.3738 55.4067 77.1714 51.9747ZM89.6085 53.7641C90.4945 53.0308 91.3761 52.0634 92.0679 51.1295L92.0701 51.1266C92.6313 50.3718 93.1473 49.5827 93.5876 48.8237C92.3262 50.073 90.9257 51.7527 89.6085 53.7641Z" fill="#07090D"/>
<path fill-rule="evenodd" clip-rule="evenodd" d="M68.61 42.16C65.0338 42.16 59.1063 45.6462 55.1256 53.7608C55.1208 53.7705 55.116 53.7801 55.1112 53.7896C55.1077 53.7963 55.1043 53.803 55.1008 53.8097C53.5469 56.7695 52.85 59.5727 52.85 62.08C52.85 64.858 53.7304 67.1454 55.2555 68.7174C56.1581 69.6478 57.3508 70.3941 58.8607 70.8364C58.4071 70.4448 58.0159 69.977 57.6922 69.4571C56.7731 67.9811 56.37 66.077 56.37 64.08C56.37 62.4369 56.6409 60.5635 57.1743 58.7853C57.3555 58.1814 57.8108 57.6983 58.4028 57.4817C58.4511 57.4641 58.4999 57.4483 58.5489 57.4345C58.1594 56.8534 58.0899 56.088 58.4211 55.4256C60.4421 51.3836 63.0153 48.0627 65.2828 45.8489C66.408 44.7504 67.5196 43.8639 68.5079 43.3059C68.9934 43.0318 69.5469 42.7806 70.1216 42.6663C70.2433 42.6421 70.3861 42.6204 70.5439 42.609C70.5021 42.5849 70.4601 42.5607 70.4177 42.5365C70.4054 42.5294 70.3931 42.5223 70.381 42.515C70.0115 42.2933 69.5385 42.16 68.61 42.16ZM73.296 44.5239C73.3175 44.6029 73.3348 44.6794 73.3486 44.7523C73.4375 45.2204 73.4129 45.6748 73.3608 46.0484C73.2564 46.7979 72.983 47.6156 72.6523 48.3984C71.98 49.9894 70.8941 51.8466 69.6563 53.5115C68.7763 54.6993 67.6221 55.9706 66.3846 56.9675C65.3906 57.7683 64.0765 58.6112 62.6547 58.8272C63.3637 59.0266 64.0702 59.12 64.77 59.12C67.4696 59.12 70.0568 57.4923 72.0651 55.0498C74.0923 52.5843 75.17 49.7188 75.17 47.92C75.17 47.1951 74.9288 46.4165 74.7157 46.0843C74.3329 45.5417 73.869 45.0285 73.296 44.5239ZM62.3571 72.079C65.817 72.0346 68.9276 70.4265 71.5103 68.3559C73.5973 67.0241 75.413 65.3236 76.7138 63.4386C76.7112 63.4426 76.7085 63.4466 76.7059 63.4506L78.3699 64.5599L76.7227 63.4258C76.7197 63.4301 76.7168 63.4344 76.7138 63.4386C77.0162 62.9825 77.2269 62.5155 77.369 62.0693C77.8024 61.4778 78.2088 60.8914 78.5868 60.3205C78.7171 60.1332 78.7962 60.0711 78.7958 60.0714C78.7954 60.0718 78.6684 60.1653 78.431 60.1926L78.0456 59.9377L79.49 59.36L77.9488 59.8737L76.93 59.2L77.9226 59.8824L77.626 59.9813C77.6035 59.9639 77.5851 59.9479 77.5707 59.9343C77.5427 59.9078 77.5303 59.8915 77.5302 59.8916C77.5299 59.8918 77.5552 59.9265 77.5956 60.015C77.6107 60.1134 77.6659 60.5162 77.5788 61.146C77.5389 61.4348 77.4719 61.7466 77.369 62.0693C75.8522 64.1401 74.0063 66.2745 71.9033 68.0339C71.7737 68.1424 71.6427 68.2498 71.5103 68.3559C68.7431 70.1217 65.4988 71.2395 62.3451 71.2801C62.3449 71.2801 62.3446 71.2802 62.3443 71.2802L62.3546 72.0791M77.7437 60.0585C77.7731 60.0748 77.8055 60.091 77.8413 60.1063C77.9806 60.1662 78.1384 60.2 78.3 60.2C78.328 60.2 78.3548 60.199 78.3805 60.1972L78.0187 59.9485L77.7437 60.0585ZM62.3571 72.079L62.37 73.28L62.3546 72.0791M51.5464 51.9746C55.8866 43.1445 62.9115 38.16 68.61 38.16C69.9144 38.16 71.1947 38.3447 72.4192 39.0732C74.7835 40.4261 76.6562 41.8813 78.0084 43.8131C78.0171 43.8255 78.0257 43.838 78.0341 43.8506C78.7786 44.9673 79.17 46.5759 79.17 47.92C79.17 50.9212 77.5677 54.6556 75.1548 57.5902C72.7232 60.5476 69.1104 63.12 64.77 63.12C63.3229 63.12 61.888 62.8557 60.4934 62.3193C60.4109 62.9369 60.37 63.5329 60.37 64.08C60.37 65.6029 60.6868 66.6989 61.0878 67.3429C61.4489 67.9228 61.8174 68.08 62.21 68.08C64.5932 68.08 67.0101 66.9125 69.3366 64.9661C71.6468 63.0332 73.6839 60.4828 75.2617 58.0968C75.2684 58.0868 75.2751 58.0768 75.2819 58.0669C75.8042 57.3072 76.8061 56.2 78.3 56.2C80.0237 56.2 80.9385 57.5962 81.3469 58.6172C81.3615 58.6536 81.375 58.6904 81.3873 58.7275C81.6355 59.4721 81.6974 60.5641 81.5411 61.694C81.3768 62.8824 80.9475 64.2992 80.0341 65.6694L80.0173 65.6942C76.3204 71.0635 69.3377 75.1908 62.3956 75.2798L62.3915 75.2799C58.2123 75.3248 54.7743 73.966 52.3845 71.5026C50.0095 69.0546 48.85 65.702 48.85 62.08C48.85 58.8349 49.7488 55.4067 51.5464 51.9746ZM63.9835 53.7641C64.8695 53.0308 65.7511 52.0634 66.4429 51.1295L66.4451 51.1266C67.0063 50.3718 67.5223 49.5827 67.9626 48.8237C66.7012 50.073 65.3007 51.7527 63.9835 53.7641Z" fill="#07090D"/>
<path fill-rule="evenodd" clip-rule="evenodd" d="M67.6286 24.1266C67.6286 24.1266 67.6281 24.127 67.6271 24.1278C67.628 24.127 67.6286 24.1266 67.6286 24.1266ZM66.7774 25.1097C59.5625 33.3484 49.7227 41.1411 40.8048 48.0602C40.0561 48.641 39.0026 48.6168 38.2815 48.0022C37.5603 47.3875 37.3694 46.3512 37.8242 45.52C39.0529 43.2745 39.8299 41.9146 40.752 40.3006C41.56 38.8865 42.4793 37.2774 43.9116 34.7066L43.9199 34.692C45.7622 31.4495 46.2188 28.9074 46.2188 27.2C46.2188 26.2613 45.9511 25.3606 45.6403 24.7467C43.2902 28.0446 38.765 36.239 34.5207 44.568C30.2538 52.9416 26.4601 61.082 25.5044 64.2218C25.0585 65.9402 24.8588 67.3509 24.8588 68.48C24.8588 69.4645 25.0645 70.2498 25.3836 70.9326C27.651 65.5247 30.1288 60.3537 32.6015 55.5627C32.924 54.938 33.5507 54.5284 34.2523 54.484C34.9539 54.4395 35.6274 54.7667 36.0261 55.3458C39.3599 60.1879 42.3714 65.3976 45.2836 70.9577C45.6688 70.2948 45.9788 69.3881 45.9788 68.48C45.9788 67.5366 45.6643 65.8971 44.947 64.1638C44.034 62.1959 41.9426 58.5473 39.6367 54.8102C39.0859 53.9176 39.3183 52.751 40.1692 52.1376C45.2799 48.4531 50.5104 44.2923 54.8813 40.4653C59.2952 36.6006 62.6994 33.1909 64.2731 30.995L64.2911 30.9703C66.3029 28.2516 66.772 26.2662 66.7774 25.1097ZM70.4313 22.8731C70.0742 21.8124 69.2989 20.6634 67.9237 20.3272C66.4826 19.9749 65.2666 20.7206 64.5331 21.5868M70.4313 22.8731C71.2854 25.3339 70.6773 29.0592 67.5155 33.3375C65.6463 35.9408 61.9353 39.6056 57.5163 43.4747C53.475 47.0131 48.7303 50.8181 44.0071 54.291C45.9593 57.5174 47.7214 60.6298 48.5947 62.5219C48.6052 62.5446 48.6153 62.5676 48.6249 62.5908C49.4974 64.6848 49.9788 66.8696 49.9788 68.48C49.9788 70.5609 49.1689 72.4853 48.2319 73.7425C47.5974 74.621 46.5316 75.4564 45.1403 75.4296C43.6499 75.401 42.5784 74.4096 41.9689 73.2515L41.9652 73.2443C39.5961 68.6983 37.1871 64.4333 34.6126 60.4391C32.597 64.4826 30.6152 68.7513 28.7865 73.1655L28.7821 73.1761L28.782 73.1761C28.3937 74.0985 27.5988 75.3923 26.0873 75.6757C24.4707 75.9789 23.2596 74.9273 22.5601 74.0279C22.5233 73.9807 22.4888 73.9318 22.4564 73.8815C21.5725 72.5065 20.8588 70.7766 20.8588 68.48C20.8588 66.8971 21.1362 65.12 21.6435 63.1751C21.6498 63.151 21.6566 63.127 21.6637 63.1032C22.7258 59.5771 26.7197 51.067 30.9568 42.7519C35.2063 34.4125 39.8913 25.8968 42.4339 22.3539C42.4421 22.3425 42.4504 22.3312 42.4588 22.32C43.1294 21.4258 44.2546 20.2833 45.8697 20.3731C47.4642 20.4617 48.4638 21.6977 49.0393 22.6273C49.0586 22.6584 49.077 22.6901 49.0946 22.7223C49.7201 23.8691 50.2188 25.4759 50.2188 27.2C50.2188 29.651 49.5562 32.8662 47.402 36.6604C46.993 37.3945 46.6274 38.0476 46.2957 38.6375C53.0168 33.2074 59.5338 27.4846 64.532 21.5881" fill="#07090D"/>
<path d="M212.952 64.24C212.952 62.48 213.432 60.24 214.552 57.6C216.152 53.68 219.192 47.36 222.392 41.6C219.912 41.28 218.472 40.4 217.832 39.44C216.712 37.76 217.512 36.96 219.352 37.04C221.192 37.12 223.352 37.04 225.112 36.88C227.592 32.56 229.272 29.92 231.112 27.28C232.312 25.52 233.272 25.6 234.152 27.12C234.712 28.08 235.032 29.44 235.032 30.4C235.032 31.84 234.712 33.68 233.752 35.92C236.232 36.24 237.592 37.52 238.152 38.48C238.952 39.92 238.392 40.88 236.472 40.64C235.032 40.48 232.952 40.64 231.192 40.88C228.152 46.08 223.592 54 220.792 60.08C219.832 62.24 219.352 64.32 219.352 66.08C219.352 68.48 220.152 70.16 221.512 70.16C224.632 70.16 228.792 65.12 231.592 59.12C232.472 57.2 234.312 57.04 234.872 59.2C235.272 60.88 234.952 62.08 234.072 63.92C232.952 66.32 227.592 73.2 220.872 73.2C216.632 73.2 212.952 69.76 212.952 64.24Z" fill="#FBEA54"/>
<path d="M209.818 36.72C209.818 34.48 211.498 32.4 213.338 32.4C215.578 32.4 217.738 35.28 217.738 37.6C217.738 39.76 216.538 41.6 214.538 41.6C211.978 41.6 209.818 39.2 209.818 36.72ZM215.738 64.8C213.338 69.84 207.818 73.2 203.098 73.2C198.218 73.2 196.058 70.4 196.058 66.4C196.058 64.88 196.378 63.2 197.018 61.12C199.018 55.52 204.138 46.24 207.098 42.08C208.298 40.48 209.258 40.32 210.298 41.52C211.818 43.12 212.458 46.56 210.378 50.56C208.858 54 205.178 60 203.818 63.2C203.098 65.04 202.698 66.72 202.698 68C202.698 69.28 203.018 70 203.898 70C207.098 70 211.258 64.64 213.738 59.2C214.378 57.76 215.418 57.92 216.138 59.36C216.858 60.72 216.778 62.72 215.738 64.8Z" fill="#FBEA54"/>
<path d="M162.417 40.88C163.137 42.08 163.457 43.36 163.457 44.64C163.457 45.2 163.457 45.76 163.377 46.24C166.817 43.04 170.657 40.4 173.537 40.4C175.857 40.4 178.017 43.2 178.017 46.24C178.017 48 176.577 50.56 174.017 55.04C171.457 59.12 168.737 64.4 168.737 67.36C168.737 69.04 169.297 70.08 170.337 70.08C173.057 70.08 177.217 64.88 180.097 59.52C180.897 58 182.017 58.08 182.737 59.2C183.377 60.16 183.457 62.64 182.337 64.8C180.097 69.2 174.257 73.44 169.457 73.44C164.097 73.44 161.777 70.72 161.777 66.56C161.777 62.24 165.457 54.88 168.577 49.92C170.257 47.28 171.537 45.2 170.977 45.2C170.257 45.2 166.337 47.44 161.937 52.4C157.537 57.04 153.937 64.88 150.657 72.08C150.097 73.36 149.057 73.84 147.777 72.56C146.657 71.44 146.017 70.08 146.017 68.16C146.017 66.96 146.257 65.6 146.737 64C148.257 59.52 154.417 48.32 159.377 40.88C160.417 39.36 161.617 39.44 162.417 40.88Z" fill="#FBEA54"/>
<path d="M145.443 36.72C145.443 34.48 147.123 32.4 148.963 32.4C151.203 32.4 153.363 35.28 153.363 37.6C153.363 39.76 152.163 41.6 150.163 41.6C147.603 41.6 145.443 39.2 145.443 36.72ZM151.363 64.8C148.963 69.84 143.443 73.2 138.723 73.2C133.843 73.2 131.683 70.4 131.683 66.4C131.683 64.88 132.003 63.2 132.643 61.12C134.643 55.52 139.763 46.24 142.723 42.08C143.923 40.48 144.883 40.32 145.923 41.52C147.443 43.12 148.083 46.56 146.003 50.56C144.483 54 140.803 60 139.443 63.2C138.723 65.04 138.323 66.72 138.323 68C138.323 69.28 138.643 70 139.523 70C142.723 70 146.883 64.64 149.363 59.2C150.003 57.76 151.043 57.92 151.763 59.36C152.483 60.72 152.403 62.72 151.363 64.8Z" fill="#FBEA54"/>
<path d="M114.42 53.2L111.86 57.52C109.38 62.64 109.94 68.4 112.02 68.4C114.5 68.4 118.1 64 121.38 57.36C123.3 53.6 124.26 49.52 124.26 46.88C124.26 45.44 124.1 44.48 123.7 44.32C122.26 43.68 117.86 47.36 114.42 53.2ZM131.06 49.28C131.06 52.72 129.78 56.8 127.94 60.64C126.02 65.04 123.38 68.64 120.82 70.72C126.74 69.52 131.3 64.24 133.62 59.6C134.58 57.76 136.26 58.16 136.58 59.76C136.74 60.56 136.82 62.8 135.46 65.2C131.86 71.68 125.14 73.92 118.5 73.92C112.18 73.92 108.26 71.76 106.42 67.44C102.9 74 99.46 80.88 96.1 88.72C95.46 90.16 94.5 90.48 93.7 89.52C92.5 88 92.1 86.88 92.1 85.2C92.1 83.92 92.34 82.24 93.06 80C95.38 72.4 108.58 47.52 113.54 40.88C114.98 39.12 116.02 39.44 116.66 40.32C117.3 41.2 117.46 42.24 117.46 43.28C119.46 41.92 121.78 40.88 123.94 40.88C128.74 40.88 131.06 45.2 131.06 49.28Z" fill="#FBEA54"/>
<path d="M96.795 44.72C95.595 43.76 89.675 48.64 85.835 56.32C86.475 56.72 87.035 56.88 87.595 56.88C89.515 56.88 92.075 54.48 93.675 52.32C95.995 49.2 97.675 45.44 96.795 44.72ZM102.795 47.92C102.795 52.72 97.435 61.12 90.395 61.12C88.475 61.12 86.555 60.56 84.715 59.36C84.235 60.96 83.995 62.64 83.995 64.08C83.995 67.6 85.435 70.08 87.835 70.08C93.915 70.08 99.275 64.16 102.555 59.2C103.435 57.92 104.475 57.76 105.115 59.36C105.355 60.08 105.435 62.4 103.995 64.56C100.635 69.44 94.235 73.2 87.995 73.28C80.555 73.36 76.475 68.48 76.475 62.08C76.475 59.2 77.275 56.08 78.955 52.88C83.115 44.4 89.595 40.16 94.235 40.16C95.355 40.16 96.235 40.32 97.035 40.8C99.275 42.08 100.875 43.36 101.995 44.96C102.475 45.68 102.795 46.88 102.795 47.92Z" fill="#FBEA54"/>
<path d="M71.17 44.72C69.97 43.76 64.05 48.64 60.21 56.32C60.85 56.72 61.41 56.88 61.97 56.88C63.89 56.88 66.45 54.48 68.05 52.32C70.37 49.2 72.05 45.44 71.17 44.72ZM77.17 47.92C77.17 52.72 71.81 61.12 64.77 61.12C62.85 61.12 60.93 60.56 59.09 59.36C58.61 60.96 58.37 62.64 58.37 64.08C58.37 67.6 59.81 70.08 62.21 70.08C68.29 70.08 73.65 64.16 76.93 59.2C77.81 57.92 78.85 57.76 79.49 59.36C79.73 60.08 79.81 62.4 78.37 64.56C75.01 69.44 68.61 73.2 62.37 73.28C54.93 73.36 50.85 68.48 50.85 62.08C50.85 59.2 51.65 56.08 53.33 52.88C57.49 44.4 63.97 40.16 68.61 40.16C69.73 40.16 70.61 40.32 71.41 40.8C73.65 42.08 75.25 43.36 76.37 44.96C76.85 45.68 77.17 46.88 77.17 47.92Z" fill="#FBEA54"/>
<path d="M46.6188 72.56C45.8188 73.68 44.5388 73.84 43.7388 72.32C40.7788 66.64 37.7388 61.36 34.3788 56.48C31.8188 61.44 29.2588 66.8 26.9388 72.4C26.2988 73.92 25.2588 74.24 24.1388 72.8C23.4188 71.68 22.8588 70.32 22.8588 68.48C22.8588 67.12 23.0988 65.52 23.5788 63.68C25.5788 57.04 39.1788 30.32 44.0588 23.52C45.2588 21.92 46.2988 22 47.3388 23.68C47.8188 24.56 48.2188 25.84 48.2188 27.2C48.2188 29.28 47.6588 32.16 45.6588 35.68C42.5388 41.28 41.8988 42.24 39.5788 46.48C48.8588 39.28 58.9388 31.28 66.0588 22.88C66.9388 21.84 68.0588 22.08 68.5388 23.52C69.0988 25.12 68.8588 28.16 65.8988 32.16C62.4588 36.96 51.6588 46.32 41.3388 53.76C43.6588 57.52 45.8188 61.28 46.7788 63.36C47.5788 65.28 47.9788 67.2 47.9788 68.48C47.9788 70.08 47.3388 71.6 46.6188 72.56Z" fill="#FBEA54"/>
<path d="M190.222 13.2648L205.276 14.6459L196.755 26.0048L205.651 26.8391L185.644 51.6862L191.926 35.0949L184.72 34.3375L190.222 13.2648Z" fill="#07090D" stroke="#07090D" stroke-width="2" stroke-linejoin="round"/>
<path d="M190.222 12.1759L205.276 13.557L196.755 24.9159L205.651 25.7502L185.644 50.5973L191.926 34.006L184.72 33.2486L190.222 12.1759Z" fill="#FBEA54" stroke="#07090D" stroke-width="2" stroke-linejoin="round"/>
<defs>
<linearGradient id="paint0_linear_647_26157" x1="131" y1="40" x2="131" y2="270" gradientUnits="userSpaceOnUse">
<stop stop-color="#EAF6D2"/>
<stop offset="1" stop-color="#85D7AB"/>
</linearGradient>
<linearGradient id="paint1_linear_647_26157" x1="131" y1="55" x2="131" y2="255" gradientUnits="userSpaceOnUse">
<stop stop-color="#5DD460"/>
<stop offset="1" stop-color="#1FB978"/>
</linearGradient>
<linearGradient id="paint2_linear_647_26157" x1="129" y1="96" x2="129" y2="213" gradientUnits="userSpaceOnUse">
<stop stop-color="#1CB06F"/>
<stop offset="1" stop-color="#0F9B60"/>
</linearGradient>
</defs>
</svg>
