<svg width="24" height="24" viewBox="0 0 24 24" fill="none" xmlns="http://www.w3.org/2000/svg">
<path d="M20.6439 14.5149L21.3641 14.7241C21.4532 14.4174 21.3383 14.0878 21.0777 13.9031C20.817 13.7183 20.468 13.7189 20.2081 13.9046L20.6439 14.5149ZM9.48511 3.35608L10.0955 3.79193C10.2811 3.53197 10.2817 3.18294 10.097 2.92234C9.91222 2.66173 9.58269 2.54674 9.27592 2.63584L9.48511 3.35608ZM20.2081 13.9046C19.0217 14.7517 17.5702 15.25 16 15.25V16.75C17.8929 16.75 19.6475 16.1481 21.0798 15.1253L20.2081 13.9046ZM16 15.25C11.9959 15.25 8.75 12.0041 8.75 8.00002H7.25C7.25 12.8325 11.1675 16.75 16 16.75V15.25ZM8.75 8.00002C8.75 6.42985 9.24829 4.97829 10.0955 3.79193L8.87475 2.92023C7.85194 4.35254 7.25 6.1071 7.25 8.00002H8.75ZM3.75 12C3.75 8.2449 6.2594 5.07396 9.6943 4.07632L9.27592 2.63584C5.21752 3.81458 2.25 7.55977 2.25 12H3.75ZM12 20.25C7.44365 20.25 3.75 16.5564 3.75 12H2.25C2.25 17.3848 6.61522 21.75 12 21.75V20.25ZM19.9237 14.3057C18.926 17.7406 15.7551 20.25 12 20.25V21.75C16.4402 21.75 20.1854 18.7825 21.3641 14.7241L19.9237 14.3057Z" fill="black"/>
<path fill-rule="evenodd" clip-rule="evenodd" d="M16.375 7.625L13 6.5L16.375 5.375L17.5 2L18.625 5.375L22 6.5L18.625 7.625L17.5 11L16.375 7.625Z" fill="black"/>
</svg>
