<svg width="244" height="244" viewBox="0 0 244 244" fill="none" xmlns="http://www.w3.org/2000/svg">
<mask id="mask0_2260_28855" style="mask-type:alpha" maskUnits="userSpaceOnUse" x="0" y="4" width="240" height="240">
<path d="M239 124C239 189.722 185.722 243 120 243C54.2781 243 1 189.722 1 124C1 58.2781 54.2781 5 120 5C185.722 5 239 58.2781 239 124Z" fill="white"/>
<path d="M239 124C239 189.722 185.722 243 120 243C54.2781 243 1 189.722 1 124C1 58.2781 54.2781 5 120 5C185.722 5 239 58.2781 239 124Z" stroke="black" stroke-width="2"/>
<path d="M239 124C239 189.722 185.722 243 120 243C54.2781 243 1 189.722 1 124C1 58.2781 54.2781 5 120 5C185.722 5 239 58.2781 239 124Z" stroke="black" stroke-width="2"/>
</mask>
<g mask="url(#mask0_2260_28855)">
<path d="M0 -60.2822L-390 329.718" stroke="black" stroke-width="1.5"/>
<path d="M5 -60.2822L-385 329.718" stroke="black" stroke-width="1.5"/>
<path d="M10 -60.2822L-380 329.718" stroke="black" stroke-width="1.5"/>
<path d="M15 -60.2822L-375 329.718" stroke="black" stroke-width="1.5"/>
<path d="M20 -60.2822L-370 329.718" stroke="black" stroke-width="1.5"/>
<path d="M25 -60.2822L-365 329.718" stroke="black" stroke-width="1.5"/>
<path d="M30 -60.2822L-360 329.718" stroke="black" stroke-width="1.5"/>
<path d="M35 -60.2822L-355 329.718" stroke="black" stroke-width="1.5"/>
<path d="M40 -60.2822L-350 329.718" stroke="black" stroke-width="1.5"/>
<path d="M45 -60.2822L-345 329.718" stroke="black" stroke-width="1.5"/>
<path d="M50 -60.2822L-340 329.718" stroke="black" stroke-width="1.5"/>
<path d="M55 -60.2822L-335 329.718" stroke="black" stroke-width="1.5"/>
<path d="M60 -60.2822L-330 329.718" stroke="black" stroke-width="1.5"/>
<path d="M65 -60.2822L-325 329.718" stroke="black" stroke-width="1.5"/>
<path d="M70 -60.2822L-320 329.718" stroke="black" stroke-width="1.5"/>
<path d="M75 -60.2822L-315 329.718" stroke="black" stroke-width="1.5"/>
<path d="M80 -60.2822L-310 329.718" stroke="black" stroke-width="1.5"/>
<path d="M85 -60.2822L-305 329.718" stroke="black" stroke-width="1.5"/>
<path d="M90 -60.2822L-300 329.718" stroke="black" stroke-width="1.5"/>
<path d="M95 -60.2822L-295 329.718" stroke="black" stroke-width="1.5"/>
<path d="M100 -60.2822L-290 329.718" stroke="black" stroke-width="1.5"/>
<path d="M105 -60.2822L-285 329.718" stroke="black" stroke-width="1.5"/>
<path d="M110 -60.2822L-280 329.718" stroke="black" stroke-width="1.5"/>
<path d="M115 -60.2822L-275 329.718" stroke="black" stroke-width="1.5"/>
<path d="M120 -60.2822L-270 329.718" stroke="black" stroke-width="1.5"/>
<path d="M125 -60.2822L-265 329.718" stroke="black" stroke-width="1.5"/>
<path d="M130 -60.2822L-260 329.718" stroke="black" stroke-width="1.5"/>
<path d="M135 -60.2822L-255 329.718" stroke="black" stroke-width="1.5"/>
<path d="M140 -60.2822L-250 329.718" stroke="black" stroke-width="1.5"/>
<path d="M145 -60.2822L-245 329.718" stroke="black" stroke-width="1.5"/>
<path d="M150 -60.2822L-240 329.718" stroke="black" stroke-width="1.5"/>
<path d="M155 -60.2822L-235 329.718" stroke="black" stroke-width="1.5"/>
<path d="M160 -60.2822L-230 329.718" stroke="black" stroke-width="1.5"/>
<path d="M165 -60.2822L-225 329.718" stroke="black" stroke-width="1.5"/>
<path d="M170 -60.2822L-220 329.718" stroke="black" stroke-width="1.5"/>
<path d="M175 -60.2822L-215 329.718" stroke="black" stroke-width="1.5"/>
<path d="M180 -60.2822L-210 329.718" stroke="black" stroke-width="1.5"/>
<path d="M185 -60.2822L-205 329.718" stroke="black" stroke-width="1.5"/>
<path d="M190 -60.2822L-200 329.718" stroke="black" stroke-width="1.5"/>
<path d="M195 -60.2822L-195 329.718" stroke="black" stroke-width="1.5"/>
<path d="M200 -60.2822L-190 329.718" stroke="black" stroke-width="1.5"/>
<path d="M205 -60.2822L-185 329.718" stroke="black" stroke-width="1.5"/>
<path d="M210 -60.2822L-180 329.718" stroke="black" stroke-width="1.5"/>
<path d="M215 -60.2822L-175 329.718" stroke="black" stroke-width="1.5"/>
<path d="M220 -60.2822L-170 329.718" stroke="black" stroke-width="1.5"/>
<path d="M225 -60.2822L-165 329.718" stroke="black" stroke-width="1.5"/>
<path d="M230 -60.2822L-160 329.718" stroke="black" stroke-width="1.5"/>
<path d="M235 -60.2822L-155 329.718" stroke="black" stroke-width="1.5"/>
<path d="M240 -60.2822L-150 329.718" stroke="black" stroke-width="1.5"/>
<path d="M245 -60.2822L-145 329.718" stroke="black" stroke-width="1.5"/>
<path d="M250 -60.2822L-140 329.718" stroke="black" stroke-width="1.5"/>
<path d="M255 -60.2822L-135 329.718" stroke="black" stroke-width="1.5"/>
<path d="M260 -60.2822L-130 329.718" stroke="black" stroke-width="1.5"/>
<path d="M265 -60.2822L-125 329.718" stroke="black" stroke-width="1.5"/>
<path d="M270 -60.2822L-120 329.718" stroke="black" stroke-width="1.5"/>
<path d="M275 -60.2822L-115 329.718" stroke="black" stroke-width="1.5"/>
<path d="M280 -60.2822L-110 329.718" stroke="black" stroke-width="1.5"/>
<path d="M285 -60.2822L-105 329.718" stroke="black" stroke-width="1.5"/>
<path d="M290 -60.2822L-100 329.718" stroke="black" stroke-width="1.5"/>
<path d="M295 -60.2822L-95 329.718" stroke="black" stroke-width="1.5"/>
<path d="M300 -60.2822L-90 329.718" stroke="black" stroke-width="1.5"/>
<path d="M305 -60.2822L-85 329.718" stroke="black" stroke-width="1.5"/>
<path d="M310 -60.2822L-80 329.718" stroke="black" stroke-width="1.5"/>
<path d="M315 -60.2822L-75 329.718" stroke="black" stroke-width="1.5"/>
<path d="M320 -60.2822L-70 329.718" stroke="black" stroke-width="1.5"/>
<path d="M325 -60.2822L-65 329.718" stroke="black" stroke-width="1.5"/>
<path d="M330 -60.2822L-60 329.718" stroke="black" stroke-width="1.5"/>
<path d="M335 -60.2822L-55 329.718" stroke="black" stroke-width="1.5"/>
<path d="M340 -60.2822L-50 329.718" stroke="black" stroke-width="1.5"/>
<path d="M345 -60.2822L-45 329.718" stroke="black" stroke-width="1.5"/>
<path d="M350 -60.2822L-40 329.718" stroke="black" stroke-width="1.5"/>
<path d="M355 -60.2822L-35 329.718" stroke="black" stroke-width="1.5"/>
<path d="M360 -60.2822L-30 329.718" stroke="black" stroke-width="1.5"/>
<path d="M365 -60.2822L-25 329.718" stroke="black" stroke-width="1.5"/>
<path d="M370 -60.2822L-20 329.718" stroke="black" stroke-width="1.5"/>
<path d="M375 -60.2822L-15 329.718" stroke="black" stroke-width="1.5"/>
<path d="M380 -60.2822L-10 329.718" stroke="black" stroke-width="1.5"/>
<path d="M385 -60.2822L-5 329.718" stroke="black" stroke-width="1.5"/>
<path d="M390 -60.2822L0 329.718" stroke="black" stroke-width="1.5"/>
<path d="M395 -60.2822L5 329.718" stroke="black" stroke-width="1.5"/>
<path d="M400 -60.2822L10 329.718" stroke="black" stroke-width="1.5"/>
<path d="M405 -60.2822L15 329.718" stroke="black" stroke-width="1.5"/>
<path d="M410 -60.2822L20 329.718" stroke="black" stroke-width="1.5"/>
<path d="M415 -60.2822L25 329.718" stroke="black" stroke-width="1.5"/>
<path d="M420 -60.2822L30 329.718" stroke="black" stroke-width="1.5"/>
<path d="M425 -60.2822L35 329.718" stroke="black" stroke-width="1.5"/>
<path d="M430 -60.2822L40 329.718" stroke="black" stroke-width="1.5"/>
<path d="M435 -60.2822L45 329.718" stroke="black" stroke-width="1.5"/>
<path d="M440 -60.2822L50 329.718" stroke="black" stroke-width="1.5"/>
<path d="M445 -60.2822L55 329.718" stroke="black" stroke-width="1.5"/>
<path d="M450 -60.2822L60 329.718" stroke="black" stroke-width="1.5"/>
<path d="M455 -60.2822L65 329.718" stroke="black" stroke-width="1.5"/>
<path d="M460 -60.2822L70 329.718" stroke="black" stroke-width="1.5"/>
<path d="M465 -60.2822L75 329.718" stroke="black" stroke-width="1.5"/>
<path d="M470 -60.2822L80 329.718" stroke="black" stroke-width="1.5"/>
<path d="M475 -60.2822L85 329.718" stroke="black" stroke-width="1.5"/>
<path d="M480 -60.2822L90 329.718" stroke="black" stroke-width="1.5"/>
<path d="M485 -60.2822L95 329.718" stroke="black" stroke-width="1.5"/>
<path d="M490 -60.2822L100 329.718" stroke="black" stroke-width="1.5"/>
<path d="M495 -60.2822L105 329.718" stroke="black" stroke-width="1.5"/>
<path d="M500 -60.2822L110 329.718" stroke="black" stroke-width="1.5"/>
<path d="M505 -60.2822L115 329.718" stroke="black" stroke-width="1.5"/>
<path d="M510 -60.2822L120 329.718" stroke="black" stroke-width="1.5"/>
<path d="M515 -60.2822L125 329.718" stroke="black" stroke-width="1.5"/>
<path d="M520 -60.2822L130 329.718" stroke="black" stroke-width="1.5"/>
<path d="M525 -60.2822L135 329.718" stroke="black" stroke-width="1.5"/>
<path d="M530 -60.2822L140 329.718" stroke="black" stroke-width="1.5"/>
<path d="M535 -60.2822L145 329.718" stroke="black" stroke-width="1.5"/>
<path d="M540 -60.2822L150 329.718" stroke="black" stroke-width="1.5"/>
<path d="M545 -60.2822L155 329.718" stroke="black" stroke-width="1.5"/>
<path d="M550 -60.2822L160 329.718" stroke="black" stroke-width="1.5"/>
<path d="M555 -60.2822L165 329.718" stroke="black" stroke-width="1.5"/>
<path d="M560 -60.2822L170 329.718" stroke="black" stroke-width="1.5"/>
<path d="M565 -60.2822L175 329.718" stroke="black" stroke-width="1.5"/>
<path d="M570 -60.2822L180 329.718" stroke="black" stroke-width="1.5"/>
<path d="M575 -60.2822L185 329.718" stroke="black" stroke-width="1.5"/>
<path d="M580 -60.2822L190 329.718" stroke="black" stroke-width="1.5"/>
<path d="M585 -60.2822L195 329.718" stroke="black" stroke-width="1.5"/>
<path d="M590 -60.2822L200 329.718" stroke="black" stroke-width="1.5"/>
<path d="M595 -60.2822L205 329.718" stroke="black" stroke-width="1.5"/>
<path d="M600 -60.2822L210 329.718" stroke="black" stroke-width="1.5"/>
<path d="M605 -60.2822L215 329.718" stroke="black" stroke-width="1.5"/>
<path d="M610 -60.2822L220 329.718" stroke="black" stroke-width="1.5"/>
<path d="M615 -60.2822L225 329.718" stroke="black" stroke-width="1.5"/>
<path d="M620 -60.2822L230 329.718" stroke="black" stroke-width="1.5"/>
<path d="M625 -60.2822L235 329.718" stroke="black" stroke-width="1.5"/>
<path d="M630 -60.2822L240 329.718" stroke="black" stroke-width="1.5"/>
</g>
</svg>
