<svg width="350" height="329" viewBox="0 0 350 329" fill="none" xmlns="http://www.w3.org/2000/svg">
<path d="M141.473 3.37624L141.915 3.59477L142.358 3.37624C145.505 1.82251 148.987 1 152.539 1H175.67C179.066 1 182.373 1.75033 185.375 3.14793L185.797 3.34434L186.219 3.14794C189.24 1.74201 192.55 1 195.925 1H226.392C228.624 1 230.818 1.32438 232.913 1.94366L233.196 2.0275L233.48 1.94367C235.583 1.32195 237.777 1 240 1H263.131C270.091 1 276.676 4.15149 281.042 9.57149L286.911 16.8572C291.348 22.3643 293.004 29.6062 291.402 36.4942L279.147 89.2085C277.838 94.8375 274.529 99.573 270.077 102.741L269.791 102.944L269.695 103.281C269.227 104.92 268.565 106.477 267.734 107.926L267.372 108.558L267.863 109.097C287.815 130.955 300 160.058 300 192C300 211.934 295.25 230.781 286.819 247.45L286.432 248.216L287.13 248.715L339.206 285.912C346.634 291.218 349.784 300.715 346.998 309.409C344.212 318.102 336.129 324 327 324H27C17.871 324 9.78771 318.102 7.00175 309.409C4.21579 300.715 7.3654 291.218 14.7939 285.912L66.8696 248.715L67.5682 248.216L67.1807 247.45C58.7495 230.781 54 211.934 54 192C54 165.79 62.2073 141.482 76.1805 121.525L76.6435 120.864L76.0947 120.272C72.6217 116.525 70.5 111.511 70.5 106C70.5 102.04 71.5949 98.3396 73.4979 95.1804L73.8586 94.5815L73.4201 94.0371L71.0886 91.1428C66.674 85.6626 65.0111 78.4629 66.5754 71.6018L76.9324 26.1732C78.1082 21.0161 81.0256 16.4218 85.1931 13.1644L94.5144 5.87865C98.559 2.71736 103.545 1 108.678 1H131.291C134.867 1 138.344 1.83196 141.473 3.37624Z" fill="white" stroke="#07090D" stroke-width="2" stroke-linecap="round"/>
</svg>
