<svg width="350" height="329" viewBox="0 0 350 329" fill="none" xmlns="http://www.w3.org/2000/svg">
<mask id="mask0_647_26151" style="mask-type:alpha" maskUnits="userSpaceOnUse" x="0" y="4" width="346" height="325">
<path d="M137.473 7.37624L137.915 7.59477L138.358 7.37624C141.505 5.82251 144.987 5 148.539 5H171.67C175.066 5 178.373 5.75033 181.375 7.14793L181.797 7.34434L182.219 7.14794C185.24 5.74201 188.55 5 191.925 5H222.392C224.624 5 226.818 5.32438 228.913 5.94366L229.196 6.0275L229.48 5.94367C231.583 5.32195 233.777 5 236 5H259.131C266.091 5 272.676 8.15149 277.042 13.5715L282.911 20.8572C287.348 26.3643 289.004 33.6062 287.402 40.4942L275.147 93.2085C273.838 98.8375 270.529 103.573 266.077 106.741L265.791 106.944L265.695 107.281C265.227 108.92 264.565 110.477 263.734 111.926L263.372 112.558L263.863 113.097C283.815 134.955 296 164.058 296 196C296 215.934 291.25 234.781 282.819 251.45L282.432 252.216L283.13 252.715L335.206 289.912C342.634 295.218 345.784 304.715 342.998 313.409C340.212 322.102 332.129 328 323 328H23C13.871 328 5.78771 322.102 3.00175 313.409C0.215793 304.715 3.3654 295.218 10.7939 289.912L62.8696 252.715L63.5682 252.216L63.1807 251.45C54.7495 234.781 50 215.934 50 196C50 169.79 58.2073 145.482 72.1805 125.525L72.6435 124.864L72.0947 124.272C68.6217 120.525 66.5 115.511 66.5 110C66.5 106.04 67.5949 102.34 69.4979 99.1804L69.8586 98.5815L69.4201 98.0371L67.0886 95.1428C62.674 89.6626 61.0111 82.4629 62.5754 75.6018L72.9324 30.1732C74.1082 25.0161 77.0256 20.4218 81.1931 17.1644L90.5144 9.87865C94.559 6.71736 99.5449 5 104.678 5H127.291C130.867 5 134.344 5.83196 137.473 7.37624Z" fill="white" stroke="#07090D" stroke-width="2" stroke-linecap="round"/>
</mask>
<g mask="url(#mask0_647_26151)">
<path d="M3.98804 -18L-386.012 372" stroke="black" stroke-width="1.5"/>
<path d="M8.98804 -18L-381.012 372" stroke="black" stroke-width="1.5"/>
<path d="M13.988 -18L-376.012 372" stroke="black" stroke-width="1.5"/>
<path d="M18.988 -18L-371.012 372" stroke="black" stroke-width="1.5"/>
<path d="M23.988 -18L-366.012 372" stroke="black" stroke-width="1.5"/>
<path d="M28.988 -18L-361.012 372" stroke="black" stroke-width="1.5"/>
<path d="M33.988 -18L-356.012 372" stroke="black" stroke-width="1.5"/>
<path d="M38.988 -18L-351.012 372" stroke="black" stroke-width="1.5"/>
<path d="M43.988 -18L-346.012 372" stroke="black" stroke-width="1.5"/>
<path d="M48.988 -18L-341.012 372" stroke="black" stroke-width="1.5"/>
<path d="M53.988 -18L-336.012 372" stroke="black" stroke-width="1.5"/>
<path d="M58.988 -18L-331.012 372" stroke="black" stroke-width="1.5"/>
<path d="M63.988 -18L-326.012 372" stroke="black" stroke-width="1.5"/>
<path d="M68.988 -18L-321.012 372" stroke="black" stroke-width="1.5"/>
<path d="M73.988 -18L-316.012 372" stroke="black" stroke-width="1.5"/>
<path d="M78.988 -18L-311.012 372" stroke="black" stroke-width="1.5"/>
<path d="M83.988 -18L-306.012 372" stroke="black" stroke-width="1.5"/>
<path d="M88.988 -18L-301.012 372" stroke="black" stroke-width="1.5"/>
<path d="M93.988 -18L-296.012 372" stroke="black" stroke-width="1.5"/>
<path d="M98.988 -18L-291.012 372" stroke="black" stroke-width="1.5"/>
<path d="M103.988 -18L-286.012 372" stroke="black" stroke-width="1.5"/>
<path d="M108.988 -18L-281.012 372" stroke="black" stroke-width="1.5"/>
<path d="M113.988 -18L-276.012 372" stroke="black" stroke-width="1.5"/>
<path d="M118.988 -18L-271.012 372" stroke="black" stroke-width="1.5"/>
<path d="M123.988 -18L-266.012 372" stroke="black" stroke-width="1.5"/>
<path d="M128.988 -18L-261.012 372" stroke="black" stroke-width="1.5"/>
<path d="M133.988 -18L-256.012 372" stroke="black" stroke-width="1.5"/>
<path d="M138.988 -18L-251.012 372" stroke="black" stroke-width="1.5"/>
<path d="M143.988 -18L-246.012 372" stroke="black" stroke-width="1.5"/>
<path d="M148.988 -18L-241.012 372" stroke="black" stroke-width="1.5"/>
<path d="M153.988 -18L-236.012 372" stroke="black" stroke-width="1.5"/>
<path d="M158.988 -18L-231.012 372" stroke="black" stroke-width="1.5"/>
<path d="M163.988 -18L-226.012 372" stroke="black" stroke-width="1.5"/>
<path d="M168.988 -18L-221.012 372" stroke="black" stroke-width="1.5"/>
<path d="M173.988 -18L-216.012 372" stroke="black" stroke-width="1.5"/>
<path d="M178.988 -18L-211.012 372" stroke="black" stroke-width="1.5"/>
<path d="M183.988 -18L-206.012 372" stroke="black" stroke-width="1.5"/>
<path d="M188.988 -18L-201.012 372" stroke="black" stroke-width="1.5"/>
<path d="M193.988 -18L-196.012 372" stroke="black" stroke-width="1.5"/>
<path d="M198.988 -18L-191.012 372" stroke="black" stroke-width="1.5"/>
<path d="M203.988 -18L-186.012 372" stroke="black" stroke-width="1.5"/>
<path d="M208.988 -18L-181.012 372" stroke="black" stroke-width="1.5"/>
<path d="M213.988 -18L-176.012 372" stroke="black" stroke-width="1.5"/>
<path d="M218.988 -18L-171.012 372" stroke="black" stroke-width="1.5"/>
<path d="M223.988 -18L-166.012 372" stroke="black" stroke-width="1.5"/>
<path d="M228.988 -18L-161.012 372" stroke="black" stroke-width="1.5"/>
<path d="M233.988 -18L-156.012 372" stroke="black" stroke-width="1.5"/>
<path d="M238.988 -18L-151.012 372" stroke="black" stroke-width="1.5"/>
<path d="M243.988 -18L-146.012 372" stroke="black" stroke-width="1.5"/>
<path d="M248.988 -18L-141.012 372" stroke="black" stroke-width="1.5"/>
<path d="M253.988 -18L-136.012 372" stroke="black" stroke-width="1.5"/>
<path d="M258.988 -18L-131.012 372" stroke="black" stroke-width="1.5"/>
<path d="M263.988 -18L-126.012 372" stroke="black" stroke-width="1.5"/>
<path d="M268.988 -18L-121.012 372" stroke="black" stroke-width="1.5"/>
<path d="M273.988 -18L-116.012 372" stroke="black" stroke-width="1.5"/>
<path d="M278.988 -18L-111.012 372" stroke="black" stroke-width="1.5"/>
<path d="M283.988 -18L-106.012 372" stroke="black" stroke-width="1.5"/>
<path d="M288.988 -18L-101.012 372" stroke="black" stroke-width="1.5"/>
<path d="M293.988 -18L-96.012 372" stroke="black" stroke-width="1.5"/>
<path d="M298.988 -18L-91.012 372" stroke="black" stroke-width="1.5"/>
<path d="M303.988 -18L-86.012 372" stroke="black" stroke-width="1.5"/>
<path d="M308.988 -18L-81.012 372" stroke="black" stroke-width="1.5"/>
<path d="M313.988 -18L-76.012 372" stroke="black" stroke-width="1.5"/>
<path d="M318.988 -18L-71.012 372" stroke="black" stroke-width="1.5"/>
<path d="M323.988 -18L-66.012 372" stroke="black" stroke-width="1.5"/>
<path d="M328.988 -18L-61.012 372" stroke="black" stroke-width="1.5"/>
<path d="M333.988 -18L-56.012 372" stroke="black" stroke-width="1.5"/>
<path d="M338.988 -18L-51.012 372" stroke="black" stroke-width="1.5"/>
<path d="M343.988 -18L-46.012 372" stroke="black" stroke-width="1.5"/>
<path d="M348.988 -18L-41.012 372" stroke="black" stroke-width="1.5"/>
<path d="M353.988 -18L-36.012 372" stroke="black" stroke-width="1.5"/>
<path d="M358.988 -18L-31.012 372" stroke="black" stroke-width="1.5"/>
<path d="M363.988 -18L-26.012 372" stroke="black" stroke-width="1.5"/>
<path d="M368.988 -18L-21.012 372" stroke="black" stroke-width="1.5"/>
<path d="M373.988 -18L-16.012 372" stroke="black" stroke-width="1.5"/>
<path d="M378.988 -18L-11.012 372" stroke="black" stroke-width="1.5"/>
<path d="M383.988 -18L-6.01196 372" stroke="black" stroke-width="1.5"/>
<path d="M388.988 -18L-1.01196 372" stroke="black" stroke-width="1.5"/>
<path d="M393.988 -18L3.98804 372" stroke="black" stroke-width="1.5"/>
<path d="M398.988 -18L8.98804 372" stroke="black" stroke-width="1.5"/>
<path d="M403.988 -18L13.988 372" stroke="black" stroke-width="1.5"/>
<path d="M408.988 -18L18.988 372" stroke="black" stroke-width="1.5"/>
<path d="M413.988 -18L23.988 372" stroke="black" stroke-width="1.5"/>
<path d="M418.988 -18L28.988 372" stroke="black" stroke-width="1.5"/>
<path d="M423.988 -18L33.988 372" stroke="black" stroke-width="1.5"/>
<path d="M428.988 -18L38.988 372" stroke="black" stroke-width="1.5"/>
<path d="M433.988 -18L43.988 372" stroke="black" stroke-width="1.5"/>
<path d="M438.988 -18L48.988 372" stroke="black" stroke-width="1.5"/>
<path d="M443.988 -18L53.988 372" stroke="black" stroke-width="1.5"/>
<path d="M448.988 -18L58.988 372" stroke="black" stroke-width="1.5"/>
<path d="M453.988 -18L63.988 372" stroke="black" stroke-width="1.5"/>
<path d="M458.988 -18L68.988 372" stroke="black" stroke-width="1.5"/>
<path d="M463.988 -18L73.988 372" stroke="black" stroke-width="1.5"/>
<path d="M468.988 -18L78.988 372" stroke="black" stroke-width="1.5"/>
<path d="M473.988 -18L83.988 372" stroke="black" stroke-width="1.5"/>
<path d="M478.988 -18L88.988 372" stroke="black" stroke-width="1.5"/>
<path d="M483.988 -18L93.988 372" stroke="black" stroke-width="1.5"/>
<path d="M488.988 -18L98.988 372" stroke="black" stroke-width="1.5"/>
<path d="M493.988 -18L103.988 372" stroke="black" stroke-width="1.5"/>
<path d="M498.988 -18L108.988 372" stroke="black" stroke-width="1.5"/>
<path d="M503.988 -18L113.988 372" stroke="black" stroke-width="1.5"/>
<path d="M508.988 -18L118.988 372" stroke="black" stroke-width="1.5"/>
<path d="M513.988 -18L123.988 372" stroke="black" stroke-width="1.5"/>
<path d="M518.988 -18L128.988 372" stroke="black" stroke-width="1.5"/>
<path d="M523.988 -18L133.988 372" stroke="black" stroke-width="1.5"/>
<path d="M528.988 -18L138.988 372" stroke="black" stroke-width="1.5"/>
<path d="M533.988 -18L143.988 372" stroke="black" stroke-width="1.5"/>
<path d="M538.988 -18L148.988 372" stroke="black" stroke-width="1.5"/>
<path d="M543.988 -18L153.988 372" stroke="black" stroke-width="1.5"/>
<path d="M548.988 -18L158.988 372" stroke="black" stroke-width="1.5"/>
<path d="M553.988 -18L163.988 372" stroke="black" stroke-width="1.5"/>
<path d="M558.988 -18L168.988 372" stroke="black" stroke-width="1.5"/>
<path d="M563.988 -18L173.988 372" stroke="black" stroke-width="1.5"/>
<path d="M568.988 -18L178.988 372" stroke="black" stroke-width="1.5"/>
<path d="M573.988 -18L183.988 372" stroke="black" stroke-width="1.5"/>
<path d="M578.988 -18L188.988 372" stroke="black" stroke-width="1.5"/>
<path d="M583.988 -18L193.988 372" stroke="black" stroke-width="1.5"/>
<path d="M588.988 -18L198.988 372" stroke="black" stroke-width="1.5"/>
<path d="M593.988 -18L203.988 372" stroke="black" stroke-width="1.5"/>
<path d="M598.988 -18L208.988 372" stroke="black" stroke-width="1.5"/>
<path d="M603.988 -18L213.988 372" stroke="black" stroke-width="1.5"/>
<path d="M608.988 -18L218.988 372" stroke="black" stroke-width="1.5"/>
<path d="M613.988 -18L223.988 372" stroke="black" stroke-width="1.5"/>
<path d="M618.988 -18L228.988 372" stroke="black" stroke-width="1.5"/>
<path d="M623.988 -18L233.988 372" stroke="black" stroke-width="1.5"/>
<path d="M628.988 -18L238.988 372" stroke="black" stroke-width="1.5"/>
<path d="M633.988 -18L243.988 372" stroke="black" stroke-width="1.5"/>
<path d="M638.988 -18L248.988 372" stroke="black" stroke-width="1.5"/>
<path d="M643.988 -18L253.988 372" stroke="black" stroke-width="1.5"/>
<path d="M648.988 -18L258.988 372" stroke="black" stroke-width="1.5"/>
<path d="M653.988 -18L263.988 372" stroke="black" stroke-width="1.5"/>
<path d="M658.988 -18L268.988 372" stroke="black" stroke-width="1.5"/>
<path d="M663.988 -18L273.988 372" stroke="black" stroke-width="1.5"/>
<path d="M668.988 -18L278.988 372" stroke="black" stroke-width="1.5"/>
<path d="M673.988 -18L283.988 372" stroke="black" stroke-width="1.5"/>
<path d="M678.988 -18L288.988 372" stroke="black" stroke-width="1.5"/>
<path d="M683.988 -18L293.988 372" stroke="black" stroke-width="1.5"/>
<path d="M688.988 -18L298.988 372" stroke="black" stroke-width="1.5"/>
<path d="M693.988 -18L303.988 372" stroke="black" stroke-width="1.5"/>
<path d="M698.988 -18L308.988 372" stroke="black" stroke-width="1.5"/>
<path d="M703.988 -18L313.988 372" stroke="black" stroke-width="1.5"/>
<path d="M708.988 -18L318.988 372" stroke="black" stroke-width="1.5"/>
<path d="M713.988 -18L323.988 372" stroke="black" stroke-width="1.5"/>
<path d="M718.988 -18L328.988 372" stroke="black" stroke-width="1.5"/>
<path d="M723.988 -18L333.988 372" stroke="black" stroke-width="1.5"/>
<path d="M728.988 -18L338.988 372" stroke="black" stroke-width="1.5"/>
<path d="M733.988 -18L343.988 372" stroke="black" stroke-width="1.5"/>
</g>
</svg>
