<svg width="369" height="138" viewBox="0 0 369 138" fill="none" xmlns="http://www.w3.org/2000/svg">
<mask id="mask0_647_26152" style="mask-type:alpha" maskUnits="userSpaceOnUse" x="0" y="4" width="365" height="134">
<path d="M178.52 111.16L178.277 110.19L178.277 110.19L178.277 110.19L178.276 110.19L178.275 110.19L178.275 110.191L178.274 110.191L178.273 110.191L178.272 110.191L178.271 110.192L178.271 110.192L178.27 110.192L178.27 110.192L178.27 110.192L178.269 110.192L178.269 110.192L178.268 110.192L178.267 110.192L178.266 110.193L178.265 110.193L178.265 110.193L178.265 110.193L178.264 110.193L178.263 110.193L178.263 110.193L178.263 110.193L178.263 110.194L178.262 110.194L178.262 110.194L178.262 110.194L178.261 110.194L178.261 110.194L178.261 110.194L178.26 110.194L178.26 110.194L178.259 110.194L178.259 110.195L178.258 110.195L178.258 110.195L178.258 110.195L178.258 110.195L178.257 110.195L178.256 110.195L178.255 110.195L178.255 110.195L178.255 110.196L178.254 110.196L178.254 110.196L178.253 110.196L178.253 110.196L178.252 110.196L178.251 110.196L178.25 110.197L178.249 110.197L178.248 110.197L178.248 110.197L178.247 110.197L178.247 110.197L178.247 110.198L178.246 110.198L178.245 110.198L178.245 110.198L178.244 110.198L178.243 110.199L178.242 110.199L178.241 110.199L178.24 110.199L178.24 110.199L178.24 110.199L178.239 110.199L178.239 110.199L178.239 110.199L178.238 110.2L178.238 110.2L178.238 110.2L178.237 110.2L178.236 110.2L178.235 110.2L178.234 110.201L178.233 110.201L178.233 110.201L178.233 110.201L178.232 110.201L178.232 110.201L178.232 110.201L178.232 110.201L178.231 110.201L178.231 110.201L178.231 110.201L178.23 110.202L178.23 110.202L178.229 110.202L178.229 110.202L178.228 110.202L178.227 110.203L178.226 110.203L178.226 110.203L178.225 110.203L178.225 110.203L178.225 110.203L178.224 110.203L178.224 110.203L178.224 110.203L178.224 110.203L178.223 110.203L178.223 110.203L178.223 110.203L178.222 110.204L178.221 110.204L178.221 110.204L178.221 110.204L178.22 110.204L178.22 110.204L178.22 110.204L178.219 110.204L178.218 110.205L178.218 110.205L178.218 110.205L178.218 110.205L178.217 110.205L178.217 110.205L178.217 110.205L178.216 110.205L178.215 110.205L178.215 110.206L178.214 110.206L178.213 110.206L178.212 110.206L178.211 110.207L178.211 110.207L178.21 110.207L178.21 110.207L178.21 110.207L178.209 110.207L178.209 110.207L178.208 110.207L178.207 110.207L178.206 110.208L178.205 110.208L178.205 110.208L178.205 110.208L178.204 110.208L178.204 110.208L178.203 110.208L178.203 110.208L178.203 110.208L178.203 110.209L178.202 110.209L178.202 110.209L178.202 110.209L178.202 110.209L178.201 110.209L178.201 110.209L178.201 110.209L178.201 110.209L178.2 110.209L178.199 110.209L178.199 110.21L178.198 110.21L178.198 110.21L178.198 110.21L178.198 110.21L178.197 110.21L178.196 110.21L178.196 110.21L178.196 110.21L178.195 110.21L178.195 110.21L178.195 110.211L178.194 110.211L178.194 110.211L178.193 110.211L178.193 110.211L178.193 110.211L178.193 110.211L178.192 110.211L178.191 110.211L178.19 110.212L178.189 110.212L178.188 110.212L178.188 110.212L178.187 110.212L178.187 110.212L178.187 110.212L178.187 110.213L178.186 110.213L178.186 110.213L178.185 110.213L178.184 110.213L178.183 110.214L178.182 110.214L178.181 110.214L178.18 110.214L178.18 110.214L178.18 110.214L178.18 110.214L178.179 110.214L178.179 110.214L178.178 110.215L178.178 110.215L178.178 110.215L178.177 110.215L178.176 110.215L178.175 110.215L178.174 110.216L178.173 110.216L178.173 110.216L178.173 110.216L178.172 110.216L178.172 110.216L178.172 110.216L178.171 110.216L178.171 110.216L178.171 110.216L178.171 110.217L178.17 110.217L178.169 110.217L178.169 110.217L178.168 110.217L178.167 110.218L178.166 110.218L178.166 110.218L178.165 110.218L178.165 110.218L178.165 110.218L178.165 110.218L178.164 110.218L178.164 110.218L178.164 110.218L178.164 110.218L178.163 110.218L178.163 110.218L178.163 110.218L178.163 110.219L178.162 110.219L178.162 110.219L178.161 110.219L178.16 110.219L178.16 110.219L178.16 110.219L178.159 110.219L178.159 110.219L178.158 110.22L178.158 110.22L178.158 110.22L178.158 110.22L178.157 110.22L178.147 110.223L178.136 110.225C173.271 111.556 169.803 112.175 166.851 112.291L166.837 112.291C166.485 112.31 166.228 112.31 165.96 112.31C162.105 112.31 158.646 111.306 155.842 109.499L155.254 109.121L154.697 109.542C153.852 110.18 152.909 110.756 151.846 111.269L151.842 111.271C149.412 112.453 147.011 112.799 145.366 112.954L145.357 112.955C144.809 113.012 143.98 113.061 141.678 113.181C140.334 113.252 139.174 113.343 138.241 113.446L138.234 113.447C137.363 113.548 136.566 113.661 135.822 113.808C135.761 113.819 135.697 113.829 135.617 113.842C135.545 113.853 135.458 113.866 135.368 113.881L135.106 113.916C135.031 113.924 134.963 113.934 134.919 113.94C134.888 113.944 134.866 113.948 134.848 113.95C134.833 113.952 134.821 113.953 134.809 113.954L134.794 113.955L134.779 113.957C133.598 114.101 132.394 114.159 131.166 114.14L130.986 114.137L130.817 114.197C129.485 114.667 128.19 114.989 126.884 115.169L126.877 115.17C126.17 115.273 125.338 115.33 124.5 115.33C122.998 115.33 121.516 115.132 120.104 114.745L119.584 114.603L119.179 114.959C118.309 115.725 117.469 116.311 116.734 116.753L116.73 116.756C116.062 117.162 115.33 117.493 114.57 117.752C114.569 117.753 114.568 117.753 114.567 117.754L114.274 117.851L114.224 117.868L114.177 117.889C113.389 118.246 112.555 118.512 111.694 118.678C109.408 119.11 108.124 119.053 101.232 118.701C101.232 118.701 101.231 118.701 101.231 118.701L100.083 118.641C96.0559 118.429 94.0742 118.638 93.4679 118.732L93.374 118.746L93.2846 118.778C92.6456 119.005 90.6075 119.783 86.264 121.965C80.0872 125.008 77.851 126.058 75.6508 126.677C72.6157 127.521 69.5249 127.507 66.9499 126.842L66.4753 126.719L66.0877 127.019C62.2798 129.968 57.8671 132.328 52.9313 134.046C50.1237 135.02 47.4843 135.578 44.9397 135.732L44.8014 135.74L44.6706 135.786C42.402 136.577 39.9238 136.99 37.3399 136.99C36.6785 136.99 35.9859 136.961 35.2818 136.903L35.241 136.9H35.1999H35.1997H35.1995H35.1992H35.199H35.1988H35.1985H35.1983H35.1981H35.1978H35.1976H35.1974H35.1971H35.1969H35.1967H35.1964H35.1962H35.196H35.1957H35.1955H35.1953H35.1951H35.1948H35.1946H35.1944H35.1941H35.1939H35.1937H35.1934H35.1932H35.193H35.1928H35.1925H35.1923H35.1921H35.1919H35.1916H35.1914H35.1912H35.1909H35.1907H35.1905H35.1903H35.19H35.1898H35.1896H35.1894H35.1891H35.1889H35.1887H35.1885H35.1882H35.188H35.1878H35.1876H35.1874H35.1871H35.1869H35.1867H35.1865H35.1862H35.186H35.1858H35.1856H35.1854H35.1851H35.1849H35.1847H35.1845H35.1842H35.184H35.1838H35.1836H35.1834H35.1831H35.1829H35.1827H35.1825H35.1823H35.182H35.1818H35.1816H35.1814H35.1812H35.181H35.1807H35.1805H35.1803H35.1801H35.1799H35.1796H35.1794H35.1792H35.179H35.1788H35.1786H35.1783H35.1781H35.1779H35.1777H35.1775H35.1773H35.1771H35.1768H35.1766H35.1764H35.1762H35.176H35.1758H35.1755H35.1753H35.1751H35.1749H35.1747H35.1745H35.1743H35.174H35.1738H35.1736H35.1734H35.1732H35.173H35.1728H35.1726H35.1723H35.1721H35.1719H35.1717H35.1715H35.1713H35.1711H35.1709H35.1706H35.1704H35.1702H35.17H35.1698H35.1696H35.1694H35.1692H35.1689H35.1687H35.1685H35.1683H35.1681H35.1679H35.1677H35.1675H35.1673H35.167H35.1668H35.1666H35.1664H35.1662H35.166H35.1658H35.1656H35.1654H35.1652H35.165H35.1647H35.1645H35.1643H35.1641H35.1639H35.1637H35.1635H35.1633H35.1631H35.1629H35.1627H35.1624H35.1622H35.162H35.1618H35.1616H35.1614H35.1612H35.161H35.1608H35.1606H35.1604H35.1602H35.16H35.1597H35.1595H35.1593H35.1591H35.1589H35.1587H35.1585H35.1583H35.1581H35.1579H35.1577H35.1575H35.1573H35.1571H35.1568H35.1566H35.1564H35.1562H35.156H35.1558H35.1556H35.1554H35.1552H35.155H35.1548H35.1546H35.1544H35.1542H35.154H35.1538H35.1535H35.1533H35.1531H35.1529H35.1527H35.1525H35.1523H35.1521H35.1519H35.1517H35.1515H35.1513H35.1511H35.1509H35.1507H35.1505H35.1503H35.1501H35.1498H35.1496H35.1494H35.1492H35.149H35.1488H35.1486H35.1484H35.1482H35.148H35.1478H35.1476H35.1474H35.1472H35.147H35.1468H35.1466H35.1464H35.1462H35.146H35.1457H35.1455H35.1453H35.1451H35.1449H35.1447H35.1445H35.1443H35.1441H35.1439H35.1437H35.1435H35.1433H35.1431H35.1429H35.1427H35.1425H35.1423H35.1421H35.1418H35.1416H35.1414H35.1412H35.141H35.1408H35.1406H35.1404H35.1402H35.14H35.1398H35.1396H35.1394H35.1392H35.139H35.1388H35.1386H35.1384H35.1382H35.1379H35.1377H35.1375H35.1373H35.1371H35.1369H35.1367H35.1365H35.1363H35.1361H35.1359H35.1357H35.1355H35.1353H35.1351H35.1349H35.1347H35.1344C32.9754 136.705 30.8558 136.235 28.8124 135.49L28.6786 135.442L28.5364 135.432C27.1067 135.337 25.6309 135.089 24.078 134.674L24.0744 134.673C18.0734 133.094 13.6672 129.37 11.6085 124.229C10.2298 120.772 10.0306 117.042 10.9765 113.476L11.1436 112.846L10.6346 112.439C10.2934 112.166 9.95632 111.887 9.63155 111.6C9.00582 111.048 8.44784 110.434 7.97441 109.77L7.90834 109.677L7.82311 109.602C7.1076 108.968 6.47486 108.218 5.92827 107.385C4.06019 104.493 3.15207 102.838 2.5084 101.229C0.72011 96.7529 0.526866 92.022 1.90232 87.7249L1.92078 87.6672L1.93215 87.6077C3.32304 80.3294 8.29774 73.8719 17.376 67.9477C17.7495 67.705 18.1228 67.4871 18.5074 67.2992C18.5079 67.299 18.5083 67.2988 18.5088 67.2986L19.2068 66.9595L19.2984 66.915L19.3791 66.8531C20.0337 66.3503 20.7103 65.8998 21.4288 65.5079L21.4331 65.5055C25.5306 63.2445 29.9168 61.308 34.4929 59.7464L35.6715 59.3442L35.0243 58.2803L12.7843 21.7203L12.7839 21.7198C10.7129 18.3199 10.6478 14.0758 12.5921 10.6092C14.5348 7.14529 18.2009 5 22.1799 5H341.7C345.679 5 349.345 7.14529 351.288 10.6092C353.231 14.0748 353.158 18.3292 351.096 21.7203L328.426 58.9903L327.676 60.2229L329.093 60.4924C333.298 61.2919 337.547 62.4674 341.74 63.9803C348.664 66.4864 353.734 69.272 357.303 72.4653L357.311 72.4726C357.671 72.7873 358.007 73.1321 358.329 73.5093L358.33 73.5101L359.092 74.4002C359.093 74.4021 359.095 74.404 359.097 74.406C359.429 74.8048 359.727 75.1959 359.984 75.6033L359.988 75.6103C363.223 80.6475 363.871 86.1927 361.889 91.2555L361.887 91.2593C360.684 94.3719 358.558 97.0095 355.685 98.9284L355.603 98.9831L355.535 99.0506C355.535 99.0506 355.535 99.0506 355.535 99.0508C355.534 99.0521 355.527 99.0579 355.511 99.0726L355.507 99.0757C355.487 99.0933 355.445 99.131 355.403 99.1729L354.976 99.5994L355.155 100.176C356.742 105.302 356.762 110.91 355.192 116.917C355.018 117.576 354.78 118.227 354.486 118.853C354.486 118.853 354.485 118.854 354.485 118.854L353.778 120.339C353.484 120.955 353.135 121.541 352.734 122.089L352.732 122.09C350.715 124.852 348.509 127.241 346.157 129.214L346.148 129.222C340.004 134.501 332.98 136.903 326.024 136.175L325.955 136.168L325.887 136.171C320.609 136.346 315.191 135.488 309.715 133.604L309.715 133.604C306.907 132.639 304.481 131.447 302.387 130.006L302.276 129.93L302.148 129.885C299.178 128.854 296.476 127.2 294.04 124.937L294.024 124.922L294.006 124.907C293.913 124.828 293.822 124.738 293.697 124.613L293.373 124.289L292.917 124.323C291.202 124.449 289.145 124.45 285.964 124.341L285.947 124.34H285.93H285.93H285.929H285.929H285.928H285.928H285.927H285.927H285.927H285.926H285.926H285.925H285.925H285.925H285.924H285.924H285.923H285.923H285.923H285.922H285.922H285.921H285.921H285.921H285.92H285.92H285.919H285.919H285.918H285.918H285.918H285.917H285.917H285.916H285.916H285.916H285.915H285.915H285.914H285.914H285.914H285.913H285.913H285.912H285.912H285.911H285.911H285.911H285.91H285.91H285.909H285.909H285.909H285.908H285.908H285.907H285.907H285.907H285.906H285.906H285.905H285.905H285.905H285.904H285.904H285.903H285.903H285.902H285.902H285.902H285.901H285.901H285.9H285.9H285.9H285.899H285.899H285.898H285.898H285.898H285.897H285.897H285.896H285.896H285.895H285.895H285.895H285.894H285.894H285.893H285.893H285.893H285.892H285.892H285.891H285.891H285.891H285.89H285.89H285.889H285.889H285.888H285.888H285.888H285.887H285.887H285.886H285.886H285.886H285.885H285.885H285.884H285.884H285.884H285.883H285.883H285.882H285.882H285.882H285.881H285.881H285.88H285.88H285.879H285.879H285.879H285.878H285.878H285.877H285.877H285.877H285.876H285.876H285.875H285.875H285.875H285.874H285.874H285.873H285.873H285.872H285.872H285.872H285.871H285.871H285.87H285.87H285.87H285.869H285.869H285.868H285.868H285.868H285.867H285.867H285.866H285.866H285.866H285.865H285.865H285.864H285.864H285.863H285.863H285.863H285.862H285.862H285.861H285.861H285.861H285.86H285.86H285.859H285.859H285.859H285.858H285.858H285.857H285.857H285.857H285.856H285.856H285.855H285.855H285.854H285.854H285.854H285.853H285.853H285.852H285.852H285.852H285.851H285.851H285.85H285.85H285.85H285.849H285.849H285.848H285.848H285.847H285.847H285.847H285.846H285.846H285.845H285.845H285.845H285.844H285.844H285.843H285.843H285.843H285.842H285.842H285.841H285.841H285.841H285.84H285.84H285.839H285.839H285.838H285.838H285.838H285.837H285.837H285.836H285.836H285.836H285.835H285.835H285.834H285.834H285.834H285.833H285.833H285.832H285.832H285.831H285.831H285.831H285.83H285.83H285.829H285.829H285.829H285.828H285.828H285.827H285.827H285.827H285.826H285.826H285.825H285.825H285.825H285.824H285.824H285.823H285.823H285.822H285.822H285.822H285.821H285.821H285.82H285.82H285.82H285.819H285.819H285.818H285.818H285.818H285.817H285.817H285.816H285.816H285.815H285.815H285.815H285.814H285.814H285.813H285.813H285.813H285.812H285.812H285.811H285.811H285.811H285.81H285.81H285.809H285.809H285.809H285.808H285.808H285.807H285.807H285.806H285.806H285.806H285.805H285.805H285.804H285.804H285.804H285.803H285.803H285.802H285.802H285.802H285.801H285.801H285.8H285.8H285.799H285.799H285.799H285.798H285.798H285.797H285.797H285.797H285.796H285.796H285.795H285.795H285.795H285.794H285.794H285.793H285.793H285.793H285.792H285.792H285.791H285.791H285.79H285.79H285.79H285.789H285.789H285.788H285.788H285.788H285.787H285.787H285.786H285.786H285.786H285.785H285.785H285.784H285.784H285.783H285.783H285.783H285.782H285.782H285.781H285.781H285.781H285.78H285.78H285.779H285.779H285.779H285.778H285.778H285.777H285.777H285.777H285.776H285.776H285.775H285.775H285.774H285.774H285.774H285.773H285.773H285.772H285.772H285.772H285.771H285.771H285.77H285.77H285.77H285.769H285.769H285.768H285.768H285.767H285.767H285.767H285.766H285.766H285.765H285.765H285.765H285.764H285.764H285.763H285.763H285.763H285.762H285.762H285.761H285.761H285.761H285.76H285.76H285.759H285.759H285.758H285.758H285.758H285.757H285.757H285.756H285.756H285.756H285.755H285.755H285.754H285.754H285.754H285.753H285.753H285.752H285.752H285.751H285.751H285.751H285.75H285.75H285.749H285.749H285.749H285.748H285.748H285.747H285.747H285.747H285.746C281.593 124.121 278.45 123.717 275.841 123.069L275.835 123.068C273.449 122.491 271.461 121.647 269.826 120.688L269.578 120.542L269.291 120.55C268.659 120.569 268.027 120.532 267.405 120.441L267.404 120.44C263.885 119.929 260.235 119.448 256.585 119.027L256.575 119.025C256.416 119.009 256.253 118.983 256.06 118.953C256.059 118.953 256.057 118.952 256.056 118.952L255.524 118.864L255.492 118.858L255.459 118.855C255.42 118.851 255.366 118.841 255.287 118.824L255.271 118.82L255.256 118.817C251.327 118.074 248.455 116.684 246.339 115.057L245.969 114.772L245.513 114.874C245.38 114.903 245.245 114.933 245.107 114.963C244.97 114.993 244.831 115.023 244.694 115.054C243.894 115.23 243.087 115.33 242.29 115.33H240.39C239.569 115.33 238.782 115.247 237.996 115.074L237.995 115.073C237.146 114.887 236.581 114.783 236.236 114.721C236.167 114.708 236.106 114.697 236.054 114.687L235.963 114.67H235.87H235.34C234.926 114.67 234.501 114.635 234.058 114.578C232.886 114.424 231.714 114.184 230.55 113.857L230.374 113.808L230.192 113.824C228.782 113.949 227.452 113.938 226.167 113.787L226.161 113.786C223.212 113.455 220.457 112.378 218.138 110.691L218.048 110.626L217.946 110.582C217.488 110.384 217.043 110.149 216.612 109.884C216.534 109.834 216.458 109.787 216.393 109.748L216.389 109.745C216.317 109.702 216.258 109.666 216.201 109.629L215.827 109.389L215.398 109.505C213.658 109.977 211.591 110.452 208.532 111.07L208.51 111.074L208.487 111.08C208.47 111.084 208.454 111.089 208.441 111.092L208.412 111.098C203.992 111.942 200.811 112.31 198.08 112.31C197.664 112.31 197.312 112.31 196.974 112.291L196.966 112.291L196.958 112.291C192.15 112.109 188.492 110.525 185.816 108.318L185.377 107.957L184.842 108.149C183.173 108.748 181.138 109.38 178.248 110.198L178.52 111.16ZM178.52 111.16C181.42 110.34 183.48 109.7 185.18 109.09M178.52 111.16L178.4 111.19C173.5 112.53 169.95 113.17 166.89 113.29C166.51 113.31 166.23 113.31 165.96 113.31C161.93 113.31 158.28 112.26 155.3 110.34C154.4 111.02 153.4 111.63 152.28 112.17C149.69 113.43 147.15 113.79 145.46 113.95C144.88 114.01 144.02 114.06 141.73 114.18C140.4 114.25 139.26 114.34 138.35 114.44C137.49 114.54 136.72 114.65 136.01 114.79C135.923 114.806 135.837 114.82 135.748 114.833C135.674 114.845 135.598 114.856 135.52 114.87L185.18 109.09M185.18 109.09C188.03 111.44 191.9 113.1 196.92 113.29C197.29 113.31 197.67 113.31 198.08 113.31C200.9 113.31 204.15 112.93 208.6 112.08C208.628 112.08 208.662 112.07 208.693 112.061C208.706 112.057 208.718 112.053 208.73 112.05C211.8 111.43 213.89 110.95 215.66 110.47L185.18 109.09Z" fill="white" stroke="#07090D" stroke-width="2"/>
</mask>
<g mask="url(#mask0_647_26152)">
<path d="M1.98804 -97L-388.012 293" stroke="black" stroke-width="1.5"/>
<path d="M6.98804 -97L-383.012 293" stroke="black" stroke-width="1.5"/>
<path d="M11.988 -97L-378.012 293" stroke="black" stroke-width="1.5"/>
<path d="M16.988 -97L-373.012 293" stroke="black" stroke-width="1.5"/>
<path d="M21.988 -97L-368.012 293" stroke="black" stroke-width="1.5"/>
<path d="M26.988 -97L-363.012 293" stroke="black" stroke-width="1.5"/>
<path d="M31.988 -97L-358.012 293" stroke="black" stroke-width="1.5"/>
<path d="M36.988 -97L-353.012 293" stroke="black" stroke-width="1.5"/>
<path d="M41.988 -97L-348.012 293" stroke="black" stroke-width="1.5"/>
<path d="M46.988 -97L-343.012 293" stroke="black" stroke-width="1.5"/>
<path d="M51.988 -97L-338.012 293" stroke="black" stroke-width="1.5"/>
<path d="M56.988 -97L-333.012 293" stroke="black" stroke-width="1.5"/>
<path d="M61.988 -97L-328.012 293" stroke="black" stroke-width="1.5"/>
<path d="M66.988 -97L-323.012 293" stroke="black" stroke-width="1.5"/>
<path d="M71.988 -97L-318.012 293" stroke="black" stroke-width="1.5"/>
<path d="M76.988 -97L-313.012 293" stroke="black" stroke-width="1.5"/>
<path d="M81.988 -97L-308.012 293" stroke="black" stroke-width="1.5"/>
<path d="M86.988 -97L-303.012 293" stroke="black" stroke-width="1.5"/>
<path d="M91.988 -97L-298.012 293" stroke="black" stroke-width="1.5"/>
<path d="M96.988 -97L-293.012 293" stroke="black" stroke-width="1.5"/>
<path d="M101.988 -97L-288.012 293" stroke="black" stroke-width="1.5"/>
<path d="M106.988 -97L-283.012 293" stroke="black" stroke-width="1.5"/>
<path d="M111.988 -97L-278.012 293" stroke="black" stroke-width="1.5"/>
<path d="M116.988 -97L-273.012 293" stroke="black" stroke-width="1.5"/>
<path d="M121.988 -97L-268.012 293" stroke="black" stroke-width="1.5"/>
<path d="M126.988 -97L-263.012 293" stroke="black" stroke-width="1.5"/>
<path d="M131.988 -97L-258.012 293" stroke="black" stroke-width="1.5"/>
<path d="M136.988 -97L-253.012 293" stroke="black" stroke-width="1.5"/>
<path d="M141.988 -97L-248.012 293" stroke="black" stroke-width="1.5"/>
<path d="M146.988 -97L-243.012 293" stroke="black" stroke-width="1.5"/>
<path d="M151.988 -97L-238.012 293" stroke="black" stroke-width="1.5"/>
<path d="M156.988 -97L-233.012 293" stroke="black" stroke-width="1.5"/>
<path d="M161.988 -97L-228.012 293" stroke="black" stroke-width="1.5"/>
<path d="M166.988 -97L-223.012 293" stroke="black" stroke-width="1.5"/>
<path d="M171.988 -97L-218.012 293" stroke="black" stroke-width="1.5"/>
<path d="M176.988 -97L-213.012 293" stroke="black" stroke-width="1.5"/>
<path d="M181.988 -97L-208.012 293" stroke="black" stroke-width="1.5"/>
<path d="M186.988 -97L-203.012 293" stroke="black" stroke-width="1.5"/>
<path d="M191.988 -97L-198.012 293" stroke="black" stroke-width="1.5"/>
<path d="M196.988 -97L-193.012 293" stroke="black" stroke-width="1.5"/>
<path d="M201.988 -97L-188.012 293" stroke="black" stroke-width="1.5"/>
<path d="M206.988 -97L-183.012 293" stroke="black" stroke-width="1.5"/>
<path d="M211.988 -97L-178.012 293" stroke="black" stroke-width="1.5"/>
<path d="M216.988 -97L-173.012 293" stroke="black" stroke-width="1.5"/>
<path d="M221.988 -97L-168.012 293" stroke="black" stroke-width="1.5"/>
<path d="M226.988 -97L-163.012 293" stroke="black" stroke-width="1.5"/>
<path d="M231.988 -97L-158.012 293" stroke="black" stroke-width="1.5"/>
<path d="M236.988 -97L-153.012 293" stroke="black" stroke-width="1.5"/>
<path d="M241.988 -97L-148.012 293" stroke="black" stroke-width="1.5"/>
<path d="M246.988 -97L-143.012 293" stroke="black" stroke-width="1.5"/>
<path d="M251.988 -97L-138.012 293" stroke="black" stroke-width="1.5"/>
<path d="M256.988 -97L-133.012 293" stroke="black" stroke-width="1.5"/>
<path d="M261.988 -97L-128.012 293" stroke="black" stroke-width="1.5"/>
<path d="M266.988 -97L-123.012 293" stroke="black" stroke-width="1.5"/>
<path d="M271.988 -97L-118.012 293" stroke="black" stroke-width="1.5"/>
<path d="M276.988 -97L-113.012 293" stroke="black" stroke-width="1.5"/>
<path d="M281.988 -97L-108.012 293" stroke="black" stroke-width="1.5"/>
<path d="M286.988 -97L-103.012 293" stroke="black" stroke-width="1.5"/>
<path d="M291.988 -97L-98.012 293" stroke="black" stroke-width="1.5"/>
<path d="M296.988 -97L-93.012 293" stroke="black" stroke-width="1.5"/>
<path d="M301.988 -97L-88.012 293" stroke="black" stroke-width="1.5"/>
<path d="M306.988 -97L-83.012 293" stroke="black" stroke-width="1.5"/>
<path d="M311.988 -97L-78.012 293" stroke="black" stroke-width="1.5"/>
<path d="M316.988 -97L-73.012 293" stroke="black" stroke-width="1.5"/>
<path d="M321.988 -97L-68.012 293" stroke="black" stroke-width="1.5"/>
<path d="M326.988 -97L-63.012 293" stroke="black" stroke-width="1.5"/>
<path d="M331.988 -97L-58.012 293" stroke="black" stroke-width="1.5"/>
<path d="M336.988 -97L-53.012 293" stroke="black" stroke-width="1.5"/>
<path d="M341.988 -97L-48.012 293" stroke="black" stroke-width="1.5"/>
<path d="M346.988 -97L-43.012 293" stroke="black" stroke-width="1.5"/>
<path d="M351.988 -97L-38.012 293" stroke="black" stroke-width="1.5"/>
<path d="M356.988 -97L-33.012 293" stroke="black" stroke-width="1.5"/>
<path d="M361.988 -97L-28.012 293" stroke="black" stroke-width="1.5"/>
<path d="M366.988 -97L-23.012 293" stroke="black" stroke-width="1.5"/>
<path d="M371.988 -97L-18.012 293" stroke="black" stroke-width="1.5"/>
<path d="M376.988 -97L-13.012 293" stroke="black" stroke-width="1.5"/>
<path d="M381.988 -97L-8.01196 293" stroke="black" stroke-width="1.5"/>
<path d="M386.988 -97L-3.01196 293" stroke="black" stroke-width="1.5"/>
<path d="M391.988 -97L1.98804 293" stroke="black" stroke-width="1.5"/>
<path d="M396.988 -97L6.98804 293" stroke="black" stroke-width="1.5"/>
<path d="M401.988 -97L11.988 293" stroke="black" stroke-width="1.5"/>
<path d="M406.988 -97L16.988 293" stroke="black" stroke-width="1.5"/>
<path d="M411.988 -97L21.988 293" stroke="black" stroke-width="1.5"/>
<path d="M416.988 -97L26.988 293" stroke="black" stroke-width="1.5"/>
<path d="M421.988 -97L31.988 293" stroke="black" stroke-width="1.5"/>
<path d="M426.988 -97L36.988 293" stroke="black" stroke-width="1.5"/>
<path d="M431.988 -97L41.988 293" stroke="black" stroke-width="1.5"/>
<path d="M436.988 -97L46.988 293" stroke="black" stroke-width="1.5"/>
<path d="M441.988 -97L51.988 293" stroke="black" stroke-width="1.5"/>
<path d="M446.988 -97L56.988 293" stroke="black" stroke-width="1.5"/>
<path d="M451.988 -97L61.988 293" stroke="black" stroke-width="1.5"/>
<path d="M456.988 -97L66.988 293" stroke="black" stroke-width="1.5"/>
<path d="M461.988 -97L71.988 293" stroke="black" stroke-width="1.5"/>
<path d="M466.988 -97L76.988 293" stroke="black" stroke-width="1.5"/>
<path d="M471.988 -97L81.988 293" stroke="black" stroke-width="1.5"/>
<path d="M476.988 -97L86.988 293" stroke="black" stroke-width="1.5"/>
<path d="M481.988 -97L91.988 293" stroke="black" stroke-width="1.5"/>
<path d="M486.988 -97L96.988 293" stroke="black" stroke-width="1.5"/>
<path d="M491.988 -97L101.988 293" stroke="black" stroke-width="1.5"/>
<path d="M496.988 -97L106.988 293" stroke="black" stroke-width="1.5"/>
<path d="M501.988 -97L111.988 293" stroke="black" stroke-width="1.5"/>
<path d="M506.988 -97L116.988 293" stroke="black" stroke-width="1.5"/>
<path d="M511.988 -97L121.988 293" stroke="black" stroke-width="1.5"/>
<path d="M516.988 -97L126.988 293" stroke="black" stroke-width="1.5"/>
<path d="M521.988 -97L131.988 293" stroke="black" stroke-width="1.5"/>
<path d="M526.988 -97L136.988 293" stroke="black" stroke-width="1.5"/>
<path d="M531.988 -97L141.988 293" stroke="black" stroke-width="1.5"/>
<path d="M536.988 -97L146.988 293" stroke="black" stroke-width="1.5"/>
<path d="M541.988 -97L151.988 293" stroke="black" stroke-width="1.5"/>
<path d="M546.988 -97L156.988 293" stroke="black" stroke-width="1.5"/>
<path d="M551.988 -97L161.988 293" stroke="black" stroke-width="1.5"/>
<path d="M556.988 -97L166.988 293" stroke="black" stroke-width="1.5"/>
<path d="M561.988 -97L171.988 293" stroke="black" stroke-width="1.5"/>
<path d="M566.988 -97L176.988 293" stroke="black" stroke-width="1.5"/>
<path d="M571.988 -97L181.988 293" stroke="black" stroke-width="1.5"/>
<path d="M576.988 -97L186.988 293" stroke="black" stroke-width="1.5"/>
<path d="M581.988 -97L191.988 293" stroke="black" stroke-width="1.5"/>
<path d="M586.988 -97L196.988 293" stroke="black" stroke-width="1.5"/>
<path d="M591.988 -97L201.988 293" stroke="black" stroke-width="1.5"/>
<path d="M596.988 -97L206.988 293" stroke="black" stroke-width="1.5"/>
<path d="M601.988 -97L211.988 293" stroke="black" stroke-width="1.5"/>
<path d="M606.988 -97L216.988 293" stroke="black" stroke-width="1.5"/>
<path d="M611.988 -97L221.988 293" stroke="black" stroke-width="1.5"/>
<path d="M616.988 -97L226.988 293" stroke="black" stroke-width="1.5"/>
<path d="M621.988 -97L231.988 293" stroke="black" stroke-width="1.5"/>
<path d="M626.988 -97L236.988 293" stroke="black" stroke-width="1.5"/>
<path d="M631.988 -97L241.988 293" stroke="black" stroke-width="1.5"/>
<path d="M636.988 -97L246.988 293" stroke="black" stroke-width="1.5"/>
<path d="M641.988 -97L251.988 293" stroke="black" stroke-width="1.5"/>
<path d="M646.988 -97L256.988 293" stroke="black" stroke-width="1.5"/>
<path d="M651.988 -97L261.988 293" stroke="black" stroke-width="1.5"/>
<path d="M656.988 -97L266.988 293" stroke="black" stroke-width="1.5"/>
<path d="M661.988 -97L271.988 293" stroke="black" stroke-width="1.5"/>
<path d="M666.988 -97L276.988 293" stroke="black" stroke-width="1.5"/>
<path d="M671.988 -97L281.988 293" stroke="black" stroke-width="1.5"/>
<path d="M676.988 -97L286.988 293" stroke="black" stroke-width="1.5"/>
<path d="M681.988 -97L291.988 293" stroke="black" stroke-width="1.5"/>
<path d="M686.988 -97L296.988 293" stroke="black" stroke-width="1.5"/>
<path d="M691.988 -97L301.988 293" stroke="black" stroke-width="1.5"/>
<path d="M696.988 -97L306.988 293" stroke="black" stroke-width="1.5"/>
<path d="M701.988 -97L311.988 293" stroke="black" stroke-width="1.5"/>
<path d="M706.988 -97L316.988 293" stroke="black" stroke-width="1.5"/>
<path d="M711.988 -97L321.988 293" stroke="black" stroke-width="1.5"/>
<path d="M716.988 -97L326.988 293" stroke="black" stroke-width="1.5"/>
<path d="M721.988 -97L331.988 293" stroke="black" stroke-width="1.5"/>
<path d="M726.988 -97L336.988 293" stroke="black" stroke-width="1.5"/>
<path d="M731.988 -97L341.988 293" stroke="black" stroke-width="1.5"/>
<path d="M736.988 -97L346.988 293" stroke="black" stroke-width="1.5"/>
<path d="M741.988 -97L351.988 293" stroke="black" stroke-width="1.5"/>
<path d="M746.988 -97L356.988 293" stroke="black" stroke-width="1.5"/>
<path d="M751.988 -97L361.988 293" stroke="black" stroke-width="1.5"/>
</g>
</svg>
