<svg width="229" height="207" viewBox="0 0 229 207" fill="none" xmlns="http://www.w3.org/2000/svg">
<path d="M44.3928 60.5113L45.1736 60.2235L45.0324 59.4034C44.949 58.9189 44.8688 58.4362 44.7918 57.9554C43.1527 47.7248 42.8431 37.6383 44.742 28.7601C46.6383 19.8948 51.1843 10.5141 60.6294 5.06096C70.0745 -0.392155 80.4714 0.361181 89.0971 3.15167C97.7353 5.94619 106.316 11.2576 114.356 17.7924C114.734 18.0995 115.112 18.4103 115.49 18.7248L116.129 19.2571L116.769 18.7248C117.147 18.4103 117.525 18.0995 117.903 17.7924C125.943 11.2577 134.523 5.94625 143.162 3.15173C151.787 0.361233 162.184 -0.392093 171.629 5.06101C181.074 10.5141 185.621 19.8948 187.517 28.7602C189.416 37.6383 189.106 47.7248 187.467 57.9554C187.39 58.4362 187.31 58.9189 187.226 59.4033L187.085 60.2234L187.866 60.5112C188.327 60.6813 188.785 60.8531 189.24 61.0268C198.92 64.7226 207.81 69.4978 214.549 75.5814C221.279 81.6562 227.129 90.2836 227.129 101.19C227.129 112.096 221.279 120.723 214.549 126.798C207.81 132.882 198.92 137.657 189.24 141.353C188.785 141.527 188.327 141.698 187.866 141.868L187.085 142.156L187.226 142.976C187.31 143.461 187.39 143.943 187.467 144.424C189.106 154.655 189.416 164.741 187.517 173.619C185.621 182.485 181.074 191.865 171.629 197.319C162.184 202.772 151.787 202.018 143.162 199.228C134.523 196.433 125.943 191.122 117.903 184.587C117.525 184.28 117.147 183.969 116.769 183.655L116.129 183.123L115.49 183.655C115.112 183.969 114.734 184.28 114.356 184.587C106.316 191.122 97.7353 196.433 89.0972 199.228C80.4714 202.018 70.0745 202.772 60.6294 197.319C51.1843 191.866 46.6383 182.485 44.742 173.619C42.8431 164.741 43.1527 154.655 44.7918 144.424C44.8688 143.943 44.949 143.461 45.0324 142.976L45.1736 142.156L44.3928 141.868C43.9315 141.698 43.4734 141.527 43.0186 141.353C33.3391 137.657 24.4491 132.882 17.7098 126.798C10.9803 120.723 5.12946 112.096 5.12946 101.19C5.12946 90.2836 10.9803 81.6562 17.7098 75.5814C24.4491 69.4978 33.3391 64.7226 43.0186 61.0268C43.4734 60.8532 43.9315 60.6813 44.3928 60.5113Z" fill="white" stroke="#07090D" stroke-width="2"/>
<path fill-rule="evenodd" clip-rule="evenodd" d="M83.0348 21.8912C77.5196 20.107 73.4076 20.4261 70.4772 22.118C67.5468 23.8098 65.2145 27.2113 64.002 32.8797C62.7897 38.5475 62.823 45.9988 64.2394 54.8397C64.7836 58.2364 65.5263 61.8035 66.4637 65.5103C74.6904 63.6482 83.6569 62.24 93.1357 61.3636C98.6341 53.5929 104.337 46.5318 110.063 40.3383C107.321 37.6731 104.603 35.2464 101.934 33.0767C94.9858 27.4296 88.5494 23.6752 83.0348 21.8912ZM116.129 34.1086C113.207 31.2672 110.295 28.6669 107.418 26.3287C99.988 20.2898 92.605 15.8479 85.7113 13.6177C78.8182 11.3877 71.933 11.2366 66.1294 14.5873C60.3257 17.938 57.0141 23.9764 55.4987 31.061C53.9832 38.1462 54.1385 46.761 55.6533 56.2153C56.2397 59.8759 57.0358 63.6977 58.0353 67.6493C54.1135 68.7594 50.4057 69.9809 46.9423 71.3033C37.9972 74.7187 30.4589 78.8916 25.0807 83.7466C19.703 88.6013 16.1295 94.4884 16.1295 101.19C16.1295 107.891 19.703 113.779 25.0807 118.633C30.4589 123.488 37.9972 127.661 46.9423 131.076C50.4057 132.399 54.1134 133.62 58.0353 134.731C57.0358 138.682 56.2397 142.504 55.6533 146.164C54.1385 155.619 53.9833 164.234 55.4987 171.319C57.0141 178.403 60.3258 184.442 66.1294 187.792C71.933 191.143 78.8182 190.992 85.7113 188.762C92.605 186.532 99.988 182.09 107.418 176.051C110.295 173.713 113.207 171.113 116.129 168.271C119.052 171.113 121.964 173.713 124.84 176.051C132.271 182.09 139.654 186.532 146.547 188.762C153.441 190.992 160.326 191.143 166.129 187.792C171.933 184.442 175.245 178.403 176.76 171.319C178.276 164.234 178.12 155.619 176.606 146.164C176.019 142.504 175.223 138.682 174.224 134.731C178.145 133.62 181.853 132.399 185.317 131.076C194.262 127.661 201.8 123.488 207.178 118.633C212.556 113.779 216.129 107.891 216.129 101.19C216.129 94.4884 212.556 88.6013 207.178 83.7466C201.8 78.8916 194.262 74.7187 185.317 71.3033C181.853 69.9809 178.145 68.7594 174.224 67.6492C175.223 63.6977 176.019 59.8759 176.606 56.2153C178.12 46.761 178.276 38.1462 176.76 31.061C175.245 23.9764 171.933 17.9381 166.129 14.5874C160.326 11.2366 153.441 11.3878 146.547 13.6178C139.654 15.8479 132.271 20.2898 124.84 26.3288C121.964 28.667 119.052 31.2672 116.129 34.1086ZM116.129 46.5867C112.235 50.8233 108.329 55.5065 104.482 60.5838C108.305 60.4097 112.192 60.3203 116.129 60.3203C120.067 60.3203 123.954 60.4097 127.777 60.5838C123.93 55.5065 120.024 50.8233 116.129 46.5867ZM86.7872 70.7998C80.4666 71.5929 74.4581 72.6336 68.8417 73.8883C70.5633 79.3796 72.6662 85.1035 75.1398 90.9739C76.9005 87.5759 78.7666 84.1651 80.7353 80.7551C82.704 77.3452 84.7249 74.0237 86.7872 70.7998ZM79.7533 101.19C82.3092 95.8835 85.1492 90.5014 88.266 85.1029C91.3828 79.7045 94.6238 74.5539 97.9414 69.6873C103.815 69.2475 109.896 69.016 116.129 69.016C122.363 69.016 128.444 69.2475 134.317 69.6873C137.635 74.5539 140.876 79.7044 143.993 85.1029C147.11 90.5014 149.95 95.8835 152.505 101.19C149.95 106.496 147.11 111.878 143.993 117.277C140.876 122.675 137.635 127.826 134.317 132.693C128.444 133.132 122.363 133.364 116.129 133.364C109.896 133.364 103.815 133.132 97.9414 132.693C94.6238 127.826 91.3828 122.675 88.266 117.277C85.1492 111.878 82.3092 106.496 79.7533 101.19ZM70.142 101.19C66.1616 92.5428 62.8979 84.0735 60.3971 76.018C56.7183 77.0595 53.2578 78.1999 50.044 79.4269C41.6794 82.6207 35.2098 86.3176 30.9075 90.2013C26.6047 94.0855 24.8251 97.8062 24.8251 101.19C24.8251 104.574 26.6047 108.294 30.9075 112.178C35.2098 116.062 41.6794 119.759 50.044 122.953C53.2578 124.18 56.7183 125.32 60.3971 126.362C62.8979 118.306 66.1616 109.837 70.142 101.19ZM68.8417 128.491C70.5633 123 72.6662 117.276 75.1398 111.406C76.9005 114.804 78.7666 118.215 80.7353 121.625C82.7041 125.035 84.7249 128.356 86.7873 131.58C80.4666 130.787 74.4581 129.746 68.8417 128.491ZM66.4637 136.869C65.5263 140.576 64.7836 144.143 64.2394 147.54C62.823 156.381 62.7897 163.832 64.002 169.5C65.2145 175.168 67.5468 178.57 70.4772 180.262C73.4076 181.954 77.5196 182.273 83.0348 180.489C88.5494 178.705 94.9858 174.95 101.934 169.303C104.603 167.133 107.321 164.707 110.063 162.041C104.337 155.848 98.6341 148.787 93.1357 141.016C83.6569 140.14 74.6904 138.732 66.4637 136.869ZM122.196 162.041C124.937 164.707 127.655 167.133 130.325 169.303C137.273 174.95 143.709 178.704 149.224 180.489C154.739 182.273 158.851 181.954 161.782 180.262C164.712 178.57 167.044 175.168 168.257 169.5C169.469 163.832 169.436 156.381 168.019 147.54C167.475 144.143 166.732 140.576 165.795 136.87C157.568 138.732 148.602 140.14 139.123 141.016C133.625 148.787 127.922 155.848 122.196 162.041ZM127.777 141.796C123.93 146.873 120.024 151.556 116.129 155.793C112.235 151.556 108.329 146.873 104.482 141.796C108.305 141.97 112.192 142.059 116.129 142.059C120.067 142.059 123.954 141.97 127.777 141.796ZM145.472 131.58C151.792 130.787 157.801 129.746 163.417 128.491C161.696 123 159.593 117.276 157.119 111.406C155.358 114.804 153.492 118.215 151.523 121.625C149.555 125.035 147.534 128.356 145.472 131.58ZM162.117 101.19C166.097 109.837 169.361 118.306 171.862 126.362C175.541 125.32 179.001 124.18 182.215 122.953C190.579 119.759 197.049 116.062 201.351 112.178C205.654 108.294 207.434 104.574 207.434 101.19C207.434 97.8062 205.654 94.0855 201.351 90.2013C197.049 86.3176 190.579 82.6207 182.215 79.4269C179.001 78.1999 175.541 77.0595 171.862 76.0179C169.361 84.0735 166.097 92.5428 162.117 101.19ZM165.795 65.5103C157.568 63.6482 148.602 62.24 139.123 61.3636C133.625 53.5929 127.922 46.5318 122.196 40.3383C124.937 37.6732 127.655 35.2464 130.325 33.0768C137.273 27.4297 143.709 23.6752 149.224 21.8912C154.739 20.107 158.851 20.4261 161.782 22.118C164.712 23.8099 167.044 27.2114 168.257 32.8798C169.469 38.5476 169.436 45.9989 168.019 54.8397C167.475 58.2364 166.732 61.8035 165.795 65.5103ZM163.417 73.8883C161.696 79.3796 159.593 85.1035 157.119 90.9739C155.358 87.5759 153.492 84.165 151.523 80.7551C149.555 77.3451 147.534 74.0236 145.472 70.7998C151.792 71.5928 157.801 72.6336 163.417 73.8883ZM133.956 101.19C133.956 111.035 125.975 119.016 116.13 119.016C106.284 119.016 98.3035 111.035 98.3035 101.19C98.3035 91.3448 106.284 83.3638 116.13 83.3638C125.975 83.3638 133.956 91.3448 133.956 101.19Z" fill="url(#paint0_linear_647_26156)"/>
<defs>
<linearGradient id="paint0_linear_647_26156" x1="116.129" y1="11.9984" x2="116.129" y2="190.381" gradientUnits="userSpaceOnUse">
<stop offset="0.15573" stop-color="#78E2FF"/>
<stop offset="1" stop-color="#4CAAEE"/>
</linearGradient>
</defs>
</svg>
