<svg width="210" height="234" viewBox="0 0 210 234" fill="none" xmlns="http://www.w3.org/2000/svg">
<path d="M168.976 51.365H179.854C184.411 51.365 188.259 54.7637 188.831 59.3006L208.929 218.79C209.254 221.374 208.456 223.975 206.738 225.928C205.02 227.881 202.548 229 199.951 229H14.0488C11.4849 229 9.04086 227.909 7.32459 225.998C5.60823 224.087 4.78114 221.535 5.04979 218.977L21.7977 59.4879C22.2828 54.8684 26.168 51.365 30.7968 51.365H43.3497C45.7563 51.365 47.7073 49.414 47.7073 47.0073C47.7073 21.5959 68.2572 1 93.6016 1C94.8565 1 96.1005 1.05069 97.3317 1.15023C103.19 1.62384 109.135 1.62384 114.994 1.15023C116.225 1.05069 117.469 1 118.724 1C144.068 1 164.618 21.5959 164.618 47.0073C164.618 49.414 166.569 51.365 168.976 51.365Z" fill="white" stroke="black" stroke-width="2"/>
<path fill-rule="evenodd" clip-rule="evenodd" d="M82.4055 48.08C82.4055 28.1536 98.5555 12 118.478 12C138.4 12 154.55 28.1536 154.55 48.08V74.32H82.4055V48.08ZM118.478 16.92C101.272 16.92 87.3244 30.8708 87.3244 48.08V69.4H149.631V48.08C149.631 30.8708 135.683 16.92 118.478 16.92Z" fill="#DA8624"/>
<path fill-rule="evenodd" clip-rule="evenodd" d="M57.8109 48.08C57.8109 28.1536 73.9609 12 93.8829 12C113.805 12 129.955 28.1536 129.955 48.08V74.32H57.8109V48.08ZM93.8829 16.92C76.6775 16.92 62.7298 30.8708 62.7298 48.08V69.4H125.036V48.08C125.036 30.8708 111.088 16.92 93.8829 16.92Z" fill="#F6A546"/>
<path d="M178.324 61.2H55.3514L75.0271 217H198L178.324 61.2Z" fill="url(#paint0_linear_2062_49061)"/>
<path d="M45.5136 61.2H165.207L168.487 217H29.1172L45.5136 61.2Z" fill="#D79E42"/>
<path d="M168.487 194.04L138.973 217H198L168.487 194.04Z" fill="#E4AA4D"/>
<path d="M32.3965 61.2H152.09L138.973 217H16.0001L32.3965 61.2Z" fill="url(#paint1_linear_2062_49061)"/>
<defs>
<linearGradient id="paint0_linear_2062_49061" x1="124.957" y1="61.2" x2="124.957" y2="217" gradientUnits="userSpaceOnUse">
<stop stop-color="#EEE85F"/>
<stop offset="1" stop-color="#EEB45F"/>
</linearGradient>
<linearGradient id="paint1_linear_2062_49061" x1="85.6847" y1="61.2" x2="85.6847" y2="217" gradientUnits="userSpaceOnUse">
<stop stop-color="#EEE85F"/>
<stop offset="1" stop-color="#EEB45F"/>
</linearGradient>
</defs>
</svg>
