<svg width="210" height="234" viewBox="0 0 210 234" fill="none" xmlns="http://www.w3.org/2000/svg">
<path d="M168.976 51.365H179.854C184.411 51.365 188.259 54.7637 188.831 59.3006L208.929 218.79C209.254 221.374 208.456 223.975 206.738 225.928C205.02 227.881 202.548 229 199.951 229H14.0488C11.4849 229 9.04086 227.909 7.32459 225.998C5.60823 224.087 4.78114 221.535 5.04979 218.977L21.7977 59.4879C22.2828 54.8684 26.168 51.365 30.7968 51.365H43.3497C45.7563 51.365 47.7073 49.414 47.7073 47.0073C47.7073 21.5959 68.2572 1 93.6016 1C94.8565 1 96.1005 1.05069 97.3317 1.15023C103.19 1.62384 109.135 1.62384 114.994 1.15023C116.225 1.05069 117.469 1 118.724 1C144.068 1 164.618 21.5959 164.618 47.0073C164.618 49.414 166.569 51.365 168.976 51.365Z" fill="white" stroke="black" stroke-width="2"/>
</svg>
