<svg width="210" height="234" viewBox="0 0 210 234" fill="none" xmlns="http://www.w3.org/2000/svg">
<mask id="mask0_2062_49061" style="mask-type:alpha" maskUnits="userSpaceOnUse" x="0" y="4" width="206" height="230">
<path d="M164.976 55.365H175.854C180.411 55.365 184.259 58.7637 184.831 63.3006L204.929 222.79C205.254 225.374 204.456 227.975 202.738 229.928C201.02 231.881 198.548 233 195.951 233H10.0488C7.48492 233 5.04086 231.909 3.32459 229.998C1.60823 228.087 0.781141 225.535 1.04979 222.977L17.7977 63.4879C18.2828 58.8684 22.168 55.365 26.7968 55.365H39.3497C41.7563 55.365 43.7073 53.414 43.7073 51.0073C43.7073 25.5959 64.2572 5 89.6016 5C90.8565 5 92.1005 5.05069 93.3317 5.15023C99.1897 5.62384 105.135 5.62384 110.994 5.15023C112.225 5.05069 113.469 5 114.724 5C140.068 5 160.618 25.5959 160.618 51.0073C160.618 53.414 162.569 55.365 164.976 55.365Z" fill="white" stroke="black" stroke-width="2"/>
</mask>
<g mask="url(#mask0_2062_49061)">
<path d="M2.71003 -99.5646L-437.772 232.362" stroke="black" stroke-width="1.5"/>
<path d="M7.66133 -98.8687L-432.821 233.058" stroke="black" stroke-width="1.5"/>
<path d="M12.6127 -98.1729L-427.869 233.754" stroke="black" stroke-width="1.5"/>
<path d="M17.564 -97.477L-422.918 234.45" stroke="black" stroke-width="1.5"/>
<path d="M22.5154 -96.7811L-417.967 235.146" stroke="black" stroke-width="1.5"/>
<path d="M27.4667 -96.0853L-413.015 235.842" stroke="black" stroke-width="1.5"/>
<path d="M32.418 -95.3894L-408.064 236.538" stroke="black" stroke-width="1.5"/>
<path d="M37.3694 -94.6935L-403.113 237.234" stroke="black" stroke-width="1.5"/>
<path d="M42.3208 -93.9977L-398.161 237.929" stroke="black" stroke-width="1.5"/>
<path d="M47.2721 -93.3018L-393.21 238.625" stroke="black" stroke-width="1.5"/>
<path d="M52.2234 -92.6059L-388.259 239.321" stroke="black" stroke-width="1.5"/>
<path d="M57.1748 -91.9101L-383.307 240.017" stroke="black" stroke-width="1.5"/>
<path d="M62.1261 -91.2142L-378.356 240.713" stroke="black" stroke-width="1.5"/>
<path d="M67.0775 -90.5183L-373.405 241.409" stroke="black" stroke-width="1.5"/>
<path d="M72.0288 -89.8225L-368.453 242.105" stroke="black" stroke-width="1.5"/>
<path d="M76.9801 -89.1266L-363.502 242.8" stroke="black" stroke-width="1.5"/>
<path d="M81.9315 -88.4307L-358.551 243.496" stroke="black" stroke-width="1.5"/>
<path d="M86.8828 -87.7349L-353.599 244.192" stroke="black" stroke-width="1.5"/>
<path d="M91.8341 -87.039L-348.648 244.888" stroke="black" stroke-width="1.5"/>
<path d="M96.7855 -86.3431L-343.697 245.584" stroke="black" stroke-width="1.5"/>
<path d="M101.737 -85.6473L-338.745 246.28" stroke="black" stroke-width="1.5"/>
<path d="M106.688 -84.9514L-333.794 246.976" stroke="black" stroke-width="1.5"/>
<path d="M111.64 -84.2556L-328.843 247.671" stroke="black" stroke-width="1.5"/>
<path d="M116.591 -83.5597L-323.891 248.367" stroke="black" stroke-width="1.5"/>
<path d="M121.542 -82.8638L-318.94 249.063" stroke="black" stroke-width="1.5"/>
<path d="M126.494 -82.168L-313.989 249.759" stroke="black" stroke-width="1.5"/>
<path d="M131.445 -81.4721L-309.037 250.455" stroke="black" stroke-width="1.5"/>
<path d="M136.396 -80.7762L-304.086 251.151" stroke="black" stroke-width="1.5"/>
<path d="M141.348 -80.0804L-299.134 251.847" stroke="black" stroke-width="1.5"/>
<path d="M146.299 -79.3845L-294.183 252.543" stroke="black" stroke-width="1.5"/>
<path d="M151.25 -78.6886L-289.232 253.238" stroke="black" stroke-width="1.5"/>
<path d="M156.202 -77.9928L-284.28 253.934" stroke="black" stroke-width="1.5"/>
<path d="M161.153 -77.2969L-279.329 254.63" stroke="black" stroke-width="1.5"/>
<path d="M166.104 -76.601L-274.378 255.326" stroke="black" stroke-width="1.5"/>
<path d="M171.056 -75.9052L-269.426 256.022" stroke="black" stroke-width="1.5"/>
<path d="M176.007 -75.2093L-264.475 256.718" stroke="black" stroke-width="1.5"/>
<path d="M180.958 -74.5134L-259.524 257.414" stroke="black" stroke-width="1.5"/>
<path d="M185.91 -73.8176L-254.572 258.109" stroke="black" stroke-width="1.5"/>
<path d="M190.861 -73.1217L-249.621 258.805" stroke="black" stroke-width="1.5"/>
<path d="M195.812 -72.4258L-244.67 259.501" stroke="black" stroke-width="1.5"/>
<path d="M200.764 -71.73L-239.718 260.197" stroke="black" stroke-width="1.5"/>
<path d="M205.715 -71.0341L-234.767 260.893" stroke="black" stroke-width="1.5"/>
<path d="M210.666 -70.3382L-229.816 261.589" stroke="black" stroke-width="1.5"/>
<path d="M215.618 -69.6424L-224.864 262.285" stroke="black" stroke-width="1.5"/>
<path d="M220.569 -68.9465L-219.913 262.981" stroke="black" stroke-width="1.5"/>
<path d="M225.52 -68.2506L-214.962 263.676" stroke="black" stroke-width="1.5"/>
<path d="M230.472 -67.5548L-210.01 264.372" stroke="black" stroke-width="1.5"/>
<path d="M235.423 -66.8589L-205.059 265.068" stroke="black" stroke-width="1.5"/>
<path d="M240.374 -66.1631L-200.108 265.764" stroke="black" stroke-width="1.5"/>
<path d="M245.326 -65.4672L-195.156 266.46" stroke="black" stroke-width="1.5"/>
<path d="M250.277 -64.7713L-190.205 267.156" stroke="black" stroke-width="1.5"/>
<path d="M255.228 -64.0755L-185.254 267.852" stroke="black" stroke-width="1.5"/>
<path d="M260.18 -63.3796L-180.302 268.547" stroke="black" stroke-width="1.5"/>
<path d="M265.131 -62.6837L-175.351 269.243" stroke="black" stroke-width="1.5"/>
<path d="M270.082 -61.9879L-170.4 269.939" stroke="black" stroke-width="1.5"/>
<path d="M275.034 -61.292L-165.448 270.635" stroke="black" stroke-width="1.5"/>
<path d="M279.985 -60.5961L-160.497 271.331" stroke="black" stroke-width="1.5"/>
<path d="M284.936 -59.9003L-155.546 272.027" stroke="black" stroke-width="1.5"/>
<path d="M289.888 -59.2044L-150.594 272.723" stroke="black" stroke-width="1.5"/>
<path d="M294.839 -58.5085L-145.643 273.418" stroke="black" stroke-width="1.5"/>
<path d="M299.79 -57.8127L-140.692 274.114" stroke="black" stroke-width="1.5"/>
<path d="M304.742 -57.1168L-135.74 274.81" stroke="black" stroke-width="1.5"/>
<path d="M309.693 -56.4209L-130.789 275.506" stroke="black" stroke-width="1.5"/>
<path d="M314.644 -55.7251L-125.838 276.202" stroke="black" stroke-width="1.5"/>
<path d="M319.596 -55.0292L-120.886 276.898" stroke="black" stroke-width="1.5"/>
<path d="M324.547 -54.3333L-115.935 277.594" stroke="black" stroke-width="1.5"/>
<path d="M329.498 -53.6375L-110.984 278.29" stroke="black" stroke-width="1.5"/>
<path d="M334.45 -52.9416L-106.032 278.985" stroke="black" stroke-width="1.5"/>
<path d="M339.401 -52.2457L-101.081 279.681" stroke="black" stroke-width="1.5"/>
<path d="M344.352 -51.5499L-96.1296 280.377" stroke="black" stroke-width="1.5"/>
<path d="M349.304 -50.854L-91.1782 281.073" stroke="black" stroke-width="1.5"/>
<path d="M354.255 -50.1581L-86.2269 281.769" stroke="black" stroke-width="1.5"/>
<path d="M359.207 -49.4623L-81.2755 282.465" stroke="black" stroke-width="1.5"/>
<path d="M364.158 -48.7664L-76.3242 283.161" stroke="black" stroke-width="1.5"/>
<path d="M369.109 -48.0705L-71.3729 283.856" stroke="black" stroke-width="1.5"/>
<path d="M374.061 -47.3747L-66.4215 284.552" stroke="black" stroke-width="1.5"/>
<path d="M379.012 -46.6788L-61.4702 285.248" stroke="black" stroke-width="1.5"/>
<path d="M383.963 -45.983L-56.5188 285.944" stroke="black" stroke-width="1.5"/>
<path d="M388.915 -45.2871L-51.5675 286.64" stroke="black" stroke-width="1.5"/>
<path d="M393.866 -44.5912L-46.6161 287.336" stroke="black" stroke-width="1.5"/>
<path d="M398.817 -43.8954L-41.6648 288.032" stroke="black" stroke-width="1.5"/>
<path d="M403.769 -43.1995L-36.7135 288.728" stroke="black" stroke-width="1.5"/>
<path d="M408.72 -42.5036L-31.7621 289.423" stroke="black" stroke-width="1.5"/>
<path d="M413.671 -41.8078L-26.8108 290.119" stroke="black" stroke-width="1.5"/>
<path d="M418.623 -41.1119L-21.8594 290.815" stroke="black" stroke-width="1.5"/>
<path d="M423.574 -40.416L-16.9081 291.511" stroke="black" stroke-width="1.5"/>
<path d="M428.525 -39.7202L-11.9568 292.207" stroke="black" stroke-width="1.5"/>
<path d="M433.477 -39.0243L-7.00543 292.903" stroke="black" stroke-width="1.5"/>
<path d="M438.428 -38.3284L-2.05409 293.599" stroke="black" stroke-width="1.5"/>
<path d="M443.379 -37.6326L2.89725 294.294" stroke="black" stroke-width="1.5"/>
<path d="M448.331 -36.9367L7.84859 294.99" stroke="black" stroke-width="1.5"/>
<path d="M453.282 -36.2408L12.7999 295.686" stroke="black" stroke-width="1.5"/>
<path d="M458.233 -35.545L17.7513 296.382" stroke="black" stroke-width="1.5"/>
<path d="M463.185 -34.8491L22.7026 297.078" stroke="black" stroke-width="1.5"/>
<path d="M468.136 -34.1532L27.654 297.774" stroke="black" stroke-width="1.5"/>
<path d="M473.087 -33.4574L32.6053 298.47" stroke="black" stroke-width="1.5"/>
<path d="M478.039 -32.7615L37.5566 299.166" stroke="black" stroke-width="1.5"/>
<path d="M482.99 -32.0656L42.508 299.861" stroke="black" stroke-width="1.5"/>
<path d="M487.941 -31.3698L47.4593 300.557" stroke="black" stroke-width="1.5"/>
<path d="M492.893 -30.6739L52.4107 301.253" stroke="black" stroke-width="1.5"/>
<path d="M497.844 -29.978L57.362 301.949" stroke="black" stroke-width="1.5"/>
<path d="M502.795 -29.2822L62.3133 302.645" stroke="black" stroke-width="1.5"/>
<path d="M507.747 -28.5863L67.2647 303.341" stroke="black" stroke-width="1.5"/>
<path d="M512.698 -27.8905L72.216 304.037" stroke="black" stroke-width="1.5"/>
<path d="M517.649 -27.1946L77.1674 304.732" stroke="black" stroke-width="1.5"/>
<path d="M522.601 -26.4987L82.1187 305.428" stroke="black" stroke-width="1.5"/>
<path d="M527.552 -25.8029L87.07 306.124" stroke="black" stroke-width="1.5"/>
<path d="M532.503 -25.107L92.0214 306.82" stroke="black" stroke-width="1.5"/>
<path d="M537.455 -24.4111L96.9727 307.516" stroke="black" stroke-width="1.5"/>
<path d="M542.406 -23.7153L101.924 308.212" stroke="black" stroke-width="1.5"/>
<path d="M547.357 -23.0194L106.875 308.908" stroke="black" stroke-width="1.5"/>
<path d="M552.309 -22.3235L111.827 309.604" stroke="black" stroke-width="1.5"/>
<path d="M557.26 -21.6277L116.778 310.299" stroke="black" stroke-width="1.5"/>
<path d="M562.211 -20.9318L121.729 310.995" stroke="black" stroke-width="1.5"/>
<path d="M567.163 -20.2359L126.681 311.691" stroke="black" stroke-width="1.5"/>
<path d="M572.114 -19.5401L131.632 312.387" stroke="black" stroke-width="1.5"/>
<path d="M577.065 -18.8442L136.583 313.083" stroke="black" stroke-width="1.5"/>
<path d="M582.017 -18.1483L141.535 313.779" stroke="black" stroke-width="1.5"/>
<path d="M586.968 -17.4525L146.486 314.475" stroke="black" stroke-width="1.5"/>
<path d="M591.92 -16.7566L151.437 315.17" stroke="black" stroke-width="1.5"/>
<path d="M596.871 -16.0607L156.389 315.866" stroke="black" stroke-width="1.5"/>
<path d="M601.822 -15.3649L161.34 316.562" stroke="black" stroke-width="1.5"/>
<path d="M606.774 -14.669L166.291 317.258" stroke="black" stroke-width="1.5"/>
<path d="M611.725 -13.9731L171.243 317.954" stroke="black" stroke-width="1.5"/>
<path d="M616.676 -13.2773L176.194 318.65" stroke="black" stroke-width="1.5"/>
<path d="M621.628 -12.5814L181.146 319.346" stroke="black" stroke-width="1.5"/>
<path d="M626.579 -11.8855L186.097 320.041" stroke="black" stroke-width="1.5"/>
<path d="M631.53 -11.1897L191.048 320.737" stroke="black" stroke-width="1.5"/>
<path d="M636.482 -10.4938L196 321.433" stroke="black" stroke-width="1.5"/>
<path d="M641.433 -9.79795L200.951 322.129" stroke="black" stroke-width="1.5"/>
<path d="M646.384 -9.10208L205.902 322.825" stroke="black" stroke-width="1.5"/>
</g>
</svg>
