<svg width="24" height="24" viewBox="0 0 24 24" fill="none" xmlns="http://www.w3.org/2000/svg">
<g clip-path="url(#clip0_762_58557)">
<circle cx="12" cy="12" r="6.25" stroke="black" stroke-width="1.5"/>
<path fill-rule="evenodd" clip-rule="evenodd" d="M12.75 3V0H11.25V3H12.75ZM12.75 24V21H11.25V24H12.75ZM18.6495 1.9827L17.1495 4.58077L15.8505 3.83077L17.3505 1.2327L18.6495 1.9827ZM6.64952 22.7673L8.14952 20.1692L6.85049 19.4192L5.35049 22.0173L6.64952 22.7673ZM22.7673 6.64949L20.1692 8.1495L19.4192 6.85046L22.0173 5.35046L22.7673 6.64949ZM1.9827 18.6495L4.58078 17.1495L3.83078 15.8505L1.2327 17.3505L1.9827 18.6495ZM24 12.75H21V11.25H24V12.75ZM3.05176e-05 12.75H3.00003V11.25H3.05176e-05V12.75ZM22.0173 18.6495L19.4192 17.1495L20.1692 15.8505L22.7673 17.3505L22.0173 18.6495ZM1.2327 6.64952L3.83078 8.14952L4.58078 6.85048L1.9827 5.35048L1.2327 6.64952ZM17.3505 22.7673L15.8505 20.1692L17.1495 19.4192L18.6495 22.0173L17.3505 22.7673ZM5.35051 1.9827L6.85051 4.58077L8.14955 3.83077L6.64955 1.2327L5.35051 1.9827Z" fill="black"/>
</g>
<defs>
<clipPath id="clip0_762_58557">
<rect width="24" height="24" fill="white"/>
</clipPath>
</defs>
</svg>
