<svg width="168" height="382" viewBox="0 0 168 382" fill="none" xmlns="http://www.w3.org/2000/svg">
<mask id="path-1-inside-1_647_26154" fill="white">
<path fill-rule="evenodd" clip-rule="evenodd" d="M86 0C46.2355 0 14 32.2355 14 72C14 83.7334 16.8146 94.8305 21.8053 104.632C16.2395 111.387 12.1555 119.227 10.2308 127.845C6.42709 130.963 4 135.698 4 141C4 145.705 5.91138 149.964 9 153.042V348.958C5.91137 352.036 4 356.295 4 361C4 370.389 11.6111 378 21 378H151C160.389 378 168 370.389 168 361C168 356.295 166.089 352.036 163 348.958V153.042C166.089 149.964 168 145.705 168 141C168 135.698 165.573 130.963 161.769 127.845C159.844 119.227 155.761 111.387 150.195 104.632C155.185 94.8305 158 83.7334 158 72C158 32.2355 125.765 0 86 0Z"/>
</mask>
<path fill-rule="evenodd" clip-rule="evenodd" d="M86 0C46.2355 0 14 32.2355 14 72C14 83.7334 16.8146 94.8305 21.8053 104.632C16.2395 111.387 12.1555 119.227 10.2308 127.845C6.42709 130.963 4 135.698 4 141C4 145.705 5.91138 149.964 9 153.042V348.958C5.91137 352.036 4 356.295 4 361C4 370.389 11.6111 378 21 378H151C160.389 378 168 370.389 168 361C168 356.295 166.089 352.036 163 348.958V153.042C166.089 149.964 168 145.705 168 141C168 135.698 165.573 130.963 161.769 127.845C159.844 119.227 155.761 111.387 150.195 104.632C155.185 94.8305 158 83.7334 158 72C158 32.2355 125.765 0 86 0Z" fill="white"/>
<path d="M21.8053 104.632L23.3488 105.904L24.1822 104.893L23.5876 103.725L21.8053 104.632ZM10.2308 127.845L11.4986 129.392L12.0323 128.955L12.1827 128.281L10.2308 127.845ZM9 153.042H11V152.211L10.4118 151.625L9 153.042ZM9 348.958L10.4118 350.375L11 349.789V348.958H9ZM163 348.958H161V349.789L161.588 350.375L163 348.958ZM163 153.042L161.588 151.625L161 152.211V153.042H163ZM161.769 127.845L159.817 128.281L159.968 128.955L160.501 129.392L161.769 127.845ZM150.195 104.632L148.412 103.725L147.818 104.893L148.651 105.904L150.195 104.632ZM16 72C16 33.3401 47.3401 2 86 2V-2C45.1309 -2 12 31.1309 12 72H16ZM23.5876 103.725C18.7365 94.1973 16 83.4104 16 72H12C12 84.0563 14.8927 95.4637 20.023 105.54L23.5876 103.725ZM12.1827 128.281C14.0316 120.002 17.9604 112.443 23.3488 105.904L20.2618 103.36C14.5185 110.33 10.2795 118.451 8.2789 127.41L12.1827 128.281ZM6 141C6 136.323 8.13849 132.146 11.4986 129.392L8.963 126.299C4.71569 129.78 2 135.074 2 141H6ZM10.4118 151.625C7.6843 148.907 6 145.152 6 141H2C2 146.258 4.13845 151.02 7.58822 154.458L10.4118 151.625ZM11 348.958V153.042H7V348.958H11ZM6 361C6 356.848 7.6843 353.093 10.4118 350.375L7.58822 347.542C4.13845 350.98 2 355.742 2 361H6ZM21 376C12.7157 376 6 369.284 6 361H2C2 371.493 10.5066 380 21 380V376ZM151 376H21V380H151V376ZM166 361C166 369.284 159.284 376 151 376V380C161.493 380 170 371.493 170 361H166ZM161.588 350.375C164.316 353.093 166 356.848 166 361H170C170 355.742 167.862 350.98 164.412 347.542L161.588 350.375ZM161 153.042V348.958H165V153.042H161ZM166 141C166 145.152 164.316 148.907 161.588 151.625L164.412 154.458C167.862 151.02 170 146.258 170 141H166ZM160.501 129.392C163.862 132.146 166 136.323 166 141H170C170 135.074 167.284 129.78 163.037 126.299L160.501 129.392ZM148.651 105.904C154.04 112.443 157.968 120.002 159.817 128.281L163.721 127.41C161.721 118.451 157.482 110.33 151.738 103.36L148.651 105.904ZM156 72C156 83.4104 153.263 94.1973 148.412 103.725L151.977 105.54C157.107 95.4637 160 84.0563 160 72H156ZM86 2C124.66 2 156 33.3401 156 72H160C160 31.1309 126.869 -2 86 -2V2Z" fill="#07090D" mask="url(#path-1-inside-1_647_26154)"/>
</svg>
