<svg width="200" height="200" viewBox="0 0 200 200" fill="none" xmlns="http://www.w3.org/2000/svg">
<g clip-path="url(#clip0_647_26159)">
<path d="M3 -93L-387 297" stroke="black" stroke-width="1.5"/>
<path d="M8 -93L-382 297" stroke="black" stroke-width="1.5"/>
<path d="M13 -93L-377 297" stroke="black" stroke-width="1.5"/>
<path d="M18 -93L-372 297" stroke="black" stroke-width="1.5"/>
<path d="M23 -93L-367 297" stroke="black" stroke-width="1.5"/>
<path d="M28 -93L-362 297" stroke="black" stroke-width="1.5"/>
<path d="M33 -93L-357 297" stroke="black" stroke-width="1.5"/>
<path d="M38 -93L-352 297" stroke="black" stroke-width="1.5"/>
<path d="M43 -93L-347 297" stroke="black" stroke-width="1.5"/>
<path d="M48 -93L-342 297" stroke="black" stroke-width="1.5"/>
<path d="M53 -93L-337 297" stroke="black" stroke-width="1.5"/>
<path d="M58 -93L-332 297" stroke="black" stroke-width="1.5"/>
<path d="M63 -93L-327 297" stroke="black" stroke-width="1.5"/>
<path d="M68 -93L-322 297" stroke="black" stroke-width="1.5"/>
<path d="M73 -93L-317 297" stroke="black" stroke-width="1.5"/>
<path d="M78 -93L-312 297" stroke="black" stroke-width="1.5"/>
<path d="M83 -93L-307 297" stroke="black" stroke-width="1.5"/>
<path d="M88 -93L-302 297" stroke="black" stroke-width="1.5"/>
<path d="M93 -93L-297 297" stroke="black" stroke-width="1.5"/>
<path d="M98 -93L-292 297" stroke="black" stroke-width="1.5"/>
<path d="M103 -93L-287 297" stroke="black" stroke-width="1.5"/>
<path d="M108 -93L-282 297" stroke="black" stroke-width="1.5"/>
<path d="M113 -93L-277 297" stroke="black" stroke-width="1.5"/>
<path d="M118 -93L-272 297" stroke="black" stroke-width="1.5"/>
<path d="M123 -93L-267 297" stroke="black" stroke-width="1.5"/>
<path d="M128 -93L-262 297" stroke="black" stroke-width="1.5"/>
<path d="M133 -93L-257 297" stroke="black" stroke-width="1.5"/>
<path d="M138 -93L-252 297" stroke="black" stroke-width="1.5"/>
<path d="M143 -93L-247 297" stroke="black" stroke-width="1.5"/>
<path d="M148 -93L-242 297" stroke="black" stroke-width="1.5"/>
<path d="M153 -93L-237 297" stroke="black" stroke-width="1.5"/>
<path d="M158 -93L-232 297" stroke="black" stroke-width="1.5"/>
<path d="M163 -93L-227 297" stroke="black" stroke-width="1.5"/>
<path d="M168 -93L-222 297" stroke="black" stroke-width="1.5"/>
<path d="M173 -93L-217 297" stroke="black" stroke-width="1.5"/>
<path d="M178 -93L-212 297" stroke="black" stroke-width="1.5"/>
<path d="M183 -93L-207 297" stroke="black" stroke-width="1.5"/>
<path d="M188 -93L-202 297" stroke="black" stroke-width="1.5"/>
<path d="M193 -93L-197 297" stroke="black" stroke-width="1.5"/>
<path d="M198 -93L-192 297" stroke="black" stroke-width="1.5"/>
<path d="M203 -93L-187 297" stroke="black" stroke-width="1.5"/>
<path d="M208 -93L-182 297" stroke="black" stroke-width="1.5"/>
<path d="M213 -93L-177 297" stroke="black" stroke-width="1.5"/>
<path d="M218 -93L-172 297" stroke="black" stroke-width="1.5"/>
<path d="M223 -93L-167 297" stroke="black" stroke-width="1.5"/>
<path d="M228 -93L-162 297" stroke="black" stroke-width="1.5"/>
<path d="M233 -93L-157 297" stroke="black" stroke-width="1.5"/>
<path d="M238 -93L-152 297" stroke="black" stroke-width="1.5"/>
<path d="M243 -93L-147 297" stroke="black" stroke-width="1.5"/>
<path d="M248 -93L-142 297" stroke="black" stroke-width="1.5"/>
<path d="M253 -93L-137 297" stroke="black" stroke-width="1.5"/>
<path d="M258 -93L-132 297" stroke="black" stroke-width="1.5"/>
<path d="M263 -93L-127 297" stroke="black" stroke-width="1.5"/>
<path d="M268 -93L-122 297" stroke="black" stroke-width="1.5"/>
<path d="M273 -93L-117 297" stroke="black" stroke-width="1.5"/>
<path d="M278 -93L-112 297" stroke="black" stroke-width="1.5"/>
<path d="M283 -93L-107 297" stroke="black" stroke-width="1.5"/>
<path d="M288 -93L-102 297" stroke="black" stroke-width="1.5"/>
<path d="M293 -93L-97 297" stroke="black" stroke-width="1.5"/>
<path d="M298 -93L-92 297" stroke="black" stroke-width="1.5"/>
<path d="M303 -93L-87 297" stroke="black" stroke-width="1.5"/>
<path d="M308 -93L-82 297" stroke="black" stroke-width="1.5"/>
<path d="M313 -93L-77 297" stroke="black" stroke-width="1.5"/>
<path d="M318 -93L-72 297" stroke="black" stroke-width="1.5"/>
<path d="M323 -93L-67 297" stroke="black" stroke-width="1.5"/>
<path d="M328 -93L-62 297" stroke="black" stroke-width="1.5"/>
<path d="M333 -93L-57 297" stroke="black" stroke-width="1.5"/>
<path d="M338 -93L-52 297" stroke="black" stroke-width="1.5"/>
<path d="M343 -93L-47 297" stroke="black" stroke-width="1.5"/>
<path d="M348 -93L-42 297" stroke="black" stroke-width="1.5"/>
<path d="M353 -93L-37 297" stroke="black" stroke-width="1.5"/>
<path d="M358 -93L-32 297" stroke="black" stroke-width="1.5"/>
<path d="M363 -93L-27 297" stroke="black" stroke-width="1.5"/>
<path d="M368 -93L-22 297" stroke="black" stroke-width="1.5"/>
<path d="M373 -93L-17 297" stroke="black" stroke-width="1.5"/>
<path d="M378 -93L-12 297" stroke="black" stroke-width="1.5"/>
<path d="M383 -93L-7 297" stroke="black" stroke-width="1.5"/>
<path d="M388 -93L-2 297" stroke="black" stroke-width="1.5"/>
<path d="M393 -93L3 297" stroke="black" stroke-width="1.5"/>
<path d="M398 -93L8 297" stroke="black" stroke-width="1.5"/>
<path d="M403 -93L13 297" stroke="black" stroke-width="1.5"/>
<path d="M408 -93L18 297" stroke="black" stroke-width="1.5"/>
<path d="M413 -93L23 297" stroke="black" stroke-width="1.5"/>
<path d="M418 -93L28 297" stroke="black" stroke-width="1.5"/>
<path d="M423 -93L33 297" stroke="black" stroke-width="1.5"/>
<path d="M428 -93L38 297" stroke="black" stroke-width="1.5"/>
<path d="M433 -93L43 297" stroke="black" stroke-width="1.5"/>
<path d="M438 -93L48 297" stroke="black" stroke-width="1.5"/>
<path d="M443 -93L53 297" stroke="black" stroke-width="1.5"/>
<path d="M448 -93L58 297" stroke="black" stroke-width="1.5"/>
<path d="M453 -93L63 297" stroke="black" stroke-width="1.5"/>
<path d="M458 -93L68 297" stroke="black" stroke-width="1.5"/>
<path d="M463 -93L73 297" stroke="black" stroke-width="1.5"/>
<path d="M468 -93L78 297" stroke="black" stroke-width="1.5"/>
<path d="M473 -93L83 297" stroke="black" stroke-width="1.5"/>
<path d="M478 -93L88 297" stroke="black" stroke-width="1.5"/>
<path d="M483 -93L93 297" stroke="black" stroke-width="1.5"/>
<path d="M488 -93L98 297" stroke="black" stroke-width="1.5"/>
<path d="M493 -93L103 297" stroke="black" stroke-width="1.5"/>
<path d="M498 -93L108 297" stroke="black" stroke-width="1.5"/>
<path d="M503 -93L113 297" stroke="black" stroke-width="1.5"/>
<path d="M508 -93L118 297" stroke="black" stroke-width="1.5"/>
<path d="M513 -93L123 297" stroke="black" stroke-width="1.5"/>
<path d="M518 -93L128 297" stroke="black" stroke-width="1.5"/>
<path d="M523 -93L133 297" stroke="black" stroke-width="1.5"/>
<path d="M528 -93L138 297" stroke="black" stroke-width="1.5"/>
<path d="M533 -93L143 297" stroke="black" stroke-width="1.5"/>
<path d="M538 -93L148 297" stroke="black" stroke-width="1.5"/>
<path d="M543 -93L153 297" stroke="black" stroke-width="1.5"/>
<path d="M548 -93L158 297" stroke="black" stroke-width="1.5"/>
<path d="M553 -93L163 297" stroke="black" stroke-width="1.5"/>
<path d="M558 -93L168 297" stroke="black" stroke-width="1.5"/>
<path d="M563 -93L173 297" stroke="black" stroke-width="1.5"/>
<path d="M568 -93L178 297" stroke="black" stroke-width="1.5"/>
<path d="M573 -93L183 297" stroke="black" stroke-width="1.5"/>
<path d="M578 -93L188 297" stroke="black" stroke-width="1.5"/>
<path d="M583 -93L193 297" stroke="black" stroke-width="1.5"/>
</g>
<defs>
<clipPath id="clip0_647_26159">
<rect y="4" width="196" height="196" rx="32" fill="white"/>
</clipPath>
</defs>
</svg>
