<svg width="196" height="73" viewBox="0 0 196 73" fill="none" xmlns="http://www.w3.org/2000/svg">
<path d="M172.844 68.5954C168.064 68.5954 163.454 67.4054 159.484 65.2354C158.174 66.7954 156.224 67.7354 154.124 67.7354H147.644C145.714 67.7354 143.884 66.9354 142.584 65.5654C138.734 67.5154 134.334 68.5954 129.694 68.5954C120.434 68.5954 112.564 64.4354 107.804 57.8154C103.224 64.3854 95.7341 68.5954 87.1241 68.5954C83.4941 68.5954 80.0441 67.8454 76.9341 66.4354C75.7841 67.2554 74.3841 67.7354 72.8741 67.7354H66.6841C64.8941 67.7354 63.2641 67.0654 62.0241 65.9654C60.7841 67.0654 59.1541 67.7354 57.3641 67.7354H51.1741C47.3041 67.7354 44.1741 64.6054 44.1741 60.7354V51.7154L38.9041 63.5754C37.7841 66.1054 35.2741 67.7354 32.5041 67.7354H26.0241C23.2441 67.7354 20.7341 66.0954 19.6141 63.5454L3.48415 26.8254C2.53415 24.6654 2.74415 22.1654 4.03414 20.1854C5.32414 18.2054 7.53415 17.0154 9.89415 17.0154H16.9541C19.7641 17.0154 22.2941 18.6954 23.3941 21.2754L29.4741 35.5754L29.7941 34.8254C31.4241 30.8454 31.9941 27.7354 31.5041 25.5554C31.0341 23.4754 31.5341 21.3054 32.8641 19.6354C34.1941 17.9754 36.2041 17.0054 38.3341 17.0054H43.8441C43.3541 15.7454 43.0941 14.3654 43.0941 12.9154C43.0941 6.68543 48.0041 1.81543 54.2741 1.81543C56.9541 1.81543 59.4241 2.77543 61.3441 4.36543C62.6241 2.85543 64.5441 1.89543 66.6841 1.89543H72.8741C76.7441 1.89543 79.8741 5.02543 79.8741 8.89543V17.2054C82.1741 16.5054 84.6041 16.1454 87.1341 16.1454C95.7841 16.1454 103.294 20.3854 107.874 26.9954C112.644 20.3754 120.474 16.1454 129.494 16.1454C140.644 16.1454 149.764 22.2754 153.794 31.4954L158.774 21.0054C159.934 18.5654 162.394 17.0054 165.094 17.0054H172.224C175.284 17.0054 177.984 18.9954 178.904 21.9054C179.574 24.0454 181.254 25.4754 184.154 27.8154C188.664 31.4554 194.854 36.4354 194.854 46.9754C194.854 59.7054 185.814 68.5954 172.874 68.5954H172.844Z" fill="white" stroke="black" stroke-width="2" stroke-linejoin="round"/>
</svg>
