<svg width="219" height="70" viewBox="0 0 219 70" fill="none" xmlns="http://www.w3.org/2000/svg">
<path fill-rule="evenodd" clip-rule="evenodd" d="M22.3999 64.5703V59.7303H17.6199V54.9503H12.7099V50.0403H7.82992V45.1603H2.91992L2.91992 1.86035L207.47 1.86035V6.77035H212.35V11.5504H217.16V59.7303H212.35V64.5703L22.3999 64.5703Z" fill="white" stroke="black" stroke-width="2" stroke-linejoin="round"/>
<path fill-rule="evenodd" clip-rule="evenodd" d="M34.3099 8.86059V13.7706L29.3999 13.7706V8.86059L9.91992 8.86059L9.91992 38.1606H14.8299V43.0406H19.7099V47.9506H24.6199V52.7406H29.4099V57.5706H44.1099V52.7406H49.0199V47.9506H53.9299V52.7406H58.8399V57.5706L117.39 57.5706V52.7406H122.32V57.5706H166.19V52.7406H171.19V57.5706L205.37 57.5706V52.7406H210.18V18.5506H205.37V13.7606H200.49V8.85059L166.31 8.85059V13.7606L161.38 13.7606V8.85059L117.41 8.85059V13.7606L112.5 13.7606V8.85059L34.3099 8.85059V8.86059ZM49.0099 28.3706V33.2506H44.0999V38.1606H39.2199V43.0406H34.3099V47.9506H29.3999V43.0406H24.6099V38.1606H19.6999V33.2506H14.8199L14.8199 13.7706H24.6099V33.2506H29.3999V38.1606H34.3099V33.2506H39.2199V13.7706H49.0099V28.3706ZM68.6099 47.9506V13.7706H58.8199V47.9506H68.6099ZM112.48 38.1606V43.0406H107.57V47.9506H78.2999V13.7706L107.57 13.7706V18.5606H112.48V28.3706H107.57V33.2506H112.48V38.1606ZM102.69 43.0406V33.2506H88.0899V43.0406H102.69ZM102.69 28.3706V18.5606L88.0899 18.5606V28.3706H102.69ZM161.36 28.3706H161.38V43.0406H161.36V28.3706ZM156.48 47.9506V43.0406H132.09V33.2506H151.57V28.3706H132.09V18.5606H156.48V13.7706H122.3V47.9506H156.48ZM200.47 43.0406V33.2506H195.56V28.3706H176.08V18.5606L190.68 18.5606V23.4706H200.47V18.5606H195.56V13.7706L171.17 13.7706V18.5606H166.29V28.3706L171.17 28.3706V33.2506H190.68V43.0406H176.08V38.1606L166.29 38.1606V43.0406H171.17V47.9506H195.56V43.0406H200.47Z" fill="black"/>
</svg>
