<svg width="172" height="76" viewBox="0 0 172 76" fill="none" xmlns="http://www.w3.org/2000/svg">
<path d="M153.224 1.70068C148.693 1.70068 144.52 2.86977 140.79 5.04894C139.311 3.6434 137.341 2.84863 135.28 2.84863H109.445C106.537 2.84863 103.947 4.41186 102.546 6.7971C98.2264 3.98866 93.1603 2.84863 87.8705 2.84863H71.4127C70.5328 2.84863 69.682 2.99175 68.8844 3.25746C68.0789 2.98951 67.2274 2.84863 66.3596 2.84863H52.2621C52.038 2.84863 51.8158 2.85791 51.5959 2.87613C51.3763 2.85789 51.155 2.84863 50.9325 2.84863H35.8143C33.8308 2.84863 31.9761 3.57961 30.5516 4.8232C29.145 3.59362 27.304 2.84863 25.2889 2.84863H11C8.78133 2.84863 6.66229 3.77003 5.14916 5.39268C3.63603 7.01533 2.86472 9.1935 3.01951 11.4068L6.65554 63.3955C6.94868 67.587 10.4344 70.8374 14.636 70.8374H28.606C31.8041 70.8374 34.6949 68.9327 35.9568 65.9942L36.2409 65.3327C36.5609 66.3075 37.069 67.2227 37.7495 68.0223C39.2695 69.8083 41.4966 70.8374 43.8418 70.8374H57.8756C58.7672 70.8374 59.629 70.6904 60.4357 70.4178C61.2507 70.6927 62.1133 70.8374 62.9925 70.8374H82.0656C86.692 70.8374 91.0805 69.9425 95.0254 67.9813L95.0663 68.0296C96.5862 69.8112 98.8105 70.8374 101.152 70.8374H126.923C127.993 70.8374 129.019 70.6261 129.959 70.2403C131.178 70.6217 132.455 70.8822 133.554 71.0809C135.693 71.5038 137.831 71.7307 139.955 71.7307C147.077 71.7307 153.544 69.4893 158.612 64.5517C163.324 59.9657 165.924 53.9759 166.884 47.2561C167.062 46.0107 167.156 44.7604 167.156 43.5093C167.156 40.2913 166.458 37.2484 165.138 34.4416C166.894 33.2156 168.123 31.3081 168.465 29.1097L170.825 13.9277C171.256 11.1512 170.2 8.35181 168.041 6.55299L167.276 5.9151C167.207 5.8576 167.137 5.80126 167.066 5.74612C164.987 4.12929 162.411 3.27604 160.352 2.74313C158.011 2.08324 155.623 1.70068 153.224 1.70068Z" fill="white" stroke="black" stroke-width="2" stroke-linejoin="round"/>
<path fill-rule="evenodd" clip-rule="evenodd" d="M162.919 12.6988L160.559 27.8808L158.901 25.5844C158.05 24.5212 157.2 23.7132 156.349 23.1603C155.499 22.6075 154.478 22.3311 153.287 22.3311C152.139 22.3311 151.182 22.6926 150.417 23.4155C149.651 24.1385 149.205 24.9039 149.077 25.7119C148.864 26.9027 149.609 28.3486 151.31 30.0497C154.244 32.984 155.924 34.7276 156.349 35.2804C158.22 37.7895 159.156 40.5325 159.156 43.5093C159.156 44.3598 159.092 45.2316 158.964 46.1247C158.199 51.4831 156.222 55.7144 153.032 58.8189C149.672 62.0934 145.313 63.7307 139.955 63.7307C138.382 63.7307 136.744 63.5606 135.043 63.2204C133.385 62.9227 132.237 62.625 131.599 62.3273L129.812 61.4981L132.364 45.4868L133.959 47.7194C134.767 48.8677 135.766 49.8032 136.957 50.5262C138.19 51.2066 139.317 51.5043 140.338 51.4193C142.252 51.2066 143.57 50.5687 144.293 49.5056C144.718 48.9102 144.973 48.0384 145.058 46.8902C145.143 45.9971 143.527 43.7857 140.21 40.256C136.766 36.5987 135.043 32.7714 135.043 28.7739C135.043 28.0084 135.065 27.413 135.107 26.9877C135.575 22.2248 137.574 18.1635 141.103 14.8039C144.633 11.4017 148.673 9.70068 153.223 9.70068C154.797 9.70068 156.477 9.95584 158.263 10.4662C160.091 10.934 161.388 11.4655 162.154 12.0609L162.919 12.6988ZM135.28 10.8486L133.366 23.2877H121.246L120.098 30.2408H130.815L128.901 42.6798H118.12L116.908 50.3983H128.901L126.923 62.8374H101.152L109.445 10.8486H135.28ZM99.8627 32.9837C101.521 31.07 102.606 28.6885 103.116 25.8393C103.159 25.6266 103.244 25.2651 103.371 24.7548V23.0963C103.371 19.2689 101.925 16.2708 99.0335 14.1019C96.1842 11.9331 92.4631 10.8486 87.8702 10.8486H71.4124L62.9922 62.8374H82.0654C87.041 62.8374 91.1873 61.519 94.5044 58.8824C97.864 56.2032 99.8415 52.631 100.437 48.1657C100.564 47.2726 100.628 46.3796 100.628 45.4865C100.628 43.1901 100.118 41.3615 99.0973 40.0006C97.7789 38.257 95.5676 37.0875 92.4631 36.4922L91.6976 36.3008L92.9734 36.237C95.6526 36.237 97.949 35.1526 99.8627 32.9837ZM88.3168 23.5428C88.8696 24.2658 89.146 25.1801 89.146 26.2858C89.146 27.8167 88.5932 29.0287 87.4875 29.9218C86.3818 30.8149 84.9784 31.2614 83.2774 31.2614H81.874L83.3412 22.2032H85.3824C86.6582 22.2032 87.6363 22.6498 88.3168 23.5428ZM86.6582 46.1244C86.6582 46.5072 86.637 46.7836 86.5944 46.9537C86.2542 48.4421 85.5313 49.6329 84.4256 50.5259C83.3624 51.3765 82.0866 51.8017 80.5982 51.8017H78.6207L80.2155 41.6591H81.7464C83.0222 41.6591 84.1492 42.1057 85.1273 42.9987C86.1479 43.8493 86.6582 44.8912 86.6582 46.1244ZM66.3596 10.8486L57.8756 62.8374H43.8418L52.2621 10.8486H66.3596ZM28.606 62.8374L50.9325 10.8486H35.8143L29.7542 29.2839C28.8612 32.0056 27.8618 35.1951 26.7561 38.8524C25.9056 41.7017 25.3102 43.6792 24.97 44.7848C24.97 42.7436 25.055 40.0857 25.2251 36.8111C25.3952 33.5366 25.4803 30.8999 25.4803 28.9012C25.4803 28.3908 25.4378 26.0731 25.3527 21.9481C25.3102 17.7805 25.2889 14.0807 25.2889 10.8486H11L14.636 62.8374H28.606Z" fill="black"/>
</svg>
