<svg width="172" height="76" viewBox="0 0 172 76" fill="none" xmlns="http://www.w3.org/2000/svg">
<path d="M153.224 1.70068C148.693 1.70068 144.52 2.86977 140.79 5.04894C139.311 3.6434 137.341 2.84863 135.28 2.84863H109.445C106.537 2.84863 103.947 4.41186 102.546 6.7971C98.2264 3.98866 93.1603 2.84863 87.8705 2.84863H71.4127C70.5328 2.84863 69.682 2.99175 68.8844 3.25746C68.0789 2.98951 67.2274 2.84863 66.3596 2.84863H52.2621C52.038 2.84863 51.8158 2.85791 51.5959 2.87613C51.3763 2.85789 51.155 2.84863 50.9325 2.84863H35.8143C33.8308 2.84863 31.9761 3.57961 30.5516 4.8232C29.145 3.59362 27.304 2.84863 25.2889 2.84863H11C8.78133 2.84863 6.66229 3.77003 5.14916 5.39268C3.63603 7.01533 2.86472 9.1935 3.01951 11.4068L6.65554 63.3955C6.94868 67.587 10.4344 70.8374 14.636 70.8374H28.606C31.8041 70.8374 34.6949 68.9327 35.9568 65.9942L36.2409 65.3327C36.5609 66.3075 37.069 67.2227 37.7495 68.0223C39.2695 69.8083 41.4966 70.8374 43.8418 70.8374H57.8756C58.7672 70.8374 59.629 70.6904 60.4357 70.4178C61.2507 70.6927 62.1133 70.8374 62.9925 70.8374H82.0656C86.692 70.8374 91.0805 69.9425 95.0254 67.9813L95.0663 68.0296C96.5862 69.8112 98.8105 70.8374 101.152 70.8374H126.923C127.993 70.8374 129.019 70.6261 129.959 70.2403C131.178 70.6217 132.455 70.8822 133.554 71.0809C135.693 71.5038 137.831 71.7307 139.955 71.7307C147.077 71.7307 153.544 69.4893 158.612 64.5517C163.324 59.9657 165.924 53.9759 166.884 47.2561C167.062 46.0107 167.156 44.7604 167.156 43.5093C167.156 40.2913 166.458 37.2484 165.138 34.4416C166.894 33.2156 168.123 31.3081 168.465 29.1097L170.825 13.9277C171.256 11.1512 170.2 8.35181 168.041 6.55299L167.276 5.9151C167.207 5.8576 167.137 5.80126 167.066 5.74612C164.987 4.12929 162.411 3.27604 160.352 2.74313C158.011 2.08324 155.623 1.70068 153.224 1.70068Z" fill="white" stroke="black" stroke-width="2" stroke-linejoin="round"/>
</svg>
