<svg width="176" height="68" viewBox="0 0 176 68" fill="none" xmlns="http://www.w3.org/2000/svg">
<mask id="mask0_2146_79102" style="mask-type:alpha" maskUnits="userSpaceOnUse" x="0" y="5" width="173" height="63">
<path d="M120.279 67.6554C111.109 67.6554 102.849 63.6554 97.1794 57.3054C92.2394 65.3554 81.5294 66.8154 74.4194 66.8154H64.1694C62.6894 66.8154 61.3194 66.3554 60.1894 65.5754C59.0594 66.3554 57.6894 66.8154 56.2094 66.8154L51.6694 66.8154C47.7994 66.8154 44.6694 63.6854 44.6694 59.8154V40.6754L36.6194 62.2654C35.5994 65.0054 32.9794 66.8154 30.0594 66.8154H24.9594C22.0694 66.8154 19.4694 65.0354 18.4294 62.3354L0.629409 16.2554C-0.200591 14.0954 0.0794086 11.6754 1.38941 9.76539C2.68941 7.86539 4.84941 6.72539 7.15941 6.72539L12.0294 6.72539C14.9194 6.72539 17.5094 8.49539 18.5594 11.1954L27.4094 34.0154L35.8794 11.2854C36.8994 8.54539 39.5194 6.72539 42.4394 6.72539L47.2594 6.72539C48.0194 6.72539 48.7594 6.84539 49.4694 7.08539C50.1694 6.85539 50.9094 6.72539 51.6794 6.72539L56.2194 6.72539C57.6994 6.72539 59.0694 7.18539 60.1994 7.96539C61.3294 7.18539 62.6994 6.72539 64.1794 6.72539L75.3194 6.72539C88.1994 6.72539 93.4994 12.4954 95.6094 18.0554C101.269 10.5954 110.229 5.77539 120.289 5.77539C128.829 5.77539 137.079 9.35539 142.939 15.5854C144.249 16.9754 145.409 18.4654 146.419 20.0154C149.029 11.7254 156.309 6.38539 165.869 6.38539C169.739 6.38539 172.869 9.51539 172.869 13.3854V17.8654C172.869 21.7354 169.739 24.8654 165.869 24.8654C164.399 24.8654 163.909 24.8654 163.909 27.1654V46.3754C163.909 58.6454 155.499 67.2054 143.469 67.2054C140.509 67.2054 137.969 65.3654 136.949 62.7654C132.079 65.8654 126.319 67.6554 120.289 67.6554H120.279Z" fill="black"/>
</mask>
<g mask="url(#mask0_2146_79102)">
<path d="M1.98828 -51L-388.012 339" stroke="black" stroke-width="1.5"/>
<path d="M6.98828 -51L-383.012 339" stroke="black" stroke-width="1.5"/>
<path d="M11.9883 -51L-378.012 339" stroke="black" stroke-width="1.5"/>
<path d="M16.9883 -51L-373.012 339" stroke="black" stroke-width="1.5"/>
<path d="M21.9883 -51L-368.012 339" stroke="black" stroke-width="1.5"/>
<path d="M26.9883 -51L-363.012 339" stroke="black" stroke-width="1.5"/>
<path d="M31.9883 -51L-358.012 339" stroke="black" stroke-width="1.5"/>
<path d="M36.9883 -51L-353.012 339" stroke="black" stroke-width="1.5"/>
<path d="M41.9883 -51L-348.012 339" stroke="black" stroke-width="1.5"/>
<path d="M46.9883 -51L-343.012 339" stroke="black" stroke-width="1.5"/>
<path d="M51.9883 -51L-338.012 339" stroke="black" stroke-width="1.5"/>
<path d="M56.9883 -51L-333.012 339" stroke="black" stroke-width="1.5"/>
<path d="M61.9883 -51L-328.012 339" stroke="black" stroke-width="1.5"/>
<path d="M66.9883 -51L-323.012 339" stroke="black" stroke-width="1.5"/>
<path d="M71.9883 -51L-318.012 339" stroke="black" stroke-width="1.5"/>
<path d="M76.9883 -51L-313.012 339" stroke="black" stroke-width="1.5"/>
<path d="M81.9883 -51L-308.012 339" stroke="black" stroke-width="1.5"/>
<path d="M86.9883 -51L-303.012 339" stroke="black" stroke-width="1.5"/>
<path d="M91.9883 -51L-298.012 339" stroke="black" stroke-width="1.5"/>
<path d="M96.9883 -51L-293.012 339" stroke="black" stroke-width="1.5"/>
<path d="M101.988 -51L-288.012 339" stroke="black" stroke-width="1.5"/>
<path d="M106.988 -51L-283.012 339" stroke="black" stroke-width="1.5"/>
<path d="M111.988 -51L-278.012 339" stroke="black" stroke-width="1.5"/>
<path d="M116.988 -51L-273.012 339" stroke="black" stroke-width="1.5"/>
<path d="M121.988 -51L-268.012 339" stroke="black" stroke-width="1.5"/>
<path d="M126.988 -51L-263.012 339" stroke="black" stroke-width="1.5"/>
<path d="M131.988 -51L-258.012 339" stroke="black" stroke-width="1.5"/>
<path d="M136.988 -51L-253.012 339" stroke="black" stroke-width="1.5"/>
<path d="M141.988 -51L-248.012 339" stroke="black" stroke-width="1.5"/>
<path d="M146.988 -51L-243.012 339" stroke="black" stroke-width="1.5"/>
<path d="M151.988 -51L-238.012 339" stroke="black" stroke-width="1.5"/>
<path d="M156.988 -51L-233.012 339" stroke="black" stroke-width="1.5"/>
<path d="M161.988 -51L-228.012 339" stroke="black" stroke-width="1.5"/>
<path d="M166.988 -51L-223.012 339" stroke="black" stroke-width="1.5"/>
<path d="M171.988 -51L-218.012 339" stroke="black" stroke-width="1.5"/>
<path d="M176.988 -51L-213.012 339" stroke="black" stroke-width="1.5"/>
<path d="M181.988 -51L-208.012 339" stroke="black" stroke-width="1.5"/>
<path d="M186.988 -51L-203.012 339" stroke="black" stroke-width="1.5"/>
<path d="M191.988 -51L-198.012 339" stroke="black" stroke-width="1.5"/>
<path d="M196.988 -51L-193.012 339" stroke="black" stroke-width="1.5"/>
<path d="M201.988 -51L-188.012 339" stroke="black" stroke-width="1.5"/>
<path d="M206.988 -51L-183.012 339" stroke="black" stroke-width="1.5"/>
<path d="M211.988 -51L-178.012 339" stroke="black" stroke-width="1.5"/>
<path d="M216.988 -51L-173.012 339" stroke="black" stroke-width="1.5"/>
<path d="M221.988 -51L-168.012 339" stroke="black" stroke-width="1.5"/>
<path d="M226.988 -51L-163.012 339" stroke="black" stroke-width="1.5"/>
<path d="M231.988 -51L-158.012 339" stroke="black" stroke-width="1.5"/>
<path d="M236.988 -51L-153.012 339" stroke="black" stroke-width="1.5"/>
<path d="M241.988 -51L-148.012 339" stroke="black" stroke-width="1.5"/>
<path d="M246.988 -51L-143.012 339" stroke="black" stroke-width="1.5"/>
<path d="M251.988 -51L-138.012 339" stroke="black" stroke-width="1.5"/>
<path d="M256.988 -51L-133.012 339" stroke="black" stroke-width="1.5"/>
<path d="M261.988 -51L-128.012 339" stroke="black" stroke-width="1.5"/>
<path d="M266.988 -51L-123.012 339" stroke="black" stroke-width="1.5"/>
<path d="M271.988 -51L-118.012 339" stroke="black" stroke-width="1.5"/>
<path d="M276.988 -51L-113.012 339" stroke="black" stroke-width="1.5"/>
<path d="M281.988 -51L-108.012 339" stroke="black" stroke-width="1.5"/>
<path d="M286.988 -51L-103.012 339" stroke="black" stroke-width="1.5"/>
<path d="M291.988 -51L-98.0117 339" stroke="black" stroke-width="1.5"/>
<path d="M296.988 -51L-93.0117 339" stroke="black" stroke-width="1.5"/>
<path d="M301.988 -51L-88.0117 339" stroke="black" stroke-width="1.5"/>
<path d="M306.988 -51L-83.0117 339" stroke="black" stroke-width="1.5"/>
<path d="M311.988 -51L-78.0117 339" stroke="black" stroke-width="1.5"/>
<path d="M316.988 -51L-73.0117 339" stroke="black" stroke-width="1.5"/>
<path d="M321.988 -51L-68.0117 339" stroke="black" stroke-width="1.5"/>
<path d="M326.988 -51L-63.0117 339" stroke="black" stroke-width="1.5"/>
<path d="M331.988 -51L-58.0117 339" stroke="black" stroke-width="1.5"/>
<path d="M336.988 -51L-53.0117 339" stroke="black" stroke-width="1.5"/>
<path d="M341.988 -51L-48.0117 339" stroke="black" stroke-width="1.5"/>
<path d="M346.988 -51L-43.0117 339" stroke="black" stroke-width="1.5"/>
<path d="M351.988 -51L-38.0117 339" stroke="black" stroke-width="1.5"/>
<path d="M356.988 -51L-33.0117 339" stroke="black" stroke-width="1.5"/>
<path d="M361.988 -51L-28.0117 339" stroke="black" stroke-width="1.5"/>
<path d="M366.988 -51L-23.0117 339" stroke="black" stroke-width="1.5"/>
<path d="M371.988 -51L-18.0117 339" stroke="black" stroke-width="1.5"/>
<path d="M376.988 -51L-13.0117 339" stroke="black" stroke-width="1.5"/>
<path d="M381.988 -51L-8.01172 339" stroke="black" stroke-width="1.5"/>
<path d="M386.988 -51L-3.01172 339" stroke="black" stroke-width="1.5"/>
<path d="M391.988 -51L1.98828 339" stroke="black" stroke-width="1.5"/>
<path d="M396.988 -51L6.98828 339" stroke="black" stroke-width="1.5"/>
<path d="M401.988 -51L11.9883 339" stroke="black" stroke-width="1.5"/>
<path d="M406.988 -51L16.9883 339" stroke="black" stroke-width="1.5"/>
<path d="M411.988 -51L21.9883 339" stroke="black" stroke-width="1.5"/>
<path d="M416.988 -51L26.9883 339" stroke="black" stroke-width="1.5"/>
<path d="M421.988 -51L31.9883 339" stroke="black" stroke-width="1.5"/>
<path d="M426.988 -51L36.9883 339" stroke="black" stroke-width="1.5"/>
<path d="M431.988 -51L41.9883 339" stroke="black" stroke-width="1.5"/>
<path d="M436.988 -51L46.9883 339" stroke="black" stroke-width="1.5"/>
<path d="M441.988 -51L51.9883 339" stroke="black" stroke-width="1.5"/>
<path d="M446.988 -51L56.9883 339" stroke="black" stroke-width="1.5"/>
<path d="M451.988 -51L61.9883 339" stroke="black" stroke-width="1.5"/>
<path d="M456.988 -51L66.9883 339" stroke="black" stroke-width="1.5"/>
<path d="M461.988 -51L71.9883 339" stroke="black" stroke-width="1.5"/>
<path d="M466.988 -51L76.9883 339" stroke="black" stroke-width="1.5"/>
<path d="M471.988 -51L81.9883 339" stroke="black" stroke-width="1.5"/>
<path d="M476.988 -51L86.9883 339" stroke="black" stroke-width="1.5"/>
<path d="M481.988 -51L91.9883 339" stroke="black" stroke-width="1.5"/>
<path d="M486.988 -51L96.9883 339" stroke="black" stroke-width="1.5"/>
<path d="M491.988 -51L101.988 339" stroke="black" stroke-width="1.5"/>
<path d="M496.988 -51L106.988 339" stroke="black" stroke-width="1.5"/>
<path d="M501.988 -51L111.988 339" stroke="black" stroke-width="1.5"/>
<path d="M506.988 -51L116.988 339" stroke="black" stroke-width="1.5"/>
<path d="M511.988 -51L121.988 339" stroke="black" stroke-width="1.5"/>
<path d="M516.988 -51L126.988 339" stroke="black" stroke-width="1.5"/>
<path d="M521.988 -51L131.988 339" stroke="black" stroke-width="1.5"/>
<path d="M526.988 -51L136.988 339" stroke="black" stroke-width="1.5"/>
<path d="M531.988 -51L141.988 339" stroke="black" stroke-width="1.5"/>
<path d="M536.988 -51L146.988 339" stroke="black" stroke-width="1.5"/>
<path d="M541.988 -51L151.988 339" stroke="black" stroke-width="1.5"/>
<path d="M546.988 -51L156.988 339" stroke="black" stroke-width="1.5"/>
<path d="M551.988 -51L161.988 339" stroke="black" stroke-width="1.5"/>
<path d="M556.988 -51L166.988 339" stroke="black" stroke-width="1.5"/>
<path d="M561.988 -51L171.988 339" stroke="black" stroke-width="1.5"/>
</g>
</svg>
