<svg width="129" height="70" viewBox="0 0 129 70" fill="none" xmlns="http://www.w3.org/2000/svg">
<mask id="mask0_2146_79108" style="mask-type:alpha" maskUnits="userSpaceOnUse" x="0" y="5" width="125" height="64">
<path d="M104.455 5.73535C101.203 5.73535 97.9861 6.28995 95.102 7.62768C93.98 6.86274 92.624 6.41553 91.1637 6.41553H73.4837C71.6727 6.41553 70.0224 7.10319 68.7796 8.23164C65.8723 6.9547 62.6403 6.41553 59.3668 6.41553H46.8548C46.7134 6.41553 46.573 6.41972 46.4337 6.42798C46.2945 6.41972 46.1541 6.41553 46.0127 6.41553H33.7727C33.6706 6.41553 33.5689 6.41772 33.4679 6.42205C33.3674 6.41771 33.2666 6.41553 33.1656 6.41553H20.9256C20.7887 6.41553 20.6527 6.41946 20.5176 6.42722C20.3826 6.41946 20.2466 6.41553 20.1096 6.41553H7.86964C5.93687 6.41553 4.09011 7.21466 2.767 8.62355C1.44389 10.0324 0.762182 11.9257 0.883431 13.8547L3.87543 61.4547C4.10726 65.1429 7.16616 68.0155 10.8616 68.0155H29.9016C30.5718 68.0155 31.2211 67.921 31.8365 67.7443C32.4514 67.9209 33.101 68.0155 33.7727 68.0155H46.0127C46.1541 68.0155 46.2945 68.0113 46.4337 68.0031C46.573 68.0113 46.7134 68.0155 46.8548 68.0155H59.3668C62.6725 68.0155 65.9184 67.4814 68.8487 66.2613C70.0832 67.353 71.7061 68.0155 73.4837 68.0155H91.1637C92.6247 68.0155 93.9813 67.5679 95.1036 66.8023C97.9803 68.138 101.194 68.6954 104.455 68.6954C109.807 68.6954 114.988 67.1827 118.842 63.4038C122.716 59.6049 124.307 54.4398 124.307 49.0474V48.1634C124.307 44.0494 124.031 40.0721 122.568 36.5985C122.344 36.0646 122.098 35.5577 121.833 35.0756C123.346 33.7916 124.307 31.8757 124.307 29.7354V25.3154C124.307 19.9412 122.707 14.7932 118.832 11.0087C114.981 7.24756 109.807 5.73535 104.455 5.73535Z" fill="black"/>
</mask>
<g mask="url(#mask0_2146_79108)">
<path d="M2.98828 -51.5L-387.012 338.5" stroke="black" stroke-width="1.5"/>
<path d="M7.98828 -51.5L-382.012 338.5" stroke="black" stroke-width="1.5"/>
<path d="M12.9883 -51.5L-377.012 338.5" stroke="black" stroke-width="1.5"/>
<path d="M17.9883 -51.5L-372.012 338.5" stroke="black" stroke-width="1.5"/>
<path d="M22.9883 -51.5L-367.012 338.5" stroke="black" stroke-width="1.5"/>
<path d="M27.9883 -51.5L-362.012 338.5" stroke="black" stroke-width="1.5"/>
<path d="M32.9883 -51.5L-357.012 338.5" stroke="black" stroke-width="1.5"/>
<path d="M37.9883 -51.5L-352.012 338.5" stroke="black" stroke-width="1.5"/>
<path d="M42.9883 -51.5L-347.012 338.5" stroke="black" stroke-width="1.5"/>
<path d="M47.9883 -51.5L-342.012 338.5" stroke="black" stroke-width="1.5"/>
<path d="M52.9883 -51.5L-337.012 338.5" stroke="black" stroke-width="1.5"/>
<path d="M57.9883 -51.5L-332.012 338.5" stroke="black" stroke-width="1.5"/>
<path d="M62.9883 -51.5L-327.012 338.5" stroke="black" stroke-width="1.5"/>
<path d="M67.9883 -51.5L-322.012 338.5" stroke="black" stroke-width="1.5"/>
<path d="M72.9883 -51.5L-317.012 338.5" stroke="black" stroke-width="1.5"/>
<path d="M77.9883 -51.5L-312.012 338.5" stroke="black" stroke-width="1.5"/>
<path d="M82.9883 -51.5L-307.012 338.5" stroke="black" stroke-width="1.5"/>
<path d="M87.9883 -51.5L-302.012 338.5" stroke="black" stroke-width="1.5"/>
<path d="M92.9883 -51.5L-297.012 338.5" stroke="black" stroke-width="1.5"/>
<path d="M97.9883 -51.5L-292.012 338.5" stroke="black" stroke-width="1.5"/>
<path d="M102.988 -51.5L-287.012 338.5" stroke="black" stroke-width="1.5"/>
<path d="M107.988 -51.5L-282.012 338.5" stroke="black" stroke-width="1.5"/>
<path d="M112.988 -51.5L-277.012 338.5" stroke="black" stroke-width="1.5"/>
<path d="M117.988 -51.5L-272.012 338.5" stroke="black" stroke-width="1.5"/>
<path d="M122.988 -51.5L-267.012 338.5" stroke="black" stroke-width="1.5"/>
<path d="M127.988 -51.5L-262.012 338.5" stroke="black" stroke-width="1.5"/>
<path d="M132.988 -51.5L-257.012 338.5" stroke="black" stroke-width="1.5"/>
<path d="M137.988 -51.5L-252.012 338.5" stroke="black" stroke-width="1.5"/>
<path d="M142.988 -51.5L-247.012 338.5" stroke="black" stroke-width="1.5"/>
<path d="M147.988 -51.5L-242.012 338.5" stroke="black" stroke-width="1.5"/>
<path d="M152.988 -51.5L-237.012 338.5" stroke="black" stroke-width="1.5"/>
<path d="M157.988 -51.5L-232.012 338.5" stroke="black" stroke-width="1.5"/>
<path d="M162.988 -51.5L-227.012 338.5" stroke="black" stroke-width="1.5"/>
<path d="M167.988 -51.5L-222.012 338.5" stroke="black" stroke-width="1.5"/>
<path d="M172.988 -51.5L-217.012 338.5" stroke="black" stroke-width="1.5"/>
<path d="M177.988 -51.5L-212.012 338.5" stroke="black" stroke-width="1.5"/>
<path d="M182.988 -51.5L-207.012 338.5" stroke="black" stroke-width="1.5"/>
<path d="M187.988 -51.5L-202.012 338.5" stroke="black" stroke-width="1.5"/>
<path d="M192.988 -51.5L-197.012 338.5" stroke="black" stroke-width="1.5"/>
<path d="M197.988 -51.5L-192.012 338.5" stroke="black" stroke-width="1.5"/>
<path d="M202.988 -51.5L-187.012 338.5" stroke="black" stroke-width="1.5"/>
<path d="M207.988 -51.5L-182.012 338.5" stroke="black" stroke-width="1.5"/>
<path d="M212.988 -51.5L-177.012 338.5" stroke="black" stroke-width="1.5"/>
<path d="M217.988 -51.5L-172.012 338.5" stroke="black" stroke-width="1.5"/>
<path d="M222.988 -51.5L-167.012 338.5" stroke="black" stroke-width="1.5"/>
<path d="M227.988 -51.5L-162.012 338.5" stroke="black" stroke-width="1.5"/>
<path d="M232.988 -51.5L-157.012 338.5" stroke="black" stroke-width="1.5"/>
<path d="M237.988 -51.5L-152.012 338.5" stroke="black" stroke-width="1.5"/>
<path d="M242.988 -51.5L-147.012 338.5" stroke="black" stroke-width="1.5"/>
<path d="M247.988 -51.5L-142.012 338.5" stroke="black" stroke-width="1.5"/>
<path d="M252.988 -51.5L-137.012 338.5" stroke="black" stroke-width="1.5"/>
<path d="M257.988 -51.5L-132.012 338.5" stroke="black" stroke-width="1.5"/>
<path d="M262.988 -51.5L-127.012 338.5" stroke="black" stroke-width="1.5"/>
<path d="M267.988 -51.5L-122.012 338.5" stroke="black" stroke-width="1.5"/>
<path d="M272.988 -51.5L-117.012 338.5" stroke="black" stroke-width="1.5"/>
<path d="M277.988 -51.5L-112.012 338.5" stroke="black" stroke-width="1.5"/>
<path d="M282.988 -51.5L-107.012 338.5" stroke="black" stroke-width="1.5"/>
<path d="M287.988 -51.5L-102.012 338.5" stroke="black" stroke-width="1.5"/>
<path d="M292.988 -51.5L-97.0117 338.5" stroke="black" stroke-width="1.5"/>
<path d="M297.988 -51.5L-92.0117 338.5" stroke="black" stroke-width="1.5"/>
<path d="M302.988 -51.5L-87.0117 338.5" stroke="black" stroke-width="1.5"/>
<path d="M307.988 -51.5L-82.0117 338.5" stroke="black" stroke-width="1.5"/>
<path d="M312.988 -51.5L-77.0117 338.5" stroke="black" stroke-width="1.5"/>
<path d="M317.988 -51.5L-72.0117 338.5" stroke="black" stroke-width="1.5"/>
<path d="M322.988 -51.5L-67.0117 338.5" stroke="black" stroke-width="1.5"/>
<path d="M327.988 -51.5L-62.0117 338.5" stroke="black" stroke-width="1.5"/>
<path d="M332.988 -51.5L-57.0117 338.5" stroke="black" stroke-width="1.5"/>
<path d="M337.988 -51.5L-52.0117 338.5" stroke="black" stroke-width="1.5"/>
<path d="M342.988 -51.5L-47.0117 338.5" stroke="black" stroke-width="1.5"/>
<path d="M347.988 -51.5L-42.0117 338.5" stroke="black" stroke-width="1.5"/>
<path d="M352.988 -51.5L-37.0117 338.5" stroke="black" stroke-width="1.5"/>
<path d="M357.988 -51.5L-32.0117 338.5" stroke="black" stroke-width="1.5"/>
<path d="M362.988 -51.5L-27.0117 338.5" stroke="black" stroke-width="1.5"/>
<path d="M367.988 -51.5L-22.0117 338.5" stroke="black" stroke-width="1.5"/>
<path d="M372.988 -51.5L-17.0117 338.5" stroke="black" stroke-width="1.5"/>
<path d="M377.988 -51.5L-12.0117 338.5" stroke="black" stroke-width="1.5"/>
<path d="M382.988 -51.5L-7.01172 338.5" stroke="black" stroke-width="1.5"/>
<path d="M387.988 -51.5L-2.01172 338.5" stroke="black" stroke-width="1.5"/>
<path d="M392.988 -51.5L2.98828 338.5" stroke="black" stroke-width="1.5"/>
<path d="M397.988 -51.5L7.98828 338.5" stroke="black" stroke-width="1.5"/>
<path d="M402.988 -51.5L12.9883 338.5" stroke="black" stroke-width="1.5"/>
<path d="M407.988 -51.5L17.9883 338.5" stroke="black" stroke-width="1.5"/>
<path d="M412.988 -51.5L22.9883 338.5" stroke="black" stroke-width="1.5"/>
<path d="M417.988 -51.5L27.9883 338.5" stroke="black" stroke-width="1.5"/>
<path d="M422.988 -51.5L32.9883 338.5" stroke="black" stroke-width="1.5"/>
<path d="M427.988 -51.5L37.9883 338.5" stroke="black" stroke-width="1.5"/>
<path d="M432.988 -51.5L42.9883 338.5" stroke="black" stroke-width="1.5"/>
<path d="M437.988 -51.5L47.9883 338.5" stroke="black" stroke-width="1.5"/>
<path d="M442.988 -51.5L52.9883 338.5" stroke="black" stroke-width="1.5"/>
<path d="M447.988 -51.5L57.9883 338.5" stroke="black" stroke-width="1.5"/>
<path d="M452.988 -51.5L62.9883 338.5" stroke="black" stroke-width="1.5"/>
<path d="M457.988 -51.5L67.9883 338.5" stroke="black" stroke-width="1.5"/>
<path d="M462.988 -51.5L72.9883 338.5" stroke="black" stroke-width="1.5"/>
<path d="M467.988 -51.5L77.9883 338.5" stroke="black" stroke-width="1.5"/>
<path d="M472.988 -51.5L82.9883 338.5" stroke="black" stroke-width="1.5"/>
<path d="M477.988 -51.5L87.9883 338.5" stroke="black" stroke-width="1.5"/>
<path d="M482.988 -51.5L92.9883 338.5" stroke="black" stroke-width="1.5"/>
<path d="M487.988 -51.5L97.9883 338.5" stroke="black" stroke-width="1.5"/>
<path d="M492.988 -51.5L102.988 338.5" stroke="black" stroke-width="1.5"/>
<path d="M497.988 -51.5L107.988 338.5" stroke="black" stroke-width="1.5"/>
<path d="M502.988 -51.5L112.988 338.5" stroke="black" stroke-width="1.5"/>
<path d="M507.988 -51.5L117.988 338.5" stroke="black" stroke-width="1.5"/>
<path d="M512.988 -51.5L122.988 338.5" stroke="black" stroke-width="1.5"/>
</g>
</svg>
