<svg width="230" height="78" viewBox="0 0 230 78" fill="none" xmlns="http://www.w3.org/2000/svg">
<path fill-rule="evenodd" clip-rule="evenodd" d="M87.099 35.6857L71.0233 65.669L69.6174 68.2801C68.3289 70.8359 66.0824 71.9966 64.9018 72.4738C63.4614 73.0559 61.9486 73.3032 60.5822 73.3222C59.2543 73.3406 57.5261 73.1503 55.8193 72.3655C54.0587 71.5559 51.6593 69.7387 50.9454 66.4071L50.9391 66.3778L45.5318 40.0481C44.4414 45.0055 40.9406 48.3099 37.383 50.2157C33.718 52.1791 29.4002 53.0404 25.31 53.0404C14.5171 53.0404 2 45.2602 2 31.2004C2 21.4734 7.44953 14.0629 14.3481 9.37277C21.1621 4.74014 29.8498 2.36035 38.12 2.36035C40.1019 2.36035 42.2233 2.56638 44.1794 2.75636C44.243 2.76254 44.3065 2.7687 44.3698 2.77484C47.0299 3.03292 49.8636 3.30516 53.2437 3.34074L53.3557 3.34192L53.4676 3.34668C56.4307 3.47277 59.5489 3.40942 62.8354 3.0401C64.5852 2.82556 67.9673 2.99172 70.2762 6.07034C71.2359 7.34986 71.6462 8.68295 71.7863 9.85318L71.8778 9.53945C72.1963 8.24862 72.922 6.38321 74.7029 4.88952C76.6816 3.22999 78.8916 2.92035 80.33 2.92035H80.7658L81.1982 2.9744C84.5015 3.38731 92.4952 3.40236 96.6717 2.95939L97.0398 2.92035H97.41C97.9731 2.92035 100.365 2.92095 102.557 4.64365C105.445 6.91273 105.809 10.2242 105.435 12.4711L105.366 12.8812L104.991 14.1674C106.033 14.1122 107.089 14.0362 108.157 13.9391L108.224 13.933L108.292 13.9282C109.122 13.8688 110.499 13.8932 111.953 14.4343C113.138 14.0091 114.249 13.9102 115.062 13.9102H115.406L115.749 13.9439C118.535 14.2187 122.024 14.134 126.114 14.0215L126.163 14.0201C128.105 13.9667 130.158 13.9102 132.142 13.9102C138.186 13.9102 143.403 15.0819 147.423 17.6941C147.81 17.094 148.304 16.5003 148.936 15.953C150.954 14.2038 153.24 13.9103 154.64 13.9103H154.774L154.907 13.9154C163.873 14.2576 172.002 14.2586 180.963 13.9185C182.56 13.8291 184.466 14.1133 186.273 15.2544C188.08 16.3958 189.111 17.9687 189.696 19.2369L189.843 19.5557C190.584 18.861 191.369 18.2317 192.181 17.6691C196.428 14.7239 201.656 13.3501 206.337 13.3501C207.968 13.3501 210.573 13.5214 213.335 14.3306C215.303 13.3708 218.011 12.8584 220.818 14.1389C223.868 15.5298 225.219 18.2308 225.75 20.1525C225.754 20.1645 225.757 20.1764 225.76 20.1883L228.527 30.0245V31.4101C228.527 35.2928 225.977 37.6307 224.434 38.6153C223.267 39.3599 221.947 39.8537 220.6 40.0827C223.111 43.2306 225.167 47.3473 225.167 52.5501C225.167 59.3163 222.026 64.7789 217.268 68.3507C212.685 71.7911 206.846 73.3401 201.087 73.3401C196.83 73.3401 191.655 72.5159 187.268 70.2486C186.531 69.868 185.792 69.4298 185.07 68.932C184.479 69.6217 183.758 70.2434 182.897 70.7512C181.135 71.7905 179.36 72.0103 178.09 72.0103H177.951L177.812 72.0048C167.395 71.5909 157.73 71.524 147.26 72.003L147.1 72.0103H146.94C146.398 72.0103 144.143 72.0081 142.005 70.4914C141.696 70.272 141.396 70.0252 141.111 69.7515C136.994 71.6253 132.008 72.4777 126.276 72.1384C126.273 72.1382 126.27 72.138 126.267 72.1378L125.925 72.1184C119.899 71.7756 114.585 71.4797 107.819 71.9903L107.556 72.0102H107.292C106.889 72.0102 105.648 72.0056 104.202 71.4595C102.991 71.9074 101.85 72.0104 101.02 72.0104H100.681L100.343 71.9775C95.7595 71.5319 91.0273 71.5302 86.2796 71.9793L85.9507 72.0104H85.6204C85.0464 72.0104 82.7688 72.0011 80.6233 70.4277C77.6894 68.2762 77.1089 64.9594 77.5256 62.4596L77.5488 62.3206L77.8954 60.6567C78.1366 59.257 78.7991 57.2083 80.6858 55.5731C81.6822 54.7096 82.7437 54.2008 83.7317 53.907C83.7602 53.7847 83.7896 53.6537 83.8201 53.5134L83.8236 53.4976L83.827 53.4819C84.6025 49.9924 86.0824 41.8015 87.099 35.6857Z" fill="white" stroke="black" stroke-width="2" stroke-linejoin="round"/>
</svg>
