<svg width="197" height="66" viewBox="0 0 197 66" fill="none" xmlns="http://www.w3.org/2000/svg">
<path d="M171.549 60.7056C163.029 60.7056 155.509 56.3156 151.149 49.6756C145.639 56.4256 137.339 60.5056 128.379 60.5056C119.419 60.5056 111.709 56.6256 106.329 50.4756C102.799 56.5056 96.2588 60.5656 88.7988 60.5656H67.6787C66.4287 60.5656 65.2587 60.2356 64.2487 59.6656C63.2587 60.1956 62.1287 60.4956 60.9387 60.4956H51.4688C47.5988 60.4956 44.4688 57.3656 44.4688 53.4956V47.1656L42.9387 52.8656C42.9087 52.9656 42.8787 53.0656 42.8487 53.1656C41.6987 56.8156 38.6888 59.5556 34.9888 60.3356C34.5188 60.4356 34.0287 60.4856 33.5487 60.4856H20.2987C17.0387 60.4856 14.2087 58.2356 13.4787 55.0556L3.17875 10.3556C2.69875 8.27557 3.19875 6.09557 4.51875 4.42557C5.84875 2.75557 7.86875 1.77557 9.99875 1.77557L19.7288 1.77557C22.9888 1.77557 25.8087 4.02557 26.5487 7.19557L29.7688 21.1256L33.5688 6.95557C34.3888 3.89557 37.1588 1.77557 40.3288 1.77557L47.4987 1.77557C48.1387 1.77557 48.7687 1.86557 49.3687 2.02557C50.0287 1.81557 50.7287 1.70557 51.4587 1.70557L60.9287 1.70557C62.1987 1.70557 63.3887 2.04557 64.4187 2.63557C65.3887 2.12557 66.4987 1.83557 67.6787 1.83557L89.8887 1.83557C90.0887 1.83557 90.2788 1.83557 90.4788 1.85557C97.3188 2.43557 103.079 6.25557 106.319 11.7556C111.699 5.59557 119.599 1.70557 128.389 1.70557C137.179 1.70557 145.839 5.96557 151.229 12.6156C155.609 6.04557 163.089 1.70557 171.559 1.70557C185.019 1.70557 195.969 12.6556 195.969 26.1156C195.969 27.9156 195.289 29.5456 194.179 30.7856C195.299 32.0456 195.969 33.6956 195.969 35.4556V36.2856C195.969 49.7456 185.019 60.6956 171.559 60.6956L171.549 60.7056Z" fill="white" stroke="black" stroke-width="2" stroke-linejoin="round"/>
</svg>
