<svg width="227" height="80" viewBox="0 0 227 80" fill="none" xmlns="http://www.w3.org/2000/svg">
<path fill-rule="evenodd" clip-rule="evenodd" d="M75.9336 4.56432C74.6721 1.72615 71.4533 0.319749 68.5137 1.32239C66.5196 2.00258 64.1359 2.67632 61.3413 3.33547C58.2179 3.51084 55.606 3.75724 53.6303 4.10836C52.6178 4.2883 51.4934 4.54238 50.4713 4.94969C49.9612 5.15299 49.2501 5.48212 48.5394 6.01554C47.9828 6.43333 47.1463 7.18778 46.5517 8.36784C45.6394 9.95877 44.7647 11.4846 43.9274 12.9454C43.8096 11.0461 42.7953 9.30587 41.1819 8.26942C39.4636 7.1656 37.3018 7.01161 35.4444 7.86071C33.953 8.5425 32.8215 8.99619 32.0081 9.26846C31.6084 9.40225 31.3445 9.47221 31.1949 9.50505H30.3101C30.0438 9.50505 29.2083 9.43305 27.5442 9.11775C27.176 9.04798 26.802 9.01287 26.4272 9.01287C25.3856 9.01287 24.4003 9.04475 23.5262 9.13019C22.8063 9.20055 21.5821 9.35288 20.4049 9.863C18.4556 10.7077 17.0984 12.5201 16.8363 14.6283L16.2348 19.4681C16.2216 19.5739 16.2113 19.6801 16.2038 19.7864C16.0634 21.7787 15.9301 23.3293 15.8069 24.4724C15.309 24.808 14.8289 25.1686 14.3735 25.5573C13.2058 26.2614 12.2353 26.8603 11.4772 27.3467C10.792 27.7864 9.83197 28.4114 9.1746 29.0116C7.92954 30.1484 7.22021 31.7566 7.22021 33.4426V33.5519C7.22021 36.5177 9.37198 38.9809 12.1995 39.4655C12.252 39.5516 12.3067 39.6364 12.3636 39.7198C12.2884 39.7738 12.2138 39.8277 12.1398 39.8815C10.9988 40.6032 10.0945 41.1857 9.4527 41.6152C9.12765 41.8327 8.80004 42.0574 8.52506 42.2621C8.40475 42.3517 8.17708 42.5238 7.93643 42.7391C7.83207 42.8325 7.57266 43.0682 7.29238 43.4033C7.15553 43.5669 6.89522 43.8935 6.64106 44.3502C6.45026 44.6931 5.88037 45.7675 5.88037 47.2785C5.88037 50.5922 8.56666 53.2785 11.8804 53.2785H12.0392C10.8523 54.0349 9.85487 54.6747 9.04875 55.197C7.86008 55.967 6.66967 56.7436 6.11767 57.1996C4.73789 58.3394 3.93896 60.0357 3.93896 61.8254V61.9347C3.93896 63.2869 4.39504 64.5861 5.21359 65.6322C5.04916 66.687 5.16525 67.7886 5.586 68.8208C6.50671 71.0793 8.70304 72.5558 11.1421 72.5558C11.5711 72.5558 12.3904 72.5291 13.3426 72.2344C14.4641 73.4219 16.0369 74.1144 17.7046 74.1144C18.515 74.1144 19.6274 73.9844 20.6434 73.8527C21.7058 73.7149 23.0628 73.5184 24.7001 73.2668H25.2241C27.0284 73.2668 28.5565 73.2322 29.6502 73.1328C29.7892 73.1201 29.9277 73.1026 30.0656 73.0803C33.269 72.5618 35.8788 72.056 37.7601 71.5504C38.6572 71.3092 39.6792 70.9933 40.5846 70.5563C41.0145 70.3488 41.7473 69.9604 42.4593 69.3122C42.8452 68.9609 43.5398 68.2413 44.026 67.1612C44.4038 66.5056 44.7603 65.8775 45.0944 65.2781C45.2485 66.8616 46.0274 68.3287 47.2724 69.3448C48.6685 70.4843 50.503 70.9359 52.2685 70.5747C52.6054 70.5059 52.965 70.4221 53.3379 70.3173C54.3421 71.0463 55.5691 71.4621 56.863 71.4621H56.9724C57.8119 71.4621 58.6421 71.2859 59.4092 70.945C60.2943 70.5516 60.9239 70.4142 61.3371 70.3787C62.9001 70.7252 64.1579 70.9946 65.0926 71.1815C65.5755 71.2781 66.0115 71.3606 66.3766 71.4215L66.4056 71.4263C66.6247 71.4632 67.2689 71.5715 67.9099 71.5715C69.3514 71.5715 70.7294 71.3444 72.0363 70.9329C72.3618 71.3859 72.7524 71.7959 73.2007 72.1483C74.6481 73.2858 76.5376 73.6959 78.3263 73.2608C79.6578 72.937 81.2914 72.1458 82.8376 71.3182L95.3086 69.189C95.3416 69.1834 95.3746 69.1775 95.4075 69.1713C95.431 69.1668 95.4545 69.1623 95.478 69.1576C103.121 67.6256 108.917 66.2302 112.266 64.9189C112.954 64.7607 113.494 64.5484 113.775 64.4374C114.482 64.1575 115.236 63.7942 115.991 63.4014C117.396 62.6699 119.149 61.6531 121.21 60.3892C121.075 60.8588 120.997 61.3466 120.98 61.8424C120.459 62.4787 119.725 63.5959 119.506 65.1331C119.26 66.855 119.773 68.5988 120.913 69.9128C121.023 70.0398 121.138 70.1616 121.257 70.278C121.432 70.4577 121.62 70.6273 121.818 70.7855C123.249 71.9238 125.12 72.3481 126.901 71.938C128.16 71.6481 129.1 71.4365 129.735 71.2992C130.037 71.2339 130.243 71.1914 130.369 71.1667C130.593 71.1379 130.816 71.0963 131.035 71.0422C136.794 69.6252 141.262 68.5742 144.462 67.8807C146.066 67.5332 147.307 67.2853 148.211 67.1273C148.828 67.0193 149.16 66.9771 149.289 66.9607C149.334 66.9551 149.354 66.9513 149.354 66.9513C149.354 66.9513 149.331 66.9504 149.289 66.9504C149.71 66.9504 150.13 66.9061 150.541 66.8183C151.92 66.5241 153.282 66.2857 154.627 66.1022C153.971 67.692 154.025 69.5052 154.808 71.0711L154.917 71.2899C155.933 73.3226 158.011 74.6066 160.284 74.6066C161.68 74.6066 162.896 74.1649 163.611 73.8558C164.906 75.2044 166.789 75.8998 168.711 75.6506C169.867 75.5008 171.363 75.1757 172.789 74.3589C184.737 70.141 193.889 66.1356 199.878 62.2864C204.035 60.0065 207.685 56.5821 210.904 52.3113C211.059 52.1046 211.202 51.8881 211.329 51.6631C213.204 48.3611 214.602 45.0387 215.206 41.7735C217.967 40.203 219.033 36.7363 217.603 33.8765L217.494 33.6577C217.474 33.6183 217.454 33.5792 217.434 33.5404C218.096 31.9744 218.088 30.1433 217.275 28.5171L217.166 28.2983C217.076 28.1176 216.977 27.9434 216.872 27.7759C216.785 27.1344 216.594 26.4981 216.291 25.8921L216.182 25.6733C216.14 25.5909 216.097 25.5098 216.053 25.4301C216.706 24.7184 217.275 23.7721 217.537 22.6229C218.032 20.8945 218.433 19.5659 218.744 18.6062C220.013 17.8612 221.374 16.9294 222.742 15.9453C225.131 14.2254 225.92 11.0256 224.603 8.39208L224.494 8.17333C223.587 6.35833 221.88 5.2004 220.008 4.92109C218.863 3.53302 217.433 2.98434 216.985 2.81568C216.205 2.52122 215.413 2.34974 214.764 2.23748C213.436 2.0076 211.794 1.87609 209.974 1.79943C209.89 1.79589 209.805 1.79412 209.721 1.79412H209.174C208.83 1.79412 208.486 1.8238 208.146 1.88285C206.542 2.1619 205.197 2.36216 204.098 2.49146C203.813 2.52508 203.53 2.57919 203.252 2.65339C199.087 3.76535 195.575 4.94394 192.947 6.24636C192.66 6.38862 192.385 6.55364 192.124 6.73984C191.624 7.09711 190.264 7.94429 187.781 9.38989C187.322 9.65678 186.901 9.9833 186.529 10.3609C185.879 11.0189 185.385 11.4997 185.028 11.8278C184.856 11.986 184.741 12.0853 184.676 12.1398C184.588 12.2 184.502 12.2625 184.417 12.3273C184.79 11.3887 185.149 10.1782 185.149 8.88787V8.23162C185.149 6.97716 184.753 5.25506 183.337 3.83866C182.029 2.53095 180.523 2.16527 179.674 2.05919C179.427 2.02834 179.179 2.01287 178.93 2.01287H178.055C177.692 2.01287 177.33 2.04579 176.973 2.11123L176.622 2.17554C175.778 1.72279 174.814 1.46599 173.789 1.46599C172.418 1.46599 171.28 1.92393 170.727 2.18277C169.396 1.46666 167.806 1.25834 166.27 1.68682C165.364 1.93981 163.924 2.56008 162.519 3.181C161.063 3.82435 159.141 4.69989 156.766 5.8015C154.736 6.10332 151.781 6.66306 148.011 7.44175C146.197 7.65135 144.394 7.91044 143.029 8.30513C142.002 6.35571 139.969 5.10271 137.721 5.10271C136.236 5.10271 134.901 5.57243 134.067 5.91733C132.241 5.06007 130.248 4.66521 128.205 4.66521C126.902 4.66521 125.707 4.70383 124.669 4.80038C124.09 4.85424 123.352 4.942 122.58 5.12474C120.275 5.23453 117.992 5.75094 115.745 6.58818C115.009 6.40747 114.237 6.36583 113.469 6.47504C111.083 6.81458 108.978 7.1185 107.155 7.3866C106.183 5.27603 104.063 3.89959 101.707 3.89959H101.488C100.565 3.89959 99.654 4.11265 98.8265 4.5222C98.5141 4.6768 98.0558 4.89398 97.4498 5.17438C96.0648 3.51814 93.8586 2.70353 91.6707 3.1411L91.1238 3.25048C90.7237 3.3305 90.3329 3.45112 89.9572 3.61047C88.9526 4.0367 86.9005 4.57872 83.4318 5.08945C82.9803 5.05892 82.2426 4.97008 81.148 4.76643C80.7083 4.68462 80.2608 4.65224 79.8139 4.66988C78.6028 4.71768 77.3992 4.92602 76.2176 5.24906C76.1654 5.10124 76.1072 4.95491 76.0429 4.81041L75.9336 4.56432Z" fill="white"/>
<path d="M31.1049 9.52259C31.1049 9.52259 31.1089 9.52184 31.1166 9.52078M68.5137 1.32239C71.4533 0.319749 74.6721 1.72615 75.9336 4.56432L76.0429 4.81041C76.1072 4.95491 76.1654 5.10124 76.2176 5.24906C77.3992 4.92602 78.6028 4.71768 79.8139 4.66988C80.2608 4.65224 80.7083 4.68462 81.148 4.76643C82.2426 4.97008 82.9803 5.05892 83.4318 5.08945C86.9005 4.57872 88.9526 4.0367 89.9572 3.61047C90.3329 3.45112 90.7237 3.3305 91.1238 3.25048L91.6707 3.1411C93.8586 2.70353 96.0648 3.51814 97.4498 5.17438C98.0558 4.89398 98.5141 4.6768 98.8265 4.5222C99.654 4.11265 100.565 3.89959 101.488 3.89959H101.707C104.063 3.89959 106.183 5.27603 107.155 7.3866C108.978 7.1185 111.083 6.81458 113.469 6.47504C114.237 6.36583 115.009 6.40747 115.745 6.58818C117.992 5.75094 120.275 5.23453 122.58 5.12474C123.352 4.942 124.09 4.85424 124.669 4.80038C125.707 4.70383 126.902 4.66521 128.205 4.66521C130.248 4.66521 132.241 5.06007 134.067 5.91733C134.901 5.57243 136.236 5.10271 137.721 5.10271C139.969 5.10271 142.002 6.35571 143.029 8.30513C144.394 7.91044 146.197 7.65135 148.011 7.44175C151.781 6.66306 154.736 6.10332 156.766 5.8015C159.141 4.69989 161.063 3.82435 162.519 3.181C163.924 2.56008 165.364 1.93981 166.27 1.68682C167.806 1.25834 169.396 1.46666 170.727 2.18277C171.28 1.92393 172.418 1.46599 173.789 1.46599C174.814 1.46599 175.778 1.72279 176.622 2.17554L176.973 2.11123C177.33 2.04579 177.692 2.01287 178.055 2.01287H178.93C179.179 2.01287 179.427 2.02834 179.674 2.05919C180.523 2.16527 182.029 2.53095 183.337 3.83866C184.753 5.25506 185.149 6.97716 185.149 8.23162V8.88787C185.149 10.1782 184.79 11.3887 184.417 12.3273C184.502 12.2625 184.588 12.2 184.676 12.1398C184.741 12.0853 184.856 11.986 185.028 11.8278C185.385 11.4997 185.879 11.0189 186.529 10.3609C186.901 9.9833 187.322 9.65678 187.781 9.38989C190.264 7.94429 191.624 7.09711 192.124 6.73984C192.385 6.55364 192.66 6.38862 192.947 6.24636C195.575 4.94394 199.087 3.76535 203.252 2.65339C203.53 2.57919 203.813 2.52508 204.098 2.49146C205.197 2.36216 206.542 2.1619 208.146 1.88285C208.486 1.8238 208.83 1.79412 209.174 1.79412H209.721C209.805 1.79412 209.89 1.79589 209.974 1.79943C211.794 1.87609 213.436 2.0076 214.764 2.23748C215.413 2.34974 216.205 2.52122 216.985 2.81568C217.433 2.98434 218.863 3.53302 220.008 4.92109C221.88 5.2004 223.587 6.35833 224.494 8.17333L224.603 8.39208C225.92 11.0256 225.131 14.2254 222.742 15.9453C221.374 16.9294 220.013 17.8612 218.744 18.6062C218.433 19.5659 218.032 20.8945 217.537 22.6229C217.275 23.7721 216.706 24.7184 216.053 25.4301C216.097 25.5098 216.14 25.5909 216.182 25.6733L216.291 25.8921C216.594 26.4981 216.785 27.1344 216.872 27.7759C216.977 27.9434 217.076 28.1176 217.166 28.2983L217.275 28.5171C218.088 30.1433 218.096 31.9744 217.434 33.5404C217.454 33.5792 217.474 33.6183 217.494 33.6577L217.603 33.8765C219.033 36.7363 217.967 40.203 215.206 41.7735C214.602 45.0387 213.204 48.3611 211.329 51.6631C211.202 51.8881 211.059 52.1046 210.904 52.3113C207.685 56.5821 204.035 60.0065 199.878 62.2864C193.889 66.1356 184.737 70.141 172.789 74.3589C171.363 75.1757 169.867 75.5008 168.711 75.6506C166.789 75.8998 164.906 75.2044 163.611 73.8558C162.896 74.1649 161.68 74.6066 160.284 74.6066C158.011 74.6066 155.933 73.3226 154.917 71.2899L154.808 71.0711C154.025 69.5052 153.971 67.692 154.627 66.1022C153.282 66.2857 151.92 66.5241 150.541 66.8183C150.13 66.9061 149.71 66.9504 149.289 66.9504C149.331 66.9504 149.354 66.9513 149.354 66.9513C149.354 66.9513 149.334 66.9551 149.289 66.9607C149.16 66.9771 148.828 67.0193 148.211 67.1273C147.307 67.2853 146.066 67.5332 144.462 67.8807C141.262 68.5742 136.794 69.6252 131.035 71.0422C130.816 71.0963 130.593 71.1379 130.369 71.1667C130.243 71.1914 130.037 71.2339 129.735 71.2992C129.1 71.4365 128.16 71.6481 126.901 71.938C125.12 72.3481 123.249 71.9238 121.818 70.7855C121.62 70.6273 121.432 70.4577 121.257 70.278C121.138 70.1616 121.023 70.0398 120.913 69.9128C119.773 68.5988 119.26 66.855 119.506 65.1331C119.725 63.5959 120.459 62.4787 120.98 61.8424C120.997 61.3466 121.075 60.8588 121.21 60.3892C119.149 61.6531 117.396 62.6699 115.991 63.4014C115.236 63.7942 114.482 64.1575 113.775 64.4374C113.494 64.5484 112.954 64.7607 112.266 64.9189C108.917 66.2302 103.121 67.6256 95.478 69.1576C95.4545 69.1623 95.431 69.1668 95.4075 69.1713C95.3746 69.1775 95.3416 69.1834 95.3086 69.189L82.8376 71.3182C81.2914 72.1458 79.6578 72.937 78.3263 73.2608C76.5376 73.6959 74.6481 73.2858 73.2007 72.1483C72.7524 71.7959 72.3618 71.3859 72.0363 70.9329C70.7294 71.3444 69.3514 71.5715 67.9099 71.5715C67.2689 71.5715 66.6247 71.4632 66.4056 71.4263L66.3766 71.4215C66.0115 71.3606 65.5755 71.2781 65.0926 71.1815C64.1579 70.9946 62.9001 70.7252 61.3371 70.3787C60.9239 70.4142 60.2943 70.5516 59.4092 70.945C58.6421 71.2859 57.8119 71.4621 56.9724 71.4621H56.863C55.5691 71.4621 54.3421 71.0463 53.3379 70.3173C52.965 70.4221 52.6054 70.5059 52.2685 70.5747C50.503 70.9359 48.6685 70.4843 47.2724 69.3448C46.0274 68.3287 45.2485 66.8616 45.0944 65.2781C44.7603 65.8775 44.4038 66.5056 44.026 67.1612C43.5398 68.2413 42.8452 68.9609 42.4593 69.3122C41.7473 69.9604 41.0145 70.3488 40.5846 70.5563C39.6792 70.9933 38.6572 71.3092 37.7601 71.5504C35.8788 72.056 33.269 72.5618 30.0656 73.0803C29.9277 73.1026 29.7892 73.1201 29.6502 73.1328C28.5565 73.2322 27.0284 73.2668 25.2241 73.2668H24.7001C23.0628 73.5184 21.7058 73.7149 20.6434 73.8527C19.6274 73.9844 18.515 74.1144 17.7046 74.1144C16.0369 74.1144 14.4641 73.4219 13.3426 72.2344C12.3904 72.5291 11.5711 72.5558 11.1421 72.5558C8.70304 72.5558 6.50671 71.0793 5.586 68.8208C5.16525 67.7886 5.04916 66.687 5.21359 65.6322C4.39504 64.5861 3.93896 63.2869 3.93896 61.9347V61.8254C3.93896 60.0357 4.73789 58.3394 6.11767 57.1996C6.66967 56.7436 7.86008 55.967 9.04875 55.197C9.85487 54.6747 10.8523 54.0349 12.0392 53.2785H11.8804C8.56666 53.2785 5.88037 50.5922 5.88037 47.2785C5.88037 45.7675 6.45026 44.6931 6.64106 44.3502C6.89522 43.8935 7.15553 43.5669 7.29238 43.4033C7.57266 43.0682 7.83207 42.8325 7.93643 42.7391C8.17708 42.5238 8.40475 42.3517 8.52506 42.2621C8.80004 42.0574 9.12765 41.8327 9.4527 41.6152C10.0945 41.1857 10.9988 40.6032 12.1398 39.8815C12.2138 39.8277 12.2884 39.7738 12.3636 39.7198C12.3067 39.6364 12.252 39.5516 12.1995 39.4655C9.37198 38.9809 7.22021 36.5177 7.22021 33.5519V33.4426C7.22021 31.7566 7.92954 30.1484 9.1746 29.0116C9.83197 28.4114 10.792 27.7864 11.4772 27.3467C12.2353 26.8603 13.2058 26.2614 14.3735 25.5573C14.8289 25.1686 15.309 24.808 15.8069 24.4724C15.9301 23.3293 16.0634 21.7787 16.2038 19.7864C16.2113 19.6801 16.2216 19.5739 16.2348 19.4681L16.8363 14.6283C17.0984 12.5201 18.4556 10.7077 20.4049 9.863C21.5821 9.35288 22.8063 9.20055 23.5262 9.13019C24.4003 9.04475 25.3856 9.01287 26.4272 9.01287C26.802 9.01287 27.176 9.04798 27.5442 9.11775C29.2083 9.43305 30.0438 9.50505 30.3101 9.50505H31.1949C31.3445 9.47221 31.6084 9.40225 32.0081 9.26846C32.8215 8.99619 33.953 8.5425 35.4444 7.86071C37.3018 7.01161 39.4636 7.1656 41.1819 8.26942C42.7953 9.30587 43.8096 11.0461 43.9274 12.9454C44.7647 11.4846 45.6394 9.95877 46.5517 8.36784C47.1463 7.18778 47.9828 6.43333 48.5394 6.01554C49.2501 5.48212 49.9612 5.15299 50.4713 4.94969C51.4934 4.54238 52.6178 4.2883 53.6303 4.10836C55.606 3.75724 58.2179 3.51084 61.3413 3.33547C64.1359 2.67632 66.5196 2.00258 68.5137 1.32239Z" stroke="black" stroke-width="2" stroke-linejoin="round"/>
</svg>
