<svg width="176" height="68" viewBox="0 0 176 68" fill="none" xmlns="http://www.w3.org/2000/svg">
<path d="M122.279 63.6554C113.109 63.6554 104.849 59.6554 99.1794 53.3054C94.2394 61.3554 83.5294 62.8154 76.4194 62.8154H66.1694C64.6894 62.8154 63.3194 62.3554 62.1894 61.5754C61.0594 62.3554 59.6894 62.8154 58.2094 62.8154L53.6694 62.8154C49.7994 62.8154 46.6694 59.6854 46.6694 55.8154V36.6754L38.6194 58.2654C37.5994 61.0054 34.9794 62.8154 32.0594 62.8154H26.9594C24.0694 62.8154 21.4694 61.0354 20.4294 58.3354L2.62941 12.2554C1.79941 10.0954 2.07941 7.67539 3.38941 5.76539C4.68941 3.86539 6.84941 2.72539 9.15941 2.72539L14.0294 2.72539C16.9194 2.72539 19.5094 4.49539 20.5594 7.19539L29.4094 30.0154L37.8794 7.28539C38.8994 4.54539 41.5194 2.72539 44.4394 2.72539L49.2594 2.72539C50.0194 2.72539 50.7594 2.84539 51.4694 3.08539C52.1694 2.85539 52.9094 2.72539 53.6794 2.72539L58.2194 2.72539C59.6994 2.72539 61.0694 3.18539 62.1994 3.96539C63.3294 3.18539 64.6994 2.72539 66.1794 2.72539L77.3194 2.72539C90.1994 2.72539 95.4994 8.49539 97.6094 14.0554C103.269 6.59539 112.229 1.77539 122.289 1.77539C130.829 1.77539 139.079 5.35539 144.939 11.5854C146.249 12.9754 147.409 14.4654 148.419 16.0154C151.029 7.72539 158.309 2.38539 167.869 2.38539C171.739 2.38539 174.869 5.51539 174.869 9.38539V13.8654C174.869 17.7354 171.739 20.8654 167.869 20.8654C166.399 20.8654 165.909 20.8654 165.909 23.1654V42.3754C165.909 54.6454 157.499 63.2054 145.469 63.2054C142.509 63.2054 139.969 61.3654 138.949 58.7654C134.079 61.8654 128.319 63.6554 122.289 63.6554H122.279Z" fill="white" stroke="black" stroke-width="2" stroke-linejoin="round"/>
</svg>
