<svg width="221" height="86" viewBox="0 0 221 86" fill="none" xmlns="http://www.w3.org/2000/svg">
<path d="M80.8308 81.7004C77.6008 81.7004 74.7008 79.4504 73.9908 76.1704L73.5608 74.1805L73.1308 76.1704C72.7408 77.9904 71.6508 79.5704 70.0908 80.5804C68.9508 81.3204 67.6308 81.7004 66.2908 81.7004C65.8008 81.7004 65.3108 81.6504 64.8208 81.5404L61.1908 80.7604C57.4108 79.9504 55.0008 76.2304 55.8208 72.4504L56.2508 70.4604L54.0908 73.4004C52.7208 75.2604 50.6008 76.2505 48.4508 76.2505C47.0108 76.2505 45.5608 75.8104 44.3108 74.8904L41.3208 72.6904C39.8208 71.5904 38.8308 69.9405 38.5508 68.1105C38.2708 66.2805 38.7308 64.4004 39.8308 62.9104L45.2708 55.5105C41.7908 53.1205 39.1508 50.8205 37.5608 49.3305L32.8608 61.2705C31.8108 63.9505 29.2208 65.7104 26.3508 65.7104H20.9108C18.0308 65.7104 15.4508 63.9505 14.4008 61.2705L1.84082 29.3904C0.990819 27.2404 1.26082 24.8004 2.57082 22.8904C3.88082 20.9804 6.04082 19.8304 8.36082 19.8304H13.4208C16.3308 19.8304 18.9408 21.6404 19.9708 24.3604L23.6208 34.0405L27.2908 24.3504C28.3208 21.6304 30.9308 19.8304 33.8408 19.8304H38.9008C39.0708 19.8304 39.2408 19.8304 39.4008 19.8504C37.6408 16.8004 38.4208 12.8604 41.3208 10.7204L44.3108 8.52045C45.5208 7.63045 46.9808 7.16045 48.4608 7.16045C48.8108 7.16045 49.1608 7.19045 49.5108 7.24045C51.3508 7.52045 52.9908 8.52045 54.0908 10.0104L56.2508 12.9504L55.8208 10.9604C55.4308 9.15045 55.7808 7.25045 56.7808 5.69045C57.7908 4.13045 59.3708 3.04045 61.1908 2.65045L64.8208 1.87045C65.3108 1.77045 65.8008 1.71045 66.2908 1.71045C67.6308 1.71045 68.9508 2.09045 70.0908 2.83045C71.6508 3.84045 72.7408 5.42045 73.1308 7.24045L73.5608 9.23045L73.9908 7.24045C74.3808 5.43045 75.4708 3.84045 77.0308 2.83045C78.1708 2.09045 79.4908 1.71045 80.8308 1.71045C81.3208 1.71045 81.8108 1.76045 82.3008 1.87045L85.9308 2.65045C89.7108 3.46045 92.1208 7.18045 91.3008 10.9604L90.8708 12.9504L93.0308 10.0104C94.4008 8.15045 96.5208 7.16045 98.6708 7.16045C100.111 7.16045 101.561 7.60045 102.811 8.52045L105.801 10.7204C106.131 10.9604 106.441 11.2404 106.721 11.5304C107.161 8.09045 110.101 5.43045 113.661 5.43045H118.461C122.331 5.43045 125.461 8.56045 125.461 12.4304V19.7904C127.251 19.3504 129.151 19.1304 131.131 19.1304C139.081 19.1304 145.841 22.9104 149.911 28.9204C154.261 22.9504 161.371 19.1304 169.571 19.1304C175.621 19.1304 181.221 21.2004 185.321 24.9604C185.871 25.4604 186.431 26.0304 186.991 26.6804C189.981 22.0804 195.351 19.1304 201.741 19.1304C209.921 19.1304 216.401 23.9204 218.261 31.3404C218.711 33.1504 218.421 35.0705 217.451 36.6705C216.871 37.6305 216.061 38.4305 215.121 39.0105C219.401 42.9405 220.001 47.7405 220.001 50.1305C220.001 59.4105 212.181 66.4104 201.801 66.4104C195.841 66.4104 190.631 64.2105 187.141 60.4705C182.601 64.3605 176.851 66.4104 170.331 66.4104C161.661 66.4104 154.301 62.6505 149.871 56.6705C145.801 62.6505 139.061 66.4104 131.131 66.4104C127.881 66.4104 124.861 65.8105 122.161 64.6505C121.091 65.3205 119.821 65.7104 118.461 65.7104H113.661C109.791 65.7104 106.661 62.5804 106.661 58.7104V51.8704C105.321 52.9804 103.701 54.2305 101.841 55.5005L107.281 62.9005C108.381 64.4005 108.841 66.2704 108.561 68.1004C108.281 69.9404 107.281 71.5805 105.791 72.6805L102.801 74.8804C101.551 75.8004 100.101 76.2404 98.6608 76.2404C96.5108 76.2404 94.3908 75.2504 93.0208 73.3904L90.8608 70.4504L91.2908 72.4404C91.6808 74.2604 91.3308 76.1504 90.3308 77.7104C89.3208 79.2704 87.7408 80.3605 85.9208 80.7505L82.2908 81.5304C81.7908 81.6404 81.3008 81.6904 80.8108 81.6904L80.8308 81.7004ZM101.871 27.9004C103.721 29.1704 105.341 30.4204 106.691 31.5304V21.3504L101.871 27.9004Z" fill="white" stroke="black" stroke-width="2" stroke-linejoin="round"/>
<path fill-rule="evenodd" clip-rule="evenodd" d="M62.6611 9.48068L66.2911 8.70068L68.4911 18.9407L64.8611 19.7207L62.6611 9.48068ZM80.8311 8.70068L78.6311 18.9407L82.2611 19.7207L84.4611 9.48068L80.8311 8.70068ZM113.681 58.7007V12.4307H118.481V33.1707C121.301 28.3707 125.841 26.1307 131.151 26.1307C140.811 26.1307 147.021 33.6207 147.021 42.7707C147.021 51.9207 140.811 59.4107 131.151 59.4107C125.841 59.4107 121.291 57.1707 118.481 52.3707V58.7107H113.681V58.7007ZM142.231 42.7607C142.231 35.9107 137.941 30.4107 130.711 30.4107C123.931 30.4107 118.421 35.3407 118.421 42.7607C118.421 50.1807 123.921 55.1107 130.711 55.1107C137.941 55.1107 142.231 49.4807 142.231 42.7607ZM183.991 53.8407L181.241 50.9607C177.981 53.9707 174.201 55.1807 170.361 55.1807C162.361 55.1807 157.241 50.0607 157.241 43.2107V42.7007H185.591C185.461 31.2407 177.781 26.1207 169.591 26.1207C159.671 26.1207 152.441 33.6107 152.441 42.8907C152.441 52.1707 159.351 59.4007 170.361 59.4007C174.901 59.4007 179.961 58.1207 183.991 53.8307V53.8407ZM157.751 38.9907C159.611 33.0407 164.601 30.3507 169.721 30.3507C174.141 30.3507 179.131 32.3307 180.601 38.9907H157.751ZM207.201 34.0607L211.491 33.0407C210.271 28.1807 205.921 26.1307 201.761 26.1307C195.361 26.1307 191.461 30.4207 191.461 35.4707C191.461 39.9507 194.661 42.5107 199.201 43.9807L203.681 45.4507C206.431 46.3507 208.221 47.6307 208.221 50.1207C208.221 53.1907 205.401 55.1807 201.821 55.1807C198.241 55.1807 195.231 53.3907 194.271 50.7007L190.051 51.7907C191.521 56.7207 196.391 59.4107 201.831 59.4107C207.721 59.4107 213.031 55.9507 213.031 50.1307C213.031 46.6107 211.051 43.2807 205.411 41.4307L200.671 39.8907C198.491 39.1907 196.251 37.9107 196.251 35.2807C196.251 32.8507 198.361 30.3507 202.071 30.3507C204.251 30.3507 206.291 31.3707 207.191 34.0607H207.201ZM26.3311 58.7007L38.8711 26.8307H33.8111L23.5711 53.8407L13.3911 26.8307H8.33105L20.8711 58.7007H26.3111H26.3311ZM41.0711 40.4307C40.7411 40.7707 40.5611 41.2207 40.5611 41.7007C40.5611 42.1807 40.7411 42.6307 41.0711 42.9707C41.6611 43.5907 55.771 58.1407 73.5611 58.1407C91.3511 58.1407 105.461 43.5907 106.051 42.9707C106.381 42.6307 106.561 42.1807 106.561 41.7007C106.561 41.2207 106.381 40.7707 106.051 40.4307C105.461 39.8107 91.3511 25.2607 73.5611 25.2607C55.771 25.2607 41.6611 39.8107 41.0711 40.4307ZM73.5611 29.2907C76.011 29.2907 78.411 30.0207 80.451 31.3807C82.4911 32.7407 84.081 34.6807 85.021 36.9507C85.9611 39.2207 86.201 41.7107 85.731 44.1207C85.251 46.5307 84.0711 48.7407 82.3311 50.4707C80.5911 52.2107 78.3811 53.3907 75.981 53.8707C73.571 54.3507 71.0811 54.1007 68.8111 53.1607C66.5411 52.2207 64.6111 50.6307 63.2411 48.5907C61.8811 46.5507 61.1511 44.1507 61.1511 41.7007C61.1511 38.4107 62.4611 35.2607 64.7911 32.9307C67.1211 30.6007 70.271 29.3007 73.5611 29.2907ZM85.9311 51.9607C88.3311 49.0807 89.6411 45.4507 89.6411 41.7007C89.6411 37.9507 88.3311 34.3207 85.9311 31.4407C91.8711 33.9007 97.3311 37.3707 102.081 41.7007C97.3311 46.0307 91.8711 49.5007 85.9311 51.9607ZM61.2111 31.4307C58.8111 34.3107 57.4911 37.9407 57.4911 41.6907C57.4911 45.4407 58.8011 49.0707 61.2011 51.9507C55.2611 49.4907 49.8011 46.0207 45.0511 41.6907C49.8011 37.3507 55.2711 33.8807 61.2111 31.4207V31.4307ZM76.441 48.3307C75.531 48.7207 74.551 48.9207 73.5611 48.9107C72.4211 48.9107 71.2911 48.6407 70.2811 48.1207C69.2711 47.6007 68.3811 46.8507 67.7211 45.9207C67.0511 44.9907 66.6211 43.9207 66.4411 42.7907C66.2711 41.6607 66.3711 40.5107 66.7311 39.4207C67.4211 40.0507 68.3111 40.4207 69.2411 40.4407C70.1711 40.4707 71.0811 40.1507 71.8011 39.5607C72.521 38.9707 73.001 38.1307 73.161 37.2107C73.3111 36.2907 73.1311 35.3407 72.6411 34.5507C73.6211 34.4207 74.6211 34.4907 75.5711 34.7607C76.521 35.0307 77.411 35.4907 78.1711 36.1207C78.9311 36.7507 79.5611 37.5207 80.0111 38.4007C80.4611 39.2807 80.7311 40.2407 80.7911 41.2307C80.8511 42.2207 80.7111 43.2107 80.3811 44.1407C80.0411 45.0707 79.521 45.9207 78.841 46.6407C78.161 47.3607 77.3411 47.9307 76.4311 48.3207L76.441 48.3307ZM98.6811 14.1607L92.3911 22.7007L95.3811 24.9007L101.671 16.3607L98.6811 14.1607ZM45.4511 16.3607L48.4411 14.1607L54.7311 22.7007L51.7411 24.9007L45.4511 16.3607ZM82.2611 63.6807L78.6311 64.4607L80.8311 74.7007L84.4611 73.9207L82.2611 63.6807ZM62.6611 73.9207L64.8611 63.6807L68.4911 64.4607L66.2911 74.7007L62.6611 73.9207ZM95.3811 58.5007L92.3911 60.7007L98.6811 69.2407L101.671 67.0407L95.3811 58.5007ZM45.4511 67.0407L51.7411 58.5007L54.7311 60.7007L48.4411 69.2407L45.4511 67.0407Z" fill="black"/>
</svg>
