<svg width="228" height="68" viewBox="0 0 228 68" fill="none" xmlns="http://www.w3.org/2000/svg">
<path fill-rule="evenodd" clip-rule="evenodd" d="M182.005 6.65922C186.476 3.36267 192.3 1.81348 198.487 1.81348C201.884 1.81348 204.869 2.25424 207.554 3.08112C208.692 2.31068 210.053 1.87748 211.479 1.87748H213.143C216.149 1.87748 218.819 3.79641 219.777 6.64529L224.385 20.3413C224.983 22.118 224.843 24.0601 223.997 25.7329C223.299 27.114 222.167 28.2162 220.789 28.8801C221.857 29.7706 222.862 30.802 223.745 32.0019C225.865 34.881 226.991 38.3359 226.991 42.2215C226.991 49.4739 222.832 54.8081 217.768 58.0152C212.823 61.1472 206.623 62.5975 200.663 62.5975C196.42 62.5975 192.344 61.8066 188.59 60.3884C187.442 61.1851 186.057 61.6375 184.599 61.6375H182.935C180.157 61.6375 177.68 60.0006 176.561 57.5312L176.484 57.6899C175.314 60.1044 172.867 61.6379 170.184 61.6379H131.016C128.433 61.6379 126.177 60.2388 124.964 58.1572C120.596 60.706 115.446 61.6379 110.826 61.6379H84.2661C83.7132 61.6379 83.1753 61.5738 82.6594 61.4526C82.1434 61.5738 81.6055 61.6379 81.0526 61.6379H60.8286C57.5692 61.6379 54.8301 59.4102 54.0508 56.3943C53.2715 59.4102 50.5324 61.6379 47.273 61.6379H20.713C16.847 61.6379 13.713 58.5039 13.713 54.6379V52.9739C13.713 49.6597 16.0371 46.7998 19.2812 46.1219C19.6128 46.0526 19.8074 45.9578 19.9098 45.8959C20.0134 45.8333 20.0672 45.7775 20.0964 45.7412C20.1622 45.6592 20.177 45.5797 20.177 45.5499C20.177 45.3255 20.166 45.1719 20.1103 44.9138C20.0414 44.5941 19.8781 44.0069 19.4616 42.9656L19.4545 42.9478L11.4616 22.8056C11.4606 22.8029 11.4595 22.8003 11.4584 22.7976C10.328 19.9761 8.88272 18.7231 7.16732 18.2575C4.11786 17.4297 2.00098 14.6617 2.00098 11.5019V9.83789C2.00098 5.9719 5.13498 2.83789 9.00098 2.83789H28.649C30.7736 2.83789 32.6772 3.78446 33.961 5.2789C35.2448 3.78446 37.1483 2.83789 39.273 2.83789C53.1995 2.83789 67.1261 2.83789 81.0526 2.83789C81.6055 2.83789 82.1434 2.90199 82.6594 3.02317C83.1753 2.90199 83.7132 2.83789 84.2661 2.83789H108.074C113.755 2.83789 119.443 3.82221 123.943 6.64245C124.162 6.77932 124.376 6.91998 124.587 7.06435C125.661 4.57796 128.135 2.83789 131.016 2.83789H169.736C173.066 2.83789 175.935 5.18369 176.597 8.44724L177.253 11.6849C178.494 9.75208 180.107 8.05875 182.005 6.65922Z" fill="white" stroke="black" stroke-width="2" stroke-linejoin="round"/>
<path fill-rule="evenodd" clip-rule="evenodd" d="M200.663 55.5975C195.287 55.5975 190.231 53.9975 186.007 51.3095L184.599 54.6375H182.935L178.711 39.2135L180.311 38.7015C184.791 46.6375 193.303 49.9655 200.663 49.9655C207.959 49.9655 215.639 46.9575 215.639 41.6455C215.639 35.7015 207.806 34.1579 199.64 32.5487C190.749 30.7965 181.463 28.9665 181.463 21.2935C181.463 13.9335 188.311 8.81348 198.487 8.81348C203.479 8.81348 206.999 9.96548 209.943 11.8215L211.479 8.87748H213.143L217.751 22.5735L216.151 23.0855C211.799 17.3255 206.551 14.1895 198.551 14.1895C191.319 14.1895 185.559 17.0695 185.559 21.4215C185.559 25.7951 192 27.0199 199.311 28.4101C208.902 30.2341 219.991 32.3427 219.991 42.2215C219.991 50.7335 210.519 55.5975 200.663 55.5975ZM131.016 52.9739C136.648 50.7979 138.952 48.4299 138.952 41.9019V22.5099C138.952 15.9179 136.648 13.6779 131.016 11.5019V9.83789H169.736L171.656 19.3099L170.12 20.0779C166.984 16.2379 161.416 14.0619 156.68 14.0619H152.84C146.888 14.0619 142.664 18.6059 142.664 23.9819V29.1659H150.792C155.016 29.1659 158.728 27.6939 160.392 23.5339H161.864V38.6379H160.392C158.92 34.2859 155.016 32.8779 150.792 32.8779H142.664V38.7019C142.664 47.0859 145.48 50.6699 153.032 50.6699H157.512C163.144 50.6699 170.056 47.8539 173.768 43.5019L175.176 44.3339L170.184 54.6379H131.016V52.9739ZM92.0741 40.2379C92.0741 46.0619 90.0901 50.6699 84.2661 52.9099V54.6379H110.826C118.954 54.6379 127.146 51.0539 127.146 42.2219C127.146 36.5259 122.218 32.3659 116.202 31.4699C121.13 30.1259 124.842 26.3499 124.842 20.9739C124.842 13.4219 118.122 9.83789 108.074 9.83789H84.2661V11.6299C90.0901 13.8699 92.0741 17.6459 92.0741 23.5339V40.2379ZM107.498 50.8619C99.0501 50.8619 95.7861 47.3419 95.7861 40.1739V33.7739H110.506C116.97 33.7739 122.602 36.8459 122.602 41.9659C122.602 48.0459 116.778 50.8619 110.506 50.8619H107.498ZM107.498 29.6779H95.7861V23.4699C95.7861 16.3019 98.6021 13.9339 106.282 13.9339H108.522C115.05 13.9339 120.426 16.7499 120.426 21.7419C120.426 27.8219 112.874 29.6779 107.498 29.6779ZM60.8286 52.9739C66.5246 50.8619 69.0846 47.9819 69.0846 42.0939V22.3179C69.0846 16.4299 66.4606 13.4859 60.8286 11.5019V9.83789H81.0526V11.5019C75.3566 13.7419 72.7966 16.4299 72.7966 22.3179V42.0939C72.7966 47.9819 75.3566 50.7339 81.0526 52.9739V54.6379H60.8286V52.9739ZM27.177 45.5499C27.177 48.7499 25.001 52.0779 20.713 52.9739V54.6379H47.273V52.9739C42.537 51.6939 40.745 48.6859 40.745 45.4219C40.745 44.2059 41.065 42.8619 42.025 40.3019L49.577 20.0779C51.113 15.9179 54.441 12.7179 58.921 11.5019V9.83789H39.273V11.5019C43.817 12.6539 45.545 15.1499 45.545 17.9019C45.545 19.8219 44.777 21.9979 43.241 26.0939L34.729 48.8779H33.193L24.489 26.1579C22.889 21.9979 22.121 19.8859 22.121 18.0299C22.121 15.2779 24.041 12.6539 28.649 11.5019V9.83789H9.00098L9.00098 11.5019C13.481 12.7179 16.297 16.0459 17.961 20.2059L25.961 40.3659C26.985 42.9259 27.177 44.2699 27.177 45.5499Z" fill="black"/>
</svg>
