<svg width="228" height="68" viewBox="0 0 228 68" fill="none" xmlns="http://www.w3.org/2000/svg">
<path fill-rule="evenodd" clip-rule="evenodd" d="M182.005 6.65922C186.476 3.36267 192.3 1.81348 198.487 1.81348C201.884 1.81348 204.869 2.25424 207.554 3.08112C208.692 2.31068 210.053 1.87748 211.479 1.87748H213.143C216.149 1.87748 218.819 3.79641 219.777 6.64529L224.385 20.3413C224.983 22.118 224.843 24.0601 223.997 25.7329C223.299 27.114 222.167 28.2162 220.789 28.8801C221.857 29.7706 222.862 30.802 223.745 32.0019C225.865 34.881 226.991 38.3359 226.991 42.2215C226.991 49.4739 222.832 54.8081 217.768 58.0152C212.823 61.1472 206.623 62.5975 200.663 62.5975C196.42 62.5975 192.344 61.8066 188.59 60.3884C187.442 61.1851 186.057 61.6375 184.599 61.6375H182.935C180.157 61.6375 177.68 60.0006 176.561 57.5312L176.484 57.6899C175.314 60.1044 172.867 61.6379 170.184 61.6379H131.016C128.433 61.6379 126.177 60.2388 124.964 58.1572C120.596 60.706 115.446 61.6379 110.826 61.6379H84.2661C83.7132 61.6379 83.1753 61.5738 82.6594 61.4526C82.1434 61.5738 81.6055 61.6379 81.0526 61.6379H60.8286C57.5692 61.6379 54.8301 59.4102 54.0508 56.3943C53.2715 59.4102 50.5324 61.6379 47.273 61.6379H20.713C16.847 61.6379 13.713 58.5039 13.713 54.6379V52.9739C13.713 49.6597 16.0371 46.7998 19.2812 46.1219C19.6128 46.0526 19.8074 45.9578 19.9098 45.8959C20.0134 45.8333 20.0672 45.7775 20.0964 45.7412C20.1622 45.6592 20.177 45.5797 20.177 45.5499C20.177 45.3255 20.166 45.1719 20.1103 44.9138C20.0414 44.5941 19.8781 44.0069 19.4616 42.9656L19.4545 42.9478L11.4616 22.8056C11.4606 22.8029 11.4595 22.8003 11.4584 22.7976C10.328 19.9761 8.88272 18.7231 7.16732 18.2575C4.11786 17.4297 2.00098 14.6617 2.00098 11.5019V9.83789C2.00098 5.9719 5.13498 2.83789 9.00098 2.83789H28.649C30.7736 2.83789 32.6772 3.78446 33.961 5.2789C35.2448 3.78446 37.1483 2.83789 39.273 2.83789C53.1995 2.83789 67.1261 2.83789 81.0526 2.83789C81.6055 2.83789 82.1434 2.90199 82.6594 3.02317C83.1753 2.90199 83.7132 2.83789 84.2661 2.83789H108.074C113.755 2.83789 119.443 3.82221 123.943 6.64245C124.162 6.77932 124.376 6.91998 124.587 7.06435C125.661 4.57796 128.135 2.83789 131.016 2.83789H169.736C173.066 2.83789 175.935 5.18369 176.597 8.44724L177.253 11.6849C178.494 9.75208 180.107 8.05875 182.005 6.65922Z" fill="white" stroke="black" stroke-width="2" stroke-linejoin="round"/>
</svg>
