<svg width="129" height="70" viewBox="0 0 129 70" fill="none" xmlns="http://www.w3.org/2000/svg">
<path d="M107.455 1.73535C104.203 1.73535 100.986 2.28995 98.102 3.62768C96.98 2.86274 95.624 2.41553 94.1637 2.41553H76.4837C74.6727 2.41553 73.0224 3.10319 71.7796 4.23164C68.8723 2.9547 65.6403 2.41553 62.3668 2.41553H49.8548C49.7134 2.41553 49.573 2.41972 49.4337 2.42798C49.2945 2.41972 49.1541 2.41553 49.0127 2.41553H36.7727C36.6706 2.41553 36.5689 2.41772 36.4679 2.42205C36.3674 2.41771 36.2666 2.41553 36.1656 2.41553H23.9256C23.7887 2.41553 23.6527 2.41946 23.5176 2.42722C23.3826 2.41946 23.2466 2.41553 23.1096 2.41553H10.8696C8.93687 2.41553 7.09011 3.21466 5.767 4.62355C4.44389 6.03244 3.76218 7.9257 3.88343 9.85466L6.87543 57.4547C7.10726 61.1429 10.1662 64.0155 13.8616 64.0155H32.9016C33.5718 64.0155 34.2211 63.921 34.8365 63.7443C35.4514 63.9209 36.101 64.0155 36.7727 64.0155H49.0127C49.1541 64.0155 49.2945 64.0113 49.4337 64.0031C49.573 64.0113 49.7134 64.0155 49.8548 64.0155H62.3668C65.6725 64.0155 68.9184 63.4814 71.8487 62.2613C73.0832 63.353 74.7061 64.0155 76.4837 64.0155H94.1637C95.6247 64.0155 96.9813 63.5679 98.1036 62.8023C100.98 64.138 104.194 64.6954 107.455 64.6954C112.807 64.6954 117.988 63.1827 121.842 59.4038C125.716 55.6049 127.307 50.4398 127.307 45.0474V44.1634C127.307 40.0494 127.031 36.0721 125.568 32.5985C125.344 32.0646 125.098 31.5577 124.833 31.0756C126.346 29.7916 127.307 27.8757 127.307 25.7354V21.3154C127.307 15.9412 125.707 10.7932 121.832 7.00872C117.981 3.24756 112.807 1.73535 107.455 1.73535Z" fill="white" stroke="black" stroke-width="2" stroke-linejoin="round"/>
</svg>
