<svg width="200" height="72" viewBox="0 0 200 72" fill="none" xmlns="http://www.w3.org/2000/svg">
<path fill-rule="evenodd" clip-rule="evenodd" d="M61.75 1.31006C57.7702 1.31006 53.8575 2.33311 50.7244 4.31013C47.7182 6.20714 44.43 9.73104 44.43 14.7901C44.43 14.8571 44.4306 14.9238 44.4317 14.9902H32.5332C32.1534 14.9902 31.7792 15.0208 31.4133 15.08C31.0474 15.0208 30.6731 14.9902 30.2932 14.9902H10.9332C8.75235 14.9902 6.69613 16.0066 5.37176 17.7393C4.04739 19.4719 3.6062 21.7228 4.17849 23.8272L14.3385 61.1872C15.1673 64.235 17.9346 66.3502 21.0932 66.3502H41.6532C43.6657 66.3502 45.5275 65.49 46.8259 64.0669C48.1084 65.5163 49.9825 66.4301 52.07 66.4301H71.43C71.863 66.4301 72.2868 66.3908 72.698 66.3155C72.9283 66.3384 73.1618 66.3501 73.398 66.3501H102.918C107.363 66.3501 111.406 64.682 114.458 61.9357C115.316 62.5434 116.205 63.0763 117.093 63.5364C121.955 66.0535 127.931 67.1102 133.484 67.1102C138.625 67.1102 144.127 66.2048 148.773 64.0737C150.053 65.4728 151.894 66.3502 153.939 66.3502H168.179C169.513 66.3502 170.76 65.9771 171.821 65.3296C174.916 66.8759 178.186 67.3902 181.059 67.3902C189.004 67.3902 198.939 61.939 198.939 51.1102V50.7902C198.939 47.8287 198.19 45.014 196.846 42.5558C197.901 41.3301 198.539 39.7347 198.539 37.9902V21.9902C198.539 18.1242 195.405 14.9902 191.539 14.9902H177.379C176.037 14.9902 174.783 15.3679 173.718 16.0228C170.603 14.4704 167.309 13.9502 164.419 13.9502C160.192 13.9502 155.393 15.5187 151.844 18.6314C151.196 18.2081 150.536 17.8259 149.875 17.4839C145.013 14.9668 139.038 13.9102 133.484 13.9102C127.931 13.9102 121.955 14.9668 117.093 17.4839C116.541 17.7701 115.988 18.0844 115.443 18.4274C112.452 15.5296 108.371 13.9142 104.197 13.9503C102.643 13.9638 101.136 14.1881 99.6986 14.6094L99.678 8.28726C99.6654 4.43019 96.5351 1.31006 92.678 1.31006H88.438C87.8306 1.31006 87.2258 1.38911 86.6389 1.54522L73.7987 4.96016C73.476 4.72223 73.1521 4.50254 72.8313 4.30117C69.683 2.32511 65.753 1.31006 61.75 1.31006Z" fill="white"/>
<path d="M50.7244 4.31013L51.2581 5.15584L51.2581 5.15584L50.7244 4.31013ZM44.4317 14.9902V15.9902C44.6999 15.9902 44.9568 15.8825 45.1448 15.6913C45.3328 15.5001 45.4361 15.2414 45.4315 14.9732L44.4317 14.9902ZM31.4133 15.08L31.2537 16.0672C31.3594 16.0843 31.4671 16.0842 31.5728 16.0672L31.4133 15.08ZM5.37176 17.7393L4.57727 17.132L4.57727 17.132L5.37176 17.7393ZM4.17849 23.8272L3.21353 24.0896L4.17849 23.8272ZM14.3385 61.1872L13.3735 61.4496L13.3735 61.4496L14.3385 61.1872ZM46.8259 64.0669L47.5748 63.4042C47.3867 63.1917 47.1173 63.0691 46.8335 63.0669C46.5497 63.0648 46.2784 63.1833 46.0872 63.3929L46.8259 64.0669ZM72.698 66.3155L72.7968 65.3204C72.7038 65.3112 72.61 65.315 72.518 65.3318L72.698 66.3155ZM114.458 61.9357L115.036 61.1195C114.654 60.8494 114.137 60.8797 113.789 61.1923L114.458 61.9357ZM117.093 63.5364L117.553 62.6484L117.553 62.6484L117.093 63.5364ZM148.773 64.0737L149.511 63.3988C149.218 63.0782 148.751 62.9837 148.356 63.1648L148.773 64.0737ZM171.821 65.3296L172.268 64.435C171.96 64.281 171.594 64.2965 171.3 64.476L171.821 65.3296ZM196.846 42.5558L196.088 41.9033C195.816 42.219 195.768 42.6702 195.968 43.0357L196.846 42.5558ZM173.718 16.0228L173.272 16.9178C173.581 17.0718 173.948 17.0555 174.242 16.8747L173.718 16.0228ZM151.844 18.6314L151.297 19.4686C151.673 19.714 152.166 19.6791 152.503 19.3832L151.844 18.6314ZM149.875 17.4839L150.335 16.5959L150.335 16.5959L149.875 17.4839ZM117.093 17.4839L116.634 16.5959L116.634 16.5959L117.093 17.4839ZM115.443 18.4274L114.747 19.1455C115.078 19.4662 115.585 19.5192 115.975 19.2739L115.443 18.4274ZM104.197 13.9503L104.189 12.9504L104.189 12.9504L104.197 13.9503ZM99.6986 14.6094L98.6986 14.6126C98.6996 14.927 98.8484 15.2227 99.1004 15.4107C99.3523 15.5988 99.6781 15.6574 99.9798 15.569L99.6986 14.6094ZM99.678 8.28726L100.678 8.284L100.678 8.284L99.678 8.28726ZM86.6389 1.54522L86.8959 2.51163L86.8959 2.51163L86.6389 1.54522ZM73.7987 4.96016L73.2052 5.76502C73.4495 5.94514 73.7624 6.00457 74.0557 5.92656L73.7987 4.96016ZM72.8313 4.30117L72.2997 5.14815L72.2997 5.14815L72.8313 4.30117ZM51.2581 5.15584C54.2105 3.29279 57.9328 2.31006 61.75 2.31006V0.310059C57.6077 0.310059 53.5045 1.37342 50.1908 3.46443L51.2581 5.15584ZM45.43 14.7901C45.43 10.2077 48.4077 6.95448 51.2581 5.15584L50.1908 3.46443C47.0286 5.45979 43.43 9.25435 43.43 14.7901H45.43ZM45.4315 14.9732C45.4305 14.9125 45.43 14.8514 45.43 14.7901H43.43C43.43 14.8627 43.4306 14.9351 43.4318 15.0072L45.4315 14.9732ZM32.5332 15.9902H44.4317V13.9902H32.5332V15.9902ZM31.5728 16.0672C31.8863 16.0165 32.2071 15.9902 32.5332 15.9902V13.9902C32.0996 13.9902 31.672 14.0252 31.2537 14.0928L31.5728 16.0672ZM30.2932 15.9902C30.6194 15.9902 30.9403 16.0165 31.2537 16.0672L31.5728 14.0928C31.1545 14.0252 30.7269 13.9902 30.2932 13.9902V15.9902ZM10.9332 15.9902H30.2932V13.9902H10.9332V15.9902ZM6.16625 18.3465C7.30142 16.8614 9.0639 15.9902 10.9332 15.9902V13.9902C8.44081 13.9902 6.09084 15.1518 4.57727 17.132L6.16625 18.3465ZM5.14344 23.5647C4.65291 21.761 5.03107 19.8317 6.16625 18.3465L4.57727 17.132C3.06371 19.1121 2.55949 21.6846 3.21353 24.0896L5.14344 23.5647ZM15.3034 60.9247L5.14344 23.5647L3.21353 24.0896L13.3735 61.4496L15.3034 60.9247ZM21.0932 65.3502C18.3858 65.3502 16.0139 63.5372 15.3034 60.9247L13.3735 61.4496C14.3208 64.9328 17.4834 67.3502 21.0932 67.3502V65.3502ZM41.6532 65.3502H21.0932V67.3502H41.6532V65.3502ZM46.0872 63.3929C44.9736 64.6134 43.3778 65.3502 41.6532 65.3502V67.3502C43.9536 67.3502 46.0813 66.3667 47.5646 64.7409L46.0872 63.3929ZM52.07 65.4301C50.2808 65.4301 48.6755 64.6482 47.5748 63.4042L46.077 64.7296C47.5412 66.3844 49.6841 67.4301 52.07 67.4301V65.4301ZM71.43 65.4301H52.07V67.4301H71.43V65.4301ZM72.518 65.3318C72.1659 65.3963 71.8023 65.4301 71.43 65.4301V67.4301C71.9236 67.4301 72.4077 67.3852 72.878 67.2992L72.518 65.3318ZM73.398 65.3501C73.1948 65.3501 72.9943 65.34 72.7968 65.3204L72.5992 67.3106C72.8622 67.3367 73.1287 67.3501 73.398 67.3501V65.3501ZM102.918 65.3501H73.398V67.3501H102.918V65.3501ZM113.789 61.1923C110.915 63.779 107.108 65.3501 102.918 65.3501V67.3501C107.618 67.3501 111.897 65.5851 115.127 62.679L113.789 61.1923ZM117.553 62.6484C116.702 62.2079 115.854 61.6988 115.036 61.1195L113.88 62.7519C114.779 63.3881 115.707 63.9446 116.634 64.4244L117.553 62.6484ZM133.484 66.1102C128.04 66.1102 122.233 65.0716 117.553 62.6484L116.634 64.4244C121.677 67.0355 127.822 68.1102 133.484 68.1102V66.1102ZM148.356 63.1648C143.873 65.2211 138.521 66.1102 133.484 66.1102V68.1102C138.729 68.1102 144.381 67.1885 149.19 64.9827L148.356 63.1648ZM153.939 65.3502C152.186 65.3502 150.609 64.5994 149.511 63.3988L148.035 64.7487C149.497 66.3461 151.601 67.3502 153.939 67.3502V65.3502ZM168.179 65.3502H153.939V67.3502H168.179V65.3502ZM171.3 64.476C170.391 65.0305 169.324 65.3502 168.179 65.3502V67.3502C169.702 67.3502 171.128 66.9237 172.342 66.1831L171.3 64.476ZM181.059 66.3902C178.3 66.3902 175.191 65.8955 172.268 64.435L171.374 66.2241C174.64 67.8562 178.073 68.3902 181.059 68.3902V66.3902ZM197.939 51.1102C197.939 56.1807 195.627 59.9728 192.363 62.523C189.074 65.0926 184.824 66.3902 181.059 66.3902V68.3902C185.239 68.3902 189.93 66.9622 193.594 64.099C197.284 61.2164 199.939 56.8685 199.939 51.1102H197.939ZM197.939 50.7902V51.1102H199.939V50.7902H197.939ZM195.968 43.0357C197.233 45.3486 197.939 47.9986 197.939 50.7902H199.939C199.939 47.6588 199.147 44.6793 197.723 42.0759L195.968 43.0357ZM197.539 37.9902C197.539 39.4862 196.993 40.8522 196.088 41.9033L197.603 43.2084C198.809 41.8081 199.539 39.9831 199.539 37.9902H197.539ZM197.539 21.9902V37.9902H199.539V21.9902H197.539ZM191.539 15.9902C194.853 15.9902 197.539 18.6765 197.539 21.9902H199.539C199.539 17.5719 195.957 13.9902 191.539 13.9902V15.9902ZM177.379 15.9902H191.539V13.9902H177.379V15.9902ZM174.242 16.8747C175.154 16.3138 176.227 15.9902 177.379 15.9902V13.9902C175.847 13.9902 174.413 14.4219 173.194 15.1709L174.242 16.8747ZM164.419 14.9502C167.195 14.9502 170.328 15.4506 173.272 16.9178L174.164 15.1278C170.878 13.4902 167.423 12.9502 164.419 12.9502V14.9502ZM152.503 19.3832C155.855 16.444 160.414 14.9502 164.419 14.9502V12.9502C159.971 12.9502 154.932 14.5934 151.185 17.8795L152.503 19.3832ZM149.415 18.3719C150.048 18.6993 150.679 19.0646 151.297 19.4686L152.391 17.7941C151.713 17.3516 151.024 16.9526 150.335 16.5959L149.415 18.3719ZM133.484 14.9102C138.929 14.9102 144.735 15.9487 149.415 18.3719L150.335 16.5959C145.292 13.9848 139.147 12.9102 133.484 12.9102V14.9102ZM117.553 18.3719C122.233 15.9487 128.04 14.9102 133.484 14.9102V12.9102C127.822 12.9102 121.677 13.9848 116.634 16.5959L117.553 18.3719ZM115.975 19.2739C116.496 18.9464 117.024 18.6458 117.553 18.3719L116.634 16.5959C116.057 16.8944 115.48 17.2225 114.91 17.5809L115.975 19.2739ZM104.206 14.9503C108.12 14.9164 111.947 16.4327 114.747 19.1455L116.139 17.7093C112.957 14.6264 108.622 12.912 104.189 12.9504L104.206 14.9503ZM99.9798 15.569C101.328 15.174 102.743 14.9629 104.206 14.9503L104.189 12.9504C102.543 12.9646 100.944 13.2022 99.4173 13.6497L99.9798 15.569ZM98.678 8.29052L98.6986 14.6126L100.699 14.6061L100.678 8.284L98.678 8.29052ZM92.678 2.31006C95.9841 2.31006 98.6672 4.98445 98.678 8.29052L100.678 8.284C100.664 3.87592 97.0861 0.310059 92.678 0.310059V2.31006ZM88.438 2.31006H92.678V0.310059H88.438V2.31006ZM86.8959 2.51163C87.399 2.37782 87.9174 2.31006 88.438 2.31006V0.310059C87.7439 0.310059 87.0527 0.400403 86.3818 0.578816L86.8959 2.51163ZM74.0557 5.92656L86.8959 2.51163L86.3818 0.578816L73.5417 3.99375L74.0557 5.92656ZM72.2997 5.14815C72.5999 5.33656 72.9031 5.54223 73.2052 5.76502L74.3922 4.1553C74.049 3.90223 73.7044 3.66851 73.3629 3.45418L72.2997 5.14815ZM61.75 2.31006C65.5928 2.31006 69.3328 3.28594 72.2997 5.14815L73.3629 3.45418C70.0333 1.36428 65.9132 0.310059 61.75 0.310059V2.31006Z" fill="black"/>
<path d="M52.0699 59.4301L52.0699 21.9901L71.4299 21.9901L71.4299 59.4301H52.0699Z" fill="black"/>
<path d="M51.4299 14.7901C51.4299 11.2701 56.0699 8.31006 61.7499 8.31006C67.5099 8.31006 72.1499 11.2701 72.1499 14.7901C72.1499 18.3901 67.5099 21.2701 61.7499 21.2701C56.0699 21.2701 51.4299 18.3901 51.4299 14.7901Z" fill="black"/>
<path fill-rule="evenodd" clip-rule="evenodd" d="M92.7579 32.8701L92.678 8.31006L88.438 8.31006L73.3979 12.3101L73.3979 59.3501L102.918 59.3501C108.598 59.3501 113.158 54.7901 113.158 49.1101L113.158 29.9101C113.158 18.7901 96.0379 16.1501 93.3179 32.8701H92.7579ZM93.798 35.4301V55.3501H92.678V36.7101C92.678 36.0701 93.158 35.5101 93.798 35.4301Z" fill="black"/>
<path fill-rule="evenodd" clip-rule="evenodd" d="M152.644 40.6302V48.9502C152.644 63.8302 114.324 63.8302 114.324 48.9502L114.324 32.0702C114.324 17.1902 152.644 17.1902 152.644 32.0702V39.5102L133.684 39.5102V55.1902C134.244 55.1102 134.804 54.5502 134.804 53.9102V40.6302L152.644 40.6302ZM134.804 35.5102V25.8302C134.164 25.9102 133.684 26.4702 133.684 27.1102V35.5102H134.804Z" fill="black"/>
<path d="M172.979 38.6302L183.299 40.7902L183.939 40.9502C188.659 41.9102 191.939 45.9902 191.939 50.7902V51.1102C191.939 56.7102 186.659 60.3902 181.059 60.3902C175.699 60.3902 170.099 57.9102 168.739 49.6702H168.179V59.3502H153.939V43.3502H171.459V47.3502C171.459 47.9902 171.939 48.5502 172.579 48.6302V42.7102L162.259 40.5502L161.619 40.3902C156.899 39.4302 153.619 35.3502 153.619 30.5502V30.2302C153.619 24.6302 158.899 20.9502 164.419 20.9502C169.779 20.9502 175.459 23.4302 176.819 31.5902H177.379V21.9902L191.539 21.9902V37.9902L174.099 37.9902V33.9902C174.099 33.3502 173.539 32.7902 172.979 32.7102V38.6302Z" fill="black"/>
<path d="M10.9331 21.9902L21.0931 59.3502L41.6531 59.3502L41.7331 59.1102L51.8931 21.9902L32.5331 21.9902L31.8931 24.2302L32.3731 25.9102L37.1731 43.5902L37.7331 45.7502C38.0531 46.8702 38.0531 47.9102 37.7331 49.0302V49.2702L31.3331 25.9102L30.2931 21.9902L10.9331 21.9902Z" fill="black"/>
</svg>
