<svg width="212" height="68" viewBox="0 0 212 68" fill="none" xmlns="http://www.w3.org/2000/svg">
<path d="M10.9688 1.87207C9.02465 1.87207 7.1681 2.68058 5.84384 4.10393C4.51958 5.52728 3.84691 7.43725 3.98695 9.37631L4.99806 23.3763C5.04818 24.0702 5.19825 24.7343 5.43358 25.3552C5.30566 25.9791 5.26232 26.6231 5.30955 27.2704L7.40955 56.0482C7.67653 59.7068 10.7227 62.5387 14.391 62.5387H35.391C37.9531 62.5387 40.2889 61.1418 41.5125 58.9342C41.7282 59.3231 41.9823 59.6936 42.273 60.0399C43.6031 61.624 45.5656 62.5387 47.6339 62.5387H61.6339C62.0619 62.5387 62.4821 62.5 62.8908 62.4257C63.3011 62.5003 63.7204 62.5387 64.1442 62.5387H97.5886C100.623 62.5387 103.461 61.8426 106.054 60.5538C107.354 61.8201 109.104 62.5387 110.938 62.5387H149.826C150.253 62.5387 150.672 62.5002 151.08 62.4262C151.49 62.5005 151.908 62.5387 152.33 62.5387H184.219C189.034 62.5387 193.353 60.7868 196.983 57.6958C200.658 54.6109 203.121 50.6239 203.948 45.8578L203.951 45.8392L205.189 38.8751C205.193 38.8503 205.198 38.8254 205.202 38.8006C205.368 37.8033 205.453 36.7962 205.453 35.7832C205.453 33.425 205.004 31.164 204.084 29.0878C205.965 28.1119 207.364 26.3021 207.756 24.0973L210.245 10.0973C210.607 8.0584 210.048 5.96365 208.718 4.37633C207.388 2.78901 205.424 1.87207 203.353 1.87207H171.464C168.419 1.87207 165.569 2.57256 162.959 3.86143C161.658 2.59242 159.906 1.87207 158.071 1.87207H119.182C117.216 1.87207 115.415 2.68873 114.131 4.0253C111.628 2.56564 108.8 1.87207 105.833 1.87207H72.3886C71.9607 1.87207 71.5405 1.91078 71.1317 1.98514C70.7214 1.91046 70.3021 1.87207 69.8784 1.87207H55.8784C55.7817 1.87207 55.6854 1.87405 55.5896 1.87796C55.494 1.87404 55.3982 1.87207 55.3021 1.87207H41.3021C38.5002 1.87207 35.9682 3.54286 34.8662 6.11895L32.2328 12.2751L31.9506 8.36783C31.6862 4.70702 28.6391 1.87207 24.9688 1.87207H10.9688Z" fill="white" stroke="black" stroke-width="2" stroke-linejoin="round"/>
<path fill-rule="evenodd" clip-rule="evenodd" d="M49.3132 22.8721L55.3021 8.87207H41.3021L35.3132 22.8721H49.3132ZM11.9799 22.8721H25.9799L24.9688 8.87207H10.9688L11.9799 22.8721ZM35.391 55.5387L47.6021 26.761H33.6799L27.3799 41.5387L26.2132 26.761H12.291L14.391 55.5387H35.391ZM69.8784 8.87207L67.3895 22.8721H53.3895L55.8784 8.87207H69.8784ZM66.6895 26.761L61.6339 55.5387H47.6339L52.6895 26.761H66.6895ZM114.777 19.761C114.881 19.1387 114.933 18.5165 114.933 17.8943C114.933 15.3017 114.077 13.1498 112.366 11.4387C110.655 9.72763 108.478 8.87207 105.833 8.87207L72.3886 8.87207L69.8997 22.8721H114.233L114.777 19.761ZM109.566 32.2054C111.952 30.1832 113.274 28.3684 113.533 26.761H69.1997L64.1442 55.5387H97.5886C100.596 55.5387 103.344 54.4758 105.833 52.3498C108.374 50.2239 109.903 47.6573 110.422 44.6498L111.666 37.6498C111.718 37.3906 111.744 37.1313 111.744 36.8721C111.744 35.5239 111.018 33.9684 109.566 32.2054ZM81.3331 37.6498H97.6664L96.9664 41.5387H80.6331L81.3331 37.6498ZM158.071 8.87207L155.582 22.8721H116.693L119.182 8.87207H158.071ZM115.993 26.761H154.882L153.015 37.6498H128.126L127.426 41.5387H152.315L149.826 55.5387H110.938L115.993 26.761ZM203.353 8.87207L200.864 22.8721H158.086L158.63 19.761C159.149 16.7536 160.653 14.1869 163.142 12.061C165.682 9.93503 168.456 8.87207 171.464 8.87207H203.353ZM198.453 35.7832C198.453 36.4054 198.401 37.0276 198.297 37.6498L197.053 44.6498C196.534 47.6573 195.005 50.2239 192.464 52.3498C189.975 54.4758 187.227 55.5387 184.219 55.5387H152.33L154.819 41.5387H183.597L184.297 37.6498H166.408C163.712 37.6498 161.508 36.7943 159.797 35.0832C158.086 33.3721 157.23 31.2202 157.23 28.6276C157.23 28.0054 157.282 27.3832 157.386 26.761H189.275C191.971 26.761 194.175 27.6165 195.886 29.3276C197.597 31.0387 198.453 33.1906 198.453 35.7832Z" fill="black"/>
</svg>
