<svg width="149" height="83" viewBox="0 0 149 83" fill="none" xmlns="http://www.w3.org/2000/svg">
<path fill-rule="evenodd" clip-rule="evenodd" d="M102.54 3.93068C105.269 2.03019 108.536 1.59794 111.47 1.72373C116.924 1.95771 121.85 4.25635 125.762 7.05958C129.704 9.88522 133.056 13.5309 135.431 17.2038C135.491 17.2964 135.549 17.3904 135.604 17.4858C136.527 19.0719 137.361 20.7186 137.873 22.618C138.397 24.5633 138.466 26.3431 138.43 28.025C138.346 31.8303 135.237 34.8715 131.431 34.8715H130.242C131.29 35.8457 132.68 37.0014 134.461 38.4549L134.65 38.6092C137.025 40.5476 139.975 42.9547 142.364 45.6118C144.788 48.3067 147.419 52.0939 147.835 56.9033L147.835 56.9054C148.309 62.4033 145.894 67.473 142.711 71.0075C139.526 74.543 134.769 77.4445 129.273 77.6884C129.247 77.6896 129.222 77.6908 129.197 77.6918C125.81 77.8256 122.658 77.1203 119.945 75.6805C118.824 76.4056 117.506 76.8038 116.142 76.8038H96.8899C94.6182 76.8038 92.5992 75.7216 91.3204 74.0447C88.7087 75.7549 85.583 76.7793 82.1162 76.8036C81.9744 76.8046 81.833 76.8013 81.6922 76.7937H69.6847C68.6778 76.7937 67.6936 76.5768 66.7943 76.1691C65.9117 76.5704 64.9316 76.7937 63.9002 76.7937H55.9465C54.066 76.7937 52.2646 76.0371 50.9481 74.6943C50.5571 74.2956 50.2187 73.855 49.937 73.3835C49.6434 73.874 49.2892 74.3295 48.8803 74.7385L48.8753 74.7435C47.5625 76.0562 45.7821 76.7937 43.9256 76.7937H36.0622C32.55 76.7937 29.5815 74.191 29.1223 70.7089C28.8856 68.9142 28.7747 67.1063 28.68 65.5626L28.6737 65.4597C28.4146 61.2379 28.1615 58.7811 27.1553 56.8311C26.4974 55.5564 25.3823 54.3038 23.3906 52.1916C23.2988 52.0943 23.2043 51.9944 23.1075 51.892C21.071 49.7387 17.9754 46.4655 16.3728 42.1395M102.54 3.93068C101.379 3.10327 99.9672 2.63084 98.4767 2.63084H79.2251C77.2055 2.63084 75.3113 3.50079 73.9987 4.97384C71.1217 3.5944 67.9297 2.7137 64.4759 2.63276C64.4213 2.63148 64.3666 2.63084 64.3119 2.63084H52.0198C51.0048 2.63084 50.0214 2.85061 49.1276 3.25626C48.233 2.8503 47.2494 2.63084 46.2353 2.63084H38.2816C37.7145 2.63084 37.1572 2.69945 36.62 2.83075C36.077 2.6963 35.5127 2.62582 34.9375 2.62582H27.4357C25.6761 2.62582 24.0068 3.28672 22.7358 4.43811C21.4621 3.28432 19.7917 2.62582 18.0359 2.62582H9.9014C7.26 2.62582 4.84351 4.11268 3.65288 6.47052C2.46224 8.82836 2.70023 11.6556 4.26826 13.7813C5.41297 15.333 6.77147 16.9359 7.9927 18.3768C8.02079 18.4099 8.04881 18.443 8.07675 18.4759C11.5156 22.5336 13.8385 25.4565 14.5908 27.8737C14.9225 28.9388 14.979 30.1204 14.9978 32.4815C14.9985 32.5748 14.9992 32.6705 14.9999 32.7684C15.0155 35.0456 15.0397 38.5415 16.3728 42.1395" fill="white" stroke="black" stroke-width="2" stroke-linejoin="round"/>
<path fill-rule="evenodd" clip-rule="evenodd" d="M117.854 58.4095C117.357 65.3112 121.554 70.9882 128.921 70.6971H128.916C135.373 70.4411 141.393 63.6849 140.861 57.506C140.416 52.3512 135.044 47.967 130.034 43.8776C127.141 41.5162 124.369 39.253 122.734 36.9966C120.837 34.3773 119.561 31.292 118.273 28.1773C117.154 25.4725 116.026 22.7455 114.474 20.2819C112.722 17.4961 112.978 15.9451 115.328 15.9451C117.678 15.9451 120.47 17.7521 122.252 20.7336C123.96 23.5897 124.356 25.0152 124.291 27.8713H131.431C131.491 25.1256 131.15 23.7503 129.553 21.0047C125.707 15.0567 118.542 9.03335 111.17 8.71713C101.57 8.30554 105.115 17.0644 107.816 22.0889C109.024 24.334 109.868 26.8416 110.719 29.3681C112.399 34.36 114.105 39.426 118.692 42.6886C119.333 43.1443 120.037 43.6253 120.778 44.1321C126.023 47.7168 133.156 52.5925 133.209 58.9516C133.234 61.8277 131.321 63.7401 128.519 63.7401C125.898 63.7401 125.044 61.8428 125.079 58.6805C125.109 55.97 124.738 54.6148 123.146 51.9043H115.916C117.442 54.5044 117.839 55.8094 117.854 58.4095ZM43.9255 69.7936H36.0622C35.8578 68.2432 35.7595 66.6423 35.6605 65.0306C35.4193 61.1006 35.1741 57.1058 33.3758 53.621C32.1862 51.3157 30.3363 49.354 28.4833 47.3889C26.2612 45.0325 24.0345 42.6713 22.9366 39.7071C22.0362 37.2772 22.0169 34.85 21.9975 32.4256C21.9799 30.2125 21.9623 28.0017 21.2746 25.7932C20.0096 21.7291 16.5525 17.6499 13.4169 13.95L13.4169 13.95C12.1338 12.436 10.9045 10.9855 9.90137 9.62565H18.0358C19.0919 11.1518 20.17 12.5821 21.2195 13.9743L21.2195 13.9743C25.1298 19.1617 28.642 23.821 29.1328 30.9482C29.7892 40.494 32.96 44.5329 38.9946 52.2195L39.0348 52.2707C33.9834 43.3964 33.6319 40.4901 33.8679 30.9482C34.0676 23.0342 31.9925 18.8447 28.7658 12.33L28.7657 12.3299C28.3414 11.4733 27.8972 10.5764 27.4357 9.62565H34.9374C35.5944 11.0435 36.3498 12.4565 37.1109 13.88L37.1109 13.88C39.3514 18.0706 41.6407 22.3526 41.6107 27.1184C41.5972 29.1544 41.0907 30.9676 40.5895 32.7612L40.5895 32.7613C39.9701 34.9783 39.359 37.1655 39.6976 39.7071C40.0675 42.4847 41.4086 44.732 42.7527 46.9846C43.7623 48.6763 44.7736 50.3711 45.3767 52.2958C46.7408 56.6525 45.7528 61.1472 44.7823 65.5624L44.7823 65.5625C44.4703 66.9818 44.1602 68.3929 43.9305 69.7885L43.9255 69.7936ZM56.1836 65.495V65.495C56.5102 60.9947 56.8403 56.4477 54.8669 52.3008C53.9806 50.4393 52.7635 48.8098 51.5497 47.1847C49.8408 44.8968 48.1385 42.6176 47.3751 39.7121C46.7251 37.2385 46.9973 35.0143 47.2738 32.7555C47.4949 30.9487 47.7188 29.1198 47.4756 27.1234C46.8799 22.2375 43.9386 17.9833 41.1045 13.8843C40.1157 12.4543 39.1401 11.0432 38.2816 9.63067H46.2353C47.0955 11.0473 48.0733 12.4622 49.0641 13.8957L49.0641 13.8958C51.8964 17.9939 54.8341 22.2446 55.4293 27.1234C55.6727 29.1239 55.4492 30.9555 55.2285 32.7641C54.9531 35.0215 54.6821 37.2431 55.3288 39.7121C56.0922 42.6176 57.7945 44.8968 59.5034 47.1847C60.7172 48.8098 61.9343 50.4393 62.8206 52.3008C64.7942 56.4482 64.4639 60.9987 64.1371 65.4986L64.1371 65.4988C64.0325 66.9405 63.9282 68.3771 63.9001 69.7936H55.9464C55.9745 68.3754 56.0788 66.9377 56.1836 65.4952V65.4951V65.495ZM69.6846 69.7936H82.0671V69.8036C87.7914 69.7634 92.2402 64.9599 92.4461 59.2327C92.646 54.528 90.8801 52.1105 87.5393 47.5371L87.239 47.1258C84.4673 43.3311 81.7608 40.5303 77.9999 39.0847C81.0578 37.8198 82.4286 35.0189 82.9659 31.1339C83.5735 26.762 83.6488 24.5735 80.8971 20.2016C77.2166 14.7455 71.1659 9.79129 64.3119 9.63067H52.0198C52.8782 11.0431 53.8539 12.4542 54.8426 13.8843L54.8427 13.8843L54.8427 13.8843C57.6768 17.9833 60.6181 22.2375 61.2138 27.1234C61.457 29.1198 61.2331 30.9487 61.012 32.7555C60.7355 35.0143 60.4633 37.2385 61.1133 39.7121C61.8767 42.6176 63.579 44.8968 65.2879 47.1847C66.5017 48.8098 67.7188 50.4393 68.6051 52.3008C70.5785 56.4477 70.2484 60.9947 69.9218 65.495V65.495V65.4951C69.817 66.9376 69.7127 68.3754 69.6846 69.7936ZM68.3389 16.939C70.0562 16.939 71.8689 18.0232 73.3251 20.3722C76.1705 24.9596 75.8261 27.3542 75.1955 31.7398C75.1651 31.9513 75.134 32.1675 75.1026 32.3888C74.7511 34.8282 73.6565 36.0028 71.7584 36.0028H68.3239C69.4888 27.9165 69.0319 23.8708 64.5429 16.939H68.3389ZM73.546 42.5983C75.3537 42.5983 77.2668 43.9535 78.964 46.3026C81.7156 49.4849 85.1 54.5496 84.7686 59.0419C84.6882 61.391 83.5132 62.4752 81.796 62.4752H77.9095C79.5188 55.799 75.706 50.5225 72.0232 45.426C71.3395 44.4798 70.6603 43.5399 70.0211 42.5983H73.546ZM96.8899 69.7936C96.9179 68.3753 97.0223 66.9375 97.127 65.495C97.4537 60.9947 97.7838 56.4477 95.8103 52.3008C94.9241 50.4393 93.707 48.8098 92.4932 47.1847L92.4931 47.1847C90.7843 44.8968 89.0819 42.6176 88.3186 39.7121C87.6686 37.2385 87.9408 35.0143 88.2173 32.7555C88.4384 30.9487 88.6622 29.1198 88.419 27.1234C87.8234 22.2375 84.882 17.9833 82.0479 13.8843C81.0592 12.4543 80.0835 11.0432 79.2251 9.63067H98.4766C99.4348 12.0878 100.507 13.529 102.078 15.6401L102.079 15.6413C102.401 16.0742 102.744 16.5354 103.111 17.0393H91.723C95.9409 23.5194 96.8246 27.5601 95.4789 35.1996H103.433C103.237 38.0557 103.402 39.4812 104.944 42.3373H96.9903C97.6689 43.3501 98.4001 44.3636 99.1381 45.3866L99.1383 45.3869C102.786 50.4426 106.6 55.7295 105.054 62.3046H116.443C116.366 62.848 116.288 63.3421 116.215 63.8047L116.215 63.805C115.885 65.8973 115.656 67.3455 116.141 69.8036H96.8899V69.7936Z" fill="black"/>
</svg>
