<svg width="167" height="66" viewBox="0 0 167 66" fill="none" xmlns="http://www.w3.org/2000/svg">
<path d="M117.998 59.7651C112.838 59.7651 108.428 57.9251 105.508 54.6851C102.588 56.1851 99.3283 56.9351 95.7483 56.9351C95.2083 56.9351 94.6483 56.9151 94.0783 56.8851C90.8483 58.7751 87.6883 59.7251 84.6583 59.7251C83.9483 59.7251 83.2483 59.6751 82.5583 59.5751C82.4983 59.5751 82.4483 59.5551 82.3883 59.5451C80.5683 59.2251 78.9283 58.5451 77.4983 57.5851C76.0783 58.6251 74.3483 59.2051 72.5383 59.2051C70.6283 59.2051 68.7783 58.5551 67.2683 57.4251C64.8383 58.6651 62.3283 59.4351 59.7583 59.4351C58.2283 59.4351 56.7483 59.1551 55.3783 58.6051C53.5583 57.8851 52.0283 56.7751 50.8483 55.3751C49.2383 56.0251 47.5483 56.4751 45.7983 56.7251C45.5883 56.7551 45.3683 56.7751 45.1583 56.7851C44.8783 56.7951 44.6083 56.8051 44.3383 56.8051C42.3783 56.8051 40.4983 56.4551 38.7783 55.7851C37.4983 56.5051 36.2483 57.1151 34.9983 57.6251C32.3283 58.7251 29.5083 59.3151 26.8783 59.3151C19.9683 59.3151 14.7083 55.2751 13.1383 48.7751C12.2683 45.2051 12.4583 41.0051 13.7083 36.3051C13.9883 35.1851 14.3283 34.0451 14.7283 32.8851C11.8483 32.4551 9.14832 31.1051 6.96832 28.9851C3.47832 25.4951 1.95832 20.7551 2.71832 15.9051C3.49832 10.9651 6.56832 6.68506 10.9283 4.44506C13.6983 3.06506 16.7783 2.43506 20.6583 2.43506C20.8883 2.43506 21.1083 2.43506 21.3383 2.43506C21.5083 2.43506 21.6783 2.43506 21.8583 2.43506C24.7083 2.43506 27.5083 2.89506 29.9783 3.29506C31.2383 3.50506 32.5383 3.71506 33.5083 3.79506C34.3583 3.11506 35.3083 2.61506 36.3583 2.30506C37.1683 2.06506 38.0183 1.93506 38.8783 1.93506C40.9783 1.93506 42.9983 2.67506 44.5583 4.02506C45.8583 5.13506 46.7883 6.61506 47.2483 8.23506C47.5483 8.02506 47.8383 7.81506 48.1383 7.61506C51.2283 5.48506 54.9183 4.23506 58.1983 4.23506C61.4783 4.23506 64.1483 5.37506 66.1383 7.45506C67.4483 8.82506 68.9583 11.1851 69.1383 14.8751C69.4783 13.8851 69.9983 12.9451 70.6883 12.0951C70.7883 11.9651 70.8983 11.8451 71.0183 11.7251C71.2883 11.4351 71.5183 11.1651 71.7483 10.8951C72.1583 10.4051 72.6783 9.79506 73.3383 9.13506C74.9583 7.51506 77.1183 6.61506 79.4083 6.61506C81.6983 6.61506 83.6783 7.43506 85.3083 8.93506C86.5183 10.0451 87.3383 11.4151 87.7583 12.8851C90.5383 9.50506 93.1783 6.72506 96.4783 4.27506C97.9783 3.13506 99.8583 2.50506 101.768 2.50506C104.808 2.50506 107.708 4.07506 109.328 6.59506C110.918 9.07506 111.118 12.1951 109.868 14.9351C109.568 15.5951 109.138 16.3751 108.608 17.2151C108.898 17.4251 109.178 17.6451 109.448 17.8751C110.718 18.9251 111.698 20.1751 112.398 21.5851C115.508 18.6151 119.028 16.2051 122.548 14.7751C124.668 13.8851 126.868 13.4251 129.028 13.4251C133.098 13.4251 136.798 15.1351 139.168 18.1151C140.278 19.5151 141.058 21.1151 141.498 22.8551C141.988 22.3351 142.478 21.8251 142.968 21.3151C143.778 17.2751 146.338 13.9351 150.058 12.5451C151.228 12.0951 152.578 11.8551 153.928 11.8551C157.338 11.8551 160.408 13.3951 162.128 15.9651C163.798 18.4551 164.048 21.5951 162.828 24.5751C162.788 24.6751 162.738 24.7751 162.698 24.8751C162.188 25.9551 161.488 26.9051 160.738 27.7451C161.278 30.2051 161.838 33.5851 161.898 37.2251C162.498 37.5951 163.058 38.0351 163.578 38.5551C166.818 41.8051 166.698 47.3951 163.318 50.7751C160.798 53.2851 157.708 55.0651 154.458 55.9151C151.328 58.2751 147.828 59.4751 144.058 59.4751C143.068 59.4751 142.058 59.3851 141.058 59.2251C137.898 58.7351 134.938 57.1751 132.588 54.9051C128.428 57.7951 123.558 59.5351 118.988 59.7351C118.678 59.7451 118.368 59.7551 118.058 59.7551L117.998 59.7651Z" fill="white" stroke="black" stroke-width="2" stroke-linejoin="round"/>
</svg>
