<svg width="161" height="103" viewBox="0 0 161 103" fill="none" xmlns="http://www.w3.org/2000/svg">
<path d="M31.85 98.7007C24.13 98.7007 18.08 92.0407 18.08 83.5407C18.08 83.4407 18.08 83.3307 18.08 83.2307C18.13 80.0907 18.98 76.0407 20.46 71.0007C19.58 71.1807 18.68 71.2707 17.76 71.2707C8.33 71.2707 2 63.6707 2 52.3607C2 41.4307 5.55 29.1907 11.51 19.6207C18.58 8.27068 27.89 2.03068 37.75 2.03068C47 2.03068 53.97 8.10068 56.84 15.3807C61.74 6.56068 67.29 1.95068 75.02 1.95068C81.5 1.95068 85.5 5.31068 86.85 9.30068C87.35 8.11068 87.77 7.09068 88.07 6.29068C88.97 3.93068 91.07 2.24068 93.57 1.86068C94.64 1.70068 95.59 1.70068 96.28 1.70068C107.72 1.70068 108.3 9.23068 108.3 10.7407C108.3 12.9307 107.5 14.6907 106.04 17.8707C105.7 18.6207 105.32 19.4407 104.91 20.3707C103.5 23.5107 102.16 26.5207 100.88 29.3807C103.14 30.2807 105.11 31.8707 106.55 33.8907C110.05 30.2607 114.32 28.3907 119.23 28.3907C124.41 28.3907 128.71 30.3707 131.46 33.7007C135.49 23.7507 139.35 17.0507 147.34 17.0507C153.32 17.0507 158.09 21.6607 159.81 29.0807C160.56 32.3007 158.95 35.6007 155.96 37.0007L155.57 37.1907C153.66 38.0807 148.86 40.3307 147.39 41.9207C147.52 42.9207 147.84 44.6007 148.09 45.9107C148.87 50.0007 149.93 55.5707 149.88 60.9307C149.88 75.0207 142.48 84.9207 131.89 84.9207C127.66 84.9207 124.26 83.7207 121.72 81.8407C118.4 83.8907 114.96 84.9207 111.43 84.9207C104.63 84.9207 98.92 81.9307 95.77 77.2707C95.61 77.2907 95.45 77.3107 95.29 77.3307C91.16 82.3207 86.72 84.8407 82.05 84.8407C78.08 84.8407 74.61 83.7207 71.91 81.7007C69.57 83.5307 66.74 84.9207 63.57 84.9207C59.18 84.9207 55.21 82.8007 52.83 79.6407C46.45 92.2507 40.32 98.7107 31.87 98.7107L31.85 98.7007Z" fill="white" stroke="black" stroke-width="2" stroke-linejoin="round"/>
</svg>
