<svg width="219" height="70" viewBox="0 0 219 70" fill="none" xmlns="http://www.w3.org/2000/svg">
<mask id="mask0_2146_79091" style="mask-type:alpha" maskUnits="userSpaceOnUse" x="0" y="5" width="216" height="64">
<path fill-rule="evenodd" clip-rule="evenodd" d="M20.3999 68.5703V63.7303H15.6199V58.9503H10.7099V54.0403H5.82992V49.1603H0.919922L0.919922 5.86035L205.47 5.86035V10.7704H210.35V15.5504H215.16V63.7303H210.35V68.5703L20.3999 68.5703Z" fill="black"/>
</mask>
<g mask="url(#mask0_2146_79091)">
<path d="M2.98828 -51.5L-387.012 338.5" stroke="black" stroke-width="1.5"/>
<path d="M7.98828 -51.5L-382.012 338.5" stroke="black" stroke-width="1.5"/>
<path d="M12.9883 -51.5L-377.012 338.5" stroke="black" stroke-width="1.5"/>
<path d="M17.9883 -51.5L-372.012 338.5" stroke="black" stroke-width="1.5"/>
<path d="M22.9883 -51.5L-367.012 338.5" stroke="black" stroke-width="1.5"/>
<path d="M27.9883 -51.5L-362.012 338.5" stroke="black" stroke-width="1.5"/>
<path d="M32.9883 -51.5L-357.012 338.5" stroke="black" stroke-width="1.5"/>
<path d="M37.9883 -51.5L-352.012 338.5" stroke="black" stroke-width="1.5"/>
<path d="M42.9883 -51.5L-347.012 338.5" stroke="black" stroke-width="1.5"/>
<path d="M47.9883 -51.5L-342.012 338.5" stroke="black" stroke-width="1.5"/>
<path d="M52.9883 -51.5L-337.012 338.5" stroke="black" stroke-width="1.5"/>
<path d="M57.9883 -51.5L-332.012 338.5" stroke="black" stroke-width="1.5"/>
<path d="M62.9883 -51.5L-327.012 338.5" stroke="black" stroke-width="1.5"/>
<path d="M67.9883 -51.5L-322.012 338.5" stroke="black" stroke-width="1.5"/>
<path d="M72.9883 -51.5L-317.012 338.5" stroke="black" stroke-width="1.5"/>
<path d="M77.9883 -51.5L-312.012 338.5" stroke="black" stroke-width="1.5"/>
<path d="M82.9883 -51.5L-307.012 338.5" stroke="black" stroke-width="1.5"/>
<path d="M87.9883 -51.5L-302.012 338.5" stroke="black" stroke-width="1.5"/>
<path d="M92.9883 -51.5L-297.012 338.5" stroke="black" stroke-width="1.5"/>
<path d="M97.9883 -51.5L-292.012 338.5" stroke="black" stroke-width="1.5"/>
<path d="M102.988 -51.5L-287.012 338.5" stroke="black" stroke-width="1.5"/>
<path d="M107.988 -51.5L-282.012 338.5" stroke="black" stroke-width="1.5"/>
<path d="M112.988 -51.5L-277.012 338.5" stroke="black" stroke-width="1.5"/>
<path d="M117.988 -51.5L-272.012 338.5" stroke="black" stroke-width="1.5"/>
<path d="M122.988 -51.5L-267.012 338.5" stroke="black" stroke-width="1.5"/>
<path d="M127.988 -51.5L-262.012 338.5" stroke="black" stroke-width="1.5"/>
<path d="M132.988 -51.5L-257.012 338.5" stroke="black" stroke-width="1.5"/>
<path d="M137.988 -51.5L-252.012 338.5" stroke="black" stroke-width="1.5"/>
<path d="M142.988 -51.5L-247.012 338.5" stroke="black" stroke-width="1.5"/>
<path d="M147.988 -51.5L-242.012 338.5" stroke="black" stroke-width="1.5"/>
<path d="M152.988 -51.5L-237.012 338.5" stroke="black" stroke-width="1.5"/>
<path d="M157.988 -51.5L-232.012 338.5" stroke="black" stroke-width="1.5"/>
<path d="M162.988 -51.5L-227.012 338.5" stroke="black" stroke-width="1.5"/>
<path d="M167.988 -51.5L-222.012 338.5" stroke="black" stroke-width="1.5"/>
<path d="M172.988 -51.5L-217.012 338.5" stroke="black" stroke-width="1.5"/>
<path d="M177.988 -51.5L-212.012 338.5" stroke="black" stroke-width="1.5"/>
<path d="M182.988 -51.5L-207.012 338.5" stroke="black" stroke-width="1.5"/>
<path d="M187.988 -51.5L-202.012 338.5" stroke="black" stroke-width="1.5"/>
<path d="M192.988 -51.5L-197.012 338.5" stroke="black" stroke-width="1.5"/>
<path d="M197.988 -51.5L-192.012 338.5" stroke="black" stroke-width="1.5"/>
<path d="M202.988 -51.5L-187.012 338.5" stroke="black" stroke-width="1.5"/>
<path d="M207.988 -51.5L-182.012 338.5" stroke="black" stroke-width="1.5"/>
<path d="M212.988 -51.5L-177.012 338.5" stroke="black" stroke-width="1.5"/>
<path d="M217.988 -51.5L-172.012 338.5" stroke="black" stroke-width="1.5"/>
<path d="M222.988 -51.5L-167.012 338.5" stroke="black" stroke-width="1.5"/>
<path d="M227.988 -51.5L-162.012 338.5" stroke="black" stroke-width="1.5"/>
<path d="M232.988 -51.5L-157.012 338.5" stroke="black" stroke-width="1.5"/>
<path d="M237.988 -51.5L-152.012 338.5" stroke="black" stroke-width="1.5"/>
<path d="M242.988 -51.5L-147.012 338.5" stroke="black" stroke-width="1.5"/>
<path d="M247.988 -51.5L-142.012 338.5" stroke="black" stroke-width="1.5"/>
<path d="M252.988 -51.5L-137.012 338.5" stroke="black" stroke-width="1.5"/>
<path d="M257.988 -51.5L-132.012 338.5" stroke="black" stroke-width="1.5"/>
<path d="M262.988 -51.5L-127.012 338.5" stroke="black" stroke-width="1.5"/>
<path d="M267.988 -51.5L-122.012 338.5" stroke="black" stroke-width="1.5"/>
<path d="M272.988 -51.5L-117.012 338.5" stroke="black" stroke-width="1.5"/>
<path d="M277.988 -51.5L-112.012 338.5" stroke="black" stroke-width="1.5"/>
<path d="M282.988 -51.5L-107.012 338.5" stroke="black" stroke-width="1.5"/>
<path d="M287.988 -51.5L-102.012 338.5" stroke="black" stroke-width="1.5"/>
<path d="M292.988 -51.5L-97.0117 338.5" stroke="black" stroke-width="1.5"/>
<path d="M297.988 -51.5L-92.0117 338.5" stroke="black" stroke-width="1.5"/>
<path d="M302.988 -51.5L-87.0117 338.5" stroke="black" stroke-width="1.5"/>
<path d="M307.988 -51.5L-82.0117 338.5" stroke="black" stroke-width="1.5"/>
<path d="M312.988 -51.5L-77.0117 338.5" stroke="black" stroke-width="1.5"/>
<path d="M317.988 -51.5L-72.0117 338.5" stroke="black" stroke-width="1.5"/>
<path d="M322.988 -51.5L-67.0117 338.5" stroke="black" stroke-width="1.5"/>
<path d="M327.988 -51.5L-62.0117 338.5" stroke="black" stroke-width="1.5"/>
<path d="M332.988 -51.5L-57.0117 338.5" stroke="black" stroke-width="1.5"/>
<path d="M337.988 -51.5L-52.0117 338.5" stroke="black" stroke-width="1.5"/>
<path d="M342.988 -51.5L-47.0117 338.5" stroke="black" stroke-width="1.5"/>
<path d="M347.988 -51.5L-42.0117 338.5" stroke="black" stroke-width="1.5"/>
<path d="M352.988 -51.5L-37.0117 338.5" stroke="black" stroke-width="1.5"/>
<path d="M357.988 -51.5L-32.0117 338.5" stroke="black" stroke-width="1.5"/>
<path d="M362.988 -51.5L-27.0117 338.5" stroke="black" stroke-width="1.5"/>
<path d="M367.988 -51.5L-22.0117 338.5" stroke="black" stroke-width="1.5"/>
<path d="M372.988 -51.5L-17.0117 338.5" stroke="black" stroke-width="1.5"/>
<path d="M377.988 -51.5L-12.0117 338.5" stroke="black" stroke-width="1.5"/>
<path d="M382.988 -51.5L-7.01172 338.5" stroke="black" stroke-width="1.5"/>
<path d="M387.988 -51.5L-2.01172 338.5" stroke="black" stroke-width="1.5"/>
<path d="M392.988 -51.5L2.98828 338.5" stroke="black" stroke-width="1.5"/>
<path d="M397.988 -51.5L7.98828 338.5" stroke="black" stroke-width="1.5"/>
<path d="M402.988 -51.5L12.9883 338.5" stroke="black" stroke-width="1.5"/>
<path d="M407.988 -51.5L17.9883 338.5" stroke="black" stroke-width="1.5"/>
<path d="M412.988 -51.5L22.9883 338.5" stroke="black" stroke-width="1.5"/>
<path d="M417.988 -51.5L27.9883 338.5" stroke="black" stroke-width="1.5"/>
<path d="M422.988 -51.5L32.9883 338.5" stroke="black" stroke-width="1.5"/>
<path d="M427.988 -51.5L37.9883 338.5" stroke="black" stroke-width="1.5"/>
<path d="M432.988 -51.5L42.9883 338.5" stroke="black" stroke-width="1.5"/>
<path d="M437.988 -51.5L47.9883 338.5" stroke="black" stroke-width="1.5"/>
<path d="M442.988 -51.5L52.9883 338.5" stroke="black" stroke-width="1.5"/>
<path d="M447.988 -51.5L57.9883 338.5" stroke="black" stroke-width="1.5"/>
<path d="M452.988 -51.5L62.9883 338.5" stroke="black" stroke-width="1.5"/>
<path d="M457.988 -51.5L67.9883 338.5" stroke="black" stroke-width="1.5"/>
<path d="M462.988 -51.5L72.9883 338.5" stroke="black" stroke-width="1.5"/>
<path d="M467.988 -51.5L77.9883 338.5" stroke="black" stroke-width="1.5"/>
<path d="M472.988 -51.5L82.9883 338.5" stroke="black" stroke-width="1.5"/>
<path d="M477.988 -51.5L87.9883 338.5" stroke="black" stroke-width="1.5"/>
<path d="M482.988 -51.5L92.9883 338.5" stroke="black" stroke-width="1.5"/>
<path d="M487.988 -51.5L97.9883 338.5" stroke="black" stroke-width="1.5"/>
<path d="M492.988 -51.5L102.988 338.5" stroke="black" stroke-width="1.5"/>
<path d="M497.988 -51.5L107.988 338.5" stroke="black" stroke-width="1.5"/>
<path d="M502.988 -51.5L112.988 338.5" stroke="black" stroke-width="1.5"/>
<path d="M507.988 -51.5L117.988 338.5" stroke="black" stroke-width="1.5"/>
<path d="M512.988 -51.5L122.988 338.5" stroke="black" stroke-width="1.5"/>
<path d="M517.988 -51.5L127.988 338.5" stroke="black" stroke-width="1.5"/>
<path d="M522.988 -51.5L132.988 338.5" stroke="black" stroke-width="1.5"/>
<path d="M527.988 -51.5L137.988 338.5" stroke="black" stroke-width="1.5"/>
<path d="M532.988 -51.5L142.988 338.5" stroke="black" stroke-width="1.5"/>
<path d="M537.988 -51.5L147.988 338.5" stroke="black" stroke-width="1.5"/>
<path d="M542.988 -51.5L152.988 338.5" stroke="black" stroke-width="1.5"/>
<path d="M547.988 -51.5L157.988 338.5" stroke="black" stroke-width="1.5"/>
<path d="M552.988 -51.5L162.988 338.5" stroke="black" stroke-width="1.5"/>
<path d="M557.988 -51.5L167.988 338.5" stroke="black" stroke-width="1.5"/>
<path d="M562.988 -51.5L172.988 338.5" stroke="black" stroke-width="1.5"/>
<path d="M567.988 -51.5L177.988 338.5" stroke="black" stroke-width="1.5"/>
<path d="M572.988 -51.5L182.988 338.5" stroke="black" stroke-width="1.5"/>
<path d="M577.988 -51.5L187.988 338.5" stroke="black" stroke-width="1.5"/>
<path d="M582.988 -51.5L192.988 338.5" stroke="black" stroke-width="1.5"/>
<path d="M587.988 -51.5L197.988 338.5" stroke="black" stroke-width="1.5"/>
<path d="M592.988 -51.5L202.988 338.5" stroke="black" stroke-width="1.5"/>
<path d="M597.988 -51.5L207.988 338.5" stroke="black" stroke-width="1.5"/>
<path d="M602.988 -51.5L212.988 338.5" stroke="black" stroke-width="1.5"/>
</g>
</svg>
