<svg width="167" height="66" viewBox="0 0 167 66" fill="none" xmlns="http://www.w3.org/2000/svg">
<path d="M117.998 59.7651C112.838 59.7651 108.428 57.9251 105.508 54.6851C102.588 56.1851 99.3283 56.9351 95.7483 56.9351C95.2083 56.9351 94.6483 56.9151 94.0783 56.8851C90.8483 58.7751 87.6883 59.7251 84.6583 59.7251C83.9483 59.7251 83.2483 59.6751 82.5583 59.5751C82.4983 59.5751 82.4483 59.5551 82.3883 59.5451C80.5683 59.2251 78.9283 58.5451 77.4983 57.5851C76.0783 58.6251 74.3483 59.2051 72.5383 59.2051C70.6283 59.2051 68.7783 58.5551 67.2683 57.4251C64.8383 58.6651 62.3283 59.4351 59.7583 59.4351C58.2283 59.4351 56.7483 59.1551 55.3783 58.6051C53.5583 57.8851 52.0283 56.7751 50.8483 55.3751C49.2383 56.0251 47.5483 56.4751 45.7983 56.7251C45.5883 56.7551 45.3683 56.7751 45.1583 56.7851C44.8783 56.7951 44.6083 56.8051 44.3383 56.8051C42.3783 56.8051 40.4983 56.4551 38.7783 55.7851C37.4983 56.5051 36.2483 57.1151 34.9983 57.6251C32.3283 58.7251 29.5083 59.3151 26.8783 59.3151C19.9683 59.3151 14.7083 55.2751 13.1383 48.7751C12.2683 45.2051 12.4583 41.0051 13.7083 36.3051C13.9883 35.1851 14.3283 34.0451 14.7283 32.8851C11.8483 32.4551 9.14832 31.1051 6.96832 28.9851C3.47832 25.4951 1.95832 20.7551 2.71832 15.9051C3.49832 10.9651 6.56832 6.68506 10.9283 4.44506C13.6983 3.06506 16.7783 2.43506 20.6583 2.43506C20.8883 2.43506 21.1083 2.43506 21.3383 2.43506C21.5083 2.43506 21.6783 2.43506 21.8583 2.43506C24.7083 2.43506 27.5083 2.89506 29.9783 3.29506C31.2383 3.50506 32.5383 3.71506 33.5083 3.79506C34.3583 3.11506 35.3083 2.61506 36.3583 2.30506C37.1683 2.06506 38.0183 1.93506 38.8783 1.93506C40.9783 1.93506 42.9983 2.67506 44.5583 4.02506C45.8583 5.13506 46.7883 6.61506 47.2483 8.23506C47.5483 8.02506 47.8383 7.81506 48.1383 7.61506C51.2283 5.48506 54.9183 4.23506 58.1983 4.23506C61.4783 4.23506 64.1483 5.37506 66.1383 7.45506C67.4483 8.82506 68.9583 11.1851 69.1383 14.8751C69.4783 13.8851 69.9983 12.9451 70.6883 12.0951C70.7883 11.9651 70.8983 11.8451 71.0183 11.7251C71.2883 11.4351 71.5183 11.1651 71.7483 10.8951C72.1583 10.4051 72.6783 9.79506 73.3383 9.13506C74.9583 7.51506 77.1183 6.61506 79.4083 6.61506C81.6983 6.61506 83.6783 7.43506 85.3083 8.93506C86.5183 10.0451 87.3383 11.4151 87.7583 12.8851C90.5383 9.50506 93.1783 6.72506 96.4783 4.27506C97.9783 3.13506 99.8583 2.50506 101.768 2.50506C104.808 2.50506 107.708 4.07506 109.328 6.59506C110.918 9.07506 111.118 12.1951 109.868 14.9351C109.568 15.5951 109.138 16.3751 108.608 17.2151C108.898 17.4251 109.178 17.6451 109.448 17.8751C110.718 18.9251 111.698 20.1751 112.398 21.5851C115.508 18.6151 119.028 16.2051 122.548 14.7751C124.668 13.8851 126.868 13.4251 129.028 13.4251C133.098 13.4251 136.798 15.1351 139.168 18.1151C140.278 19.5151 141.058 21.1151 141.498 22.8551C141.988 22.3351 142.478 21.8251 142.968 21.3151C143.778 17.2751 146.338 13.9351 150.058 12.5451C151.228 12.0951 152.578 11.8551 153.928 11.8551C157.338 11.8551 160.408 13.3951 162.128 15.9651C163.798 18.4551 164.048 21.5951 162.828 24.5751C162.788 24.6751 162.738 24.7751 162.698 24.8751C162.188 25.9551 161.488 26.9051 160.738 27.7451C161.278 30.2051 161.838 33.5851 161.898 37.2251C162.498 37.5951 163.058 38.0351 163.578 38.5551C166.818 41.8051 166.698 47.3951 163.318 50.7751C160.798 53.2851 157.708 55.0651 154.458 55.9151C151.328 58.2751 147.828 59.4751 144.058 59.4751C143.068 59.4751 142.058 59.3851 141.058 59.2251C137.898 58.7351 134.938 57.1751 132.588 54.9051C128.428 57.7951 123.558 59.5351 118.988 59.7351C118.678 59.7451 118.368 59.7551 118.058 59.7551L117.998 59.7651Z" fill="white" stroke="black" stroke-width="2" stroke-linejoin="round"/>
<path d="M59.0384 35.8952C57.5284 38.1052 55.6884 41.2952 54.9884 44.1052C53.8084 45.2352 52.7684 46.0952 51.6484 47.0152L51.3184 47.2952C51.1184 47.4652 50.9084 47.5652 50.6784 47.6252C48.8784 48.7752 46.8884 49.4952 44.8484 49.7852C37.9884 50.1052 35.5584 43.7352 36.2084 38.1252C37.3984 28.4552 44.4684 18.5252 52.0284 13.4452C56.0284 10.6952 62.3984 9.55519 62.1284 15.9852C61.9084 18.3052 60.7284 21.2252 58.9384 24.4052C55.5384 30.6652 49.2684 38.4452 41.8184 45.0352C40.9584 44.3352 40.4684 43.0352 40.3084 42.1152C46.8984 36.3352 52.8884 28.7252 56.1284 22.7852C57.7984 19.7052 58.7784 17.3852 58.9384 15.7152C59.3184 12.5852 54.6684 15.6052 53.8584 16.1452C46.6784 20.8952 40.4084 30.0752 39.4384 38.5052C39.0584 42.0652 40.1384 46.7652 44.4584 46.5552C46.3284 46.3452 47.6684 45.8152 50.2584 43.9252C52.9384 41.6252 56.4484 38.5052 59.0284 35.9252L59.0384 35.8952ZM31.1784 48.1552C28.5284 49.2852 24.0484 50.0952 23.0784 46.3752C22.6984 44.7052 22.7584 42.2752 23.6184 38.8652C25.2884 32.6052 29.6084 24.0652 38.3084 13.7052C36.7384 14.3552 34.9084 14.5652 33.4484 14.5652C26.0484 23.9052 22.0584 31.7952 20.4884 38.0552C19.5184 41.6752 19.3584 44.6952 19.9484 47.1252C21.3484 52.9552 27.3984 53.1752 32.3684 51.1252C34.0984 50.4252 35.9884 49.3952 38.0884 47.9352C37.2784 47.0752 36.7384 46.0952 36.3084 45.1852C34.3684 46.6452 32.6384 47.5652 31.1784 48.1552ZM20.7084 23.1552C20.3284 22.3452 19.3584 21.9652 18.5484 22.3452C16.6584 23.2052 15.1984 22.6652 14.1184 21.6452C11.7984 19.3252 12.4484 15.1152 15.5784 13.5952C19.1084 11.8952 23.3884 12.5452 27.6284 13.1852C30.2584 13.5852 32.8684 13.9752 35.2884 13.8152C37.1284 13.6552 39.0684 13.2752 40.1484 11.6052C40.7384 10.9552 40.6884 9.93519 39.9884 9.33519C39.5584 8.95519 38.9084 8.84519 38.3684 9.01519C37.8284 9.17519 37.4484 9.66519 37.1784 10.0952C35.6384 11.3152 32.4384 10.7952 28.8484 10.2052C26.4084 9.80519 23.7784 9.37519 21.3584 9.44519C18.8184 9.39519 16.2784 9.60519 14.1184 10.6852C9.36836 13.1152 7.79836 19.9152 11.8484 23.9652C13.7884 25.8552 16.6584 26.7752 19.8984 25.3152C20.7084 24.9352 21.0884 23.9652 20.7084 23.1552ZM82.2384 47.7752C82.0184 47.1252 81.9184 46.4252 81.9684 45.6652L81.9284 45.6152C81.2384 44.8152 80.4984 43.9652 80.0784 43.0652C79.5884 43.6552 79.1584 44.3052 78.7784 44.9052C78.4584 48.1452 79.8584 51.9752 83.5884 52.6252C86.1284 53.0052 88.8284 51.9752 91.4684 50.2452C89.7984 49.8652 88.4484 49.4852 87.1484 48.8952C85.4184 49.4852 83.0484 49.9752 82.2384 47.7652V47.7752ZM90.1784 30.8752C96.3884 25.4752 100.818 24.0152 102.818 25.6952C103.518 26.2852 103.848 27.6352 103.038 30.3952C102.228 32.9852 100.558 36.0652 98.3384 39.0852C96.5584 41.6252 94.4484 43.7852 92.2884 45.6752C93.6384 45.9452 95.0984 46.1052 96.7684 45.8952C98.2784 44.3252 99.6884 42.7052 100.928 41.0352C105.248 35.3152 109.078 26.7252 104.868 23.2152C102.658 21.3252 99.7384 21.5452 96.9284 22.6252C91.1484 24.6752 83.2684 33.4252 79.3284 38.8252C79.1684 39.0452 79.0084 39.0952 78.7884 38.9352C78.5684 38.7752 78.5184 38.6152 78.6784 38.3952C82.4084 33.2152 86.1884 29.3252 89.9084 26.2952C90.9784 24.9452 91.9284 23.7052 92.8384 22.5152C95.2584 19.3652 97.3984 16.5652 100.658 13.1152C100.818 12.9552 100.978 12.8952 101.198 13.0652C101.358 13.2252 101.358 13.4452 101.198 13.6052C98.4284 16.6952 96.7884 18.7752 94.7084 21.4152C93.9984 22.3252 93.2284 23.2952 92.3384 24.4052C96.3884 22.0852 102.008 15.2252 103.458 12.0352C104.318 10.1452 101.948 8.84519 100.648 9.87519C96.3484 13.0452 93.2684 17.0252 88.5484 23.1452L88.4984 23.2152C82.4484 31.0452 77.4783 38.7652 72.7284 46.5952C72.4883 47.0552 72.2584 47.4752 72.0384 47.8852C71.6584 48.5852 71.3084 49.2352 70.9984 49.8852C70.1384 51.7252 72.8884 53.1752 73.8584 51.3452C78.1784 43.8352 83.1984 36.9252 90.1684 30.8752H90.1784ZM82.7784 40.4352L82.4584 39.9452L80.5684 42.3252C82.4084 46.1552 88.1284 49.0752 92.3984 49.6652C97.9084 50.4652 102.208 49.4652 105.798 45.8752C105.958 45.7252 106.128 45.5852 106.288 45.4352C106.708 45.0552 107.148 44.6652 107.608 44.2652C107.608 42.5352 107.878 40.8052 108.418 39.0852C106.538 40.9152 104.738 42.5852 102.918 44.0952C96.3584 48.9252 87.5784 46.6252 82.7884 40.4352H82.7784ZM71.9684 45.3252C72.4184 44.9352 72.8684 44.5252 73.3384 44.1052C75.9883 39.7852 78.6884 35.5752 81.7084 31.2552C80.8484 32.1152 80.0884 32.9252 79.3584 33.7052C79.0384 34.0452 78.7284 34.3852 78.4084 34.7152C78.1784 34.9452 77.9484 35.1752 77.7184 35.4052C74.4584 38.6652 70.9984 42.1352 67.7184 44.7552C67.6084 44.8452 67.5084 44.9552 67.4284 45.0652C65.7684 46.3852 64.2284 47.4252 62.8684 48.1552C61.0884 49.0152 58.2284 50.3652 58.3884 47.0752C58.8084 41.1752 67.2284 31.1552 72.0784 25.3852L72.3184 25.0952C72.4784 24.9352 72.6384 24.8752 72.8584 25.0452C73.0184 25.2052 73.0784 25.4252 72.9084 25.5852C70.2584 28.6652 65.1884 34.9252 63.0284 38.3852C67.2884 33.7552 72.5484 26.7752 74.3284 24.4052C74.6184 24.0152 74.8184 23.7452 74.9084 23.6452C76.1484 22.1852 73.7184 20.1352 72.2584 21.3252C68.0484 25.3752 63.0284 31.3152 60.9184 34.4452C58.3284 38.1752 55.7384 42.2252 55.1384 46.8652C54.9784 49.0252 55.6784 51.1852 57.9984 52.1052C61.8884 53.6752 67.5584 49.2452 71.6084 45.7852C71.7484 45.6552 71.8684 45.4952 71.9584 45.3352L71.9684 45.3252ZM137.848 44.8052C136.608 41.5152 137.418 37.8952 138.928 34.5952C138.498 33.4652 136.768 32.7052 135.738 34.2752C134.658 35.9452 134.168 40.4352 134.168 40.4352C134.008 42.0052 134.058 43.6252 134.708 45.5652C135.678 48.6952 138.488 51.7752 142.108 52.3152C145.568 52.9052 148.208 51.8252 150.208 50.3152C148.268 50.3152 146.858 49.9952 145.348 49.1252C142.268 49.9852 139.188 48.0452 137.838 44.8052H137.848ZM158.588 43.5152C157.938 42.8652 157.018 42.7052 156.318 43.2952C153.888 45.2952 150.758 47.3952 147.358 45.7752C145.248 44.5352 143.798 42.4252 141.738 38.4352L139.358 40.8152C139.948 42.0552 140.658 43.2452 141.518 44.4852C143.628 47.4552 146.158 49.1252 148.968 49.4552C152.048 49.7752 155.558 48.5952 158.308 45.8352C159.008 45.1352 159.008 43.9452 158.578 43.5152H158.588ZM133.368 40.9752C133.148 41.1752 132.928 41.3852 132.718 41.5852C132.168 42.0952 131.638 42.5952 131.098 43.0752C130.948 43.1452 130.798 43.2352 130.668 43.3552C129.588 44.2752 128.618 45.0852 127.588 45.8952C124.778 48.0552 121.428 49.3552 118.458 49.5152C112.358 49.7852 110.678 44.2752 112.408 39.1452C114.138 34.0152 120.018 27.3752 124.938 24.9952C127.908 23.6452 130.338 23.7552 131.038 24.6152C132.878 26.8852 130.178 31.1452 128.118 32.8752C124.388 36.1652 118.128 38.5952 114.078 37.5752C113.488 38.6052 113.108 39.5752 112.728 40.6552C119.368 42.8652 132.438 37.3652 134.598 28.3952C136.058 22.0752 131.088 18.7852 125.148 21.2652C115.748 25.0952 105.328 38.7052 109.438 47.9952C111.008 51.6652 114.948 52.9052 118.618 52.7452C122.288 52.5852 126.288 50.9652 129.528 48.4252C129.948 48.1152 130.368 47.7952 130.788 47.4652C130.918 47.4052 131.038 47.3352 131.148 47.2352C132.008 46.5352 132.878 45.8352 133.738 45.0252C133.358 43.5652 133.308 42.2152 133.358 40.9752H133.368ZM150.858 30.6052C151.448 33.6252 151.828 37.2452 151.448 40.6452C151.228 42.5852 150.858 44.2652 150.048 45.6152C151.238 45.6152 152.908 44.9152 154.048 44.0452C154.378 43.1452 154.498 42.2952 154.638 41.3752C154.658 41.2452 154.678 41.1052 154.698 40.9652C155.288 35.7252 154.158 29.8452 153.128 26.3852C152.968 25.7352 152.808 24.9852 152.748 24.3352C152.748 23.4152 153.018 22.4452 153.938 21.4152C154.098 21.2552 154.368 21.0952 154.588 21.3052C154.808 21.5152 154.638 21.8452 154.478 22.0052C153.668 22.9252 153.508 23.6252 153.508 24.4352C153.508 24.7052 153.508 24.9252 153.558 25.0852L153.828 24.7652C153.928 24.6652 154.038 24.5552 154.138 24.4552C155.068 23.5352 155.978 22.6352 156.308 21.9052C157.438 19.1552 154.308 18.3952 152.478 19.0952C150.318 19.9052 149.188 22.7652 149.828 25.8452C150.208 27.3552 150.588 28.9252 150.858 30.5952V30.6052ZM138.978 40.1152L142.598 36.4952L149.778 29.0452C149.528 28.1852 149.368 27.3152 149.218 26.4552C149.138 26.0252 149.058 25.5952 148.968 25.1552C147.528 26.6252 146.118 28.1152 144.668 29.6552C143.078 31.3452 141.438 33.0952 139.628 34.9252C138.768 36.5952 138.118 38.8652 137.958 41.0852L138.988 40.1152H138.978ZM78.6384 18.5652C78.8084 18.3752 78.9684 18.1852 79.1184 17.9952C79.6284 17.3952 80.0984 16.8452 80.6284 16.3452C81.2184 15.6452 81.1684 14.6752 80.5184 14.0752C79.8184 13.4252 78.8484 13.4852 78.2484 14.0752C77.7984 14.5252 77.4284 14.9652 77.0484 15.4052C76.7484 15.7552 76.4384 16.1252 76.0884 16.5052C74.6884 18.2352 76.8984 20.3952 78.6284 18.5552L78.6384 18.5652Z" fill="black"/>
</svg>
