<svg width="172" height="76" viewBox="0 0 172 76" fill="none" xmlns="http://www.w3.org/2000/svg">
<mask id="mask0_2146_79141" style="mask-type:alpha" maskUnits="userSpaceOnUse" x="0" y="5" width="168" height="71">
<path d="M150.224 5.70068C145.693 5.70068 141.52 6.86977 137.79 9.04894C136.311 7.6434 134.341 6.84863 132.28 6.84863H106.445C103.537 6.84863 100.947 8.41186 99.5456 10.7971C95.2264 7.98866 90.1603 6.84863 84.8705 6.84863H68.4127C67.5328 6.84863 66.682 6.99175 65.8844 7.25746C65.0789 6.98951 64.2274 6.84863 63.3596 6.84863H49.2621C49.038 6.84863 48.8158 6.85791 48.5959 6.87613C48.3763 6.85789 48.155 6.84863 47.9325 6.84863H32.8143C30.8308 6.84863 28.9761 7.57961 27.5516 8.8232C26.145 7.59362 24.304 6.84863 22.2889 6.84863H8.00002C5.78133 6.84863 3.66229 7.77003 2.14916 9.39268C0.636027 11.0153 -0.13528 13.1935 0.0195138 15.4068L3.65554 67.3955C3.94868 71.587 7.43437 74.8374 11.636 74.8374H25.606C28.8041 74.8374 31.6949 72.9327 32.9568 69.9942L33.2409 69.3327C33.5609 70.3075 34.069 71.2227 34.7495 72.0223C36.2695 73.8083 38.4966 74.8374 40.8418 74.8374H54.8756C55.7672 74.8374 56.629 74.6904 57.4357 74.4178C58.2507 74.6927 59.1133 74.8374 59.9925 74.8374H79.0656C83.692 74.8374 88.0805 73.9425 92.0254 71.9813L92.0663 72.0296C93.5862 73.8112 95.8105 74.8374 98.1524 74.8374H123.923C124.993 74.8374 126.019 74.6261 126.959 74.2403C128.178 74.6217 129.455 74.8822 130.554 75.0809C132.693 75.5038 134.831 75.7307 136.955 75.7307C144.077 75.7307 150.544 73.4893 155.612 68.5517C160.324 63.9657 162.924 57.9759 163.884 51.2561C164.062 50.0107 164.156 48.7604 164.156 47.5093C164.156 44.2913 163.458 41.2484 162.138 38.4416C163.894 37.2156 165.123 35.3081 165.465 33.1097L167.825 17.9277C168.256 15.1512 167.2 12.3518 165.041 10.553L164.276 9.9151C164.207 9.8576 164.137 9.80126 164.066 9.74612C161.987 8.12929 159.411 7.27604 157.352 6.74313C155.011 6.08324 152.623 5.70068 150.224 5.70068Z" fill="black"/>
</mask>
<g mask="url(#mask0_2146_79141)">
<path d="M1.98828 -51L-388.012 339" stroke="black" stroke-width="1.5"/>
<path d="M6.98828 -51L-383.012 339" stroke="black" stroke-width="1.5"/>
<path d="M11.9883 -51L-378.012 339" stroke="black" stroke-width="1.5"/>
<path d="M16.9883 -51L-373.012 339" stroke="black" stroke-width="1.5"/>
<path d="M21.9883 -51L-368.012 339" stroke="black" stroke-width="1.5"/>
<path d="M26.9883 -51L-363.012 339" stroke="black" stroke-width="1.5"/>
<path d="M31.9883 -51L-358.012 339" stroke="black" stroke-width="1.5"/>
<path d="M36.9883 -51L-353.012 339" stroke="black" stroke-width="1.5"/>
<path d="M41.9883 -51L-348.012 339" stroke="black" stroke-width="1.5"/>
<path d="M46.9883 -51L-343.012 339" stroke="black" stroke-width="1.5"/>
<path d="M51.9883 -51L-338.012 339" stroke="black" stroke-width="1.5"/>
<path d="M56.9883 -51L-333.012 339" stroke="black" stroke-width="1.5"/>
<path d="M61.9883 -51L-328.012 339" stroke="black" stroke-width="1.5"/>
<path d="M66.9883 -51L-323.012 339" stroke="black" stroke-width="1.5"/>
<path d="M71.9883 -51L-318.012 339" stroke="black" stroke-width="1.5"/>
<path d="M76.9883 -51L-313.012 339" stroke="black" stroke-width="1.5"/>
<path d="M81.9883 -51L-308.012 339" stroke="black" stroke-width="1.5"/>
<path d="M86.9883 -51L-303.012 339" stroke="black" stroke-width="1.5"/>
<path d="M91.9883 -51L-298.012 339" stroke="black" stroke-width="1.5"/>
<path d="M96.9883 -51L-293.012 339" stroke="black" stroke-width="1.5"/>
<path d="M101.988 -51L-288.012 339" stroke="black" stroke-width="1.5"/>
<path d="M106.988 -51L-283.012 339" stroke="black" stroke-width="1.5"/>
<path d="M111.988 -51L-278.012 339" stroke="black" stroke-width="1.5"/>
<path d="M116.988 -51L-273.012 339" stroke="black" stroke-width="1.5"/>
<path d="M121.988 -51L-268.012 339" stroke="black" stroke-width="1.5"/>
<path d="M126.988 -51L-263.012 339" stroke="black" stroke-width="1.5"/>
<path d="M131.988 -51L-258.012 339" stroke="black" stroke-width="1.5"/>
<path d="M136.988 -51L-253.012 339" stroke="black" stroke-width="1.5"/>
<path d="M141.988 -51L-248.012 339" stroke="black" stroke-width="1.5"/>
<path d="M146.988 -51L-243.012 339" stroke="black" stroke-width="1.5"/>
<path d="M151.988 -51L-238.012 339" stroke="black" stroke-width="1.5"/>
<path d="M156.988 -51L-233.012 339" stroke="black" stroke-width="1.5"/>
<path d="M161.988 -51L-228.012 339" stroke="black" stroke-width="1.5"/>
<path d="M166.988 -51L-223.012 339" stroke="black" stroke-width="1.5"/>
<path d="M171.988 -51L-218.012 339" stroke="black" stroke-width="1.5"/>
<path d="M176.988 -51L-213.012 339" stroke="black" stroke-width="1.5"/>
<path d="M181.988 -51L-208.012 339" stroke="black" stroke-width="1.5"/>
<path d="M186.988 -51L-203.012 339" stroke="black" stroke-width="1.5"/>
<path d="M191.988 -51L-198.012 339" stroke="black" stroke-width="1.5"/>
<path d="M196.988 -51L-193.012 339" stroke="black" stroke-width="1.5"/>
<path d="M201.988 -51L-188.012 339" stroke="black" stroke-width="1.5"/>
<path d="M206.988 -51L-183.012 339" stroke="black" stroke-width="1.5"/>
<path d="M211.988 -51L-178.012 339" stroke="black" stroke-width="1.5"/>
<path d="M216.988 -51L-173.012 339" stroke="black" stroke-width="1.5"/>
<path d="M221.988 -51L-168.012 339" stroke="black" stroke-width="1.5"/>
<path d="M226.988 -51L-163.012 339" stroke="black" stroke-width="1.5"/>
<path d="M231.988 -51L-158.012 339" stroke="black" stroke-width="1.5"/>
<path d="M236.988 -51L-153.012 339" stroke="black" stroke-width="1.5"/>
<path d="M241.988 -51L-148.012 339" stroke="black" stroke-width="1.5"/>
<path d="M246.988 -51L-143.012 339" stroke="black" stroke-width="1.5"/>
<path d="M251.988 -51L-138.012 339" stroke="black" stroke-width="1.5"/>
<path d="M256.988 -51L-133.012 339" stroke="black" stroke-width="1.5"/>
<path d="M261.988 -51L-128.012 339" stroke="black" stroke-width="1.5"/>
<path d="M266.988 -51L-123.012 339" stroke="black" stroke-width="1.5"/>
<path d="M271.988 -51L-118.012 339" stroke="black" stroke-width="1.5"/>
<path d="M276.988 -51L-113.012 339" stroke="black" stroke-width="1.5"/>
<path d="M281.988 -51L-108.012 339" stroke="black" stroke-width="1.5"/>
<path d="M286.988 -51L-103.012 339" stroke="black" stroke-width="1.5"/>
<path d="M291.988 -51L-98.0117 339" stroke="black" stroke-width="1.5"/>
<path d="M296.988 -51L-93.0117 339" stroke="black" stroke-width="1.5"/>
<path d="M301.988 -51L-88.0117 339" stroke="black" stroke-width="1.5"/>
<path d="M306.988 -51L-83.0117 339" stroke="black" stroke-width="1.5"/>
<path d="M311.988 -51L-78.0117 339" stroke="black" stroke-width="1.5"/>
<path d="M316.988 -51L-73.0117 339" stroke="black" stroke-width="1.5"/>
<path d="M321.988 -51L-68.0117 339" stroke="black" stroke-width="1.5"/>
<path d="M326.988 -51L-63.0117 339" stroke="black" stroke-width="1.5"/>
<path d="M331.988 -51L-58.0117 339" stroke="black" stroke-width="1.5"/>
<path d="M336.988 -51L-53.0117 339" stroke="black" stroke-width="1.5"/>
<path d="M341.988 -51L-48.0117 339" stroke="black" stroke-width="1.5"/>
<path d="M346.988 -51L-43.0117 339" stroke="black" stroke-width="1.5"/>
<path d="M351.988 -51L-38.0117 339" stroke="black" stroke-width="1.5"/>
<path d="M356.988 -51L-33.0117 339" stroke="black" stroke-width="1.5"/>
<path d="M361.988 -51L-28.0117 339" stroke="black" stroke-width="1.5"/>
<path d="M366.988 -51L-23.0117 339" stroke="black" stroke-width="1.5"/>
<path d="M371.988 -51L-18.0117 339" stroke="black" stroke-width="1.5"/>
<path d="M376.988 -51L-13.0117 339" stroke="black" stroke-width="1.5"/>
<path d="M381.988 -51L-8.01172 339" stroke="black" stroke-width="1.5"/>
<path d="M386.988 -51L-3.01172 339" stroke="black" stroke-width="1.5"/>
<path d="M391.988 -51L1.98828 339" stroke="black" stroke-width="1.5"/>
<path d="M396.988 -51L6.98828 339" stroke="black" stroke-width="1.5"/>
<path d="M401.988 -51L11.9883 339" stroke="black" stroke-width="1.5"/>
<path d="M406.988 -51L16.9883 339" stroke="black" stroke-width="1.5"/>
<path d="M411.988 -51L21.9883 339" stroke="black" stroke-width="1.5"/>
<path d="M416.988 -51L26.9883 339" stroke="black" stroke-width="1.5"/>
<path d="M421.988 -51L31.9883 339" stroke="black" stroke-width="1.5"/>
<path d="M426.988 -51L36.9883 339" stroke="black" stroke-width="1.5"/>
<path d="M431.988 -51L41.9883 339" stroke="black" stroke-width="1.5"/>
<path d="M436.988 -51L46.9883 339" stroke="black" stroke-width="1.5"/>
<path d="M441.988 -51L51.9883 339" stroke="black" stroke-width="1.5"/>
<path d="M446.988 -51L56.9883 339" stroke="black" stroke-width="1.5"/>
<path d="M451.988 -51L61.9883 339" stroke="black" stroke-width="1.5"/>
<path d="M456.988 -51L66.9883 339" stroke="black" stroke-width="1.5"/>
<path d="M461.988 -51L71.9883 339" stroke="black" stroke-width="1.5"/>
<path d="M466.988 -51L76.9883 339" stroke="black" stroke-width="1.5"/>
<path d="M471.988 -51L81.9883 339" stroke="black" stroke-width="1.5"/>
<path d="M476.988 -51L86.9883 339" stroke="black" stroke-width="1.5"/>
<path d="M481.988 -51L91.9883 339" stroke="black" stroke-width="1.5"/>
<path d="M486.988 -51L96.9883 339" stroke="black" stroke-width="1.5"/>
<path d="M491.988 -51L101.988 339" stroke="black" stroke-width="1.5"/>
<path d="M496.988 -51L106.988 339" stroke="black" stroke-width="1.5"/>
<path d="M501.988 -51L111.988 339" stroke="black" stroke-width="1.5"/>
<path d="M506.988 -51L116.988 339" stroke="black" stroke-width="1.5"/>
<path d="M511.988 -51L121.988 339" stroke="black" stroke-width="1.5"/>
<path d="M516.988 -51L126.988 339" stroke="black" stroke-width="1.5"/>
<path d="M521.988 -51L131.988 339" stroke="black" stroke-width="1.5"/>
<path d="M526.988 -51L136.988 339" stroke="black" stroke-width="1.5"/>
<path d="M531.988 -51L141.988 339" stroke="black" stroke-width="1.5"/>
<path d="M536.988 -51L146.988 339" stroke="black" stroke-width="1.5"/>
<path d="M541.988 -51L151.988 339" stroke="black" stroke-width="1.5"/>
<path d="M546.988 -51L156.988 339" stroke="black" stroke-width="1.5"/>
<path d="M551.988 -51L161.988 339" stroke="black" stroke-width="1.5"/>
<path d="M556.988 -51L166.988 339" stroke="black" stroke-width="1.5"/>
</g>
</svg>
