<svg width="200" height="72" viewBox="0 0 200 72" fill="none" xmlns="http://www.w3.org/2000/svg">
<mask id="mask0_2146_79097" style="mask-type:alpha" maskUnits="userSpaceOnUse" x="0" y="5" width="196" height="67">
<path fill-rule="evenodd" clip-rule="evenodd" d="M58.75 5.31006C54.7702 5.31006 50.8575 6.33311 47.7244 8.31013C44.7182 10.2071 41.43 13.731 41.43 18.7901C41.43 18.857 41.4306 18.9238 41.4317 18.9902H29.5332C29.1534 18.9902 28.7792 19.0208 28.4133 19.08C28.0474 19.0208 27.6731 18.9902 27.2932 18.9902H7.93317C5.75235 18.9902 3.69613 20.0066 2.37176 21.7393C1.04739 23.4719 0.606203 25.7228 1.17849 27.8272L11.3385 65.1872C12.1673 68.235 14.9346 70.3502 18.0932 70.3502H38.6532C40.6657 70.3502 42.5275 69.49 43.8259 68.0669C45.1084 69.5163 46.9825 70.4301 49.07 70.4301H68.43C68.863 70.4301 69.2868 70.3907 69.698 70.3155C69.9283 70.3384 70.1618 70.3501 70.398 70.3501H99.918C104.363 70.3501 108.406 68.682 111.458 65.9357C112.316 66.5434 113.205 67.0763 114.093 67.5364C118.955 70.0535 124.931 71.1102 130.484 71.1102C135.625 71.1102 141.127 70.2048 145.773 68.0737C147.053 69.4728 148.894 70.3502 150.939 70.3502H165.179C166.513 70.3502 167.76 69.9771 168.821 69.3296C171.916 70.8759 175.186 71.3902 178.059 71.3902C186.004 71.3902 195.939 65.939 195.939 55.1102V54.7902C195.939 51.8287 195.19 49.014 193.846 46.5558C194.901 45.3301 195.539 43.7347 195.539 41.9902V25.9902C195.539 22.1242 192.405 18.9902 188.539 18.9902H174.379C173.037 18.9902 171.783 19.3679 170.718 20.0228C167.603 18.4704 164.309 17.9502 161.419 17.9502C157.192 17.9502 152.393 19.5187 148.844 22.6314C148.196 22.2081 147.536 21.8259 146.875 21.4839C142.013 18.9668 136.038 17.9102 130.484 17.9102C124.931 17.9102 118.955 18.9668 114.093 21.4839C113.541 21.7701 112.988 22.0844 112.443 22.4274C109.452 19.5296 105.371 17.9142 101.197 17.9503C99.6431 17.9638 98.136 18.1881 96.6986 18.6094L96.678 12.2873C96.6654 8.43019 93.5351 5.31006 89.678 5.31006H85.438C84.8306 5.31006 84.2258 5.38911 83.6389 5.54522L70.7987 8.96016C70.476 8.72223 70.1521 8.50254 69.8313 8.30117C66.683 6.32511 62.753 5.31006 58.75 5.31006Z" fill="black"/>
</mask>
<g mask="url(#mask0_2146_79097)">
<path d="M1.98828 -48L-388.012 342" stroke="black" stroke-width="1.5"/>
<path d="M6.98828 -48L-383.012 342" stroke="black" stroke-width="1.5"/>
<path d="M11.9883 -48L-378.012 342" stroke="black" stroke-width="1.5"/>
<path d="M16.9883 -48L-373.012 342" stroke="black" stroke-width="1.5"/>
<path d="M21.9883 -48L-368.012 342" stroke="black" stroke-width="1.5"/>
<path d="M26.9883 -48L-363.012 342" stroke="black" stroke-width="1.5"/>
<path d="M31.9883 -48L-358.012 342" stroke="black" stroke-width="1.5"/>
<path d="M36.9883 -48L-353.012 342" stroke="black" stroke-width="1.5"/>
<path d="M41.9883 -48L-348.012 342" stroke="black" stroke-width="1.5"/>
<path d="M46.9883 -48L-343.012 342" stroke="black" stroke-width="1.5"/>
<path d="M51.9883 -48L-338.012 342" stroke="black" stroke-width="1.5"/>
<path d="M56.9883 -48L-333.012 342" stroke="black" stroke-width="1.5"/>
<path d="M61.9883 -48L-328.012 342" stroke="black" stroke-width="1.5"/>
<path d="M66.9883 -48L-323.012 342" stroke="black" stroke-width="1.5"/>
<path d="M71.9883 -48L-318.012 342" stroke="black" stroke-width="1.5"/>
<path d="M76.9883 -48L-313.012 342" stroke="black" stroke-width="1.5"/>
<path d="M81.9883 -48L-308.012 342" stroke="black" stroke-width="1.5"/>
<path d="M86.9883 -48L-303.012 342" stroke="black" stroke-width="1.5"/>
<path d="M91.9883 -48L-298.012 342" stroke="black" stroke-width="1.5"/>
<path d="M96.9883 -48L-293.012 342" stroke="black" stroke-width="1.5"/>
<path d="M101.988 -48L-288.012 342" stroke="black" stroke-width="1.5"/>
<path d="M106.988 -48L-283.012 342" stroke="black" stroke-width="1.5"/>
<path d="M111.988 -48L-278.012 342" stroke="black" stroke-width="1.5"/>
<path d="M116.988 -48L-273.012 342" stroke="black" stroke-width="1.5"/>
<path d="M121.988 -48L-268.012 342" stroke="black" stroke-width="1.5"/>
<path d="M126.988 -48L-263.012 342" stroke="black" stroke-width="1.5"/>
<path d="M131.988 -48L-258.012 342" stroke="black" stroke-width="1.5"/>
<path d="M136.988 -48L-253.012 342" stroke="black" stroke-width="1.5"/>
<path d="M141.988 -48L-248.012 342" stroke="black" stroke-width="1.5"/>
<path d="M146.988 -48L-243.012 342" stroke="black" stroke-width="1.5"/>
<path d="M151.988 -48L-238.012 342" stroke="black" stroke-width="1.5"/>
<path d="M156.988 -48L-233.012 342" stroke="black" stroke-width="1.5"/>
<path d="M161.988 -48L-228.012 342" stroke="black" stroke-width="1.5"/>
<path d="M166.988 -48L-223.012 342" stroke="black" stroke-width="1.5"/>
<path d="M171.988 -48L-218.012 342" stroke="black" stroke-width="1.5"/>
<path d="M176.988 -48L-213.012 342" stroke="black" stroke-width="1.5"/>
<path d="M181.988 -48L-208.012 342" stroke="black" stroke-width="1.5"/>
<path d="M186.988 -48L-203.012 342" stroke="black" stroke-width="1.5"/>
<path d="M191.988 -48L-198.012 342" stroke="black" stroke-width="1.5"/>
<path d="M196.988 -48L-193.012 342" stroke="black" stroke-width="1.5"/>
<path d="M201.988 -48L-188.012 342" stroke="black" stroke-width="1.5"/>
<path d="M206.988 -48L-183.012 342" stroke="black" stroke-width="1.5"/>
<path d="M211.988 -48L-178.012 342" stroke="black" stroke-width="1.5"/>
<path d="M216.988 -48L-173.012 342" stroke="black" stroke-width="1.5"/>
<path d="M221.988 -48L-168.012 342" stroke="black" stroke-width="1.5"/>
<path d="M226.988 -48L-163.012 342" stroke="black" stroke-width="1.5"/>
<path d="M231.988 -48L-158.012 342" stroke="black" stroke-width="1.5"/>
<path d="M236.988 -48L-153.012 342" stroke="black" stroke-width="1.5"/>
<path d="M241.988 -48L-148.012 342" stroke="black" stroke-width="1.5"/>
<path d="M246.988 -48L-143.012 342" stroke="black" stroke-width="1.5"/>
<path d="M251.988 -48L-138.012 342" stroke="black" stroke-width="1.5"/>
<path d="M256.988 -48L-133.012 342" stroke="black" stroke-width="1.5"/>
<path d="M261.988 -48L-128.012 342" stroke="black" stroke-width="1.5"/>
<path d="M266.988 -48L-123.012 342" stroke="black" stroke-width="1.5"/>
<path d="M271.988 -48L-118.012 342" stroke="black" stroke-width="1.5"/>
<path d="M276.988 -48L-113.012 342" stroke="black" stroke-width="1.5"/>
<path d="M281.988 -48L-108.012 342" stroke="black" stroke-width="1.5"/>
<path d="M286.988 -48L-103.012 342" stroke="black" stroke-width="1.5"/>
<path d="M291.988 -48L-98.0117 342" stroke="black" stroke-width="1.5"/>
<path d="M296.988 -48L-93.0117 342" stroke="black" stroke-width="1.5"/>
<path d="M301.988 -48L-88.0117 342" stroke="black" stroke-width="1.5"/>
<path d="M306.988 -48L-83.0117 342" stroke="black" stroke-width="1.5"/>
<path d="M311.988 -48L-78.0117 342" stroke="black" stroke-width="1.5"/>
<path d="M316.988 -48L-73.0117 342" stroke="black" stroke-width="1.5"/>
<path d="M321.988 -48L-68.0117 342" stroke="black" stroke-width="1.5"/>
<path d="M326.988 -48L-63.0117 342" stroke="black" stroke-width="1.5"/>
<path d="M331.988 -48L-58.0117 342" stroke="black" stroke-width="1.5"/>
<path d="M336.988 -48L-53.0117 342" stroke="black" stroke-width="1.5"/>
<path d="M341.988 -48L-48.0117 342" stroke="black" stroke-width="1.5"/>
<path d="M346.988 -48L-43.0117 342" stroke="black" stroke-width="1.5"/>
<path d="M351.988 -48L-38.0117 342" stroke="black" stroke-width="1.5"/>
<path d="M356.988 -48L-33.0117 342" stroke="black" stroke-width="1.5"/>
<path d="M361.988 -48L-28.0117 342" stroke="black" stroke-width="1.5"/>
<path d="M366.988 -48L-23.0117 342" stroke="black" stroke-width="1.5"/>
<path d="M371.988 -48L-18.0117 342" stroke="black" stroke-width="1.5"/>
<path d="M376.988 -48L-13.0117 342" stroke="black" stroke-width="1.5"/>
<path d="M381.988 -48L-8.01172 342" stroke="black" stroke-width="1.5"/>
<path d="M386.988 -48L-3.01172 342" stroke="black" stroke-width="1.5"/>
<path d="M391.988 -48L1.98828 342" stroke="black" stroke-width="1.5"/>
<path d="M396.988 -48L6.98828 342" stroke="black" stroke-width="1.5"/>
<path d="M401.988 -48L11.9883 342" stroke="black" stroke-width="1.5"/>
<path d="M406.988 -48L16.9883 342" stroke="black" stroke-width="1.5"/>
<path d="M411.988 -48L21.9883 342" stroke="black" stroke-width="1.5"/>
<path d="M416.988 -48L26.9883 342" stroke="black" stroke-width="1.5"/>
<path d="M421.988 -48L31.9883 342" stroke="black" stroke-width="1.5"/>
<path d="M426.988 -48L36.9883 342" stroke="black" stroke-width="1.5"/>
<path d="M431.988 -48L41.9883 342" stroke="black" stroke-width="1.5"/>
<path d="M436.988 -48L46.9883 342" stroke="black" stroke-width="1.5"/>
<path d="M441.988 -48L51.9883 342" stroke="black" stroke-width="1.5"/>
<path d="M446.988 -48L56.9883 342" stroke="black" stroke-width="1.5"/>
<path d="M451.988 -48L61.9883 342" stroke="black" stroke-width="1.5"/>
<path d="M456.988 -48L66.9883 342" stroke="black" stroke-width="1.5"/>
<path d="M461.988 -48L71.9883 342" stroke="black" stroke-width="1.5"/>
<path d="M466.988 -48L76.9883 342" stroke="black" stroke-width="1.5"/>
<path d="M471.988 -48L81.9883 342" stroke="black" stroke-width="1.5"/>
<path d="M476.988 -48L86.9883 342" stroke="black" stroke-width="1.5"/>
<path d="M481.988 -48L91.9883 342" stroke="black" stroke-width="1.5"/>
<path d="M486.988 -48L96.9883 342" stroke="black" stroke-width="1.5"/>
<path d="M491.988 -48L101.988 342" stroke="black" stroke-width="1.5"/>
<path d="M496.988 -48L106.988 342" stroke="black" stroke-width="1.5"/>
<path d="M501.988 -48L111.988 342" stroke="black" stroke-width="1.5"/>
<path d="M506.988 -48L116.988 342" stroke="black" stroke-width="1.5"/>
<path d="M511.988 -48L121.988 342" stroke="black" stroke-width="1.5"/>
<path d="M516.988 -48L126.988 342" stroke="black" stroke-width="1.5"/>
<path d="M521.988 -48L131.988 342" stroke="black" stroke-width="1.5"/>
<path d="M526.988 -48L136.988 342" stroke="black" stroke-width="1.5"/>
<path d="M531.988 -48L141.988 342" stroke="black" stroke-width="1.5"/>
<path d="M536.988 -48L146.988 342" stroke="black" stroke-width="1.5"/>
<path d="M541.988 -48L151.988 342" stroke="black" stroke-width="1.5"/>
<path d="M546.988 -48L156.988 342" stroke="black" stroke-width="1.5"/>
<path d="M551.988 -48L161.988 342" stroke="black" stroke-width="1.5"/>
<path d="M556.988 -48L166.988 342" stroke="black" stroke-width="1.5"/>
<path d="M561.988 -48L171.988 342" stroke="black" stroke-width="1.5"/>
<path d="M566.988 -48L176.988 342" stroke="black" stroke-width="1.5"/>
<path d="M571.988 -48L181.988 342" stroke="black" stroke-width="1.5"/>
<path d="M576.988 -48L186.988 342" stroke="black" stroke-width="1.5"/>
<path d="M581.988 -48L191.988 342" stroke="black" stroke-width="1.5"/>
</g>
</svg>
