<svg width="176" height="68" viewBox="0 0 176 68" fill="none" xmlns="http://www.w3.org/2000/svg">
<path d="M122.279 63.6554C113.109 63.6554 104.849 59.6554 99.1794 53.3054C94.2394 61.3554 83.5294 62.8154 76.4194 62.8154H66.1694C64.6894 62.8154 63.3194 62.3554 62.1894 61.5754C61.0594 62.3554 59.6894 62.8154 58.2094 62.8154L53.6694 62.8154C49.7994 62.8154 46.6694 59.6854 46.6694 55.8154V36.6754L38.6194 58.2654C37.5994 61.0054 34.9794 62.8154 32.0594 62.8154H26.9594C24.0694 62.8154 21.4694 61.0354 20.4294 58.3354L2.62941 12.2554C1.79941 10.0954 2.07941 7.67539 3.38941 5.76539C4.68941 3.86539 6.84941 2.72539 9.15941 2.72539L14.0294 2.72539C16.9194 2.72539 19.5094 4.49539 20.5594 7.19539L29.4094 30.0154L37.8794 7.28539C38.8994 4.54539 41.5194 2.72539 44.4394 2.72539L49.2594 2.72539C50.0194 2.72539 50.7594 2.84539 51.4694 3.08539C52.1694 2.85539 52.9094 2.72539 53.6794 2.72539L58.2194 2.72539C59.6994 2.72539 61.0694 3.18539 62.1994 3.96539C63.3294 3.18539 64.6994 2.72539 66.1794 2.72539L77.3194 2.72539C90.1994 2.72539 95.4994 8.49539 97.6094 14.0554C103.269 6.59539 112.229 1.77539 122.289 1.77539C130.829 1.77539 139.079 5.35539 144.939 11.5854C146.249 12.9754 147.409 14.4654 148.419 16.0154C151.029 7.72539 158.309 2.38539 167.869 2.38539C171.739 2.38539 174.869 5.51539 174.869 9.38539V13.8654C174.869 17.7354 171.739 20.8654 167.869 20.8654C166.399 20.8654 165.909 20.8654 165.909 23.1654V42.3754C165.909 54.6454 157.499 63.2054 145.469 63.2054C142.509 63.2054 139.969 61.3654 138.949 58.7654C134.079 61.8654 128.319 63.6554 122.289 63.6554H122.279Z" fill="white" stroke="black" stroke-width="2" stroke-linejoin="round"/>
<path fill-rule="evenodd" clip-rule="evenodd" d="M122.279 56.6554C108.619 56.6554 98.3092 45.5654 98.3092 32.7454C98.3092 19.9254 108.609 8.77539 122.279 8.77539C135.949 8.77539 146.979 20.1954 146.139 33.6354L102.799 33.6354C103.079 43.7154 111.369 52.2854 122.289 52.2854C131.079 52.2854 138.469 46.3454 140.659 38.7854H145.479C143.019 48.8054 133.609 56.6454 122.299 56.6454L122.279 56.6554ZM103.129 29.4954L141.379 29.4954C140.259 20.5354 132.139 13.0854 122.279 13.0854C112.419 13.0854 104.469 20.4754 103.129 29.4954ZM145.459 56.2054V51.7254C150.889 51.7254 154.359 48.5354 154.359 42.3754V23.1154C154.359 14.3754 159.899 9.39539 167.859 9.39539V13.8754C162.369 13.8754 158.899 17.0654 158.899 23.1754V42.3854C158.899 51.1254 153.359 56.2154 145.459 56.2154V56.2054ZM66.1692 9.72539V55.8154H76.4192C89.0192 55.8154 94.8392 51.6154 94.8392 42.7654C94.8392 36.8854 91.3092 32.4054 85.3792 31.3954C89.5792 29.9354 91.9292 26.5254 91.9292 21.6554C91.9292 13.4754 86.9992 9.72539 77.3092 9.72539L66.1692 9.72539ZM77.3692 29.7754L70.5392 29.7754V13.8154L77.3692 13.8154C84.1992 13.8154 87.5592 16.0554 87.5592 21.9354C87.5592 27.4254 84.0292 29.7754 77.3692 29.7754ZM76.3092 51.5554H70.5392V33.6954H77.3692C86.1092 33.6954 90.3092 36.5554 90.3092 42.7154C90.3092 49.2154 86.0492 51.5654 76.3092 51.5654V51.5554ZM53.6792 55.8154L53.6792 9.72539H58.2192L58.2192 55.8154H53.6792ZM9.15918 9.72539L26.9692 55.8154L32.0692 55.8154L49.2592 9.72539H44.4392L29.5392 49.7054L14.0292 9.72539L9.15918 9.72539Z" fill="black"/>
</svg>
