<svg width="203" height="73" viewBox="0 0 203 73" fill="none" xmlns="http://www.w3.org/2000/svg">
<path d="M64.4366 1.96533C60.1361 1.96533 55.8476 3.3628 52.5443 6.31017C49.1561 9.33322 47.1966 13.6537 47.1966 18.5653C47.1966 18.9232 47.207 19.278 47.2276 19.6294H32.7127C32.4312 19.6294 32.1535 19.646 31.8807 19.6783C31.6078 19.646 31.3302 19.6294 31.0487 19.6294H9.99268C6.12668 19.6294 2.99268 22.7634 2.99268 26.6294V26.7574C2.99268 28.7209 3.8173 30.5937 5.26465 31.9193C5.26457 31.9194 5.26657 31.9216 5.27089 31.9262C5.30419 31.9618 5.4683 32.1371 5.76682 32.5308C6.14801 33.0335 6.67338 33.7927 7.34962 34.8907L25.7076 65.0822C26.9774 67.1706 29.2446 68.4454 31.6887 68.4454H31.8167C34.2608 68.4454 36.5279 67.1706 37.7978 65.0822L48.1566 48.0461V55.5573C48.1566 55.665 48.1539 55.7575 48.1497 55.8358C47.2473 57.0384 46.7486 58.5104 46.7486 60.0373V60.1653C46.7486 64.0313 49.8826 67.1653 53.7486 67.1653H74.5669C76.4823 67.886 78.6414 67.7381 80.4602 66.7163L82.9122 65.3387C88.0736 67.5334 92.8694 67.9334 96.1676 67.9334C104.109 67.9334 111.294 65.6821 116.52 60.6307C116.88 60.2827 117.227 59.9254 117.56 59.5593C117.988 60.0494 118.44 60.5246 118.916 60.9835C123.71 65.6006 130.385 67.9977 138.084 67.9977C144.55 67.9977 150.142 66.3086 154.631 63.1448C155.533 64.266 156.779 65.1096 158.236 65.5085C163.576 66.9716 170.476 67.9333 178.005 67.9333C184.707 67.9333 190.606 66.5136 195.006 63.233C199.648 59.7713 201.901 54.7562 201.901 49.4133C201.901 46.4046 200.997 43.7284 199.655 41.3975C199.664 41.1727 199.663 40.9467 199.651 40.7201L198.947 27.5361C198.782 24.4485 196.611 21.8348 193.606 21.1064C188.978 19.9843 181.821 18.8613 175.573 18.8613C169.634 18.8613 163.873 19.8809 159.419 22.9578C158.565 23.5475 157.789 24.1916 157.09 24.8843C152.293 20.6203 145.567 18.9897 138.468 18.9897C131.513 18.9897 124.886 21.1128 119.886 25.4419C119.836 25.4855 119.786 25.5293 119.736 25.5732L119.678 25.4983C116.162 20.9946 111.006 18.8614 105.256 18.8614C104.322 18.8614 103.406 18.9247 102.511 19.0477L102.591 10.6323C102.61 8.71789 101.843 6.87953 100.47 5.5453C99.097 4.21107 97.2374 3.49742 95.3243 3.57054L75.2283 4.33854C74.7723 4.35596 74.3278 4.41674 73.8988 4.5168C71.0474 2.79268 67.7456 1.96533 64.4366 1.96533Z" fill="white" stroke="black" stroke-width="2" stroke-linejoin="round"/>
</svg>
