<svg width="212" height="68" viewBox="0 0 212 68" fill="none" xmlns="http://www.w3.org/2000/svg">
<mask id="mask0_2146_79081" style="mask-type:alpha" maskUnits="userSpaceOnUse" x="0" y="5" width="208" height="62">
<path d="M7.96877 5.87207C6.02465 5.87207 4.1681 6.68058 2.84384 8.10393C1.51958 9.52728 0.846909 11.4372 0.986953 13.3763L1.99806 27.3763C2.04818 28.0702 2.19825 28.7343 2.43358 29.3552C2.30566 29.9791 2.26232 30.6231 2.30955 31.2704L4.40955 60.0482C4.67653 63.7068 7.72266 66.5387 11.391 66.5387H32.391C34.9531 66.5387 37.2889 65.1418 38.5125 62.9342C38.7282 63.3231 38.9823 63.6936 39.273 64.0399C40.6031 65.624 42.5656 66.5387 44.6339 66.5387H58.6339C59.0619 66.5387 59.4821 66.5 59.8908 66.4257C60.3011 66.5003 60.7204 66.5387 61.1442 66.5387H94.5886C97.6233 66.5387 100.461 65.8426 103.054 64.5538C104.354 65.8201 106.104 66.5387 107.938 66.5387H146.826C147.253 66.5387 147.672 66.5002 148.08 66.4262C148.49 66.5005 148.908 66.5387 149.33 66.5387H181.219C186.034 66.5387 190.353 64.7868 193.983 61.6958C197.658 58.6109 200.121 54.6239 200.948 49.8578L200.951 49.8392L202.189 42.8751C202.193 42.8503 202.198 42.8254 202.202 42.8006C202.368 41.8033 202.453 40.7962 202.453 39.7832C202.453 37.425 202.004 35.164 201.084 33.0878C202.965 32.1119 204.364 30.3021 204.756 28.0973L207.245 14.0973C207.607 12.0584 207.048 9.96365 205.718 8.37633C204.388 6.78901 202.424 5.87207 200.353 5.87207H168.464C165.419 5.87207 162.569 6.57256 159.959 7.86143C158.658 6.59242 156.906 5.87207 155.071 5.87207H116.182C114.216 5.87207 112.415 6.68873 111.131 8.0253C108.628 6.56564 105.8 5.87207 102.833 5.87207H69.3886C68.9607 5.87207 68.5405 5.91078 68.1317 5.98514C67.7214 5.91046 67.3021 5.87207 66.8784 5.87207H52.8784C52.7817 5.87207 52.6854 5.87405 52.5896 5.87796C52.494 5.87404 52.3982 5.87207 52.3021 5.87207H38.3021C35.5002 5.87207 32.9682 7.54286 31.8662 10.119L29.2328 16.2751L28.9506 12.3678C28.6862 8.70702 25.6391 5.87207 21.9688 5.87207H7.96877Z" fill="black"/>
</mask>
<g mask="url(#mask0_2146_79081)">
<path d="M2.98828 -51.5L-387.012 338.5" stroke="black" stroke-width="1.5"/>
<path d="M7.98828 -51.5L-382.012 338.5" stroke="black" stroke-width="1.5"/>
<path d="M12.9883 -51.5L-377.012 338.5" stroke="black" stroke-width="1.5"/>
<path d="M17.9883 -51.5L-372.012 338.5" stroke="black" stroke-width="1.5"/>
<path d="M22.9883 -51.5L-367.012 338.5" stroke="black" stroke-width="1.5"/>
<path d="M27.9883 -51.5L-362.012 338.5" stroke="black" stroke-width="1.5"/>
<path d="M32.9883 -51.5L-357.012 338.5" stroke="black" stroke-width="1.5"/>
<path d="M37.9883 -51.5L-352.012 338.5" stroke="black" stroke-width="1.5"/>
<path d="M42.9883 -51.5L-347.012 338.5" stroke="black" stroke-width="1.5"/>
<path d="M47.9883 -51.5L-342.012 338.5" stroke="black" stroke-width="1.5"/>
<path d="M52.9883 -51.5L-337.012 338.5" stroke="black" stroke-width="1.5"/>
<path d="M57.9883 -51.5L-332.012 338.5" stroke="black" stroke-width="1.5"/>
<path d="M62.9883 -51.5L-327.012 338.5" stroke="black" stroke-width="1.5"/>
<path d="M67.9883 -51.5L-322.012 338.5" stroke="black" stroke-width="1.5"/>
<path d="M72.9883 -51.5L-317.012 338.5" stroke="black" stroke-width="1.5"/>
<path d="M77.9883 -51.5L-312.012 338.5" stroke="black" stroke-width="1.5"/>
<path d="M82.9883 -51.5L-307.012 338.5" stroke="black" stroke-width="1.5"/>
<path d="M87.9883 -51.5L-302.012 338.5" stroke="black" stroke-width="1.5"/>
<path d="M92.9883 -51.5L-297.012 338.5" stroke="black" stroke-width="1.5"/>
<path d="M97.9883 -51.5L-292.012 338.5" stroke="black" stroke-width="1.5"/>
<path d="M102.988 -51.5L-287.012 338.5" stroke="black" stroke-width="1.5"/>
<path d="M107.988 -51.5L-282.012 338.5" stroke="black" stroke-width="1.5"/>
<path d="M112.988 -51.5L-277.012 338.5" stroke="black" stroke-width="1.5"/>
<path d="M117.988 -51.5L-272.012 338.5" stroke="black" stroke-width="1.5"/>
<path d="M122.988 -51.5L-267.012 338.5" stroke="black" stroke-width="1.5"/>
<path d="M127.988 -51.5L-262.012 338.5" stroke="black" stroke-width="1.5"/>
<path d="M132.988 -51.5L-257.012 338.5" stroke="black" stroke-width="1.5"/>
<path d="M137.988 -51.5L-252.012 338.5" stroke="black" stroke-width="1.5"/>
<path d="M142.988 -51.5L-247.012 338.5" stroke="black" stroke-width="1.5"/>
<path d="M147.988 -51.5L-242.012 338.5" stroke="black" stroke-width="1.5"/>
<path d="M152.988 -51.5L-237.012 338.5" stroke="black" stroke-width="1.5"/>
<path d="M157.988 -51.5L-232.012 338.5" stroke="black" stroke-width="1.5"/>
<path d="M162.988 -51.5L-227.012 338.5" stroke="black" stroke-width="1.5"/>
<path d="M167.988 -51.5L-222.012 338.5" stroke="black" stroke-width="1.5"/>
<path d="M172.988 -51.5L-217.012 338.5" stroke="black" stroke-width="1.5"/>
<path d="M177.988 -51.5L-212.012 338.5" stroke="black" stroke-width="1.5"/>
<path d="M182.988 -51.5L-207.012 338.5" stroke="black" stroke-width="1.5"/>
<path d="M187.988 -51.5L-202.012 338.5" stroke="black" stroke-width="1.5"/>
<path d="M192.988 -51.5L-197.012 338.5" stroke="black" stroke-width="1.5"/>
<path d="M197.988 -51.5L-192.012 338.5" stroke="black" stroke-width="1.5"/>
<path d="M202.988 -51.5L-187.012 338.5" stroke="black" stroke-width="1.5"/>
<path d="M207.988 -51.5L-182.012 338.5" stroke="black" stroke-width="1.5"/>
<path d="M212.988 -51.5L-177.012 338.5" stroke="black" stroke-width="1.5"/>
<path d="M217.988 -51.5L-172.012 338.5" stroke="black" stroke-width="1.5"/>
<path d="M222.988 -51.5L-167.012 338.5" stroke="black" stroke-width="1.5"/>
<path d="M227.988 -51.5L-162.012 338.5" stroke="black" stroke-width="1.5"/>
<path d="M232.988 -51.5L-157.012 338.5" stroke="black" stroke-width="1.5"/>
<path d="M237.988 -51.5L-152.012 338.5" stroke="black" stroke-width="1.5"/>
<path d="M242.988 -51.5L-147.012 338.5" stroke="black" stroke-width="1.5"/>
<path d="M247.988 -51.5L-142.012 338.5" stroke="black" stroke-width="1.5"/>
<path d="M252.988 -51.5L-137.012 338.5" stroke="black" stroke-width="1.5"/>
<path d="M257.988 -51.5L-132.012 338.5" stroke="black" stroke-width="1.5"/>
<path d="M262.988 -51.5L-127.012 338.5" stroke="black" stroke-width="1.5"/>
<path d="M267.988 -51.5L-122.012 338.5" stroke="black" stroke-width="1.5"/>
<path d="M272.988 -51.5L-117.012 338.5" stroke="black" stroke-width="1.5"/>
<path d="M277.988 -51.5L-112.012 338.5" stroke="black" stroke-width="1.5"/>
<path d="M282.988 -51.5L-107.012 338.5" stroke="black" stroke-width="1.5"/>
<path d="M287.988 -51.5L-102.012 338.5" stroke="black" stroke-width="1.5"/>
<path d="M292.988 -51.5L-97.0117 338.5" stroke="black" stroke-width="1.5"/>
<path d="M297.988 -51.5L-92.0117 338.5" stroke="black" stroke-width="1.5"/>
<path d="M302.988 -51.5L-87.0117 338.5" stroke="black" stroke-width="1.5"/>
<path d="M307.988 -51.5L-82.0117 338.5" stroke="black" stroke-width="1.5"/>
<path d="M312.988 -51.5L-77.0117 338.5" stroke="black" stroke-width="1.5"/>
<path d="M317.988 -51.5L-72.0117 338.5" stroke="black" stroke-width="1.5"/>
<path d="M322.988 -51.5L-67.0117 338.5" stroke="black" stroke-width="1.5"/>
<path d="M327.988 -51.5L-62.0117 338.5" stroke="black" stroke-width="1.5"/>
<path d="M332.988 -51.5L-57.0117 338.5" stroke="black" stroke-width="1.5"/>
<path d="M337.988 -51.5L-52.0117 338.5" stroke="black" stroke-width="1.5"/>
<path d="M342.988 -51.5L-47.0117 338.5" stroke="black" stroke-width="1.5"/>
<path d="M347.988 -51.5L-42.0117 338.5" stroke="black" stroke-width="1.5"/>
<path d="M352.988 -51.5L-37.0117 338.5" stroke="black" stroke-width="1.5"/>
<path d="M357.988 -51.5L-32.0117 338.5" stroke="black" stroke-width="1.5"/>
<path d="M362.988 -51.5L-27.0117 338.5" stroke="black" stroke-width="1.5"/>
<path d="M367.988 -51.5L-22.0117 338.5" stroke="black" stroke-width="1.5"/>
<path d="M372.988 -51.5L-17.0117 338.5" stroke="black" stroke-width="1.5"/>
<path d="M377.988 -51.5L-12.0117 338.5" stroke="black" stroke-width="1.5"/>
<path d="M382.988 -51.5L-7.01172 338.5" stroke="black" stroke-width="1.5"/>
<path d="M387.988 -51.5L-2.01172 338.5" stroke="black" stroke-width="1.5"/>
<path d="M392.988 -51.5L2.98828 338.5" stroke="black" stroke-width="1.5"/>
<path d="M397.988 -51.5L7.98828 338.5" stroke="black" stroke-width="1.5"/>
<path d="M402.988 -51.5L12.9883 338.5" stroke="black" stroke-width="1.5"/>
<path d="M407.988 -51.5L17.9883 338.5" stroke="black" stroke-width="1.5"/>
<path d="M412.988 -51.5L22.9883 338.5" stroke="black" stroke-width="1.5"/>
<path d="M417.988 -51.5L27.9883 338.5" stroke="black" stroke-width="1.5"/>
<path d="M422.988 -51.5L32.9883 338.5" stroke="black" stroke-width="1.5"/>
<path d="M427.988 -51.5L37.9883 338.5" stroke="black" stroke-width="1.5"/>
<path d="M432.988 -51.5L42.9883 338.5" stroke="black" stroke-width="1.5"/>
<path d="M437.988 -51.5L47.9883 338.5" stroke="black" stroke-width="1.5"/>
<path d="M442.988 -51.5L52.9883 338.5" stroke="black" stroke-width="1.5"/>
<path d="M447.988 -51.5L57.9883 338.5" stroke="black" stroke-width="1.5"/>
<path d="M452.988 -51.5L62.9883 338.5" stroke="black" stroke-width="1.5"/>
<path d="M457.988 -51.5L67.9883 338.5" stroke="black" stroke-width="1.5"/>
<path d="M462.988 -51.5L72.9883 338.5" stroke="black" stroke-width="1.5"/>
<path d="M467.988 -51.5L77.9883 338.5" stroke="black" stroke-width="1.5"/>
<path d="M472.988 -51.5L82.9883 338.5" stroke="black" stroke-width="1.5"/>
<path d="M477.988 -51.5L87.9883 338.5" stroke="black" stroke-width="1.5"/>
<path d="M482.988 -51.5L92.9883 338.5" stroke="black" stroke-width="1.5"/>
<path d="M487.988 -51.5L97.9883 338.5" stroke="black" stroke-width="1.5"/>
<path d="M492.988 -51.5L102.988 338.5" stroke="black" stroke-width="1.5"/>
<path d="M497.988 -51.5L107.988 338.5" stroke="black" stroke-width="1.5"/>
<path d="M502.988 -51.5L112.988 338.5" stroke="black" stroke-width="1.5"/>
<path d="M507.988 -51.5L117.988 338.5" stroke="black" stroke-width="1.5"/>
<path d="M512.988 -51.5L122.988 338.5" stroke="black" stroke-width="1.5"/>
<path d="M517.988 -51.5L127.988 338.5" stroke="black" stroke-width="1.5"/>
<path d="M522.988 -51.5L132.988 338.5" stroke="black" stroke-width="1.5"/>
<path d="M527.988 -51.5L137.988 338.5" stroke="black" stroke-width="1.5"/>
<path d="M532.988 -51.5L142.988 338.5" stroke="black" stroke-width="1.5"/>
<path d="M537.988 -51.5L147.988 338.5" stroke="black" stroke-width="1.5"/>
<path d="M542.988 -51.5L152.988 338.5" stroke="black" stroke-width="1.5"/>
<path d="M547.988 -51.5L157.988 338.5" stroke="black" stroke-width="1.5"/>
<path d="M552.988 -51.5L162.988 338.5" stroke="black" stroke-width="1.5"/>
<path d="M557.988 -51.5L167.988 338.5" stroke="black" stroke-width="1.5"/>
<path d="M562.988 -51.5L172.988 338.5" stroke="black" stroke-width="1.5"/>
<path d="M567.988 -51.5L177.988 338.5" stroke="black" stroke-width="1.5"/>
<path d="M572.988 -51.5L182.988 338.5" stroke="black" stroke-width="1.5"/>
<path d="M577.988 -51.5L187.988 338.5" stroke="black" stroke-width="1.5"/>
<path d="M582.988 -51.5L192.988 338.5" stroke="black" stroke-width="1.5"/>
<path d="M587.988 -51.5L197.988 338.5" stroke="black" stroke-width="1.5"/>
<path d="M592.988 -51.5L202.988 338.5" stroke="black" stroke-width="1.5"/>
</g>
</svg>
