<svg width="196" height="73" viewBox="0 0 196 73" fill="none" xmlns="http://www.w3.org/2000/svg">
<mask id="mask0_2146_79050" style="mask-type:alpha" maskUnits="userSpaceOnUse" x="0" y="5" width="193" height="68">
<path d="M170.844 72.5954C166.064 72.5954 161.454 71.4054 157.484 69.2354C156.174 70.7954 154.224 71.7354 152.124 71.7354H145.644C143.714 71.7354 141.884 70.9354 140.584 69.5654C136.734 71.5154 132.334 72.5954 127.694 72.5954C118.434 72.5954 110.564 68.4354 105.804 61.8154C101.224 68.3854 93.7341 72.5954 85.1241 72.5954C81.4941 72.5954 78.0441 71.8454 74.9341 70.4354C73.7841 71.2554 72.3841 71.7354 70.8741 71.7354H64.6841C62.8941 71.7354 61.2641 71.0654 60.0241 69.9654C58.7841 71.0654 57.1541 71.7354 55.3641 71.7354H49.1741C45.3041 71.7354 42.1741 68.6054 42.1741 64.7354V55.7154L36.9041 67.5754C35.7841 70.1054 33.2741 71.7354 30.5041 71.7354H24.0241C21.2441 71.7354 18.7341 70.0954 17.6141 67.5454L1.48415 30.8254C0.534145 28.6654 0.744145 26.1654 2.03414 24.1854C3.32414 22.2054 5.53415 21.0154 7.89415 21.0154H14.9541C17.7641 21.0154 20.2941 22.6954 21.3941 25.2754L27.4741 39.5754L27.7941 38.8254C29.4241 34.8454 29.9941 31.7354 29.5041 29.5554C29.0341 27.4754 29.5341 25.3054 30.8641 23.6354C32.1941 21.9754 34.2041 21.0054 36.3341 21.0054H41.8441C41.3541 19.7454 41.0941 18.3654 41.0941 16.9154C41.0941 10.6854 46.0041 5.81543 52.2741 5.81543C54.9541 5.81543 57.4241 6.77543 59.3441 8.36543C60.6241 6.85543 62.5441 5.89543 64.6841 5.89543H70.8741C74.7441 5.89543 77.8741 9.02543 77.8741 12.8954V21.2054C80.1741 20.5054 82.6041 20.1454 85.1341 20.1454C93.7841 20.1454 101.294 24.3854 105.874 30.9954C110.644 24.3754 118.474 20.1454 127.494 20.1454C138.644 20.1454 147.764 26.2754 151.794 35.4954L156.774 25.0054C157.934 22.5654 160.394 21.0054 163.094 21.0054H170.224C173.284 21.0054 175.984 22.9954 176.904 25.9054C177.574 28.0454 179.254 29.4754 182.154 31.8154C186.664 35.4554 192.854 40.4354 192.854 50.9754C192.854 63.7054 183.814 72.5954 170.874 72.5954H170.844Z" fill="black"/>
</mask>
<g mask="url(#mask0_2146_79050)">
<path d="M2.98828 -51L-387.012 339" stroke="black" stroke-width="1.5"/>
<path d="M7.98828 -51L-382.012 339" stroke="black" stroke-width="1.5"/>
<path d="M12.9883 -51L-377.012 339" stroke="black" stroke-width="1.5"/>
<path d="M17.9883 -51L-372.012 339" stroke="black" stroke-width="1.5"/>
<path d="M22.9883 -51L-367.012 339" stroke="black" stroke-width="1.5"/>
<path d="M27.9883 -51L-362.012 339" stroke="black" stroke-width="1.5"/>
<path d="M32.9883 -51L-357.012 339" stroke="black" stroke-width="1.5"/>
<path d="M37.9883 -51L-352.012 339" stroke="black" stroke-width="1.5"/>
<path d="M42.9883 -51L-347.012 339" stroke="black" stroke-width="1.5"/>
<path d="M47.9883 -51L-342.012 339" stroke="black" stroke-width="1.5"/>
<path d="M52.9883 -51L-337.012 339" stroke="black" stroke-width="1.5"/>
<path d="M57.9883 -51L-332.012 339" stroke="black" stroke-width="1.5"/>
<path d="M62.9883 -51L-327.012 339" stroke="black" stroke-width="1.5"/>
<path d="M67.9883 -51L-322.012 339" stroke="black" stroke-width="1.5"/>
<path d="M72.9883 -51L-317.012 339" stroke="black" stroke-width="1.5"/>
<path d="M77.9883 -51L-312.012 339" stroke="black" stroke-width="1.5"/>
<path d="M82.9883 -51L-307.012 339" stroke="black" stroke-width="1.5"/>
<path d="M87.9883 -51L-302.012 339" stroke="black" stroke-width="1.5"/>
<path d="M92.9883 -51L-297.012 339" stroke="black" stroke-width="1.5"/>
<path d="M97.9883 -51L-292.012 339" stroke="black" stroke-width="1.5"/>
<path d="M102.988 -51L-287.012 339" stroke="black" stroke-width="1.5"/>
<path d="M107.988 -51L-282.012 339" stroke="black" stroke-width="1.5"/>
<path d="M112.988 -51L-277.012 339" stroke="black" stroke-width="1.5"/>
<path d="M117.988 -51L-272.012 339" stroke="black" stroke-width="1.5"/>
<path d="M122.988 -51L-267.012 339" stroke="black" stroke-width="1.5"/>
<path d="M127.988 -51L-262.012 339" stroke="black" stroke-width="1.5"/>
<path d="M132.988 -51L-257.012 339" stroke="black" stroke-width="1.5"/>
<path d="M137.988 -51L-252.012 339" stroke="black" stroke-width="1.5"/>
<path d="M142.988 -51L-247.012 339" stroke="black" stroke-width="1.5"/>
<path d="M147.988 -51L-242.012 339" stroke="black" stroke-width="1.5"/>
<path d="M152.988 -51L-237.012 339" stroke="black" stroke-width="1.5"/>
<path d="M157.988 -51L-232.012 339" stroke="black" stroke-width="1.5"/>
<path d="M162.988 -51L-227.012 339" stroke="black" stroke-width="1.5"/>
<path d="M167.988 -51L-222.012 339" stroke="black" stroke-width="1.5"/>
<path d="M172.988 -51L-217.012 339" stroke="black" stroke-width="1.5"/>
<path d="M177.988 -51L-212.012 339" stroke="black" stroke-width="1.5"/>
<path d="M182.988 -51L-207.012 339" stroke="black" stroke-width="1.5"/>
<path d="M187.988 -51L-202.012 339" stroke="black" stroke-width="1.5"/>
<path d="M192.988 -51L-197.012 339" stroke="black" stroke-width="1.5"/>
<path d="M197.988 -51L-192.012 339" stroke="black" stroke-width="1.5"/>
<path d="M202.988 -51L-187.012 339" stroke="black" stroke-width="1.5"/>
<path d="M207.988 -51L-182.012 339" stroke="black" stroke-width="1.5"/>
<path d="M212.988 -51L-177.012 339" stroke="black" stroke-width="1.5"/>
<path d="M217.988 -51L-172.012 339" stroke="black" stroke-width="1.5"/>
<path d="M222.988 -51L-167.012 339" stroke="black" stroke-width="1.5"/>
<path d="M227.988 -51L-162.012 339" stroke="black" stroke-width="1.5"/>
<path d="M232.988 -51L-157.012 339" stroke="black" stroke-width="1.5"/>
<path d="M237.988 -51L-152.012 339" stroke="black" stroke-width="1.5"/>
<path d="M242.988 -51L-147.012 339" stroke="black" stroke-width="1.5"/>
<path d="M247.988 -51L-142.012 339" stroke="black" stroke-width="1.5"/>
<path d="M252.988 -51L-137.012 339" stroke="black" stroke-width="1.5"/>
<path d="M257.988 -51L-132.012 339" stroke="black" stroke-width="1.5"/>
<path d="M262.988 -51L-127.012 339" stroke="black" stroke-width="1.5"/>
<path d="M267.988 -51L-122.012 339" stroke="black" stroke-width="1.5"/>
<path d="M272.988 -51L-117.012 339" stroke="black" stroke-width="1.5"/>
<path d="M277.988 -51L-112.012 339" stroke="black" stroke-width="1.5"/>
<path d="M282.988 -51L-107.012 339" stroke="black" stroke-width="1.5"/>
<path d="M287.988 -51L-102.012 339" stroke="black" stroke-width="1.5"/>
<path d="M292.988 -51L-97.0117 339" stroke="black" stroke-width="1.5"/>
<path d="M297.988 -51L-92.0117 339" stroke="black" stroke-width="1.5"/>
<path d="M302.988 -51L-87.0117 339" stroke="black" stroke-width="1.5"/>
<path d="M307.988 -51L-82.0117 339" stroke="black" stroke-width="1.5"/>
<path d="M312.988 -51L-77.0117 339" stroke="black" stroke-width="1.5"/>
<path d="M317.988 -51L-72.0117 339" stroke="black" stroke-width="1.5"/>
<path d="M322.988 -51L-67.0117 339" stroke="black" stroke-width="1.5"/>
<path d="M327.988 -51L-62.0117 339" stroke="black" stroke-width="1.5"/>
<path d="M332.988 -51L-57.0117 339" stroke="black" stroke-width="1.5"/>
<path d="M337.988 -51L-52.0117 339" stroke="black" stroke-width="1.5"/>
<path d="M342.988 -51L-47.0117 339" stroke="black" stroke-width="1.5"/>
<path d="M347.988 -51L-42.0117 339" stroke="black" stroke-width="1.5"/>
<path d="M352.988 -51L-37.0117 339" stroke="black" stroke-width="1.5"/>
<path d="M357.988 -51L-32.0117 339" stroke="black" stroke-width="1.5"/>
<path d="M362.988 -51L-27.0117 339" stroke="black" stroke-width="1.5"/>
<path d="M367.988 -51L-22.0117 339" stroke="black" stroke-width="1.5"/>
<path d="M372.988 -51L-17.0117 339" stroke="black" stroke-width="1.5"/>
<path d="M377.988 -51L-12.0117 339" stroke="black" stroke-width="1.5"/>
<path d="M382.988 -51L-7.01172 339" stroke="black" stroke-width="1.5"/>
<path d="M387.988 -51L-2.01172 339" stroke="black" stroke-width="1.5"/>
<path d="M392.988 -51L2.98828 339" stroke="black" stroke-width="1.5"/>
<path d="M397.988 -51L7.98828 339" stroke="black" stroke-width="1.5"/>
<path d="M402.988 -51L12.9883 339" stroke="black" stroke-width="1.5"/>
<path d="M407.988 -51L17.9883 339" stroke="black" stroke-width="1.5"/>
<path d="M412.988 -51L22.9883 339" stroke="black" stroke-width="1.5"/>
<path d="M417.988 -51L27.9883 339" stroke="black" stroke-width="1.5"/>
<path d="M422.988 -51L32.9883 339" stroke="black" stroke-width="1.5"/>
<path d="M427.988 -51L37.9883 339" stroke="black" stroke-width="1.5"/>
<path d="M432.988 -51L42.9883 339" stroke="black" stroke-width="1.5"/>
<path d="M437.988 -51L47.9883 339" stroke="black" stroke-width="1.5"/>
<path d="M442.988 -51L52.9883 339" stroke="black" stroke-width="1.5"/>
<path d="M447.988 -51L57.9883 339" stroke="black" stroke-width="1.5"/>
<path d="M452.988 -51L62.9883 339" stroke="black" stroke-width="1.5"/>
<path d="M457.988 -51L67.9883 339" stroke="black" stroke-width="1.5"/>
<path d="M462.988 -51L72.9883 339" stroke="black" stroke-width="1.5"/>
<path d="M467.988 -51L77.9883 339" stroke="black" stroke-width="1.5"/>
<path d="M472.988 -51L82.9883 339" stroke="black" stroke-width="1.5"/>
<path d="M477.988 -51L87.9883 339" stroke="black" stroke-width="1.5"/>
<path d="M482.988 -51L92.9883 339" stroke="black" stroke-width="1.5"/>
<path d="M487.988 -51L97.9883 339" stroke="black" stroke-width="1.5"/>
<path d="M492.988 -51L102.988 339" stroke="black" stroke-width="1.5"/>
<path d="M497.988 -51L107.988 339" stroke="black" stroke-width="1.5"/>
<path d="M502.988 -51L112.988 339" stroke="black" stroke-width="1.5"/>
<path d="M507.988 -51L117.988 339" stroke="black" stroke-width="1.5"/>
<path d="M512.988 -51L122.988 339" stroke="black" stroke-width="1.5"/>
<path d="M517.988 -51L127.988 339" stroke="black" stroke-width="1.5"/>
<path d="M522.988 -51L132.988 339" stroke="black" stroke-width="1.5"/>
<path d="M527.988 -51L137.988 339" stroke="black" stroke-width="1.5"/>
<path d="M532.988 -51L142.988 339" stroke="black" stroke-width="1.5"/>
<path d="M537.988 -51L147.988 339" stroke="black" stroke-width="1.5"/>
<path d="M542.988 -51L152.988 339" stroke="black" stroke-width="1.5"/>
<path d="M547.988 -51L157.988 339" stroke="black" stroke-width="1.5"/>
<path d="M552.988 -51L162.988 339" stroke="black" stroke-width="1.5"/>
<path d="M557.988 -51L167.988 339" stroke="black" stroke-width="1.5"/>
<path d="M562.988 -51L172.988 339" stroke="black" stroke-width="1.5"/>
<path d="M567.988 -51L177.988 339" stroke="black" stroke-width="1.5"/>
<path d="M572.988 -51L182.988 339" stroke="black" stroke-width="1.5"/>
<path d="M577.988 -51L187.988 339" stroke="black" stroke-width="1.5"/>
<path d="M582.988 -51L192.988 339" stroke="black" stroke-width="1.5"/>
</g>
</svg>
