<svg width="167" height="66" viewBox="0 0 167 66" fill="none" xmlns="http://www.w3.org/2000/svg">
<mask id="mask0_2146_79118" style="mask-type:alpha" maskUnits="userSpaceOnUse" x="0" y="4" width="166" height="61">
<path d="M116.998 63.7651C111.838 63.7651 107.428 61.9251 104.508 58.6851C101.588 60.1851 98.3283 60.9351 94.7483 60.9351C94.2083 60.9351 93.6483 60.9151 93.0783 60.8851C89.8483 62.7751 86.6883 63.7251 83.6583 63.7251C82.9483 63.7251 82.2483 63.6751 81.5583 63.5751C81.4983 63.5751 81.4483 63.5551 81.3883 63.5451C79.5683 63.2251 77.9283 62.5451 76.4983 61.5851C75.0783 62.6251 73.3483 63.2051 71.5383 63.2051C69.6283 63.2051 67.7783 62.5551 66.2683 61.4251C63.8383 62.6651 61.3283 63.4351 58.7583 63.4351C57.2283 63.4351 55.7483 63.1551 54.3783 62.6051C52.5583 61.8851 51.0283 60.7751 49.8483 59.3751C48.2383 60.0251 46.5483 60.4751 44.7983 60.7251C44.5883 60.7551 44.3683 60.7751 44.1583 60.7851C43.8783 60.7951 43.6083 60.8051 43.3383 60.8051C41.3783 60.8051 39.4983 60.4551 37.7783 59.7851C36.4983 60.5051 35.2483 61.1151 33.9983 61.6251C31.3283 62.7251 28.5083 63.3151 25.8783 63.3151C18.9683 63.3151 13.7083 59.2751 12.1383 52.7751C11.2683 49.2051 11.4583 45.0051 12.7083 40.3051C12.9883 39.1851 13.3283 38.0451 13.7283 36.8851C10.8483 36.4551 8.14832 35.1051 5.96832 32.9851C2.47832 29.4951 0.958316 24.7551 1.71832 19.9051C2.49832 14.9651 5.56832 10.6851 9.92832 8.44506C12.6983 7.06506 15.7783 6.43506 19.6583 6.43506C19.8883 6.43506 20.1083 6.43506 20.3383 6.43506C20.5083 6.43506 20.6783 6.43506 20.8583 6.43506C23.7083 6.43506 26.5083 6.89506 28.9783 7.29506C30.2383 7.50506 31.5383 7.71506 32.5083 7.79506C33.3583 7.11506 34.3083 6.61506 35.3583 6.30506C36.1683 6.06506 37.0183 5.93506 37.8783 5.93506C39.9783 5.93506 41.9983 6.67506 43.5583 8.02506C44.8583 9.13506 45.7883 10.6151 46.2483 12.2351C46.5483 12.0251 46.8383 11.8151 47.1383 11.6151C50.2283 9.48506 53.9183 8.23506 57.1983 8.23506C60.4783 8.23506 63.1483 9.37506 65.1383 11.4551C66.4483 12.8251 67.9583 15.1851 68.1383 18.8751C68.4783 17.8851 68.9983 16.9451 69.6883 16.0951C69.7883 15.9651 69.8983 15.8451 70.0183 15.7251C70.2883 15.4351 70.5183 15.1651 70.7483 14.8951C71.1583 14.4051 71.6783 13.7951 72.3383 13.1351C73.9583 11.5151 76.1183 10.6151 78.4083 10.6151C80.6983 10.6151 82.6783 11.4351 84.3083 12.9351C85.5183 14.0451 86.3383 15.4151 86.7583 16.8851C89.5383 13.5051 92.1783 10.7251 95.4783 8.27506C96.9783 7.13506 98.8583 6.50506 100.768 6.50506C103.808 6.50506 106.708 8.07506 108.328 10.5951C109.918 13.0751 110.118 16.1951 108.868 18.9351C108.568 19.5951 108.138 20.3751 107.608 21.2151C107.898 21.4251 108.178 21.6451 108.448 21.8751C109.718 22.9251 110.698 24.1751 111.398 25.5851C114.508 22.6151 118.028 20.2051 121.548 18.7751C123.668 17.8851 125.868 17.4251 128.028 17.4251C132.098 17.4251 135.798 19.1351 138.168 22.1151C139.278 23.5151 140.058 25.1151 140.498 26.8551C140.988 26.3351 141.478 25.8251 141.968 25.3151C142.778 21.2751 145.338 17.9351 149.058 16.5451C150.228 16.0951 151.578 15.8551 152.928 15.8551C156.338 15.8551 159.408 17.3951 161.128 19.9651C162.798 22.4551 163.048 25.5951 161.828 28.5751C161.788 28.6751 161.738 28.7751 161.698 28.8751C161.188 29.9551 160.488 30.9051 159.738 31.7451C160.278 34.2051 160.838 37.5851 160.898 41.2251C161.498 41.5951 162.058 42.0351 162.578 42.5551C165.818 45.8051 165.698 51.3951 162.318 54.7751C159.798 57.2851 156.708 59.0651 153.458 59.9151C150.328 62.2751 146.828 63.4751 143.058 63.4751C142.068 63.4751 141.058 63.3851 140.058 63.2251C136.898 62.7351 133.938 61.1751 131.588 58.9051C127.428 61.7951 122.558 63.5351 117.988 63.7351C117.678 63.7451 117.368 63.7551 117.058 63.7551L116.998 63.7651Z" fill="white" stroke="black" stroke-width="2" stroke-linejoin="round"/>
</mask>
<g mask="url(#mask0_2146_79118)">
<path d="M2.98828 -47.5L-387.012 342.5" stroke="black" stroke-width="1.5"/>
<path d="M7.98828 -47.5L-382.012 342.5" stroke="black" stroke-width="1.5"/>
<path d="M12.9883 -47.5L-377.012 342.5" stroke="black" stroke-width="1.5"/>
<path d="M17.9883 -47.5L-372.012 342.5" stroke="black" stroke-width="1.5"/>
<path d="M22.9883 -47.5L-367.012 342.5" stroke="black" stroke-width="1.5"/>
<path d="M27.9883 -47.5L-362.012 342.5" stroke="black" stroke-width="1.5"/>
<path d="M32.9883 -47.5L-357.012 342.5" stroke="black" stroke-width="1.5"/>
<path d="M37.9883 -47.5L-352.012 342.5" stroke="black" stroke-width="1.5"/>
<path d="M42.9883 -47.5L-347.012 342.5" stroke="black" stroke-width="1.5"/>
<path d="M47.9883 -47.5L-342.012 342.5" stroke="black" stroke-width="1.5"/>
<path d="M52.9883 -47.5L-337.012 342.5" stroke="black" stroke-width="1.5"/>
<path d="M57.9883 -47.5L-332.012 342.5" stroke="black" stroke-width="1.5"/>
<path d="M62.9883 -47.5L-327.012 342.5" stroke="black" stroke-width="1.5"/>
<path d="M67.9883 -47.5L-322.012 342.5" stroke="black" stroke-width="1.5"/>
<path d="M72.9883 -47.5L-317.012 342.5" stroke="black" stroke-width="1.5"/>
<path d="M77.9883 -47.5L-312.012 342.5" stroke="black" stroke-width="1.5"/>
<path d="M82.9883 -47.5L-307.012 342.5" stroke="black" stroke-width="1.5"/>
<path d="M87.9883 -47.5L-302.012 342.5" stroke="black" stroke-width="1.5"/>
<path d="M92.9883 -47.5L-297.012 342.5" stroke="black" stroke-width="1.5"/>
<path d="M97.9883 -47.5L-292.012 342.5" stroke="black" stroke-width="1.5"/>
<path d="M102.988 -47.5L-287.012 342.5" stroke="black" stroke-width="1.5"/>
<path d="M107.988 -47.5L-282.012 342.5" stroke="black" stroke-width="1.5"/>
<path d="M112.988 -47.5L-277.012 342.5" stroke="black" stroke-width="1.5"/>
<path d="M117.988 -47.5L-272.012 342.5" stroke="black" stroke-width="1.5"/>
<path d="M122.988 -47.5L-267.012 342.5" stroke="black" stroke-width="1.5"/>
<path d="M127.988 -47.5L-262.012 342.5" stroke="black" stroke-width="1.5"/>
<path d="M132.988 -47.5L-257.012 342.5" stroke="black" stroke-width="1.5"/>
<path d="M137.988 -47.5L-252.012 342.5" stroke="black" stroke-width="1.5"/>
<path d="M142.988 -47.5L-247.012 342.5" stroke="black" stroke-width="1.5"/>
<path d="M147.988 -47.5L-242.012 342.5" stroke="black" stroke-width="1.5"/>
<path d="M152.988 -47.5L-237.012 342.5" stroke="black" stroke-width="1.5"/>
<path d="M157.988 -47.5L-232.012 342.5" stroke="black" stroke-width="1.5"/>
<path d="M162.988 -47.5L-227.012 342.5" stroke="black" stroke-width="1.5"/>
<path d="M167.988 -47.5L-222.012 342.5" stroke="black" stroke-width="1.5"/>
<path d="M172.988 -47.5L-217.012 342.5" stroke="black" stroke-width="1.5"/>
<path d="M177.988 -47.5L-212.012 342.5" stroke="black" stroke-width="1.5"/>
<path d="M182.988 -47.5L-207.012 342.5" stroke="black" stroke-width="1.5"/>
<path d="M187.988 -47.5L-202.012 342.5" stroke="black" stroke-width="1.5"/>
<path d="M192.988 -47.5L-197.012 342.5" stroke="black" stroke-width="1.5"/>
<path d="M197.988 -47.5L-192.012 342.5" stroke="black" stroke-width="1.5"/>
<path d="M202.988 -47.5L-187.012 342.5" stroke="black" stroke-width="1.5"/>
<path d="M207.988 -47.5L-182.012 342.5" stroke="black" stroke-width="1.5"/>
<path d="M212.988 -47.5L-177.012 342.5" stroke="black" stroke-width="1.5"/>
<path d="M217.988 -47.5L-172.012 342.5" stroke="black" stroke-width="1.5"/>
<path d="M222.988 -47.5L-167.012 342.5" stroke="black" stroke-width="1.5"/>
<path d="M227.988 -47.5L-162.012 342.5" stroke="black" stroke-width="1.5"/>
<path d="M232.988 -47.5L-157.012 342.5" stroke="black" stroke-width="1.5"/>
<path d="M237.988 -47.5L-152.012 342.5" stroke="black" stroke-width="1.5"/>
<path d="M242.988 -47.5L-147.012 342.5" stroke="black" stroke-width="1.5"/>
<path d="M247.988 -47.5L-142.012 342.5" stroke="black" stroke-width="1.5"/>
<path d="M252.988 -47.5L-137.012 342.5" stroke="black" stroke-width="1.5"/>
<path d="M257.988 -47.5L-132.012 342.5" stroke="black" stroke-width="1.5"/>
<path d="M262.988 -47.5L-127.012 342.5" stroke="black" stroke-width="1.5"/>
<path d="M267.988 -47.5L-122.012 342.5" stroke="black" stroke-width="1.5"/>
<path d="M272.988 -47.5L-117.012 342.5" stroke="black" stroke-width="1.5"/>
<path d="M277.988 -47.5L-112.012 342.5" stroke="black" stroke-width="1.5"/>
<path d="M282.988 -47.5L-107.012 342.5" stroke="black" stroke-width="1.5"/>
<path d="M287.988 -47.5L-102.012 342.5" stroke="black" stroke-width="1.5"/>
<path d="M292.988 -47.5L-97.0117 342.5" stroke="black" stroke-width="1.5"/>
<path d="M297.988 -47.5L-92.0117 342.5" stroke="black" stroke-width="1.5"/>
<path d="M302.988 -47.5L-87.0117 342.5" stroke="black" stroke-width="1.5"/>
<path d="M307.988 -47.5L-82.0117 342.5" stroke="black" stroke-width="1.5"/>
<path d="M312.988 -47.5L-77.0117 342.5" stroke="black" stroke-width="1.5"/>
<path d="M317.988 -47.5L-72.0117 342.5" stroke="black" stroke-width="1.5"/>
<path d="M322.988 -47.5L-67.0117 342.5" stroke="black" stroke-width="1.5"/>
<path d="M327.988 -47.5L-62.0117 342.5" stroke="black" stroke-width="1.5"/>
<path d="M332.988 -47.5L-57.0117 342.5" stroke="black" stroke-width="1.5"/>
<path d="M337.988 -47.5L-52.0117 342.5" stroke="black" stroke-width="1.5"/>
<path d="M342.988 -47.5L-47.0117 342.5" stroke="black" stroke-width="1.5"/>
<path d="M347.988 -47.5L-42.0117 342.5" stroke="black" stroke-width="1.5"/>
<path d="M352.988 -47.5L-37.0117 342.5" stroke="black" stroke-width="1.5"/>
<path d="M357.988 -47.5L-32.0117 342.5" stroke="black" stroke-width="1.5"/>
<path d="M362.988 -47.5L-27.0117 342.5" stroke="black" stroke-width="1.5"/>
<path d="M367.988 -47.5L-22.0117 342.5" stroke="black" stroke-width="1.5"/>
<path d="M372.988 -47.5L-17.0117 342.5" stroke="black" stroke-width="1.5"/>
<path d="M377.988 -47.5L-12.0117 342.5" stroke="black" stroke-width="1.5"/>
<path d="M382.988 -47.5L-7.01172 342.5" stroke="black" stroke-width="1.5"/>
<path d="M387.988 -47.5L-2.01172 342.5" stroke="black" stroke-width="1.5"/>
<path d="M392.988 -47.5L2.98828 342.5" stroke="black" stroke-width="1.5"/>
<path d="M397.988 -47.5L7.98828 342.5" stroke="black" stroke-width="1.5"/>
<path d="M402.988 -47.5L12.9883 342.5" stroke="black" stroke-width="1.5"/>
<path d="M407.988 -47.5L17.9883 342.5" stroke="black" stroke-width="1.5"/>
<path d="M412.988 -47.5L22.9883 342.5" stroke="black" stroke-width="1.5"/>
<path d="M417.988 -47.5L27.9883 342.5" stroke="black" stroke-width="1.5"/>
<path d="M422.988 -47.5L32.9883 342.5" stroke="black" stroke-width="1.5"/>
<path d="M427.988 -47.5L37.9883 342.5" stroke="black" stroke-width="1.5"/>
<path d="M432.988 -47.5L42.9883 342.5" stroke="black" stroke-width="1.5"/>
<path d="M437.988 -47.5L47.9883 342.5" stroke="black" stroke-width="1.5"/>
<path d="M442.988 -47.5L52.9883 342.5" stroke="black" stroke-width="1.5"/>
<path d="M447.988 -47.5L57.9883 342.5" stroke="black" stroke-width="1.5"/>
<path d="M452.988 -47.5L62.9883 342.5" stroke="black" stroke-width="1.5"/>
<path d="M457.988 -47.5L67.9883 342.5" stroke="black" stroke-width="1.5"/>
<path d="M462.988 -47.5L72.9883 342.5" stroke="black" stroke-width="1.5"/>
<path d="M467.988 -47.5L77.9883 342.5" stroke="black" stroke-width="1.5"/>
<path d="M472.988 -47.5L82.9883 342.5" stroke="black" stroke-width="1.5"/>
<path d="M477.988 -47.5L87.9883 342.5" stroke="black" stroke-width="1.5"/>
<path d="M482.988 -47.5L92.9883 342.5" stroke="black" stroke-width="1.5"/>
<path d="M487.988 -47.5L97.9883 342.5" stroke="black" stroke-width="1.5"/>
<path d="M492.988 -47.5L102.988 342.5" stroke="black" stroke-width="1.5"/>
<path d="M497.988 -47.5L107.988 342.5" stroke="black" stroke-width="1.5"/>
<path d="M502.988 -47.5L112.988 342.5" stroke="black" stroke-width="1.5"/>
<path d="M507.988 -47.5L117.988 342.5" stroke="black" stroke-width="1.5"/>
<path d="M512.988 -47.5L122.988 342.5" stroke="black" stroke-width="1.5"/>
<path d="M517.988 -47.5L127.988 342.5" stroke="black" stroke-width="1.5"/>
<path d="M522.988 -47.5L132.988 342.5" stroke="black" stroke-width="1.5"/>
<path d="M527.988 -47.5L137.988 342.5" stroke="black" stroke-width="1.5"/>
<path d="M532.988 -47.5L142.988 342.5" stroke="black" stroke-width="1.5"/>
<path d="M537.988 -47.5L147.988 342.5" stroke="black" stroke-width="1.5"/>
<path d="M542.988 -47.5L152.988 342.5" stroke="black" stroke-width="1.5"/>
<path d="M547.988 -47.5L157.988 342.5" stroke="black" stroke-width="1.5"/>
<path d="M552.988 -47.5L162.988 342.5" stroke="black" stroke-width="1.5"/>
</g>
</svg>
