<svg width="221" height="86" viewBox="0 0 221 86" fill="none" xmlns="http://www.w3.org/2000/svg">
<path d="M80.8308 81.7004C77.6008 81.7004 74.7008 79.4504 73.9908 76.1704L73.5608 74.1805L73.1308 76.1704C72.7408 77.9904 71.6508 79.5704 70.0908 80.5804C68.9508 81.3204 67.6308 81.7004 66.2908 81.7004C65.8008 81.7004 65.3108 81.6504 64.8208 81.5404L61.1908 80.7604C57.4108 79.9504 55.0008 76.2304 55.8208 72.4504L56.2508 70.4604L54.0908 73.4004C52.7208 75.2604 50.6008 76.2505 48.4508 76.2505C47.0108 76.2505 45.5608 75.8104 44.3108 74.8904L41.3208 72.6904C39.8208 71.5904 38.8308 69.9405 38.5508 68.1105C38.2708 66.2805 38.7308 64.4004 39.8308 62.9104L45.2708 55.5105C41.7908 53.1205 39.1508 50.8205 37.5608 49.3305L32.8608 61.2705C31.8108 63.9505 29.2208 65.7104 26.3508 65.7104H20.9108C18.0308 65.7104 15.4508 63.9505 14.4008 61.2705L1.84082 29.3904C0.990819 27.2404 1.26082 24.8004 2.57082 22.8904C3.88082 20.9804 6.04082 19.8304 8.36082 19.8304H13.4208C16.3308 19.8304 18.9408 21.6404 19.9708 24.3604L23.6208 34.0405L27.2908 24.3504C28.3208 21.6304 30.9308 19.8304 33.8408 19.8304H38.9008C39.0708 19.8304 39.2408 19.8304 39.4008 19.8504C37.6408 16.8004 38.4208 12.8604 41.3208 10.7204L44.3108 8.52045C45.5208 7.63045 46.9808 7.16045 48.4608 7.16045C48.8108 7.16045 49.1608 7.19045 49.5108 7.24045C51.3508 7.52045 52.9908 8.52045 54.0908 10.0104L56.2508 12.9504L55.8208 10.9604C55.4308 9.15045 55.7808 7.25045 56.7808 5.69045C57.7908 4.13045 59.3708 3.04045 61.1908 2.65045L64.8208 1.87045C65.3108 1.77045 65.8008 1.71045 66.2908 1.71045C67.6308 1.71045 68.9508 2.09045 70.0908 2.83045C71.6508 3.84045 72.7408 5.42045 73.1308 7.24045L73.5608 9.23045L73.9908 7.24045C74.3808 5.43045 75.4708 3.84045 77.0308 2.83045C78.1708 2.09045 79.4908 1.71045 80.8308 1.71045C81.3208 1.71045 81.8108 1.76045 82.3008 1.87045L85.9308 2.65045C89.7108 3.46045 92.1208 7.18045 91.3008 10.9604L90.8708 12.9504L93.0308 10.0104C94.4008 8.15045 96.5208 7.16045 98.6708 7.16045C100.111 7.16045 101.561 7.60045 102.811 8.52045L105.801 10.7204C106.131 10.9604 106.441 11.2404 106.721 11.5304C107.161 8.09045 110.101 5.43045 113.661 5.43045H118.461C122.331 5.43045 125.461 8.56045 125.461 12.4304V19.7904C127.251 19.3504 129.151 19.1304 131.131 19.1304C139.081 19.1304 145.841 22.9104 149.911 28.9204C154.261 22.9504 161.371 19.1304 169.571 19.1304C175.621 19.1304 181.221 21.2004 185.321 24.9604C185.871 25.4604 186.431 26.0304 186.991 26.6804C189.981 22.0804 195.351 19.1304 201.741 19.1304C209.921 19.1304 216.401 23.9204 218.261 31.3404C218.711 33.1504 218.421 35.0705 217.451 36.6705C216.871 37.6305 216.061 38.4305 215.121 39.0105C219.401 42.9405 220.001 47.7405 220.001 50.1305C220.001 59.4105 212.181 66.4104 201.801 66.4104C195.841 66.4104 190.631 64.2105 187.141 60.4705C182.601 64.3605 176.851 66.4104 170.331 66.4104C161.661 66.4104 154.301 62.6505 149.871 56.6705C145.801 62.6505 139.061 66.4104 131.131 66.4104C127.881 66.4104 124.861 65.8105 122.161 64.6505C121.091 65.3205 119.821 65.7104 118.461 65.7104H113.661C109.791 65.7104 106.661 62.5804 106.661 58.7104V51.8704C105.321 52.9804 103.701 54.2305 101.841 55.5005L107.281 62.9005C108.381 64.4005 108.841 66.2704 108.561 68.1004C108.281 69.9404 107.281 71.5805 105.791 72.6805L102.801 74.8804C101.551 75.8004 100.101 76.2404 98.6608 76.2404C96.5108 76.2404 94.3908 75.2504 93.0208 73.3904L90.8608 70.4504L91.2908 72.4404C91.6808 74.2604 91.3308 76.1504 90.3308 77.7104C89.3208 79.2704 87.7408 80.3605 85.9208 80.7505L82.2908 81.5304C81.7908 81.6404 81.3008 81.6904 80.8108 81.6904L80.8308 81.7004ZM101.871 27.9004C103.721 29.1704 105.341 30.4204 106.691 31.5304V21.3504L101.871 27.9004Z" fill="white" stroke="black" stroke-width="2" stroke-linejoin="round"/>
</svg>
