<svg width="196" height="73" viewBox="0 0 196 73" fill="none" xmlns="http://www.w3.org/2000/svg">
<path d="M172.844 68.5954C168.064 68.5954 163.454 67.4054 159.484 65.2354C158.174 66.7954 156.224 67.7354 154.124 67.7354H147.644C145.714 67.7354 143.884 66.9354 142.584 65.5654C138.734 67.5154 134.334 68.5954 129.694 68.5954C120.434 68.5954 112.564 64.4354 107.804 57.8154C103.224 64.3854 95.7341 68.5954 87.1241 68.5954C83.4941 68.5954 80.0441 67.8454 76.9341 66.4354C75.7841 67.2554 74.3841 67.7354 72.8741 67.7354H66.6841C64.8941 67.7354 63.2641 67.0654 62.0241 65.9654C60.7841 67.0654 59.1541 67.7354 57.3641 67.7354H51.1741C47.3041 67.7354 44.1741 64.6054 44.1741 60.7354V51.7154L38.9041 63.5754C37.7841 66.1054 35.2741 67.7354 32.5041 67.7354H26.0241C23.2441 67.7354 20.7341 66.0954 19.6141 63.5454L3.48415 26.8254C2.53415 24.6654 2.74415 22.1654 4.03414 20.1854C5.32414 18.2054 7.53415 17.0154 9.89415 17.0154H16.9541C19.7641 17.0154 22.2941 18.6954 23.3941 21.2754L29.4741 35.5754L29.7941 34.8254C31.4241 30.8454 31.9941 27.7354 31.5041 25.5554C31.0341 23.4754 31.5341 21.3054 32.8641 19.6354C34.1941 17.9754 36.2041 17.0054 38.3341 17.0054H43.8441C43.3541 15.7454 43.0941 14.3654 43.0941 12.9154C43.0941 6.68543 48.0041 1.81543 54.2741 1.81543C56.9541 1.81543 59.4241 2.77543 61.3441 4.36543C62.6241 2.85543 64.5441 1.89543 66.6841 1.89543H72.8741C76.7441 1.89543 79.8741 5.02543 79.8741 8.89543V17.2054C82.1741 16.5054 84.6041 16.1454 87.1341 16.1454C95.7841 16.1454 103.294 20.3854 107.874 26.9954C112.644 20.3754 120.474 16.1454 129.494 16.1454C140.644 16.1454 149.764 22.2754 153.794 31.4954L158.774 21.0054C159.934 18.5654 162.394 17.0054 165.094 17.0054H172.224C175.284 17.0054 177.984 18.9954 178.904 21.9054C179.574 24.0454 181.254 25.4754 184.154 27.8154C188.664 31.4554 194.854 36.4354 194.854 46.9754C194.854 59.7054 185.814 68.5954 172.874 68.5954H172.844Z" fill="white" stroke="black" stroke-width="2" stroke-linejoin="round"/>
<path fill-rule="evenodd" clip-rule="evenodd" d="M54.2643 17.0252C51.8843 17.0252 50.0843 15.2952 50.0843 12.9252C50.0843 10.5552 51.8843 8.8252 54.2643 8.8252C56.6443 8.8252 58.3643 10.6252 58.3643 12.9252C58.3643 15.2252 56.5643 17.0252 54.2643 17.0252ZM51.1643 60.7252L51.1643 24.0052H57.3543L57.3543 60.7252H51.1643ZM66.6743 8.8852V60.7252H72.8643V54.1052C75.9643 58.7152 81.0043 61.5952 87.1243 61.5952C97.6343 61.5952 105.554 53.3152 105.554 42.3752C105.554 31.4352 97.6343 23.1552 87.1243 23.1552C81.0043 23.1552 75.9643 26.0352 72.8643 30.6452V8.8852L66.6743 8.8852ZM99.1443 42.3652C99.1443 49.9252 93.5243 55.6152 85.9643 55.6152C78.4043 55.6152 72.8643 49.9252 72.8643 42.3652C72.8643 34.8052 78.4843 29.1152 85.9643 29.1152C93.4443 29.1152 99.1443 34.8052 99.1443 42.3652ZM129.684 61.5952C118.384 61.5952 109.954 53.3152 109.954 42.3752C109.954 31.4352 118.374 23.1552 129.464 23.1552C140.554 23.1552 148.974 31.4352 148.974 42.3752C148.974 43.0952 148.904 44.2452 148.834 44.9652H116.574C117.654 51.4452 122.834 55.9052 129.754 55.9052C134.864 55.9052 139.334 53.4552 141.414 49.7852H148.324C145.444 56.8452 138.314 61.5952 129.674 61.5952H129.684ZM129.474 28.8352C122.924 28.8352 117.884 33.1552 116.654 39.4152L142.354 39.4152C141.204 33.1552 136.024 28.8352 129.464 28.8352H129.474ZM172.844 61.5952C166.294 61.5952 160.534 58.7152 157.144 54.2552L154.124 60.7352H147.644L165.064 24.0152H172.194C173.534 28.2852 176.644 30.7852 179.734 33.2752C183.794 36.5452 187.824 39.7952 187.824 46.9852C187.824 55.6952 182.064 61.6052 172.844 61.6052V61.5952ZM181.414 46.9052C181.414 42.6152 178.564 40.2752 175.364 37.6452C172.924 35.6352 170.274 33.4652 168.534 30.1352L159.604 49.1452C161.904 53.0352 166.664 55.6252 171.774 55.6252C177.464 55.6252 181.424 52.2452 181.424 46.9152L181.414 46.9052ZM9.89428 24.0052L26.0243 60.7252L32.5043 60.7252L42.2243 38.8352C44.7443 33.0052 45.5343 28.1052 44.6743 24.0052H38.3343C39.1943 27.8252 38.4043 32.2852 36.2443 37.5452L29.4043 53.3152L16.9443 24.0152H9.88428L9.89428 24.0052Z" fill="black"/>
</svg>
