<svg width="197" height="66" viewBox="0 0 197 66" fill="none" xmlns="http://www.w3.org/2000/svg">
<mask id="mask0_2146_79130" style="mask-type:alpha" maskUnits="userSpaceOnUse" x="0" y="5" width="193" height="60">
<path d="M168.549 64.7056C160.029 64.7056 152.509 60.3156 148.149 53.6756C142.639 60.4256 134.339 64.5056 125.379 64.5056C116.419 64.5056 108.709 60.6256 103.329 54.4756C99.7988 60.5056 93.2588 64.5656 85.7988 64.5656H64.6787C63.4287 64.5656 62.2587 64.2356 61.2487 63.6656C60.2587 64.1956 59.1287 64.4956 57.9387 64.4956H48.4688C44.5988 64.4956 41.4688 61.3656 41.4688 57.4956V51.1656L39.9387 56.8656C39.9087 56.9656 39.8787 57.0656 39.8487 57.1656C38.6987 60.8156 35.6888 63.5556 31.9888 64.3356C31.5188 64.4356 31.0287 64.4856 30.5487 64.4856H17.2987C14.0387 64.4856 11.2087 62.2356 10.4787 59.0556L0.17875 14.3556C-0.30125 12.2756 0.19875 10.0956 1.51875 8.42557C2.84875 6.75557 4.86875 5.77557 6.99875 5.77557L16.7288 5.77557C19.9888 5.77557 22.8087 8.02557 23.5487 11.1956L26.7688 25.1256L30.5688 10.9556C31.3888 7.89557 34.1588 5.77557 37.3288 5.77557L44.4987 5.77557C45.1387 5.77557 45.7687 5.86557 46.3687 6.02557C47.0287 5.81557 47.7287 5.70557 48.4587 5.70557L57.9287 5.70557C59.1987 5.70557 60.3887 6.04557 61.4187 6.63557C62.3887 6.12557 63.4987 5.83557 64.6787 5.83557L86.8887 5.83557C87.0887 5.83557 87.2788 5.83557 87.4788 5.85557C94.3188 6.43557 100.079 10.2556 103.319 15.7556C108.699 9.59557 116.599 5.70557 125.389 5.70557C134.179 5.70557 142.839 9.96557 148.229 16.6156C152.609 10.0456 160.089 5.70557 168.559 5.70557C182.019 5.70557 192.969 16.6556 192.969 30.1156C192.969 31.9156 192.289 33.5456 191.179 34.7856C192.299 36.0456 192.969 37.6956 192.969 39.4556V40.2856C192.969 53.7456 182.019 64.6956 168.559 64.6956L168.549 64.7056Z" fill="black"/>
</mask>
<g mask="url(#mask0_2146_79130)">
<path d="M1.98828 -51.5L-388.012 338.5" stroke="black" stroke-width="1.5"/>
<path d="M6.98828 -51.5L-383.012 338.5" stroke="black" stroke-width="1.5"/>
<path d="M11.9883 -51.5L-378.012 338.5" stroke="black" stroke-width="1.5"/>
<path d="M16.9883 -51.5L-373.012 338.5" stroke="black" stroke-width="1.5"/>
<path d="M21.9883 -51.5L-368.012 338.5" stroke="black" stroke-width="1.5"/>
<path d="M26.9883 -51.5L-363.012 338.5" stroke="black" stroke-width="1.5"/>
<path d="M31.9883 -51.5L-358.012 338.5" stroke="black" stroke-width="1.5"/>
<path d="M36.9883 -51.5L-353.012 338.5" stroke="black" stroke-width="1.5"/>
<path d="M41.9883 -51.5L-348.012 338.5" stroke="black" stroke-width="1.5"/>
<path d="M46.9883 -51.5L-343.012 338.5" stroke="black" stroke-width="1.5"/>
<path d="M51.9883 -51.5L-338.012 338.5" stroke="black" stroke-width="1.5"/>
<path d="M56.9883 -51.5L-333.012 338.5" stroke="black" stroke-width="1.5"/>
<path d="M61.9883 -51.5L-328.012 338.5" stroke="black" stroke-width="1.5"/>
<path d="M66.9883 -51.5L-323.012 338.5" stroke="black" stroke-width="1.5"/>
<path d="M71.9883 -51.5L-318.012 338.5" stroke="black" stroke-width="1.5"/>
<path d="M76.9883 -51.5L-313.012 338.5" stroke="black" stroke-width="1.5"/>
<path d="M81.9883 -51.5L-308.012 338.5" stroke="black" stroke-width="1.5"/>
<path d="M86.9883 -51.5L-303.012 338.5" stroke="black" stroke-width="1.5"/>
<path d="M91.9883 -51.5L-298.012 338.5" stroke="black" stroke-width="1.5"/>
<path d="M96.9883 -51.5L-293.012 338.5" stroke="black" stroke-width="1.5"/>
<path d="M101.988 -51.5L-288.012 338.5" stroke="black" stroke-width="1.5"/>
<path d="M106.988 -51.5L-283.012 338.5" stroke="black" stroke-width="1.5"/>
<path d="M111.988 -51.5L-278.012 338.5" stroke="black" stroke-width="1.5"/>
<path d="M116.988 -51.5L-273.012 338.5" stroke="black" stroke-width="1.5"/>
<path d="M121.988 -51.5L-268.012 338.5" stroke="black" stroke-width="1.5"/>
<path d="M126.988 -51.5L-263.012 338.5" stroke="black" stroke-width="1.5"/>
<path d="M131.988 -51.5L-258.012 338.5" stroke="black" stroke-width="1.5"/>
<path d="M136.988 -51.5L-253.012 338.5" stroke="black" stroke-width="1.5"/>
<path d="M141.988 -51.5L-248.012 338.5" stroke="black" stroke-width="1.5"/>
<path d="M146.988 -51.5L-243.012 338.5" stroke="black" stroke-width="1.5"/>
<path d="M151.988 -51.5L-238.012 338.5" stroke="black" stroke-width="1.5"/>
<path d="M156.988 -51.5L-233.012 338.5" stroke="black" stroke-width="1.5"/>
<path d="M161.988 -51.5L-228.012 338.5" stroke="black" stroke-width="1.5"/>
<path d="M166.988 -51.5L-223.012 338.5" stroke="black" stroke-width="1.5"/>
<path d="M171.988 -51.5L-218.012 338.5" stroke="black" stroke-width="1.5"/>
<path d="M176.988 -51.5L-213.012 338.5" stroke="black" stroke-width="1.5"/>
<path d="M181.988 -51.5L-208.012 338.5" stroke="black" stroke-width="1.5"/>
<path d="M186.988 -51.5L-203.012 338.5" stroke="black" stroke-width="1.5"/>
<path d="M191.988 -51.5L-198.012 338.5" stroke="black" stroke-width="1.5"/>
<path d="M196.988 -51.5L-193.012 338.5" stroke="black" stroke-width="1.5"/>
<path d="M201.988 -51.5L-188.012 338.5" stroke="black" stroke-width="1.5"/>
<path d="M206.988 -51.5L-183.012 338.5" stroke="black" stroke-width="1.5"/>
<path d="M211.988 -51.5L-178.012 338.5" stroke="black" stroke-width="1.5"/>
<path d="M216.988 -51.5L-173.012 338.5" stroke="black" stroke-width="1.5"/>
<path d="M221.988 -51.5L-168.012 338.5" stroke="black" stroke-width="1.5"/>
<path d="M226.988 -51.5L-163.012 338.5" stroke="black" stroke-width="1.5"/>
<path d="M231.988 -51.5L-158.012 338.5" stroke="black" stroke-width="1.5"/>
<path d="M236.988 -51.5L-153.012 338.5" stroke="black" stroke-width="1.5"/>
<path d="M241.988 -51.5L-148.012 338.5" stroke="black" stroke-width="1.5"/>
<path d="M246.988 -51.5L-143.012 338.5" stroke="black" stroke-width="1.5"/>
<path d="M251.988 -51.5L-138.012 338.5" stroke="black" stroke-width="1.5"/>
<path d="M256.988 -51.5L-133.012 338.5" stroke="black" stroke-width="1.5"/>
<path d="M261.988 -51.5L-128.012 338.5" stroke="black" stroke-width="1.5"/>
<path d="M266.988 -51.5L-123.012 338.5" stroke="black" stroke-width="1.5"/>
<path d="M271.988 -51.5L-118.012 338.5" stroke="black" stroke-width="1.5"/>
<path d="M276.988 -51.5L-113.012 338.5" stroke="black" stroke-width="1.5"/>
<path d="M281.988 -51.5L-108.012 338.5" stroke="black" stroke-width="1.5"/>
<path d="M286.988 -51.5L-103.012 338.5" stroke="black" stroke-width="1.5"/>
<path d="M291.988 -51.5L-98.0117 338.5" stroke="black" stroke-width="1.5"/>
<path d="M296.988 -51.5L-93.0117 338.5" stroke="black" stroke-width="1.5"/>
<path d="M301.988 -51.5L-88.0117 338.5" stroke="black" stroke-width="1.5"/>
<path d="M306.988 -51.5L-83.0117 338.5" stroke="black" stroke-width="1.5"/>
<path d="M311.988 -51.5L-78.0117 338.5" stroke="black" stroke-width="1.5"/>
<path d="M316.988 -51.5L-73.0117 338.5" stroke="black" stroke-width="1.5"/>
<path d="M321.988 -51.5L-68.0117 338.5" stroke="black" stroke-width="1.5"/>
<path d="M326.988 -51.5L-63.0117 338.5" stroke="black" stroke-width="1.5"/>
<path d="M331.988 -51.5L-58.0117 338.5" stroke="black" stroke-width="1.5"/>
<path d="M336.988 -51.5L-53.0117 338.5" stroke="black" stroke-width="1.5"/>
<path d="M341.988 -51.5L-48.0117 338.5" stroke="black" stroke-width="1.5"/>
<path d="M346.988 -51.5L-43.0117 338.5" stroke="black" stroke-width="1.5"/>
<path d="M351.988 -51.5L-38.0117 338.5" stroke="black" stroke-width="1.5"/>
<path d="M356.988 -51.5L-33.0117 338.5" stroke="black" stroke-width="1.5"/>
<path d="M361.988 -51.5L-28.0117 338.5" stroke="black" stroke-width="1.5"/>
<path d="M366.988 -51.5L-23.0117 338.5" stroke="black" stroke-width="1.5"/>
<path d="M371.988 -51.5L-18.0117 338.5" stroke="black" stroke-width="1.5"/>
<path d="M376.988 -51.5L-13.0117 338.5" stroke="black" stroke-width="1.5"/>
<path d="M381.988 -51.5L-8.01172 338.5" stroke="black" stroke-width="1.5"/>
<path d="M386.988 -51.5L-3.01172 338.5" stroke="black" stroke-width="1.5"/>
<path d="M391.988 -51.5L1.98828 338.5" stroke="black" stroke-width="1.5"/>
<path d="M396.988 -51.5L6.98828 338.5" stroke="black" stroke-width="1.5"/>
<path d="M401.988 -51.5L11.9883 338.5" stroke="black" stroke-width="1.5"/>
<path d="M406.988 -51.5L16.9883 338.5" stroke="black" stroke-width="1.5"/>
<path d="M411.988 -51.5L21.9883 338.5" stroke="black" stroke-width="1.5"/>
<path d="M416.988 -51.5L26.9883 338.5" stroke="black" stroke-width="1.5"/>
<path d="M421.988 -51.5L31.9883 338.5" stroke="black" stroke-width="1.5"/>
<path d="M426.988 -51.5L36.9883 338.5" stroke="black" stroke-width="1.5"/>
<path d="M431.988 -51.5L41.9883 338.5" stroke="black" stroke-width="1.5"/>
<path d="M436.988 -51.5L46.9883 338.5" stroke="black" stroke-width="1.5"/>
<path d="M441.988 -51.5L51.9883 338.5" stroke="black" stroke-width="1.5"/>
<path d="M446.988 -51.5L56.9883 338.5" stroke="black" stroke-width="1.5"/>
<path d="M451.988 -51.5L61.9883 338.5" stroke="black" stroke-width="1.5"/>
<path d="M456.988 -51.5L66.9883 338.5" stroke="black" stroke-width="1.5"/>
<path d="M461.988 -51.5L71.9883 338.5" stroke="black" stroke-width="1.5"/>
<path d="M466.988 -51.5L76.9883 338.5" stroke="black" stroke-width="1.5"/>
<path d="M471.988 -51.5L81.9883 338.5" stroke="black" stroke-width="1.5"/>
<path d="M476.988 -51.5L86.9883 338.5" stroke="black" stroke-width="1.5"/>
<path d="M481.988 -51.5L91.9883 338.5" stroke="black" stroke-width="1.5"/>
<path d="M486.988 -51.5L96.9883 338.5" stroke="black" stroke-width="1.5"/>
<path d="M491.988 -51.5L101.988 338.5" stroke="black" stroke-width="1.5"/>
<path d="M496.988 -51.5L106.988 338.5" stroke="black" stroke-width="1.5"/>
<path d="M501.988 -51.5L111.988 338.5" stroke="black" stroke-width="1.5"/>
<path d="M506.988 -51.5L116.988 338.5" stroke="black" stroke-width="1.5"/>
<path d="M511.988 -51.5L121.988 338.5" stroke="black" stroke-width="1.5"/>
<path d="M516.988 -51.5L126.988 338.5" stroke="black" stroke-width="1.5"/>
<path d="M521.988 -51.5L131.988 338.5" stroke="black" stroke-width="1.5"/>
<path d="M526.988 -51.5L136.988 338.5" stroke="black" stroke-width="1.5"/>
<path d="M531.988 -51.5L141.988 338.5" stroke="black" stroke-width="1.5"/>
<path d="M536.988 -51.5L146.988 338.5" stroke="black" stroke-width="1.5"/>
<path d="M541.988 -51.5L151.988 338.5" stroke="black" stroke-width="1.5"/>
<path d="M546.988 -51.5L156.988 338.5" stroke="black" stroke-width="1.5"/>
<path d="M551.988 -51.5L161.988 338.5" stroke="black" stroke-width="1.5"/>
<path d="M556.988 -51.5L166.988 338.5" stroke="black" stroke-width="1.5"/>
<path d="M561.988 -51.5L171.988 338.5" stroke="black" stroke-width="1.5"/>
<path d="M566.988 -51.5L176.988 338.5" stroke="black" stroke-width="1.5"/>
<path d="M571.988 -51.5L181.988 338.5" stroke="black" stroke-width="1.5"/>
<path d="M576.988 -51.5L186.988 338.5" stroke="black" stroke-width="1.5"/>
<path d="M581.988 -51.5L191.988 338.5" stroke="black" stroke-width="1.5"/>
</g>
</svg>
