<svg width="161" height="103" viewBox="0 0 161 103" fill="none" xmlns="http://www.w3.org/2000/svg">
<mask id="mask0_2146_79094" style="mask-type:alpha" maskUnits="userSpaceOnUse" x="0" y="5" width="158" height="98">
<path d="M29.85 102.701C22.13 102.701 16.08 96.0407 16.08 87.5407C16.08 87.4407 16.08 87.3307 16.08 87.2307C16.13 84.0907 16.98 80.0407 18.46 75.0007C17.58 75.1807 16.68 75.2707 15.76 75.2707C6.33 75.2707 0 67.6707 0 56.3607C0 45.4307 3.55 33.1907 9.51 23.6207C16.58 12.2707 25.89 6.03068 35.75 6.03068C45 6.03068 51.97 12.1007 54.84 19.3807C59.74 10.5607 65.29 5.95068 73.02 5.95068C79.5 5.95068 83.5 9.31068 84.85 13.3007C85.35 12.1107 85.77 11.0907 86.07 10.2907C86.97 7.93068 89.07 6.24068 91.57 5.86068C92.64 5.70068 93.59 5.70068 94.28 5.70068C105.72 5.70068 106.3 13.2307 106.3 14.7407C106.3 16.9307 105.5 18.6907 104.04 21.8707C103.7 22.6207 103.32 23.4407 102.91 24.3707C101.5 27.5107 100.16 30.5207 98.88 33.3807C101.14 34.2807 103.11 35.8707 104.55 37.8907C108.05 34.2607 112.32 32.3907 117.23 32.3907C122.41 32.3907 126.71 34.3707 129.46 37.7007C133.49 27.7507 137.35 21.0507 145.34 21.0507C151.32 21.0507 156.09 25.6607 157.81 33.0807C158.56 36.3007 156.95 39.6007 153.96 41.0007L153.57 41.1907C151.66 42.0807 146.86 44.3307 145.39 45.9207C145.52 46.9207 145.84 48.6007 146.09 49.9107C146.87 54.0007 147.93 59.5707 147.88 64.9307C147.88 79.0207 140.48 88.9207 129.89 88.9207C125.66 88.9207 122.26 87.7207 119.72 85.8407C116.4 87.8907 112.96 88.9207 109.43 88.9207C102.63 88.9207 96.92 85.9307 93.77 81.2707C93.61 81.2907 93.45 81.3107 93.29 81.3307C89.16 86.3207 84.72 88.8407 80.05 88.8407C76.08 88.8407 72.61 87.7207 69.91 85.7007C67.57 87.5307 64.74 88.9207 61.57 88.9207C57.18 88.9207 53.21 86.8007 50.83 83.6407C44.45 96.2507 38.32 102.711 29.87 102.711L29.85 102.701Z" fill="black"/>
</mask>
<g mask="url(#mask0_2146_79094)">
<path d="M1.98828 -51L-388.012 339" stroke="black" stroke-width="1.5"/>
<path d="M6.98828 -51L-383.012 339" stroke="black" stroke-width="1.5"/>
<path d="M11.9883 -51L-378.012 339" stroke="black" stroke-width="1.5"/>
<path d="M16.9883 -51L-373.012 339" stroke="black" stroke-width="1.5"/>
<path d="M21.9883 -51L-368.012 339" stroke="black" stroke-width="1.5"/>
<path d="M26.9883 -51L-363.012 339" stroke="black" stroke-width="1.5"/>
<path d="M31.9883 -51L-358.012 339" stroke="black" stroke-width="1.5"/>
<path d="M36.9883 -51L-353.012 339" stroke="black" stroke-width="1.5"/>
<path d="M41.9883 -51L-348.012 339" stroke="black" stroke-width="1.5"/>
<path d="M46.9883 -51L-343.012 339" stroke="black" stroke-width="1.5"/>
<path d="M51.9883 -51L-338.012 339" stroke="black" stroke-width="1.5"/>
<path d="M56.9883 -51L-333.012 339" stroke="black" stroke-width="1.5"/>
<path d="M61.9883 -51L-328.012 339" stroke="black" stroke-width="1.5"/>
<path d="M66.9883 -51L-323.012 339" stroke="black" stroke-width="1.5"/>
<path d="M71.9883 -51L-318.012 339" stroke="black" stroke-width="1.5"/>
<path d="M76.9883 -51L-313.012 339" stroke="black" stroke-width="1.5"/>
<path d="M81.9883 -51L-308.012 339" stroke="black" stroke-width="1.5"/>
<path d="M86.9883 -51L-303.012 339" stroke="black" stroke-width="1.5"/>
<path d="M91.9883 -51L-298.012 339" stroke="black" stroke-width="1.5"/>
<path d="M96.9883 -51L-293.012 339" stroke="black" stroke-width="1.5"/>
<path d="M101.988 -51L-288.012 339" stroke="black" stroke-width="1.5"/>
<path d="M106.988 -51L-283.012 339" stroke="black" stroke-width="1.5"/>
<path d="M111.988 -51L-278.012 339" stroke="black" stroke-width="1.5"/>
<path d="M116.988 -51L-273.012 339" stroke="black" stroke-width="1.5"/>
<path d="M121.988 -51L-268.012 339" stroke="black" stroke-width="1.5"/>
<path d="M126.988 -51L-263.012 339" stroke="black" stroke-width="1.5"/>
<path d="M131.988 -51L-258.012 339" stroke="black" stroke-width="1.5"/>
<path d="M136.988 -51L-253.012 339" stroke="black" stroke-width="1.5"/>
<path d="M141.988 -51L-248.012 339" stroke="black" stroke-width="1.5"/>
<path d="M146.988 -51L-243.012 339" stroke="black" stroke-width="1.5"/>
<path d="M151.988 -51L-238.012 339" stroke="black" stroke-width="1.5"/>
<path d="M156.988 -51L-233.012 339" stroke="black" stroke-width="1.5"/>
<path d="M161.988 -51L-228.012 339" stroke="black" stroke-width="1.5"/>
<path d="M166.988 -51L-223.012 339" stroke="black" stroke-width="1.5"/>
<path d="M171.988 -51L-218.012 339" stroke="black" stroke-width="1.5"/>
<path d="M176.988 -51L-213.012 339" stroke="black" stroke-width="1.5"/>
<path d="M181.988 -51L-208.012 339" stroke="black" stroke-width="1.5"/>
<path d="M186.988 -51L-203.012 339" stroke="black" stroke-width="1.5"/>
<path d="M191.988 -51L-198.012 339" stroke="black" stroke-width="1.5"/>
<path d="M196.988 -51L-193.012 339" stroke="black" stroke-width="1.5"/>
<path d="M201.988 -51L-188.012 339" stroke="black" stroke-width="1.5"/>
<path d="M206.988 -51L-183.012 339" stroke="black" stroke-width="1.5"/>
<path d="M211.988 -51L-178.012 339" stroke="black" stroke-width="1.5"/>
<path d="M216.988 -51L-173.012 339" stroke="black" stroke-width="1.5"/>
<path d="M221.988 -51L-168.012 339" stroke="black" stroke-width="1.5"/>
<path d="M226.988 -51L-163.012 339" stroke="black" stroke-width="1.5"/>
<path d="M231.988 -51L-158.012 339" stroke="black" stroke-width="1.5"/>
<path d="M236.988 -51L-153.012 339" stroke="black" stroke-width="1.5"/>
<path d="M241.988 -51L-148.012 339" stroke="black" stroke-width="1.5"/>
<path d="M246.988 -51L-143.012 339" stroke="black" stroke-width="1.5"/>
<path d="M251.988 -51L-138.012 339" stroke="black" stroke-width="1.5"/>
<path d="M256.988 -51L-133.012 339" stroke="black" stroke-width="1.5"/>
<path d="M261.988 -51L-128.012 339" stroke="black" stroke-width="1.5"/>
<path d="M266.988 -51L-123.012 339" stroke="black" stroke-width="1.5"/>
<path d="M271.988 -51L-118.012 339" stroke="black" stroke-width="1.5"/>
<path d="M276.988 -51L-113.012 339" stroke="black" stroke-width="1.5"/>
<path d="M281.988 -51L-108.012 339" stroke="black" stroke-width="1.5"/>
<path d="M286.988 -51L-103.012 339" stroke="black" stroke-width="1.5"/>
<path d="M291.988 -51L-98.0117 339" stroke="black" stroke-width="1.5"/>
<path d="M296.988 -51L-93.0117 339" stroke="black" stroke-width="1.5"/>
<path d="M301.988 -51L-88.0117 339" stroke="black" stroke-width="1.5"/>
<path d="M306.988 -51L-83.0117 339" stroke="black" stroke-width="1.5"/>
<path d="M311.988 -51L-78.0117 339" stroke="black" stroke-width="1.5"/>
<path d="M316.988 -51L-73.0117 339" stroke="black" stroke-width="1.5"/>
<path d="M321.988 -51L-68.0117 339" stroke="black" stroke-width="1.5"/>
<path d="M326.988 -51L-63.0117 339" stroke="black" stroke-width="1.5"/>
<path d="M331.988 -51L-58.0117 339" stroke="black" stroke-width="1.5"/>
<path d="M336.988 -51L-53.0117 339" stroke="black" stroke-width="1.5"/>
<path d="M341.988 -51L-48.0117 339" stroke="black" stroke-width="1.5"/>
<path d="M346.988 -51L-43.0117 339" stroke="black" stroke-width="1.5"/>
<path d="M351.988 -51L-38.0117 339" stroke="black" stroke-width="1.5"/>
<path d="M356.988 -51L-33.0117 339" stroke="black" stroke-width="1.5"/>
<path d="M361.988 -51L-28.0117 339" stroke="black" stroke-width="1.5"/>
<path d="M366.988 -51L-23.0117 339" stroke="black" stroke-width="1.5"/>
<path d="M371.988 -51L-18.0117 339" stroke="black" stroke-width="1.5"/>
<path d="M376.988 -51L-13.0117 339" stroke="black" stroke-width="1.5"/>
<path d="M381.988 -51L-8.01172 339" stroke="black" stroke-width="1.5"/>
<path d="M386.988 -51L-3.01172 339" stroke="black" stroke-width="1.5"/>
<path d="M391.988 -51L1.98828 339" stroke="black" stroke-width="1.5"/>
<path d="M396.988 -51L6.98828 339" stroke="black" stroke-width="1.5"/>
<path d="M401.988 -51L11.9883 339" stroke="black" stroke-width="1.5"/>
<path d="M406.988 -51L16.9883 339" stroke="black" stroke-width="1.5"/>
<path d="M411.988 -51L21.9883 339" stroke="black" stroke-width="1.5"/>
<path d="M416.988 -51L26.9883 339" stroke="black" stroke-width="1.5"/>
<path d="M421.988 -51L31.9883 339" stroke="black" stroke-width="1.5"/>
<path d="M426.988 -51L36.9883 339" stroke="black" stroke-width="1.5"/>
<path d="M431.988 -51L41.9883 339" stroke="black" stroke-width="1.5"/>
<path d="M436.988 -51L46.9883 339" stroke="black" stroke-width="1.5"/>
<path d="M441.988 -51L51.9883 339" stroke="black" stroke-width="1.5"/>
<path d="M446.988 -51L56.9883 339" stroke="black" stroke-width="1.5"/>
<path d="M451.988 -51L61.9883 339" stroke="black" stroke-width="1.5"/>
<path d="M456.988 -51L66.9883 339" stroke="black" stroke-width="1.5"/>
<path d="M461.988 -51L71.9883 339" stroke="black" stroke-width="1.5"/>
<path d="M466.988 -51L76.9883 339" stroke="black" stroke-width="1.5"/>
<path d="M471.988 -51L81.9883 339" stroke="black" stroke-width="1.5"/>
<path d="M476.988 -51L86.9883 339" stroke="black" stroke-width="1.5"/>
<path d="M481.988 -51L91.9883 339" stroke="black" stroke-width="1.5"/>
<path d="M486.988 -51L96.9883 339" stroke="black" stroke-width="1.5"/>
<path d="M491.988 -51L101.988 339" stroke="black" stroke-width="1.5"/>
<path d="M496.988 -51L106.988 339" stroke="black" stroke-width="1.5"/>
<path d="M501.988 -51L111.988 339" stroke="black" stroke-width="1.5"/>
<path d="M506.988 -51L116.988 339" stroke="black" stroke-width="1.5"/>
<path d="M511.988 -51L121.988 339" stroke="black" stroke-width="1.5"/>
<path d="M516.988 -51L126.988 339" stroke="black" stroke-width="1.5"/>
<path d="M521.988 -51L131.988 339" stroke="black" stroke-width="1.5"/>
<path d="M526.988 -51L136.988 339" stroke="black" stroke-width="1.5"/>
<path d="M531.988 -51L141.988 339" stroke="black" stroke-width="1.5"/>
<path d="M536.988 -51L146.988 339" stroke="black" stroke-width="1.5"/>
<path d="M541.988 -51L151.988 339" stroke="black" stroke-width="1.5"/>
<path d="M546.988 -51L156.988 339" stroke="black" stroke-width="1.5"/>
</g>
</svg>
