<svg width="212" height="68" viewBox="0 0 212 68" fill="none" xmlns="http://www.w3.org/2000/svg">
<path d="M10.9688 1.87207C9.02465 1.87207 7.1681 2.68058 5.84384 4.10393C4.51958 5.52728 3.84691 7.43725 3.98695 9.37631L4.99806 23.3763C5.04818 24.0702 5.19825 24.7343 5.43358 25.3552C5.30566 25.9791 5.26232 26.6231 5.30955 27.2704L7.40955 56.0482C7.67653 59.7068 10.7227 62.5387 14.391 62.5387H35.391C37.9531 62.5387 40.2889 61.1418 41.5125 58.9342C41.7282 59.3231 41.9823 59.6936 42.273 60.0399C43.6031 61.624 45.5656 62.5387 47.6339 62.5387H61.6339C62.0619 62.5387 62.4821 62.5 62.8908 62.4257C63.3011 62.5003 63.7204 62.5387 64.1442 62.5387H97.5886C100.623 62.5387 103.461 61.8426 106.054 60.5538C107.354 61.8201 109.104 62.5387 110.938 62.5387H149.826C150.253 62.5387 150.672 62.5002 151.08 62.4262C151.49 62.5005 151.908 62.5387 152.33 62.5387H184.219C189.034 62.5387 193.353 60.7868 196.983 57.6958C200.658 54.6109 203.121 50.6239 203.948 45.8578L203.951 45.8392L205.189 38.8751C205.193 38.8503 205.198 38.8254 205.202 38.8006C205.368 37.8033 205.453 36.7962 205.453 35.7832C205.453 33.425 205.004 31.164 204.084 29.0878C205.965 28.1119 207.364 26.3021 207.756 24.0973L210.245 10.0973C210.607 8.0584 210.048 5.96365 208.718 4.37633C207.388 2.78901 205.424 1.87207 203.353 1.87207H171.464C168.419 1.87207 165.569 2.57256 162.959 3.86143C161.658 2.59242 159.906 1.87207 158.071 1.87207H119.182C117.216 1.87207 115.415 2.68873 114.131 4.0253C111.628 2.56564 108.8 1.87207 105.833 1.87207H72.3886C71.9607 1.87207 71.5405 1.91078 71.1317 1.98514C70.7214 1.91046 70.3021 1.87207 69.8784 1.87207H55.8784C55.7817 1.87207 55.6854 1.87405 55.5896 1.87796C55.494 1.87404 55.3982 1.87207 55.3021 1.87207H41.3021C38.5002 1.87207 35.9682 3.54286 34.8662 6.11895L32.2328 12.2751L31.9506 8.36783C31.6862 4.70702 28.6391 1.87207 24.9688 1.87207H10.9688Z" fill="white" stroke="black" stroke-width="2" stroke-linejoin="round"/>
</svg>
