<svg width="230" height="78" viewBox="0 0 230 78" fill="none" xmlns="http://www.w3.org/2000/svg">
<mask id="mask0_2146_79133" style="mask-type:alpha" maskUnits="userSpaceOnUse" x="0" y="6" width="227" height="72">
<path fill-rule="evenodd" clip-rule="evenodd" d="M85.099 39.6857L69.0233 69.669L67.6174 72.2801C66.3289 74.8359 64.0824 75.9966 62.9018 76.4738C61.4614 77.0559 59.9486 77.3032 58.5822 77.3222C57.2543 77.3406 55.5261 77.1503 53.8193 76.3655C52.0587 75.5559 49.6593 73.7387 48.9454 70.4071L48.9391 70.3778L43.5318 44.0481C42.4414 49.0055 38.9406 52.3099 35.383 54.2157C31.718 56.1791 27.4002 57.0404 23.31 57.0404C12.5171 57.0404 0 49.2602 0 35.2004C0 25.4734 5.44953 18.0629 12.3481 13.3728C19.1621 8.74014 27.8498 6.36035 36.12 6.36035C38.1019 6.36035 40.2233 6.56638 42.1794 6.75636C42.243 6.76254 42.3065 6.7687 42.3698 6.77484C45.0299 7.03292 47.8636 7.30516 51.2437 7.34074L51.3557 7.34192L51.4676 7.34668C54.4307 7.47277 57.5489 7.40942 60.8354 7.0401C62.5852 6.82556 65.9673 6.99172 68.2762 10.0703C69.2359 11.3499 69.6462 12.6829 69.7863 13.8532L69.8778 13.5394C70.1963 12.2486 70.922 10.3832 72.7029 8.88952C74.6816 7.22999 76.8916 6.92035 78.33 6.92035H78.7658L79.1982 6.9744C82.5015 7.38731 90.4952 7.40236 94.6717 6.95939L95.0398 6.92035H95.41C95.9731 6.92035 98.3648 6.92095 100.557 8.64365C103.445 10.9127 103.809 14.2242 103.435 16.4711L103.366 16.8812L102.991 18.1674C104.033 18.1122 105.089 18.0362 106.157 17.9391L106.224 17.933L106.292 17.9282C107.122 17.8688 108.499 17.8932 109.953 18.4343C111.138 18.0091 112.249 17.9102 113.062 17.9102H113.406L113.749 17.9439C116.535 18.2187 120.024 18.134 124.114 18.0215L124.163 18.0201C126.105 17.9667 128.158 17.9102 130.142 17.9102C136.186 17.9102 141.403 19.0819 145.423 21.6941C145.81 21.094 146.304 20.5003 146.936 19.953C148.954 18.2038 151.24 17.9103 152.64 17.9103H152.774L152.907 17.9154C161.873 18.2576 170.002 18.2586 178.963 17.9185C180.56 17.8291 182.466 18.1133 184.273 19.2544C186.08 20.3958 187.111 21.9687 187.696 23.2369L187.843 23.5557C188.584 22.861 189.369 22.2317 190.181 21.6691C194.428 18.7239 199.656 17.3501 204.337 17.3501C205.968 17.3501 208.573 17.5214 211.335 18.3306C213.303 17.3708 216.011 16.8584 218.818 18.1389C221.868 19.5298 223.219 22.2308 223.75 24.1525C223.754 24.1645 223.757 24.1764 223.76 24.1883L226.527 34.0245V35.4101C226.527 39.2928 223.977 41.6307 222.434 42.6153C221.267 43.3599 219.947 43.8537 218.6 44.0827C221.111 47.2306 223.167 51.3473 223.167 56.5501C223.167 63.3163 220.026 68.7789 215.268 72.3507C210.685 75.7911 204.846 77.3401 199.087 77.3401C194.83 77.3401 189.655 76.5159 185.268 74.2486C184.531 73.868 183.792 73.4298 183.07 72.932C182.479 73.6217 181.758 74.2434 180.897 74.7512C179.135 75.7905 177.36 76.0103 176.09 76.0103H175.951L175.812 76.0048C165.395 75.5909 155.73 75.524 145.26 76.003L145.1 76.0103H144.94C144.398 76.0103 142.143 76.0081 140.005 74.4914C139.696 74.272 139.396 74.0252 139.111 73.7515C134.994 75.6253 130.008 76.4777 124.276 76.1384C124.273 76.1382 124.27 76.138 124.267 76.1378L123.925 76.1184C117.899 75.7756 112.585 75.4797 105.819 75.9903L105.556 76.0102H105.292C104.889 76.0102 103.648 76.0056 102.202 75.4595C100.991 75.9074 99.85 76.0104 99.0204 76.0104H98.6809L98.343 75.9775C93.7595 75.5319 89.0273 75.5302 84.2796 75.9793L83.9507 76.0104H83.6204C83.0464 76.0104 80.7688 76.0011 78.6233 74.4277C75.6894 72.2762 75.1089 68.9594 75.5256 66.4596L75.5488 66.3206L75.8954 64.6567C76.1366 63.257 76.7991 61.2083 78.6858 59.5731C79.6822 58.7096 80.7437 58.2008 81.7317 57.907C81.7602 57.7847 81.7896 57.6537 81.8201 57.5134L81.8236 57.4976L81.827 57.4819C82.6025 53.9924 84.0824 45.8015 85.099 39.6857Z" fill="black"/>
</mask>
<g mask="url(#mask0_2146_79133)">
<path d="M0.988281 -46.5L-389.012 343.5" stroke="black" stroke-width="1.5"/>
<path d="M5.98828 -46.5L-384.012 343.5" stroke="black" stroke-width="1.5"/>
<path d="M10.9883 -46.5L-379.012 343.5" stroke="black" stroke-width="1.5"/>
<path d="M15.9883 -46.5L-374.012 343.5" stroke="black" stroke-width="1.5"/>
<path d="M20.9883 -46.5L-369.012 343.5" stroke="black" stroke-width="1.5"/>
<path d="M25.9883 -46.5L-364.012 343.5" stroke="black" stroke-width="1.5"/>
<path d="M30.9883 -46.5L-359.012 343.5" stroke="black" stroke-width="1.5"/>
<path d="M35.9883 -46.5L-354.012 343.5" stroke="black" stroke-width="1.5"/>
<path d="M40.9883 -46.5L-349.012 343.5" stroke="black" stroke-width="1.5"/>
<path d="M45.9883 -46.5L-344.012 343.5" stroke="black" stroke-width="1.5"/>
<path d="M50.9883 -46.5L-339.012 343.5" stroke="black" stroke-width="1.5"/>
<path d="M55.9883 -46.5L-334.012 343.5" stroke="black" stroke-width="1.5"/>
<path d="M60.9883 -46.5L-329.012 343.5" stroke="black" stroke-width="1.5"/>
<path d="M65.9883 -46.5L-324.012 343.5" stroke="black" stroke-width="1.5"/>
<path d="M70.9883 -46.5L-319.012 343.5" stroke="black" stroke-width="1.5"/>
<path d="M75.9883 -46.5L-314.012 343.5" stroke="black" stroke-width="1.5"/>
<path d="M80.9883 -46.5L-309.012 343.5" stroke="black" stroke-width="1.5"/>
<path d="M85.9883 -46.5L-304.012 343.5" stroke="black" stroke-width="1.5"/>
<path d="M90.9883 -46.5L-299.012 343.5" stroke="black" stroke-width="1.5"/>
<path d="M95.9883 -46.5L-294.012 343.5" stroke="black" stroke-width="1.5"/>
<path d="M100.988 -46.5L-289.012 343.5" stroke="black" stroke-width="1.5"/>
<path d="M105.988 -46.5L-284.012 343.5" stroke="black" stroke-width="1.5"/>
<path d="M110.988 -46.5L-279.012 343.5" stroke="black" stroke-width="1.5"/>
<path d="M115.988 -46.5L-274.012 343.5" stroke="black" stroke-width="1.5"/>
<path d="M120.988 -46.5L-269.012 343.5" stroke="black" stroke-width="1.5"/>
<path d="M125.988 -46.5L-264.012 343.5" stroke="black" stroke-width="1.5"/>
<path d="M130.988 -46.5L-259.012 343.5" stroke="black" stroke-width="1.5"/>
<path d="M135.988 -46.5L-254.012 343.5" stroke="black" stroke-width="1.5"/>
<path d="M140.988 -46.5L-249.012 343.5" stroke="black" stroke-width="1.5"/>
<path d="M145.988 -46.5L-244.012 343.5" stroke="black" stroke-width="1.5"/>
<path d="M150.988 -46.5L-239.012 343.5" stroke="black" stroke-width="1.5"/>
<path d="M155.988 -46.5L-234.012 343.5" stroke="black" stroke-width="1.5"/>
<path d="M160.988 -46.5L-229.012 343.5" stroke="black" stroke-width="1.5"/>
<path d="M165.988 -46.5L-224.012 343.5" stroke="black" stroke-width="1.5"/>
<path d="M170.988 -46.5L-219.012 343.5" stroke="black" stroke-width="1.5"/>
<path d="M175.988 -46.5L-214.012 343.5" stroke="black" stroke-width="1.5"/>
<path d="M180.988 -46.5L-209.012 343.5" stroke="black" stroke-width="1.5"/>
<path d="M185.988 -46.5L-204.012 343.5" stroke="black" stroke-width="1.5"/>
<path d="M190.988 -46.5L-199.012 343.5" stroke="black" stroke-width="1.5"/>
<path d="M195.988 -46.5L-194.012 343.5" stroke="black" stroke-width="1.5"/>
<path d="M200.988 -46.5L-189.012 343.5" stroke="black" stroke-width="1.5"/>
<path d="M205.988 -46.5L-184.012 343.5" stroke="black" stroke-width="1.5"/>
<path d="M210.988 -46.5L-179.012 343.5" stroke="black" stroke-width="1.5"/>
<path d="M215.988 -46.5L-174.012 343.5" stroke="black" stroke-width="1.5"/>
<path d="M220.988 -46.5L-169.012 343.5" stroke="black" stroke-width="1.5"/>
<path d="M225.988 -46.5L-164.012 343.5" stroke="black" stroke-width="1.5"/>
<path d="M230.988 -46.5L-159.012 343.5" stroke="black" stroke-width="1.5"/>
<path d="M235.988 -46.5L-154.012 343.5" stroke="black" stroke-width="1.5"/>
<path d="M240.988 -46.5L-149.012 343.5" stroke="black" stroke-width="1.5"/>
<path d="M245.988 -46.5L-144.012 343.5" stroke="black" stroke-width="1.5"/>
<path d="M250.988 -46.5L-139.012 343.5" stroke="black" stroke-width="1.5"/>
<path d="M255.988 -46.5L-134.012 343.5" stroke="black" stroke-width="1.5"/>
<path d="M260.988 -46.5L-129.012 343.5" stroke="black" stroke-width="1.5"/>
<path d="M265.988 -46.5L-124.012 343.5" stroke="black" stroke-width="1.5"/>
<path d="M270.988 -46.5L-119.012 343.5" stroke="black" stroke-width="1.5"/>
<path d="M275.988 -46.5L-114.012 343.5" stroke="black" stroke-width="1.5"/>
<path d="M280.988 -46.5L-109.012 343.5" stroke="black" stroke-width="1.5"/>
<path d="M285.988 -46.5L-104.012 343.5" stroke="black" stroke-width="1.5"/>
<path d="M290.988 -46.5L-99.0117 343.5" stroke="black" stroke-width="1.5"/>
<path d="M295.988 -46.5L-94.0117 343.5" stroke="black" stroke-width="1.5"/>
<path d="M300.988 -46.5L-89.0117 343.5" stroke="black" stroke-width="1.5"/>
<path d="M305.988 -46.5L-84.0117 343.5" stroke="black" stroke-width="1.5"/>
<path d="M310.988 -46.5L-79.0117 343.5" stroke="black" stroke-width="1.5"/>
<path d="M315.988 -46.5L-74.0117 343.5" stroke="black" stroke-width="1.5"/>
<path d="M320.988 -46.5L-69.0117 343.5" stroke="black" stroke-width="1.5"/>
<path d="M325.988 -46.5L-64.0117 343.5" stroke="black" stroke-width="1.5"/>
<path d="M330.988 -46.5L-59.0117 343.5" stroke="black" stroke-width="1.5"/>
<path d="M335.988 -46.5L-54.0117 343.5" stroke="black" stroke-width="1.5"/>
<path d="M340.988 -46.5L-49.0117 343.5" stroke="black" stroke-width="1.5"/>
<path d="M345.988 -46.5L-44.0117 343.5" stroke="black" stroke-width="1.5"/>
<path d="M350.988 -46.5L-39.0117 343.5" stroke="black" stroke-width="1.5"/>
<path d="M355.988 -46.5L-34.0117 343.5" stroke="black" stroke-width="1.5"/>
<path d="M360.988 -46.5L-29.0117 343.5" stroke="black" stroke-width="1.5"/>
<path d="M365.988 -46.5L-24.0117 343.5" stroke="black" stroke-width="1.5"/>
<path d="M370.988 -46.5L-19.0117 343.5" stroke="black" stroke-width="1.5"/>
<path d="M375.988 -46.5L-14.0117 343.5" stroke="black" stroke-width="1.5"/>
<path d="M380.988 -46.5L-9.01172 343.5" stroke="black" stroke-width="1.5"/>
<path d="M385.988 -46.5L-4.01172 343.5" stroke="black" stroke-width="1.5"/>
<path d="M390.988 -46.5L0.988284 343.5" stroke="black" stroke-width="1.5"/>
<path d="M395.988 -46.5L5.98828 343.5" stroke="black" stroke-width="1.5"/>
<path d="M400.988 -46.5L10.9883 343.5" stroke="black" stroke-width="1.5"/>
<path d="M405.988 -46.5L15.9883 343.5" stroke="black" stroke-width="1.5"/>
<path d="M410.988 -46.5L20.9883 343.5" stroke="black" stroke-width="1.5"/>
<path d="M415.988 -46.5L25.9883 343.5" stroke="black" stroke-width="1.5"/>
<path d="M420.988 -46.5L30.9883 343.5" stroke="black" stroke-width="1.5"/>
<path d="M425.988 -46.5L35.9883 343.5" stroke="black" stroke-width="1.5"/>
<path d="M430.988 -46.5L40.9883 343.5" stroke="black" stroke-width="1.5"/>
<path d="M435.988 -46.5L45.9883 343.5" stroke="black" stroke-width="1.5"/>
<path d="M440.988 -46.5L50.9883 343.5" stroke="black" stroke-width="1.5"/>
<path d="M445.988 -46.5L55.9883 343.5" stroke="black" stroke-width="1.5"/>
<path d="M450.988 -46.5L60.9883 343.5" stroke="black" stroke-width="1.5"/>
<path d="M455.988 -46.5L65.9883 343.5" stroke="black" stroke-width="1.5"/>
<path d="M460.988 -46.5L70.9883 343.5" stroke="black" stroke-width="1.5"/>
<path d="M465.988 -46.5L75.9883 343.5" stroke="black" stroke-width="1.5"/>
<path d="M470.988 -46.5L80.9883 343.5" stroke="black" stroke-width="1.5"/>
<path d="M475.988 -46.5L85.9883 343.5" stroke="black" stroke-width="1.5"/>
<path d="M480.988 -46.5L90.9883 343.5" stroke="black" stroke-width="1.5"/>
<path d="M485.988 -46.5L95.9883 343.5" stroke="black" stroke-width="1.5"/>
<path d="M490.988 -46.5L100.988 343.5" stroke="black" stroke-width="1.5"/>
<path d="M495.988 -46.5L105.988 343.5" stroke="black" stroke-width="1.5"/>
<path d="M500.988 -46.5L110.988 343.5" stroke="black" stroke-width="1.5"/>
<path d="M505.988 -46.5L115.988 343.5" stroke="black" stroke-width="1.5"/>
<path d="M510.988 -46.5L120.988 343.5" stroke="black" stroke-width="1.5"/>
<path d="M515.988 -46.5L125.988 343.5" stroke="black" stroke-width="1.5"/>
<path d="M520.988 -46.5L130.988 343.5" stroke="black" stroke-width="1.5"/>
<path d="M525.988 -46.5L135.988 343.5" stroke="black" stroke-width="1.5"/>
<path d="M530.988 -46.5L140.988 343.5" stroke="black" stroke-width="1.5"/>
<path d="M535.988 -46.5L145.988 343.5" stroke="black" stroke-width="1.5"/>
<path d="M540.988 -46.5L150.988 343.5" stroke="black" stroke-width="1.5"/>
<path d="M545.988 -46.5L155.988 343.5" stroke="black" stroke-width="1.5"/>
<path d="M550.988 -46.5L160.988 343.5" stroke="black" stroke-width="1.5"/>
<path d="M555.988 -46.5L165.988 343.5" stroke="black" stroke-width="1.5"/>
<path d="M560.988 -46.5L170.988 343.5" stroke="black" stroke-width="1.5"/>
<path d="M565.988 -46.5L175.988 343.5" stroke="black" stroke-width="1.5"/>
<path d="M570.988 -46.5L180.988 343.5" stroke="black" stroke-width="1.5"/>
<path d="M575.988 -46.5L185.988 343.5" stroke="black" stroke-width="1.5"/>
<path d="M580.988 -46.5L190.988 343.5" stroke="black" stroke-width="1.5"/>
<path d="M585.988 -46.5L195.988 343.5" stroke="black" stroke-width="1.5"/>
<path d="M590.988 -46.5L200.988 343.5" stroke="black" stroke-width="1.5"/>
<path d="M595.988 -46.5L205.988 343.5" stroke="black" stroke-width="1.5"/>
<path d="M600.988 -46.5L210.988 343.5" stroke="black" stroke-width="1.5"/>
<path d="M605.988 -46.5L215.988 343.5" stroke="black" stroke-width="1.5"/>
<path d="M610.988 -46.5L220.988 343.5" stroke="black" stroke-width="1.5"/>
<path d="M615.988 -46.5L225.988 343.5" stroke="black" stroke-width="1.5"/>
</g>
</svg>
