<svg width="221" height="86" viewBox="0 0 221 86" fill="none" xmlns="http://www.w3.org/2000/svg">
<mask id="mask0_2146_79105" style="mask-type:alpha" maskUnits="userSpaceOnUse" x="0" y="5" width="220" height="81">
<path d="M79.8308 85.7004C76.6008 85.7004 73.7008 83.4504 72.9908 80.1704L72.5608 78.1805L72.1308 80.1704C71.7408 81.9904 70.6508 83.5704 69.0908 84.5804C67.9508 85.3204 66.6308 85.7004 65.2908 85.7004C64.8008 85.7004 64.3108 85.6504 63.8208 85.5404L60.1908 84.7604C56.4108 83.9504 54.0008 80.2304 54.8208 76.4504L55.2508 74.4604L53.0908 77.4004C51.7208 79.2604 49.6008 80.2505 47.4508 80.2505C46.0108 80.2505 44.5608 79.8104 43.3108 78.8904L40.3208 76.6904C38.8208 75.5904 37.8308 73.9405 37.5508 72.1105C37.2708 70.2805 37.7308 68.4004 38.8308 66.9104L44.2708 59.5105C40.7908 57.1205 38.1508 54.8205 36.5608 53.3305L31.8608 65.2705C30.8108 67.9505 28.2208 69.7104 25.3508 69.7104H19.9108C17.0308 69.7104 14.4508 67.9505 13.4008 65.2705L0.840819 33.3904C-0.00918144 31.2404 0.260819 28.8004 1.57082 26.8904C2.88082 24.9804 5.04082 23.8304 7.36082 23.8304H12.4208C15.3308 23.8304 17.9408 25.6404 18.9708 28.3604L22.6208 38.0405L26.2908 28.3504C27.3208 25.6304 29.9308 23.8304 32.8408 23.8304H37.9008C38.0708 23.8304 38.2408 23.8304 38.4008 23.8504C36.6408 20.8004 37.4208 16.8604 40.3208 14.7204L43.3108 12.5204C44.5208 11.6304 45.9808 11.1604 47.4608 11.1604C47.8108 11.1604 48.1608 11.1904 48.5108 11.2404C50.3508 11.5204 51.9908 12.5204 53.0908 14.0104L55.2508 16.9504L54.8208 14.9604C54.4308 13.1504 54.7808 11.2504 55.7808 9.69045C56.7908 8.13045 58.3708 7.04045 60.1908 6.65045L63.8208 5.87045C64.3108 5.77045 64.8008 5.71045 65.2908 5.71045C66.6308 5.71045 67.9508 6.09045 69.0908 6.83045C70.6508 7.84045 71.7408 9.42045 72.1308 11.2404L72.5608 13.2304L72.9908 11.2404C73.3808 9.43045 74.4708 7.84045 76.0308 6.83045C77.1708 6.09045 78.4908 5.71045 79.8308 5.71045C80.3208 5.71045 80.8108 5.76045 81.3008 5.87045L84.9308 6.65045C88.7108 7.46045 91.1208 11.1804 90.3008 14.9604L89.8708 16.9504L92.0308 14.0104C93.4008 12.1504 95.5208 11.1604 97.6708 11.1604C99.1108 11.1604 100.561 11.6004 101.811 12.5204L104.801 14.7204C105.131 14.9604 105.441 15.2404 105.721 15.5304C106.161 12.0904 109.101 9.43045 112.661 9.43045H117.461C121.331 9.43045 124.461 12.5604 124.461 16.4304V23.7904C126.251 23.3504 128.151 23.1304 130.131 23.1304C138.081 23.1304 144.841 26.9104 148.911 32.9204C153.261 26.9504 160.371 23.1304 168.571 23.1304C174.621 23.1304 180.221 25.2004 184.321 28.9604C184.871 29.4604 185.431 30.0304 185.991 30.6804C188.981 26.0804 194.351 23.1304 200.741 23.1304C208.921 23.1304 215.401 27.9204 217.261 35.3404C217.711 37.1504 217.421 39.0705 216.451 40.6705C215.871 41.6305 215.061 42.4305 214.121 43.0105C218.401 46.9405 219.001 51.7405 219.001 54.1305C219.001 63.4105 211.181 70.4104 200.801 70.4104C194.841 70.4104 189.631 68.2105 186.141 64.4705C181.601 68.3605 175.851 70.4104 169.331 70.4104C160.661 70.4104 153.301 66.6505 148.871 60.6705C144.801 66.6505 138.061 70.4104 130.131 70.4104C126.881 70.4104 123.861 69.8105 121.161 68.6505C120.091 69.3205 118.821 69.7104 117.461 69.7104H112.661C108.791 69.7104 105.661 66.5804 105.661 62.7104V55.8704C104.321 56.9804 102.701 58.2305 100.841 59.5005L106.281 66.9005C107.381 68.4005 107.841 70.2704 107.561 72.1004C107.281 73.9404 106.281 75.5805 104.791 76.6805L101.801 78.8804C100.551 79.8004 99.1008 80.2404 97.6608 80.2404C95.5108 80.2404 93.3908 79.2504 92.0208 77.3904L89.8608 74.4504L90.2908 76.4404C90.6808 78.2604 90.3308 80.1504 89.3308 81.7104C88.3208 83.2704 86.7408 84.3605 84.9208 84.7505L81.2908 85.5304C80.7908 85.6404 80.3008 85.6904 79.8108 85.6904L79.8308 85.7004ZM100.871 31.9004C102.721 33.1704 104.341 34.4204 105.691 35.5304V25.3504L100.871 31.9004Z" fill="black"/>
</mask>
<g mask="url(#mask0_2146_79105)">
<path d="M1.98828 -51L-388.012 339" stroke="black" stroke-width="1.5"/>
<path d="M6.98828 -51L-383.012 339" stroke="black" stroke-width="1.5"/>
<path d="M11.9883 -51L-378.012 339" stroke="black" stroke-width="1.5"/>
<path d="M16.9883 -51L-373.012 339" stroke="black" stroke-width="1.5"/>
<path d="M21.9883 -51L-368.012 339" stroke="black" stroke-width="1.5"/>
<path d="M26.9883 -51L-363.012 339" stroke="black" stroke-width="1.5"/>
<path d="M31.9883 -51L-358.012 339" stroke="black" stroke-width="1.5"/>
<path d="M36.9883 -51L-353.012 339" stroke="black" stroke-width="1.5"/>
<path d="M41.9883 -51L-348.012 339" stroke="black" stroke-width="1.5"/>
<path d="M46.9883 -51L-343.012 339" stroke="black" stroke-width="1.5"/>
<path d="M51.9883 -51L-338.012 339" stroke="black" stroke-width="1.5"/>
<path d="M56.9883 -51L-333.012 339" stroke="black" stroke-width="1.5"/>
<path d="M61.9883 -51L-328.012 339" stroke="black" stroke-width="1.5"/>
<path d="M66.9883 -51L-323.012 339" stroke="black" stroke-width="1.5"/>
<path d="M71.9883 -51L-318.012 339" stroke="black" stroke-width="1.5"/>
<path d="M76.9883 -51L-313.012 339" stroke="black" stroke-width="1.5"/>
<path d="M81.9883 -51L-308.012 339" stroke="black" stroke-width="1.5"/>
<path d="M86.9883 -51L-303.012 339" stroke="black" stroke-width="1.5"/>
<path d="M91.9883 -51L-298.012 339" stroke="black" stroke-width="1.5"/>
<path d="M96.9883 -51L-293.012 339" stroke="black" stroke-width="1.5"/>
<path d="M101.988 -51L-288.012 339" stroke="black" stroke-width="1.5"/>
<path d="M106.988 -51L-283.012 339" stroke="black" stroke-width="1.5"/>
<path d="M111.988 -51L-278.012 339" stroke="black" stroke-width="1.5"/>
<path d="M116.988 -51L-273.012 339" stroke="black" stroke-width="1.5"/>
<path d="M121.988 -51L-268.012 339" stroke="black" stroke-width="1.5"/>
<path d="M126.988 -51L-263.012 339" stroke="black" stroke-width="1.5"/>
<path d="M131.988 -51L-258.012 339" stroke="black" stroke-width="1.5"/>
<path d="M136.988 -51L-253.012 339" stroke="black" stroke-width="1.5"/>
<path d="M141.988 -51L-248.012 339" stroke="black" stroke-width="1.5"/>
<path d="M146.988 -51L-243.012 339" stroke="black" stroke-width="1.5"/>
<path d="M151.988 -51L-238.012 339" stroke="black" stroke-width="1.5"/>
<path d="M156.988 -51L-233.012 339" stroke="black" stroke-width="1.5"/>
<path d="M161.988 -51L-228.012 339" stroke="black" stroke-width="1.5"/>
<path d="M166.988 -51L-223.012 339" stroke="black" stroke-width="1.5"/>
<path d="M171.988 -51L-218.012 339" stroke="black" stroke-width="1.5"/>
<path d="M176.988 -51L-213.012 339" stroke="black" stroke-width="1.5"/>
<path d="M181.988 -51L-208.012 339" stroke="black" stroke-width="1.5"/>
<path d="M186.988 -51L-203.012 339" stroke="black" stroke-width="1.5"/>
<path d="M191.988 -51L-198.012 339" stroke="black" stroke-width="1.5"/>
<path d="M196.988 -51L-193.012 339" stroke="black" stroke-width="1.5"/>
<path d="M201.988 -51L-188.012 339" stroke="black" stroke-width="1.5"/>
<path d="M206.988 -51L-183.012 339" stroke="black" stroke-width="1.5"/>
<path d="M211.988 -51L-178.012 339" stroke="black" stroke-width="1.5"/>
<path d="M216.988 -51L-173.012 339" stroke="black" stroke-width="1.5"/>
<path d="M221.988 -51L-168.012 339" stroke="black" stroke-width="1.5"/>
<path d="M226.988 -51L-163.012 339" stroke="black" stroke-width="1.5"/>
<path d="M231.988 -51L-158.012 339" stroke="black" stroke-width="1.5"/>
<path d="M236.988 -51L-153.012 339" stroke="black" stroke-width="1.5"/>
<path d="M241.988 -51L-148.012 339" stroke="black" stroke-width="1.5"/>
<path d="M246.988 -51L-143.012 339" stroke="black" stroke-width="1.5"/>
<path d="M251.988 -51L-138.012 339" stroke="black" stroke-width="1.5"/>
<path d="M256.988 -51L-133.012 339" stroke="black" stroke-width="1.5"/>
<path d="M261.988 -51L-128.012 339" stroke="black" stroke-width="1.5"/>
<path d="M266.988 -51L-123.012 339" stroke="black" stroke-width="1.5"/>
<path d="M271.988 -51L-118.012 339" stroke="black" stroke-width="1.5"/>
<path d="M276.988 -51L-113.012 339" stroke="black" stroke-width="1.5"/>
<path d="M281.988 -51L-108.012 339" stroke="black" stroke-width="1.5"/>
<path d="M286.988 -51L-103.012 339" stroke="black" stroke-width="1.5"/>
<path d="M291.988 -51L-98.0117 339" stroke="black" stroke-width="1.5"/>
<path d="M296.988 -51L-93.0117 339" stroke="black" stroke-width="1.5"/>
<path d="M301.988 -51L-88.0117 339" stroke="black" stroke-width="1.5"/>
<path d="M306.988 -51L-83.0117 339" stroke="black" stroke-width="1.5"/>
<path d="M311.988 -51L-78.0117 339" stroke="black" stroke-width="1.5"/>
<path d="M316.988 -51L-73.0117 339" stroke="black" stroke-width="1.5"/>
<path d="M321.988 -51L-68.0117 339" stroke="black" stroke-width="1.5"/>
<path d="M326.988 -51L-63.0117 339" stroke="black" stroke-width="1.5"/>
<path d="M331.988 -51L-58.0117 339" stroke="black" stroke-width="1.5"/>
<path d="M336.988 -51L-53.0117 339" stroke="black" stroke-width="1.5"/>
<path d="M341.988 -51L-48.0117 339" stroke="black" stroke-width="1.5"/>
<path d="M346.988 -51L-43.0117 339" stroke="black" stroke-width="1.5"/>
<path d="M351.988 -51L-38.0117 339" stroke="black" stroke-width="1.5"/>
<path d="M356.988 -51L-33.0117 339" stroke="black" stroke-width="1.5"/>
<path d="M361.988 -51L-28.0117 339" stroke="black" stroke-width="1.5"/>
<path d="M366.988 -51L-23.0117 339" stroke="black" stroke-width="1.5"/>
<path d="M371.988 -51L-18.0117 339" stroke="black" stroke-width="1.5"/>
<path d="M376.988 -51L-13.0117 339" stroke="black" stroke-width="1.5"/>
<path d="M381.988 -51L-8.01172 339" stroke="black" stroke-width="1.5"/>
<path d="M386.988 -51L-3.01172 339" stroke="black" stroke-width="1.5"/>
<path d="M391.988 -51L1.98828 339" stroke="black" stroke-width="1.5"/>
<path d="M396.988 -51L6.98828 339" stroke="black" stroke-width="1.5"/>
<path d="M401.988 -51L11.9883 339" stroke="black" stroke-width="1.5"/>
<path d="M406.988 -51L16.9883 339" stroke="black" stroke-width="1.5"/>
<path d="M411.988 -51L21.9883 339" stroke="black" stroke-width="1.5"/>
<path d="M416.988 -51L26.9883 339" stroke="black" stroke-width="1.5"/>
<path d="M421.988 -51L31.9883 339" stroke="black" stroke-width="1.5"/>
<path d="M426.988 -51L36.9883 339" stroke="black" stroke-width="1.5"/>
<path d="M431.988 -51L41.9883 339" stroke="black" stroke-width="1.5"/>
<path d="M436.988 -51L46.9883 339" stroke="black" stroke-width="1.5"/>
<path d="M441.988 -51L51.9883 339" stroke="black" stroke-width="1.5"/>
<path d="M446.988 -51L56.9883 339" stroke="black" stroke-width="1.5"/>
<path d="M451.988 -51L61.9883 339" stroke="black" stroke-width="1.5"/>
<path d="M456.988 -51L66.9883 339" stroke="black" stroke-width="1.5"/>
<path d="M461.988 -51L71.9883 339" stroke="black" stroke-width="1.5"/>
<path d="M466.988 -51L76.9883 339" stroke="black" stroke-width="1.5"/>
<path d="M471.988 -51L81.9883 339" stroke="black" stroke-width="1.5"/>
<path d="M476.988 -51L86.9883 339" stroke="black" stroke-width="1.5"/>
<path d="M481.988 -51L91.9883 339" stroke="black" stroke-width="1.5"/>
<path d="M486.988 -51L96.9883 339" stroke="black" stroke-width="1.5"/>
<path d="M491.988 -51L101.988 339" stroke="black" stroke-width="1.5"/>
<path d="M496.988 -51L106.988 339" stroke="black" stroke-width="1.5"/>
<path d="M501.988 -51L111.988 339" stroke="black" stroke-width="1.5"/>
<path d="M506.988 -51L116.988 339" stroke="black" stroke-width="1.5"/>
<path d="M511.988 -51L121.988 339" stroke="black" stroke-width="1.5"/>
<path d="M516.988 -51L126.988 339" stroke="black" stroke-width="1.5"/>
<path d="M521.988 -51L131.988 339" stroke="black" stroke-width="1.5"/>
<path d="M526.988 -51L136.988 339" stroke="black" stroke-width="1.5"/>
<path d="M531.988 -51L141.988 339" stroke="black" stroke-width="1.5"/>
<path d="M536.988 -51L146.988 339" stroke="black" stroke-width="1.5"/>
<path d="M541.988 -51L151.988 339" stroke="black" stroke-width="1.5"/>
<path d="M546.988 -51L156.988 339" stroke="black" stroke-width="1.5"/>
<path d="M551.988 -51L161.988 339" stroke="black" stroke-width="1.5"/>
<path d="M556.988 -51L166.988 339" stroke="black" stroke-width="1.5"/>
<path d="M561.988 -51L171.988 339" stroke="black" stroke-width="1.5"/>
<path d="M566.988 -51L176.988 339" stroke="black" stroke-width="1.5"/>
<path d="M571.988 -51L181.988 339" stroke="black" stroke-width="1.5"/>
<path d="M576.988 -51L186.988 339" stroke="black" stroke-width="1.5"/>
<path d="M581.988 -51L191.988 339" stroke="black" stroke-width="1.5"/>
<path d="M586.988 -51L196.988 339" stroke="black" stroke-width="1.5"/>
<path d="M591.988 -51L201.988 339" stroke="black" stroke-width="1.5"/>
<path d="M596.988 -51L206.988 339" stroke="black" stroke-width="1.5"/>
<path d="M601.988 -51L211.988 339" stroke="black" stroke-width="1.5"/>
<path d="M606.988 -51L216.988 339" stroke="black" stroke-width="1.5"/>
</g>
</svg>
