<svg width="161" height="103" viewBox="0 0 161 103" fill="none" xmlns="http://www.w3.org/2000/svg">
<path d="M31.85 98.7007C24.13 98.7007 18.08 92.0407 18.08 83.5407C18.08 83.4407 18.08 83.3307 18.08 83.2307C18.13 80.0907 18.98 76.0407 20.46 71.0007C19.58 71.1807 18.68 71.2707 17.76 71.2707C8.33 71.2707 2 63.6707 2 52.3607C2 41.4307 5.55 29.1907 11.51 19.6207C18.58 8.27068 27.89 2.03068 37.75 2.03068C47 2.03068 53.97 8.10068 56.84 15.3807C61.74 6.56068 67.29 1.95068 75.02 1.95068C81.5 1.95068 85.5 5.31068 86.85 9.30068C87.35 8.11068 87.77 7.09068 88.07 6.29068C88.97 3.93068 91.07 2.24068 93.57 1.86068C94.64 1.70068 95.59 1.70068 96.28 1.70068C107.72 1.70068 108.3 9.23068 108.3 10.7407C108.3 12.9307 107.5 14.6907 106.04 17.8707C105.7 18.6207 105.32 19.4407 104.91 20.3707C103.5 23.5107 102.16 26.5207 100.88 29.3807C103.14 30.2807 105.11 31.8707 106.55 33.8907C110.05 30.2607 114.32 28.3907 119.23 28.3907C124.41 28.3907 128.71 30.3707 131.46 33.7007C135.49 23.7507 139.35 17.0507 147.34 17.0507C153.32 17.0507 158.09 21.6607 159.81 29.0807C160.56 32.3007 158.95 35.6007 155.96 37.0007L155.57 37.1907C153.66 38.0807 148.86 40.3307 147.39 41.9207C147.52 42.9207 147.84 44.6007 148.09 45.9107C148.87 50.0007 149.93 55.5707 149.88 60.9307C149.88 75.0207 142.48 84.9207 131.89 84.9207C127.66 84.9207 124.26 83.7207 121.72 81.8407C118.4 83.8907 114.96 84.9207 111.43 84.9207C104.63 84.9207 98.92 81.9307 95.77 77.2707C95.61 77.2907 95.45 77.3107 95.29 77.3307C91.16 82.3207 86.72 84.8407 82.05 84.8407C78.08 84.8407 74.61 83.7207 71.91 81.7007C69.57 83.5307 66.74 84.9207 63.57 84.9207C59.18 84.9207 55.21 82.8007 52.83 79.6407C46.45 92.2507 40.32 98.7107 31.87 98.7107L31.85 98.7007Z" fill="white" stroke="black" stroke-width="2" stroke-linejoin="round"/>
<path fill-rule="evenodd" clip-rule="evenodd" d="M82.0302 77.8209C85.3802 77.8209 88.8002 74.7209 91.8302 70.2309C92.3902 70.3109 93.0202 70.4009 93.6602 70.4009C96.0002 70.4009 98.1602 69.3409 100.13 67.6209C100.12 67.9309 100.11 68.2209 100.11 68.5209C100.11 74.1509 105.21 77.9009 111.42 77.9009C115.74 77.9009 119.75 75.2409 123.28 71.3509C123.36 74.4209 126 77.9009 131.88 77.9009C138.81 77.9009 142.87 70.3909 142.87 60.8409C142.92 56.1709 141.96 51.1709 141.21 47.2209C140.72 44.6809 140.32 42.5609 140.32 41.2509C140.32 36.5709 147.83 33.0509 152.57 30.8409C152.71 30.7709 152.85 30.7109 152.99 30.6409C152.2 27.2109 150.28 24.0309 147.34 24.0309C143.19 24.0309 140.81 28.7609 135.63 42.2309C135.58 42.3309 135.53 42.4709 135.5 42.6009C129.26 57.0409 117.83 72.6709 110.87 74.2209C108.4 73.2409 107.45 71.5309 107.45 68.9209C107.45 68.2109 107.52 67.4309 107.6 66.5809V66.4709C108.4 66.7109 109.11 66.8009 109.83 66.8009C119.62 66.8009 127.75 50.2409 127.75 43.3809C127.75 37.4309 123.29 35.3809 119.23 35.3809C115.57 35.3809 112.94 37.0909 110.87 39.5409C106.49 44.6109 102.94 52.8409 101.23 60.1409C98.6402 64.0109 95.9202 66.8509 93.1102 68.1809C98.2902 59.6109 102.03 47.5409 102.03 41.5809C102.03 38.4009 99.5602 35.5409 96.6102 35.5409C93.5002 35.5409 90.7202 37.2509 88.1702 40.6809C91.0402 34.2309 94.5402 26.4009 98.5202 17.5009C98.9402 16.5509 99.3302 15.7009 99.6802 14.9509C100.69 12.7509 101.31 11.4009 101.31 10.7309C101.31 9.18092 98.8402 8.69092 96.2902 8.69092C95.7302 8.69092 95.1802 8.69092 94.6202 8.77092C93.6702 11.2709 91.8402 15.4609 89.6002 20.6009C86.8002 27.0209 83.3502 34.9409 80.1202 42.9609C77.0702 50.5309 74.1302 59.0209 73.1402 64.7809C70.9302 68.7109 67.9402 72.8109 64.5902 74.2209C65.0902 70.5909 67.7902 64.0909 70.4802 57.6409C73.4002 50.6209 76.3002 43.6609 76.3002 40.5209C76.3002 37.6609 74.3902 36.1109 71.2002 36.1109C70.2802 36.1109 69.3102 36.2109 68.3002 36.3109C67.0502 36.4409 65.7502 36.5709 64.4302 36.5209C64.2702 36.9309 64.1902 37.3409 64.1902 37.7509C64.1902 38.4809 64.6702 38.9809 66.0202 38.9809C66.9002 38.9809 68.0902 38.8209 69.6802 38.2509C69.4502 40.5409 67.2702 45.6109 64.8102 51.3109C61.4102 59.2009 57.5002 68.2909 57.4902 72.9409C57.4902 75.7109 60.5902 77.9209 63.5402 77.9209C66.7802 77.9209 70.6902 73.6709 72.8602 69.8509C73.4602 75.4309 77.3402 77.8409 82.0202 77.8409L82.0302 77.8209ZM136.64 46.8509C134.73 52.4409 131.05 61.0409 126.17 67.7809C127.61 70.3409 129.79 73.4609 131.25 74.4009C133.77 71.9809 136.05 63.6909 136.64 46.8509ZM83.0602 55.4609C83.1402 59.3009 83.8602 63.9509 86.3302 67.0509C84.3402 71.3809 82.4302 74.5609 81.3902 74.8909C80.4302 74.4009 79.7202 72.9309 79.7202 70.3209C79.7202 67.3009 80.4402 63.7909 82.1102 58.4809L82.2202 58.1309C82.5002 57.2709 82.7802 56.4009 83.0602 55.4609ZM87.5302 64.5209C90.9502 56.7709 94.3802 46.6509 94.4602 42.0009C94.4602 40.7709 94.3002 39.9609 93.9002 39.5509C89.7602 40.3709 85.3802 46.8109 85.3802 55.4709C85.3802 58.9009 85.9402 62.1609 87.5302 64.5309V64.5209ZM25.0802 83.5409C25.0802 77.5809 29.7802 64.6109 34.4802 51.7109C39.1002 38.9809 43.7202 26.2509 43.7202 20.1309C43.7202 16.0509 43.0002 14.0109 41.6502 12.9509C26.5202 14.4209 16.6402 38.8209 16.6402 52.3709C16.5602 56.7809 17.6002 59.9609 19.8202 60.9409C24.6002 54.6609 28.5002 40.4509 28.5002 32.0509C28.5002 30.0109 28.2602 28.3009 27.7802 27.1509C28.3402 26.5809 29.3702 26.0909 30.4902 26.0909C33.1202 26.0909 35.5102 29.0309 35.5102 34.2509C35.5102 44.5309 27.0702 64.2809 17.7502 64.2809C11.7002 64.2809 8.99023 58.8909 8.99023 52.3709C8.99023 32.7109 21.9602 9.04092 37.7402 9.04092C44.1902 9.04092 51.2802 14.5109 51.2802 22.7509C51.2802 28.9109 46.2102 42.4809 41.3102 55.6209V55.6409C40.8902 56.7709 40.4802 57.8809 40.0702 58.9909C35.9302 70.0909 32.2702 80.2909 32.2702 84.8609C32.2702 86.4109 32.5902 87.5509 33.3802 88.1209C39.2702 82.7309 46.0402 63.7209 53.6902 41.9309C62.4502 15.2509 68.0302 8.96092 75.0302 8.96092C78.9302 8.96092 80.3702 10.9209 80.3702 12.3909C80.3702 12.8009 80.2102 13.2909 79.9702 13.5309C79.3302 13.2109 78.3802 12.8809 77.4202 12.8809C70.9702 12.8809 65.7102 27.8209 60.6902 42.3409C47.7902 76.3709 40.9402 91.7109 31.8602 91.7109C28.0402 91.7109 25.0902 88.0409 25.0902 83.5509L25.0802 83.5409ZM84.2602 21.5109C84.2602 24.4509 80.1202 27.7909 77.0102 30.2409C76.7602 30.4309 76.5202 30.6209 76.2902 30.8009C75.2402 31.6209 74.3402 32.3209 73.8202 32.8509C73.1802 32.7709 72.6202 32.4409 72.6202 31.4609C72.6202 30.8109 72.9402 30.0709 73.4902 29.0109C74.4502 27.2109 75.9602 24.2809 77.4702 18.6509H77.7202C81.4202 18.7309 84.2402 18.8009 84.2402 21.5009L84.2602 21.5109ZM122.25 40.3609C122.25 46.3109 115.24 62.9609 108.07 64.1909C110.3 54.1509 117.95 38.7309 121.69 38.4909C122.09 38.8209 122.25 39.4709 122.25 40.3709V40.3609Z" fill="black"/>
</svg>
