<svg width="228" height="68" viewBox="0 0 228 68" fill="none" xmlns="http://www.w3.org/2000/svg">
<mask id="mask0_2146_79073" style="mask-type:alpha" maskUnits="userSpaceOnUse" x="0" y="5" width="225" height="62">
<path fill-rule="evenodd" clip-rule="evenodd" d="M180.005 10.6592C184.476 7.36267 190.3 5.81348 196.487 5.81348C199.884 5.81348 202.869 6.25424 205.554 7.08112C206.692 6.31068 208.053 5.87748 209.479 5.87748H211.143C214.149 5.87748 216.819 7.79641 217.777 10.6453L222.385 24.3413C222.983 26.118 222.843 28.0601 221.997 29.7329C221.299 31.114 220.167 32.2162 218.789 32.8801C219.857 33.7706 220.862 34.802 221.745 36.0019C223.865 38.881 224.991 42.3359 224.991 46.2215C224.991 53.4739 220.832 58.8081 215.768 62.0152C210.823 65.1472 204.623 66.5975 198.663 66.5975C194.42 66.5975 190.344 65.8066 186.59 64.3884C185.442 65.1851 184.057 65.6375 182.599 65.6375H180.935C178.157 65.6375 175.68 64.0006 174.561 61.5312L174.484 61.6899C173.314 64.1044 170.867 65.6379 168.184 65.6379H129.016C126.433 65.6379 124.177 64.2388 122.964 62.1572C118.596 64.706 113.446 65.6379 108.826 65.6379H82.2661C81.7132 65.6379 81.1753 65.5738 80.6594 65.4526C80.1434 65.5738 79.6055 65.6379 79.0526 65.6379H58.8286C55.5692 65.6379 52.8301 63.4102 52.0508 60.3943C51.2715 63.4102 48.5324 65.6379 45.273 65.6379H18.713C14.847 65.6379 11.713 62.5039 11.713 58.6379V56.9739C11.713 53.6597 14.0371 50.7998 17.2812 50.1219C17.6128 50.0526 17.8074 49.9578 17.9098 49.8959C18.0134 49.8333 18.0672 49.7775 18.0964 49.7412C18.1622 49.6592 18.177 49.5797 18.177 49.5499C18.177 49.3255 18.166 49.1719 18.1103 48.9138C18.0414 48.5941 17.8781 48.0069 17.4616 46.9656L17.4545 46.9478L9.46164 26.8056C9.46056 26.8029 9.45949 26.8003 9.45841 26.7976C8.32803 23.9761 6.88272 22.7231 5.16732 22.2575C2.11786 21.4297 0.000976562 18.6617 0.000976562 15.5019V13.8379C0.000976562 9.9719 3.13498 6.83789 7.00098 6.83789H26.649C28.7736 6.83789 30.6772 7.78446 31.961 9.2789C33.2448 7.78446 35.1483 6.83789 37.273 6.83789C51.1995 6.83789 65.1261 6.83789 79.0526 6.83789C79.6055 6.83789 80.1434 6.90199 80.6594 7.02317C81.1753 6.90199 81.7132 6.83789 82.2661 6.83789H106.074C111.755 6.83789 117.443 7.82221 121.943 10.6424C122.162 10.7793 122.376 10.92 122.587 11.0644C123.661 8.57796 126.135 6.83789 129.016 6.83789H167.736C171.066 6.83789 173.935 9.18369 174.597 12.4472L175.253 15.6849C176.494 13.7521 178.107 12.0587 180.005 10.6592Z" fill="black"/>
</mask>
<g mask="url(#mask0_2146_79073)">
<path d="M1.98828 -51.5L-388.012 338.5" stroke="black" stroke-width="1.5"/>
<path d="M6.98828 -51.5L-383.012 338.5" stroke="black" stroke-width="1.5"/>
<path d="M11.9883 -51.5L-378.012 338.5" stroke="black" stroke-width="1.5"/>
<path d="M16.9883 -51.5L-373.012 338.5" stroke="black" stroke-width="1.5"/>
<path d="M21.9883 -51.5L-368.012 338.5" stroke="black" stroke-width="1.5"/>
<path d="M26.9883 -51.5L-363.012 338.5" stroke="black" stroke-width="1.5"/>
<path d="M31.9883 -51.5L-358.012 338.5" stroke="black" stroke-width="1.5"/>
<path d="M36.9883 -51.5L-353.012 338.5" stroke="black" stroke-width="1.5"/>
<path d="M41.9883 -51.5L-348.012 338.5" stroke="black" stroke-width="1.5"/>
<path d="M46.9883 -51.5L-343.012 338.5" stroke="black" stroke-width="1.5"/>
<path d="M51.9883 -51.5L-338.012 338.5" stroke="black" stroke-width="1.5"/>
<path d="M56.9883 -51.5L-333.012 338.5" stroke="black" stroke-width="1.5"/>
<path d="M61.9883 -51.5L-328.012 338.5" stroke="black" stroke-width="1.5"/>
<path d="M66.9883 -51.5L-323.012 338.5" stroke="black" stroke-width="1.5"/>
<path d="M71.9883 -51.5L-318.012 338.5" stroke="black" stroke-width="1.5"/>
<path d="M76.9883 -51.5L-313.012 338.5" stroke="black" stroke-width="1.5"/>
<path d="M81.9883 -51.5L-308.012 338.5" stroke="black" stroke-width="1.5"/>
<path d="M86.9883 -51.5L-303.012 338.5" stroke="black" stroke-width="1.5"/>
<path d="M91.9883 -51.5L-298.012 338.5" stroke="black" stroke-width="1.5"/>
<path d="M96.9883 -51.5L-293.012 338.5" stroke="black" stroke-width="1.5"/>
<path d="M101.988 -51.5L-288.012 338.5" stroke="black" stroke-width="1.5"/>
<path d="M106.988 -51.5L-283.012 338.5" stroke="black" stroke-width="1.5"/>
<path d="M111.988 -51.5L-278.012 338.5" stroke="black" stroke-width="1.5"/>
<path d="M116.988 -51.5L-273.012 338.5" stroke="black" stroke-width="1.5"/>
<path d="M121.988 -51.5L-268.012 338.5" stroke="black" stroke-width="1.5"/>
<path d="M126.988 -51.5L-263.012 338.5" stroke="black" stroke-width="1.5"/>
<path d="M131.988 -51.5L-258.012 338.5" stroke="black" stroke-width="1.5"/>
<path d="M136.988 -51.5L-253.012 338.5" stroke="black" stroke-width="1.5"/>
<path d="M141.988 -51.5L-248.012 338.5" stroke="black" stroke-width="1.5"/>
<path d="M146.988 -51.5L-243.012 338.5" stroke="black" stroke-width="1.5"/>
<path d="M151.988 -51.5L-238.012 338.5" stroke="black" stroke-width="1.5"/>
<path d="M156.988 -51.5L-233.012 338.5" stroke="black" stroke-width="1.5"/>
<path d="M161.988 -51.5L-228.012 338.5" stroke="black" stroke-width="1.5"/>
<path d="M166.988 -51.5L-223.012 338.5" stroke="black" stroke-width="1.5"/>
<path d="M171.988 -51.5L-218.012 338.5" stroke="black" stroke-width="1.5"/>
<path d="M176.988 -51.5L-213.012 338.5" stroke="black" stroke-width="1.5"/>
<path d="M181.988 -51.5L-208.012 338.5" stroke="black" stroke-width="1.5"/>
<path d="M186.988 -51.5L-203.012 338.5" stroke="black" stroke-width="1.5"/>
<path d="M191.988 -51.5L-198.012 338.5" stroke="black" stroke-width="1.5"/>
<path d="M196.988 -51.5L-193.012 338.5" stroke="black" stroke-width="1.5"/>
<path d="M201.988 -51.5L-188.012 338.5" stroke="black" stroke-width="1.5"/>
<path d="M206.988 -51.5L-183.012 338.5" stroke="black" stroke-width="1.5"/>
<path d="M211.988 -51.5L-178.012 338.5" stroke="black" stroke-width="1.5"/>
<path d="M216.988 -51.5L-173.012 338.5" stroke="black" stroke-width="1.5"/>
<path d="M221.988 -51.5L-168.012 338.5" stroke="black" stroke-width="1.5"/>
<path d="M226.988 -51.5L-163.012 338.5" stroke="black" stroke-width="1.5"/>
<path d="M231.988 -51.5L-158.012 338.5" stroke="black" stroke-width="1.5"/>
<path d="M236.988 -51.5L-153.012 338.5" stroke="black" stroke-width="1.5"/>
<path d="M241.988 -51.5L-148.012 338.5" stroke="black" stroke-width="1.5"/>
<path d="M246.988 -51.5L-143.012 338.5" stroke="black" stroke-width="1.5"/>
<path d="M251.988 -51.5L-138.012 338.5" stroke="black" stroke-width="1.5"/>
<path d="M256.988 -51.5L-133.012 338.5" stroke="black" stroke-width="1.5"/>
<path d="M261.988 -51.5L-128.012 338.5" stroke="black" stroke-width="1.5"/>
<path d="M266.988 -51.5L-123.012 338.5" stroke="black" stroke-width="1.5"/>
<path d="M271.988 -51.5L-118.012 338.5" stroke="black" stroke-width="1.5"/>
<path d="M276.988 -51.5L-113.012 338.5" stroke="black" stroke-width="1.5"/>
<path d="M281.988 -51.5L-108.012 338.5" stroke="black" stroke-width="1.5"/>
<path d="M286.988 -51.5L-103.012 338.5" stroke="black" stroke-width="1.5"/>
<path d="M291.988 -51.5L-98.0117 338.5" stroke="black" stroke-width="1.5"/>
<path d="M296.988 -51.5L-93.0117 338.5" stroke="black" stroke-width="1.5"/>
<path d="M301.988 -51.5L-88.0117 338.5" stroke="black" stroke-width="1.5"/>
<path d="M306.988 -51.5L-83.0117 338.5" stroke="black" stroke-width="1.5"/>
<path d="M311.988 -51.5L-78.0117 338.5" stroke="black" stroke-width="1.5"/>
<path d="M316.988 -51.5L-73.0117 338.5" stroke="black" stroke-width="1.5"/>
<path d="M321.988 -51.5L-68.0117 338.5" stroke="black" stroke-width="1.5"/>
<path d="M326.988 -51.5L-63.0117 338.5" stroke="black" stroke-width="1.5"/>
<path d="M331.988 -51.5L-58.0117 338.5" stroke="black" stroke-width="1.5"/>
<path d="M336.988 -51.5L-53.0117 338.5" stroke="black" stroke-width="1.5"/>
<path d="M341.988 -51.5L-48.0117 338.5" stroke="black" stroke-width="1.5"/>
<path d="M346.988 -51.5L-43.0117 338.5" stroke="black" stroke-width="1.5"/>
<path d="M351.988 -51.5L-38.0117 338.5" stroke="black" stroke-width="1.5"/>
<path d="M356.988 -51.5L-33.0117 338.5" stroke="black" stroke-width="1.5"/>
<path d="M361.988 -51.5L-28.0117 338.5" stroke="black" stroke-width="1.5"/>
<path d="M366.988 -51.5L-23.0117 338.5" stroke="black" stroke-width="1.5"/>
<path d="M371.988 -51.5L-18.0117 338.5" stroke="black" stroke-width="1.5"/>
<path d="M376.988 -51.5L-13.0117 338.5" stroke="black" stroke-width="1.5"/>
<path d="M381.988 -51.5L-8.01172 338.5" stroke="black" stroke-width="1.5"/>
<path d="M386.988 -51.5L-3.01172 338.5" stroke="black" stroke-width="1.5"/>
<path d="M391.988 -51.5L1.98828 338.5" stroke="black" stroke-width="1.5"/>
<path d="M396.988 -51.5L6.98828 338.5" stroke="black" stroke-width="1.5"/>
<path d="M401.988 -51.5L11.9883 338.5" stroke="black" stroke-width="1.5"/>
<path d="M406.988 -51.5L16.9883 338.5" stroke="black" stroke-width="1.5"/>
<path d="M411.988 -51.5L21.9883 338.5" stroke="black" stroke-width="1.5"/>
<path d="M416.988 -51.5L26.9883 338.5" stroke="black" stroke-width="1.5"/>
<path d="M421.988 -51.5L31.9883 338.5" stroke="black" stroke-width="1.5"/>
<path d="M426.988 -51.5L36.9883 338.5" stroke="black" stroke-width="1.5"/>
<path d="M431.988 -51.5L41.9883 338.5" stroke="black" stroke-width="1.5"/>
<path d="M436.988 -51.5L46.9883 338.5" stroke="black" stroke-width="1.5"/>
<path d="M441.988 -51.5L51.9883 338.5" stroke="black" stroke-width="1.5"/>
<path d="M446.988 -51.5L56.9883 338.5" stroke="black" stroke-width="1.5"/>
<path d="M451.988 -51.5L61.9883 338.5" stroke="black" stroke-width="1.5"/>
<path d="M456.988 -51.5L66.9883 338.5" stroke="black" stroke-width="1.5"/>
<path d="M461.988 -51.5L71.9883 338.5" stroke="black" stroke-width="1.5"/>
<path d="M466.988 -51.5L76.9883 338.5" stroke="black" stroke-width="1.5"/>
<path d="M471.988 -51.5L81.9883 338.5" stroke="black" stroke-width="1.5"/>
<path d="M476.988 -51.5L86.9883 338.5" stroke="black" stroke-width="1.5"/>
<path d="M481.988 -51.5L91.9883 338.5" stroke="black" stroke-width="1.5"/>
<path d="M486.988 -51.5L96.9883 338.5" stroke="black" stroke-width="1.5"/>
<path d="M491.988 -51.5L101.988 338.5" stroke="black" stroke-width="1.5"/>
<path d="M496.988 -51.5L106.988 338.5" stroke="black" stroke-width="1.5"/>
<path d="M501.988 -51.5L111.988 338.5" stroke="black" stroke-width="1.5"/>
<path d="M506.988 -51.5L116.988 338.5" stroke="black" stroke-width="1.5"/>
<path d="M511.988 -51.5L121.988 338.5" stroke="black" stroke-width="1.5"/>
<path d="M516.988 -51.5L126.988 338.5" stroke="black" stroke-width="1.5"/>
<path d="M521.988 -51.5L131.988 338.5" stroke="black" stroke-width="1.5"/>
<path d="M526.988 -51.5L136.988 338.5" stroke="black" stroke-width="1.5"/>
<path d="M531.988 -51.5L141.988 338.5" stroke="black" stroke-width="1.5"/>
<path d="M536.988 -51.5L146.988 338.5" stroke="black" stroke-width="1.5"/>
<path d="M541.988 -51.5L151.988 338.5" stroke="black" stroke-width="1.5"/>
<path d="M546.988 -51.5L156.988 338.5" stroke="black" stroke-width="1.5"/>
<path d="M551.988 -51.5L161.988 338.5" stroke="black" stroke-width="1.5"/>
<path d="M556.988 -51.5L166.988 338.5" stroke="black" stroke-width="1.5"/>
<path d="M561.988 -51.5L171.988 338.5" stroke="black" stroke-width="1.5"/>
<path d="M566.988 -51.5L176.988 338.5" stroke="black" stroke-width="1.5"/>
<path d="M571.988 -51.5L181.988 338.5" stroke="black" stroke-width="1.5"/>
<path d="M576.988 -51.5L186.988 338.5" stroke="black" stroke-width="1.5"/>
<path d="M581.988 -51.5L191.988 338.5" stroke="black" stroke-width="1.5"/>
<path d="M586.988 -51.5L196.988 338.5" stroke="black" stroke-width="1.5"/>
<path d="M591.988 -51.5L201.988 338.5" stroke="black" stroke-width="1.5"/>
<path d="M596.988 -51.5L206.988 338.5" stroke="black" stroke-width="1.5"/>
<path d="M601.988 -51.5L211.988 338.5" stroke="black" stroke-width="1.5"/>
<path d="M606.988 -51.5L216.988 338.5" stroke="black" stroke-width="1.5"/>
<path d="M611.988 -51.5L221.988 338.5" stroke="black" stroke-width="1.5"/>
</g>
</svg>
