<svg width="227" height="80" viewBox="0 0 227 80" fill="none" xmlns="http://www.w3.org/2000/svg">
<path fill-rule="evenodd" clip-rule="evenodd" d="M75.9336 4.56432C74.6721 1.72615 71.4533 0.319749 68.5137 1.32239C66.5196 2.00258 64.1359 2.67632 61.3413 3.33547C58.2179 3.51084 55.606 3.75724 53.6303 4.10836C52.6178 4.2883 51.4934 4.54238 50.4713 4.94969C49.9612 5.15299 49.2501 5.48212 48.5394 6.01554C47.9828 6.43333 47.1463 7.18778 46.5517 8.36784C45.6394 9.95877 44.7647 11.4846 43.9274 12.9454C43.8096 11.0461 42.7953 9.30587 41.1819 8.26942C39.4636 7.1656 37.3018 7.01161 35.4444 7.86071C33.953 8.5425 32.8215 8.99619 32.0081 9.26846C31.6084 9.40225 31.3445 9.47221 31.1949 9.50505H30.3101C30.0438 9.50505 29.2083 9.43305 27.5442 9.11775C27.176 9.04798 26.802 9.01287 26.4272 9.01287C25.3856 9.01287 24.4003 9.04475 23.5262 9.13019C22.8063 9.20055 21.5821 9.35288 20.4049 9.863C18.4556 10.7077 17.0984 12.5201 16.8363 14.6283L16.2348 19.4681C16.2216 19.5739 16.2113 19.6801 16.2038 19.7864C16.0634 21.7787 15.9301 23.3293 15.8069 24.4724C15.309 24.808 14.8289 25.1686 14.3735 25.5573C13.2058 26.2614 12.2353 26.8603 11.4772 27.3467C10.792 27.7864 9.83197 28.4114 9.1746 29.0116C7.92954 30.1484 7.22021 31.7566 7.22021 33.4426V33.5519C7.22021 36.5177 9.37198 38.9809 12.1995 39.4655C12.252 39.5516 12.3067 39.6364 12.3636 39.7198C12.2884 39.7738 12.2138 39.8277 12.1398 39.8815C10.9988 40.6032 10.0945 41.1857 9.4527 41.6152C9.12765 41.8327 8.80004 42.0574 8.52506 42.2621C8.40475 42.3517 8.17708 42.5238 7.93643 42.7391C7.83207 42.8325 7.57266 43.0682 7.29238 43.4033C7.15553 43.5669 6.89522 43.8935 6.64106 44.3502C6.45026 44.6931 5.88037 45.7675 5.88037 47.2785C5.88037 50.5922 8.56666 53.2785 11.8804 53.2785H12.0392C10.8523 54.0349 9.85487 54.6747 9.04875 55.197C7.86008 55.967 6.66967 56.7436 6.11767 57.1996C4.73789 58.3394 3.93896 60.0357 3.93896 61.8254V61.9347C3.93896 63.2869 4.39504 64.5861 5.21359 65.6322C5.04916 66.687 5.16525 67.7886 5.586 68.8208C6.50671 71.0793 8.70304 72.5558 11.1421 72.5558C11.5711 72.5558 12.3904 72.5291 13.3426 72.2344C14.4641 73.4219 16.0369 74.1144 17.7046 74.1144C18.515 74.1144 19.6274 73.9844 20.6434 73.8527C21.7058 73.7149 23.0628 73.5184 24.7001 73.2668H25.2241C27.0284 73.2668 28.5565 73.2322 29.6502 73.1328C29.7892 73.1201 29.9277 73.1026 30.0656 73.0803C33.269 72.5618 35.8788 72.056 37.7601 71.5504C38.6572 71.3092 39.6792 70.9933 40.5846 70.5563C41.0145 70.3488 41.7473 69.9604 42.4593 69.3122C42.8452 68.9609 43.5398 68.2413 44.026 67.1612C44.4038 66.5056 44.7603 65.8775 45.0944 65.2781C45.2485 66.8616 46.0274 68.3287 47.2724 69.3448C48.6685 70.4843 50.503 70.9359 52.2685 70.5747C52.6054 70.5059 52.965 70.4221 53.3379 70.3173C54.3421 71.0463 55.5691 71.4621 56.863 71.4621H56.9724C57.8119 71.4621 58.6421 71.2859 59.4092 70.945C60.2943 70.5516 60.9239 70.4142 61.3371 70.3787C62.9001 70.7252 64.1579 70.9946 65.0926 71.1815C65.5755 71.2781 66.0115 71.3606 66.3766 71.4215L66.4056 71.4263C66.6247 71.4632 67.2689 71.5715 67.9099 71.5715C69.3514 71.5715 70.7294 71.3444 72.0363 70.9329C72.3618 71.3859 72.7524 71.7959 73.2007 72.1483C74.6481 73.2858 76.5376 73.6959 78.3263 73.2608C79.6578 72.937 81.2914 72.1458 82.8376 71.3182L95.3086 69.189C95.3416 69.1834 95.3746 69.1775 95.4075 69.1713C95.431 69.1668 95.4545 69.1623 95.478 69.1576C103.121 67.6256 108.917 66.2302 112.266 64.9189C112.954 64.7607 113.494 64.5484 113.775 64.4374C114.482 64.1575 115.236 63.7942 115.991 63.4014C117.396 62.6699 119.149 61.6531 121.21 60.3892C121.075 60.8588 120.997 61.3466 120.98 61.8424C120.459 62.4787 119.725 63.5959 119.506 65.1331C119.26 66.855 119.773 68.5988 120.913 69.9128C121.023 70.0398 121.138 70.1616 121.257 70.278C121.432 70.4577 121.62 70.6273 121.818 70.7855C123.249 71.9238 125.12 72.3481 126.901 71.938C128.16 71.6481 129.1 71.4365 129.735 71.2992C130.037 71.2339 130.243 71.1914 130.369 71.1667C130.593 71.1379 130.816 71.0963 131.035 71.0422C136.794 69.6252 141.262 68.5742 144.462 67.8807C146.066 67.5332 147.307 67.2853 148.211 67.1273C148.828 67.0193 149.16 66.9771 149.289 66.9607C149.334 66.9551 149.354 66.9513 149.354 66.9513C149.354 66.9513 149.331 66.9504 149.289 66.9504C149.71 66.9504 150.13 66.9061 150.541 66.8183C151.92 66.5241 153.282 66.2857 154.627 66.1022C153.971 67.692 154.025 69.5052 154.808 71.0711L154.917 71.2899C155.933 73.3226 158.011 74.6066 160.284 74.6066C161.68 74.6066 162.896 74.1649 163.611 73.8558C164.906 75.2044 166.789 75.8998 168.711 75.6506C169.867 75.5008 171.363 75.1757 172.789 74.3589C184.737 70.141 193.889 66.1356 199.878 62.2864C204.035 60.0065 207.685 56.5821 210.904 52.3113C211.059 52.1046 211.202 51.8881 211.329 51.6631C213.204 48.3611 214.602 45.0387 215.206 41.7735C217.967 40.203 219.033 36.7363 217.603 33.8765L217.494 33.6577C217.474 33.6183 217.454 33.5792 217.434 33.5404C218.096 31.9744 218.088 30.1433 217.275 28.5171L217.166 28.2983C217.076 28.1176 216.977 27.9434 216.872 27.7759C216.785 27.1344 216.594 26.4981 216.291 25.8921L216.182 25.6733C216.14 25.5909 216.097 25.5098 216.053 25.4301C216.706 24.7184 217.275 23.7721 217.537 22.6229C218.032 20.8945 218.433 19.5659 218.744 18.6062C220.013 17.8612 221.374 16.9294 222.742 15.9453C225.131 14.2254 225.92 11.0256 224.603 8.39208L224.494 8.17333C223.587 6.35833 221.88 5.2004 220.008 4.92109C218.863 3.53302 217.433 2.98434 216.985 2.81568C216.205 2.52122 215.413 2.34974 214.764 2.23748C213.436 2.0076 211.794 1.87609 209.974 1.79943C209.89 1.79589 209.805 1.79412 209.721 1.79412H209.174C208.83 1.79412 208.486 1.8238 208.146 1.88285C206.542 2.1619 205.197 2.36216 204.098 2.49146C203.813 2.52508 203.53 2.57919 203.252 2.65339C199.087 3.76535 195.575 4.94394 192.947 6.24636C192.66 6.38862 192.385 6.55364 192.124 6.73984C191.624 7.09711 190.264 7.94429 187.781 9.38989C187.322 9.65678 186.901 9.9833 186.529 10.3609C185.879 11.0189 185.385 11.4997 185.028 11.8278C184.856 11.986 184.741 12.0853 184.676 12.1398C184.588 12.2 184.502 12.2625 184.417 12.3273C184.79 11.3887 185.149 10.1782 185.149 8.88787V8.23162C185.149 6.97716 184.753 5.25506 183.337 3.83866C182.029 2.53095 180.523 2.16527 179.674 2.05919C179.427 2.02834 179.179 2.01287 178.93 2.01287H178.055C177.692 2.01287 177.33 2.04579 176.973 2.11123L176.622 2.17554C175.778 1.72279 174.814 1.46599 173.789 1.46599C172.418 1.46599 171.28 1.92393 170.727 2.18277C169.396 1.46666 167.806 1.25834 166.27 1.68682C165.364 1.93981 163.924 2.56008 162.519 3.181C161.063 3.82435 159.141 4.69989 156.766 5.8015C154.736 6.10332 151.781 6.66306 148.011 7.44175C146.197 7.65135 144.394 7.91044 143.029 8.30513C142.002 6.35571 139.969 5.10271 137.721 5.10271C136.236 5.10271 134.901 5.57243 134.067 5.91733C132.241 5.06007 130.248 4.66521 128.205 4.66521C126.902 4.66521 125.707 4.70383 124.669 4.80038C124.09 4.85424 123.352 4.942 122.58 5.12474C120.275 5.23453 117.992 5.75094 115.745 6.58818C115.009 6.40747 114.237 6.36583 113.469 6.47504C111.083 6.81458 108.978 7.1185 107.155 7.3866C106.183 5.27603 104.063 3.89959 101.707 3.89959H101.488C100.565 3.89959 99.654 4.11265 98.8265 4.5222C98.5141 4.6768 98.0558 4.89398 97.4498 5.17438C96.0648 3.51814 93.8586 2.70353 91.6707 3.1411L91.1238 3.25048C90.7237 3.3305 90.3329 3.45112 89.9572 3.61047C88.9526 4.0367 86.9005 4.57872 83.4318 5.08945C82.9803 5.05892 82.2426 4.97008 81.148 4.76643C80.7083 4.68462 80.2608 4.65224 79.8139 4.66988C78.6028 4.71768 77.3992 4.92602 76.2176 5.24906C76.1654 5.10124 76.1072 4.95491 76.0429 4.81041L75.9336 4.56432Z" fill="white"/>
<path d="M31.1049 9.52259C31.1049 9.52259 31.1089 9.52184 31.1166 9.52078M68.5137 1.32239C71.4533 0.319749 74.6721 1.72615 75.9336 4.56432L76.0429 4.81041C76.1072 4.95491 76.1654 5.10124 76.2176 5.24906C77.3992 4.92602 78.6028 4.71768 79.8139 4.66988C80.2608 4.65224 80.7083 4.68462 81.148 4.76643C82.2426 4.97008 82.9803 5.05892 83.4318 5.08945C86.9005 4.57872 88.9526 4.0367 89.9572 3.61047C90.3329 3.45112 90.7237 3.3305 91.1238 3.25048L91.6707 3.1411C93.8586 2.70353 96.0648 3.51814 97.4498 5.17438C98.0558 4.89398 98.5141 4.6768 98.8265 4.5222C99.654 4.11265 100.565 3.89959 101.488 3.89959H101.707C104.063 3.89959 106.183 5.27603 107.155 7.3866C108.978 7.1185 111.083 6.81458 113.469 6.47504C114.237 6.36583 115.009 6.40747 115.745 6.58818C117.992 5.75094 120.275 5.23453 122.58 5.12474C123.352 4.942 124.09 4.85424 124.669 4.80038C125.707 4.70383 126.902 4.66521 128.205 4.66521C130.248 4.66521 132.241 5.06007 134.067 5.91733C134.901 5.57243 136.236 5.10271 137.721 5.10271C139.969 5.10271 142.002 6.35571 143.029 8.30513C144.394 7.91044 146.197 7.65135 148.011 7.44175C151.781 6.66306 154.736 6.10332 156.766 5.8015C159.141 4.69989 161.063 3.82435 162.519 3.181C163.924 2.56008 165.364 1.93981 166.27 1.68682C167.806 1.25834 169.396 1.46666 170.727 2.18277C171.28 1.92393 172.418 1.46599 173.789 1.46599C174.814 1.46599 175.778 1.72279 176.622 2.17554L176.973 2.11123C177.33 2.04579 177.692 2.01287 178.055 2.01287H178.93C179.179 2.01287 179.427 2.02834 179.674 2.05919C180.523 2.16527 182.029 2.53095 183.337 3.83866C184.753 5.25506 185.149 6.97716 185.149 8.23162V8.88787C185.149 10.1782 184.79 11.3887 184.417 12.3273C184.502 12.2625 184.588 12.2 184.676 12.1398C184.741 12.0853 184.856 11.986 185.028 11.8278C185.385 11.4997 185.879 11.0189 186.529 10.3609C186.901 9.9833 187.322 9.65678 187.781 9.38989C190.264 7.94429 191.624 7.09711 192.124 6.73984C192.385 6.55364 192.66 6.38862 192.947 6.24636C195.575 4.94394 199.087 3.76535 203.252 2.65339C203.53 2.57919 203.813 2.52508 204.098 2.49146C205.197 2.36216 206.542 2.1619 208.146 1.88285C208.486 1.8238 208.83 1.79412 209.174 1.79412H209.721C209.805 1.79412 209.89 1.79589 209.974 1.79943C211.794 1.87609 213.436 2.0076 214.764 2.23748C215.413 2.34974 216.205 2.52122 216.985 2.81568C217.433 2.98434 218.863 3.53302 220.008 4.92109C221.88 5.2004 223.587 6.35833 224.494 8.17333L224.603 8.39208C225.92 11.0256 225.131 14.2254 222.742 15.9453C221.374 16.9294 220.013 17.8612 218.744 18.6062C218.433 19.5659 218.032 20.8945 217.537 22.6229C217.275 23.7721 216.706 24.7184 216.053 25.4301C216.097 25.5098 216.14 25.5909 216.182 25.6733L216.291 25.8921C216.594 26.4981 216.785 27.1344 216.872 27.7759C216.977 27.9434 217.076 28.1176 217.166 28.2983L217.275 28.5171C218.088 30.1433 218.096 31.9744 217.434 33.5404C217.454 33.5792 217.474 33.6183 217.494 33.6577L217.603 33.8765C219.033 36.7363 217.967 40.203 215.206 41.7735C214.602 45.0387 213.204 48.3611 211.329 51.6631C211.202 51.8881 211.059 52.1046 210.904 52.3113C207.685 56.5821 204.035 60.0065 199.878 62.2864C193.889 66.1356 184.737 70.141 172.789 74.3589C171.363 75.1757 169.867 75.5008 168.711 75.6506C166.789 75.8998 164.906 75.2044 163.611 73.8558C162.896 74.1649 161.68 74.6066 160.284 74.6066C158.011 74.6066 155.933 73.3226 154.917 71.2899L154.808 71.0711C154.025 69.5052 153.971 67.692 154.627 66.1022C153.282 66.2857 151.92 66.5241 150.541 66.8183C150.13 66.9061 149.71 66.9504 149.289 66.9504C149.331 66.9504 149.354 66.9513 149.354 66.9513C149.354 66.9513 149.334 66.9551 149.289 66.9607C149.16 66.9771 148.828 67.0193 148.211 67.1273C147.307 67.2853 146.066 67.5332 144.462 67.8807C141.262 68.5742 136.794 69.6252 131.035 71.0422C130.816 71.0963 130.593 71.1379 130.369 71.1667C130.243 71.1914 130.037 71.2339 129.735 71.2992C129.1 71.4365 128.16 71.6481 126.901 71.938C125.12 72.3481 123.249 71.9238 121.818 70.7855C121.62 70.6273 121.432 70.4577 121.257 70.278C121.138 70.1616 121.023 70.0398 120.913 69.9128C119.773 68.5988 119.26 66.855 119.506 65.1331C119.725 63.5959 120.459 62.4787 120.98 61.8424C120.997 61.3466 121.075 60.8588 121.21 60.3892C119.149 61.6531 117.396 62.6699 115.991 63.4014C115.236 63.7942 114.482 64.1575 113.775 64.4374C113.494 64.5484 112.954 64.7607 112.266 64.9189C108.917 66.2302 103.121 67.6256 95.478 69.1576C95.4545 69.1623 95.431 69.1668 95.4075 69.1713C95.3746 69.1775 95.3416 69.1834 95.3086 69.189L82.8376 71.3182C81.2914 72.1458 79.6578 72.937 78.3263 73.2608C76.5376 73.6959 74.6481 73.2858 73.2007 72.1483C72.7524 71.7959 72.3618 71.3859 72.0363 70.9329C70.7294 71.3444 69.3514 71.5715 67.9099 71.5715C67.2689 71.5715 66.6247 71.4632 66.4056 71.4263L66.3766 71.4215C66.0115 71.3606 65.5755 71.2781 65.0926 71.1815C64.1579 70.9946 62.9001 70.7252 61.3371 70.3787C60.9239 70.4142 60.2943 70.5516 59.4092 70.945C58.6421 71.2859 57.8119 71.4621 56.9724 71.4621H56.863C55.5691 71.4621 54.3421 71.0463 53.3379 70.3173C52.965 70.4221 52.6054 70.5059 52.2685 70.5747C50.503 70.9359 48.6685 70.4843 47.2724 69.3448C46.0274 68.3287 45.2485 66.8616 45.0944 65.2781C44.7603 65.8775 44.4038 66.5056 44.026 67.1612C43.5398 68.2413 42.8452 68.9609 42.4593 69.3122C41.7473 69.9604 41.0145 70.3488 40.5846 70.5563C39.6792 70.9933 38.6572 71.3092 37.7601 71.5504C35.8788 72.056 33.269 72.5618 30.0656 73.0803C29.9277 73.1026 29.7892 73.1201 29.6502 73.1328C28.5565 73.2322 27.0284 73.2668 25.2241 73.2668H24.7001C23.0628 73.5184 21.7058 73.7149 20.6434 73.8527C19.6274 73.9844 18.515 74.1144 17.7046 74.1144C16.0369 74.1144 14.4641 73.4219 13.3426 72.2344C12.3904 72.5291 11.5711 72.5558 11.1421 72.5558C8.70304 72.5558 6.50671 71.0793 5.586 68.8208C5.16525 67.7886 5.04916 66.687 5.21359 65.6322C4.39504 64.5861 3.93896 63.2869 3.93896 61.9347V61.8254C3.93896 60.0357 4.73789 58.3394 6.11767 57.1996C6.66967 56.7436 7.86008 55.967 9.04875 55.197C9.85487 54.6747 10.8523 54.0349 12.0392 53.2785H11.8804C8.56666 53.2785 5.88037 50.5922 5.88037 47.2785C5.88037 45.7675 6.45026 44.6931 6.64106 44.3502C6.89522 43.8935 7.15553 43.5669 7.29238 43.4033C7.57266 43.0682 7.83207 42.8325 7.93643 42.7391C8.17708 42.5238 8.40475 42.3517 8.52506 42.2621C8.80004 42.0574 9.12765 41.8327 9.4527 41.6152C10.0945 41.1857 10.9988 40.6032 12.1398 39.8815C12.2138 39.8277 12.2884 39.7738 12.3636 39.7198C12.3067 39.6364 12.252 39.5516 12.1995 39.4655C9.37198 38.9809 7.22021 36.5177 7.22021 33.5519V33.4426C7.22021 31.7566 7.92954 30.1484 9.1746 29.0116C9.83197 28.4114 10.792 27.7864 11.4772 27.3467C12.2353 26.8603 13.2058 26.2614 14.3735 25.5573C14.8289 25.1686 15.309 24.808 15.8069 24.4724C15.9301 23.3293 16.0634 21.7787 16.2038 19.7864C16.2113 19.6801 16.2216 19.5739 16.2348 19.4681L16.8363 14.6283C17.0984 12.5201 18.4556 10.7077 20.4049 9.863C21.5821 9.35288 22.8063 9.20055 23.5262 9.13019C24.4003 9.04475 25.3856 9.01287 26.4272 9.01287C26.802 9.01287 27.176 9.04798 27.5442 9.11775C29.2083 9.43305 30.0438 9.50505 30.3101 9.50505H31.1949C31.3445 9.47221 31.6084 9.40225 32.0081 9.26846C32.8215 8.99619 33.953 8.5425 35.4444 7.86071C37.3018 7.01161 39.4636 7.1656 41.1819 8.26942C42.7953 9.30587 43.8096 11.0461 43.9274 12.9454C44.7647 11.4846 45.6394 9.95877 46.5517 8.36784C47.1463 7.18778 47.9828 6.43333 48.5394 6.01554C49.2501 5.48212 49.9612 5.15299 50.4713 4.94969C51.4934 4.54238 52.6178 4.2883 53.6303 4.10836C55.606 3.75724 58.2179 3.51084 61.3413 3.33547C64.1359 2.67632 66.5196 2.00258 68.5137 1.32239Z" stroke="black" stroke-width="2" stroke-linejoin="round"/>
<path fill-rule="evenodd" clip-rule="evenodd" d="M70.5601 7.24707L70.4507 7.00098C68.0991 7.80306 65.3465 8.56868 62.1929 9.29785C55.6121 9.64421 52.1759 10.2549 51.8843 11.1299C40.7827 30.4893 35.2046 40.2692 35.1499 40.4697H35.0405V40.3604C35.2046 37.863 35.5236 35.3929 35.9976 32.9502C36.3257 27.682 36.6082 24.6559 36.8452 23.8721V23.7354H36.7358C35.0041 24.7015 29.909 28.0192 21.4507 33.6885C19.0444 35.0192 17.6681 35.8669 17.3218 36.2314V36.3408C18.616 35.9398 19.7918 35.4202 20.8491 34.7822C20.4481 38.8473 20.1655 41.2262 20.0015 41.9189C18.2515 42.958 16.7567 43.9333 15.5171 44.8447C13.0926 46.376 11.8804 47.1872 11.8804 47.2783H12.1265L19.8921 43.751V44.5986L19.0444 52.4736C19.0444 55.1533 18.7528 56.4932 18.1694 56.4932C13.1017 59.7015 10.3582 61.4788 9.93896 61.8252V61.9346L10.5405 61.8252C14.0405 60.057 19.6642 57.5049 27.4116 54.1689L35.7788 50.4229H35.8882V50.5322C32.133 52.7744 26.4364 56.4932 18.7983 61.6885C14.5145 64.1312 11.9624 65.7536 11.1421 66.5557C11.4155 66.5557 11.616 66.5101 11.7437 66.4189C15.7176 64.5596 17.8231 63.6299 18.0601 63.6299L17.5679 67.8955L17.7046 68.1143C18.4155 68.1143 20.5939 67.8317 24.2397 67.2666H25.2241C27.0106 67.2666 28.3048 67.2301 29.1069 67.1572C35.4142 66.1364 38.5679 65.2887 38.5679 64.6143C40.1538 61.8799 41.284 59.7744 41.9585 58.2979C47.0991 55.0348 49.8426 53.221 50.189 52.8564C49.952 52.8564 47.7736 53.8226 43.6538 55.7549H43.5171V55.6455L47.8921 48.126C48.9494 45.5921 49.715 44.2523 50.189 44.1064C51.4468 43.6143 52.3765 43.0492 52.978 42.4111C55.9312 40.6064 57.4259 39.6403 57.4624 39.5127V39.376C57.3166 39.376 55.2567 40.3057 51.2827 42.165H51.1733V41.8096C52.6134 39.5127 53.7072 37.6169 54.4546 36.1221C57.4989 34.2809 61.5822 31.6468 66.7046 28.2197V28.1104C65.6291 28.4567 64.7358 28.8577 64.0249 29.3135L45.3491 37.5713H45.2397V37.4346C50.1981 34.4085 55.6942 30.8174 61.728 26.6611C64.3895 25.1846 66.2853 23.9723 67.4155 23.0244C66.4312 23.152 65.5015 23.5531 64.6265 24.2275L60.1421 26.1689H60.0327C60.1056 26.0049 60.1421 25.8864 60.1421 25.8135C62.0562 22.6781 65.5288 16.4893 70.5601 7.24707ZM60.9897 13.5635C58.547 14.9307 56.2866 15.8968 54.2085 16.4619V16.2158C55.9767 14.8486 58.9207 13.4723 63.0405 12.0869V12.2236C62.9312 12.4242 62.2476 12.8708 60.9897 13.5635ZM37.939 13.5635V13.3174C34.7489 14.7757 32.5705 15.5049 31.4038 15.5049H30.3101C29.4533 15.5049 28.159 15.3408 26.4272 15.0127C24.5496 15.0127 23.3374 15.1312 22.7905 15.3682L22.189 20.208C21.8062 25.6403 21.4416 28.3564 21.0952 28.3564C19.7645 28.9945 18.7163 29.6781 17.9507 30.4072C15.2163 32.0479 13.6395 33.0596 13.2202 33.4424V33.5518C13.4572 33.5518 13.7397 33.4697 14.0679 33.3057C16.4194 32.0843 24.0119 28.6572 36.8452 23.0244C37.3374 17.9749 37.702 14.8213 37.939 13.5635ZM49.478 24.2275H49.3413C49.3413 24.1911 49.5054 23.9906 49.8335 23.626C51.7476 22.4046 53.8895 21.4749 56.2593 20.8369H56.396V20.9463C54.3543 22.2952 52.0483 23.389 49.478 24.2275ZM24.6226 46.4033H24.4858C25.1056 45.4554 27.4116 44.3252 31.4038 43.0127V43.1494C30.0002 44.4255 27.7397 45.5101 24.6226 46.4033ZM25.9351 50.0674V49.9307C26.1356 49.5296 27.2658 48.8005 29.3257 47.7432C34.6121 45.027 38.258 43.4958 40.2632 43.1494V43.3955C37.1278 45.1273 35.5509 46.057 35.5327 46.1846C32.9442 47.6064 29.745 48.9007 25.9351 50.0674ZM29.2163 60.9775H29.1069C30.1278 59.738 32.9989 58.3161 37.7202 56.7119H38.0757V56.8486C36.4533 57.9059 34.8765 58.79 33.3452 59.501C31.0848 60.2119 29.7085 60.7041 29.2163 60.9775ZM167.883 7.46582C167.391 7.93978 165.677 9.03353 162.742 10.7471C159.953 12.807 157.802 14.1924 156.289 14.9033C155.852 15.2679 155.633 15.4867 155.633 15.5596H155.742C158.659 14.32 164.456 11.695 173.133 7.68457C173.425 7.53874 173.643 7.46582 173.789 7.46582V7.5752C172.258 8.54134 171.492 9.08822 171.492 9.21582L178.055 8.0127H178.93C179.076 8.03092 179.149 8.10384 179.149 8.23145V8.8877C179.149 9.7627 178.274 11.5492 176.524 14.2471C174.719 15.2497 172.24 16.8174 169.086 18.9502H168.977V19.0596H169.305C169.779 18.6585 171.237 18.0023 173.68 17.0908C176.505 15.5596 178.183 14.7939 178.711 14.7939V15.0127C175.284 17.0361 173.571 18.2757 173.571 18.7314C173.425 19.4606 173.352 19.9346 173.352 20.1533C173.352 20.1898 173.388 20.6637 173.461 21.5752C173.461 21.8304 171.529 22.1585 167.664 22.5596C166.935 22.7783 164.164 23.2523 159.352 23.9814C158.732 24.2731 157.091 24.6012 154.43 24.9658C153.847 25.9137 153.227 27.7731 152.571 30.5439L169.524 28.2471V28.3564C169.25 28.7575 168.047 29.5231 165.914 30.6533C164.839 31.6012 163.526 32.4762 161.977 33.2783V33.3877H162.196C162.487 32.9684 164.164 32.2393 167.227 31.2002C170.964 29.4502 172.896 28.5752 173.024 28.5752H173.133C172.86 28.9215 171.948 29.5049 170.399 30.3252C169.761 31.4736 169.433 32.2393 169.414 32.6221H169.524C170.508 32.0387 171.164 31.7471 171.492 31.7471V31.8564C171.492 31.9476 170.545 32.5674 168.649 33.7158C167.774 34.7731 167.154 36.3408 166.789 38.4189C166.789 38.583 162.633 39.2757 154.321 40.4971C151.623 40.9346 150.274 41.2262 150.274 41.3721L147.649 48.1533C147.649 48.2262 147.612 48.3356 147.539 48.4814C149.253 48.3356 151.039 48.0439 152.899 47.6064V47.7158C152.206 48.3538 151.076 49.1195 149.508 50.0127H149.617C150.839 49.3747 153.683 48.1351 158.149 46.2939L169.742 41.0439H169.852C169.615 41.3538 168.229 42.2653 165.696 43.7783C165.149 44.2523 164.018 45.0179 162.305 46.0752H162.414C166.352 45.4919 168.685 45.0908 169.414 44.8721L169.524 45.0908V45.3096C169.524 46.6403 168.175 48.4632 165.477 50.7783C165.331 50.7783 164.456 51.6533 162.852 53.4033C161.102 54.3148 158.841 55.7367 156.071 57.6689V57.7783C157.128 57.0856 159.972 55.8096 164.602 53.9502C167.701 52.4189 169.414 51.6533 169.742 51.6533C169.268 52.0726 167.992 52.8747 165.914 54.0596C165.021 54.8252 163.636 55.7731 161.758 56.9033V57.8877C161.758 59.0544 161.612 59.6377 161.321 59.6377C157.401 59.6377 153.391 60.0752 149.289 60.9502C147.722 60.9502 141.159 62.3721 129.602 65.2158C129.438 65.2158 128.089 65.5075 125.555 66.0908C125.555 66.0179 125.518 65.9814 125.446 65.9814C125.518 65.471 126.831 64.5596 129.383 63.2471C133.448 60.4216 136.146 58.6716 137.477 57.9971L137.696 57.6689H137.586C137.276 57.9242 135.854 58.5439 133.321 59.5283C131.005 60.8408 128.927 61.7887 127.086 62.3721L126.977 62.1533V62.0439C128.344 60.7497 130.604 59.182 133.758 57.3408H133.649L128.071 59.8564C127.998 59.7106 127.961 59.6012 127.961 59.5283C129.438 56.1012 130.276 53.9137 130.477 52.9658C131.625 52.4189 135.271 50.0856 141.414 45.9658H141.305C140.375 46.458 138.88 47.1143 136.821 47.9346C135.052 48.9554 133.375 49.721 131.789 50.2314C131.789 50.1585 131.753 50.1221 131.68 50.1221C133.211 46.4398 133.977 44.5075 133.977 44.3252H133.758C132.518 45.0544 131.461 45.5283 130.586 45.7471V45.6377C134.815 43.0127 138.607 40.4971 141.961 38.0908C142.781 37.6533 143.255 37.4346 143.383 37.4346V37.3252H143.274C143.018 37.3252 140.539 38.4554 135.836 40.7158C133.047 41.7731 130.349 42.9398 127.742 44.2158C127.505 44.3617 127.287 44.4346 127.086 44.4346H126.991C126.266 44.8646 125.395 45.3477 124.377 45.8838C123.666 46.613 123.156 46.9775 122.846 46.9775V47.0869H122.955L128.533 44.8994C130.739 43.5869 132.161 42.9307 132.799 42.9307H132.908C132.689 43.1859 131.632 43.8786 129.736 45.0088C128.041 46.3031 126.619 47.2145 125.471 47.7432C124.723 49.9124 122.426 52.3187 118.58 54.9619C114.096 57.7327 111.434 59.1182 110.596 59.1182C108.098 60.2119 102.666 61.5973 94.2988 63.2744L80.8457 65.5713C78.8952 66.6468 77.5827 67.2666 76.9082 67.4307V67.3213C77.5645 66.7744 79.2415 65.7171 81.9395 64.1494C92.0931 57.514 97.1973 54.1963 97.252 54.1963H97.0332C96.0124 54.7979 93.679 55.8187 90.0332 57.2588L83.1426 60.4307L83.0332 60.2119C83.3613 59.8473 83.8353 58.4255 84.4551 55.9463C84.6374 55.6911 86.8249 54.2692 91.0176 51.6807C92.4577 50.7327 93.1869 50.2223 93.2051 50.1494H93.0957C83.5922 54.3252 77.6431 57.0081 75.2483 58.1982L73.2693 63.6025C71.5193 64.915 69.7328 65.5713 67.9099 65.5713C67.5453 65.5713 65.7224 65.2067 62.4412 64.4775C62.1677 64.4046 61.8761 64.3682 61.5662 64.3682C60.1443 64.3682 58.613 64.7327 56.9724 65.4619H56.863C57.4828 64.8057 59.4151 63.5661 62.6599 61.7432C62.7693 61.5609 65.9412 59.4463 72.1755 55.3994H72.0662L57.0818 62.1807C56.5896 62.1807 55.2042 62.8005 52.9255 64.04C52.488 64.3135 51.8682 64.5322 51.0662 64.6963V64.5869C54.4568 62.29 56.7172 60.8317 57.8474 60.2119C58.7953 57.1494 60.8005 51.5713 63.863 43.4775H63.6443C63.0974 43.8786 61.7485 44.4619 59.5974 45.2275C57.4099 46.4671 56.0245 47.0869 55.4412 47.0869C61.074 43.4958 66.8344 39.7406 72.7224 35.8213C73.8162 35.3473 75.4932 34.29 77.7537 32.6494C75.5662 33.5244 72.613 34.8369 68.8943 36.5869C66.8708 37.4072 64.6104 38.4281 62.113 39.6494L61.4568 39.7588L66.3787 36.3682L68.7849 29.8057H68.6755C67.6 30.4801 66.0323 31.1729 63.9724 31.8838V31.7744C64.7563 31.0452 66.6521 29.8421 69.6599 28.165C71.5011 26.7614 73.725 25.2666 76.3318 23.6807H76.2224L71.738 25.7588C71.6833 25.9411 71.1365 26.1598 70.0974 26.415C70.0974 26.3421 70.061 26.3057 69.988 26.3057C70.2797 25.6494 71.1182 23.2796 72.5037 19.1963L75.238 11.9775C77.061 11.1572 78.6651 10.7197 80.0505 10.665C81.6182 10.9567 82.8578 11.1025 83.7693 11.1025C87.6521 10.5557 90.4958 9.89941 92.3005 9.13379L92.8474 9.02441L92.9568 9.24316C92.3552 11.9411 91.5531 13.29 90.5505 13.29C87.5427 15.3499 85.3188 16.7718 83.8787 17.5557V17.7744C93.8136 13.4176 99.6833 10.7926 101.488 9.89941H101.707C101.014 10.4645 99.2276 11.5947 96.3474 13.29C94.7615 14.5114 92.8292 15.8239 90.5505 17.2275C89.6208 18.1025 89.1104 19.014 89.0193 19.9619C89.0193 20.1989 88.9828 20.3812 88.9099 20.5088H89.0193C89.7849 20.0713 91.2068 19.4515 93.2849 18.6494C94.6339 17.7562 95.8735 17.1729 97.0037 16.8994V17.0088C96.3656 17.665 94.6521 18.7588 91.863 20.29C88.0896 22.9697 85.2094 24.8291 83.2224 25.8682L82.8943 26.3057H83.0037C84.2068 25.5765 85.6651 24.9202 87.3787 24.3369C87.3787 24.4098 87.4151 24.4463 87.488 24.4463C87.1926 25.0699 86.8119 26.0678 86.3458 27.44C86.8113 27.1543 87.3113 26.8491 87.8457 26.5244C93.1686 22.8057 96.3405 20.764 97.3613 20.3994C97.6165 20.3994 98.3457 18.5036 99.5488 14.7119C100.169 14.4932 105.09 13.7275 114.314 12.415V12.5244C114.132 12.7432 112.856 13.5817 110.486 15.04L108.08 16.6807H108.189C108.718 16.2796 110.395 15.5505 113.221 14.4932C116.939 12.2327 120.367 11.1025 123.502 11.1025C124.231 10.8109 125.799 10.665 128.205 10.665C130.247 10.665 131.924 11.2848 133.236 12.5244C133.528 12.6702 133.674 12.7796 133.674 12.8525C135.661 11.6859 137.01 11.1025 137.721 11.1025C136.973 11.7223 135.77 12.488 134.111 13.3994C132.708 14.6208 131.249 15.6051 129.736 16.3525L129.627 16.5713H129.736L133.564 14.8213C135.205 14.0192 136.481 13.4723 137.393 13.1807V13.29L126.127 20.7275H126.236C126.984 20.3083 128.843 19.5062 131.814 18.3213C131.833 18.2484 132.781 17.7744 134.658 16.8994L134.768 17.1182C134.476 19.3604 133.929 21.2926 133.127 22.915C132.507 24.5374 130.611 26.9801 127.439 30.2432C126.291 30.8994 125.416 31.5921 124.814 32.3213C124.814 32.4671 125.252 32.7588 126.127 33.1963C126.838 33.889 127.275 34.4723 127.439 34.9463C128.333 34.5088 128.916 34.29 129.189 34.29C128.661 34.8187 127.275 35.6937 125.033 36.915C123.083 38.3369 121.661 39.2848 120.768 39.7588V39.8682H120.877C123.484 38.9202 127.531 37.1702 133.018 34.6182C133.801 34.1077 134.385 33.8525 134.768 33.8525C134.658 34.0348 132.507 35.4567 128.314 38.1182V39.4307L127.33 43.5869C128.479 42.9307 129.171 42.6025 129.408 42.6025V42.7119C129.331 42.7958 129.238 42.8855 129.128 42.9812C133.47 40.1769 137.347 37.5989 140.758 35.2471L143.492 33.6064H143.274C139.427 35.4294 137.422 36.3408 137.258 36.3408L137.149 36.1221C137.44 35.6663 138.279 33.3695 139.664 29.2314C140.466 27.6273 140.867 26.6064 140.867 26.1689H140.758C139.518 26.8617 138.279 27.4085 137.039 27.8096V27.7002C137.841 26.9346 140.175 25.4398 144.039 23.2158L151.039 18.5127H150.93L133.867 26.1689C133.722 26.2419 133.612 26.2783 133.539 26.2783V26.0596C140.175 21.9398 143.492 19.7158 143.492 19.3877C143.857 17.9294 144.185 16.1794 144.477 14.1377C145.206 13.8825 146.701 13.6273 148.961 13.3721C153.537 12.4242 156.709 11.8408 158.477 11.6221C163.964 9.06999 167.099 7.68457 167.883 7.46582ZM93.0957 46.4307C82.8012 53.0273 76.8839 56.8629 75.3438 57.9375L78.9568 48.0713C80.2798 47.3363 82.1444 46.1475 84.5505 44.5051C85.7562 44.1088 87.6931 43.1829 90.3613 41.7275C92.9863 40.7796 94.5905 40.0869 95.1738 39.6494H95.2832L92.1113 41.8369C90.0879 43.0036 88.9941 43.7327 88.8301 44.0244C88.1556 46.4307 87.6452 47.9255 87.2988 48.5088C87.2988 48.5817 87.3353 48.6911 87.4082 48.8369L92.9863 46.3213H93.0957V46.4307ZM90.3613 40.415C88.9407 41.2043 86.8957 42.5167 84.2263 44.3521C83.5499 44.6617 82.559 45.1358 81.2537 45.7744C76.8057 47.5244 74.2537 48.6182 73.5974 49.0557H73.488V48.9463C74.4906 48.29 75.0375 47.9619 75.1287 47.9619C77.5167 46.3213 79.1938 45.264 80.1599 44.79C81.1078 41.7822 82.8214 37.0791 85.3005 30.6807C85.5407 29.9057 85.7663 29.195 85.9772 28.5485C86.8609 28.1292 87.8848 27.6368 89.0488 27.0713C93.1686 25.4854 95.5384 24.4645 96.1582 24.0088H96.2676C95.8301 25.2119 95.6113 25.8682 95.6113 25.9775C94.3717 26.6338 92.0384 28.1286 88.6113 30.4619V30.5713L89.0488 30.4619C91.4369 29.2952 97.1973 26.7067 106.33 22.6963H106.439L95.9395 29.6963C94.4811 30.4072 93.7155 30.9176 93.6426 31.2275C91.4551 37.1156 90.3613 40.1781 90.3613 40.415ZM151.477 21.0283C153.373 20.5179 155.67 19.57 158.367 18.1846C158.659 17.9294 159.498 17.4554 160.883 16.7627C160.883 16.6533 160.956 16.5075 161.102 16.3252H160.992C159.005 16.9085 156.563 17.9658 153.664 19.4971C152.443 20.1715 151.714 20.609 151.477 20.8096V21.0283ZM157.055 21.5752V21.6846H157.274C158.933 21.1377 160.354 20.5544 161.539 19.9346L163.617 18.6221H163.508C161.94 18.859 159.789 19.8434 157.055 21.5752ZM147.43 37.5439H147.649C149.69 36.9606 151.623 36.0856 153.446 34.9189C153.81 34.7002 153.992 34.5544 153.992 34.4814H153.774C153.045 34.8278 151.659 35.3747 149.617 36.1221L147.43 37.5439ZM136.164 54.7158V54.8252C138.406 54.0596 139.646 53.5856 139.883 53.4033C140.521 53.1846 142.016 52.346 144.367 50.8877H144.149C141.542 51.8538 139.792 52.5466 138.899 52.9658L136.164 54.7158ZM209.174 7.79395H209.721C213.185 7.93978 215.081 8.2679 215.409 8.77832V9.10645C215.099 10.7106 214.661 11.5127 214.096 11.5127C208.919 14.7939 206.331 16.471 206.331 16.5439H206.44C207.023 16.1611 209.138 15.2497 212.784 13.8096L219.127 10.8564L219.237 11.0752C216.831 12.807 215.117 13.8643 214.096 14.2471C213.823 14.2471 213.021 16.5804 211.69 21.2471C211.69 21.4658 211.289 21.5752 210.487 21.5752H210.268C209.794 21.5752 209.32 21.5387 208.846 21.4658C205.893 21.8304 203.633 22.4867 202.065 23.4346C198.93 25.2028 197.362 26.6976 197.362 27.9189C198 29.1585 198.838 29.7783 199.877 29.7783L204.69 31.0908H204.799C204.909 31.0908 206.914 30.1794 210.815 28.3564L210.924 28.5752C210.086 29.195 205.638 32.1117 197.581 37.3252H197.69C198.802 36.6143 201.135 35.5934 204.69 34.2627L211.799 30.9814L211.909 31.2002L208.846 33.0596C209.43 34.445 209.721 35.3564 209.721 35.7939C209.648 36.2132 208.737 36.9424 206.987 37.9814C206.786 38.2367 205.911 38.7835 204.362 39.6221V39.7314H204.471C205.747 39.221 208.153 38.1273 211.69 36.4502L212.127 36.3408L212.237 36.5596C210.414 37.5257 209.502 38.4007 209.502 39.1846C209.302 41.9007 208.172 45.0726 206.112 48.7002C203.213 52.5466 200.114 55.3538 196.815 57.1221C191.346 60.6768 182.45 64.6143 170.127 68.9346C169.653 69.3174 168.924 69.5726 167.94 69.7002L167.831 69.4814C169.526 68.4424 171.859 66.9111 174.831 64.8877C176.143 64.2497 176.945 63.7393 177.237 63.3564C175.469 64.0856 172.88 65.2523 169.471 66.8564L168.815 67.0752L168.706 66.8564V66.6377C169.216 65.7627 169.471 65.07 169.471 64.5596H169.362C168.614 65.1064 166.609 65.9814 163.346 67.1846C161.833 68.1325 160.812 68.6064 160.284 68.6064L160.174 68.3877C160.284 68.3877 162.18 67.1481 165.862 64.6689C173.664 59.9294 179.497 56.2106 183.362 53.5127H183.471V53.4033H183.362C182.906 53.4033 179.042 55.0804 171.768 58.4346L171.659 58.2158C172.917 53.9137 173.755 51.7627 174.174 51.7627C175.25 51.7627 179.588 50.3773 187.19 47.6064C189.815 46.2757 191.127 45.1455 191.127 44.2158C191.127 42.7939 189.45 41.8096 186.096 41.2627C183.325 40.7341 181.94 40.2236 181.94 39.7314C181.685 39.5856 181.502 39.3669 181.393 39.0752C179.388 40.096 177.456 40.971 175.596 41.7002L175.487 41.4814C178.185 39.8044 183.325 36.4502 190.909 31.4189C192.148 30.7627 192.768 30.3981 192.768 30.3252H192.659C180.901 35.4111 174.12 38.4736 172.315 39.5127C172.242 39.5127 172.133 39.5492 171.987 39.6221L171.877 39.4033C173.755 38.4007 174.776 37.708 174.94 37.3252L178.987 34.9189L180.409 33.8252V33.4971C180.409 31.7288 180.846 30.708 181.721 30.4346C183.581 29.1585 185.185 28.1377 186.534 27.3721V27.2627C185.677 27.5544 184.036 28.2835 181.612 29.4502C181.539 29.4502 181.43 29.4867 181.284 29.5596L181.174 29.3408C181.612 28.0101 181.831 27.2809 181.831 27.1533H181.721C181.174 27.445 180.008 27.9554 178.221 28.6846C176.398 29.7783 175.195 30.3252 174.612 30.3252L174.502 30.1064C175.286 29.7601 177.292 28.484 180.518 26.2783C180.773 26.2783 182.888 24.8929 186.862 22.1221C190.581 19.8617 192.44 18.695 192.44 18.6221C190.818 19.2783 188.484 20.3356 185.44 21.7939C185.075 21.9398 184.784 22.0127 184.565 22.0127L184.456 21.7939C185.221 20.4814 186.424 18.9137 188.065 17.0908C188.521 16.7992 189.432 15.9606 190.799 14.5752C193.242 13.1533 194.846 12.1689 195.612 11.6221C197.708 10.583 200.771 9.52572 204.799 8.4502C206.039 8.30436 207.497 8.08561 209.174 7.79395ZM195.393 15.9971H195.612C196.305 15.6507 197.653 15.1403 199.659 14.4658C201.062 13.7184 202.338 12.9528 203.487 12.1689H203.268C202.575 12.5153 201.226 13.0257 199.221 13.7002L195.393 15.9971ZM192.44 23.3252H192.549C195.193 22.7419 198.401 21.2835 202.174 18.9502C202.174 18.7861 202.357 18.6768 202.721 18.6221V18.5127H202.502C200.935 19.0413 199.549 19.5518 198.346 20.0439C194.773 21.8122 192.805 22.9059 192.44 23.3252ZM188.94 50.3408V50.4502H189.049C192.549 49.3564 195.575 48.0804 198.127 46.6221C200.607 45.1637 201.846 44.3981 201.846 44.3252H201.627C198.292 45.3278 194.609 46.9684 190.581 49.2471C189.633 49.7575 189.086 50.1221 188.94 50.3408ZM193.534 51.7627C195.083 51.471 197.271 50.4867 200.096 48.8096L200.206 48.5908H200.096C196.742 49.6663 194.555 50.7236 193.534 51.7627ZM184.565 52.6377C184.565 52.7835 184.456 52.8564 184.237 52.8564V52.9658H184.456C184.456 52.82 184.565 52.7471 184.784 52.7471V52.6377H184.565ZM179.534 59.9658H179.643L183.252 58.5439C184.693 57.7054 185.458 57.2314 185.549 57.1221H185.331C183.672 57.7966 182.177 58.4528 180.846 59.0908L179.534 59.9658ZM114.533 24.9932C115.098 24.9932 115.645 25.2119 116.174 25.6494C116.502 25.6494 117.814 25.1025 120.111 24.0088V24.2275C119.765 24.2275 118.708 24.9202 116.939 26.3057C114.551 27.7822 113.202 28.6572 112.893 28.9307H113.002C113.713 28.876 114.624 28.4749 115.736 27.7275H115.846C115.536 28.5479 114.624 29.4229 113.111 30.3525L109.939 31.3369C104.999 33.6702 101.39 35.2744 99.1113 36.1494H99.002V36.04L110.705 28.3838C112.51 27.4176 113.786 26.6156 114.533 25.9775C113.932 25.9775 112.473 26.5973 110.158 27.8369H110.049C110.049 27.5635 110.231 26.9801 110.596 26.0869C110.997 25.3577 112.309 24.9932 114.533 24.9932ZM98.0176 36.6963V36.5869C98.1452 36.5869 98.3275 36.514 98.5645 36.3682H98.6738V36.4775C98.4551 36.4775 98.3457 36.5505 98.3457 36.6963H98.0176ZM119.783 40.5244H119.674C119.674 40.3968 119.893 40.251 120.33 40.0869H120.439V40.1963C120.348 40.1963 120.13 40.3057 119.783 40.5244ZM102.83 45.3369C103.887 44.6989 104.544 43.7874 104.799 42.6025L107.533 42.0557H107.971C109.429 42.0557 110.158 42.4567 110.158 43.2588C110.158 43.514 110.122 43.8421 110.049 44.2432C109.247 44.6807 105.455 46.4307 98.6738 49.4932H98.5645V49.3838C99.4395 48.8734 101.663 47.415 105.236 45.0088V44.8994C104.689 44.8994 103.049 45.5921 100.314 46.9775H100.096V46.8682C100.205 46.8682 101.117 46.3577 102.83 45.3369ZM104.58 48.1807H104.471L104.689 47.8525C107.333 46.2666 109.01 45.2093 109.721 44.6807H109.83V44.79C109.028 45.8473 108.554 46.3942 108.408 46.4307C108.281 46.9593 107.005 47.5426 104.58 48.1807ZM122.189 47.5244V47.3057C122.262 47.3057 122.372 47.2692 122.518 47.1963H122.627C122.627 47.3057 122.481 47.415 122.189 47.5244ZM102.393 55.5088V55.3994C102.393 55.3265 102.575 55.1442 102.939 54.8525C106.111 53.1755 108.554 52.0817 110.268 51.5713H110.377C110.213 51.9176 109.702 52.2822 108.846 52.665C106.421 54.0505 104.27 54.9984 102.393 55.5088ZM75.1287 19.9619V20.0713C77.1521 19.4697 79.3031 18.4489 81.5818 17.0088V16.8994H81.363C78.1912 17.9385 76.113 18.9593 75.1287 19.9619ZM66.9255 44.3525V44.4619C69.0401 43.8786 71.5193 42.8213 74.363 41.29C75.6755 40.5791 76.4047 40.1051 76.5505 39.8682V39.7588C73.0141 40.889 70.1703 42.2015 68.0193 43.6963C67.2901 44.0244 66.9255 44.2432 66.9255 44.3525ZM70.3162 47.7432H70.4255C73.1417 46.9046 75.2927 45.8838 76.8787 44.6807H76.7693C74.1443 45.4645 71.9932 46.4854 70.3162 47.7432Z" fill="black"/>
</svg>
