<svg width="227" height="80" viewBox="0 0 227 80" fill="none" xmlns="http://www.w3.org/2000/svg">
<mask id="mask0_2146_79053" style="mask-type:alpha" maskUnits="userSpaceOnUse" x="0" y="5" width="223" height="75">
<path fill-rule="evenodd" clip-rule="evenodd" d="M72.9336 8.56432C71.6721 5.72615 68.4533 4.31975 65.5137 5.32239C63.5196 6.00258 61.1359 6.67632 58.3413 7.33547C55.2179 7.51084 52.606 7.75724 50.6303 8.10836C49.6178 8.2883 48.4934 8.54238 47.4713 8.94969C46.9612 9.153 46.2501 9.48212 45.5394 10.0155C44.9828 10.4333 44.1463 11.1878 43.5517 12.3678C42.6394 13.9588 41.7647 15.4846 40.9274 16.9454C40.8096 15.0461 39.7953 13.3059 38.1819 12.2694C36.4636 11.1656 34.3018 11.0116 32.4444 11.8607C30.953 12.5425 29.8215 12.9962 29.0081 13.2685C28.6084 13.4023 28.3445 13.4722 28.1949 13.5051H27.3101C27.0438 13.5051 26.2083 13.433 24.5442 13.1178C24.176 13.048 23.802 13.0129 23.4272 13.0129C22.3856 13.0129 21.4003 13.0448 20.5262 13.1302C19.8063 13.2006 18.5821 13.3529 17.4049 13.863C15.4556 14.7077 14.0984 16.5201 13.8363 18.6283L13.2348 23.4681C13.2216 23.5739 13.2113 23.68 13.2038 23.7864C13.0634 25.7787 12.9301 27.3293 12.8069 28.4724C12.309 28.808 11.8289 29.1686 11.3735 29.5573C10.2058 30.2614 9.23532 30.8603 8.47717 31.3467C7.792 31.7864 6.83197 32.4114 6.1746 33.0116C4.92954 34.1484 4.22021 35.7566 4.22021 37.4426V37.5519C4.22021 40.5177 6.37198 42.9809 9.19949 43.4655C9.252 43.5516 9.30671 43.6364 9.36358 43.7198C9.28841 43.7738 9.21382 43.8277 9.13982 43.8815C7.99877 44.6032 7.09453 45.1857 6.4527 45.6152C6.12765 45.8327 5.80004 46.0574 5.52506 46.2621C5.40475 46.3517 5.17708 46.5238 4.93643 46.7391C4.83207 46.8325 4.57266 47.0682 4.29238 47.4033C4.15553 47.5669 3.89522 47.8935 3.64106 48.3502C3.45026 48.6931 2.88037 49.7675 2.88037 51.2785C2.88037 54.5922 5.56666 57.2785 8.88037 57.2785H9.03917C7.85227 58.0349 6.85487 58.6747 6.04875 59.197C4.86008 59.967 3.66967 60.7436 3.11767 61.1996C1.73789 62.3394 0.938965 64.0357 0.938965 65.8254V65.9347C0.938965 67.2869 1.39504 68.5861 2.21359 69.6322C2.04916 70.687 2.16525 71.7886 2.586 72.8208C3.50671 75.0793 5.70304 76.5558 8.14209 76.5558C8.57114 76.5558 9.39045 76.5291 10.3426 76.2344C11.4641 77.4219 13.0369 78.1144 14.7046 78.1144C15.515 78.1144 16.6274 77.9844 17.6434 77.8527C18.7058 77.7149 20.0628 77.5184 21.7001 77.2668H22.2241C24.0284 77.2668 25.5565 77.2322 26.6502 77.1328C26.7892 77.1201 26.9277 77.1026 27.0656 77.0803C30.269 76.5618 32.8788 76.056 34.7601 75.5504C35.6572 75.3092 36.6792 74.9933 37.5846 74.5563C38.0145 74.3488 38.7473 73.9604 39.4593 73.3122C39.8452 72.9609 40.5398 72.2413 41.026 71.1612C41.4038 70.5056 41.7603 69.8775 42.0944 69.2781C42.2485 70.8616 43.0274 72.3287 44.2724 73.3448C45.6685 74.4843 47.503 74.9359 49.2685 74.5747C49.6054 74.5059 49.965 74.422 50.3379 74.3173C51.3421 75.0463 52.5691 75.4621 53.863 75.4621H53.9724C54.8119 75.4621 55.6421 75.2859 56.4092 74.945C57.2943 74.5516 57.9239 74.4142 58.3371 74.3787C59.9001 74.7252 61.1579 74.9946 62.0926 75.1815C62.5755 75.2781 63.0115 75.3606 63.3766 75.4215L63.4056 75.4263C63.6247 75.4632 64.2689 75.5715 64.9099 75.5715C66.3514 75.5715 67.7294 75.3444 69.0363 74.9329C69.3618 75.3859 69.7524 75.7959 70.2007 76.1483C71.6481 77.2858 73.5376 77.6959 75.3263 77.2608C76.6578 76.937 78.2914 76.1458 79.8376 75.3182L92.3086 73.189C92.3652 73.1793 92.4217 73.1689 92.478 73.1576C100.121 71.6256 105.917 70.2302 109.266 68.9189C109.954 68.7607 110.494 68.5484 110.775 68.4374C111.482 68.1575 112.236 67.7942 112.991 67.4014C114.396 66.6699 116.149 65.6531 118.21 64.3892C118.075 64.8588 117.997 65.3466 117.98 65.8424C117.459 66.4787 116.725 67.5959 116.506 69.1331C116.26 70.855 116.773 72.5988 117.913 73.9128C118.023 74.0398 118.138 74.1616 118.257 74.278C118.432 74.4577 118.62 74.6273 118.818 74.7855C120.249 75.9238 122.12 76.3481 123.901 75.938C125.16 75.6481 126.1 75.4365 126.735 75.2992C127.037 75.2339 127.243 75.1914 127.369 75.1667C127.593 75.1379 127.816 75.0963 128.035 75.0422C133.794 73.6252 138.262 72.5742 141.462 71.8807C143.066 71.5332 144.307 71.2853 145.211 71.1273C145.828 71.0193 146.16 70.9771 146.289 70.9607C146.334 70.9551 146.354 70.9525 146.354 70.9513C146.354 70.95 146.331 70.9504 146.289 70.9504C146.71 70.9504 147.13 70.9061 147.541 70.8183C148.92 70.5241 150.282 70.2857 151.627 70.1022C150.971 71.692 151.025 73.5052 151.808 75.0711L151.917 75.2899C152.933 77.3226 155.011 78.6066 157.284 78.6066C158.68 78.6066 159.896 78.1649 160.611 77.8558C161.906 79.2044 163.789 79.8998 165.711 79.6506C166.867 79.5008 168.363 79.1757 169.789 78.3589C181.737 74.141 190.889 70.1356 196.878 66.2864C201.035 64.0065 204.685 60.5821 207.904 56.3113C208.059 56.1046 208.202 55.8881 208.329 55.6631C210.204 52.3611 211.602 49.0387 212.206 45.7735C214.967 44.203 216.033 40.7363 214.603 37.8765L214.494 37.6577C214.474 37.6183 214.454 37.5792 214.434 37.5404C215.096 35.9744 215.088 34.1433 214.275 32.5171L214.166 32.2983C214.076 32.1176 213.977 31.9434 213.872 31.7759C213.785 31.1344 213.594 30.4981 213.291 29.8921L213.182 29.6733C213.14 29.5909 213.097 29.5098 213.053 29.4301C213.706 28.7184 214.275 27.7721 214.537 26.6229C215.032 24.8945 215.433 23.5659 215.744 22.6062C217.013 21.8612 218.374 20.9294 219.742 19.9453C222.131 18.2254 222.92 15.0256 221.603 12.3921L221.494 12.1733C220.587 10.3583 218.88 9.2004 217.008 8.92109C215.863 7.53302 214.433 6.98434 213.985 6.81568C213.205 6.52122 212.413 6.34974 211.764 6.23748C210.436 6.0076 208.794 5.87609 206.974 5.79943C206.89 5.79589 206.805 5.79412 206.721 5.79412H206.174C205.83 5.79412 205.486 5.8238 205.146 5.88285C203.542 6.1619 202.197 6.36216 201.098 6.49146C200.813 6.52508 200.53 6.57919 200.252 6.65339C196.087 7.76535 192.575 8.94394 189.947 10.2464C189.66 10.3886 189.385 10.5536 189.124 10.7398C188.624 11.0971 187.264 11.9443 184.781 13.3899C184.322 13.6568 183.901 13.9833 183.529 14.3609C182.879 15.0189 182.385 15.4997 182.028 15.8278C181.856 15.986 181.741 16.0853 181.676 16.1398C181.588 16.2 181.502 16.2625 181.417 16.3273C181.79 15.3887 182.149 14.1782 182.149 12.8879V12.2316C182.149 10.9772 181.753 9.25506 180.337 7.83866C179.029 6.53095 177.523 6.16528 176.674 6.05919C176.427 6.02834 176.179 6.01287 175.93 6.01287H175.055C174.692 6.01287 174.33 6.04579 173.973 6.11123L173.622 6.17554C172.778 5.72279 171.814 5.46599 170.789 5.46599C169.418 5.46599 168.28 5.92393 167.727 6.18277C166.396 5.46666 164.806 5.25834 163.27 5.68682C162.364 5.93981 160.924 6.56008 159.519 7.181C158.063 7.82435 156.141 8.6999 153.766 9.8015C151.736 10.1033 148.781 10.6631 145.011 11.4417C143.197 11.6514 141.394 11.9104 140.029 12.3051C139.002 10.3557 136.969 9.10271 134.721 9.10271C133.236 9.10271 131.901 9.57243 131.067 9.91733C129.241 9.06007 127.248 8.66521 125.205 8.66521C123.902 8.66521 122.707 8.70383 121.669 8.80038C121.09 8.85424 120.352 8.942 119.58 9.12474C117.275 9.23453 114.992 9.75094 112.745 10.5882C112.009 10.4075 111.237 10.3658 110.469 10.475C108.083 10.8146 105.978 11.1185 104.155 11.3866C103.183 9.27603 101.063 7.89959 98.7068 7.89959H98.488C97.5648 7.89959 96.654 8.11265 95.8265 8.5222C95.5141 8.67681 95.0558 8.89398 94.4498 9.17438C93.0648 7.51814 90.8586 6.70353 88.6707 7.1411L88.1238 7.25048C87.7237 7.3305 87.3329 7.45112 86.9572 7.61047C85.9526 8.0367 83.9005 8.57872 80.4318 9.08945C79.9803 9.05892 79.2426 8.97008 78.148 8.76643C77.7083 8.68462 77.2608 8.65224 76.8139 8.66988C75.6028 8.71768 74.3992 8.92602 73.2176 9.24906C73.1654 9.10124 73.1072 8.95491 73.0429 8.81041L72.9336 8.56432ZM18.0952 26.3566C17.5781 26.3566 17.0648 26.4235 16.5678 26.5543C17.0267 26.432 17.5363 26.3566 18.0952 26.3566ZM126.813 73.9116C126.813 73.9118 126.816 73.909 126.824 73.9032C126.817 73.9086 126.814 73.9114 126.813 73.9116ZM28.1049 13.5226C28.105 13.5225 28.1089 13.5218 28.1166 13.5208C28.1087 13.5221 28.1049 13.5227 28.1049 13.5226Z" fill="black"/>
</mask>
<g mask="url(#mask0_2146_79053)">
<path d="M1.98828 -48L-388.012 342" stroke="black" stroke-width="1.5"/>
<path d="M6.98828 -48L-383.012 342" stroke="black" stroke-width="1.5"/>
<path d="M11.9883 -48L-378.012 342" stroke="black" stroke-width="1.5"/>
<path d="M16.9883 -48L-373.012 342" stroke="black" stroke-width="1.5"/>
<path d="M21.9883 -48L-368.012 342" stroke="black" stroke-width="1.5"/>
<path d="M26.9883 -48L-363.012 342" stroke="black" stroke-width="1.5"/>
<path d="M31.9883 -48L-358.012 342" stroke="black" stroke-width="1.5"/>
<path d="M36.9883 -48L-353.012 342" stroke="black" stroke-width="1.5"/>
<path d="M41.9883 -48L-348.012 342" stroke="black" stroke-width="1.5"/>
<path d="M46.9883 -48L-343.012 342" stroke="black" stroke-width="1.5"/>
<path d="M51.9883 -48L-338.012 342" stroke="black" stroke-width="1.5"/>
<path d="M56.9883 -48L-333.012 342" stroke="black" stroke-width="1.5"/>
<path d="M61.9883 -48L-328.012 342" stroke="black" stroke-width="1.5"/>
<path d="M66.9883 -48L-323.012 342" stroke="black" stroke-width="1.5"/>
<path d="M71.9883 -48L-318.012 342" stroke="black" stroke-width="1.5"/>
<path d="M76.9883 -48L-313.012 342" stroke="black" stroke-width="1.5"/>
<path d="M81.9883 -48L-308.012 342" stroke="black" stroke-width="1.5"/>
<path d="M86.9883 -48L-303.012 342" stroke="black" stroke-width="1.5"/>
<path d="M91.9883 -48L-298.012 342" stroke="black" stroke-width="1.5"/>
<path d="M96.9883 -48L-293.012 342" stroke="black" stroke-width="1.5"/>
<path d="M101.988 -48L-288.012 342" stroke="black" stroke-width="1.5"/>
<path d="M106.988 -48L-283.012 342" stroke="black" stroke-width="1.5"/>
<path d="M111.988 -48L-278.012 342" stroke="black" stroke-width="1.5"/>
<path d="M116.988 -48L-273.012 342" stroke="black" stroke-width="1.5"/>
<path d="M121.988 -48L-268.012 342" stroke="black" stroke-width="1.5"/>
<path d="M126.988 -48L-263.012 342" stroke="black" stroke-width="1.5"/>
<path d="M131.988 -48L-258.012 342" stroke="black" stroke-width="1.5"/>
<path d="M136.988 -48L-253.012 342" stroke="black" stroke-width="1.5"/>
<path d="M141.988 -48L-248.012 342" stroke="black" stroke-width="1.5"/>
<path d="M146.988 -48L-243.012 342" stroke="black" stroke-width="1.5"/>
<path d="M151.988 -48L-238.012 342" stroke="black" stroke-width="1.5"/>
<path d="M156.988 -48L-233.012 342" stroke="black" stroke-width="1.5"/>
<path d="M161.988 -48L-228.012 342" stroke="black" stroke-width="1.5"/>
<path d="M166.988 -48L-223.012 342" stroke="black" stroke-width="1.5"/>
<path d="M171.988 -48L-218.012 342" stroke="black" stroke-width="1.5"/>
<path d="M176.988 -48L-213.012 342" stroke="black" stroke-width="1.5"/>
<path d="M181.988 -48L-208.012 342" stroke="black" stroke-width="1.5"/>
<path d="M186.988 -48L-203.012 342" stroke="black" stroke-width="1.5"/>
<path d="M191.988 -48L-198.012 342" stroke="black" stroke-width="1.5"/>
<path d="M196.988 -48L-193.012 342" stroke="black" stroke-width="1.5"/>
<path d="M201.988 -48L-188.012 342" stroke="black" stroke-width="1.5"/>
<path d="M206.988 -48L-183.012 342" stroke="black" stroke-width="1.5"/>
<path d="M211.988 -48L-178.012 342" stroke="black" stroke-width="1.5"/>
<path d="M216.988 -48L-173.012 342" stroke="black" stroke-width="1.5"/>
<path d="M221.988 -48L-168.012 342" stroke="black" stroke-width="1.5"/>
<path d="M226.988 -48L-163.012 342" stroke="black" stroke-width="1.5"/>
<path d="M231.988 -48L-158.012 342" stroke="black" stroke-width="1.5"/>
<path d="M236.988 -48L-153.012 342" stroke="black" stroke-width="1.5"/>
<path d="M241.988 -48L-148.012 342" stroke="black" stroke-width="1.5"/>
<path d="M246.988 -48L-143.012 342" stroke="black" stroke-width="1.5"/>
<path d="M251.988 -48L-138.012 342" stroke="black" stroke-width="1.5"/>
<path d="M256.988 -48L-133.012 342" stroke="black" stroke-width="1.5"/>
<path d="M261.988 -48L-128.012 342" stroke="black" stroke-width="1.5"/>
<path d="M266.988 -48L-123.012 342" stroke="black" stroke-width="1.5"/>
<path d="M271.988 -48L-118.012 342" stroke="black" stroke-width="1.5"/>
<path d="M276.988 -48L-113.012 342" stroke="black" stroke-width="1.5"/>
<path d="M281.988 -48L-108.012 342" stroke="black" stroke-width="1.5"/>
<path d="M286.988 -48L-103.012 342" stroke="black" stroke-width="1.5"/>
<path d="M291.988 -48L-98.0117 342" stroke="black" stroke-width="1.5"/>
<path d="M296.988 -48L-93.0117 342" stroke="black" stroke-width="1.5"/>
<path d="M301.988 -48L-88.0117 342" stroke="black" stroke-width="1.5"/>
<path d="M306.988 -48L-83.0117 342" stroke="black" stroke-width="1.5"/>
<path d="M311.988 -48L-78.0117 342" stroke="black" stroke-width="1.5"/>
<path d="M316.988 -48L-73.0117 342" stroke="black" stroke-width="1.5"/>
<path d="M321.988 -48L-68.0117 342" stroke="black" stroke-width="1.5"/>
<path d="M326.988 -48L-63.0117 342" stroke="black" stroke-width="1.5"/>
<path d="M331.988 -48L-58.0117 342" stroke="black" stroke-width="1.5"/>
<path d="M336.988 -48L-53.0117 342" stroke="black" stroke-width="1.5"/>
<path d="M341.988 -48L-48.0117 342" stroke="black" stroke-width="1.5"/>
<path d="M346.988 -48L-43.0117 342" stroke="black" stroke-width="1.5"/>
<path d="M351.988 -48L-38.0117 342" stroke="black" stroke-width="1.5"/>
<path d="M356.988 -48L-33.0117 342" stroke="black" stroke-width="1.5"/>
<path d="M361.988 -48L-28.0117 342" stroke="black" stroke-width="1.5"/>
<path d="M366.988 -48L-23.0117 342" stroke="black" stroke-width="1.5"/>
<path d="M371.988 -48L-18.0117 342" stroke="black" stroke-width="1.5"/>
<path d="M376.988 -48L-13.0117 342" stroke="black" stroke-width="1.5"/>
<path d="M381.988 -48L-8.01172 342" stroke="black" stroke-width="1.5"/>
<path d="M386.988 -48L-3.01172 342" stroke="black" stroke-width="1.5"/>
<path d="M391.988 -48L1.98828 342" stroke="black" stroke-width="1.5"/>
<path d="M396.988 -48L6.98828 342" stroke="black" stroke-width="1.5"/>
<path d="M401.988 -48L11.9883 342" stroke="black" stroke-width="1.5"/>
<path d="M406.988 -48L16.9883 342" stroke="black" stroke-width="1.5"/>
<path d="M411.988 -48L21.9883 342" stroke="black" stroke-width="1.5"/>
<path d="M416.988 -48L26.9883 342" stroke="black" stroke-width="1.5"/>
<path d="M421.988 -48L31.9883 342" stroke="black" stroke-width="1.5"/>
<path d="M426.988 -48L36.9883 342" stroke="black" stroke-width="1.5"/>
<path d="M431.988 -48L41.9883 342" stroke="black" stroke-width="1.5"/>
<path d="M436.988 -48L46.9883 342" stroke="black" stroke-width="1.5"/>
<path d="M441.988 -48L51.9883 342" stroke="black" stroke-width="1.5"/>
<path d="M446.988 -48L56.9883 342" stroke="black" stroke-width="1.5"/>
<path d="M451.988 -48L61.9883 342" stroke="black" stroke-width="1.5"/>
<path d="M456.988 -48L66.9883 342" stroke="black" stroke-width="1.5"/>
<path d="M461.988 -48L71.9883 342" stroke="black" stroke-width="1.5"/>
<path d="M466.988 -48L76.9883 342" stroke="black" stroke-width="1.5"/>
<path d="M471.988 -48L81.9883 342" stroke="black" stroke-width="1.5"/>
<path d="M476.988 -48L86.9883 342" stroke="black" stroke-width="1.5"/>
<path d="M481.988 -48L91.9883 342" stroke="black" stroke-width="1.5"/>
<path d="M486.988 -48L96.9883 342" stroke="black" stroke-width="1.5"/>
<path d="M491.988 -48L101.988 342" stroke="black" stroke-width="1.5"/>
<path d="M496.988 -48L106.988 342" stroke="black" stroke-width="1.5"/>
<path d="M501.988 -48L111.988 342" stroke="black" stroke-width="1.5"/>
<path d="M506.988 -48L116.988 342" stroke="black" stroke-width="1.5"/>
<path d="M511.988 -48L121.988 342" stroke="black" stroke-width="1.5"/>
<path d="M516.988 -48L126.988 342" stroke="black" stroke-width="1.5"/>
<path d="M521.988 -48L131.988 342" stroke="black" stroke-width="1.5"/>
<path d="M526.988 -48L136.988 342" stroke="black" stroke-width="1.5"/>
<path d="M531.988 -48L141.988 342" stroke="black" stroke-width="1.5"/>
<path d="M536.988 -48L146.988 342" stroke="black" stroke-width="1.5"/>
<path d="M541.988 -48L151.988 342" stroke="black" stroke-width="1.5"/>
<path d="M546.988 -48L156.988 342" stroke="black" stroke-width="1.5"/>
<path d="M551.988 -48L161.988 342" stroke="black" stroke-width="1.5"/>
<path d="M556.988 -48L166.988 342" stroke="black" stroke-width="1.5"/>
<path d="M561.988 -48L171.988 342" stroke="black" stroke-width="1.5"/>
<path d="M566.988 -48L176.988 342" stroke="black" stroke-width="1.5"/>
<path d="M571.988 -48L181.988 342" stroke="black" stroke-width="1.5"/>
<path d="M576.988 -48L186.988 342" stroke="black" stroke-width="1.5"/>
<path d="M581.988 -48L191.988 342" stroke="black" stroke-width="1.5"/>
<path d="M586.988 -48L196.988 342" stroke="black" stroke-width="1.5"/>
<path d="M591.988 -48L201.988 342" stroke="black" stroke-width="1.5"/>
<path d="M596.988 -48L206.988 342" stroke="black" stroke-width="1.5"/>
<path d="M601.988 -48L211.988 342" stroke="black" stroke-width="1.5"/>
<path d="M606.988 -48L216.988 342" stroke="black" stroke-width="1.5"/>
<path d="M611.988 -48L221.988 342" stroke="black" stroke-width="1.5"/>
</g>
</svg>
