<svg width="203" height="73" viewBox="0 0 203 73" fill="none" xmlns="http://www.w3.org/2000/svg">
<mask id="mask0_2146_79063" style="mask-type:alpha" maskUnits="userSpaceOnUse" x="0" y="5" width="200" height="68">
<path d="M62.4366 5.96533C58.1361 5.96533 53.8476 7.3628 50.5443 10.3102C47.1561 13.3332 45.1966 17.6537 45.1966 22.5653C45.1966 22.9232 45.207 23.278 45.2276 23.6294H30.7127C30.4312 23.6294 30.1535 23.646 29.8807 23.6783C29.6078 23.646 29.3302 23.6294 29.0487 23.6294H7.99268C4.12668 23.6294 0.992676 26.7634 0.992676 30.6294V30.7574C0.992676 32.7209 1.8173 34.5937 3.26465 35.9193C3.26457 35.9194 3.26657 35.9216 3.27089 35.9262C3.30419 35.9618 3.4683 36.1371 3.76682 36.5308C4.14801 37.0335 4.67338 37.7927 5.34962 38.8907L23.7076 69.0822C24.9774 71.1706 27.2446 72.4454 29.6887 72.4454H29.8167C32.2608 72.4454 34.5279 71.1706 35.7978 69.0822L46.1566 52.0461V59.5573C46.1566 59.665 46.1539 59.7575 46.1497 59.8358C45.2473 61.0384 44.7486 62.5104 44.7486 64.0373V64.1653C44.7486 68.0313 47.8826 71.1653 51.7486 71.1653H72.5669C74.4823 71.886 76.6414 71.7381 78.4602 70.7163L80.9122 69.3387C86.0736 71.5334 90.8694 71.9334 94.1676 71.9334C102.109 71.9334 109.294 69.6821 114.52 64.6307C114.88 64.2827 115.227 63.9254 115.56 63.5593C115.988 64.0494 116.44 64.5246 116.916 64.9835C121.71 69.6006 128.385 71.9977 136.084 71.9977C142.55 71.9977 148.142 70.3086 152.631 67.1448C153.533 68.266 154.779 69.1096 156.236 69.5085C161.576 70.9716 168.476 71.9333 176.005 71.9333C182.707 71.9333 188.606 70.5136 193.006 67.233C197.648 63.7713 199.901 58.7562 199.901 53.4133C199.901 50.4046 198.997 47.7284 197.655 45.3975C197.664 45.1727 197.663 44.9467 197.651 44.7201L196.947 31.5361C196.782 28.4485 194.611 25.8348 191.606 25.1064C186.978 23.9843 179.821 22.8613 173.573 22.8613C167.634 22.8613 161.873 23.8809 157.419 26.9578C156.565 27.5475 155.789 28.1916 155.09 28.8843C150.293 24.6203 143.567 22.9897 136.468 22.9897C129.513 22.9897 122.886 25.1128 117.886 29.4419C117.836 29.4855 117.786 29.5293 117.736 29.5732L117.678 29.4983C114.162 24.9946 109.006 22.8614 103.256 22.8614C102.322 22.8614 101.406 22.9247 100.511 23.0477L100.591 14.6323C100.61 12.7179 99.843 10.8795 98.47 9.5453C97.097 8.21107 95.2374 7.49742 93.3243 7.57054L73.2283 8.33854C72.7723 8.35596 72.3278 8.41674 71.8988 8.5168C69.0474 6.79268 65.7456 5.96533 62.4366 5.96533Z" fill="black"/>
</mask>
<g mask="url(#mask0_2146_79063)">
<path d="M2.98828 -51L-387.012 339" stroke="black" stroke-width="1.5"/>
<path d="M7.98828 -51L-382.012 339" stroke="black" stroke-width="1.5"/>
<path d="M12.9883 -51L-377.012 339" stroke="black" stroke-width="1.5"/>
<path d="M17.9883 -51L-372.012 339" stroke="black" stroke-width="1.5"/>
<path d="M22.9883 -51L-367.012 339" stroke="black" stroke-width="1.5"/>
<path d="M27.9883 -51L-362.012 339" stroke="black" stroke-width="1.5"/>
<path d="M32.9883 -51L-357.012 339" stroke="black" stroke-width="1.5"/>
<path d="M37.9883 -51L-352.012 339" stroke="black" stroke-width="1.5"/>
<path d="M42.9883 -51L-347.012 339" stroke="black" stroke-width="1.5"/>
<path d="M47.9883 -51L-342.012 339" stroke="black" stroke-width="1.5"/>
<path d="M52.9883 -51L-337.012 339" stroke="black" stroke-width="1.5"/>
<path d="M57.9883 -51L-332.012 339" stroke="black" stroke-width="1.5"/>
<path d="M62.9883 -51L-327.012 339" stroke="black" stroke-width="1.5"/>
<path d="M67.9883 -51L-322.012 339" stroke="black" stroke-width="1.5"/>
<path d="M72.9883 -51L-317.012 339" stroke="black" stroke-width="1.5"/>
<path d="M77.9883 -51L-312.012 339" stroke="black" stroke-width="1.5"/>
<path d="M82.9883 -51L-307.012 339" stroke="black" stroke-width="1.5"/>
<path d="M87.9883 -51L-302.012 339" stroke="black" stroke-width="1.5"/>
<path d="M92.9883 -51L-297.012 339" stroke="black" stroke-width="1.5"/>
<path d="M97.9883 -51L-292.012 339" stroke="black" stroke-width="1.5"/>
<path d="M102.988 -51L-287.012 339" stroke="black" stroke-width="1.5"/>
<path d="M107.988 -51L-282.012 339" stroke="black" stroke-width="1.5"/>
<path d="M112.988 -51L-277.012 339" stroke="black" stroke-width="1.5"/>
<path d="M117.988 -51L-272.012 339" stroke="black" stroke-width="1.5"/>
<path d="M122.988 -51L-267.012 339" stroke="black" stroke-width="1.5"/>
<path d="M127.988 -51L-262.012 339" stroke="black" stroke-width="1.5"/>
<path d="M132.988 -51L-257.012 339" stroke="black" stroke-width="1.5"/>
<path d="M137.988 -51L-252.012 339" stroke="black" stroke-width="1.5"/>
<path d="M142.988 -51L-247.012 339" stroke="black" stroke-width="1.5"/>
<path d="M147.988 -51L-242.012 339" stroke="black" stroke-width="1.5"/>
<path d="M152.988 -51L-237.012 339" stroke="black" stroke-width="1.5"/>
<path d="M157.988 -51L-232.012 339" stroke="black" stroke-width="1.5"/>
<path d="M162.988 -51L-227.012 339" stroke="black" stroke-width="1.5"/>
<path d="M167.988 -51L-222.012 339" stroke="black" stroke-width="1.5"/>
<path d="M172.988 -51L-217.012 339" stroke="black" stroke-width="1.5"/>
<path d="M177.988 -51L-212.012 339" stroke="black" stroke-width="1.5"/>
<path d="M182.988 -51L-207.012 339" stroke="black" stroke-width="1.5"/>
<path d="M187.988 -51L-202.012 339" stroke="black" stroke-width="1.5"/>
<path d="M192.988 -51L-197.012 339" stroke="black" stroke-width="1.5"/>
<path d="M197.988 -51L-192.012 339" stroke="black" stroke-width="1.5"/>
<path d="M202.988 -51L-187.012 339" stroke="black" stroke-width="1.5"/>
<path d="M207.988 -51L-182.012 339" stroke="black" stroke-width="1.5"/>
<path d="M212.988 -51L-177.012 339" stroke="black" stroke-width="1.5"/>
<path d="M217.988 -51L-172.012 339" stroke="black" stroke-width="1.5"/>
<path d="M222.988 -51L-167.012 339" stroke="black" stroke-width="1.5"/>
<path d="M227.988 -51L-162.012 339" stroke="black" stroke-width="1.5"/>
<path d="M232.988 -51L-157.012 339" stroke="black" stroke-width="1.5"/>
<path d="M237.988 -51L-152.012 339" stroke="black" stroke-width="1.5"/>
<path d="M242.988 -51L-147.012 339" stroke="black" stroke-width="1.5"/>
<path d="M247.988 -51L-142.012 339" stroke="black" stroke-width="1.5"/>
<path d="M252.988 -51L-137.012 339" stroke="black" stroke-width="1.5"/>
<path d="M257.988 -51L-132.012 339" stroke="black" stroke-width="1.5"/>
<path d="M262.988 -51L-127.012 339" stroke="black" stroke-width="1.5"/>
<path d="M267.988 -51L-122.012 339" stroke="black" stroke-width="1.5"/>
<path d="M272.988 -51L-117.012 339" stroke="black" stroke-width="1.5"/>
<path d="M277.988 -51L-112.012 339" stroke="black" stroke-width="1.5"/>
<path d="M282.988 -51L-107.012 339" stroke="black" stroke-width="1.5"/>
<path d="M287.988 -51L-102.012 339" stroke="black" stroke-width="1.5"/>
<path d="M292.988 -51L-97.0117 339" stroke="black" stroke-width="1.5"/>
<path d="M297.988 -51L-92.0117 339" stroke="black" stroke-width="1.5"/>
<path d="M302.988 -51L-87.0117 339" stroke="black" stroke-width="1.5"/>
<path d="M307.988 -51L-82.0117 339" stroke="black" stroke-width="1.5"/>
<path d="M312.988 -51L-77.0117 339" stroke="black" stroke-width="1.5"/>
<path d="M317.988 -51L-72.0117 339" stroke="black" stroke-width="1.5"/>
<path d="M322.988 -51L-67.0117 339" stroke="black" stroke-width="1.5"/>
<path d="M327.988 -51L-62.0117 339" stroke="black" stroke-width="1.5"/>
<path d="M332.988 -51L-57.0117 339" stroke="black" stroke-width="1.5"/>
<path d="M337.988 -51L-52.0117 339" stroke="black" stroke-width="1.5"/>
<path d="M342.988 -51L-47.0117 339" stroke="black" stroke-width="1.5"/>
<path d="M347.988 -51L-42.0117 339" stroke="black" stroke-width="1.5"/>
<path d="M352.988 -51L-37.0117 339" stroke="black" stroke-width="1.5"/>
<path d="M357.988 -51L-32.0117 339" stroke="black" stroke-width="1.5"/>
<path d="M362.988 -51L-27.0117 339" stroke="black" stroke-width="1.5"/>
<path d="M367.988 -51L-22.0117 339" stroke="black" stroke-width="1.5"/>
<path d="M372.988 -51L-17.0117 339" stroke="black" stroke-width="1.5"/>
<path d="M377.988 -51L-12.0117 339" stroke="black" stroke-width="1.5"/>
<path d="M382.988 -51L-7.01172 339" stroke="black" stroke-width="1.5"/>
<path d="M387.988 -51L-2.01172 339" stroke="black" stroke-width="1.5"/>
<path d="M392.988 -51L2.98828 339" stroke="black" stroke-width="1.5"/>
<path d="M397.988 -51L7.98828 339" stroke="black" stroke-width="1.5"/>
<path d="M402.988 -51L12.9883 339" stroke="black" stroke-width="1.5"/>
<path d="M407.988 -51L17.9883 339" stroke="black" stroke-width="1.5"/>
<path d="M412.988 -51L22.9883 339" stroke="black" stroke-width="1.5"/>
<path d="M417.988 -51L27.9883 339" stroke="black" stroke-width="1.5"/>
<path d="M422.988 -51L32.9883 339" stroke="black" stroke-width="1.5"/>
<path d="M427.988 -51L37.9883 339" stroke="black" stroke-width="1.5"/>
<path d="M432.988 -51L42.9883 339" stroke="black" stroke-width="1.5"/>
<path d="M437.988 -51L47.9883 339" stroke="black" stroke-width="1.5"/>
<path d="M442.988 -51L52.9883 339" stroke="black" stroke-width="1.5"/>
<path d="M447.988 -51L57.9883 339" stroke="black" stroke-width="1.5"/>
<path d="M452.988 -51L62.9883 339" stroke="black" stroke-width="1.5"/>
<path d="M457.988 -51L67.9883 339" stroke="black" stroke-width="1.5"/>
<path d="M462.988 -51L72.9883 339" stroke="black" stroke-width="1.5"/>
<path d="M467.988 -51L77.9883 339" stroke="black" stroke-width="1.5"/>
<path d="M472.988 -51L82.9883 339" stroke="black" stroke-width="1.5"/>
<path d="M477.988 -51L87.9883 339" stroke="black" stroke-width="1.5"/>
<path d="M482.988 -51L92.9883 339" stroke="black" stroke-width="1.5"/>
<path d="M487.988 -51L97.9883 339" stroke="black" stroke-width="1.5"/>
<path d="M492.988 -51L102.988 339" stroke="black" stroke-width="1.5"/>
<path d="M497.988 -51L107.988 339" stroke="black" stroke-width="1.5"/>
<path d="M502.988 -51L112.988 339" stroke="black" stroke-width="1.5"/>
<path d="M507.988 -51L117.988 339" stroke="black" stroke-width="1.5"/>
<path d="M512.988 -51L122.988 339" stroke="black" stroke-width="1.5"/>
<path d="M517.988 -51L127.988 339" stroke="black" stroke-width="1.5"/>
<path d="M522.988 -51L132.988 339" stroke="black" stroke-width="1.5"/>
<path d="M527.988 -51L137.988 339" stroke="black" stroke-width="1.5"/>
<path d="M532.988 -51L142.988 339" stroke="black" stroke-width="1.5"/>
<path d="M537.988 -51L147.988 339" stroke="black" stroke-width="1.5"/>
<path d="M542.988 -51L152.988 339" stroke="black" stroke-width="1.5"/>
<path d="M547.988 -51L157.988 339" stroke="black" stroke-width="1.5"/>
<path d="M552.988 -51L162.988 339" stroke="black" stroke-width="1.5"/>
<path d="M557.988 -51L167.988 339" stroke="black" stroke-width="1.5"/>
<path d="M562.988 -51L172.988 339" stroke="black" stroke-width="1.5"/>
<path d="M567.988 -51L177.988 339" stroke="black" stroke-width="1.5"/>
<path d="M572.988 -51L182.988 339" stroke="black" stroke-width="1.5"/>
<path d="M577.988 -51L187.988 339" stroke="black" stroke-width="1.5"/>
<path d="M582.988 -51L192.988 339" stroke="black" stroke-width="1.5"/>
<path d="M587.988 -51L197.988 339" stroke="black" stroke-width="1.5"/>
</g>
</svg>
