<svg width="149" height="83" viewBox="0 0 149 83" fill="none" xmlns="http://www.w3.org/2000/svg">
<mask id="mask0_2146_79121" style="mask-type:alpha" maskUnits="userSpaceOnUse" x="0" y="5" width="146" height="77">
<path fill-rule="evenodd" clip-rule="evenodd" d="M100.54 7.93068C103.269 6.03019 106.536 5.59794 109.47 5.72373C114.924 5.95771 119.85 8.25635 123.762 11.0596C127.704 13.8852 131.056 17.5309 133.431 21.2038C133.491 21.2964 133.549 21.3904 133.604 21.4858C134.527 23.0719 135.361 24.7186 135.873 26.618C136.397 28.5633 136.466 30.3431 136.43 32.025C136.346 35.8303 133.237 38.8715 129.431 38.8715H128.242C129.29 39.8457 130.68 41.0014 132.461 42.4549L132.65 42.6092C135.025 44.5476 137.975 46.9547 140.364 49.6118C142.788 52.3067 145.419 56.0939 145.835 60.9033L145.835 60.9054C146.309 66.4033 143.894 71.473 140.711 75.0075C137.526 78.543 132.769 81.4445 127.273 81.6884C127.247 81.6896 127.222 81.6908 127.197 81.6918C123.81 81.8256 120.658 81.1203 117.945 79.6805C116.824 80.4056 115.506 80.8038 114.142 80.8038H94.8899C92.6182 80.8038 90.5992 79.7216 89.3204 78.0447C86.7087 79.7549 83.583 80.7793 80.1162 80.8036C79.9744 80.8046 79.833 80.8013 79.6922 80.7937H67.6847C66.6778 80.7937 65.6936 80.5768 64.7943 80.1691C63.9117 80.5704 62.9316 80.7937 61.9002 80.7937H53.9465C52.066 80.7937 50.2646 80.0371 48.9481 78.6943C48.5571 78.2956 48.2187 77.855 47.937 77.3835C47.6434 77.874 47.2892 78.3295 46.8803 78.7385L46.8753 78.7435C45.5625 80.0562 43.7821 80.7937 41.9256 80.7937H34.0622C30.55 80.7937 27.5815 78.191 27.1223 74.7089C26.8856 72.9142 26.7747 71.1063 26.68 69.5626L26.6737 69.4597C26.4146 65.2379 26.1615 62.7811 25.1553 60.8311C24.4974 59.5564 23.3823 58.3038 21.3906 56.1916C21.2988 56.0943 21.2043 55.9944 21.1075 55.892C19.071 53.7387 15.9754 50.4655 14.3728 46.1395M100.54 7.93068C99.3788 7.10327 97.9672 6.63084 96.4767 6.63084H77.2251C75.2055 6.63084 73.3113 7.50079 71.9987 8.97384C69.1217 7.5944 65.9297 6.7137 62.4759 6.63276C62.4213 6.63148 62.3666 6.63084 62.3119 6.63084H50.0198C49.0048 6.63084 48.0214 6.85061 47.1276 7.25626C46.233 6.8503 45.2494 6.63084 44.2353 6.63084H36.2816C35.7145 6.63084 35.1572 6.69945 34.62 6.83075C34.077 6.6963 33.5127 6.62582 32.9375 6.62582H25.4357C23.6761 6.62582 22.0068 7.28672 20.7358 8.43811C19.4621 7.28432 17.7917 6.62582 16.0359 6.62582H7.9014C5.26 6.62582 2.84351 8.11268 1.65288 10.4705C0.462244 12.8284 0.70023 15.6556 2.26826 17.7813C3.41297 19.333 4.77147 20.9359 5.9927 22.3768C6.02079 22.4099 6.04881 22.443 6.07675 22.4759C9.5156 26.5336 11.8385 29.4565 12.5908 31.8737C12.9225 32.9388 12.979 34.1204 12.9978 36.4815C12.9985 36.5748 12.9992 36.6705 12.9999 36.7684C13.0155 39.0456 13.0397 42.5415 14.3728 46.1395" fill="black"/>
</mask>
<g mask="url(#mask0_2146_79121)">
<path d="M2.98828 -51.5L-387.012 338.5" stroke="black" stroke-width="1.5"/>
<path d="M7.98828 -51.5L-382.012 338.5" stroke="black" stroke-width="1.5"/>
<path d="M12.9883 -51.5L-377.012 338.5" stroke="black" stroke-width="1.5"/>
<path d="M17.9883 -51.5L-372.012 338.5" stroke="black" stroke-width="1.5"/>
<path d="M22.9883 -51.5L-367.012 338.5" stroke="black" stroke-width="1.5"/>
<path d="M27.9883 -51.5L-362.012 338.5" stroke="black" stroke-width="1.5"/>
<path d="M32.9883 -51.5L-357.012 338.5" stroke="black" stroke-width="1.5"/>
<path d="M37.9883 -51.5L-352.012 338.5" stroke="black" stroke-width="1.5"/>
<path d="M42.9883 -51.5L-347.012 338.5" stroke="black" stroke-width="1.5"/>
<path d="M47.9883 -51.5L-342.012 338.5" stroke="black" stroke-width="1.5"/>
<path d="M52.9883 -51.5L-337.012 338.5" stroke="black" stroke-width="1.5"/>
<path d="M57.9883 -51.5L-332.012 338.5" stroke="black" stroke-width="1.5"/>
<path d="M62.9883 -51.5L-327.012 338.5" stroke="black" stroke-width="1.5"/>
<path d="M67.9883 -51.5L-322.012 338.5" stroke="black" stroke-width="1.5"/>
<path d="M72.9883 -51.5L-317.012 338.5" stroke="black" stroke-width="1.5"/>
<path d="M77.9883 -51.5L-312.012 338.5" stroke="black" stroke-width="1.5"/>
<path d="M82.9883 -51.5L-307.012 338.5" stroke="black" stroke-width="1.5"/>
<path d="M87.9883 -51.5L-302.012 338.5" stroke="black" stroke-width="1.5"/>
<path d="M92.9883 -51.5L-297.012 338.5" stroke="black" stroke-width="1.5"/>
<path d="M97.9883 -51.5L-292.012 338.5" stroke="black" stroke-width="1.5"/>
<path d="M102.988 -51.5L-287.012 338.5" stroke="black" stroke-width="1.5"/>
<path d="M107.988 -51.5L-282.012 338.5" stroke="black" stroke-width="1.5"/>
<path d="M112.988 -51.5L-277.012 338.5" stroke="black" stroke-width="1.5"/>
<path d="M117.988 -51.5L-272.012 338.5" stroke="black" stroke-width="1.5"/>
<path d="M122.988 -51.5L-267.012 338.5" stroke="black" stroke-width="1.5"/>
<path d="M127.988 -51.5L-262.012 338.5" stroke="black" stroke-width="1.5"/>
<path d="M132.988 -51.5L-257.012 338.5" stroke="black" stroke-width="1.5"/>
<path d="M137.988 -51.5L-252.012 338.5" stroke="black" stroke-width="1.5"/>
<path d="M142.988 -51.5L-247.012 338.5" stroke="black" stroke-width="1.5"/>
<path d="M147.988 -51.5L-242.012 338.5" stroke="black" stroke-width="1.5"/>
<path d="M152.988 -51.5L-237.012 338.5" stroke="black" stroke-width="1.5"/>
<path d="M157.988 -51.5L-232.012 338.5" stroke="black" stroke-width="1.5"/>
<path d="M162.988 -51.5L-227.012 338.5" stroke="black" stroke-width="1.5"/>
<path d="M167.988 -51.5L-222.012 338.5" stroke="black" stroke-width="1.5"/>
<path d="M172.988 -51.5L-217.012 338.5" stroke="black" stroke-width="1.5"/>
<path d="M177.988 -51.5L-212.012 338.5" stroke="black" stroke-width="1.5"/>
<path d="M182.988 -51.5L-207.012 338.5" stroke="black" stroke-width="1.5"/>
<path d="M187.988 -51.5L-202.012 338.5" stroke="black" stroke-width="1.5"/>
<path d="M192.988 -51.5L-197.012 338.5" stroke="black" stroke-width="1.5"/>
<path d="M197.988 -51.5L-192.012 338.5" stroke="black" stroke-width="1.5"/>
<path d="M202.988 -51.5L-187.012 338.5" stroke="black" stroke-width="1.5"/>
<path d="M207.988 -51.5L-182.012 338.5" stroke="black" stroke-width="1.5"/>
<path d="M212.988 -51.5L-177.012 338.5" stroke="black" stroke-width="1.5"/>
<path d="M217.988 -51.5L-172.012 338.5" stroke="black" stroke-width="1.5"/>
<path d="M222.988 -51.5L-167.012 338.5" stroke="black" stroke-width="1.5"/>
<path d="M227.988 -51.5L-162.012 338.5" stroke="black" stroke-width="1.5"/>
<path d="M232.988 -51.5L-157.012 338.5" stroke="black" stroke-width="1.5"/>
<path d="M237.988 -51.5L-152.012 338.5" stroke="black" stroke-width="1.5"/>
<path d="M242.988 -51.5L-147.012 338.5" stroke="black" stroke-width="1.5"/>
<path d="M247.988 -51.5L-142.012 338.5" stroke="black" stroke-width="1.5"/>
<path d="M252.988 -51.5L-137.012 338.5" stroke="black" stroke-width="1.5"/>
<path d="M257.988 -51.5L-132.012 338.5" stroke="black" stroke-width="1.5"/>
<path d="M262.988 -51.5L-127.012 338.5" stroke="black" stroke-width="1.5"/>
<path d="M267.988 -51.5L-122.012 338.5" stroke="black" stroke-width="1.5"/>
<path d="M272.988 -51.5L-117.012 338.5" stroke="black" stroke-width="1.5"/>
<path d="M277.988 -51.5L-112.012 338.5" stroke="black" stroke-width="1.5"/>
<path d="M282.988 -51.5L-107.012 338.5" stroke="black" stroke-width="1.5"/>
<path d="M287.988 -51.5L-102.012 338.5" stroke="black" stroke-width="1.5"/>
<path d="M292.988 -51.5L-97.0117 338.5" stroke="black" stroke-width="1.5"/>
<path d="M297.988 -51.5L-92.0117 338.5" stroke="black" stroke-width="1.5"/>
<path d="M302.988 -51.5L-87.0117 338.5" stroke="black" stroke-width="1.5"/>
<path d="M307.988 -51.5L-82.0117 338.5" stroke="black" stroke-width="1.5"/>
<path d="M312.988 -51.5L-77.0117 338.5" stroke="black" stroke-width="1.5"/>
<path d="M317.988 -51.5L-72.0117 338.5" stroke="black" stroke-width="1.5"/>
<path d="M322.988 -51.5L-67.0117 338.5" stroke="black" stroke-width="1.5"/>
<path d="M327.988 -51.5L-62.0117 338.5" stroke="black" stroke-width="1.5"/>
<path d="M332.988 -51.5L-57.0117 338.5" stroke="black" stroke-width="1.5"/>
<path d="M337.988 -51.5L-52.0117 338.5" stroke="black" stroke-width="1.5"/>
<path d="M342.988 -51.5L-47.0117 338.5" stroke="black" stroke-width="1.5"/>
<path d="M347.988 -51.5L-42.0117 338.5" stroke="black" stroke-width="1.5"/>
<path d="M352.988 -51.5L-37.0117 338.5" stroke="black" stroke-width="1.5"/>
<path d="M357.988 -51.5L-32.0117 338.5" stroke="black" stroke-width="1.5"/>
<path d="M362.988 -51.5L-27.0117 338.5" stroke="black" stroke-width="1.5"/>
<path d="M367.988 -51.5L-22.0117 338.5" stroke="black" stroke-width="1.5"/>
<path d="M372.988 -51.5L-17.0117 338.5" stroke="black" stroke-width="1.5"/>
<path d="M377.988 -51.5L-12.0117 338.5" stroke="black" stroke-width="1.5"/>
<path d="M382.988 -51.5L-7.01172 338.5" stroke="black" stroke-width="1.5"/>
<path d="M387.988 -51.5L-2.01172 338.5" stroke="black" stroke-width="1.5"/>
<path d="M392.988 -51.5L2.98828 338.5" stroke="black" stroke-width="1.5"/>
<path d="M397.988 -51.5L7.98828 338.5" stroke="black" stroke-width="1.5"/>
<path d="M402.988 -51.5L12.9883 338.5" stroke="black" stroke-width="1.5"/>
<path d="M407.988 -51.5L17.9883 338.5" stroke="black" stroke-width="1.5"/>
<path d="M412.988 -51.5L22.9883 338.5" stroke="black" stroke-width="1.5"/>
<path d="M417.988 -51.5L27.9883 338.5" stroke="black" stroke-width="1.5"/>
<path d="M422.988 -51.5L32.9883 338.5" stroke="black" stroke-width="1.5"/>
<path d="M427.988 -51.5L37.9883 338.5" stroke="black" stroke-width="1.5"/>
<path d="M432.988 -51.5L42.9883 338.5" stroke="black" stroke-width="1.5"/>
<path d="M437.988 -51.5L47.9883 338.5" stroke="black" stroke-width="1.5"/>
<path d="M442.988 -51.5L52.9883 338.5" stroke="black" stroke-width="1.5"/>
<path d="M447.988 -51.5L57.9883 338.5" stroke="black" stroke-width="1.5"/>
<path d="M452.988 -51.5L62.9883 338.5" stroke="black" stroke-width="1.5"/>
<path d="M457.988 -51.5L67.9883 338.5" stroke="black" stroke-width="1.5"/>
<path d="M462.988 -51.5L72.9883 338.5" stroke="black" stroke-width="1.5"/>
<path d="M467.988 -51.5L77.9883 338.5" stroke="black" stroke-width="1.5"/>
<path d="M472.988 -51.5L82.9883 338.5" stroke="black" stroke-width="1.5"/>
<path d="M477.988 -51.5L87.9883 338.5" stroke="black" stroke-width="1.5"/>
<path d="M482.988 -51.5L92.9883 338.5" stroke="black" stroke-width="1.5"/>
<path d="M487.988 -51.5L97.9883 338.5" stroke="black" stroke-width="1.5"/>
<path d="M492.988 -51.5L102.988 338.5" stroke="black" stroke-width="1.5"/>
<path d="M497.988 -51.5L107.988 338.5" stroke="black" stroke-width="1.5"/>
<path d="M502.988 -51.5L112.988 338.5" stroke="black" stroke-width="1.5"/>
<path d="M507.988 -51.5L117.988 338.5" stroke="black" stroke-width="1.5"/>
<path d="M512.988 -51.5L122.988 338.5" stroke="black" stroke-width="1.5"/>
<path d="M517.988 -51.5L127.988 338.5" stroke="black" stroke-width="1.5"/>
<path d="M522.988 -51.5L132.988 338.5" stroke="black" stroke-width="1.5"/>
<path d="M527.988 -51.5L137.988 338.5" stroke="black" stroke-width="1.5"/>
<path d="M532.988 -51.5L142.988 338.5" stroke="black" stroke-width="1.5"/>
</g>
</svg>
