<svg width="149" height="83" viewBox="0 0 149 83" fill="none" xmlns="http://www.w3.org/2000/svg">
<path fill-rule="evenodd" clip-rule="evenodd" d="M102.54 3.93068C105.269 2.03019 108.536 1.59794 111.47 1.72373C116.924 1.95771 121.85 4.25635 125.762 7.05958C129.704 9.88522 133.056 13.5309 135.431 17.2038C135.491 17.2964 135.549 17.3904 135.604 17.4858C136.527 19.0719 137.361 20.7186 137.873 22.618C138.397 24.5633 138.466 26.3431 138.43 28.025C138.346 31.8303 135.237 34.8715 131.431 34.8715H130.242C131.29 35.8457 132.68 37.0014 134.461 38.4549L134.65 38.6092C137.025 40.5476 139.975 42.9547 142.364 45.6118C144.788 48.3067 147.419 52.0939 147.835 56.9033L147.835 56.9054C148.309 62.4033 145.894 67.473 142.711 71.0075C139.526 74.543 134.769 77.4445 129.273 77.6884C129.247 77.6896 129.222 77.6908 129.197 77.6918C125.81 77.8256 122.658 77.1203 119.945 75.6805C118.824 76.4056 117.506 76.8038 116.142 76.8038H96.8899C94.6182 76.8038 92.5992 75.7216 91.3204 74.0447C88.7087 75.7549 85.583 76.7793 82.1162 76.8036C81.9744 76.8046 81.833 76.8013 81.6922 76.7937H69.6847C68.6778 76.7937 67.6936 76.5768 66.7943 76.1691C65.9117 76.5704 64.9316 76.7937 63.9002 76.7937H55.9465C54.066 76.7937 52.2646 76.0371 50.9481 74.6943C50.5571 74.2956 50.2187 73.855 49.937 73.3835C49.6434 73.874 49.2892 74.3295 48.8803 74.7385L48.8753 74.7435C47.5625 76.0562 45.7821 76.7937 43.9256 76.7937H36.0622C32.55 76.7937 29.5815 74.191 29.1223 70.7089C28.8856 68.9142 28.7747 67.1063 28.68 65.5626L28.6737 65.4597C28.4146 61.2379 28.1615 58.7811 27.1553 56.8311C26.4974 55.5564 25.3823 54.3038 23.3906 52.1916C23.2988 52.0943 23.2043 51.9944 23.1075 51.892C21.071 49.7387 17.9754 46.4655 16.3728 42.1395M102.54 3.93068C101.379 3.10327 99.9672 2.63084 98.4767 2.63084H79.2251C77.2055 2.63084 75.3113 3.50079 73.9987 4.97384C71.1217 3.5944 67.9297 2.7137 64.4759 2.63276C64.4213 2.63148 64.3666 2.63084 64.3119 2.63084H52.0198C51.0048 2.63084 50.0214 2.85061 49.1276 3.25626C48.233 2.8503 47.2494 2.63084 46.2353 2.63084H38.2816C37.7145 2.63084 37.1572 2.69945 36.62 2.83075C36.077 2.6963 35.5127 2.62582 34.9375 2.62582H27.4357C25.6761 2.62582 24.0068 3.28672 22.7358 4.43811C21.4621 3.28432 19.7917 2.62582 18.0359 2.62582H9.9014C7.26 2.62582 4.84351 4.11268 3.65288 6.47052C2.46224 8.82836 2.70023 11.6556 4.26826 13.7813C5.41297 15.333 6.77147 16.9359 7.9927 18.3768C8.02079 18.4099 8.04881 18.443 8.07675 18.4759C11.5156 22.5336 13.8385 25.4565 14.5908 27.8737C14.9225 28.9388 14.979 30.1204 14.9978 32.4815C14.9985 32.5748 14.9992 32.6705 14.9999 32.7684C15.0155 35.0456 15.0397 38.5415 16.3728 42.1395" fill="white" stroke="black" stroke-width="2" stroke-linejoin="round"/>
</svg>
