<svg width="230" height="78" viewBox="0 0 230 78" fill="none" xmlns="http://www.w3.org/2000/svg">
<path fill-rule="evenodd" clip-rule="evenodd" d="M87.099 35.6857L71.0233 65.669L69.6174 68.2801C68.3289 70.8359 66.0824 71.9966 64.9018 72.4738C63.4614 73.0559 61.9486 73.3032 60.5822 73.3222C59.2543 73.3406 57.5261 73.1503 55.8193 72.3655C54.0587 71.5559 51.6593 69.7387 50.9454 66.4071L50.9391 66.3778L45.5318 40.0481C44.4414 45.0055 40.9406 48.3099 37.383 50.2157C33.718 52.1791 29.4002 53.0404 25.31 53.0404C14.5171 53.0404 2 45.2602 2 31.2004C2 21.4734 7.44953 14.0629 14.3481 9.37277C21.1621 4.74014 29.8498 2.36035 38.12 2.36035C40.1019 2.36035 42.2233 2.56638 44.1794 2.75636C44.243 2.76254 44.3065 2.7687 44.3698 2.77484C47.0299 3.03292 49.8636 3.30516 53.2437 3.34074L53.3557 3.34192L53.4676 3.34668C56.4307 3.47277 59.5489 3.40942 62.8354 3.0401C64.5852 2.82556 67.9673 2.99172 70.2762 6.07034C71.2359 7.34986 71.6462 8.68295 71.7863 9.85318L71.8778 9.53945C72.1963 8.24862 72.922 6.38321 74.7029 4.88952C76.6816 3.22999 78.8916 2.92035 80.33 2.92035H80.7658L81.1982 2.9744C84.5015 3.38731 92.4952 3.40236 96.6717 2.95939L97.0398 2.92035H97.41C97.9731 2.92035 100.365 2.92095 102.557 4.64365C105.445 6.91273 105.809 10.2242 105.435 12.4711L105.366 12.8812L104.991 14.1674C106.033 14.1122 107.089 14.0362 108.157 13.9391L108.224 13.933L108.292 13.9282C109.122 13.8688 110.499 13.8932 111.953 14.4343C113.138 14.0091 114.249 13.9102 115.062 13.9102H115.406L115.749 13.9439C118.535 14.2187 122.024 14.134 126.114 14.0215L126.163 14.0201C128.105 13.9667 130.158 13.9102 132.142 13.9102C138.186 13.9102 143.403 15.0819 147.423 17.6941C147.81 17.094 148.304 16.5003 148.936 15.953C150.954 14.2038 153.24 13.9103 154.64 13.9103H154.774L154.907 13.9154C163.873 14.2576 172.002 14.2586 180.963 13.9185C182.56 13.8291 184.466 14.1133 186.273 15.2544C188.08 16.3958 189.111 17.9687 189.696 19.2369L189.843 19.5557C190.584 18.861 191.369 18.2317 192.181 17.6691C196.428 14.7239 201.656 13.3501 206.337 13.3501C207.968 13.3501 210.573 13.5214 213.335 14.3306C215.303 13.3708 218.011 12.8584 220.818 14.1389C223.868 15.5298 225.219 18.2308 225.75 20.1525C225.754 20.1645 225.757 20.1764 225.76 20.1883L228.527 30.0245V31.4101C228.527 35.2928 225.977 37.6307 224.434 38.6153C223.267 39.3599 221.947 39.8537 220.6 40.0827C223.111 43.2306 225.167 47.3473 225.167 52.5501C225.167 59.3163 222.026 64.7789 217.268 68.3507C212.685 71.7911 206.846 73.3401 201.087 73.3401C196.83 73.3401 191.655 72.5159 187.268 70.2486C186.531 69.868 185.792 69.4298 185.07 68.932C184.479 69.6217 183.758 70.2434 182.897 70.7512C181.135 71.7905 179.36 72.0103 178.09 72.0103H177.951L177.812 72.0048C167.395 71.5909 157.73 71.524 147.26 72.003L147.1 72.0103H146.94C146.398 72.0103 144.143 72.0081 142.005 70.4914C141.696 70.272 141.396 70.0252 141.111 69.7515C136.994 71.6253 132.008 72.4777 126.276 72.1384C126.273 72.1382 126.27 72.138 126.267 72.1378L125.925 72.1184C119.899 71.7756 114.585 71.4797 107.819 71.9903L107.556 72.0102H107.292C106.889 72.0102 105.648 72.0056 104.202 71.4595C102.991 71.9074 101.85 72.0104 101.02 72.0104H100.681L100.343 71.9775C95.7595 71.5319 91.0273 71.5302 86.2796 71.9793L85.9507 72.0104H85.6204C85.0464 72.0104 82.7688 72.0011 80.6233 70.4277C77.6894 68.2762 77.1089 64.9594 77.5256 62.4596L77.5488 62.3206L77.8954 60.6567C78.1366 59.257 78.7991 57.2083 80.6858 55.5731C81.6822 54.7096 82.7437 54.2008 83.7317 53.907C83.7602 53.7847 83.7896 53.6537 83.8201 53.5134L83.8236 53.4976L83.827 53.4819C84.6025 49.9924 86.0824 41.8015 87.099 35.6857Z" fill="white" stroke="black" stroke-width="2" stroke-linejoin="round"/>
<path fill-rule="evenodd" clip-rule="evenodd" d="M64.86 62.3503L86.14 22.6604C89.64 16.0803 93.42 14.4003 96.22 14.4003C97.2 14.4003 97.83 13.9804 98.04 13.0004L98.53 11.3204C98.74 10.0604 97.9 9.92035 97.41 9.92035C92.79 10.4104 84.25 10.4104 80.33 9.92035C79.35 9.92035 78.86 10.3404 78.65 11.3204L78.16 13.0004C77.88 13.9804 78.16 14.4003 79.14 14.4003C82.71 14.4003 82.85 17.1304 81.1 20.5603L64.79 52.4104V52.2704L59.4 23.2204L58.91 20.0004C58.42 16.7103 60.1 14.4703 62.83 14.4703C63.81 14.4703 64.3 14.0504 64.51 13.0704L64.79 11.3904C65 10.4104 64.65 9.85035 63.67 9.99035C59.96 10.4104 56.46 10.4803 53.17 10.3404C49.4571 10.3013 46.3553 10.0003 43.6938 9.74213C41.5884 9.53787 39.7586 9.36035 38.12 9.36035C24.05 9.36035 9 17.5504 9 31.2004C9 40.3004 17.19 46.0404 25.31 46.0404C31.68 46.0404 37.84 43.3104 38.75 38.2704C39.59 32.6704 33.78 30.9204 30.91 34.6304C31.61 35.0504 31.89 35.8904 31.89 36.8004C31.89 39.3904 29.79 42.3304 25.59 42.3304C20.97 42.3304 17.4 37.9204 17.4 32.4604C17.4 21.9604 27.83 13.7703 37.84 13.7703C46.8 13.7703 48.06 17.9003 48.69 20.6304L57.79 64.9404C58.21 66.9004 62.69 66.6204 63.39 65.0804L64.86 62.3503ZM206.337 20.3501C208.297 20.3501 211.517 20.7001 214.037 22.1701L216.137 20.7701C217.467 19.9301 218.587 20.4901 219.007 22.0301L221.527 30.9901V31.4101C221.527 32.4601 220.127 33.2301 218.867 33.2301C217.887 33.2301 216.907 32.8101 216.417 31.9701C214.247 28.3301 211.447 25.3901 206.687 25.3901C204.237 25.3901 201.017 26.7901 201.017 30.0101C201.017 32.85 204.145 35.192 207.729 37.8757C212.537 41.4763 218.167 45.6919 218.167 52.5501C218.167 61.3701 210.257 66.3401 201.087 66.3401C194.087 66.3401 185.127 63.5401 185.127 56.2601C185.127 51.7101 188.557 49.4001 191.637 49.4001C193.457 49.4001 195.277 50.1701 196.257 52.2001C194.507 52.6901 193.457 54.1601 193.457 55.8401C193.457 58.7101 195.907 61.5801 201.157 61.5801C205.707 61.5801 208.437 58.7801 208.437 55.2101C208.437 51.2272 204.737 48.5624 200.76 45.6983C196.14 42.3711 191.147 38.7747 191.147 32.5301C191.147 24.4801 199.477 20.3501 206.337 20.3501ZM146.94 65.0103C146.45 65.0103 145.47 64.8703 145.75 63.6103L146.17 61.7203C146.38 60.7403 146.8 60.5303 147.78 60.5303C150.44 60.5303 151.35 58.0103 152.05 54.7903C153.17 49.7503 155.48 36.1003 156.18 31.0603C156.6 27.8403 156.53 25.5303 153.87 25.5303C153.38 25.5303 152.47 25.3903 152.68 24.1303L153.03 22.3103C153.17 21.3303 153.66 20.9103 154.64 20.9103C163.81 21.2603 172.14 21.2603 181.31 20.9103C182.29 20.8403 182.92 21.2603 183.34 22.1703L186.84 33.0903C187.33 34.6303 183.48 35.2603 182.57 33.5103C180.54 29.5903 176.83 25.5303 171.3 25.5303H169.55C166.82 25.5303 165.98 27.8403 165.28 31.0603C164.79 33.3003 163.95 37.5003 163.67 39.2503C163.46 40.2303 163.81 40.6503 164.79 40.6503H168.92C169.9 40.6503 171.51 39.6003 171.79 38.4803L172.07 37.3603C172.28 36.3803 172.7 35.9603 173.68 35.9603H176.27C177.25 35.9603 177.6 36.3803 177.46 37.3603C176.41 40.9303 175.5 45.6903 175.36 49.1203C175.22 50.1003 174.73 50.5203 173.75 50.5203H171.16C170.18 50.5203 169.76 50.1003 169.97 49.1203L170.18 47.8603C170.39 46.6003 169.34 45.4103 167.94 45.4103H164.02C163.04 45.4103 162.55 45.8303 162.41 46.8103C162.2 47.7903 161.36 53.1103 161.15 54.7903C160.66 57.9403 161.15 60.3203 166.33 60.3203H168.5C173.75 60.3203 179.21 54.7903 181.31 50.5203C182.08 48.9103 186.14 48.9803 185.51 50.5903L180.12 63.7503C179.77 64.6603 179.07 65.0103 178.09 65.0103C167.52 64.5903 157.65 64.5203 146.94 65.0103ZM147.962 31.5502C147.962 26.0202 143.832 20.9102 132.142 20.9102C130.255 20.9102 128.282 20.9645 126.306 21.0188C122.347 21.1278 118.378 21.237 115.062 20.9102C114.082 20.9102 113.592 21.3302 113.452 22.3102L113.102 23.9902C112.892 25.2502 113.802 25.3902 114.292 25.3902C116.952 25.3902 117.092 27.7002 116.602 30.9202C115.972 35.9602 113.522 49.9602 112.332 55.0002C111.702 58.2202 110.722 60.5302 108.062 60.5302C107.082 60.5302 106.592 60.9502 106.452 61.9302L106.102 63.6102C105.892 64.8702 106.802 65.0102 107.292 65.0102C114.567 64.4611 120.295 64.7869 126.322 65.1297L126.682 65.1502C140.822 65.9902 146.282 58.0802 146.282 51.6402C146.282 48.5602 144.532 44.8502 140.402 42.8202C145.302 40.3002 147.962 35.7502 147.962 31.5502ZM128.362 45.2002H129.972C134.172 45.2002 136.342 48.7002 136.342 51.6402C136.342 55.8402 132.842 60.5302 125.562 60.5302C120.872 60.5302 121.012 58.3602 121.432 55.0002C122.062 49.9602 124.512 35.9602 125.702 30.9202C126.332 27.7002 127.732 25.5302 130.672 25.3902C137.182 25.0402 139.142 28.4002 139.142 31.7602C139.142 35.8202 136.552 40.6502 128.992 40.6502C128.642 40.7202 127.872 41.1402 127.662 42.1902C127.242 44.0102 127.452 45.2002 128.362 45.2002ZM85.6204 65.0104C85.1304 65.0104 84.2204 64.8704 84.4304 63.6104L84.7804 61.9304C84.9204 60.9504 85.4104 60.5304 86.3904 60.5304C89.0504 60.5304 89.9604 58.2204 90.6604 55.0004C91.7804 49.9604 94.2304 35.9604 94.9304 30.9204C95.3504 27.7004 95.2804 25.3904 92.6204 25.3904C92.1304 25.3904 91.2204 25.2504 91.4304 23.9904L91.7804 22.3104C91.9204 21.3304 92.4104 20.9104 93.3904 20.9104C98.2204 21.4004 103.4 21.4004 108.79 20.9104C109.77 20.8404 110.12 21.3304 109.98 22.3104L109.63 23.9904C109.49 24.9704 109 25.3904 108.02 25.3904C105.29 25.3904 104.45 27.7004 103.75 30.9204C102.63 35.9604 100.18 49.9604 99.4804 55.0004C99.0604 58.1504 98.9904 60.5304 101.79 60.5304C102.77 60.5304 103.12 60.9504 102.98 61.9304L102.63 63.6104C102.49 64.5904 102 65.0104 101.02 65.0104C95.9804 64.5204 90.8004 64.5204 85.6204 65.0104Z" fill="black"/>
</svg>
