<svg width="197" height="66" viewBox="0 0 197 66" fill="none" xmlns="http://www.w3.org/2000/svg">
<path d="M171.549 60.7056C163.029 60.7056 155.509 56.3156 151.149 49.6756C145.639 56.4256 137.339 60.5056 128.379 60.5056C119.419 60.5056 111.709 56.6256 106.329 50.4756C102.799 56.5056 96.2588 60.5656 88.7988 60.5656H67.6787C66.4287 60.5656 65.2587 60.2356 64.2487 59.6656C63.2587 60.1956 62.1287 60.4956 60.9387 60.4956H51.4688C47.5988 60.4956 44.4688 57.3656 44.4688 53.4956V47.1656L42.9387 52.8656C42.9087 52.9656 42.8787 53.0656 42.8487 53.1656C41.6987 56.8156 38.6888 59.5556 34.9888 60.3356C34.5188 60.4356 34.0287 60.4856 33.5487 60.4856H20.2987C17.0387 60.4856 14.2087 58.2356 13.4787 55.0556L3.17875 10.3556C2.69875 8.27557 3.19875 6.09557 4.51875 4.42557C5.84875 2.75557 7.86875 1.77557 9.99875 1.77557L19.7288 1.77557C22.9888 1.77557 25.8087 4.02557 26.5487 7.19557L29.7688 21.1256L33.5688 6.95557C34.3888 3.89557 37.1588 1.77557 40.3288 1.77557L47.4987 1.77557C48.1387 1.77557 48.7687 1.86557 49.3687 2.02557C50.0287 1.81557 50.7287 1.70557 51.4587 1.70557L60.9287 1.70557C62.1987 1.70557 63.3887 2.04557 64.4187 2.63557C65.3887 2.12557 66.4987 1.83557 67.6787 1.83557L89.8887 1.83557C90.0887 1.83557 90.2788 1.83557 90.4788 1.85557C97.3188 2.43557 103.079 6.25557 106.319 11.7556C111.699 5.59557 119.599 1.70557 128.389 1.70557C137.179 1.70557 145.839 5.96557 151.229 12.6156C155.609 6.04557 163.089 1.70557 171.559 1.70557C185.019 1.70557 195.969 12.6556 195.969 26.1156C195.969 27.9156 195.289 29.5456 194.179 30.7856C195.299 32.0456 195.969 33.6956 195.969 35.4556V36.2856C195.969 49.7456 185.019 60.6956 171.559 60.6956L171.549 60.7056Z" fill="white" stroke="black" stroke-width="2" stroke-linejoin="round"/>
<path fill-rule="evenodd" clip-rule="evenodd" d="M60.9385 53.5158H51.4685V8.7158L60.9385 8.7158V53.5158ZM150.459 34.5758H111.799C111.219 38.0958 112.309 41.8058 114.999 44.4958C119.479 49.0358 126.779 49.0358 131.259 44.4958L135.869 39.8858H148.989C145.529 47.8858 137.599 53.5158 128.379 53.5158C116.029 53.5158 106.039 43.4658 106.039 31.1158C106.039 18.7658 116.019 8.7158 128.379 8.7158C140.739 8.7158 150.779 18.7658 150.779 31.1158C150.779 32.2658 150.649 33.4858 150.459 34.5758ZM115.649 27.6558H145.029C145.539 24.1358 144.449 20.4258 141.769 17.7358C137.289 13.2558 129.989 13.2558 125.509 17.7358L115.649 27.6558ZM162.399 17.8658C160.349 19.9158 159.709 22.7258 160.289 25.2858L188.959 35.4658V36.2958C188.959 45.8958 181.149 53.7058 171.549 53.7058C161.949 53.7058 154.139 45.8958 154.139 36.2958H161.499C161.759 36.6758 162.009 36.9958 162.399 37.3158L169.569 44.5458C172.639 47.6158 177.629 47.6158 180.709 44.5458C182.819 42.4958 183.459 39.5558 182.759 36.9258L154.149 26.7458V26.1058C154.149 16.5058 161.959 8.6958 171.559 8.6958C181.159 8.6958 188.969 16.5058 188.969 26.1058H181.609C181.349 25.7858 181.029 25.4058 180.709 25.0858L173.539 17.8558C170.469 14.7858 165.479 14.7858 162.399 17.8558V17.8658ZM98.5885 31.1758C100.769 28.8058 102.109 25.6058 102.109 22.1558C102.109 15.1158 96.7285 9.4158 89.8885 8.8458H67.6785V53.5858L88.7985 53.5858C96.1585 53.5858 102.109 47.5658 102.109 40.2058C102.109 36.7458 100.769 33.5458 98.5885 31.1858V31.1758ZM77.2185 29.0058V12.7458H90.5285C95.0085 12.7458 98.6585 16.3958 98.6585 20.8758C98.6585 25.3558 95.0085 29.0058 90.5285 29.0058H77.2185ZM90.5285 32.0758C95.0085 32.0758 98.6585 35.7258 98.6585 40.2058C98.6585 44.6858 95.0085 48.3358 90.5285 48.3358H77.2185V32.0758H90.5285ZM47.4985 8.7758H40.3285L30.1485 46.6658H28.4885L19.7285 8.7758H9.99854L20.2985 53.5158H33.5485C34.7685 53.2558 35.7885 52.2958 36.1685 51.0858L47.4985 8.7758Z" fill="black"/>
</svg>
