<svg width="600" height="600" viewBox="0 0 600 600" fill="none" xmlns="http://www.w3.org/2000/svg">
<path d="M235.711 75L300 37.5L364.289 75" stroke="white" stroke-width="4" stroke-linecap="round" stroke-linejoin="round"/>
<path d="M300 37.5V131.25" stroke="white" stroke-width="4" stroke-miterlimit="10" stroke-linecap="round"/>
<path d="M364.289 525L300 562.5L235.711 525" stroke="white" stroke-width="4" stroke-linecap="round" stroke-linejoin="round"/>
<path d="M300 562.5V468.75" stroke="white" stroke-width="4" stroke-miterlimit="10" stroke-linecap="round"/>
<path d="M75 243.176V168.75L137.285 131.824" stroke="white" stroke-width="4" stroke-linecap="round" stroke-linejoin="round"/>
<path d="M75 168.75L153.855 215.625" stroke="white" stroke-width="4" stroke-miterlimit="10" stroke-linecap="round"/>
<path d="M525 356.824V431.25L462.715 468.176" stroke="white" stroke-width="4" stroke-linecap="round" stroke-linejoin="round"/>
<path d="M525 431.25L446.145 384.375" stroke="white" stroke-width="4" stroke-miterlimit="10" stroke-linecap="round"/>
<path d="M137.285 468.75L75 431.25V356.824" stroke="white" stroke-width="4" stroke-linecap="round" stroke-linejoin="round"/>
<path d="M75 431.25L153.094 384.375" stroke="white" stroke-width="4" stroke-miterlimit="10" stroke-linecap="round"/>
<path d="M462.715 131.824L525 168.75V243.176" stroke="white" stroke-width="4" stroke-linecap="round" stroke-linejoin="round"/>
<path d="M525 168.75L446.145 215.625" stroke="white" stroke-width="4" stroke-miterlimit="10" stroke-linecap="round"/>
<path d="M300 375V300L364.289 262.5" stroke="white" stroke-width="4" stroke-miterlimit="10" stroke-linecap="round"/>
<path d="M300 300L235.711 262.5" stroke="white" stroke-width="4" stroke-miterlimit="10" stroke-linecap="round"/>
</svg>
