<svg width="293" height="149" viewBox="0 0 293 149" fill="none" xmlns="http://www.w3.org/2000/svg">
    <path fill-rule="evenodd" clip-rule="evenodd" d="M76.3021 0C34.1616 0 0 33.3548 0 74.5C0 115.645 34.1616 149 76.3021 149H216.698C258.838 149 293 115.645 293 74.5C293 33.3548 258.838 0 216.698 0H76.3021ZM12.2083 74.5C12.2083 39.938 40.9041 11.92 76.3021 11.92H216.698C252.096 11.92 280.792 39.938 280.792 74.5C280.792 109.062 252.096 137.08 216.698 137.08H139.287V102.666H139.721C140.617 104.67 141.888 106.546 143.536 108.296C145.212 110.046 147.279 111.457 149.735 112.529C152.192 113.601 155.097 114.137 158.45 114.137C163.363 114.137 167.828 112.896 171.846 110.412C175.892 107.929 179.1 104.204 181.47 99.2374C183.869 94.2707 185.069 88.1047 185.069 80.7394C185.069 73.0918 183.826 66.7989 181.34 61.8604C178.855 56.922 175.589 53.2675 171.542 50.897C167.525 48.5266 163.204 47.3414 158.58 47.3414C155.082 47.3414 152.077 47.934 149.562 49.1192C147.076 50.2762 145.024 51.7719 143.406 53.6061C141.816 55.4404 140.588 57.3452 139.721 59.3206H139.07V48.188H118.087V137.08H76.3021C40.9041 137.08 12.2083 109.062 12.2083 74.5ZM42.5037 98.1368V113.206H108.228V96.3167H72.2442V95.7664L82.8658 86.1999C89.311 80.7253 94.2822 76.0267 97.7794 72.1042C101.305 68.1816 103.748 64.5977 105.106 61.3524C106.465 58.1072 107.144 54.8337 107.144 51.532C107.144 46.3396 105.771 41.7821 103.025 37.8595C100.308 33.9088 96.4643 30.8328 91.4931 28.6317C86.5219 26.4306 80.6692 25.33 73.935 25.33C67.4031 25.33 61.666 26.5011 56.7237 28.8434C51.8103 31.1574 47.9952 34.4591 45.2784 38.7485C42.5615 43.0379 41.2031 48.1315 41.2031 54.0294H61.5359C61.5359 51.405 62.0417 49.1756 63.0533 47.3414C64.0938 45.5071 65.5389 44.1102 67.3886 43.1507C69.2384 42.1631 71.3916 41.6692 73.8483 41.6692C76.2761 41.6692 78.4293 42.1348 80.3079 43.0661C82.1866 43.9973 83.6606 45.3237 84.73 47.0451C85.7994 48.7382 86.3341 50.7842 86.3341 53.1828C86.3341 55.3275 85.8861 57.317 84.9901 59.1513C84.0941 60.9574 82.7935 62.7634 81.0883 64.5695C79.3831 66.3473 77.3166 68.3086 74.8888 70.4533L42.5037 98.1368ZM138.854 80.6971C138.854 84.1963 139.331 87.244 140.284 89.8402C141.267 92.4364 142.669 94.4542 144.49 95.8934C146.339 97.3043 148.55 98.0098 151.123 98.0098C153.724 98.0098 155.935 97.3043 157.756 95.8934C159.577 94.4542 160.95 92.4364 161.874 89.8402C162.828 87.244 163.305 84.1963 163.305 80.6971C163.305 77.1978 162.828 74.1642 161.874 71.5962C160.95 69.0282 159.577 67.0387 157.756 65.6277C155.964 64.2167 153.753 63.5113 151.123 63.5113C148.522 63.5113 146.311 64.2026 144.49 65.5854C142.669 66.9682 141.267 68.9435 140.284 71.5115C139.331 74.0795 138.854 77.1414 138.854 80.6971ZM209.387 48.188L220.355 69.6067L231.714 48.188H253.087L234.488 80.6971L253.781 113.206H232.581L220.355 91.6181L208.433 113.206H186.93L206.265 80.6971L187.883 48.188H209.387Z" fill="white"/>
</svg>
