<svg width="55" height="28" viewBox="0 0 55 28" fill="none" xmlns="http://www.w3.org/2000/svg">
<g id="Frame 2085662371">
<path id="Union" fill-rule="evenodd" clip-rule="evenodd" d="M14.3229 0C6.41259 0 0 6.26801 0 14C0 21.732 6.41259 28 14.3229 28H40.6771C48.5874 28 55 21.732 55 14C55 6.26801 48.5874 0 40.6771 0H14.3229ZM2.29167 14C2.29167 7.50513 7.67824 2.24 14.3229 2.24H40.6771C47.3218 2.24 52.7083 7.50513 52.7083 14C52.7083 20.4949 47.3218 25.76 40.6771 25.76H26.1461V19.293H26.2275C26.3956 19.6695 26.6344 20.0221 26.9436 20.3509C27.2583 20.6797 27.6462 20.9449 28.1073 21.1464C28.5685 21.3479 29.1137 21.4486 29.7431 21.4486C30.6654 21.4486 31.5036 21.2153 32.2577 20.7486C33.0173 20.282 33.6195 19.582 34.0644 18.6486C34.5147 17.7153 34.7398 16.5566 34.7398 15.1725C34.7398 13.7354 34.5065 12.5528 34.04 11.6248C33.5734 10.6967 32.9603 10.01 32.2008 9.56455C31.4466 9.11909 30.6355 8.89637 29.7675 8.89637C29.111 8.89637 28.5468 9.00773 28.0748 9.23046C27.6082 9.44788 27.223 9.72894 26.9192 10.0736C26.6208 10.4183 26.3902 10.7763 26.2275 11.1475H26.1054V9.05546H22.1666V25.76H14.3229C7.67824 25.76 2.29167 20.4949 2.29167 14ZM7.97852 18.4418V21.2736H20.3158V18.0998H13.5612V17.9964L15.555 16.1986C16.7649 15.1698 17.698 14.2869 18.3545 13.5498C19.0164 12.8127 19.4748 12.1392 19.7298 11.5293C19.9848 10.9195 20.1123 10.3043 20.1123 9.68387C20.1123 8.70811 19.8546 7.85167 19.3392 7.11455C18.8292 6.37212 18.1076 5.79409 17.1745 5.38046C16.2413 4.96682 15.1427 4.76 13.8786 4.76C12.6525 4.76 11.5755 4.98008 10.6478 5.42023C9.72548 5.85508 9.00933 6.47553 8.49935 7.28159C7.98937 8.08765 7.73438 9.04485 7.73438 10.1532H11.5511C11.5511 9.66 11.6461 9.24106 11.8359 8.89636C12.0312 8.55167 12.3025 8.28917 12.6497 8.10886C12.997 7.92326 13.4011 7.83045 13.8623 7.83045C14.318 7.83045 14.7222 7.91795 15.0749 8.09295C15.4275 8.26795 15.7042 8.5172 15.9049 8.84068C16.1057 9.15886 16.2061 9.54333 16.2061 9.99409C16.2061 10.3971 16.122 10.771 15.9538 11.1157C15.7856 11.4551 15.5414 11.7945 15.2214 12.1339C14.9013 12.468 14.5133 12.8365 14.0576 13.2395L7.97852 18.4418ZM26.0647 15.1645C26.0647 15.8221 26.1542 16.3948 26.3333 16.8827C26.5177 17.3706 26.7808 17.7498 27.1226 18.0202C27.4699 18.2854 27.8849 18.418 28.3678 18.418C28.856 18.418 29.2711 18.2854 29.6129 18.0202C29.9547 17.7498 30.2124 17.3706 30.386 16.8827C30.565 16.3948 30.6545 15.8221 30.6545 15.1645C30.6545 14.507 30.565 13.9369 30.386 13.4543C30.2124 12.9717 29.9547 12.5979 29.6129 12.3327C29.2765 12.0676 28.8615 11.935 28.3678 11.935C27.8795 11.935 27.4644 12.0649 27.1226 12.3248C26.7808 12.5846 26.5177 12.9558 26.3333 13.4384C26.1542 13.921 26.0647 14.4964 26.0647 15.1645ZM39.3047 9.05546L41.3636 13.0805L43.4958 9.05546H47.5078L44.0166 15.1645L47.638 21.2736H43.6585L41.3636 17.2168L39.1256 21.2736H35.0892L38.7188 15.1645L35.2682 9.05546H39.3047Z" fill="black"/>
</g>
</svg>
