<svg width="28" height="28" viewBox="0 0 28 28" fill="none" xmlns="http://www.w3.org/2000/svg">
<path d="M19.9915 12.2857C20.446 12.2857 20.8722 12.3429 21.2699 12.4571C21.6676 12.5429 21.9233 12.6 22.0369 12.6286H22.1648C22.4205 12.6286 22.5767 12.5143 22.6335 12.2857V12.2429C22.6335 12.0429 22.4773 11.8857 22.1648 11.7714C22.0511 11.7429 21.7386 11.6714 21.2273 11.5571C20.7443 11.4143 20.3608 11.2286 20.0767 11L14.0682 6.11428V2L26 12.2857V15.7143L14.0682 26V21.8857L20.0767 17C20.3608 16.7714 20.7443 16.6 21.2273 16.4857C21.7386 16.3429 22.0511 16.2571 22.1648 16.2286C22.4773 16.1143 22.6335 15.9571 22.6335 15.7571C22.6335 15.6429 22.5767 15.5429 22.4631 15.4571C22.3494 15.3714 22.2074 15.3429 22.0369 15.3714C21.9233 15.4 21.6676 15.4714 21.2699 15.5857C20.8722 15.6714 20.446 15.7143 19.9915 15.7143H2V12.2857H19.9915Z" fill="white"/>
</svg>
