<svg width="28" height="28" viewBox="0 0 28 28" fill="none" xmlns="http://www.w3.org/2000/svg">
<path d="M12.5 26L10 26L7.10188e-06 14.0682L5.11429 14.0682L10 20.0767C10.2286 20.3608 10.4 20.7443 10.5143 21.2273C10.6572 21.7386 10.7429 22.0511 10.7714 22.1648C10.8857 22.4773 11.0429 22.6335 11.2429 22.6335C11.3572 22.6335 11.4571 22.5767 11.5429 22.4631C11.6286 22.3494 11.6572 22.2074 11.6286 22.0369C11.6 21.9233 11.5286 21.6676 11.4143 21.2699C11.3286 20.8722 11.2857 20.446 11.2857 19.9915L23 2L28 2L12.5 26Z" fill="white"/>
</svg>
