<svg
  width="145"
  height="205"
  viewBox="0 0 145 205"
  fill="none"
  xmlns="http://www.w3.org/2000/svg"
>
  <mask
    id="mask0_545_27702"
    style="mask-type: alpha;"
    maskUnits="userSpaceOnUse"
    x="0"
    y="0"
    width="145"
    height="205"
  >
    <path
      fill-rule="evenodd"
      clip-rule="evenodd"
      d="M84.7419 162.285V140.242C90.1963 142.834 96.2973 144.285 102.736 144.285C125.922 144.285 144.73 125.47 144.73 102.285C144.73 90.5363 139.901 79.9098 132.119 72.285C139.901 64.6602 144.73 54.0338 144.73 42.285C144.73 19.0999 125.922 0.285034 102.736 0.285034H42.7479C19.5616 0.285034 0.753937 19.0999 0.753937 42.285C0.753937 54.0337 5.58335 64.6602 13.3647 72.285C5.58335 79.9098 0.753937 90.5363 0.753937 102.285C0.753937 114.034 5.58335 124.66 13.3647 132.285C5.58335 139.91 0.753937 150.536 0.753937 162.285C0.753937 185.47 19.5616 204.285 42.7479 204.285C65.9343 204.285 84.7419 185.47 84.7419 162.285Z"
      fill="#07090D"
    />
  </mask>
  <g mask="url(#mask0_545_27702)">
    <path d="M3.74194 -94.715L-386.258 295.285" stroke="black" stroke-width="1.5" />
    <path d="M8.74194 -94.715L-381.258 295.285" stroke="black" stroke-width="1.5" />
    <path d="M13.7419 -94.715L-376.258 295.285" stroke="black" stroke-width="1.5" />
    <path d="M18.7419 -94.715L-371.258 295.285" stroke="black" stroke-width="1.5" />
    <path d="M23.7419 -94.715L-366.258 295.285" stroke="black" stroke-width="1.5" />
    <path d="M28.7419 -94.715L-361.258 295.285" stroke="black" stroke-width="1.5" />
    <path d="M33.7419 -94.715L-356.258 295.285" stroke="black" stroke-width="1.5" />
    <path d="M38.7419 -94.715L-351.258 295.285" stroke="black" stroke-width="1.5" />
    <path d="M43.7419 -94.715L-346.258 295.285" stroke="black" stroke-width="1.5" />
    <path d="M48.7419 -94.715L-341.258 295.285" stroke="black" stroke-width="1.5" />
    <path d="M53.7419 -94.715L-336.258 295.285" stroke="black" stroke-width="1.5" />
    <path d="M58.7419 -94.715L-331.258 295.285" stroke="black" stroke-width="1.5" />
    <path d="M63.7419 -94.715L-326.258 295.285" stroke="black" stroke-width="1.5" />
    <path d="M68.7419 -94.715L-321.258 295.285" stroke="black" stroke-width="1.5" />
    <path d="M73.7419 -94.715L-316.258 295.285" stroke="black" stroke-width="1.5" />
    <path d="M78.7419 -94.715L-311.258 295.285" stroke="black" stroke-width="1.5" />
    <path d="M83.7419 -94.715L-306.258 295.285" stroke="black" stroke-width="1.5" />
    <path d="M88.7419 -94.715L-301.258 295.285" stroke="black" stroke-width="1.5" />
    <path d="M93.7419 -94.715L-296.258 295.285" stroke="black" stroke-width="1.5" />
    <path d="M98.7419 -94.715L-291.258 295.285" stroke="black" stroke-width="1.5" />
    <path d="M103.742 -94.715L-286.258 295.285" stroke="black" stroke-width="1.5" />
    <path d="M108.742 -94.715L-281.258 295.285" stroke="black" stroke-width="1.5" />
    <path d="M113.742 -94.715L-276.258 295.285" stroke="black" stroke-width="1.5" />
    <path d="M118.742 -94.715L-271.258 295.285" stroke="black" stroke-width="1.5" />
    <path d="M123.742 -94.715L-266.258 295.285" stroke="black" stroke-width="1.5" />
    <path d="M128.742 -94.715L-261.258 295.285" stroke="black" stroke-width="1.5" />
    <path d="M133.742 -94.715L-256.258 295.285" stroke="black" stroke-width="1.5" />
    <path d="M138.742 -94.715L-251.258 295.285" stroke="black" stroke-width="1.5" />
    <path d="M143.742 -94.715L-246.258 295.285" stroke="black" stroke-width="1.5" />
    <path d="M148.742 -94.715L-241.258 295.285" stroke="black" stroke-width="1.5" />
    <path d="M153.742 -94.715L-236.258 295.285" stroke="black" stroke-width="1.5" />
    <path d="M158.742 -94.715L-231.258 295.285" stroke="black" stroke-width="1.5" />
    <path d="M163.742 -94.715L-226.258 295.285" stroke="black" stroke-width="1.5" />
    <path d="M168.742 -94.715L-221.258 295.285" stroke="black" stroke-width="1.5" />
    <path d="M173.742 -94.715L-216.258 295.285" stroke="black" stroke-width="1.5" />
    <path d="M178.742 -94.715L-211.258 295.285" stroke="black" stroke-width="1.5" />
    <path d="M183.742 -94.715L-206.258 295.285" stroke="black" stroke-width="1.5" />
    <path d="M188.742 -94.715L-201.258 295.285" stroke="black" stroke-width="1.5" />
    <path d="M193.742 -94.715L-196.258 295.285" stroke="black" stroke-width="1.5" />
    <path d="M198.742 -94.715L-191.258 295.285" stroke="black" stroke-width="1.5" />
    <path d="M203.742 -94.715L-186.258 295.285" stroke="black" stroke-width="1.5" />
    <path d="M208.742 -94.715L-181.258 295.285" stroke="black" stroke-width="1.5" />
    <path d="M213.742 -94.715L-176.258 295.285" stroke="black" stroke-width="1.5" />
    <path d="M218.742 -94.715L-171.258 295.285" stroke="black" stroke-width="1.5" />
    <path d="M223.742 -94.715L-166.258 295.285" stroke="black" stroke-width="1.5" />
    <path d="M228.742 -94.715L-161.258 295.285" stroke="black" stroke-width="1.5" />
    <path d="M233.742 -94.715L-156.258 295.285" stroke="black" stroke-width="1.5" />
    <path d="M238.742 -94.715L-151.258 295.285" stroke="black" stroke-width="1.5" />
    <path d="M243.742 -94.715L-146.258 295.285" stroke="black" stroke-width="1.5" />
    <path d="M248.742 -94.715L-141.258 295.285" stroke="black" stroke-width="1.5" />
    <path d="M253.742 -94.715L-136.258 295.285" stroke="black" stroke-width="1.5" />
    <path d="M258.742 -94.715L-131.258 295.285" stroke="black" stroke-width="1.5" />
    <path d="M263.742 -94.715L-126.258 295.285" stroke="black" stroke-width="1.5" />
    <path d="M268.742 -94.715L-121.258 295.285" stroke="black" stroke-width="1.5" />
    <path d="M273.742 -94.715L-116.258 295.285" stroke="black" stroke-width="1.5" />
    <path d="M278.742 -94.715L-111.258 295.285" stroke="black" stroke-width="1.5" />
    <path d="M283.742 -94.715L-106.258 295.285" stroke="black" stroke-width="1.5" />
    <path d="M288.742 -94.715L-101.258 295.285" stroke="black" stroke-width="1.5" />
    <path d="M293.742 -94.715L-96.2581 295.285" stroke="black" stroke-width="1.5" />
    <path d="M298.742 -94.715L-91.2581 295.285" stroke="black" stroke-width="1.5" />
    <path d="M303.742 -94.715L-86.2581 295.285" stroke="black" stroke-width="1.5" />
    <path d="M308.742 -94.715L-81.2581 295.285" stroke="black" stroke-width="1.5" />
    <path d="M313.742 -94.715L-76.2581 295.285" stroke="black" stroke-width="1.5" />
    <path d="M318.742 -94.715L-71.2581 295.285" stroke="black" stroke-width="1.5" />
    <path d="M323.742 -94.715L-66.2581 295.285" stroke="black" stroke-width="1.5" />
    <path d="M328.742 -94.715L-61.2581 295.285" stroke="black" stroke-width="1.5" />
    <path d="M333.742 -94.715L-56.2581 295.285" stroke="black" stroke-width="1.5" />
    <path d="M338.742 -94.715L-51.2581 295.285" stroke="black" stroke-width="1.5" />
    <path d="M343.742 -94.715L-46.2581 295.285" stroke="black" stroke-width="1.5" />
    <path d="M348.742 -94.715L-41.2581 295.285" stroke="black" stroke-width="1.5" />
    <path d="M353.742 -94.715L-36.2581 295.285" stroke="black" stroke-width="1.5" />
    <path d="M358.742 -94.715L-31.2581 295.285" stroke="black" stroke-width="1.5" />
    <path d="M363.742 -94.715L-26.2581 295.285" stroke="black" stroke-width="1.5" />
    <path d="M368.742 -94.715L-21.2581 295.285" stroke="black" stroke-width="1.5" />
    <path d="M373.742 -94.715L-16.2581 295.285" stroke="black" stroke-width="1.5" />
    <path d="M378.742 -94.715L-11.2581 295.285" stroke="black" stroke-width="1.5" />
    <path d="M383.742 -94.715L-6.25805 295.285" stroke="black" stroke-width="1.5" />
    <path d="M388.742 -94.715L-1.25805 295.285" stroke="black" stroke-width="1.5" />
    <path d="M393.742 -94.715L3.74195 295.285" stroke="black" stroke-width="1.5" />
    <path d="M398.742 -94.715L8.74195 295.285" stroke="black" stroke-width="1.5" />
    <path d="M403.742 -94.715L13.7419 295.285" stroke="black" stroke-width="1.5" />
    <path d="M408.742 -94.715L18.7419 295.285" stroke="black" stroke-width="1.5" />
    <path d="M413.742 -94.715L23.7419 295.285" stroke="black" stroke-width="1.5" />
    <path d="M418.742 -94.715L28.7419 295.285" stroke="black" stroke-width="1.5" />
    <path d="M423.742 -94.715L33.7419 295.285" stroke="black" stroke-width="1.5" />
    <path d="M428.742 -94.715L38.7419 295.285" stroke="black" stroke-width="1.5" />
    <path d="M433.742 -94.715L43.7419 295.285" stroke="black" stroke-width="1.5" />
    <path d="M438.742 -94.715L48.7419 295.285" stroke="black" stroke-width="1.5" />
    <path d="M443.742 -94.715L53.7419 295.285" stroke="black" stroke-width="1.5" />
    <path d="M448.742 -94.715L58.7419 295.285" stroke="black" stroke-width="1.5" />
    <path d="M453.742 -94.715L63.7419 295.285" stroke="black" stroke-width="1.5" />
    <path d="M458.742 -94.715L68.7419 295.285" stroke="black" stroke-width="1.5" />
    <path d="M463.742 -94.715L73.7419 295.285" stroke="black" stroke-width="1.5" />
    <path d="M468.742 -94.715L78.7419 295.285" stroke="black" stroke-width="1.5" />
    <path d="M473.742 -94.715L83.7419 295.285" stroke="black" stroke-width="1.5" />
    <path d="M478.742 -94.715L88.7419 295.285" stroke="black" stroke-width="1.5" />
    <path d="M483.742 -94.715L93.7419 295.285" stroke="black" stroke-width="1.5" />
    <path d="M488.742 -94.715L98.7419 295.285" stroke="black" stroke-width="1.5" />
    <path d="M493.742 -94.715L103.742 295.285" stroke="black" stroke-width="1.5" />
    <path d="M498.742 -94.715L108.742 295.285" stroke="black" stroke-width="1.5" />
    <path d="M503.742 -94.715L113.742 295.285" stroke="black" stroke-width="1.5" />
    <path d="M508.742 -94.715L118.742 295.285" stroke="black" stroke-width="1.5" />
    <path d="M513.742 -94.715L123.742 295.285" stroke="black" stroke-width="1.5" />
    <path d="M518.742 -94.715L128.742 295.285" stroke="black" stroke-width="1.5" />
    <path d="M523.742 -94.715L133.742 295.285" stroke="black" stroke-width="1.5" />
    <path d="M528.742 -94.715L138.742 295.285" stroke="black" stroke-width="1.5" />
    <path d="M533.742 -94.715L143.742 295.285" stroke="black" stroke-width="1.5" />
  </g>
</svg>