<svg width="168" height="238" viewBox="0 0 168 238" fill="none" xmlns="http://www.w3.org/2000/svg">
<mask id="mask0_647_26158" style="mask-type:alpha" maskUnits="userSpaceOnUse" x="0" y="4" width="164" height="234">
<mask id="path-1-inside-1_647_26158" fill="white">
<path fill-rule="evenodd" clip-rule="evenodd" d="M164 51C164 64.8989 157.959 77.3934 148.362 86C157.959 94.6066 164 107.101 164 121C164 146.947 142.947 168 117 168C108.646 168 100.8 165.818 94 161.993V191C94 216.947 72.9474 238 47 238C21.0526 238 0 216.947 0 191C0 177.101 6.0406 164.607 15.6384 156C6.0406 147.393 0 134.899 0 121C0 107.101 6.0406 94.6066 15.6384 86C6.0406 77.3934 0 64.8989 0 51C0 25.0526 21.0526 4 47 4H117C142.947 4 164 25.0526 164 51Z"/>
</mask>
<path fill-rule="evenodd" clip-rule="evenodd" d="M164 51C164 64.8989 157.959 77.3934 148.362 86C157.959 94.6066 164 107.101 164 121C164 146.947 142.947 168 117 168C108.646 168 100.8 165.818 94 161.993V191C94 216.947 72.9474 238 47 238C21.0526 238 0 216.947 0 191C0 177.101 6.0406 164.607 15.6384 156C6.0406 147.393 0 134.899 0 121C0 107.101 6.0406 94.6066 15.6384 86C6.0406 77.3934 0 64.8989 0 51C0 25.0526 21.0526 4 47 4H117C142.947 4 164 25.0526 164 51Z" fill="white"/>
<path d="M148.362 86L147.026 84.511L145.366 86L147.026 87.489L148.362 86ZM94 161.993L94.9806 160.25L92 158.573V161.993H94ZM15.6384 156L16.9736 157.489L18.6341 156L16.9736 154.511L15.6384 156ZM15.6384 86L16.9736 87.489L18.6341 86L16.9736 84.511L15.6384 86ZM149.697 87.489C159.699 78.5194 166 65.4912 166 51H162C162 64.3066 156.219 76.2674 147.026 84.511L149.697 87.489ZM166 121C166 106.509 159.699 93.4806 149.697 84.511L147.026 87.489C156.219 95.7326 162 107.693 162 121H166ZM117 170C144.052 170 166 148.052 166 121H162C162 145.843 141.843 166 117 166V170ZM93.0195 163.736C100.111 167.725 108.294 170 117 170V166C108.999 166 101.489 163.911 94.9806 160.25L93.0195 163.736ZM96 191V161.993H92V191H96ZM47 240C74.052 240 96 218.052 96 191H92C92 215.843 71.8429 236 47 236V240ZM-2 191C-2 218.052 19.948 240 47 240V236C22.1572 236 2 215.843 2 191H-2ZM14.3032 154.511C4.30055 163.481 -2 176.509 -2 191H2C2 177.693 7.78065 165.733 16.9736 157.489L14.3032 154.511ZM-2 121C-2 135.491 4.30055 148.519 14.3032 157.489L16.9736 154.511C7.78065 146.267 2 134.307 2 121H-2ZM14.3032 84.511C4.30055 93.4806 -2 106.509 -2 121H2C2 107.693 7.78065 95.7326 16.9736 87.489L14.3032 84.511ZM-2 51C-2 65.4912 4.30055 78.5194 14.3032 87.489L16.9736 84.511C7.78065 76.2674 2 64.3066 2 51H-2ZM47 2C19.948 2 -2 23.948 -2 51H2C2 26.1571 22.1572 6 47 6V2ZM117 2H47V6H117V2ZM166 51C166 23.948 144.052 2 117 2V6C141.843 6 162 26.1572 162 51H166Z" fill="#07090D" mask="url(#path-1-inside-1_647_26158)"/>
</mask>
<g mask="url(#mask0_647_26158)">
<path d="M2.98804 -91L-387.012 299" stroke="black" stroke-width="1.5"/>
<path d="M7.98804 -91L-382.012 299" stroke="black" stroke-width="1.5"/>
<path d="M12.988 -91L-377.012 299" stroke="black" stroke-width="1.5"/>
<path d="M17.988 -91L-372.012 299" stroke="black" stroke-width="1.5"/>
<path d="M22.988 -91L-367.012 299" stroke="black" stroke-width="1.5"/>
<path d="M27.988 -91L-362.012 299" stroke="black" stroke-width="1.5"/>
<path d="M32.988 -91L-357.012 299" stroke="black" stroke-width="1.5"/>
<path d="M37.988 -91L-352.012 299" stroke="black" stroke-width="1.5"/>
<path d="M42.988 -91L-347.012 299" stroke="black" stroke-width="1.5"/>
<path d="M47.988 -91L-342.012 299" stroke="black" stroke-width="1.5"/>
<path d="M52.988 -91L-337.012 299" stroke="black" stroke-width="1.5"/>
<path d="M57.988 -91L-332.012 299" stroke="black" stroke-width="1.5"/>
<path d="M62.988 -91L-327.012 299" stroke="black" stroke-width="1.5"/>
<path d="M67.988 -91L-322.012 299" stroke="black" stroke-width="1.5"/>
<path d="M72.988 -91L-317.012 299" stroke="black" stroke-width="1.5"/>
<path d="M77.988 -91L-312.012 299" stroke="black" stroke-width="1.5"/>
<path d="M82.988 -91L-307.012 299" stroke="black" stroke-width="1.5"/>
<path d="M87.988 -91L-302.012 299" stroke="black" stroke-width="1.5"/>
<path d="M92.988 -91L-297.012 299" stroke="black" stroke-width="1.5"/>
<path d="M97.988 -91L-292.012 299" stroke="black" stroke-width="1.5"/>
<path d="M102.988 -91L-287.012 299" stroke="black" stroke-width="1.5"/>
<path d="M107.988 -91L-282.012 299" stroke="black" stroke-width="1.5"/>
<path d="M112.988 -91L-277.012 299" stroke="black" stroke-width="1.5"/>
<path d="M117.988 -91L-272.012 299" stroke="black" stroke-width="1.5"/>
<path d="M122.988 -91L-267.012 299" stroke="black" stroke-width="1.5"/>
<path d="M127.988 -91L-262.012 299" stroke="black" stroke-width="1.5"/>
<path d="M132.988 -91L-257.012 299" stroke="black" stroke-width="1.5"/>
<path d="M137.988 -91L-252.012 299" stroke="black" stroke-width="1.5"/>
<path d="M142.988 -91L-247.012 299" stroke="black" stroke-width="1.5"/>
<path d="M147.988 -91L-242.012 299" stroke="black" stroke-width="1.5"/>
<path d="M152.988 -91L-237.012 299" stroke="black" stroke-width="1.5"/>
<path d="M157.988 -91L-232.012 299" stroke="black" stroke-width="1.5"/>
<path d="M162.988 -91L-227.012 299" stroke="black" stroke-width="1.5"/>
<path d="M167.988 -91L-222.012 299" stroke="black" stroke-width="1.5"/>
<path d="M172.988 -91L-217.012 299" stroke="black" stroke-width="1.5"/>
<path d="M177.988 -91L-212.012 299" stroke="black" stroke-width="1.5"/>
<path d="M182.988 -91L-207.012 299" stroke="black" stroke-width="1.5"/>
<path d="M187.988 -91L-202.012 299" stroke="black" stroke-width="1.5"/>
<path d="M192.988 -91L-197.012 299" stroke="black" stroke-width="1.5"/>
<path d="M197.988 -91L-192.012 299" stroke="black" stroke-width="1.5"/>
<path d="M202.988 -91L-187.012 299" stroke="black" stroke-width="1.5"/>
<path d="M207.988 -91L-182.012 299" stroke="black" stroke-width="1.5"/>
<path d="M212.988 -91L-177.012 299" stroke="black" stroke-width="1.5"/>
<path d="M217.988 -91L-172.012 299" stroke="black" stroke-width="1.5"/>
<path d="M222.988 -91L-167.012 299" stroke="black" stroke-width="1.5"/>
<path d="M227.988 -91L-162.012 299" stroke="black" stroke-width="1.5"/>
<path d="M232.988 -91L-157.012 299" stroke="black" stroke-width="1.5"/>
<path d="M237.988 -91L-152.012 299" stroke="black" stroke-width="1.5"/>
<path d="M242.988 -91L-147.012 299" stroke="black" stroke-width="1.5"/>
<path d="M247.988 -91L-142.012 299" stroke="black" stroke-width="1.5"/>
<path d="M252.988 -91L-137.012 299" stroke="black" stroke-width="1.5"/>
<path d="M257.988 -91L-132.012 299" stroke="black" stroke-width="1.5"/>
<path d="M262.988 -91L-127.012 299" stroke="black" stroke-width="1.5"/>
<path d="M267.988 -91L-122.012 299" stroke="black" stroke-width="1.5"/>
<path d="M272.988 -91L-117.012 299" stroke="black" stroke-width="1.5"/>
<path d="M277.988 -91L-112.012 299" stroke="black" stroke-width="1.5"/>
<path d="M282.988 -91L-107.012 299" stroke="black" stroke-width="1.5"/>
<path d="M287.988 -91L-102.012 299" stroke="black" stroke-width="1.5"/>
<path d="M292.988 -91L-97.012 299" stroke="black" stroke-width="1.5"/>
<path d="M297.988 -91L-92.012 299" stroke="black" stroke-width="1.5"/>
<path d="M302.988 -91L-87.012 299" stroke="black" stroke-width="1.5"/>
<path d="M307.988 -91L-82.012 299" stroke="black" stroke-width="1.5"/>
<path d="M312.988 -91L-77.012 299" stroke="black" stroke-width="1.5"/>
<path d="M317.988 -91L-72.012 299" stroke="black" stroke-width="1.5"/>
<path d="M322.988 -91L-67.012 299" stroke="black" stroke-width="1.5"/>
<path d="M327.988 -91L-62.012 299" stroke="black" stroke-width="1.5"/>
<path d="M332.988 -91L-57.012 299" stroke="black" stroke-width="1.5"/>
<path d="M337.988 -91L-52.012 299" stroke="black" stroke-width="1.5"/>
<path d="M342.988 -91L-47.012 299" stroke="black" stroke-width="1.5"/>
<path d="M347.988 -91L-42.012 299" stroke="black" stroke-width="1.5"/>
<path d="M352.988 -91L-37.012 299" stroke="black" stroke-width="1.5"/>
<path d="M357.988 -91L-32.012 299" stroke="black" stroke-width="1.5"/>
<path d="M362.988 -91L-27.012 299" stroke="black" stroke-width="1.5"/>
<path d="M367.988 -91L-22.012 299" stroke="black" stroke-width="1.5"/>
<path d="M372.988 -91L-17.012 299" stroke="black" stroke-width="1.5"/>
<path d="M377.988 -91L-12.012 299" stroke="black" stroke-width="1.5"/>
<path d="M382.988 -91L-7.01196 299" stroke="black" stroke-width="1.5"/>
<path d="M387.988 -91L-2.01196 299" stroke="black" stroke-width="1.5"/>
<path d="M392.988 -91L2.98804 299" stroke="black" stroke-width="1.5"/>
<path d="M397.988 -91L7.98804 299" stroke="black" stroke-width="1.5"/>
<path d="M402.988 -91L12.988 299" stroke="black" stroke-width="1.5"/>
<path d="M407.988 -91L17.988 299" stroke="black" stroke-width="1.5"/>
<path d="M412.988 -91L22.988 299" stroke="black" stroke-width="1.5"/>
<path d="M417.988 -91L27.988 299" stroke="black" stroke-width="1.5"/>
<path d="M422.988 -91L32.988 299" stroke="black" stroke-width="1.5"/>
<path d="M427.988 -91L37.988 299" stroke="black" stroke-width="1.5"/>
<path d="M432.988 -91L42.988 299" stroke="black" stroke-width="1.5"/>
<path d="M437.988 -91L47.988 299" stroke="black" stroke-width="1.5"/>
<path d="M442.988 -91L52.988 299" stroke="black" stroke-width="1.5"/>
<path d="M447.988 -91L57.988 299" stroke="black" stroke-width="1.5"/>
<path d="M452.988 -91L62.988 299" stroke="black" stroke-width="1.5"/>
<path d="M457.988 -91L67.988 299" stroke="black" stroke-width="1.5"/>
<path d="M462.988 -91L72.988 299" stroke="black" stroke-width="1.5"/>
<path d="M467.988 -91L77.988 299" stroke="black" stroke-width="1.5"/>
<path d="M472.988 -91L82.988 299" stroke="black" stroke-width="1.5"/>
<path d="M477.988 -91L87.988 299" stroke="black" stroke-width="1.5"/>
<path d="M482.988 -91L92.988 299" stroke="black" stroke-width="1.5"/>
<path d="M487.988 -91L97.988 299" stroke="black" stroke-width="1.5"/>
<path d="M492.988 -91L102.988 299" stroke="black" stroke-width="1.5"/>
<path d="M497.988 -91L107.988 299" stroke="black" stroke-width="1.5"/>
<path d="M502.988 -91L112.988 299" stroke="black" stroke-width="1.5"/>
<path d="M507.988 -91L117.988 299" stroke="black" stroke-width="1.5"/>
<path d="M512.988 -91L122.988 299" stroke="black" stroke-width="1.5"/>
<path d="M517.988 -91L127.988 299" stroke="black" stroke-width="1.5"/>
<path d="M522.988 -91L132.988 299" stroke="black" stroke-width="1.5"/>
<path d="M527.988 -91L137.988 299" stroke="black" stroke-width="1.5"/>
<path d="M532.988 -91L142.988 299" stroke="black" stroke-width="1.5"/>
<path d="M537.988 -91L147.988 299" stroke="black" stroke-width="1.5"/>
<path d="M542.988 -91L152.988 299" stroke="black" stroke-width="1.5"/>
<path d="M547.988 -91L157.988 299" stroke="black" stroke-width="1.5"/>
<path d="M552.988 -91L162.988 299" stroke="black" stroke-width="1.5"/>
</g>
</svg>
