<svg width="168" height="238" viewBox="0 0 168 238" fill="none" xmlns="http://www.w3.org/2000/svg">
<mask id="path-1-inside-1_647_26158" fill="white">
<path fill-rule="evenodd" clip-rule="evenodd" d="M168 47C168 60.8989 161.959 73.3934 152.362 82C161.959 90.6066 168 103.101 168 117C168 142.947 146.947 164 121 164C112.646 164 104.8 161.818 98 157.993V187C98 212.947 76.9474 234 51 234C25.0526 234 4 212.947 4 187C4 173.101 10.0406 160.607 19.6384 152C10.0406 143.393 4 130.899 4 117C4 103.101 10.0406 90.6066 19.6384 82C10.0406 73.3934 4 60.8989 4 47C4 21.0526 25.0526 0 51 0H121C146.947 0 168 21.0526 168 47Z"/>
</mask>
<path fill-rule="evenodd" clip-rule="evenodd" d="M168 47C168 60.8989 161.959 73.3934 152.362 82C161.959 90.6066 168 103.101 168 117C168 142.947 146.947 164 121 164C112.646 164 104.8 161.818 98 157.993V187C98 212.947 76.9474 234 51 234C25.0526 234 4 212.947 4 187C4 173.101 10.0406 160.607 19.6384 152C10.0406 143.393 4 130.899 4 117C4 103.101 10.0406 90.6066 19.6384 82C10.0406 73.3934 4 60.8989 4 47C4 21.0526 25.0526 0 51 0H121C146.947 0 168 21.0526 168 47Z" fill="white"/>
<path d="M152.362 82L151.026 80.511L149.366 82L151.026 83.489L152.362 82ZM98 157.993L98.9806 156.25L96 154.573V157.993H98ZM19.6384 152L20.9736 153.489L22.6341 152L20.9736 150.511L19.6384 152ZM19.6384 82L20.9736 83.489L22.6341 82L20.9736 80.511L19.6384 82ZM153.697 83.489C163.699 74.5194 170 61.4912 170 47H166C166 60.3066 160.219 72.2674 151.026 80.511L153.697 83.489ZM170 117C170 102.509 163.699 89.4806 153.697 80.511L151.026 83.489C160.219 91.7326 166 103.693 166 117H170ZM121 166C148.052 166 170 144.052 170 117H166C166 141.843 145.843 162 121 162V166ZM97.0195 159.736C104.111 163.725 112.294 166 121 166V162C112.999 162 105.489 159.911 98.9806 156.25L97.0195 159.736ZM100 187V157.993H96V187H100ZM51 236C78.052 236 100 214.052 100 187H96C96 211.843 75.8429 232 51 232V236ZM2 187C2 214.052 23.948 236 51 236V232C26.1572 232 6 211.843 6 187H2ZM18.3032 150.511C8.30055 159.481 2 172.509 2 187H6C6 173.693 11.7806 161.733 20.9736 153.489L18.3032 150.511ZM2 117C2 131.491 8.30055 144.519 18.3032 153.489L20.9736 150.511C11.7806 142.267 6 130.307 6 117H2ZM18.3032 80.511C8.30055 89.4806 2 102.509 2 117H6C6 103.693 11.7806 91.7326 20.9736 83.489L18.3032 80.511ZM2 47C2 61.4912 8.30055 74.5194 18.3032 83.489L20.9736 80.511C11.7806 72.2674 6 60.3066 6 47H2ZM51 -2C23.948 -2 2 19.948 2 47H6C6 22.1571 26.1572 2 51 2V-2ZM121 -2H51V2H121V-2ZM170 47C170 19.948 148.052 -2 121 -2V2C145.843 2 166 22.1572 166 47H170Z" fill="#07090D" mask="url(#path-1-inside-1_647_26158)"/>
</svg>
