<svg
  width="145"
  height="205"
  viewBox="0 0 145 205"
  fill="none"
  xmlns="http://www.w3.org/2000/svg"
>
  <mask id="path-1-inside-1_545_27707" fill="white">
    <path
      fill-rule="evenodd"
      clip-rule="evenodd"
      d="M84.742 162.285L84.742 140.242C90.1963 142.834 96.2973 144.285 102.736 144.285C125.922 144.285 144.73 125.47 144.73 102.285C144.73 90.5363 139.901 79.9098 132.119 72.285C139.901 64.6602 144.73 54.0338 144.73 42.285C144.73 19.0999 125.922 0.285034 102.736 0.285034L42.748 0.285034C19.5616 0.285034 0.753967 19.0999 0.753967 42.285C0.753967 54.0337 5.58338 64.6602 13.3647 72.285C5.58338 79.9098 0.753967 90.5363 0.753967 102.285C0.753967 114.034 5.58338 124.66 13.3647 132.285C5.58338 139.91 0.753967 150.536 0.753967 162.285C0.753967 185.47 19.5616 204.285 42.748 204.285C65.9343 204.285 84.742 185.47 84.742 162.285Z"
    />
  </mask>
  <path
    fill-rule="evenodd"
    clip-rule="evenodd"
    d="M84.742 162.285L84.742 140.242C90.1963 142.834 96.2973 144.285 102.736 144.285C125.922 144.285 144.73 125.47 144.73 102.285C144.73 90.5363 139.901 79.9098 132.119 72.285C139.901 64.6602 144.73 54.0338 144.73 42.285C144.73 19.0999 125.922 0.285034 102.736 0.285034L42.748 0.285034C19.5616 0.285034 0.753967 19.0999 0.753967 42.285C0.753967 54.0337 5.58338 64.6602 13.3647 72.285C5.58338 79.9098 0.753967 90.5363 0.753967 102.285C0.753967 114.034 5.58338 124.66 13.3647 132.285C5.58338 139.91 0.753967 150.536 0.753967 162.285C0.753967 185.47 19.5616 204.285 42.748 204.285C65.9343 204.285 84.742 185.47 84.742 162.285Z"
    fill="white"
  />
  <path
    d="M84.742 140.242L85.6005 138.435L82.742 137.077L82.742 140.242H84.742ZM84.742 162.285H86.742H84.742ZM132.119 72.285L130.719 70.8565L129.262 72.285L130.719 73.7135L132.119 72.285ZM102.736 0.285034V-1.71497V0.285034ZM42.748 0.285034V2.28503V0.285034ZM13.3647 72.285L14.7645 73.7135L16.2223 72.285L14.7645 70.8565L13.3647 72.285ZM13.3647 132.285L14.7645 133.714L16.2223 132.285L14.7645 130.857L13.3647 132.285ZM82.742 140.242L82.742 162.285H86.742L86.742 140.242H82.742ZM102.736 142.285C96.6007 142.285 90.7924 140.903 85.6005 138.435L83.8834 142.048C89.6002 144.765 95.994 146.285 102.736 146.285V142.285ZM142.73 102.285C142.73 124.366 124.817 142.285 102.736 142.285V146.285C127.027 146.285 146.73 126.574 146.73 102.285H142.73ZM130.719 73.7135C138.133 80.9779 142.73 91.0959 142.73 102.285H146.73C146.73 89.9767 141.668 78.8417 133.519 70.8565L130.719 73.7135ZM142.73 42.285C142.73 53.4742 138.133 63.5922 130.719 70.8565L133.519 73.7135C141.668 65.7283 146.73 54.5933 146.73 42.285H142.73ZM102.736 2.28503C124.817 2.28503 142.73 20.204 142.73 42.285H146.73C146.73 17.9957 127.027 -1.71497 102.736 -1.71497V2.28503ZM42.748 2.28503L102.736 2.28503V-1.71497L42.748 -1.71497V2.28503ZM2.75397 42.285C2.75397 20.204 20.6666 2.28503 42.748 2.28503V-1.71497C18.4566 -1.71497 -1.24603 17.9957 -1.24603 42.285H2.75397ZM14.7645 70.8565C7.35097 63.5922 2.75397 53.4742 2.75397 42.285H-1.24603C-1.24603 54.5933 3.81579 65.7283 11.965 73.7135L14.7645 70.8565ZM2.75397 102.285C2.75397 91.0959 7.35097 80.9779 14.7645 73.7135L11.965 70.8565C3.81579 78.8417 -1.24603 89.9767 -1.24603 102.285H2.75397ZM14.7645 130.857C7.35097 123.592 2.75397 113.474 2.75397 102.285H-1.24603C-1.24603 114.593 3.81579 125.728 11.965 133.714L14.7645 130.857ZM2.75397 162.285C2.75397 151.096 7.35097 140.978 14.7645 133.714L11.965 130.857C3.81579 138.842 -1.24603 149.977 -1.24603 162.285H2.75397ZM42.748 202.285C20.6666 202.285 2.75397 184.366 2.75397 162.285H-1.24603C-1.24603 186.574 18.4566 206.285 42.748 206.285V202.285ZM82.742 162.285C82.742 184.366 64.8294 202.285 42.748 202.285V206.285C67.0393 206.285 86.742 186.574 86.742 162.285H82.742Z"
    fill="#07090D"
    mask="url(#path-1-inside-1_545_27707)"
  />
</svg>