<svg width="278" height="296" viewBox="0 0 278 296" fill="none" xmlns="http://www.w3.org/2000/svg">
<path d="M258.04 252.64C257.51 252.64 257.08 253.07 257.08 253.6V280.48C257.08 286.312 252.352 291.04 246.52 291.04H56.44C52.9941 291.04 49.765 289.359 47.7889 286.536L7.46889 228.936C6.22642 227.161 5.55998 225.047 5.55998 222.88V50.08C5.55998 46.872 7.0182 43.838 9.5232 41.834L57.5232 3.43403C59.3956 1.93609 61.7221 1.12 64.12 1.12H265.72C271.552 1.12 276.28 5.84788 276.28 11.68V242.08C276.28 247.912 271.552 252.64 265.72 252.64H258.04Z" fill="white" stroke="#07090D" stroke-width="1.92" stroke-linejoin="round"/>
<path d="M65 13H264.5V241H65V13Z" fill="url(#paint0_linear_647_26153)"/>
<path d="M17.5 51L65 13V241L57.4 279L17.5 222V51Z" fill="url(#paint1_linear_647_26153)"/>
<path d="M57.4 241H245.5V279H57.4V241Z" fill="url(#paint2_linear_647_26153)"/>
<rect x="65" y="248.6" width="1.9" height="22.8" fill="url(#paint3_linear_647_26153)"/>
<rect x="70.7" y="248.6" width="1.9" height="22.8" fill="url(#paint4_linear_647_26153)"/>
<rect x="76.4" y="248.6" width="1.9" height="22.8" fill="url(#paint5_linear_647_26153)"/>
<rect x="82.1" y="248.6" width="1.9" height="22.8" fill="url(#paint6_linear_647_26153)"/>
<rect x="87.8" y="248.6" width="1.9" height="22.8" fill="url(#paint7_linear_647_26153)"/>
<rect x="93.5" y="248.6" width="1.9" height="22.8" fill="url(#paint8_linear_647_26153)"/>
<rect x="99.2" y="248.6" width="1.9" height="22.8" fill="url(#paint9_linear_647_26153)"/>
<rect x="104.9" y="248.6" width="1.9" height="22.8" fill="url(#paint10_linear_647_26153)"/>
<rect x="110.6" y="248.6" width="1.9" height="22.8" fill="url(#paint11_linear_647_26153)"/>
<rect x="116.3" y="248.6" width="1.9" height="22.8" fill="url(#paint12_linear_647_26153)"/>
<rect x="122" y="248.6" width="1.9" height="22.8" fill="url(#paint13_linear_647_26153)"/>
<rect x="127.7" y="248.6" width="1.9" height="22.8" fill="url(#paint14_linear_647_26153)"/>
<rect x="133.4" y="248.6" width="1.9" height="22.8" fill="url(#paint15_linear_647_26153)"/>
<rect x="139.1" y="248.6" width="1.9" height="22.8" fill="url(#paint16_linear_647_26153)"/>
<rect x="144.8" y="248.6" width="1.9" height="22.8" fill="url(#paint17_linear_647_26153)"/>
<rect x="150.5" y="248.6" width="1.9" height="22.8" fill="url(#paint18_linear_647_26153)"/>
<rect x="156.2" y="248.6" width="1.9" height="22.8" fill="url(#paint19_linear_647_26153)"/>
<rect x="161.9" y="248.6" width="1.9" height="22.8" fill="url(#paint20_linear_647_26153)"/>
<rect x="167.6" y="248.6" width="1.9" height="22.8" fill="url(#paint21_linear_647_26153)"/>
<path d="M57.4 241H245.5V252.4H57.4V241Z" fill="black" fill-opacity="0.1"/>
<g clip-path="url(#clip0_647_26153)">
<mask id="mask0_647_26153" style="mask-type:alpha" maskUnits="userSpaceOnUse" x="84" y="193" width="29" height="29">
<path d="M109.648 216.209L112.361 206.107C112.746 204.674 112.337 203.143 111.286 202.094L103.911 194.723C102.856 193.67 101.317 193.259 99.8766 193.643L89.7961 196.35C88.36 196.734 87.2373 197.858 86.8524 199.291L84.1429 209.389C83.7581 210.822 84.1667 212.354 85.218 213.403L92.5889 220.777C93.6442 221.83 95.1835 222.242 96.6235 221.858L106.704 219.15C108.14 218.766 109.263 217.642 109.648 216.209Z" fill="#DE489A"/>
</mask>
<g mask="url(#mask0_647_26153)">
<rect x="84" y="217.25" width="28.5" height="4.75" fill="#009DDB"/>
<rect x="84" y="212.5" width="28.5" height="4.75" fill="#973E97"/>
<rect x="84" y="207.75" width="28.5" height="4.75" fill="#E13B3E"/>
<rect x="84" y="203" width="28.5" height="4.75" fill="#F5821E"/>
<rect x="84" y="198.25" width="28.5" height="4.75" fill="#FDB827"/>
<rect x="84" y="193.5" width="28.5" height="4.75" fill="#63BB47"/>
</g>
<path fill-rule="evenodd" clip-rule="evenodd" d="M97.7065 206.317H96.1276L96.1236 206.325C95.7864 206.325 95.5444 206.004 95.6317 205.68L97.3613 199.346C97.4447 199.05 97.7144 198.844 98.0199 198.844H101.987C102.396 198.844 102.642 199.299 102.412 199.639L99.9598 203.261H101.737C102.134 203.261 102.38 203.693 102.173 204.033L97.8533 211.17C97.762 211.32 97.5954 211.415 97.4169 211.415H96.7861C96.5639 211.415 96.3973 211.206 96.4568 210.988L97.7065 206.317ZM95.6436 213.45H97.8691L97.8652 213.446C98.2024 213.446 98.4444 213.763 98.3611 214.087L97.7699 216.34C97.6906 216.636 97.4208 216.846 97.1114 216.846H94.8938C94.5566 216.846 94.3146 216.534 94.3979 216.209L94.985 213.957C95.0644 213.66 95.3341 213.45 95.6436 213.45Z" fill="white"/>
</g>
<rect x="210.35" y="178.3" width="30.4" height="16.15" rx="2.85" fill="url(#paint22_linear_647_26153)"/>
<rect x="151.45" y="184.95" width="81.7" height="2.85" fill="#07090D"/>
<rect x="214.15" y="182.1" width="22.8" height="8.55" rx="1.9" fill="#07090D"/>
<path d="M84 39.6C84 35.4026 87.4026 32 91.6 32H237.9C242.097 32 245.5 35.4026 245.5 39.6V147.9C245.5 152.097 242.097 155.5 237.9 155.5H91.6C87.4026 155.5 84 152.097 84 147.9V39.6Z" fill="url(#paint23_linear_647_26153)"/>
<path d="M90.65 46.25C90.65 42.0526 94.0527 38.65 98.25 38.65H231.25C235.447 38.65 238.85 42.0526 238.85 46.25V141.25C238.85 145.447 235.447 148.85 231.25 148.85H98.25C94.0527 148.85 90.65 145.447 90.65 141.25V46.25Z" fill="#223528"/>
<path d="M108.246 70.7738V65.6362L118.57 62.771V65.735L110.172 67.9827V68.4273L118.57 70.675V73.639L108.246 70.7738ZM122.481 59.56H125.741V66.6242H131.323V59.56H134.584V76.85H131.323V69.7364H125.741V76.85H122.481V59.56ZM145.953 75.0716C145.624 75.8455 145.163 76.3972 144.57 76.7265C143.977 77.0394 143.286 77.1958 142.495 77.1958C141.754 77.1958 141.054 77.0558 140.396 76.7759C139.753 76.496 139.185 76.0843 138.691 75.5409C138.197 74.9975 137.802 74.3388 137.506 73.5649C137.226 72.791 137.086 71.91 137.086 70.922V70.5268C137.086 69.5553 137.226 68.6825 137.506 67.9086C137.786 67.1347 138.164 66.476 138.642 65.9326C139.119 65.3892 139.671 64.9775 140.297 64.6976C140.939 64.4012 141.622 64.253 142.347 64.253C143.22 64.253 143.919 64.4012 144.446 64.6976C144.99 64.994 145.418 65.4551 145.731 66.0808H146.175V64.5988H149.288V73.145C149.288 73.639 149.51 73.886 149.955 73.886H150.424V76.85H148.3C147.74 76.85 147.279 76.6853 146.916 76.356C146.571 76.0267 146.398 75.5985 146.398 75.0716H145.953ZM143.187 74.2318C144.092 74.2318 144.817 73.9354 145.36 73.3426C145.904 72.7333 146.175 71.91 146.175 70.8726V70.5762C146.175 69.5388 145.904 68.7237 145.36 68.1309C144.817 67.5216 144.092 67.217 143.187 67.217C142.281 67.217 141.557 67.5216 141.013 68.1309C140.47 68.7237 140.198 69.5388 140.198 70.5762V70.8726C140.198 71.91 140.47 72.7333 141.013 73.3426C141.557 73.9354 142.281 74.2318 143.187 74.2318ZM156.261 76.85H153.148V64.5988H156.261V66.4266H156.705C156.985 65.735 157.438 65.1998 158.064 64.8211C158.689 64.4424 159.422 64.253 160.262 64.253C160.855 64.253 161.406 64.3518 161.917 64.5494C162.444 64.7305 162.905 65.0187 163.3 65.4139C163.695 65.8091 164 66.3113 164.214 66.9206C164.444 67.5299 164.56 68.2544 164.56 69.0942V76.85H161.448V69.8846C161.448 69.0119 161.233 68.3285 160.805 67.8345C160.394 67.324 159.793 67.0688 159.002 67.0688C158.08 67.0688 157.389 67.3817 156.927 68.0074C156.483 68.6167 156.261 69.44 156.261 70.4774V76.85ZM177.065 75.0716H176.621C176.489 75.3515 176.324 75.6232 176.127 75.8867C175.946 76.1337 175.699 76.356 175.386 76.5536C175.089 76.7512 174.727 76.9076 174.299 77.0229C173.887 77.1382 173.385 77.1958 172.792 77.1958C172.035 77.1958 171.327 77.0641 170.668 76.8006C170.026 76.5207 169.458 76.1172 168.964 75.5903C168.486 75.0469 168.108 74.3882 167.828 73.6143C167.564 72.8404 167.432 71.9512 167.432 70.9467V70.5021C167.432 69.5141 167.572 68.6331 167.852 67.8592C168.149 67.0853 168.544 66.4348 169.038 65.9079C169.548 65.3645 170.133 64.9528 170.792 64.6729C171.467 64.393 172.175 64.253 172.916 64.253C173.904 64.253 174.686 64.4424 175.262 64.8211C175.839 65.1834 176.292 65.7021 176.621 66.3772H177.065V59.56H180.178V76.85H177.065V75.0716ZM173.805 74.2318C174.777 74.2318 175.559 73.9272 176.152 73.3179C176.761 72.6922 177.065 71.8771 177.065 70.8726V70.5762C177.065 69.5717 176.761 68.7649 176.152 68.1556C175.559 67.5299 174.777 67.217 173.805 67.217C172.834 67.217 172.043 67.5216 171.434 68.1309C170.841 68.7237 170.545 69.5388 170.545 70.5762V70.8726C170.545 71.91 170.841 72.7333 171.434 73.3426C172.043 73.9354 172.834 74.2318 173.805 74.2318ZM119.731 98.3546C119.451 99.8037 118.785 100.973 117.731 101.862C116.693 102.751 115.302 103.196 113.556 103.196C112.651 103.196 111.803 103.056 111.012 102.776C110.238 102.496 109.563 102.093 108.987 101.566C108.411 101.039 107.958 100.388 107.628 99.6143C107.299 98.8404 107.134 97.9594 107.134 96.9714V96.675C107.134 95.687 107.299 94.7978 107.628 94.0074C107.958 93.217 108.411 92.5419 108.987 91.982C109.58 91.4221 110.263 90.994 111.037 90.6976C111.827 90.4012 112.667 90.253 113.556 90.253C115.269 90.253 116.652 90.6976 117.706 91.5868C118.776 92.476 119.451 93.6451 119.731 95.0942L116.669 95.8846C116.57 95.1601 116.257 94.5343 115.73 94.0074C115.203 93.4805 114.462 93.217 113.507 93.217C113.062 93.217 112.642 93.2993 112.247 93.464C111.852 93.6287 111.506 93.8674 111.21 94.1803C110.913 94.4767 110.675 94.8472 110.494 95.2918C110.329 95.7199 110.247 96.2057 110.247 96.7491V96.8973C110.247 97.4407 110.329 97.9265 110.494 98.3546C110.675 98.7663 110.913 99.1121 111.21 99.392C111.506 99.6719 111.852 99.886 112.247 100.034C112.642 100.166 113.062 100.232 113.507 100.232C114.462 100.232 115.187 99.993 115.681 99.5155C116.191 99.038 116.52 98.3958 116.669 97.5889L119.731 98.3546ZM122.308 90.5988H127.495V92.3772H127.939C128.17 91.7021 128.557 91.1834 129.1 90.8211C129.66 90.4424 130.327 90.253 131.101 90.253C132.319 90.253 133.299 90.64 134.04 91.4139C134.781 92.1714 135.152 93.3323 135.152 94.8966V95.44L131.941 95.7364V95.3906C131.941 94.7155 131.768 94.1803 131.422 93.7851C131.076 93.3734 130.558 93.1676 129.866 93.1676C129.174 93.1676 128.631 93.4064 128.236 93.8839C127.841 94.3614 127.643 95.0448 127.643 95.934V99.886H130.459V102.85H122.011V99.886H124.531V93.5628H122.308V90.5988ZM145.953 101.072C145.624 101.846 145.163 102.397 144.57 102.726C143.977 103.039 143.286 103.196 142.495 103.196C141.754 103.196 141.054 103.056 140.396 102.776C139.753 102.496 139.185 102.084 138.691 101.541C138.197 100.997 137.802 100.339 137.506 99.5649C137.226 98.791 137.086 97.91 137.086 96.922V96.5268C137.086 95.5553 137.226 94.6825 137.506 93.9086C137.786 93.1347 138.164 92.476 138.642 91.9326C139.119 91.3892 139.671 90.9775 140.297 90.6976C140.939 90.4012 141.622 90.253 142.347 90.253C143.22 90.253 143.919 90.4012 144.446 90.6976C144.99 90.994 145.418 91.4551 145.731 92.0808H146.175V90.5988H149.288V99.145C149.288 99.639 149.51 99.886 149.955 99.886H150.424V102.85H148.3C147.74 102.85 147.279 102.685 146.916 102.356C146.571 102.027 146.398 101.599 146.398 101.072H145.953ZM143.187 100.232C144.092 100.232 144.817 99.9354 145.36 99.3426C145.904 98.7333 146.175 97.91 146.175 96.8726V96.5762C146.175 95.5388 145.904 94.7237 145.36 94.1309C144.817 93.5216 144.092 93.217 143.187 93.217C142.281 93.217 141.557 93.5216 141.013 94.1309C140.47 94.7237 140.198 95.5388 140.198 96.5762V96.8726C140.198 97.91 140.47 98.7333 141.013 99.3426C141.557 99.9354 142.281 100.232 143.187 100.232ZM153.05 90.5988H156.532V88.0794C156.532 87.3713 156.771 86.7785 157.249 86.301C157.726 85.807 158.319 85.56 159.027 85.56H164.016V88.524H160.311C159.867 88.524 159.644 88.771 159.644 89.265V90.5988H164.461V93.5628H159.644V102.85H156.532V93.5628H153.05V90.5988ZM167.926 90.5988H171.557V85.56H174.67V90.5988H179.091V93.5628H174.67V99.145C174.67 99.639 174.892 99.886 175.336 99.886H178.646V102.85H173.459C172.899 102.85 172.438 102.669 172.076 102.307C171.73 101.944 171.557 101.483 171.557 100.923V93.5628H167.926V90.5988ZM186.138 97.7371C186.154 98.0994 186.237 98.4369 186.385 98.7498C186.55 99.0462 186.764 99.3097 187.027 99.5402C187.307 99.7543 187.62 99.9272 187.966 100.059C188.328 100.174 188.707 100.232 189.102 100.232C189.876 100.232 190.469 100.1 190.88 99.8366C191.292 99.5567 191.588 99.2273 191.77 98.8486L194.437 100.331C194.289 100.643 194.083 100.973 193.82 101.319C193.556 101.648 193.21 101.953 192.782 102.232C192.371 102.512 191.86 102.743 191.251 102.924C190.658 103.105 189.958 103.196 189.151 103.196C188.229 103.196 187.389 103.048 186.632 102.751C185.874 102.455 185.216 102.027 184.656 101.467C184.113 100.907 183.684 100.224 183.372 99.4167C183.075 98.6098 182.927 97.6959 182.927 96.675V96.5268C182.927 95.5882 183.083 94.7319 183.396 93.958C183.726 93.1841 184.17 92.5254 184.73 91.982C185.29 91.4386 185.94 91.0187 186.681 90.7223C187.439 90.4094 188.246 90.253 189.102 90.253C190.156 90.253 191.061 90.4424 191.819 90.8211C192.576 91.1834 193.202 91.6527 193.696 92.229C194.19 92.7889 194.552 93.4146 194.783 94.1062C195.013 94.7813 195.129 95.44 195.129 96.0822V97.7371H186.138ZM189.077 93.0688C188.287 93.0688 187.645 93.2746 187.151 93.6863C186.657 94.0815 186.336 94.5426 186.187 95.0695H191.967C191.868 94.4932 191.555 94.0156 191.029 93.6369C190.518 93.2582 189.868 93.0688 189.077 93.0688ZM207.313 101.072H206.869C206.737 101.352 206.572 101.623 206.375 101.887C206.194 102.134 205.947 102.356 205.634 102.554C205.337 102.751 204.975 102.908 204.547 103.023C204.135 103.138 203.633 103.196 203.04 103.196C202.283 103.196 201.575 103.064 200.916 102.801C200.274 102.521 199.706 102.117 199.212 101.59C198.734 101.047 198.355 100.388 198.076 99.6143C197.812 98.8404 197.68 97.9512 197.68 96.9467V96.5021C197.68 95.5141 197.82 94.6331 198.1 93.8592C198.397 93.0853 198.792 92.4348 199.286 91.9079C199.796 91.3645 200.381 90.9528 201.04 90.6729C201.715 90.393 202.423 90.253 203.164 90.253C204.152 90.253 204.934 90.4424 205.51 90.8211C206.087 91.1834 206.539 91.7021 206.869 92.3772H207.313V85.56H210.426V102.85H207.313V101.072ZM204.053 100.232C205.024 100.232 205.807 99.9272 206.399 99.3179C207.009 98.6922 207.313 97.8771 207.313 96.8726V96.5762C207.313 95.5717 207.009 94.7649 206.399 94.1556C205.807 93.5299 205.024 93.217 204.053 93.217C203.081 93.217 202.291 93.5216 201.682 94.1309C201.089 94.7237 200.793 95.5388 200.793 96.5762V96.8726C200.793 97.91 201.089 98.7333 201.682 99.3426C202.291 99.9354 203.081 100.232 204.053 100.232ZM119.731 125.355C119.451 126.804 118.785 127.973 117.731 128.862C116.693 129.751 115.302 130.196 113.556 130.196C112.651 130.196 111.803 130.056 111.012 129.776C110.238 129.496 109.563 129.093 108.987 128.566C108.411 128.039 107.958 127.388 107.628 126.614C107.299 125.84 107.134 124.959 107.134 123.971V123.675C107.134 122.687 107.299 121.798 107.628 121.007C107.958 120.217 108.411 119.542 108.987 118.982C109.58 118.422 110.263 117.994 111.037 117.698C111.827 117.401 112.667 117.253 113.556 117.253C115.269 117.253 116.652 117.698 117.706 118.587C118.776 119.476 119.451 120.645 119.731 122.094L116.669 122.885C116.57 122.16 116.257 121.534 115.73 121.007C115.203 120.48 114.462 120.217 113.507 120.217C113.062 120.217 112.642 120.299 112.247 120.464C111.852 120.629 111.506 120.867 111.21 121.18C110.913 121.477 110.675 121.847 110.494 122.292C110.329 122.72 110.247 123.206 110.247 123.749V123.897C110.247 124.441 110.329 124.926 110.494 125.355C110.675 125.766 110.913 126.112 111.21 126.392C111.506 126.672 111.852 126.886 112.247 127.034C112.642 127.166 113.062 127.232 113.507 127.232C114.462 127.232 115.187 126.993 115.681 126.515C116.191 126.038 116.52 125.396 116.669 124.589L119.731 125.355ZM134.905 123.873C134.905 124.894 134.732 125.799 134.386 126.59C134.04 127.364 133.571 128.022 132.978 128.566C132.385 129.093 131.702 129.496 130.928 129.776C130.171 130.056 129.372 130.196 128.532 130.196C127.692 130.196 126.885 130.056 126.112 129.776C125.354 129.496 124.679 129.093 124.086 128.566C123.493 128.022 123.024 127.364 122.678 126.59C122.332 125.799 122.16 124.894 122.16 123.873V123.576C122.16 122.572 122.332 121.683 122.678 120.909C123.024 120.118 123.493 119.451 124.086 118.908C124.679 118.364 125.354 117.953 126.112 117.673C126.885 117.393 127.692 117.253 128.532 117.253C129.372 117.253 130.171 117.393 130.928 117.673C131.702 117.953 132.385 118.364 132.978 118.908C133.571 119.451 134.04 120.118 134.386 120.909C134.732 121.683 134.905 122.572 134.905 123.576V123.873ZM128.532 127.232C128.977 127.232 129.397 127.158 129.792 127.009C130.187 126.861 130.533 126.647 130.829 126.367C131.126 126.087 131.356 125.75 131.521 125.355C131.702 124.943 131.793 124.482 131.793 123.971V123.477C131.793 122.967 131.702 122.514 131.521 122.119C131.356 121.707 131.126 121.361 130.829 121.081C130.533 120.802 130.187 120.587 129.792 120.439C129.397 120.291 128.977 120.217 128.532 120.217C128.088 120.217 127.668 120.291 127.272 120.439C126.877 120.587 126.531 120.802 126.235 121.081C125.939 121.361 125.7 121.707 125.519 122.119C125.354 122.514 125.272 122.967 125.272 123.477V123.971C125.272 124.482 125.354 124.943 125.519 125.355C125.7 125.75 125.939 126.087 126.235 126.367C126.531 126.647 126.877 126.861 127.272 127.009C127.668 127.158 128.088 127.232 128.532 127.232ZM146.818 128.072H146.373C146.241 128.352 146.077 128.623 145.879 128.887C145.698 129.134 145.451 129.356 145.138 129.554C144.842 129.751 144.479 129.908 144.051 130.023C143.64 130.138 143.137 130.196 142.545 130.196C141.787 130.196 141.079 130.064 140.42 129.801C139.778 129.521 139.21 129.117 138.716 128.59C138.238 128.047 137.86 127.388 137.58 126.614C137.316 125.84 137.185 124.951 137.185 123.947V123.502C137.185 122.514 137.325 121.633 137.605 120.859C137.901 120.085 138.296 119.435 138.79 118.908C139.301 118.364 139.885 117.953 140.544 117.673C141.219 117.393 141.927 117.253 142.668 117.253C143.656 117.253 144.438 117.442 145.015 117.821C145.591 118.183 146.044 118.702 146.373 119.377H146.818V112.56H149.93V129.85H146.818V128.072ZM143.557 127.232C144.529 127.232 145.311 126.927 145.904 126.318C146.513 125.692 146.818 124.877 146.818 123.873V123.576C146.818 122.572 146.513 121.765 145.904 121.156C145.311 120.53 144.529 120.217 143.557 120.217C142.586 120.217 141.795 120.522 141.186 121.131C140.593 121.724 140.297 122.539 140.297 123.576V123.873C140.297 124.91 140.593 125.733 141.186 126.343C141.795 126.935 142.586 127.232 143.557 127.232ZM155.89 124.737C155.907 125.099 155.989 125.437 156.137 125.75C156.302 126.046 156.516 126.31 156.779 126.54C157.059 126.754 157.372 126.927 157.718 127.059C158.08 127.174 158.459 127.232 158.854 127.232C159.628 127.232 160.221 127.1 160.632 126.837C161.044 126.557 161.341 126.227 161.522 125.849L164.189 127.331C164.041 127.643 163.835 127.973 163.572 128.319C163.308 128.648 162.962 128.953 162.534 129.232C162.123 129.512 161.612 129.743 161.003 129.924C160.41 130.105 159.71 130.196 158.903 130.196C157.981 130.196 157.142 130.048 156.384 129.751C155.627 129.455 154.968 129.027 154.408 128.467C153.865 127.907 153.437 127.224 153.124 126.417C152.827 125.61 152.679 124.696 152.679 123.675V123.527C152.679 122.588 152.835 121.732 153.148 120.958C153.478 120.184 153.922 119.525 154.482 118.982C155.042 118.439 155.692 118.019 156.433 117.722C157.191 117.409 157.998 117.253 158.854 117.253C159.908 117.253 160.814 117.442 161.571 117.821C162.329 118.183 162.954 118.653 163.448 119.229C163.942 119.789 164.305 120.415 164.535 121.106C164.766 121.781 164.881 122.44 164.881 123.082V124.737H155.89ZM158.829 120.069C158.039 120.069 157.397 120.275 156.903 120.686C156.409 121.081 156.088 121.543 155.939 122.069H161.719C161.62 121.493 161.308 121.016 160.781 120.637C160.27 120.258 159.62 120.069 158.829 120.069ZM168.742 126.639V123.675L177.14 121.427V120.983L168.742 118.735V115.771L179.066 118.636V123.774L168.742 126.639Z" fill="#0ACF83"/>
<defs>
<linearGradient id="paint0_linear_647_26153" x1="174.25" y1="-6" x2="174.25" y2="241" gradientUnits="userSpaceOnUse">
<stop stop-color="#FCF5DB"/>
<stop offset="1" stop-color="#FCE9DB"/>
</linearGradient>
<linearGradient id="paint1_linear_647_26153" x1="38.4" y1="-6" x2="38.4" y2="279" gradientUnits="userSpaceOnUse">
<stop stop-color="#C0F7FF"/>
<stop offset="1" stop-color="#9FB8F9"/>
</linearGradient>
<linearGradient id="paint2_linear_647_26153" x1="160.95" y1="241" x2="160.95" y2="279" gradientUnits="userSpaceOnUse">
<stop stop-color="#FCE9DB"/>
<stop offset="1" stop-color="#FBE4D3"/>
</linearGradient>
<linearGradient id="paint3_linear_647_26153" x1="65.95" y1="248.6" x2="65.95" y2="271.4" gradientUnits="userSpaceOnUse">
<stop stop-color="#B79079"/>
<stop offset="1" stop-color="#A37F6A" stop-opacity="0.5"/>
</linearGradient>
<linearGradient id="paint4_linear_647_26153" x1="71.65" y1="248.6" x2="71.65" y2="271.4" gradientUnits="userSpaceOnUse">
<stop stop-color="#B79079"/>
<stop offset="1" stop-color="#A37F6A" stop-opacity="0.5"/>
</linearGradient>
<linearGradient id="paint5_linear_647_26153" x1="77.35" y1="248.6" x2="77.35" y2="271.4" gradientUnits="userSpaceOnUse">
<stop stop-color="#B79079"/>
<stop offset="1" stop-color="#A37F6A" stop-opacity="0.5"/>
</linearGradient>
<linearGradient id="paint6_linear_647_26153" x1="83.05" y1="248.6" x2="83.05" y2="271.4" gradientUnits="userSpaceOnUse">
<stop stop-color="#B79079"/>
<stop offset="1" stop-color="#A37F6A" stop-opacity="0.5"/>
</linearGradient>
<linearGradient id="paint7_linear_647_26153" x1="88.75" y1="248.6" x2="88.75" y2="271.4" gradientUnits="userSpaceOnUse">
<stop stop-color="#B79079"/>
<stop offset="1" stop-color="#A37F6A" stop-opacity="0.5"/>
</linearGradient>
<linearGradient id="paint8_linear_647_26153" x1="94.45" y1="248.6" x2="94.45" y2="271.4" gradientUnits="userSpaceOnUse">
<stop stop-color="#B79079"/>
<stop offset="1" stop-color="#A37F6A" stop-opacity="0.5"/>
</linearGradient>
<linearGradient id="paint9_linear_647_26153" x1="100.15" y1="248.6" x2="100.15" y2="271.4" gradientUnits="userSpaceOnUse">
<stop stop-color="#B79079"/>
<stop offset="1" stop-color="#A37F6A" stop-opacity="0.5"/>
</linearGradient>
<linearGradient id="paint10_linear_647_26153" x1="105.85" y1="248.6" x2="105.85" y2="271.4" gradientUnits="userSpaceOnUse">
<stop stop-color="#B79079"/>
<stop offset="1" stop-color="#A37F6A" stop-opacity="0.5"/>
</linearGradient>
<linearGradient id="paint11_linear_647_26153" x1="111.55" y1="248.6" x2="111.55" y2="271.4" gradientUnits="userSpaceOnUse">
<stop stop-color="#B79079"/>
<stop offset="1" stop-color="#A37F6A" stop-opacity="0.5"/>
</linearGradient>
<linearGradient id="paint12_linear_647_26153" x1="117.25" y1="248.6" x2="117.25" y2="271.4" gradientUnits="userSpaceOnUse">
<stop stop-color="#B79079"/>
<stop offset="1" stop-color="#A37F6A" stop-opacity="0.5"/>
</linearGradient>
<linearGradient id="paint13_linear_647_26153" x1="122.95" y1="248.6" x2="122.95" y2="271.4" gradientUnits="userSpaceOnUse">
<stop stop-color="#B79079"/>
<stop offset="1" stop-color="#A37F6A" stop-opacity="0.5"/>
</linearGradient>
<linearGradient id="paint14_linear_647_26153" x1="128.65" y1="248.6" x2="128.65" y2="271.4" gradientUnits="userSpaceOnUse">
<stop stop-color="#B79079"/>
<stop offset="1" stop-color="#A37F6A" stop-opacity="0.5"/>
</linearGradient>
<linearGradient id="paint15_linear_647_26153" x1="134.35" y1="248.6" x2="134.35" y2="271.4" gradientUnits="userSpaceOnUse">
<stop stop-color="#B79079"/>
<stop offset="1" stop-color="#A37F6A" stop-opacity="0.5"/>
</linearGradient>
<linearGradient id="paint16_linear_647_26153" x1="140.05" y1="248.6" x2="140.05" y2="271.4" gradientUnits="userSpaceOnUse">
<stop stop-color="#B79079"/>
<stop offset="1" stop-color="#A37F6A" stop-opacity="0.5"/>
</linearGradient>
<linearGradient id="paint17_linear_647_26153" x1="145.75" y1="248.6" x2="145.75" y2="271.4" gradientUnits="userSpaceOnUse">
<stop stop-color="#B79079"/>
<stop offset="1" stop-color="#A37F6A" stop-opacity="0.5"/>
</linearGradient>
<linearGradient id="paint18_linear_647_26153" x1="151.45" y1="248.6" x2="151.45" y2="271.4" gradientUnits="userSpaceOnUse">
<stop stop-color="#B79079"/>
<stop offset="1" stop-color="#A37F6A" stop-opacity="0.5"/>
</linearGradient>
<linearGradient id="paint19_linear_647_26153" x1="157.15" y1="248.6" x2="157.15" y2="271.4" gradientUnits="userSpaceOnUse">
<stop stop-color="#B79079"/>
<stop offset="1" stop-color="#A37F6A" stop-opacity="0.5"/>
</linearGradient>
<linearGradient id="paint20_linear_647_26153" x1="162.85" y1="248.6" x2="162.85" y2="271.4" gradientUnits="userSpaceOnUse">
<stop stop-color="#B79079"/>
<stop offset="1" stop-color="#A37F6A" stop-opacity="0.5"/>
</linearGradient>
<linearGradient id="paint21_linear_647_26153" x1="168.55" y1="248.6" x2="168.55" y2="271.4" gradientUnits="userSpaceOnUse">
<stop stop-color="#B79079"/>
<stop offset="1" stop-color="#A37F6A" stop-opacity="0.5"/>
</linearGradient>
<linearGradient id="paint22_linear_647_26153" x1="225.55" y1="178.3" x2="225.55" y2="194.45" gradientUnits="userSpaceOnUse">
<stop stop-color="#FAC4A4"/>
<stop offset="1" stop-color="#FAC4A4" stop-opacity="0.5"/>
</linearGradient>
<linearGradient id="paint23_linear_647_26153" x1="174.25" y1="13" x2="174.25" y2="155.5" gradientUnits="userSpaceOnUse">
<stop stop-color="#FAC4A4" stop-opacity="0.75"/>
<stop offset="1" stop-color="white" stop-opacity="0.75"/>
</linearGradient>
<clipPath id="clip0_647_26153">
<rect width="28.5" height="28.5" fill="white" transform="translate(84 193.5)"/>
</clipPath>
</defs>
</svg>
