<svg width="258" height="289" viewBox="0 0 258 289" fill="none" xmlns="http://www.w3.org/2000/svg">
<mask id="mask0_647_26157" style="mask-type:alpha" maskUnits="userSpaceOnUse" x="0" y="4" width="254" height="285">
<mask id="path-1-inside-1_647_26157" fill="white">
<path fill-rule="evenodd" clip-rule="evenodd" d="M187.318 4.22611C181.471 3.6897 176.094 7.46336 174.611 13.1448L169.584 32.4001L169.537 32.4C167.292 32.4 165.234 32.8522 163.459 33.4639C162.016 32.6392 160.291 32.0202 158.258 31.8303C157.953 31.3818 157.639 30.9598 157.319 30.5663C155.319 28.1021 151.139 24.4 144.963 24.4C139.425 24.4 135.409 27.4337 133.2 30.1529C132.707 30.7591 132.253 31.4071 131.843 32.0908C130.236 32.0304 128.621 32 127 32C123.353 32 119.739 32.154 116.165 32.4564C114.61 31.8584 112.792 31.5097 110.709 31.6299C107.727 31.8019 105.357 32.8995 103.573 34.1584C102.336 34.3893 101.104 34.6382 99.8795 34.9048C99.6087 34.7408 99.3391 34.5822 99.0716 34.4286C95.7363 32.4717 92.473 32.16 90.235 32.16C85.4233 32.16 80.8476 33.8337 76.7872 36.5961C76.6323 36.4814 76.4771 36.3688 76.3217 36.2583C76.7388 34.3772 76.8921 32.4619 76.7214 30.5501C76.8991 28.2871 76.6817 25.9218 75.8876 23.6207C74.9272 20.8175 72.2622 16.0711 66.2982 14.6132C59.9037 13.0501 55.1082 16.5212 52.9047 19.1209C52.7354 19.3206 52.5638 19.5205 52.3901 19.7203C50.7466 17.6551 47.553 14.6734 42.4244 14.3885C35.4338 14.0001 31.4825 18.9551 30.4587 20.32C30.4083 20.3873 30.3585 20.4551 30.3095 20.5234C27.2541 24.7809 22.2439 33.9753 18.0469 42.2117C13.9243 50.3021 9.46114 59.6624 8.08865 64.2191C8.04553 64.3623 8.00508 64.5062 7.96734 64.6509C7.32326 67.1199 6.85875 69.7828 6.85875 72.48C6.85875 72.9638 6.87542 73.4442 6.90871 73.9207C6.87637 74.4337 6.85875 74.954 6.85875 75.48C6.85875 80.0597 8.34093 83.6389 10.0446 86.2891C10.2387 86.591 10.4462 86.884 10.6665 87.1673C11.7012 88.4976 14.4731 91.5341 18.8053 92.4654C6.88413 111.813 0 134.607 0 159C0 159.501 0.00290298 160.001 0.0086937 160.5C0.00290298 160.999 0 161.499 0 162C0 232.14 56.8598 289 127 289C197.14 289 254 232.14 254 162C254 161.499 253.997 160.999 253.991 160.5C253.997 160.001 254 159.501 254 159C254 132.265 245.73 107.45 231.622 86.9876C232.291 86.4877 232.902 85.9889 233.452 85.5102C236.807 82.5891 239.53 78.996 240.916 76.0589C242.085 73.6073 243.351 70.2823 242.976 66.049C243.141 64.1929 242.998 62.3222 242.546 60.4204C242.527 60.3429 242.508 60.2656 242.488 60.1885C242.251 59.2749 241.852 58.1909 241.268 57.0712C242.263 56.3305 243.219 55.387 244.08 54.1884C246.375 50.9918 246.744 47.7645 246.422 45.1252C246.881 41.2101 245.439 38.0866 244.642 36.6522C244.601 36.5789 244.56 36.5061 244.517 36.4336C244.091 35.7031 243.595 34.9905 243.032 34.3081C243.015 31.4336 242.223 28.0061 240.528 25.0921C239.819 23.8698 236.184 17.8189 228.512 17.9724C224.842 18.0458 222.116 19.6246 220.51 20.8989C218.974 22.1175 217.915 23.4745 217.239 24.4587C216.872 24.9858 216.511 25.5119 216.152 26.0462C215.077 25.498 213.878 25.0416 212.559 24.7495C212.416 24.4382 212.261 24.1348 212.094 23.8398C212.957 22.0442 213.353 20.0702 213.264 18.1006C213.347 16.2723 213.013 14.4188 212.244 12.6874C210.479 8.71314 206.703 6.00443 202.373 5.60719L187.318 4.22611Z"/>
</mask>
<path fill-rule="evenodd" clip-rule="evenodd" d="M187.318 4.22611C181.471 3.6897 176.094 7.46336 174.611 13.1448L169.584 32.4001L169.537 32.4C167.292 32.4 165.234 32.8522 163.459 33.4639C162.016 32.6392 160.291 32.0202 158.258 31.8303C157.953 31.3818 157.639 30.9598 157.319 30.5663C155.319 28.1021 151.139 24.4 144.963 24.4C139.425 24.4 135.409 27.4337 133.2 30.1529C132.707 30.7591 132.253 31.4071 131.843 32.0908C130.236 32.0304 128.621 32 127 32C123.353 32 119.739 32.154 116.165 32.4564C114.61 31.8584 112.792 31.5097 110.709 31.6299C107.727 31.8019 105.357 32.8995 103.573 34.1584C102.336 34.3893 101.104 34.6382 99.8795 34.9048C99.6087 34.7408 99.3391 34.5822 99.0716 34.4286C95.7363 32.4717 92.473 32.16 90.235 32.16C85.4233 32.16 80.8476 33.8337 76.7872 36.5961C76.6323 36.4814 76.4771 36.3688 76.3217 36.2583C76.7388 34.3772 76.8921 32.4619 76.7214 30.5501C76.8991 28.2871 76.6817 25.9218 75.8876 23.6207C74.9272 20.8175 72.2622 16.0711 66.2982 14.6132C59.9037 13.0501 55.1082 16.5212 52.9047 19.1209C52.7354 19.3206 52.5638 19.5205 52.3901 19.7203C50.7466 17.6551 47.553 14.6734 42.4244 14.3885C35.4338 14.0001 31.4825 18.9551 30.4587 20.32C30.4083 20.3873 30.3585 20.4551 30.3095 20.5234C27.2541 24.7809 22.2439 33.9753 18.0469 42.2117C13.9243 50.3021 9.46114 59.6624 8.08865 64.2191C8.04553 64.3623 8.00508 64.5062 7.96734 64.6509C7.32326 67.1199 6.85875 69.7828 6.85875 72.48C6.85875 72.9638 6.87542 73.4442 6.90871 73.9207C6.87637 74.4337 6.85875 74.954 6.85875 75.48C6.85875 80.0597 8.34093 83.6389 10.0446 86.2891C10.2387 86.591 10.4462 86.884 10.6665 87.1673C11.7012 88.4976 14.4731 91.5341 18.8053 92.4654C6.88413 111.813 0 134.607 0 159C0 159.501 0.00290298 160.001 0.0086937 160.5C0.00290298 160.999 0 161.499 0 162C0 232.14 56.8598 289 127 289C197.14 289 254 232.14 254 162C254 161.499 253.997 160.999 253.991 160.5C253.997 160.001 254 159.501 254 159C254 132.265 245.73 107.45 231.622 86.9876C232.291 86.4877 232.902 85.9889 233.452 85.5102C236.807 82.5891 239.53 78.996 240.916 76.0589C242.085 73.6073 243.351 70.2823 242.976 66.049C243.141 64.1929 242.998 62.3222 242.546 60.4204C242.527 60.3429 242.508 60.2656 242.488 60.1885C242.251 59.2749 241.852 58.1909 241.268 57.0712C242.263 56.3305 243.219 55.387 244.08 54.1884C246.375 50.9918 246.744 47.7645 246.422 45.1252C246.881 41.2101 245.439 38.0866 244.642 36.6522C244.601 36.5789 244.56 36.5061 244.517 36.4336C244.091 35.7031 243.595 34.9905 243.032 34.3081C243.015 31.4336 242.223 28.0061 240.528 25.0921C239.819 23.8698 236.184 17.8189 228.512 17.9724C224.842 18.0458 222.116 19.6246 220.51 20.8989C218.974 22.1175 217.915 23.4745 217.239 24.4587C216.872 24.9858 216.511 25.5119 216.152 26.0462C215.077 25.498 213.878 25.0416 212.559 24.7495C212.416 24.4382 212.261 24.1348 212.094 23.8398C212.957 22.0442 213.353 20.0702 213.264 18.1006C213.347 16.2723 213.013 14.4188 212.244 12.6874C210.479 8.71314 206.703 6.00443 202.373 5.60719L187.318 4.22611Z" fill="white"/>
<path d="M174.611 13.1448L172.676 12.6396L172.676 12.6396L174.611 13.1448ZM187.318 4.22611L187.135 6.21775L187.318 4.22611ZM169.584 32.4001L169.581 34.4001C170.492 34.4014 171.289 33.7868 171.519 32.9053L169.584 32.4001ZM169.537 32.4L169.54 30.4H169.537V32.4ZM163.459 33.4639L162.466 35.2002C162.966 35.4862 163.565 35.5425 164.11 35.3548L163.459 33.4639ZM158.258 31.8303L156.602 32.9529C156.938 33.4474 157.477 33.7661 158.072 33.8216L158.258 31.8303ZM157.319 30.5663L158.872 29.3057V29.3057L157.319 30.5663ZM133.2 30.1529L134.752 31.4141V31.4141L133.2 30.1529ZM131.843 32.0908L131.768 34.0894C132.497 34.1168 133.183 33.7449 133.558 33.1192L131.843 32.0908ZM116.165 32.4564L115.447 34.3232C115.729 34.4316 116.032 34.4747 116.334 34.4493L116.165 32.4564ZM110.709 31.6299L110.594 29.6332L110.709 31.6299ZM103.573 34.1584L103.94 36.1245C104.223 36.0717 104.491 35.9584 104.727 35.7924L103.573 34.1584ZM99.8795 34.9048L98.8437 36.6156C99.2816 36.8808 99.8045 36.9679 100.305 36.859L99.8795 34.9048ZM99.0716 34.4286L98.0595 36.1536C98.0648 36.1567 98.0701 36.1598 98.0755 36.1629L99.0716 34.4286ZM76.7872 36.5961L75.5966 38.2032C76.2801 38.7095 77.2089 38.7282 77.9122 38.2497L76.7872 36.5961ZM76.3217 36.2583L74.3691 35.8255C74.1952 36.6101 74.5078 37.4227 75.1628 37.8884L76.3217 36.2583ZM76.7214 30.5501L74.7275 30.3935C74.7188 30.5049 74.7194 30.6168 74.7293 30.7281L76.7214 30.5501ZM75.8876 23.6207L73.9956 24.2689L73.997 24.2731L75.8876 23.6207ZM66.2982 14.6132L65.8233 16.556L66.2982 14.6132ZM52.9047 19.1209L54.4304 20.4141L54.4304 20.414L52.9047 19.1209ZM52.3901 19.7203L50.8251 20.9657C51.1951 21.4306 51.7526 21.707 52.3466 21.7199C52.9406 21.7328 53.5096 21.4809 53.8994 21.0325L52.3901 19.7203ZM42.4244 14.3885L42.5353 12.3915L42.4244 14.3885ZM30.4587 20.32L32.0587 21.52L32.0587 21.52L30.4587 20.32ZM30.3095 20.5234L31.9344 21.6895L31.9344 21.6895L30.3095 20.5234ZM18.0469 42.2117L16.2649 41.3037H16.2649L18.0469 42.2117ZM8.08865 64.2191L6.17364 63.6423H6.17364L8.08865 64.2191ZM7.96734 64.6509L9.90258 65.1558L9.90258 65.1558L7.96734 64.6509ZM6.90871 73.9207L8.90475 74.0466C8.91032 73.9582 8.91002 73.8696 8.90385 73.7813L6.90871 73.9207ZM10.0446 86.2891L11.727 85.2076L11.727 85.2076L10.0446 86.2891ZM10.6665 87.1673L9.08782 88.3952L9.08782 88.3952L10.6665 87.1673ZM18.8053 92.4654L20.508 93.5146C20.8487 92.9616 20.8997 92.2777 20.6448 91.6803C20.3898 91.083 19.8607 90.6466 19.2257 90.5101L18.8053 92.4654ZM0.0086937 160.5L2.00856 160.523C2.00874 160.508 2.00874 160.492 2.00856 160.477L0.0086937 160.5ZM253.991 160.5L251.991 160.477C251.991 160.492 251.991 160.508 251.991 160.523L253.991 160.5ZM231.622 86.9876L230.425 85.3852C229.564 86.0286 229.365 87.2378 229.975 88.1228L231.622 86.9876ZM233.452 85.5102L232.138 84.0019L233.452 85.5102ZM240.916 76.0589L239.111 75.198L239.107 75.2055L240.916 76.0589ZM242.976 66.049L240.984 65.8725C240.973 65.9898 240.973 66.1079 240.984 66.2253L242.976 66.049ZM242.546 60.4204L244.491 59.9572L244.491 59.957L242.546 60.4204ZM242.488 60.1885L244.424 59.6867L244.424 59.6865L242.488 60.1885ZM241.268 57.0712L240.074 55.4667C239.286 56.0533 239.04 57.1253 239.495 57.9963L241.268 57.0712ZM244.08 54.1884L242.455 53.022V53.022L244.08 54.1884ZM246.422 45.1252L244.435 44.8919C244.417 45.0502 244.417 45.21 244.436 45.3682L246.422 45.1252ZM244.642 36.6522L242.893 37.6235L242.893 37.6235L244.642 36.6522ZM244.517 36.4336L242.79 37.4413L242.79 37.4415L244.517 36.4336ZM243.032 34.3081L241.032 34.3196C241.034 34.7804 241.196 35.2262 241.489 35.5815L243.032 34.3081ZM240.528 25.0921L238.798 26.0952L238.799 26.0976L240.528 25.0921ZM228.512 17.9724L228.552 19.972L228.512 17.9724ZM220.51 20.8989L221.753 22.4656V22.4656L220.51 20.8989ZM217.239 24.4587L218.88 25.6016L218.888 25.5913L217.239 24.4587ZM216.152 26.0462L215.243 27.8279C216.145 28.2875 217.247 28.0018 217.812 27.1623L216.152 26.0462ZM212.559 24.7495L210.741 25.5827C211.002 26.1524 211.515 26.5668 212.127 26.7022L212.559 24.7495ZM212.094 23.8398L210.291 22.9741C210.008 23.564 210.031 24.255 210.354 24.8246L212.094 23.8398ZM213.264 18.1006L211.266 18.0098C211.263 18.0703 211.263 18.1308 211.266 18.1912L213.264 18.1006ZM212.244 12.6874L214.072 11.8758V11.8758L212.244 12.6874ZM202.373 5.60719L202.19 7.59883L202.373 5.60719ZM176.546 13.6499C177.782 8.91545 182.262 5.77074 187.135 6.21775L187.501 2.23447C180.679 1.60866 174.406 6.01126 172.676 12.6396L176.546 13.6499ZM171.519 32.9053L176.546 13.6499L172.676 12.6396L167.649 31.8949L171.519 32.9053ZM169.534 34.4L169.581 34.4001L169.587 30.4001L169.54 30.4L169.534 34.4ZM164.11 35.3548C165.725 34.7983 167.56 34.4 169.537 34.4V30.4C167.023 30.4 164.742 30.9061 162.807 31.5731L164.11 35.3548ZM158.072 33.8216C159.799 33.9829 161.251 34.5057 162.466 35.2002L164.451 31.7277C162.781 30.7727 160.783 30.0574 158.444 29.839L158.072 33.8216ZM155.767 31.8269C156.05 32.1762 156.331 32.5522 156.602 32.9529L159.913 30.7077C159.576 30.2114 159.227 29.7433 158.872 29.3057L155.767 31.8269ZM144.963 26.4C150.288 26.4 153.955 29.595 155.767 31.8269L158.872 29.3057C156.683 26.6093 151.991 22.4 144.963 22.4V26.4ZM134.752 31.4141C136.708 29.0063 140.203 26.4 144.963 26.4V22.4C138.647 22.4 134.11 25.8611 131.648 28.8917L134.752 31.4141ZM133.558 33.1192C133.92 32.5165 134.319 31.9464 134.752 31.4141L131.648 28.8917C131.095 29.5719 130.586 30.2976 130.128 31.0624L133.558 33.1192ZM127 34C128.596 34 130.185 34.03 131.768 34.0894L131.918 30.0922C130.286 30.0309 128.646 30 127 30V34ZM116.334 34.4493C119.852 34.1517 123.409 34 127 34V30C123.296 30 119.626 30.1564 115.996 30.4635L116.334 34.4493ZM110.824 33.6266C112.609 33.5236 114.143 33.8218 115.447 34.3232L116.883 30.5896C115.076 29.8951 112.975 29.4958 110.594 29.6332L110.824 33.6266ZM104.727 35.7924C106.272 34.7014 108.29 33.7728 110.824 33.6266L110.594 29.6332C107.164 29.8311 104.442 31.0975 102.42 32.5243L104.727 35.7924ZM100.305 36.859C101.51 36.5967 102.722 36.3517 103.94 36.1245L103.206 32.1923C101.949 32.4269 100.698 32.6797 99.4542 32.9505L100.305 36.859ZM98.0755 36.1629C98.3308 36.3095 98.587 36.4603 98.8437 36.6156L100.915 33.1939C100.63 33.0214 100.347 32.855 100.068 32.6942L98.0755 36.1629ZM90.235 34.16C92.2851 34.16 95.1492 34.4461 98.0595 36.1536L100.084 32.7035C96.3233 30.4973 92.6609 30.16 90.235 30.16V34.16ZM77.9122 38.2497C81.7087 35.6668 85.8995 34.16 90.235 34.16V30.16C84.9472 30.16 79.9865 32.0006 75.6622 34.9425L77.9122 38.2497ZM75.1628 37.8884C75.3078 37.9915 75.4525 38.0964 75.5966 38.2032L77.9777 34.9891C77.8121 34.8664 77.6464 34.7462 77.4806 34.6283L75.1628 37.8884ZM74.7293 30.7281C74.88 32.4148 74.7465 34.1234 74.3691 35.8255L78.2743 36.6912C78.731 34.631 78.9043 32.509 78.7135 30.3722L74.7293 30.7281ZM73.997 24.2731C74.6892 26.2788 74.8869 28.3641 74.7275 30.3935L78.7152 30.7067C78.9113 28.21 78.6742 25.5647 77.7782 22.9682L73.997 24.2731ZM65.8233 16.556C70.8508 17.7849 73.1456 21.7879 73.9956 24.2689L77.7796 22.9725C76.7089 19.8472 73.6736 14.3572 66.7731 12.6704L65.8233 16.556ZM54.4304 20.414C56.3613 18.136 60.4428 15.2408 65.8233 16.556L66.7731 12.6704C59.3646 10.8594 53.8551 14.9064 51.379 17.8277L54.4304 20.414ZM53.8994 21.0325C54.0785 20.8265 54.2556 20.6203 54.4304 20.4141L51.3791 17.8277C51.2152 18.0209 51.0491 18.2144 50.8807 18.4082L53.8994 21.0325ZM42.3135 16.3854C46.6449 16.626 49.3648 19.1306 50.8251 20.9657L53.955 18.475C52.1284 16.1796 48.4611 12.7208 42.5353 12.3915L42.3135 16.3854ZM32.0587 21.52C33.023 20.2344 36.4078 16.0573 42.3135 16.3854L42.5353 12.3915C34.4598 11.9429 29.9419 17.6757 28.8587 19.12L32.0587 21.52ZM31.9344 21.6895C31.9752 21.6326 32.0167 21.5761 32.0587 21.52L28.8588 19.12C28.7999 19.1985 28.7418 19.2776 28.6846 19.3574L31.9344 21.6895ZM19.8288 43.1198C24.0358 34.8638 28.9813 25.8044 31.9344 21.6895L28.6846 19.3574C25.5269 23.7574 20.452 33.0868 16.2649 41.3037L19.8288 43.1198ZM10.0037 64.7959C11.3143 60.4446 15.6845 51.2528 19.8288 43.1198L16.2649 41.3037C12.164 49.3514 7.60799 58.8802 6.17364 63.6423L10.0037 64.7959ZM9.90258 65.1558C9.93403 65.0352 9.96773 64.9152 10.0037 64.7959L6.17364 63.6423C6.12333 63.8093 6.07614 63.9773 6.03211 64.1461L9.90258 65.1558ZM8.85875 72.48C8.85875 70.0056 9.28589 67.5197 9.90258 65.1558L6.03211 64.1461C5.36062 66.7201 4.85875 69.5601 4.85875 72.48H8.85875ZM8.90385 73.7813C8.87383 73.3517 8.85875 72.9179 8.85875 72.48H4.85875C4.85875 73.0098 4.877 73.5366 4.91357 74.0601L8.90385 73.7813ZM8.85875 75.48C8.85875 74.9986 8.87488 74.5203 8.90475 74.0466L4.91268 73.7949C4.87786 74.347 4.85875 74.9094 4.85875 75.48H8.85875ZM11.727 85.2076C10.1865 82.8113 8.85875 79.602 8.85875 75.48H4.85875C4.85875 80.5174 6.49536 84.4665 8.36226 87.3706L11.727 85.2076ZM12.2452 85.9394C12.0616 85.7033 11.8887 85.4591 11.727 85.2076L8.36225 87.3706C8.58867 87.7228 8.83077 88.0647 9.08782 88.3952L12.2452 85.9394ZM19.2257 90.5101C15.5748 89.7252 13.1707 87.1293 12.2452 85.9394L9.08782 88.3952C10.2317 89.8659 13.3713 93.3429 18.3849 94.4208L19.2257 90.5101ZM2 159C2 134.988 8.77547 112.556 20.508 93.5146L17.1026 91.4163C4.99278 111.07 -2 134.225 -2 159H2ZM2.00856 160.477C2.00286 159.985 2 159.493 2 159H-2C-2 159.508 -1.99705 160.016 -1.99117 160.523L2.00856 160.477ZM2 162C2 161.507 2.00286 161.015 2.00856 160.523L-1.99117 160.477C-1.99705 160.984 -2 161.492 -2 162H2ZM127 287C57.9644 287 2 231.036 2 162H-2C-2 233.245 55.7553 291 127 291V287ZM252 162C252 231.036 196.036 287 127 287V291C198.245 291 256 233.245 256 162H252ZM251.991 160.523C251.997 161.015 252 161.507 252 162H256C256 161.492 255.997 160.984 255.991 160.477L251.991 160.523ZM252 159C252 159.493 251.997 159.985 251.991 160.477L255.991 160.523C255.997 160.016 256 159.508 256 159H252ZM229.975 88.1228C243.861 108.262 252 132.684 252 159H256C256 131.847 247.599 106.637 233.269 85.8523L229.975 88.1228ZM232.138 84.0019C231.623 84.4507 231.051 84.9178 230.425 85.3852L232.819 88.5899C233.532 88.0576 234.181 87.527 234.765 87.0186L232.138 84.0019ZM239.107 75.2055C237.857 77.8557 235.318 81.2338 232.138 84.0019L234.765 87.0186C238.296 83.9444 241.204 80.1362 242.725 76.9123L239.107 75.2055ZM240.984 66.2253C241.313 69.9426 240.214 72.8846 239.111 75.198L242.721 76.9198C243.956 74.3299 245.389 70.622 244.968 65.8727L240.984 66.2253ZM240.6 60.8837C241.005 62.5855 241.128 64.2402 240.984 65.8725L244.968 66.2255C245.153 64.1457 244.992 62.0589 244.491 59.9572L240.6 60.8837ZM240.552 60.6902C240.568 60.7546 240.585 60.8191 240.6 60.8839L244.491 59.957C244.47 59.8667 244.447 59.7766 244.424 59.6867L240.552 60.6902ZM239.495 57.9963C240.01 58.9826 240.353 59.9247 240.552 60.6904L244.424 59.6865C244.149 58.625 243.695 57.3992 243.041 56.146L239.495 57.9963ZM242.455 53.022C241.716 54.0514 240.906 54.8477 240.074 55.4667L242.462 58.6756C243.621 57.8134 244.722 56.7226 245.704 55.3548L242.455 53.022ZM244.436 45.3682C244.71 47.6077 244.404 50.3074 242.455 53.022L245.704 55.3549C248.346 51.6762 248.779 47.9212 248.407 44.8823L244.436 45.3682ZM242.893 37.6235C243.602 38.899 244.824 41.5796 244.435 44.8919L248.408 45.3586C248.939 40.8405 247.275 37.2742 246.39 35.6809L242.893 37.6235ZM242.79 37.4415C242.825 37.5017 242.859 37.5624 242.893 37.6235L246.39 35.681C246.343 35.5955 246.294 35.5104 246.245 35.4257L242.79 37.4415ZM241.489 35.5815C241.985 36.1813 242.419 36.8052 242.79 37.4413L246.245 35.4259C245.764 34.601 245.205 33.7996 244.574 33.0347L241.489 35.5815ZM238.799 26.0976C240.303 28.6833 241.017 31.7627 241.032 34.3196L245.032 34.2966C245.013 31.1045 244.143 27.3289 242.257 24.0866L238.799 26.0976ZM228.552 19.972C235.013 19.8428 238.12 24.9258 238.798 26.0952L242.258 24.089C241.519 22.8138 237.355 15.7951 228.472 15.9728L228.552 19.972ZM221.753 22.4656C223.14 21.365 225.455 20.0339 228.552 19.972L228.472 15.9728C224.228 16.0577 221.091 17.8842 219.267 19.3323L221.753 22.4656ZM218.888 25.5913C219.5 24.7005 220.429 23.5166 221.753 22.4656L219.267 19.3323C217.52 20.7185 216.331 22.2484 215.591 23.3261L218.888 25.5913ZM217.812 27.1623C218.165 26.6377 218.519 26.1205 218.88 25.6016L215.598 23.3157C215.225 23.851 214.858 24.3861 214.493 24.93L217.812 27.1623ZM212.127 26.7022C213.265 26.9543 214.305 27.3492 215.243 27.8279L217.061 24.2645C215.85 23.6469 214.491 23.1289 212.991 22.7968L212.127 26.7022ZM210.354 24.8246C210.493 25.0703 210.622 25.3232 210.741 25.5827L214.377 23.9163C214.211 23.5532 214.03 23.1993 213.835 22.8551L210.354 24.8246ZM211.266 18.1912C211.341 19.833 211.01 21.4783 210.291 22.9741L213.897 24.7056C214.903 22.6102 215.366 20.3073 215.262 18.01L211.266 18.1912ZM210.416 13.499C211.057 14.9421 211.335 16.4862 211.266 18.0098L215.262 18.1914C215.359 16.0585 214.969 13.8955 214.072 11.8758L210.416 13.499ZM202.19 7.59883C205.798 7.92986 208.945 10.1871 210.416 13.499L214.072 11.8758C212.013 7.23916 207.607 4.079 202.555 3.61556L202.19 7.59883ZM187.135 6.21775L202.19 7.59883L202.555 3.61556L187.501 2.23447L187.135 6.21775Z" fill="#07090D" mask="url(#path-1-inside-1_647_26157)"/>
</mask>
<g mask="url(#mask0_647_26157)">
<path d="M0.988037 -49L-389.012 341" stroke="black" stroke-width="1.5"/>
<path d="M5.98804 -49L-384.012 341" stroke="black" stroke-width="1.5"/>
<path d="M10.988 -49L-379.012 341" stroke="black" stroke-width="1.5"/>
<path d="M15.988 -49L-374.012 341" stroke="black" stroke-width="1.5"/>
<path d="M20.988 -49L-369.012 341" stroke="black" stroke-width="1.5"/>
<path d="M25.988 -49L-364.012 341" stroke="black" stroke-width="1.5"/>
<path d="M30.988 -49L-359.012 341" stroke="black" stroke-width="1.5"/>
<path d="M35.988 -49L-354.012 341" stroke="black" stroke-width="1.5"/>
<path d="M40.988 -49L-349.012 341" stroke="black" stroke-width="1.5"/>
<path d="M45.988 -49L-344.012 341" stroke="black" stroke-width="1.5"/>
<path d="M50.988 -49L-339.012 341" stroke="black" stroke-width="1.5"/>
<path d="M55.988 -49L-334.012 341" stroke="black" stroke-width="1.5"/>
<path d="M60.988 -49L-329.012 341" stroke="black" stroke-width="1.5"/>
<path d="M65.988 -49L-324.012 341" stroke="black" stroke-width="1.5"/>
<path d="M70.988 -49L-319.012 341" stroke="black" stroke-width="1.5"/>
<path d="M75.988 -49L-314.012 341" stroke="black" stroke-width="1.5"/>
<path d="M80.988 -49L-309.012 341" stroke="black" stroke-width="1.5"/>
<path d="M85.988 -49L-304.012 341" stroke="black" stroke-width="1.5"/>
<path d="M90.988 -49L-299.012 341" stroke="black" stroke-width="1.5"/>
<path d="M95.988 -49L-294.012 341" stroke="black" stroke-width="1.5"/>
<path d="M100.988 -49L-289.012 341" stroke="black" stroke-width="1.5"/>
<path d="M105.988 -49L-284.012 341" stroke="black" stroke-width="1.5"/>
<path d="M110.988 -49L-279.012 341" stroke="black" stroke-width="1.5"/>
<path d="M115.988 -49L-274.012 341" stroke="black" stroke-width="1.5"/>
<path d="M120.988 -49L-269.012 341" stroke="black" stroke-width="1.5"/>
<path d="M125.988 -49L-264.012 341" stroke="black" stroke-width="1.5"/>
<path d="M130.988 -49L-259.012 341" stroke="black" stroke-width="1.5"/>
<path d="M135.988 -49L-254.012 341" stroke="black" stroke-width="1.5"/>
<path d="M140.988 -49L-249.012 341" stroke="black" stroke-width="1.5"/>
<path d="M145.988 -49L-244.012 341" stroke="black" stroke-width="1.5"/>
<path d="M150.988 -49L-239.012 341" stroke="black" stroke-width="1.5"/>
<path d="M155.988 -49L-234.012 341" stroke="black" stroke-width="1.5"/>
<path d="M160.988 -49L-229.012 341" stroke="black" stroke-width="1.5"/>
<path d="M165.988 -49L-224.012 341" stroke="black" stroke-width="1.5"/>
<path d="M170.988 -49L-219.012 341" stroke="black" stroke-width="1.5"/>
<path d="M175.988 -49L-214.012 341" stroke="black" stroke-width="1.5"/>
<path d="M180.988 -49L-209.012 341" stroke="black" stroke-width="1.5"/>
<path d="M185.988 -49L-204.012 341" stroke="black" stroke-width="1.5"/>
<path d="M190.988 -49L-199.012 341" stroke="black" stroke-width="1.5"/>
<path d="M195.988 -49L-194.012 341" stroke="black" stroke-width="1.5"/>
<path d="M200.988 -49L-189.012 341" stroke="black" stroke-width="1.5"/>
<path d="M205.988 -49L-184.012 341" stroke="black" stroke-width="1.5"/>
<path d="M210.988 -49L-179.012 341" stroke="black" stroke-width="1.5"/>
<path d="M215.988 -49L-174.012 341" stroke="black" stroke-width="1.5"/>
<path d="M220.988 -49L-169.012 341" stroke="black" stroke-width="1.5"/>
<path d="M225.988 -49L-164.012 341" stroke="black" stroke-width="1.5"/>
<path d="M230.988 -49L-159.012 341" stroke="black" stroke-width="1.5"/>
<path d="M235.988 -49L-154.012 341" stroke="black" stroke-width="1.5"/>
<path d="M240.988 -49L-149.012 341" stroke="black" stroke-width="1.5"/>
<path d="M245.988 -49L-144.012 341" stroke="black" stroke-width="1.5"/>
<path d="M250.988 -49L-139.012 341" stroke="black" stroke-width="1.5"/>
<path d="M255.988 -49L-134.012 341" stroke="black" stroke-width="1.5"/>
<path d="M260.988 -49L-129.012 341" stroke="black" stroke-width="1.5"/>
<path d="M265.988 -49L-124.012 341" stroke="black" stroke-width="1.5"/>
<path d="M270.988 -49L-119.012 341" stroke="black" stroke-width="1.5"/>
<path d="M275.988 -49L-114.012 341" stroke="black" stroke-width="1.5"/>
<path d="M280.988 -49L-109.012 341" stroke="black" stroke-width="1.5"/>
<path d="M285.988 -49L-104.012 341" stroke="black" stroke-width="1.5"/>
<path d="M290.988 -49L-99.012 341" stroke="black" stroke-width="1.5"/>
<path d="M295.988 -49L-94.012 341" stroke="black" stroke-width="1.5"/>
<path d="M300.988 -49L-89.012 341" stroke="black" stroke-width="1.5"/>
<path d="M305.988 -49L-84.012 341" stroke="black" stroke-width="1.5"/>
<path d="M310.988 -49L-79.012 341" stroke="black" stroke-width="1.5"/>
<path d="M315.988 -49L-74.012 341" stroke="black" stroke-width="1.5"/>
<path d="M320.988 -49L-69.012 341" stroke="black" stroke-width="1.5"/>
<path d="M325.988 -49L-64.012 341" stroke="black" stroke-width="1.5"/>
<path d="M330.988 -49L-59.012 341" stroke="black" stroke-width="1.5"/>
<path d="M335.988 -49L-54.012 341" stroke="black" stroke-width="1.5"/>
<path d="M340.988 -49L-49.012 341" stroke="black" stroke-width="1.5"/>
<path d="M345.988 -49L-44.012 341" stroke="black" stroke-width="1.5"/>
<path d="M350.988 -49L-39.012 341" stroke="black" stroke-width="1.5"/>
<path d="M355.988 -49L-34.012 341" stroke="black" stroke-width="1.5"/>
<path d="M360.988 -49L-29.012 341" stroke="black" stroke-width="1.5"/>
<path d="M365.988 -49L-24.012 341" stroke="black" stroke-width="1.5"/>
<path d="M370.988 -49L-19.012 341" stroke="black" stroke-width="1.5"/>
<path d="M375.988 -49L-14.012 341" stroke="black" stroke-width="1.5"/>
<path d="M380.988 -49L-9.01196 341" stroke="black" stroke-width="1.5"/>
<path d="M385.988 -49L-4.01196 341" stroke="black" stroke-width="1.5"/>
<path d="M390.988 -49L0.98804 341" stroke="black" stroke-width="1.5"/>
<path d="M395.988 -49L5.98804 341" stroke="black" stroke-width="1.5"/>
<path d="M400.988 -49L10.988 341" stroke="black" stroke-width="1.5"/>
<path d="M405.988 -49L15.988 341" stroke="black" stroke-width="1.5"/>
<path d="M410.988 -49L20.988 341" stroke="black" stroke-width="1.5"/>
<path d="M415.988 -49L25.988 341" stroke="black" stroke-width="1.5"/>
<path d="M420.988 -49L30.988 341" stroke="black" stroke-width="1.5"/>
<path d="M425.988 -49L35.988 341" stroke="black" stroke-width="1.5"/>
<path d="M430.988 -49L40.988 341" stroke="black" stroke-width="1.5"/>
<path d="M435.988 -49L45.988 341" stroke="black" stroke-width="1.5"/>
<path d="M440.988 -49L50.988 341" stroke="black" stroke-width="1.5"/>
<path d="M445.988 -49L55.988 341" stroke="black" stroke-width="1.5"/>
<path d="M450.988 -49L60.988 341" stroke="black" stroke-width="1.5"/>
<path d="M455.988 -49L65.988 341" stroke="black" stroke-width="1.5"/>
<path d="M460.988 -49L70.988 341" stroke="black" stroke-width="1.5"/>
<path d="M465.988 -49L75.988 341" stroke="black" stroke-width="1.5"/>
<path d="M470.988 -49L80.988 341" stroke="black" stroke-width="1.5"/>
<path d="M475.988 -49L85.988 341" stroke="black" stroke-width="1.5"/>
<path d="M480.988 -49L90.988 341" stroke="black" stroke-width="1.5"/>
<path d="M485.988 -49L95.988 341" stroke="black" stroke-width="1.5"/>
<path d="M490.988 -49L100.988 341" stroke="black" stroke-width="1.5"/>
<path d="M495.988 -49L105.988 341" stroke="black" stroke-width="1.5"/>
<path d="M500.988 -49L110.988 341" stroke="black" stroke-width="1.5"/>
<path d="M505.988 -49L115.988 341" stroke="black" stroke-width="1.5"/>
<path d="M510.988 -49L120.988 341" stroke="black" stroke-width="1.5"/>
<path d="M515.988 -49L125.988 341" stroke="black" stroke-width="1.5"/>
<path d="M520.988 -49L130.988 341" stroke="black" stroke-width="1.5"/>
<path d="M525.988 -49L135.988 341" stroke="black" stroke-width="1.5"/>
<path d="M530.988 -49L140.988 341" stroke="black" stroke-width="1.5"/>
<path d="M535.988 -49L145.988 341" stroke="black" stroke-width="1.5"/>
<path d="M540.988 -49L150.988 341" stroke="black" stroke-width="1.5"/>
<path d="M545.988 -49L155.988 341" stroke="black" stroke-width="1.5"/>
<path d="M550.988 -49L160.988 341" stroke="black" stroke-width="1.5"/>
<path d="M555.988 -49L165.988 341" stroke="black" stroke-width="1.5"/>
<path d="M560.988 -49L170.988 341" stroke="black" stroke-width="1.5"/>
<path d="M565.988 -49L175.988 341" stroke="black" stroke-width="1.5"/>
<path d="M570.988 -49L180.988 341" stroke="black" stroke-width="1.5"/>
<path d="M575.988 -49L185.988 341" stroke="black" stroke-width="1.5"/>
<path d="M580.988 -49L190.988 341" stroke="black" stroke-width="1.5"/>
<path d="M585.988 -49L195.988 341" stroke="black" stroke-width="1.5"/>
<path d="M590.988 -49L200.988 341" stroke="black" stroke-width="1.5"/>
<path d="M595.988 -49L205.988 341" stroke="black" stroke-width="1.5"/>
<path d="M600.988 -49L210.988 341" stroke="black" stroke-width="1.5"/>
<path d="M605.988 -49L215.988 341" stroke="black" stroke-width="1.5"/>
<path d="M610.988 -49L220.988 341" stroke="black" stroke-width="1.5"/>
<path d="M615.988 -49L225.988 341" stroke="black" stroke-width="1.5"/>
<path d="M620.988 -49L230.988 341" stroke="black" stroke-width="1.5"/>
<path d="M625.988 -49L235.988 341" stroke="black" stroke-width="1.5"/>
<path d="M630.988 -49L240.988 341" stroke="black" stroke-width="1.5"/>
<path d="M635.988 -49L245.988 341" stroke="black" stroke-width="1.5"/>
<path d="M640.988 -49L250.988 341" stroke="black" stroke-width="1.5"/>
</g>
</svg>
