<svg width="90" height="24" viewBox="0 0 90 24" fill="none" xmlns="http://www.w3.org/2000/svg">
<path fillRule="evenodd" clipRule="evenodd" d="M69.0208 10.3889C69.0208 8.5 69.8025 6.96296 71.3659 5.77778C72.948 4.59259 75.0139 4 77.5637 4C80.1322 4 82.226 4.62037 83.8453 5.86111C85.4831 7.10185 86.3021 8.39815 86.3021 9.75C86.3021 9.91667 86.2369 10.0648 86.1066 10.1944C85.995 10.3056 85.8647 10.3611 85.7158 10.3611H80.1322C79.7041 10.3611 79.3133 10.2037 78.9596 9.88889C78.606 9.57407 78.1314 9.41667 77.5358 9.41667C76.6424 9.41667 76.1957 9.67593 76.1957 10.1944C76.1957 10.4722 76.4098 10.7037 76.8379 10.8889C77.2845 11.0741 78.1035 11.2407 79.2946 11.3889C82.0678 11.7407 84.0407 12.3889 85.2132 13.3333C86.4044 14.2593 87 15.6759 87 17.5833C87 19.4722 86.1252 21.0185 84.3757 22.2222C82.6448 23.4074 80.3741 24 77.5637 24C74.7533 24 72.5478 23.4259 70.9472 22.2778C69.3465 21.1296 68.5462 19.7315 68.5462 18.0833C68.5462 17.9167 68.6021 17.7778 68.7137 17.6667C68.844 17.537 68.9929 17.4722 69.1604 17.4722H74.4648C74.8557 17.4722 75.2838 17.6574 75.7491 18.0278C76.233 18.3981 76.8937 18.5833 77.7312 18.5833C79.1271 18.5833 79.8251 18.3241 79.8251 17.8056C79.8251 17.4722 79.5738 17.2222 79.0713 17.0556C78.5688 16.8704 77.6196 16.6852 76.2237 16.5C71.4218 15.8704 69.0208 13.8333 69.0208 10.3889ZM57.9286 18.3056H66.5274C66.7321 18.3056 66.9089 18.3797 67.0578 18.5278C67.2067 18.676 67.2812 18.8519 67.2812 19.0556V22.9723C67.2812 23.176 67.2067 23.3519 67.0578 23.5C66.9089 23.6482 66.7321 23.7223 66.5274 23.7223H51.9821C51.7774 23.7223 51.6006 23.6482 51.4517 23.5C51.3028 23.3519 51.2283 23.176 51.2283 22.9723V5.02781C51.2283 4.8241 51.3028 4.64818 51.4517 4.50003C51.6006 4.35188 51.7774 4.27781 51.9821 4.27781H66.304C66.5088 4.27781 66.6856 4.35188 66.8345 4.50003C66.9834 4.64818 67.0578 4.8241 67.0578 5.02781V8.94447C67.0578 9.14818 66.9834 9.3241 66.8345 9.47225C66.6856 9.6204 66.5088 9.69447 66.304 9.69447H57.9286V11.4445H65.6898C65.8946 11.4445 66.0714 11.5185 66.2203 11.6667C66.3692 11.8148 66.4436 11.9908 66.4436 12.1945V15.8056C66.4436 16.0093 66.3692 16.1852 66.2203 16.3334C66.0714 16.4815 65.8946 16.5556 65.6898 16.5556H57.9286V18.3056ZM41.7122 10.3611C41.7122 10.6945 41.6099 10.9815 41.4051 11.2223C41.219 11.463 40.9398 11.5834 40.5676 11.5834H38.2225V9.05558H40.5676C40.9398 9.05558 41.219 9.19447 41.4051 9.47225C41.6099 9.73151 41.7122 10.0278 41.7122 10.3611ZM38.2225 18.9445V16.2223H40.8188C41.2097 16.2223 41.5168 16.3519 41.7401 16.6111C41.9821 16.8704 42.1031 17.176 42.1031 17.5278V17.5556C42.1031 17.9074 41.9914 18.2315 41.7681 18.5278C41.5633 18.8056 41.2469 18.9445 40.8188 18.9445H38.2225ZM31.9968 23.7223H41.5447C46.7933 23.7223 49.4176 21.6852 49.4176 17.6111C49.4176 16.7223 49.157 15.9074 48.6359 15.1667C48.1334 14.4074 47.5099 13.8797 46.7654 13.5834C47.3237 13.3056 47.8356 12.8611 48.3009 12.25C48.7662 11.6204 48.9988 10.9074 48.9988 10.1111V10.0278C48.9988 8.10188 48.366 6.6667 47.1004 5.72225C45.8534 4.75929 43.9084 4.27781 41.2655 4.27781H31.9968C31.792 4.27781 31.6152 4.35188 31.4663 4.50003C31.3174 4.64818 31.243 4.8241 31.243 5.02781V22.9723C31.243 23.176 31.3174 23.3519 31.4663 23.5C31.6152 23.6482 31.792 23.7223 31.9968 23.7223ZM27.9851 23.7223H22.2899C22.0851 23.7223 21.9083 23.6482 21.7594 23.5C21.6105 23.3519 21.5361 23.176 21.5361 22.9723V5.02781C21.5361 4.8241 21.6105 4.64818 21.7594 4.50003C21.9083 4.35188 22.0851 4.27781 22.2899 4.27781H27.9851C28.1899 4.27781 28.3667 4.35188 28.5156 4.50003C28.6645 4.64818 28.7389 4.8241 28.7389 5.02781V22.9723C28.7389 23.176 28.6645 23.3519 28.5156 23.5C28.3667 23.6482 28.1899 23.7223 27.9851 23.7223ZM19.8167 4.27781H14.624C13.9539 4.27781 13.5352 4.58336 13.3677 5.19447L10.7155 15.5278L8.06325 5.19447C7.89574 4.58336 7.47697 4.27781 6.80694 4.27781H1.6142C1.44669 4.27781 1.29779 4.34262 1.16751 4.47225C1.05584 4.58336 1 4.69447 1 4.80558C1 4.9167 1.00931 5.00929 1.02792 5.08336L6.2765 22.8056C6.444 23.4167 6.86277 23.7223 7.5328 23.7223H13.8981C14.5681 23.7223 14.9869 23.4167 15.1544 22.8056L20.403 5.08336C20.4216 5.00929 20.4309 4.9167 20.4309 4.80558C20.4309 4.69447 20.3658 4.58336 20.2355 4.47225C20.1238 4.34262 19.9842 4.27781 19.8167 4.27781Z" fill="black"/>
<path fillRule="evenodd" clipRule="evenodd" d="M71.0208 8.38889C71.0208 6.5 71.8025 4.96296 73.3659 3.77778C74.948 2.59259 77.0139 2 79.5637 2C82.1322 2 84.226 2.62037 85.8453 3.86111C87.4831 5.10185 88.3021 6.39815 88.3021 7.75C88.3021 7.91667 88.2369 8.06481 88.1066 8.19444C87.995 8.30555 87.8647 8.36111 87.7158 8.36111H82.1322C81.7041 8.36111 81.3133 8.2037 80.9596 7.88889C80.606 7.57407 80.1314 7.41667 79.5358 7.41667C78.6424 7.41667 78.1957 7.67593 78.1957 8.19444C78.1957 8.47222 78.4098 8.7037 78.8379 8.88889C79.2845 9.07407 80.1035 9.24074 81.2946 9.38889C84.0678 9.74074 86.0407 10.3889 87.2132 11.3333C88.4044 12.2593 89 13.6759 89 15.5833C89 17.4722 88.1252 19.0185 86.3757 20.2222C84.6448 21.4074 82.3741 22 79.5637 22C76.7533 22 74.5478 21.4259 72.9472 20.2778C71.3465 19.1296 70.5462 17.7315 70.5462 16.0833C70.5462 15.9167 70.6021 15.7778 70.7137 15.6667C70.844 15.537 70.9929 15.4722 71.1604 15.4722H76.4648C76.8557 15.4722 77.2838 15.6574 77.7491 16.0278C78.233 16.3981 78.8937 16.5833 79.7312 16.5833C81.1271 16.5833 81.8251 16.3241 81.8251 15.8056C81.8251 15.4722 81.5738 15.2222 81.0713 15.0556C80.5688 14.8704 79.6196 14.6852 78.2237 14.5C73.4218 13.8704 71.0208 11.8333 71.0208 8.38889ZM59.9286 16.3056H68.5274C68.7321 16.3056 68.9089 16.3797 69.0578 16.5278C69.2067 16.676 69.2812 16.8519 69.2812 17.0556V20.9723C69.2812 21.176 69.2067 21.3519 69.0578 21.5C68.9089 21.6482 68.7321 21.7223 68.5274 21.7223H53.9821C53.7774 21.7223 53.6006 21.6482 53.4517 21.5C53.3028 21.3519 53.2283 21.176 53.2283 20.9723V3.02781C53.2283 2.8241 53.3028 2.64818 53.4517 2.50003C53.6006 2.35188 53.7774 2.27781 53.9821 2.27781H68.304C68.5088 2.27781 68.6856 2.35188 68.8345 2.50003C68.9834 2.64818 69.0578 2.8241 69.0578 3.02781V6.94447C69.0578 7.14818 68.9834 7.3241 68.8345 7.47225C68.6856 7.6204 68.5088 7.69447 68.304 7.69447H59.9286V9.44447H67.6898C67.8946 9.44447 68.0714 9.51855 68.2203 9.6667C68.3692 9.81484 68.4436 9.99077 68.4436 10.1945V13.8056C68.4436 14.0093 68.3692 14.1852 68.2203 14.3334C68.0714 14.4815 67.8946 14.5556 67.6898 14.5556H59.9286V16.3056ZM43.7122 8.36114C43.7122 8.69447 43.6099 8.98151 43.4051 9.22225C43.219 9.46299 42.9398 9.58336 42.5676 9.58336H40.2225V7.05558H42.5676C42.9398 7.05558 43.219 7.19447 43.4051 7.47225C43.6099 7.73151 43.7122 8.02781 43.7122 8.36114ZM40.2225 16.9445V14.2223H42.8188C43.2097 14.2223 43.5168 14.3519 43.7401 14.6111C43.9821 14.8704 44.1031 15.176 44.1031 15.5278V15.5556C44.1031 15.9074 43.9914 16.2315 43.7681 16.5278C43.5633 16.8056 43.2469 16.9445 42.8188 16.9445H40.2225ZM33.9968 21.7223H43.5447C48.7933 21.7223 51.4176 19.6852 51.4176 15.6111C51.4176 14.7223 51.157 13.9074 50.6359 13.1667C50.1334 12.4074 49.5099 11.8797 48.7654 11.5834C49.3237 11.3056 49.8356 10.8611 50.3009 10.25C50.7662 9.6204 50.9988 8.90744 50.9988 8.11114V8.02781C50.9988 6.10188 50.366 4.6667 49.1004 3.72225C47.8534 2.75929 45.9084 2.27781 43.2655 2.27781H33.9968C33.792 2.27781 33.6152 2.35188 33.4663 2.50003C33.3174 2.64818 33.243 2.8241 33.243 3.02781V20.9723C33.243 21.176 33.3174 21.3519 33.4663 21.5C33.6152 21.6482 33.792 21.7223 33.9968 21.7223ZM29.9851 21.7223H24.2899C24.0851 21.7223 23.9083 21.6482 23.7594 21.5C23.6105 21.3519 23.5361 21.176 23.5361 20.9723V3.02781C23.5361 2.8241 23.6105 2.64818 23.7594 2.50003C23.9083 2.35188 24.0851 2.27781 24.2899 2.27781H29.9851C30.1899 2.27781 30.3667 2.35188 30.5156 2.50003C30.6645 2.64818 30.7389 2.8241 30.7389 3.02781V20.9723C30.7389 21.176 30.6645 21.3519 30.5156 21.5C30.3667 21.6482 30.1899 21.7223 29.9851 21.7223ZM21.8167 2.27781H16.624C15.9539 2.27781 15.5352 2.58336 15.3677 3.19447L12.7155 13.5278L10.0632 3.19447C9.89574 2.58336 9.47697 2.27781 8.80694 2.27781H3.6142C3.44669 2.27781 3.29779 2.34262 3.16751 2.47225C3.05584 2.58336 3 2.69447 3 2.80558C3 2.9167 3.00931 3.00929 3.02792 3.08336L8.2765 20.8056C8.444 21.4167 8.86277 21.7223 9.5328 21.7223H15.8981C16.5681 21.7223 16.9869 21.4167 17.1544 20.8056L22.403 3.08336C22.4216 3.00929 22.4309 2.9167 22.4309 2.80558C22.4309 2.69447 22.3658 2.58336 22.2355 2.47225C22.1238 2.34262 21.9842 2.27781 21.8167 2.27781Z" fill="white"/>
<path d="M73.3659 3.77778L73.0661 3.37761L73.0639 3.37933L73.3659 3.77778ZM85.8453 3.86111L85.5412 4.258L85.5433 4.25966L85.8453 3.86111ZM88.1066 8.19444L87.754 7.84L87.754 7.84L88.1066 8.19444ZM80.9596 7.88889L81.2921 7.51544L81.2921 7.51544L80.9596 7.88889ZM78.8379 8.88889L78.6393 9.34784L78.6464 9.35077L78.8379 8.88889ZM81.2946 9.38889L81.3576 8.89286L81.3564 8.89271L81.2946 9.38889ZM87.2132 11.3333L86.8996 11.7228L86.9064 11.7281L87.2132 11.3333ZM86.3757 20.2222L86.6582 20.6348L86.6591 20.6341L86.3757 20.2222ZM72.9472 20.2778L72.6557 20.6841L72.6557 20.6841L72.9472 20.2778ZM70.7137 15.6667L70.3611 15.3122L70.3611 15.3122L70.7137 15.6667ZM77.7491 16.0278L77.4376 16.419L77.4452 16.4248L77.7491 16.0278ZM81.0713 15.0556L80.8984 15.5247L80.9061 15.5275L80.9139 15.5301L81.0713 15.0556ZM78.2237 14.5L78.2894 14.0043L78.2887 14.0042L78.2237 14.5ZM59.9286 16.3056H59.4286V16.8056H59.9286V16.3056ZM69.0578 16.5278L68.7052 16.8822L68.7052 16.8823L69.0578 16.5278ZM69.0578 21.5L68.7052 21.1456L68.7052 21.1456L69.0578 21.5ZM53.4517 2.50003L53.099 2.14559L53.099 2.14559L53.4517 2.50003ZM68.8345 2.50003L69.1871 2.14559L69.1871 2.14559L68.8345 2.50003ZM59.9286 7.69447V7.19447H59.4286V7.69447H59.9286ZM59.9286 9.44447H59.4286V9.94447H59.9286V9.44447ZM68.2203 9.6667L67.8676 10.0211L67.8676 10.0211L68.2203 9.6667ZM68.2203 14.3334L68.5729 14.6878L68.5729 14.6878L68.2203 14.3334ZM59.9286 14.5556V14.0556H59.4286V14.5556H59.9286ZM43.4051 9.22225L43.0242 8.89833L43.0167 8.90721L43.0096 8.91643L43.4051 9.22225ZM40.2225 9.58336H39.7225V10.0834H40.2225V9.58336ZM40.2225 7.05558V6.55558H39.7225V7.05558H40.2225ZM43.4051 7.47225L42.9897 7.75057L43.0006 7.76679L43.0127 7.78212L43.4051 7.47225ZM40.2225 14.2223V13.7223H39.7225V14.2223H40.2225ZM40.2225 16.9445H39.7225V17.4445H40.2225V16.9445ZM43.7401 14.6111L43.3613 14.9375L43.3678 14.945L43.3746 14.9523L43.7401 14.6111ZM43.7681 16.5278L43.3688 16.2268L43.3656 16.2312L43.7681 16.5278ZM50.6359 13.1667L50.2189 13.4427L50.2229 13.4486L50.2269 13.4544L50.6359 13.1667ZM48.7654 11.5834L48.5427 11.1357L47.5408 11.6341L48.5805 12.0479L48.7654 11.5834ZM50.3009 10.25L50.6987 10.553L50.703 10.5472L50.3009 10.25ZM49.1004 3.72225L48.7947 4.11805L48.8014 4.12298L49.1004 3.72225ZM33.4663 2.50003L33.1137 2.14559L33.1137 2.14559L33.4663 2.50003ZM23.7594 2.50003L23.4068 2.14559L23.4068 2.14559L23.7594 2.50003ZM30.5156 2.50003L30.8682 2.14559L30.8682 2.14559L30.5156 2.50003ZM15.3677 3.19447L14.8854 3.06228L14.8834 3.07017L15.3677 3.19447ZM12.7155 13.5278L12.2312 13.6521H13.1998L12.7155 13.5278ZM10.0632 3.19447L10.5476 3.07015L10.5455 3.0623L10.0632 3.19447ZM3.16751 2.47225L3.52017 2.8267L3.52017 2.82669L3.16751 2.47225ZM3.02792 3.08336L2.54299 3.20521L2.54554 3.21533L2.5485 3.22535L3.02792 3.08336ZM8.2765 20.8056L8.75881 20.6734L8.75591 20.6636L8.2765 20.8056ZM17.1544 20.8056L16.6749 20.6636L16.6722 20.6734L17.1544 20.8056ZM22.403 3.08336L22.8824 3.22535L22.8854 3.21533L22.8879 3.20521L22.403 3.08336ZM22.2355 2.47225L21.8567 2.79859L21.8818 2.82773L21.911 2.85269L22.2355 2.47225ZM73.0639 3.37933C71.3814 4.65477 70.5208 6.33659 70.5208 8.38889H71.5208C71.5208 6.66341 72.2236 5.27116 73.668 4.17623L73.0639 3.37933ZM79.5637 1.5C76.9373 1.5 74.7569 2.111 73.0662 3.37762L73.6657 4.17794C75.139 3.07419 77.0905 2.5 79.5637 2.5V1.5ZM86.1494 3.46423C84.4224 2.14093 82.2132 1.5 79.5637 1.5V2.5C82.0512 2.5 84.0297 3.09981 85.5412 4.25799L86.1494 3.46423ZM88.8021 7.75C88.8021 6.17348 87.8431 4.74724 86.1472 3.46256L85.5433 4.25966C87.1232 5.45646 87.8021 6.62281 87.8021 7.75H88.8021ZM88.4593 8.54889C88.6732 8.33601 88.8021 8.06401 88.8021 7.75H87.8021C87.8021 7.76932 87.8006 7.79362 87.754 7.84L88.4593 8.54889ZM87.7158 8.86111C88.0051 8.86111 88.26 8.74722 88.4593 8.54889L87.754 7.84C87.7381 7.85579 87.7296 7.85929 87.729 7.85951C87.7283 7.85981 87.7276 7.86006 87.7264 7.86031C87.7251 7.86057 87.7217 7.86111 87.7158 7.86111V8.86111ZM82.1322 8.86111H87.7158V7.86111H82.1322V8.86111ZM80.6272 8.26234C81.0619 8.64935 81.5682 8.86111 82.1322 8.86111V7.86111C81.84 7.86111 81.5646 7.75805 81.2921 7.51544L80.6272 8.26234ZM79.5358 7.91667C80.0416 7.91667 80.3869 8.04847 80.6272 8.26234L81.2921 7.51544C80.8251 7.09968 80.2212 6.91667 79.5358 6.91667V7.91667ZM78.6957 8.19444C78.6957 8.13838 78.7072 8.11348 78.7131 8.10318C78.7189 8.09297 78.7343 8.07108 78.7818 8.04355C78.8917 7.97973 79.1211 7.91667 79.5358 7.91667V6.91667C79.0571 6.91667 78.6165 6.98323 78.2798 7.17867C77.9015 7.3982 77.6957 7.75784 77.6957 8.19444H78.6957ZM79.0364 8.42999C78.8583 8.35293 78.7661 8.28312 78.7234 8.23694C78.7039 8.21584 78.6981 8.20335 78.6968 8.20037C78.696 8.1984 78.6957 8.19775 78.6957 8.19444H77.6957C77.6957 8.78615 78.1636 9.14201 78.6393 9.34779L79.0364 8.42999ZM81.3564 8.89271C80.1632 8.74431 79.4063 8.5833 79.0293 8.42701L78.6464 9.35077C79.1627 9.56484 80.0438 9.73717 81.2329 9.88507L81.3564 8.89271ZM87.5269 10.9439C86.2434 9.91016 84.1557 9.24788 81.3576 8.89286L81.2317 9.88491C83.9799 10.2336 85.838 10.8676 86.8996 11.7227L87.5269 10.9439ZM89.5 15.5833C89.5 13.5664 88.8646 11.9837 87.5201 10.9386L86.9064 11.7281C87.9442 12.5348 88.5 13.7855 88.5 15.5833H89.5ZM86.6591 20.6341C88.5246 19.3507 89.5 17.6593 89.5 15.5833H88.5C88.5 17.2852 87.7259 18.6864 86.0923 19.8103L86.6591 20.6341ZM79.5637 22.5C82.4414 22.5 84.8201 21.8933 86.6582 20.6348L86.0932 19.8097C84.4695 20.9215 82.3069 21.5 79.5637 21.5V22.5ZM72.6557 20.6841C74.3706 21.9142 76.6918 22.5 79.5637 22.5V21.5C76.8149 21.5 74.725 20.9377 73.2386 19.8715L72.6557 20.6841ZM70.0462 16.0833C70.0462 17.9253 70.9532 19.4628 72.6557 20.6841L73.2386 19.8715C71.7399 18.7965 71.0462 17.5377 71.0462 16.0833H70.0462ZM70.3611 15.3122C70.1492 15.5231 70.0462 15.7922 70.0462 16.0833H71.0462C71.0462 16.0567 71.0505 16.0445 71.052 16.0407C71.0533 16.0374 71.0561 16.0314 71.0664 16.0211L70.3611 15.3122ZM71.1604 14.9722C70.8473 14.9722 70.575 15.0993 70.3611 15.3122L71.0664 16.0211C71.113 15.9747 71.1386 15.9722 71.1604 15.9722V14.9722ZM76.4648 14.9722H71.1604V15.9722H76.4648V14.9722ZM78.0604 15.6366C77.5506 15.2307 77.0144 14.9722 76.4648 14.9722V15.9722C76.6969 15.9722 77.0169 16.0841 77.4377 16.419L78.0604 15.6366ZM79.7312 16.0833C78.963 16.0833 78.4222 15.9133 78.053 15.6307L77.4452 16.4248C78.0438 16.883 78.8244 17.0833 79.7312 17.0833V16.0833ZM81.3251 15.8056C81.3251 15.8109 81.3277 15.8056 81.3221 15.8119C81.307 15.8287 81.2563 15.8723 81.1275 15.9202C80.8637 16.0182 80.4124 16.0833 79.7312 16.0833V17.0833C80.446 17.0833 81.0416 17.0188 81.4757 16.8576C81.6959 16.7758 81.9069 16.6574 82.0664 16.4798C82.2352 16.2916 82.3251 16.0595 82.3251 15.8056H81.3251ZM80.9139 15.5301C81.1249 15.6001 81.2336 15.6724 81.284 15.7225C81.3219 15.7603 81.3251 15.781 81.3251 15.8056H82.3251C82.3251 15.1386 81.7951 14.7688 81.2287 14.581L80.9139 15.5301ZM78.1579 14.9957C79.5578 15.1814 80.4548 15.3612 80.8984 15.5247L81.2442 14.5864C80.6827 14.3795 79.6814 14.189 78.2894 14.0043L78.1579 14.9957ZM70.5208 8.38889C70.5208 10.2424 71.1742 11.7581 72.4981 12.8813C73.8014 13.9871 75.7099 14.6747 78.1587 14.9958L78.2887 14.0042C75.9356 13.6957 74.2426 13.0499 73.145 12.1187C72.0679 11.2049 71.5208 9.97987 71.5208 8.38889H70.5208ZM68.5274 15.8056H59.9286V16.8056H68.5274V15.8056ZM69.4105 16.1734C69.1706 15.9347 68.8681 15.8056 68.5274 15.8056V16.8056C68.5961 16.8056 68.6472 16.8246 68.7052 16.8822L69.4105 16.1734ZM69.7812 17.0556C69.7812 16.7143 69.6504 16.4121 69.4105 16.1734L68.7052 16.8823C68.763 16.9398 68.7812 16.9895 68.7812 17.0556H69.7812ZM69.7812 20.9723V17.0556H68.7812V20.9723H69.7812ZM69.4105 21.8545C69.6504 21.6157 69.7812 21.3136 69.7812 20.9723H68.7812C68.7812 21.0384 68.763 21.088 68.7052 21.1456L69.4105 21.8545ZM68.5274 22.2223C68.8681 22.2223 69.1706 22.0931 69.4105 21.8545L68.7052 21.1456C68.6472 21.2032 68.5961 21.2223 68.5274 21.2223V22.2223ZM53.9821 22.2223H68.5274V21.2223H53.9821V22.2223ZM53.099 21.8545C53.3389 22.0931 53.6414 22.2223 53.9821 22.2223V21.2223C53.9134 21.2223 53.8623 21.2032 53.8043 21.1456L53.099 21.8545ZM52.7283 20.9723C52.7283 21.3136 52.8591 21.6158 53.099 21.8545L53.8043 21.1456C53.7465 21.088 53.7283 21.0383 53.7283 20.9723H52.7283ZM52.7283 3.02781V20.9723H53.7283V3.02781H52.7283ZM53.099 2.14559C52.8591 2.38431 52.7283 2.6865 52.7283 3.02781H53.7283C53.7283 2.96171 53.7465 2.91205 53.8043 2.85447L53.099 2.14559ZM53.9821 1.77781C53.6414 1.77781 53.3389 1.90692 53.099 2.14559L53.8043 2.85447C53.8623 2.79684 53.9133 2.77781 53.9821 2.77781V1.77781ZM68.304 1.77781H53.9821V2.77781H68.304V1.77781ZM69.1871 2.14559C68.9473 1.90692 68.6447 1.77781 68.304 1.77781V2.77781C68.3728 2.77781 68.4239 2.79684 68.4818 2.85447L69.1871 2.14559ZM69.5578 3.02781C69.5578 2.68651 69.4271 2.38432 69.1871 2.14559L68.4818 2.85447C68.5397 2.91204 68.5578 2.9617 68.5578 3.02781H69.5578ZM69.5578 6.94447V3.02781H68.5578V6.94447H69.5578ZM69.1871 7.82669C69.4271 7.58796 69.5578 7.28577 69.5578 6.94447H68.5578C68.5578 7.01058 68.5397 7.06024 68.4818 7.11781L69.1871 7.82669ZM68.304 8.19447C68.6447 8.19447 68.9473 8.06536 69.1871 7.82669L68.4818 7.11781C68.4239 7.17544 68.3728 7.19447 68.304 7.19447V8.19447ZM59.9286 8.19447H68.304V7.19447H59.9286V8.19447ZM60.4286 9.44447V7.69447H59.4286V9.44447H60.4286ZM67.6898 8.94447H59.9286V9.94447H67.6898V8.94447ZM68.5729 9.31226C68.3331 9.07358 68.0305 8.94447 67.6898 8.94447V9.94447C67.7586 9.94447 67.8097 9.96351 67.8676 10.0211L68.5729 9.31226ZM68.9436 10.1945C68.9436 9.85316 68.8129 9.55097 68.5729 9.31225L67.8676 10.0211C67.9255 10.0787 67.9436 10.1284 67.9436 10.1945H68.9436ZM68.9436 13.8056V10.1945H67.9436V13.8056H68.9436ZM68.5729 14.6878C68.8129 14.4491 68.9436 14.1469 68.9436 13.8056H67.9436C67.9436 13.8717 67.9255 13.9213 67.8676 13.9789L68.5729 14.6878ZM67.6898 15.0556C68.0305 15.0556 68.3331 14.9265 68.5729 14.6878L67.8676 13.9789C67.8097 14.0365 67.7586 14.0556 67.6898 14.0556V15.0556ZM59.9286 15.0556H67.6898V14.0556H59.9286V15.0556ZM60.4286 16.3056V14.5556H59.4286V16.3056H60.4286ZM43.786 9.54617C44.0721 9.20978 44.2122 8.80611 44.2122 8.36114H43.2122C43.2122 8.58284 43.1476 8.75324 43.0242 8.89833L43.786 9.54617ZM42.5676 10.0834C43.0562 10.0834 43.4986 9.91876 43.8007 9.52807L43.0096 8.91643C42.9394 9.00722 42.8234 9.08336 42.5676 9.08336V10.0834ZM40.2225 10.0834H42.5676V9.08336H40.2225V10.0834ZM39.7225 7.05558V9.58336H40.7225V7.05558H39.7225ZM42.5676 6.55558H40.2225V7.55558H42.5676V6.55558ZM43.8205 7.19394C43.5298 6.76015 43.0844 6.55558 42.5676 6.55558V7.55558C42.7952 7.55558 42.9082 7.6288 42.9897 7.75057L43.8205 7.19394ZM44.2122 8.36114C44.2122 7.91646 44.0726 7.51075 43.7975 7.16238L43.0127 7.78212C43.1471 7.95227 43.2122 8.13916 43.2122 8.36114H44.2122ZM39.7225 14.2223V16.9445H40.7225V14.2223H39.7225ZM42.8188 13.7223H40.2225V14.7223H42.8188V13.7223ZM44.119 14.2848C43.7866 13.8989 43.3322 13.7223 42.8188 13.7223V14.7223C43.0872 14.7223 43.247 14.8048 43.3613 14.9375L44.119 14.2848ZM44.6031 15.5278C44.6031 15.0482 44.4333 14.621 44.1057 14.27L43.3746 14.9523C43.5309 15.1198 43.6031 15.3037 43.6031 15.5278H44.6031ZM44.6031 15.5556V15.5278H43.6031V15.5556H44.6031ZM44.1673 16.8288C44.4522 16.4508 44.6031 16.0222 44.6031 15.5556H43.6031C43.6031 15.7927 43.5306 16.0122 43.3688 16.2268L44.1673 16.8288ZM42.8188 17.4445C43.3631 17.4445 43.8489 17.2609 44.1705 16.8245L43.3656 16.2312C43.2778 16.3502 43.1307 16.4445 42.8188 16.4445V17.4445ZM40.2225 17.4445H42.8188V16.4445H40.2225V17.4445ZM43.5447 21.2223H33.9968V22.2223H43.5447V21.2223ZM50.9176 15.6111C50.9176 17.5325 50.3052 18.8972 49.1428 19.7995C47.9563 20.7205 46.1182 21.2223 43.5447 21.2223V22.2223C46.2199 22.2223 48.3182 21.7055 49.756 20.5894C51.2178 19.4547 51.9176 17.7639 51.9176 15.6111H50.9176ZM50.2269 13.4544C50.69 14.1126 50.9176 14.8273 50.9176 15.6111H51.9176C51.9176 14.6172 51.624 13.7023 51.0448 12.879L50.2269 13.4544ZM48.5805 12.0479C49.2176 12.3015 49.7648 12.7564 50.2189 13.4427L51.0528 12.8907C50.502 12.0584 49.8021 11.4578 48.9503 11.1188L48.5805 12.0479ZM49.9031 9.94713C49.4737 10.5111 49.0183 10.8991 48.5427 11.1357L48.9881 12.031C49.6292 11.7121 50.1974 11.2112 50.6987 10.5529L49.9031 9.94713ZM50.4988 8.11114C50.4988 8.80243 50.2993 9.41084 49.8988 9.95287L50.703 10.5472C51.233 9.82996 51.4988 9.01244 51.4988 8.11114H50.4988ZM50.4988 8.02781V8.11114H51.4988V8.02781H50.4988ZM48.8014 4.12298C49.9123 4.95203 50.4988 6.2209 50.4988 8.02781H51.4988C51.4988 5.98286 50.8197 4.38136 49.3994 3.32153L48.8014 4.12298ZM43.2655 2.77781C45.8661 2.77781 47.6772 3.25497 48.7948 4.11799L49.406 3.32651C48.0296 2.2636 45.9508 1.77781 43.2655 1.77781V2.77781ZM33.9968 2.77781H43.2655V1.77781H33.9968V2.77781ZM33.819 2.85447C33.8769 2.79684 33.928 2.77781 33.9968 2.77781V1.77781C33.6561 1.77781 33.3535 1.90692 33.1137 2.14559L33.819 2.85447ZM33.743 3.02781C33.743 2.96171 33.7611 2.91205 33.819 2.85447L33.1137 2.14559C32.8737 2.38431 32.743 2.68649 32.743 3.02781H33.743ZM33.743 20.9723V3.02781H32.743V20.9723H33.743ZM33.819 21.1456C33.7611 21.088 33.743 21.0383 33.743 20.9723H32.743C32.743 21.3136 32.8737 21.6158 33.1137 21.8545L33.819 21.1456ZM33.9968 21.2223C33.928 21.2223 33.8769 21.2032 33.819 21.1456L33.1137 21.8545C33.3535 22.0931 33.6561 22.2223 33.9968 22.2223V21.2223ZM24.2899 22.2223H29.9851V21.2223H24.2899V22.2223ZM23.4068 21.8545C23.6466 22.0931 23.9492 22.2223 24.2899 22.2223V21.2223C24.2211 21.2223 24.17 21.2032 24.1121 21.1456L23.4068 21.8545ZM23.0361 20.9723C23.0361 21.3136 23.1668 21.6158 23.4068 21.8545L24.1121 21.1456C24.0542 21.088 24.0361 21.0383 24.0361 20.9723H23.0361ZM23.0361 3.02781V20.9723H24.0361V3.02781H23.0361ZM23.4068 2.14559C23.1668 2.38431 23.0361 2.68649 23.0361 3.02781H24.0361C24.0361 2.96171 24.0542 2.91205 24.1121 2.85447L23.4068 2.14559ZM24.2899 1.77781C23.9492 1.77781 23.6466 1.90692 23.4068 2.14559L24.1121 2.85447C24.17 2.79684 24.2211 2.77781 24.2899 2.77781V1.77781ZM29.9851 1.77781H24.2899V2.77781H29.9851V1.77781ZM30.8682 2.14559C30.6284 1.90692 30.3258 1.77781 29.9851 1.77781V2.77781C30.0539 2.77781 30.105 2.79684 30.1629 2.85447L30.8682 2.14559ZM31.2389 3.02781C31.2389 2.6865 31.1082 2.38431 30.8682 2.14559L30.1629 2.85447C30.2208 2.91205 30.2389 2.96171 30.2389 3.02781H31.2389ZM31.2389 20.9723V3.02781H30.2389V20.9723H31.2389ZM30.8682 21.8545C31.1082 21.6158 31.2389 21.3136 31.2389 20.9723H30.2389C30.2389 21.0383 30.2208 21.088 30.1629 21.1456L30.8682 21.8545ZM29.9851 22.2223C30.3258 22.2223 30.6284 22.0931 30.8682 21.8545L30.1629 21.1456C30.105 21.2032 30.0539 21.2223 29.9851 21.2223V22.2223ZM16.624 2.77781H21.8167V1.77781H16.624V2.77781ZM15.8499 3.32665C15.9106 3.10528 16.0031 2.9831 16.1021 2.91088C16.2038 2.83663 16.3639 2.77781 16.624 2.77781V1.77781C16.214 1.77781 15.8297 1.87176 15.5127 2.10306C15.1929 2.33641 14.9923 2.67256 14.8854 3.0623L15.8499 3.32665ZM13.1998 13.6521L15.852 3.31878L14.8834 3.07017L12.2312 13.4035L13.1998 13.6521ZM9.57894 3.31878L12.2312 13.6521L13.1998 13.4035L10.5475 3.07017L9.57894 3.31878ZM8.80694 2.77781C9.06702 2.77781 9.22706 2.83663 9.32882 2.91088C9.42779 2.9831 9.52035 3.10528 9.58103 3.32665L10.5455 3.0623C10.4386 2.67256 10.2381 2.33641 9.91825 2.10306C9.60125 1.87176 9.21688 1.77781 8.80694 1.77781V2.77781ZM3.6142 2.77781H8.80694V1.77781H3.6142V2.77781ZM3.52017 2.82669C3.56676 2.78033 3.59233 2.77781 3.6142 2.77781V1.77781C3.30104 1.77781 3.02882 1.90491 2.81484 2.11781L3.52017 2.82669ZM3.5 2.80558C3.5 2.82015 3.49811 2.83327 3.4954 2.8441C3.49273 2.85471 3.48974 2.86124 3.48864 2.86343C3.48762 2.86546 3.48855 2.86311 3.4935 2.85655C3.49846 2.84996 3.50688 2.83992 3.52017 2.8267L2.81485 2.11781C2.64869 2.28313 2.5 2.51417 2.5 2.80558H3.5ZM3.51284 2.96152C3.50765 2.94083 3.5 2.89243 3.5 2.80558H2.5C2.5 2.94096 2.51097 3.07775 2.54299 3.20521L3.51284 2.96152ZM8.75591 20.6636L3.50734 2.94138L2.5485 3.22535L7.79708 20.9476L8.75591 20.6636ZM9.5328 21.2223C9.27272 21.2223 9.11268 21.1634 9.01092 21.0892C8.91195 21.017 8.81939 20.8948 8.75871 20.6734L7.79428 20.9378C7.90111 21.3275 8.10169 21.6637 8.42149 21.897C8.7385 22.1283 9.12286 22.2223 9.5328 22.2223V21.2223ZM15.8981 21.2223H9.5328V22.2223H15.8981V21.2223ZM16.6722 20.6734C16.6115 20.8948 16.519 21.017 16.42 21.0892C16.3182 21.1634 16.1582 21.2223 15.8981 21.2223V22.2223C16.308 22.2223 16.6924 22.1283 17.0094 21.897C17.3292 21.6637 17.5298 21.3275 17.6366 20.9378L16.6722 20.6734ZM21.9236 2.94138L16.675 20.6636L17.6338 20.9476L22.8824 3.22535L21.9236 2.94138ZM21.9309 2.80558C21.9309 2.89243 21.9233 2.94083 21.9181 2.96152L22.8879 3.20521C22.9199 3.07775 22.9309 2.94096 22.9309 2.80558H21.9309ZM21.911 2.85269C21.9282 2.86731 21.9391 2.87847 21.9455 2.88578C21.9519 2.89308 21.9527 2.89521 21.9507 2.8918C21.9486 2.88819 21.9435 2.87849 21.9389 2.8629C21.9342 2.84693 21.9309 2.82738 21.9309 2.80558H22.9309C22.9309 2.48391 22.7412 2.24639 22.5599 2.09182L21.911 2.85269ZM21.8167 2.77781C21.8262 2.77781 21.8316 2.77871 21.8339 2.77918C21.835 2.77943 21.8357 2.77964 21.836 2.77973C21.8362 2.77982 21.8364 2.77988 21.8365 2.77992C21.8365 2.77996 21.8368 2.7801 21.8374 2.78043C21.838 2.78078 21.839 2.78145 21.8405 2.78261C21.8434 2.78488 21.849 2.78966 21.8567 2.79859L22.6143 2.14591C22.41 1.90874 22.1333 1.77781 21.8167 1.77781V2.77781Z" fill="black"/>
</svg>
