<svg width="369" height="138" viewBox="0 0 369 138" fill="none" xmlns="http://www.w3.org/2000/svg">
<path d="M182.52 107.16L182.277 106.19L182.277 106.19L182.277 106.19L182.276 106.19L182.275 106.19L182.275 106.191L182.274 106.191L182.273 106.191L182.272 106.191L182.271 106.192L182.271 106.192L182.27 106.192L182.27 106.192L182.27 106.192L182.269 106.192L182.269 106.192L182.268 106.192L182.267 106.192L182.266 106.193L182.265 106.193L182.265 106.193L182.265 106.193L182.264 106.193L182.263 106.193L182.263 106.193L182.263 106.193L182.263 106.194L182.262 106.194L182.262 106.194L182.262 106.194L182.261 106.194L182.261 106.194L182.261 106.194L182.26 106.194L182.26 106.194L182.259 106.194L182.259 106.195L182.258 106.195L182.258 106.195L182.258 106.195L182.258 106.195L182.257 106.195L182.256 106.195L182.255 106.195L182.255 106.195L182.255 106.196L182.254 106.196L182.254 106.196L182.253 106.196L182.253 106.196L182.252 106.196L182.251 106.196L182.25 106.197L182.249 106.197L182.248 106.197L182.248 106.197L182.247 106.197L182.247 106.197L182.247 106.198L182.246 106.198L182.245 106.198L182.245 106.198L182.244 106.198L182.243 106.199L182.242 106.199L182.241 106.199L182.24 106.199L182.24 106.199L182.24 106.199L182.239 106.199L182.239 106.199L182.239 106.199L182.238 106.2L182.238 106.2L182.238 106.2L182.237 106.2L182.236 106.2L182.235 106.2L182.234 106.201L182.233 106.201L182.233 106.201L182.233 106.201L182.232 106.201L182.232 106.201L182.232 106.201L182.232 106.201L182.231 106.201L182.231 106.201L182.231 106.201L182.23 106.202L182.23 106.202L182.229 106.202L182.229 106.202L182.228 106.202L182.227 106.203L182.226 106.203L182.226 106.203L182.225 106.203L182.225 106.203L182.225 106.203L182.224 106.203L182.224 106.203L182.224 106.203L182.224 106.203L182.223 106.203L182.223 106.203L182.223 106.203L182.222 106.204L182.221 106.204L182.221 106.204L182.221 106.204L182.22 106.204L182.22 106.204L182.22 106.204L182.219 106.204L182.218 106.205L182.218 106.205L182.218 106.205L182.218 106.205L182.217 106.205L182.217 106.205L182.217 106.205L182.216 106.205L182.215 106.205L182.215 106.206L182.214 106.206L182.213 106.206L182.212 106.206L182.211 106.207L182.211 106.207L182.21 106.207L182.21 106.207L182.21 106.207L182.209 106.207L182.209 106.207L182.208 106.207L182.207 106.207L182.206 106.208L182.205 106.208L182.205 106.208L182.205 106.208L182.204 106.208L182.204 106.208L182.203 106.208L182.203 106.208L182.203 106.208L182.203 106.209L182.202 106.209L182.202 106.209L182.202 106.209L182.202 106.209L182.201 106.209L182.201 106.209L182.201 106.209L182.201 106.209L182.2 106.209L182.199 106.209L182.199 106.21L182.198 106.21L182.198 106.21L182.198 106.21L182.198 106.21L182.197 106.21L182.196 106.21L182.196 106.21L182.196 106.21L182.195 106.21L182.195 106.21L182.195 106.211L182.194 106.211L182.194 106.211L182.193 106.211L182.193 106.211L182.193 106.211L182.193 106.211L182.192 106.211L182.191 106.211L182.19 106.212L182.189 106.212L182.188 106.212L182.188 106.212L182.187 106.212L182.187 106.212L182.187 106.212L182.187 106.213L182.186 106.213L182.186 106.213L182.185 106.213L182.184 106.213L182.183 106.214L182.182 106.214L182.181 106.214L182.18 106.214L182.18 106.214L182.18 106.214L182.18 106.214L182.179 106.214L182.179 106.214L182.178 106.215L182.178 106.215L182.178 106.215L182.177 106.215L182.176 106.215L182.175 106.215L182.174 106.216L182.173 106.216L182.173 106.216L182.173 106.216L182.172 106.216L182.172 106.216L182.172 106.216L182.171 106.216L182.171 106.216L182.171 106.216L182.171 106.217L182.17 106.217L182.169 106.217L182.169 106.217L182.168 106.217L182.167 106.218L182.166 106.218L182.166 106.218L182.165 106.218L182.165 106.218L182.165 106.218L182.165 106.218L182.164 106.218L182.164 106.218L182.164 106.218L182.164 106.218L182.163 106.218L182.163 106.218L182.163 106.218L182.163 106.219L182.162 106.219L182.162 106.219L182.161 106.219L182.16 106.219L182.16 106.219L182.16 106.219L182.159 106.219L182.159 106.219L182.158 106.22L182.158 106.22L182.158 106.22L182.158 106.22L182.157 106.22L182.147 106.223L182.136 106.225C177.271 107.556 173.803 108.175 170.851 108.291L170.837 108.291C170.485 108.31 170.228 108.31 169.96 108.31C166.105 108.31 162.646 107.306 159.842 105.499L159.254 105.121L158.697 105.542C157.852 106.18 156.909 106.756 155.846 107.269L155.842 107.271C153.412 108.453 151.011 108.799 149.366 108.954L149.357 108.955C148.809 109.012 147.98 109.061 145.678 109.181C144.334 109.252 143.174 109.343 142.241 109.446L142.234 109.447C141.363 109.548 140.566 109.661 139.822 109.808C139.761 109.819 139.697 109.829 139.617 109.842C139.545 109.853 139.458 109.866 139.368 109.881L139.106 109.916C139.031 109.924 138.963 109.934 138.919 109.94C138.888 109.944 138.866 109.948 138.848 109.95C138.833 109.952 138.821 109.953 138.809 109.954L138.794 109.955L138.779 109.957C137.598 110.101 136.394 110.159 135.166 110.14L134.986 110.137L134.817 110.197C133.485 110.667 132.19 110.989 130.884 111.169L130.877 111.17C130.17 111.273 129.338 111.33 128.5 111.33C126.998 111.33 125.516 111.132 124.104 110.745L123.584 110.603L123.179 110.959C122.309 111.725 121.469 112.311 120.734 112.753L120.73 112.756C120.062 113.162 119.33 113.493 118.57 113.752C118.569 113.753 118.568 113.753 118.567 113.754L118.274 113.851L118.224 113.868L118.177 113.889C117.389 114.246 116.555 114.512 115.694 114.678C113.408 115.11 112.124 115.053 105.232 114.701C105.232 114.701 105.231 114.701 105.231 114.701L104.083 114.641C100.056 114.429 98.0742 114.638 97.4679 114.732L97.374 114.746L97.2846 114.778C96.6456 115.005 94.6075 115.783 90.264 117.965C84.0872 121.008 81.851 122.058 79.6508 122.677C76.6157 123.521 73.5249 123.507 70.9499 122.842L70.4753 122.719L70.0877 123.019C66.2798 125.968 61.8671 128.328 56.9313 130.046C54.1237 131.02 51.4843 131.578 48.9397 131.732L48.8014 131.74L48.6706 131.786C46.402 132.577 43.9238 132.99 41.3399 132.99C40.6785 132.99 39.9859 132.961 39.2818 132.903L39.241 132.9H39.1999H39.1997H39.1995H39.1992H39.199H39.1988H39.1985H39.1983H39.1981H39.1978H39.1976H39.1974H39.1971H39.1969H39.1967H39.1964H39.1962H39.196H39.1957H39.1955H39.1953H39.1951H39.1948H39.1946H39.1944H39.1941H39.1939H39.1937H39.1934H39.1932H39.193H39.1928H39.1925H39.1923H39.1921H39.1919H39.1916H39.1914H39.1912H39.1909H39.1907H39.1905H39.1903H39.19H39.1898H39.1896H39.1894H39.1891H39.1889H39.1887H39.1885H39.1882H39.188H39.1878H39.1876H39.1874H39.1871H39.1869H39.1867H39.1865H39.1862H39.186H39.1858H39.1856H39.1854H39.1851H39.1849H39.1847H39.1845H39.1842H39.184H39.1838H39.1836H39.1834H39.1831H39.1829H39.1827H39.1825H39.1823H39.182H39.1818H39.1816H39.1814H39.1812H39.181H39.1807H39.1805H39.1803H39.1801H39.1799H39.1796H39.1794H39.1792H39.179H39.1788H39.1786H39.1783H39.1781H39.1779H39.1777H39.1775H39.1773H39.1771H39.1768H39.1766H39.1764H39.1762H39.176H39.1758H39.1755H39.1753H39.1751H39.1749H39.1747H39.1745H39.1743H39.174H39.1738H39.1736H39.1734H39.1732H39.173H39.1728H39.1726H39.1723H39.1721H39.1719H39.1717H39.1715H39.1713H39.1711H39.1709H39.1706H39.1704H39.1702H39.17H39.1698H39.1696H39.1694H39.1692H39.1689H39.1687H39.1685H39.1683H39.1681H39.1679H39.1677H39.1675H39.1673H39.167H39.1668H39.1666H39.1664H39.1662H39.166H39.1658H39.1656H39.1654H39.1652H39.165H39.1647H39.1645H39.1643H39.1641H39.1639H39.1637H39.1635H39.1633H39.1631H39.1629H39.1627H39.1624H39.1622H39.162H39.1618H39.1616H39.1614H39.1612H39.161H39.1608H39.1606H39.1604H39.1602H39.16H39.1597H39.1595H39.1593H39.1591H39.1589H39.1587H39.1585H39.1583H39.1581H39.1579H39.1577H39.1575H39.1573H39.1571H39.1568H39.1566H39.1564H39.1562H39.156H39.1558H39.1556H39.1554H39.1552H39.155H39.1548H39.1546H39.1544H39.1542H39.154H39.1538H39.1535H39.1533H39.1531H39.1529H39.1527H39.1525H39.1523H39.1521H39.1519H39.1517H39.1515H39.1513H39.1511H39.1509H39.1507H39.1505H39.1503H39.1501H39.1498H39.1496H39.1494H39.1492H39.149H39.1488H39.1486H39.1484H39.1482H39.148H39.1478H39.1476H39.1474H39.1472H39.147H39.1468H39.1466H39.1464H39.1462H39.146H39.1457H39.1455H39.1453H39.1451H39.1449H39.1447H39.1445H39.1443H39.1441H39.1439H39.1437H39.1435H39.1433H39.1431H39.1429H39.1427H39.1425H39.1423H39.1421H39.1418H39.1416H39.1414H39.1412H39.141H39.1408H39.1406H39.1404H39.1402H39.14H39.1398H39.1396H39.1394H39.1392H39.139H39.1388H39.1386H39.1384H39.1382H39.1379H39.1377H39.1375H39.1373H39.1371H39.1369H39.1367H39.1365H39.1363H39.1361H39.1359H39.1357H39.1355H39.1353H39.1351H39.1349H39.1347H39.1344C36.9754 132.705 34.8558 132.235 32.8124 131.49L32.6786 131.442L32.5364 131.432C31.1067 131.337 29.6309 131.089 28.078 130.674L28.0744 130.673C22.0734 129.094 17.6672 125.37 15.6085 120.229C14.2298 116.772 14.0306 113.042 14.9765 109.476L15.1436 108.846L14.6346 108.439C14.2934 108.166 13.9563 107.887 13.6315 107.6C13.0058 107.048 12.4478 106.434 11.9744 105.77L11.9083 105.677L11.8231 105.602C11.1076 104.968 10.4749 104.218 9.92827 103.385C8.06019 100.493 7.15207 98.8378 6.5084 97.2286C4.72011 92.7529 4.52687 88.022 5.90232 83.7249L5.92078 83.6672L5.93215 83.6077C7.32304 76.3294 12.2977 69.8719 21.376 63.9477C21.7495 63.705 22.1228 63.4871 22.5074 63.2992C22.5079 63.299 22.5083 63.2988 22.5088 63.2986L23.2068 62.9595L23.2984 62.915L23.3791 62.8531C24.0337 62.3503 24.7103 61.8998 25.4288 61.5079L25.4331 61.5055C29.5306 59.2445 33.9168 57.308 38.4929 55.7464L39.6715 55.3442L39.0243 54.2803L16.7843 17.7203L16.7839 17.7198C14.7129 14.3199 14.6478 10.0758 16.5921 6.60917C18.5348 3.14529 22.2009 1 26.1799 1H345.7C349.679 1 353.345 3.14529 355.288 6.60917C357.231 10.0748 357.158 14.3292 355.096 17.7203L332.426 54.9903L331.676 56.2229L333.093 56.4924C337.298 57.2919 341.547 58.4674 345.74 59.9803C352.664 62.4864 357.734 65.272 361.303 68.4653L361.311 68.4726C361.671 68.7873 362.007 69.1321 362.329 69.5093L362.33 69.5101L363.092 70.4002C363.093 70.4021 363.095 70.404 363.097 70.406C363.429 70.8048 363.727 71.1959 363.984 71.6033L363.988 71.6103C367.223 76.6475 367.871 82.1927 365.889 87.2555L365.887 87.2593C364.684 90.3719 362.558 93.0095 359.685 94.9284L359.603 94.9831L359.535 95.0506C359.535 95.0506 359.535 95.0506 359.535 95.0508C359.534 95.0521 359.527 95.0579 359.511 95.0726L359.507 95.0757C359.487 95.0933 359.445 95.131 359.403 95.1729L358.976 95.5994L359.155 96.1757C360.742 101.302 360.762 106.91 359.192 112.917C359.018 113.576 358.78 114.227 358.486 114.853C358.486 114.853 358.485 114.854 358.485 114.854L357.778 116.339C357.484 116.955 357.135 117.541 356.734 118.089L356.732 118.09C354.715 120.852 352.509 123.241 350.157 125.214L350.148 125.222C344.004 130.501 336.98 132.903 330.024 132.175L329.955 132.168L329.887 132.171C324.609 132.346 319.191 131.488 313.715 129.604L313.715 129.604C310.907 128.639 308.481 127.447 306.387 126.006L306.276 125.93L306.148 125.885C303.178 124.854 300.476 123.2 298.04 120.937L298.024 120.922L298.006 120.907C297.913 120.828 297.822 120.738 297.697 120.613L297.373 120.289L296.917 120.323C295.202 120.449 293.145 120.45 289.964 120.341L289.947 120.34H289.93H289.93H289.929H289.929H289.928H289.928H289.927H289.927H289.927H289.926H289.926H289.925H289.925H289.925H289.924H289.924H289.923H289.923H289.923H289.922H289.922H289.921H289.921H289.921H289.92H289.92H289.919H289.919H289.918H289.918H289.918H289.917H289.917H289.916H289.916H289.916H289.915H289.915H289.914H289.914H289.914H289.913H289.913H289.912H289.912H289.911H289.911H289.911H289.91H289.91H289.909H289.909H289.909H289.908H289.908H289.907H289.907H289.907H289.906H289.906H289.905H289.905H289.905H289.904H289.904H289.903H289.903H289.902H289.902H289.902H289.901H289.901H289.9H289.9H289.9H289.899H289.899H289.898H289.898H289.898H289.897H289.897H289.896H289.896H289.895H289.895H289.895H289.894H289.894H289.893H289.893H289.893H289.892H289.892H289.891H289.891H289.891H289.89H289.89H289.889H289.889H289.888H289.888H289.888H289.887H289.887H289.886H289.886H289.886H289.885H289.885H289.884H289.884H289.884H289.883H289.883H289.882H289.882H289.882H289.881H289.881H289.88H289.88H289.879H289.879H289.879H289.878H289.878H289.877H289.877H289.877H289.876H289.876H289.875H289.875H289.875H289.874H289.874H289.873H289.873H289.872H289.872H289.872H289.871H289.871H289.87H289.87H289.87H289.869H289.869H289.868H289.868H289.868H289.867H289.867H289.866H289.866H289.866H289.865H289.865H289.864H289.864H289.863H289.863H289.863H289.862H289.862H289.861H289.861H289.861H289.86H289.86H289.859H289.859H289.859H289.858H289.858H289.857H289.857H289.857H289.856H289.856H289.855H289.855H289.854H289.854H289.854H289.853H289.853H289.852H289.852H289.852H289.851H289.851H289.85H289.85H289.85H289.849H289.849H289.848H289.848H289.847H289.847H289.847H289.846H289.846H289.845H289.845H289.845H289.844H289.844H289.843H289.843H289.843H289.842H289.842H289.841H289.841H289.841H289.84H289.84H289.839H289.839H289.838H289.838H289.838H289.837H289.837H289.836H289.836H289.836H289.835H289.835H289.834H289.834H289.834H289.833H289.833H289.832H289.832H289.831H289.831H289.831H289.83H289.83H289.829H289.829H289.829H289.828H289.828H289.827H289.827H289.827H289.826H289.826H289.825H289.825H289.825H289.824H289.824H289.823H289.823H289.822H289.822H289.822H289.821H289.821H289.82H289.82H289.82H289.819H289.819H289.818H289.818H289.818H289.817H289.817H289.816H289.816H289.815H289.815H289.815H289.814H289.814H289.813H289.813H289.813H289.812H289.812H289.811H289.811H289.811H289.81H289.81H289.809H289.809H289.809H289.808H289.808H289.807H289.807H289.806H289.806H289.806H289.805H289.805H289.804H289.804H289.804H289.803H289.803H289.802H289.802H289.802H289.801H289.801H289.8H289.8H289.799H289.799H289.799H289.798H289.798H289.797H289.797H289.797H289.796H289.796H289.795H289.795H289.795H289.794H289.794H289.793H289.793H289.793H289.792H289.792H289.791H289.791H289.79H289.79H289.79H289.789H289.789H289.788H289.788H289.788H289.787H289.787H289.786H289.786H289.786H289.785H289.785H289.784H289.784H289.783H289.783H289.783H289.782H289.782H289.781H289.781H289.781H289.78H289.78H289.779H289.779H289.779H289.778H289.778H289.777H289.777H289.777H289.776H289.776H289.775H289.775H289.774H289.774H289.774H289.773H289.773H289.772H289.772H289.772H289.771H289.771H289.77H289.77H289.77H289.769H289.769H289.768H289.768H289.767H289.767H289.767H289.766H289.766H289.765H289.765H289.765H289.764H289.764H289.763H289.763H289.763H289.762H289.762H289.761H289.761H289.761H289.76H289.76H289.759H289.759H289.758H289.758H289.758H289.757H289.757H289.756H289.756H289.756H289.755H289.755H289.754H289.754H289.754H289.753H289.753H289.752H289.752H289.751H289.751H289.751H289.75H289.75H289.749H289.749H289.749H289.748H289.748H289.747H289.747H289.747H289.746C285.593 120.121 282.45 119.717 279.841 119.069L279.835 119.068C277.449 118.491 275.461 117.647 273.826 116.688L273.578 116.542L273.291 116.55C272.659 116.569 272.027 116.532 271.405 116.441L271.404 116.44C267.885 115.929 264.235 115.448 260.585 115.027L260.575 115.025C260.416 115.009 260.253 114.983 260.06 114.953C260.059 114.953 260.057 114.952 260.056 114.952L259.524 114.864L259.492 114.858L259.459 114.855C259.42 114.851 259.366 114.841 259.287 114.824L259.271 114.82L259.256 114.817C255.327 114.074 252.455 112.684 250.339 111.057L249.969 110.772L249.513 110.874C249.38 110.903 249.245 110.933 249.107 110.963C248.97 110.993 248.831 111.023 248.694 111.054C247.894 111.23 247.087 111.33 246.29 111.33H244.39C243.569 111.33 242.782 111.247 241.996 111.074L241.995 111.073C241.146 110.887 240.581 110.783 240.236 110.721C240.167 110.708 240.106 110.697 240.054 110.687L239.963 110.67H239.87H239.34C238.926 110.67 238.501 110.635 238.058 110.578C236.886 110.424 235.714 110.184 234.55 109.857L234.374 109.808L234.192 109.824C232.782 109.949 231.452 109.938 230.167 109.787L230.161 109.786C227.212 109.455 224.457 108.378 222.138 106.691L222.048 106.626L221.946 106.582C221.488 106.384 221.043 106.149 220.612 105.884C220.534 105.834 220.458 105.787 220.393 105.748L220.389 105.745C220.317 105.702 220.258 105.666 220.201 105.629L219.827 105.389L219.398 105.505C217.658 105.977 215.591 106.452 212.532 107.07L212.51 107.074L212.487 107.08C212.47 107.084 212.454 107.089 212.441 107.092L212.412 107.098C207.992 107.942 204.811 108.31 202.08 108.31C201.664 108.31 201.312 108.31 200.974 108.291L200.966 108.291L200.958 108.291C196.15 108.109 192.492 106.525 189.816 104.318L189.377 103.957L188.842 104.149C187.173 104.748 185.138 105.38 182.248 106.198L182.52 107.16ZM182.52 107.16C185.42 106.34 187.48 105.7 189.18 105.09M182.52 107.16L182.4 107.19C177.5 108.53 173.95 109.17 170.89 109.29C170.51 109.31 170.23 109.31 169.96 109.31C165.93 109.31 162.28 108.26 159.3 106.34C158.4 107.02 157.4 107.63 156.28 108.17C153.69 109.43 151.15 109.79 149.46 109.95C148.88 110.01 148.02 110.06 145.73 110.18C144.4 110.25 143.26 110.34 142.35 110.44C141.49 110.54 140.72 110.65 140.01 110.79C139.923 110.806 139.837 110.82 139.748 110.833C139.674 110.845 139.598 110.856 139.52 110.87L189.18 105.09M189.18 105.09C192.03 107.44 195.9 109.1 200.92 109.29C201.29 109.31 201.67 109.31 202.08 109.31C204.9 109.31 208.15 108.93 212.6 108.08C212.628 108.08 212.662 108.07 212.693 108.061C212.706 108.057 212.718 108.053 212.73 108.05C215.8 107.43 217.89 106.95 219.66 106.47L189.18 105.09Z" fill="white" stroke="#07090D" stroke-width="2"/>
</svg>
