<svg width="408" height="151" viewBox="0 0 408 151" fill="none" xmlns="http://www.w3.org/2000/svg">
<mask id="mask0_647_26152" style="mask-type:alpha" maskUnits="userSpaceOnUse" x="-1" y="4" width="406" height="147">
<mask id="path-1-inside-1_647_26152" fill="white">
<path d="M400.65 82.41C400.36 81.95 400.03 81.52 399.68 81.11L398.82 80.11C398.47 79.7 398.09 79.32 397.69 78.96C393.69 75.4 388.04 72.34 380.4 69.58C375.08 67.66 369.68 66.25 364.36 65.37L390.71 22.26C392.97 18.56 393.06 13.92 390.94 10.13C388.82 6.34 384.81 4 380.47 4H23.37C19.03 4 15.03 6.34 12.9 10.13C10.78 13.92 10.86 18.55 13.13 22.26L38.85 64.34C38.68 64.4 38.51 64.45 38.33 64.51C32.84 66.3 27.58 68.57 22.7 71.25C21.86 71.71 21.07 72.23 20.33 72.81L19.43 73.25C19 73.46 18.59 73.7 18.19 73.96C8.20001 80.45 2.57001 87.59 1.02001 95.76C-0.539989 100.53 -0.319989 105.78 1.67001 110.74C2.40001 112.55 3.43001 114.39 5.47001 117.54C6.09001 118.49 6.82001 119.33 7.66001 120.06C8.20001 120.83 8.84001 121.55 9.57001 122.18C10.15 122.69 10.76 123.17 11.39 123.63C10.08 127.8 10.21 132.23 11.85 136.31C14.13 141.98 19.03 146.05 25.6 147.77C27.38 148.24 29.08 148.52 30.72 148.61C33.06 149.47 35.47 150.02 37.95 150.24H38.05C38.82 150.31 39.59 150.34 40.33 150.34C43.23 150.34 46.02 149.87 48.6 148.95C51.49 148.79 54.47 148.17 57.64 147.08C63.36 145.1 68.46 142.34 72.82 138.87C75.81 139.77 79.44 139.87 83.05 138.87C85.51 138.18 88.07 136.97 94.84 133.65C100.06 131.04 102.33 130.22 102.86 130.04C103.36 129.96 105.59 129.66 110.46 129.91L111.74 129.97C119.42 130.36 120.81 130.43 123.36 129.95C124.32 129.77 125.25 129.47 126.12 129.07L126.54 128.93C127.36 128.65 128.15 128.29 128.9 127.85C129.87 127.27 131.01 126.46 132.16 125.35C133.95 125.92 135.83 126.21 137.75 126.21C138.65 126.21 139.55 126.15 140.37 126.03C141.89 125.82 143.39 125.44 144.95 124.87C146.4 124.91 147.82 124.84 149.21 124.67C149.31 124.66 149.42 124.64 149.52 124.63L149.85 124.58C150.02 124.55 150.18 124.53 150.35 124.49C151.17 124.33 152.08 124.2 153.07 124.09C154.13 123.97 155.43 123.87 156.94 123.79C159.47 123.66 160.43 123.6 161.05 123.54C162.83 123.37 165.48 123 168.17 121.7C169.68 120.98 170.99 120.12 172.13 119.16C175.12 121.36 179.09 122.83 184.11 122.83C184.39 122.83 184.67 122.83 184.97 122.82C185.02 122.82 185.06 122.82 185.11 122.82C188.41 122.69 192.28 121.99 197.64 120.53C197.68 120.52 197.72 120.51 197.75 120.5C201.43 119.46 203.88 118.69 205.91 117.93C208.93 120.64 213.17 122.6 218.79 122.81C219.19 122.83 219.59 122.84 220.02 122.84C223.08 122.84 226.62 122.43 231.5 121.5C231.54 121.5 231.59 121.48 231.63 121.47C235.41 120.71 237.83 120.15 239.89 119.56C240.22 119.77 240.55 119.98 240.89 120.19C241.41 120.51 241.95 120.79 242.5 121.02C245.08 122.91 248.15 124.12 251.45 124.49C252.95 124.66 254.49 124.67 256.13 124.5C257.51 124.89 258.89 125.18 260.27 125.37C260.73 125.43 261.2 125.46 261.67 125.47H262.36C262.72 125.53 263.43 125.66 264.69 125.93C265.54 126.12 266.38 126.19 267.28 126.2H269.4C270.27 126.2 271.15 126.09 272 125.9C272.54 125.78 273.08 125.66 273.62 125.54C276.02 127.53 279.35 129.21 283.95 130.08C284.04 130.1 284.14 130.11 284.23 130.13L284.83 130.23C285.02 130.26 285.21 130.29 285.39 130.31C289.48 130.78 293.55 131.31 297.5 131.88C298.32 132 299.15 132.03 299.97 131.98C301.86 133.14 304.16 134.13 306.97 134.81C309.9 135.53 313.41 135.97 318 136.21C318.07 136.21 318.15 136.21 318.22 136.21C321.92 136.34 324.27 136.33 326.27 136.17C326.32 136.17 326.37 136.17 326.42 136.16C326.48 136.16 326.54 136.15 326.6 136.14C326.87 136.42 327.15 136.69 327.44 136.96C330.18 139.49 333.23 141.33 336.58 142.46C338.95 144.11 341.68 145.45 344.85 146.53C350.95 148.62 357.02 149.58 362.9 149.36C370.59 150.19 378.46 147.52 385.25 141.71C387.87 139.53 390.33 136.87 392.56 133.82C393 133.22 393.38 132.58 393.7 131.91L394.49 130.26C394.81 129.58 395.07 128.87 395.27 128.14C397.09 121.22 396.99 114.74 394.98 108.83C395.27 108.57 395.56 108.31 395.84 108.06C399.04 105.95 401.41 103.04 402.76 99.59C404.97 93.99 404.22 87.87 400.65 82.36V82.41Z"/>
</mask>
<path d="M400.65 82.41C400.36 81.95 400.03 81.52 399.68 81.11L398.82 80.11C398.47 79.7 398.09 79.32 397.69 78.96C393.69 75.4 388.04 72.34 380.4 69.58C375.08 67.66 369.68 66.25 364.36 65.37L390.71 22.26C392.97 18.56 393.06 13.92 390.94 10.13C388.82 6.34 384.81 4 380.47 4H23.37C19.03 4 15.03 6.34 12.9 10.13C10.78 13.92 10.86 18.55 13.13 22.26L38.85 64.34C38.68 64.4 38.51 64.45 38.33 64.51C32.84 66.3 27.58 68.57 22.7 71.25C21.86 71.71 21.07 72.23 20.33 72.81L19.43 73.25C19 73.46 18.59 73.7 18.19 73.96C8.20001 80.45 2.57001 87.59 1.02001 95.76C-0.539989 100.53 -0.319989 105.78 1.67001 110.74C2.40001 112.55 3.43001 114.39 5.47001 117.54C6.09001 118.49 6.82001 119.33 7.66001 120.06C8.20001 120.83 8.84001 121.55 9.57001 122.18C10.15 122.69 10.76 123.17 11.39 123.63C10.08 127.8 10.21 132.23 11.85 136.31C14.13 141.98 19.03 146.05 25.6 147.77C27.38 148.24 29.08 148.52 30.72 148.61C33.06 149.47 35.47 150.02 37.95 150.24H38.05C38.82 150.31 39.59 150.34 40.33 150.34C43.23 150.34 46.02 149.87 48.6 148.95C51.49 148.79 54.47 148.17 57.64 147.08C63.36 145.1 68.46 142.34 72.82 138.87C75.81 139.77 79.44 139.87 83.05 138.87C85.51 138.18 88.07 136.97 94.84 133.65C100.06 131.04 102.33 130.22 102.86 130.04C103.36 129.96 105.59 129.66 110.46 129.91L111.74 129.97C119.42 130.36 120.81 130.43 123.36 129.95C124.32 129.77 125.25 129.47 126.12 129.07L126.54 128.93C127.36 128.65 128.15 128.29 128.9 127.85C129.87 127.27 131.01 126.46 132.16 125.35C133.95 125.92 135.83 126.21 137.75 126.21C138.65 126.21 139.55 126.15 140.37 126.03C141.89 125.82 143.39 125.44 144.95 124.87C146.4 124.91 147.82 124.84 149.21 124.67C149.31 124.66 149.42 124.64 149.52 124.63L149.85 124.58C150.02 124.55 150.18 124.53 150.35 124.49C151.17 124.33 152.08 124.2 153.07 124.09C154.13 123.97 155.43 123.87 156.94 123.79C159.47 123.66 160.43 123.6 161.05 123.54C162.83 123.37 165.48 123 168.17 121.7C169.68 120.98 170.99 120.12 172.13 119.16C175.12 121.36 179.09 122.83 184.11 122.83C184.39 122.83 184.67 122.83 184.97 122.82C185.02 122.82 185.06 122.82 185.11 122.82C188.41 122.69 192.28 121.99 197.64 120.53C197.68 120.52 197.72 120.51 197.75 120.5C201.43 119.46 203.88 118.69 205.91 117.93C208.93 120.64 213.17 122.6 218.79 122.81C219.19 122.83 219.59 122.84 220.02 122.84C223.08 122.84 226.62 122.43 231.5 121.5C231.54 121.5 231.59 121.48 231.63 121.47C235.41 120.71 237.83 120.15 239.89 119.56C240.22 119.77 240.55 119.98 240.89 120.19C241.41 120.51 241.95 120.79 242.5 121.02C245.08 122.91 248.15 124.12 251.45 124.49C252.95 124.66 254.49 124.67 256.13 124.5C257.51 124.89 258.89 125.18 260.27 125.37C260.73 125.43 261.2 125.46 261.67 125.47H262.36C262.72 125.53 263.43 125.66 264.69 125.93C265.54 126.12 266.38 126.19 267.28 126.2H269.4C270.27 126.2 271.15 126.09 272 125.9C272.54 125.78 273.08 125.66 273.62 125.54C276.02 127.53 279.35 129.21 283.95 130.08C284.04 130.1 284.14 130.11 284.23 130.13L284.83 130.23C285.02 130.26 285.21 130.29 285.39 130.31C289.48 130.78 293.55 131.31 297.5 131.88C298.32 132 299.15 132.03 299.97 131.98C301.86 133.14 304.16 134.13 306.97 134.81C309.9 135.53 313.41 135.97 318 136.21C318.07 136.21 318.15 136.21 318.22 136.21C321.92 136.34 324.27 136.33 326.27 136.17C326.32 136.17 326.37 136.17 326.42 136.16C326.48 136.16 326.54 136.15 326.6 136.14C326.87 136.42 327.15 136.69 327.44 136.96C330.18 139.49 333.23 141.33 336.58 142.46C338.95 144.11 341.68 145.45 344.85 146.53C350.95 148.62 357.02 149.58 362.9 149.36C370.59 150.19 378.46 147.52 385.25 141.71C387.87 139.53 390.33 136.87 392.56 133.82C393 133.22 393.38 132.58 393.7 131.91L394.49 130.26C394.81 129.58 395.07 128.87 395.27 128.14C397.09 121.22 396.99 114.74 394.98 108.83C395.27 108.57 395.56 108.31 395.84 108.06C399.04 105.95 401.41 103.04 402.76 99.59C404.97 93.99 404.22 87.87 400.65 82.36V82.41Z" fill="white" stroke="#07090D" stroke-width="4" mask="url(#path-1-inside-1_647_26152)"/>
</mask>
<g mask="url(#mask0_647_26152)">
<path d="M1.98804 -95L-388.012 295" stroke="black" stroke-width="1.5"/>
<path d="M6.98804 -95L-383.012 295" stroke="black" stroke-width="1.5"/>
<path d="M11.988 -95L-378.012 295" stroke="black" stroke-width="1.5"/>
<path d="M16.988 -95L-373.012 295" stroke="black" stroke-width="1.5"/>
<path d="M21.988 -95L-368.012 295" stroke="black" stroke-width="1.5"/>
<path d="M26.988 -95L-363.012 295" stroke="black" stroke-width="1.5"/>
<path d="M31.988 -95L-358.012 295" stroke="black" stroke-width="1.5"/>
<path d="M36.988 -95L-353.012 295" stroke="black" stroke-width="1.5"/>
<path d="M41.988 -95L-348.012 295" stroke="black" stroke-width="1.5"/>
<path d="M46.988 -95L-343.012 295" stroke="black" stroke-width="1.5"/>
<path d="M51.988 -95L-338.012 295" stroke="black" stroke-width="1.5"/>
<path d="M56.988 -95L-333.012 295" stroke="black" stroke-width="1.5"/>
<path d="M61.988 -95L-328.012 295" stroke="black" stroke-width="1.5"/>
<path d="M66.988 -95L-323.012 295" stroke="black" stroke-width="1.5"/>
<path d="M71.988 -95L-318.012 295" stroke="black" stroke-width="1.5"/>
<path d="M76.988 -95L-313.012 295" stroke="black" stroke-width="1.5"/>
<path d="M81.988 -95L-308.012 295" stroke="black" stroke-width="1.5"/>
<path d="M86.988 -95L-303.012 295" stroke="black" stroke-width="1.5"/>
<path d="M91.988 -95L-298.012 295" stroke="black" stroke-width="1.5"/>
<path d="M96.988 -95L-293.012 295" stroke="black" stroke-width="1.5"/>
<path d="M101.988 -95L-288.012 295" stroke="black" stroke-width="1.5"/>
<path d="M106.988 -95L-283.012 295" stroke="black" stroke-width="1.5"/>
<path d="M111.988 -95L-278.012 295" stroke="black" stroke-width="1.5"/>
<path d="M116.988 -95L-273.012 295" stroke="black" stroke-width="1.5"/>
<path d="M121.988 -95L-268.012 295" stroke="black" stroke-width="1.5"/>
<path d="M126.988 -95L-263.012 295" stroke="black" stroke-width="1.5"/>
<path d="M131.988 -95L-258.012 295" stroke="black" stroke-width="1.5"/>
<path d="M136.988 -95L-253.012 295" stroke="black" stroke-width="1.5"/>
<path d="M141.988 -95L-248.012 295" stroke="black" stroke-width="1.5"/>
<path d="M146.988 -95L-243.012 295" stroke="black" stroke-width="1.5"/>
<path d="M151.988 -95L-238.012 295" stroke="black" stroke-width="1.5"/>
<path d="M156.988 -95L-233.012 295" stroke="black" stroke-width="1.5"/>
<path d="M161.988 -95L-228.012 295" stroke="black" stroke-width="1.5"/>
<path d="M166.988 -95L-223.012 295" stroke="black" stroke-width="1.5"/>
<path d="M171.988 -95L-218.012 295" stroke="black" stroke-width="1.5"/>
<path d="M176.988 -95L-213.012 295" stroke="black" stroke-width="1.5"/>
<path d="M181.988 -95L-208.012 295" stroke="black" stroke-width="1.5"/>
<path d="M186.988 -95L-203.012 295" stroke="black" stroke-width="1.5"/>
<path d="M191.988 -95L-198.012 295" stroke="black" stroke-width="1.5"/>
<path d="M196.988 -95L-193.012 295" stroke="black" stroke-width="1.5"/>
<path d="M201.988 -95L-188.012 295" stroke="black" stroke-width="1.5"/>
<path d="M206.988 -95L-183.012 295" stroke="black" stroke-width="1.5"/>
<path d="M211.988 -95L-178.012 295" stroke="black" stroke-width="1.5"/>
<path d="M216.988 -95L-173.012 295" stroke="black" stroke-width="1.5"/>
<path d="M221.988 -95L-168.012 295" stroke="black" stroke-width="1.5"/>
<path d="M226.988 -95L-163.012 295" stroke="black" stroke-width="1.5"/>
<path d="M231.988 -95L-158.012 295" stroke="black" stroke-width="1.5"/>
<path d="M236.988 -95L-153.012 295" stroke="black" stroke-width="1.5"/>
<path d="M241.988 -95L-148.012 295" stroke="black" stroke-width="1.5"/>
<path d="M246.988 -95L-143.012 295" stroke="black" stroke-width="1.5"/>
<path d="M251.988 -95L-138.012 295" stroke="black" stroke-width="1.5"/>
<path d="M256.988 -95L-133.012 295" stroke="black" stroke-width="1.5"/>
<path d="M261.988 -95L-128.012 295" stroke="black" stroke-width="1.5"/>
<path d="M266.988 -95L-123.012 295" stroke="black" stroke-width="1.5"/>
<path d="M271.988 -95L-118.012 295" stroke="black" stroke-width="1.5"/>
<path d="M276.988 -95L-113.012 295" stroke="black" stroke-width="1.5"/>
<path d="M281.988 -95L-108.012 295" stroke="black" stroke-width="1.5"/>
<path d="M286.988 -95L-103.012 295" stroke="black" stroke-width="1.5"/>
<path d="M291.988 -95L-98.012 295" stroke="black" stroke-width="1.5"/>
<path d="M296.988 -95L-93.012 295" stroke="black" stroke-width="1.5"/>
<path d="M301.988 -95L-88.012 295" stroke="black" stroke-width="1.5"/>
<path d="M306.988 -95L-83.012 295" stroke="black" stroke-width="1.5"/>
<path d="M311.988 -95L-78.012 295" stroke="black" stroke-width="1.5"/>
<path d="M316.988 -95L-73.012 295" stroke="black" stroke-width="1.5"/>
<path d="M321.988 -95L-68.012 295" stroke="black" stroke-width="1.5"/>
<path d="M326.988 -95L-63.012 295" stroke="black" stroke-width="1.5"/>
<path d="M331.988 -95L-58.012 295" stroke="black" stroke-width="1.5"/>
<path d="M336.988 -95L-53.012 295" stroke="black" stroke-width="1.5"/>
<path d="M341.988 -95L-48.012 295" stroke="black" stroke-width="1.5"/>
<path d="M346.988 -95L-43.012 295" stroke="black" stroke-width="1.5"/>
<path d="M351.988 -95L-38.012 295" stroke="black" stroke-width="1.5"/>
<path d="M356.988 -95L-33.012 295" stroke="black" stroke-width="1.5"/>
<path d="M361.988 -95L-28.012 295" stroke="black" stroke-width="1.5"/>
<path d="M366.988 -95L-23.012 295" stroke="black" stroke-width="1.5"/>
<path d="M371.988 -95L-18.012 295" stroke="black" stroke-width="1.5"/>
<path d="M376.988 -95L-13.012 295" stroke="black" stroke-width="1.5"/>
<path d="M381.988 -95L-8.01196 295" stroke="black" stroke-width="1.5"/>
<path d="M386.988 -95L-3.01196 295" stroke="black" stroke-width="1.5"/>
<path d="M391.988 -95L1.98804 295" stroke="black" stroke-width="1.5"/>
<path d="M396.988 -95L6.98804 295" stroke="black" stroke-width="1.5"/>
<path d="M401.988 -95L11.988 295" stroke="black" stroke-width="1.5"/>
<path d="M406.988 -95L16.988 295" stroke="black" stroke-width="1.5"/>
<path d="M411.988 -95L21.988 295" stroke="black" stroke-width="1.5"/>
<path d="M416.988 -95L26.988 295" stroke="black" stroke-width="1.5"/>
<path d="M421.988 -95L31.988 295" stroke="black" stroke-width="1.5"/>
<path d="M426.988 -95L36.988 295" stroke="black" stroke-width="1.5"/>
<path d="M431.988 -95L41.988 295" stroke="black" stroke-width="1.5"/>
<path d="M436.988 -95L46.988 295" stroke="black" stroke-width="1.5"/>
<path d="M441.988 -95L51.988 295" stroke="black" stroke-width="1.5"/>
<path d="M446.988 -95L56.988 295" stroke="black" stroke-width="1.5"/>
<path d="M451.988 -95L61.988 295" stroke="black" stroke-width="1.5"/>
<path d="M456.988 -95L66.988 295" stroke="black" stroke-width="1.5"/>
<path d="M461.988 -95L71.988 295" stroke="black" stroke-width="1.5"/>
<path d="M466.988 -95L76.988 295" stroke="black" stroke-width="1.5"/>
<path d="M471.988 -95L81.988 295" stroke="black" stroke-width="1.5"/>
<path d="M476.988 -95L86.988 295" stroke="black" stroke-width="1.5"/>
<path d="M481.988 -95L91.988 295" stroke="black" stroke-width="1.5"/>
<path d="M486.988 -95L96.988 295" stroke="black" stroke-width="1.5"/>
<path d="M491.988 -95L101.988 295" stroke="black" stroke-width="1.5"/>
<path d="M496.988 -95L106.988 295" stroke="black" stroke-width="1.5"/>
<path d="M501.988 -95L111.988 295" stroke="black" stroke-width="1.5"/>
<path d="M506.988 -95L116.988 295" stroke="black" stroke-width="1.5"/>
<path d="M511.988 -95L121.988 295" stroke="black" stroke-width="1.5"/>
<path d="M516.988 -95L126.988 295" stroke="black" stroke-width="1.5"/>
<path d="M521.988 -95L131.988 295" stroke="black" stroke-width="1.5"/>
<path d="M526.988 -95L136.988 295" stroke="black" stroke-width="1.5"/>
<path d="M531.988 -95L141.988 295" stroke="black" stroke-width="1.5"/>
<path d="M536.988 -95L146.988 295" stroke="black" stroke-width="1.5"/>
<path d="M541.988 -95L151.988 295" stroke="black" stroke-width="1.5"/>
<path d="M546.988 -95L156.988 295" stroke="black" stroke-width="1.5"/>
<path d="M551.988 -95L161.988 295" stroke="black" stroke-width="1.5"/>
<path d="M556.988 -95L166.988 295" stroke="black" stroke-width="1.5"/>
<path d="M561.988 -95L171.988 295" stroke="black" stroke-width="1.5"/>
<path d="M566.988 -95L176.988 295" stroke="black" stroke-width="1.5"/>
<path d="M571.988 -95L181.988 295" stroke="black" stroke-width="1.5"/>
<path d="M576.988 -95L186.988 295" stroke="black" stroke-width="1.5"/>
<path d="M581.988 -95L191.988 295" stroke="black" stroke-width="1.5"/>
<path d="M586.988 -95L196.988 295" stroke="black" stroke-width="1.5"/>
<path d="M591.988 -95L201.988 295" stroke="black" stroke-width="1.5"/>
<path d="M596.988 -95L206.988 295" stroke="black" stroke-width="1.5"/>
<path d="M601.988 -95L211.988 295" stroke="black" stroke-width="1.5"/>
<path d="M606.988 -95L216.988 295" stroke="black" stroke-width="1.5"/>
<path d="M611.988 -95L221.988 295" stroke="black" stroke-width="1.5"/>
<path d="M616.988 -95L226.988 295" stroke="black" stroke-width="1.5"/>
<path d="M621.988 -95L231.988 295" stroke="black" stroke-width="1.5"/>
<path d="M626.988 -95L236.988 295" stroke="black" stroke-width="1.5"/>
<path d="M631.988 -95L241.988 295" stroke="black" stroke-width="1.5"/>
<path d="M636.988 -95L246.988 295" stroke="black" stroke-width="1.5"/>
<path d="M641.988 -95L251.988 295" stroke="black" stroke-width="1.5"/>
<path d="M646.988 -95L256.988 295" stroke="black" stroke-width="1.5"/>
<path d="M651.988 -95L261.988 295" stroke="black" stroke-width="1.5"/>
<path d="M656.988 -95L266.988 295" stroke="black" stroke-width="1.5"/>
<path d="M661.988 -95L271.988 295" stroke="black" stroke-width="1.5"/>
<path d="M666.988 -95L276.988 295" stroke="black" stroke-width="1.5"/>
<path d="M671.988 -95L281.988 295" stroke="black" stroke-width="1.5"/>
<path d="M676.988 -95L286.988 295" stroke="black" stroke-width="1.5"/>
<path d="M681.988 -95L291.988 295" stroke="black" stroke-width="1.5"/>
<path d="M686.988 -95L296.988 295" stroke="black" stroke-width="1.5"/>
<path d="M691.988 -95L301.988 295" stroke="black" stroke-width="1.5"/>
<path d="M696.988 -95L306.988 295" stroke="black" stroke-width="1.5"/>
<path d="M701.988 -95L311.988 295" stroke="black" stroke-width="1.5"/>
<path d="M706.988 -95L316.988 295" stroke="black" stroke-width="1.5"/>
<path d="M711.988 -95L321.988 295" stroke="black" stroke-width="1.5"/>
<path d="M716.988 -95L326.988 295" stroke="black" stroke-width="1.5"/>
<path d="M721.988 -95L331.988 295" stroke="black" stroke-width="1.5"/>
<path d="M726.988 -95L336.988 295" stroke="black" stroke-width="1.5"/>
<path d="M731.988 -95L341.988 295" stroke="black" stroke-width="1.5"/>
<path d="M736.988 -95L346.988 295" stroke="black" stroke-width="1.5"/>
<path d="M741.988 -95L351.988 295" stroke="black" stroke-width="1.5"/>
<path d="M746.988 -95L356.988 295" stroke="black" stroke-width="1.5"/>
<path d="M751.988 -95L361.988 295" stroke="black" stroke-width="1.5"/>
<path d="M756.988 -95L366.988 295" stroke="black" stroke-width="1.5"/>
<path d="M761.988 -95L371.988 295" stroke="black" stroke-width="1.5"/>
<path d="M766.988 -95L376.988 295" stroke="black" stroke-width="1.5"/>
<path d="M771.988 -95L381.988 295" stroke="black" stroke-width="1.5"/>
<path d="M776.988 -95L386.988 295" stroke="black" stroke-width="1.5"/>
<path d="M781.988 -95L391.988 295" stroke="black" stroke-width="1.5"/>
<path d="M786.988 -95L396.988 295" stroke="black" stroke-width="1.5"/>
<path d="M791.988 -95L401.988 295" stroke="black" stroke-width="1.5"/>
</g>
</svg>
