<svg width="369" height="138" viewBox="0 0 369 138" fill="none" xmlns="http://www.w3.org/2000/svg">
<path d="M182.52 107.16L182.277 106.19L182.277 106.19L182.277 106.19L182.276 106.19L182.275 106.19L182.275 106.191L182.274 106.191L182.273 106.191L182.272 106.191L182.271 106.192L182.271 106.192L182.27 106.192L182.27 106.192L182.27 106.192L182.269 106.192L182.269 106.192L182.268 106.192L182.267 106.192L182.266 106.193L182.265 106.193L182.265 106.193L182.265 106.193L182.264 106.193L182.263 106.193L182.263 106.193L182.263 106.193L182.263 106.194L182.262 106.194L182.262 106.194L182.262 106.194L182.261 106.194L182.261 106.194L182.261 106.194L182.26 106.194L182.26 106.194L182.259 106.194L182.259 106.195L182.258 106.195L182.258 106.195L182.258 106.195L182.258 106.195L182.257 106.195L182.256 106.195L182.255 106.195L182.255 106.195L182.255 106.196L182.254 106.196L182.254 106.196L182.253 106.196L182.253 106.196L182.252 106.196L182.251 106.196L182.25 106.197L182.249 106.197L182.248 106.197L182.248 106.197L182.247 106.197L182.247 106.197L182.247 106.198L182.246 106.198L182.245 106.198L182.245 106.198L182.244 106.198L182.243 106.199L182.242 106.199L182.241 106.199L182.24 106.199L182.24 106.199L182.24 106.199L182.239 106.199L182.239 106.199L182.239 106.199L182.238 106.2L182.238 106.2L182.238 106.2L182.237 106.2L182.236 106.2L182.235 106.2L182.234 106.201L182.233 106.201L182.233 106.201L182.233 106.201L182.232 106.201L182.232 106.201L182.232 106.201L182.232 106.201L182.231 106.201L182.231 106.201L182.231 106.201L182.23 106.202L182.23 106.202L182.229 106.202L182.229 106.202L182.228 106.202L182.227 106.203L182.226 106.203L182.226 106.203L182.225 106.203L182.225 106.203L182.225 106.203L182.224 106.203L182.224 106.203L182.224 106.203L182.224 106.203L182.223 106.203L182.223 106.203L182.223 106.203L182.222 106.204L182.221 106.204L182.221 106.204L182.221 106.204L182.22 106.204L182.22 106.204L182.22 106.204L182.219 106.204L182.218 106.205L182.218 106.205L182.218 106.205L182.218 106.205L182.217 106.205L182.217 106.205L182.217 106.205L182.216 106.205L182.215 106.205L182.215 106.206L182.214 106.206L182.213 106.206L182.212 106.206L182.211 106.207L182.211 106.207L182.21 106.207L182.21 106.207L182.21 106.207L182.209 106.207L182.209 106.207L182.208 106.207L182.207 106.207L182.206 106.208L182.205 106.208L182.205 106.208L182.205 106.208L182.204 106.208L182.204 106.208L182.203 106.208L182.203 106.208L182.203 106.208L182.203 106.209L182.202 106.209L182.202 106.209L182.202 106.209L182.202 106.209L182.201 106.209L182.201 106.209L182.201 106.209L182.201 106.209L182.2 106.209L182.199 106.209L182.199 106.21L182.198 106.21L182.198 106.21L182.198 106.21L182.198 106.21L182.197 106.21L182.196 106.21L182.196 106.21L182.196 106.21L182.195 106.21L182.195 106.21L182.195 106.211L182.194 106.211L182.194 106.211L182.193 106.211L182.193 106.211L182.193 106.211L182.193 106.211L182.192 106.211L182.191 106.211L182.19 106.212L182.189 106.212L182.188 106.212L182.188 106.212L182.187 106.212L182.187 106.212L182.187 106.212L182.187 106.213L182.186 106.213L182.186 106.213L182.185 106.213L182.184 106.213L182.183 106.214L182.182 106.214L182.181 106.214L182.18 106.214L182.18 106.214L182.18 106.214L182.18 106.214L182.179 106.214L182.179 106.214L182.178 106.215L182.178 106.215L182.178 106.215L182.177 106.215L182.176 106.215L182.175 106.215L182.174 106.216L182.173 106.216L182.173 106.216L182.173 106.216L182.172 106.216L182.172 106.216L182.172 106.216L182.171 106.216L182.171 106.216L182.171 106.216L182.171 106.217L182.17 106.217L182.169 106.217L182.169 106.217L182.168 106.217L182.167 106.218L182.166 106.218L182.166 106.218L182.165 106.218L182.165 106.218L182.165 106.218L182.165 106.218L182.164 106.218L182.164 106.218L182.164 106.218L182.164 106.218L182.163 106.218L182.163 106.218L182.163 106.218L182.163 106.219L182.162 106.219L182.162 106.219L182.161 106.219L182.16 106.219L182.16 106.219L182.16 106.219L182.159 106.219L182.159 106.219L182.158 106.22L182.158 106.22L182.158 106.22L182.158 106.22L182.157 106.22L182.147 106.223L182.136 106.225C177.271 107.556 173.803 108.175 170.851 108.291L170.837 108.291C170.485 108.31 170.228 108.31 169.96 108.31C166.105 108.31 162.646 107.306 159.842 105.499L159.254 105.121L158.697 105.542C157.852 106.18 156.909 106.756 155.846 107.269L155.842 107.271C153.412 108.453 151.011 108.799 149.366 108.954L149.357 108.955C148.809 109.012 147.98 109.061 145.678 109.181C144.334 109.252 143.174 109.343 142.241 109.446L142.234 109.447C141.363 109.548 140.566 109.661 139.822 109.808C139.761 109.819 139.697 109.829 139.617 109.842C139.545 109.853 139.458 109.866 139.368 109.881L139.106 109.916C139.031 109.924 138.963 109.934 138.919 109.94C138.888 109.944 138.866 109.948 138.848 109.95C138.833 109.952 138.821 109.953 138.809 109.954L138.794 109.955L138.779 109.957C137.598 110.101 136.394 110.159 135.166 110.14L134.986 110.137L134.817 110.197C133.485 110.667 132.19 110.989 130.884 111.169L130.877 111.17C130.17 111.273 129.338 111.33 128.5 111.33C126.998 111.33 125.516 111.132 124.104 110.745L123.584 110.603L123.179 110.959C122.309 111.725 121.469 112.311 120.734 112.753L120.73 112.756C120.062 113.162 119.33 113.493 118.57 113.752C118.569 113.753 118.568 113.753 118.567 113.754L118.274 113.851L118.224 113.868L118.177 113.889C117.389 114.246 116.555 114.512 115.694 114.678C113.408 115.11 112.124 115.053 105.232 114.701C105.232 114.701 105.231 114.701 105.231 114.701L104.083 114.641C100.056 114.429 98.0742 114.638 97.4679 114.732L97.374 114.746L97.2846 114.778C96.6456 115.005 94.6075 115.783 90.264 117.965C84.0872 121.008 81.851 122.058 79.6508 122.677C76.6157 123.521 73.5249 123.507 70.9499 122.842L70.4753 122.719L70.0877 123.019C66.2798 125.968 61.8671 128.328 56.9313 130.046C54.1237 131.02 51.4843 131.578 48.9397 131.732L48.8014 131.74L48.6706 131.786C46.402 132.577 43.9238 132.99 41.3399 132.99C40.6785 132.99 39.9859 132.961 39.2818 132.903L39.241 132.9H39.1999H39.1997H39.1995H39.1992H39.199H39.1988H39.1985H39.1983H39.1981H39.1978H39.1976H39.1974H39.1971H39.1969H39.1967H39.1964H39.1962H39.196H39.1957H39.1955H39.1953H39.1951H39.1948H39.1946H39.1944H39.1941H39.1939H39.1937H39.1934H39.1932H39.193H39.1928H39.1925H39.1923H39.1921H39.1919H39.1916H39.1914H39.1912H39.1909H39.1907H39.1905H39.1903H39.19H39.1898H39.1896H39.1894H39.1891H39.1889H39.1887H39.1885H39.1882H39.188H39.1878H39.1876H39.1874H39.1871H39.1869H39.1867H39.1865H39.1862H39.186H39.1858H39.1856H39.1854H39.1851H39.1849H39.1847H39.1845H39.1842H39.184H39.1838H39.1836H39.1834H39.1831H39.1829H39.1827H39.1825H39.1823H39.182H39.1818H39.1816H39.1814H39.1812H39.181H39.1807H39.1805H39.1803H39.1801H39.1799H39.1796H39.1794H39.1792H39.179H39.1788H39.1786H39.1783H39.1781H39.1779H39.1777H39.1775H39.1773H39.1771H39.1768H39.1766H39.1764H39.1762H39.176H39.1758H39.1755H39.1753H39.1751H39.1749H39.1747H39.1745H39.1743H39.174H39.1738H39.1736H39.1734H39.1732H39.173H39.1728H39.1726H39.1723H39.1721H39.1719H39.1717H39.1715H39.1713H39.1711H39.1709H39.1706H39.1704H39.1702H39.17H39.1698H39.1696H39.1694H39.1692H39.1689H39.1687H39.1685H39.1683H39.1681H39.1679H39.1677H39.1675H39.1673H39.167H39.1668H39.1666H39.1664H39.1662H39.166H39.1658H39.1656H39.1654H39.1652H39.165H39.1647H39.1645H39.1643H39.1641H39.1639H39.1637H39.1635H39.1633H39.1631H39.1629H39.1627H39.1624H39.1622H39.162H39.1618H39.1616H39.1614H39.1612H39.161H39.1608H39.1606H39.1604H39.1602H39.16H39.1597H39.1595H39.1593H39.1591H39.1589H39.1587H39.1585H39.1583H39.1581H39.1579H39.1577H39.1575H39.1573H39.1571H39.1568H39.1566H39.1564H39.1562H39.156H39.1558H39.1556H39.1554H39.1552H39.155H39.1548H39.1546H39.1544H39.1542H39.154H39.1538H39.1535H39.1533H39.1531H39.1529H39.1527H39.1525H39.1523H39.1521H39.1519H39.1517H39.1515H39.1513H39.1511H39.1509H39.1507H39.1505H39.1503H39.1501H39.1498H39.1496H39.1494H39.1492H39.149H39.1488H39.1486H39.1484H39.1482H39.148H39.1478H39.1476H39.1474H39.1472H39.147H39.1468H39.1466H39.1464H39.1462H39.146H39.1457H39.1455H39.1453H39.1451H39.1449H39.1447H39.1445H39.1443H39.1441H39.1439H39.1437H39.1435H39.1433H39.1431H39.1429H39.1427H39.1425H39.1423H39.1421H39.1418H39.1416H39.1414H39.1412H39.141H39.1408H39.1406H39.1404H39.1402H39.14H39.1398H39.1396H39.1394H39.1392H39.139H39.1388H39.1386H39.1384H39.1382H39.1379H39.1377H39.1375H39.1373H39.1371H39.1369H39.1367H39.1365H39.1363H39.1361H39.1359H39.1357H39.1355H39.1353H39.1351H39.1349H39.1347H39.1344C36.9754 132.705 34.8558 132.235 32.8124 131.49L32.6786 131.442L32.5364 131.432C31.1067 131.337 29.6309 131.089 28.078 130.674L28.0744 130.673C22.0734 129.094 17.6672 125.37 15.6085 120.229C14.2298 116.772 14.0306 113.042 14.9765 109.476L15.1436 108.846L14.6346 108.439C14.2934 108.166 13.9563 107.887 13.6315 107.6C13.0058 107.048 12.4478 106.434 11.9744 105.77L11.9083 105.677L11.8231 105.602C11.1076 104.968 10.4749 104.218 9.92827 103.385C8.06019 100.493 7.15207 98.8378 6.5084 97.2286C4.72011 92.7529 4.52687 88.022 5.90232 83.7249L5.92078 83.6672L5.93215 83.6077C7.32304 76.3294 12.2977 69.8719 21.376 63.9477C21.7495 63.705 22.1228 63.4871 22.5074 63.2992C22.5079 63.299 22.5083 63.2988 22.5088 63.2986L23.2068 62.9595L23.2984 62.915L23.3791 62.8531C24.0337 62.3503 24.7103 61.8998 25.4288 61.5079L25.4331 61.5055C29.5306 59.2445 33.9168 57.308 38.4929 55.7464L39.6715 55.3442L39.0243 54.2803L16.7843 17.7203L16.7839 17.7198C14.7129 14.3199 14.6478 10.0758 16.5921 6.60917C18.5348 3.14529 22.2009 1 26.1799 1H345.7C349.679 1 353.345 3.14529 355.288 6.60917C357.231 10.0748 357.158 14.3292 355.096 17.7203L332.426 54.9903L331.676 56.2229L333.093 56.4924C337.298 57.2919 341.547 58.4674 345.74 59.9803C352.664 62.4864 357.734 65.272 361.303 68.4653L361.311 68.4726C361.671 68.7873 362.007 69.1321 362.329 69.5093L362.33 69.5101L363.092 70.4002C363.093 70.4021 363.095 70.404 363.097 70.406C363.429 70.8048 363.727 71.1959 363.984 71.6033L363.988 71.6103C367.223 76.6475 367.871 82.1927 365.889 87.2555L365.887 87.2593C364.684 90.3719 362.558 93.0095 359.685 94.9284L359.603 94.9831L359.535 95.0506C359.535 95.0506 359.535 95.0506 359.535 95.0508C359.534 95.0521 359.527 95.0579 359.511 95.0726L359.507 95.0757C359.487 95.0933 359.445 95.131 359.403 95.1729L358.976 95.5994L359.155 96.1757C360.742 101.302 360.762 106.91 359.192 112.917C359.018 113.576 358.78 114.227 358.486 114.853C358.486 114.853 358.485 114.854 358.485 114.854L357.778 116.339C357.484 116.955 357.135 117.541 356.734 118.089L356.732 118.09C354.715 120.852 352.509 123.241 350.157 125.214L350.148 125.222C344.004 130.501 336.98 132.903 330.024 132.175L329.955 132.168L329.887 132.171C324.609 132.346 319.191 131.488 313.715 129.604L313.715 129.604C310.907 128.639 308.481 127.447 306.387 126.006L306.276 125.93L306.148 125.885C303.178 124.854 300.476 123.2 298.04 120.937L298.024 120.922L298.006 120.907C297.913 120.828 297.822 120.738 297.697 120.613L297.373 120.289L296.917 120.323C295.202 120.449 293.145 120.45 289.964 120.341L289.947 120.34H289.93H289.93H289.929H289.929H289.928H289.928H289.927H289.927H289.927H289.926H289.926H289.925H289.925H289.925H289.924H289.924H289.923H289.923H289.923H289.922H289.922H289.921H289.921H289.921H289.92H289.92H289.919H289.919H289.918H289.918H289.918H289.917H289.917H289.916H289.916H289.916H289.915H289.915H289.914H289.914H289.914H289.913H289.913H289.912H289.912H289.911H289.911H289.911H289.91H289.91H289.909H289.909H289.909H289.908H289.908H289.907H289.907H289.907H289.906H289.906H289.905H289.905H289.905H289.904H289.904H289.903H289.903H289.902H289.902H289.902H289.901H289.901H289.9H289.9H289.9H289.899H289.899H289.898H289.898H289.898H289.897H289.897H289.896H289.896H289.895H289.895H289.895H289.894H289.894H289.893H289.893H289.893H289.892H289.892H289.891H289.891H289.891H289.89H289.89H289.889H289.889H289.888H289.888H289.888H289.887H289.887H289.886H289.886H289.886H289.885H289.885H289.884H289.884H289.884H289.883H289.883H289.882H289.882H289.882H289.881H289.881H289.88H289.88H289.879H289.879H289.879H289.878H289.878H289.877H289.877H289.877H289.876H289.876H289.875H289.875H289.875H289.874H289.874H289.873H289.873H289.872H289.872H289.872H289.871H289.871H289.87H289.87H289.87H289.869H289.869H289.868H289.868H289.868H289.867H289.867H289.866H289.866H289.866H289.865H289.865H289.864H289.864H289.863H289.863H289.863H289.862H289.862H289.861H289.861H289.861H289.86H289.86H289.859H289.859H289.859H289.858H289.858H289.857H289.857H289.857H289.856H289.856H289.855H289.855H289.854H289.854H289.854H289.853H289.853H289.852H289.852H289.852H289.851H289.851H289.85H289.85H289.85H289.849H289.849H289.848H289.848H289.847H289.847H289.847H289.846H289.846H289.845H289.845H289.845H289.844H289.844H289.843H289.843H289.843H289.842H289.842H289.841H289.841H289.841H289.84H289.84H289.839H289.839H289.838H289.838H289.838H289.837H289.837H289.836H289.836H289.836H289.835H289.835H289.834H289.834H289.834H289.833H289.833H289.832H289.832H289.831H289.831H289.831H289.83H289.83H289.829H289.829H289.829H289.828H289.828H289.827H289.827H289.827H289.826H289.826H289.825H289.825H289.825H289.824H289.824H289.823H289.823H289.822H289.822H289.822H289.821H289.821H289.82H289.82H289.82H289.819H289.819H289.818H289.818H289.818H289.817H289.817H289.816H289.816H289.815H289.815H289.815H289.814H289.814H289.813H289.813H289.813H289.812H289.812H289.811H289.811H289.811H289.81H289.81H289.809H289.809H289.809H289.808H289.808H289.807H289.807H289.806H289.806H289.806H289.805H289.805H289.804H289.804H289.804H289.803H289.803H289.802H289.802H289.802H289.801H289.801H289.8H289.8H289.799H289.799H289.799H289.798H289.798H289.797H289.797H289.797H289.796H289.796H289.795H289.795H289.795H289.794H289.794H289.793H289.793H289.793H289.792H289.792H289.791H289.791H289.79H289.79H289.79H289.789H289.789H289.788H289.788H289.788H289.787H289.787H289.786H289.786H289.786H289.785H289.785H289.784H289.784H289.783H289.783H289.783H289.782H289.782H289.781H289.781H289.781H289.78H289.78H289.779H289.779H289.779H289.778H289.778H289.777H289.777H289.777H289.776H289.776H289.775H289.775H289.774H289.774H289.774H289.773H289.773H289.772H289.772H289.772H289.771H289.771H289.77H289.77H289.77H289.769H289.769H289.768H289.768H289.767H289.767H289.767H289.766H289.766H289.765H289.765H289.765H289.764H289.764H289.763H289.763H289.763H289.762H289.762H289.761H289.761H289.761H289.76H289.76H289.759H289.759H289.758H289.758H289.758H289.757H289.757H289.756H289.756H289.756H289.755H289.755H289.754H289.754H289.754H289.753H289.753H289.752H289.752H289.751H289.751H289.751H289.75H289.75H289.749H289.749H289.749H289.748H289.748H289.747H289.747H289.747H289.746C285.593 120.121 282.45 119.717 279.841 119.069L279.835 119.068C277.449 118.491 275.461 117.647 273.826 116.688L273.578 116.542L273.291 116.55C272.659 116.569 272.027 116.532 271.405 116.441L271.404 116.44C267.885 115.929 264.235 115.448 260.585 115.027L260.575 115.025C260.416 115.009 260.253 114.983 260.06 114.953C260.059 114.953 260.057 114.952 260.056 114.952L259.524 114.864L259.492 114.858L259.459 114.855C259.42 114.851 259.366 114.841 259.287 114.824L259.271 114.82L259.256 114.817C255.327 114.074 252.455 112.684 250.339 111.057L249.969 110.772L249.513 110.874C249.38 110.903 249.245 110.933 249.107 110.963C248.97 110.993 248.831 111.023 248.694 111.054C247.894 111.23 247.087 111.33 246.29 111.33H244.39C243.569 111.33 242.782 111.247 241.996 111.074L241.995 111.073C241.146 110.887 240.581 110.783 240.236 110.721C240.167 110.708 240.106 110.697 240.054 110.687L239.963 110.67H239.87H239.34C238.926 110.67 238.501 110.635 238.058 110.578C236.886 110.424 235.714 110.184 234.55 109.857L234.374 109.808L234.192 109.824C232.782 109.949 231.452 109.938 230.167 109.787L230.161 109.786C227.212 109.455 224.457 108.378 222.138 106.691L222.048 106.626L221.946 106.582C221.488 106.384 221.043 106.149 220.612 105.884C220.534 105.834 220.458 105.787 220.393 105.748L220.389 105.745C220.317 105.702 220.258 105.666 220.201 105.629L219.827 105.389L219.398 105.505C217.658 105.977 215.591 106.452 212.532 107.07L212.51 107.074L212.487 107.08C212.47 107.084 212.454 107.089 212.441 107.092L212.412 107.098C207.992 107.942 204.811 108.31 202.08 108.31C201.664 108.31 201.312 108.31 200.974 108.291L200.966 108.291L200.958 108.291C196.15 108.109 192.492 106.525 189.816 104.318L189.377 103.957L188.842 104.149C187.173 104.748 185.138 105.38 182.248 106.198L182.52 107.16ZM182.52 107.16C185.42 106.34 187.48 105.7 189.18 105.09M182.52 107.16L182.4 107.19C177.5 108.53 173.95 109.17 170.89 109.29C170.51 109.31 170.23 109.31 169.96 109.31C165.93 109.31 162.28 108.26 159.3 106.34C158.4 107.02 157.4 107.63 156.28 108.17C153.69 109.43 151.15 109.79 149.46 109.95C148.88 110.01 148.02 110.06 145.73 110.18C144.4 110.25 143.26 110.34 142.35 110.44C141.49 110.54 140.72 110.65 140.01 110.79C139.923 110.806 139.837 110.82 139.748 110.833C139.674 110.845 139.598 110.856 139.52 110.87L189.18 105.09M189.18 105.09C192.03 107.44 195.9 109.1 200.92 109.29C201.29 109.31 201.67 109.31 202.08 109.31C204.9 109.31 208.15 108.93 212.6 108.08C212.628 108.08 212.662 108.07 212.693 108.061C212.706 108.057 212.718 108.053 212.73 108.05C215.8 107.43 217.89 106.95 219.66 106.47L189.18 105.09Z" fill="white" stroke="#07090D" stroke-width="2"/>
<path d="M319.464 50.8177H52.316L30.044 14.211H341.745L319.464 50.8177Z" fill="#CC232A"/>
<path d="M320.699 53.0197H51.0901L26.1247 12H345.664L320.699 53.0197ZM53.5509 48.6067H318.238L337.826 16.4129H33.9633L53.5509 48.6067Z" fill="#07090D"/>
<path d="M50.7591 26.0208C51.7881 27.7644 52.2982 28.6362 53.3272 30.3888H57.3807C58.2756 31.9526 58.714 32.7346 59.6088 34.2894H55.6269C57.6223 37.6688 58.6156 39.3674 60.611 42.7468H56.4322C51.4392 34.5411 48.9426 30.4427 43.9495 22.237H53.184C54.0431 23.7469 54.4726 24.5019 55.3316 26.0208H50.7591ZM77.3441 37.516C77.9258 38.6844 78.3195 39.6101 78.2032 40.6527C77.9884 42.5311 75.9124 43.0794 73.8275 43.0794C70.3825 43.0794 66.7226 41.4526 64.7093 37.8216C61.2374 31.5841 59.5015 28.4654 56.0296 22.237H60.611C63.5371 27.6835 65.0046 30.4067 67.9307 35.8533C68.7539 37.3902 69.765 39.3854 71.9484 39.3854C74.1317 39.3854 73.1027 37.5699 72.3063 36.033C69.4518 30.5146 68.0201 27.7464 65.1567 22.228H69.7382C72.7806 28.3396 74.3018 31.3954 77.3441 37.507V37.516ZM83.2321 42.7468C79.277 34.5411 77.2905 30.4427 73.3354 22.237H77.9168C81.004 28.9058 82.543 32.2402 85.6302 38.9001H90.0774C90.7575 40.437 91.0975 41.2099 91.7776 42.7468H83.2321ZM93.6477 42.7468C90.0953 34.5411 88.3146 30.4427 84.7532 22.237H89.3347C92.0908 28.9058 93.4777 32.2402 96.2338 38.9001H100.681C101.289 40.437 101.585 41.2099 102.193 42.7468H93.6477ZM107.446 33.9838C108.69 37.489 109.307 39.2416 110.551 42.7468H106.372C105.066 39.2416 104.403 37.489 103.097 33.9838C99.2314 29.2833 97.2449 26.9375 93.1556 22.237H98.1845C99.5356 24.0165 100.207 24.9153 101.531 26.6948C102.14 27.5217 103.061 28.8159 103.661 29.7417C103.491 28.1688 103.535 27.6206 103.527 26.6679C103.518 24.8973 103.518 24.0075 103.527 22.237H108.663C108.063 26.9375 107.822 29.2833 107.446 33.9838ZM124.107 22.237C125.566 22.237 126.72 22.2639 128.161 22.911C130.577 23.9896 132.08 26.2005 132.581 28.3216C133.592 32.6267 130.81 34.622 126.389 34.3164C127.293 37.6868 127.749 39.3674 128.653 42.7378H124.474C122.103 34.5321 120.922 30.4337 118.551 22.228H124.107V22.237ZM125.736 30.9101C127.74 30.9101 128.644 30.2629 128.143 28.2946C127.731 26.6679 126.828 25.5264 124.805 25.5264H124.018C124.6 27.6745 124.886 28.753 125.467 30.9101H125.736ZM146.129 42.7468C143.945 38.972 142.818 37.0846 140.5 33.3098C141.27 37.0846 141.655 38.972 142.433 42.7468H138.254C136.42 34.5411 135.498 30.4427 133.664 22.237H138.63C140.33 22.237 142.236 22.3628 143.838 23.2166C145.86 24.2951 147.086 26.2904 147.408 28.1958C147.802 30.5326 147.077 32.1953 145.153 33.4266C147.373 37.1565 148.446 39.0169 150.531 42.7468H146.129ZM140.035 31.0628C140.277 31.0898 140.545 31.0898 140.778 31.0898C142.684 31.0898 143.391 29.8944 143.078 28.2317C142.764 26.569 141.726 25.4366 139.74 25.4366H138.881C139.337 27.6835 139.57 28.8159 140.026 31.0628H140.035ZM153.216 42.7468C151.954 34.5411 151.328 30.4427 150.066 22.237H159.265C159.435 23.7649 159.524 24.5198 159.703 26.0477H155.166C155.408 27.8183 155.524 28.7081 155.757 30.4786H159.676C159.855 32.0245 159.945 32.8065 160.124 34.3523H156.276C156.527 36.1948 156.643 37.1205 156.893 38.963H161.242C161.412 40.4729 161.502 41.2279 161.672 42.7468H153.225H153.216ZM167.273 22.237C168.49 22.237 170.548 22.2999 172.222 23.684C173.519 24.7625 174.262 26.4522 174.342 28.1149C174.396 29.1305 174.208 30.1461 173.457 31.0359C173.108 31.4313 172.571 31.9257 171.765 32.2312C173.224 32.7256 173.967 33.6423 174.253 34.0467C174.933 35.0264 175.112 36.1678 175.157 36.9408C175.228 38.4777 174.879 39.8618 173.761 40.9942C172.222 42.5671 170.128 42.7468 168.893 42.7468H164.464C163.64 34.5411 163.22 30.4427 162.397 22.237H167.291H167.273ZM167.649 30.6584C168.347 30.6314 169.135 30.3528 169.537 29.9484C170.137 29.3642 170.146 28.5014 170.11 28.043C170.074 27.5487 169.958 26.7847 169.26 26.2005C168.857 25.859 168.222 25.5894 167.229 25.5894C167.39 27.6206 167.479 28.6362 167.64 30.6584H167.649ZM168.347 39.2416C169.018 39.2416 169.779 39.0259 170.235 38.5945C170.656 38.1901 170.96 37.489 170.906 36.5992C170.835 35.6196 170.432 34.8646 169.904 34.4512C169.358 34.0198 168.535 33.8041 167.909 33.8041C168.088 35.9791 168.177 37.0666 168.347 39.2506V39.2416ZM190.843 37.516C190.816 38.6844 190.727 39.6101 190.064 40.6527C188.874 42.5311 186.512 43.0794 184.427 43.0794C180.982 43.0794 178.172 41.4526 178.038 37.8216C177.814 31.5841 177.698 28.4654 177.474 22.237H182.056C182.145 27.6835 182.19 30.4067 182.279 35.8533C182.306 37.3902 182.279 39.3854 184.463 39.3854C186.646 39.3854 186.557 37.5699 186.566 36.033C186.584 30.5146 186.593 27.7464 186.61 22.228H191.192C191.049 28.3396 190.986 31.3954 190.843 37.507V37.516ZM194.011 42.7468C194.324 34.5411 194.485 30.4427 194.798 22.237H199.379C198.905 30.4427 198.664 34.5411 198.189 42.7468H194.011ZM201.482 42.7468C202.082 34.5411 202.386 30.4427 202.986 22.237H207.567C206.95 28.9058 206.636 32.2402 206.019 38.9001H210.466C210.296 40.437 210.207 41.2099 210.028 42.7468H201.482ZM219.584 25.9938C218.6 32.6986 218.108 36.051 217.124 42.7468H212.945C213.795 36.042 214.225 32.6896 215.075 25.9938H211.558C211.728 24.4929 211.809 23.7469 211.979 22.2459H223.71C223.468 23.7469 223.343 24.4929 223.101 25.9938H219.584ZM245.266 42.7468H241.624C241.704 39.9157 241.758 37.0576 241.713 34.2265C241.686 32.2312 242.062 30.2 242.465 28.1688C241.722 30.3528 240.81 32.5368 239.727 34.6849C238.116 37.9114 237.32 39.5202 235.763 42.7378H232.121C232.192 34.5321 232.148 30.4337 231.897 22.228H236.586C236.55 25.832 236.523 27.6296 236.434 31.2336C236.389 32.9233 236.219 34.6759 235.825 36.4015C236.398 34.7388 237.042 33.0851 237.785 31.4493C239.467 27.7554 240.326 25.9129 242.071 22.228H245.677C245.561 26.3443 245.489 28.4115 245.293 32.5278C245.212 33.8221 245.096 35.1073 244.881 36.4015C245.418 34.4063 246.152 32.402 247.091 30.4337C248.63 27.1532 249.409 25.5085 250.993 22.228H255.78C251.404 30.4337 249.301 34.5321 245.266 42.7378V42.7468ZM251.368 42.7468C253.892 34.5411 255.154 30.4427 257.677 22.237H266.876C266.348 23.7649 266.079 24.5198 265.551 26.0477H261.015C260.433 27.8183 260.147 28.7081 259.565 30.4786H263.484C262.947 32.0245 262.679 32.8065 262.151 34.3523H258.303C257.695 36.1948 257.399 37.1205 256.791 38.963H261.14C260.612 40.4729 260.352 41.2279 259.824 42.7468H251.377H251.368ZM274.893 22.237C276.11 22.237 278.141 22.3089 279.17 23.684C279.976 24.7625 279.931 26.4522 279.251 28.1149C278.83 29.1305 278.177 30.1461 277.014 31.0359C276.486 31.4313 275.725 31.9257 274.768 32.2312C276.003 32.7256 276.316 33.6423 276.414 34.0467C276.638 35.0264 276.298 36.1678 275.976 36.9408C275.341 38.4777 274.347 39.8618 272.71 40.9942C270.446 42.5671 268.263 42.7468 267.028 42.7468H262.598C265.56 34.5411 267.037 30.4427 269.999 22.237H274.893ZM271.377 30.6584C272.092 30.6314 272.996 30.3528 273.587 29.9484C274.455 29.3642 274.857 28.5014 275.036 28.043C275.233 27.5487 275.466 26.7847 275.036 26.2005C274.795 25.859 274.285 25.5894 273.291 25.5894C272.522 27.6206 272.137 28.6362 271.359 30.6584H271.377ZM268.11 39.2416C268.782 39.2416 269.641 39.0259 270.294 38.5945C270.902 38.1901 271.538 37.489 271.887 36.5992C272.271 35.6196 272.209 34.8556 271.887 34.4512C271.547 34.0198 270.822 33.8041 270.195 33.8041C269.363 35.9791 268.952 37.0666 268.128 39.2506L268.11 39.2416ZM292.467 26.8836C291.877 26.1736 291.098 25.5624 289.837 25.5624C288.503 25.5624 287.224 26.3623 286.696 27.5577C285.13 31.0898 291.832 31.0359 289.139 36.752C287.465 40.2842 283.967 43.0883 280.146 43.0883C278.848 43.0883 277.739 42.7468 276.96 42.0458C277.622 40.4999 277.953 39.718 278.616 38.1721C279.323 38.7832 280.101 39.2776 281.291 39.2776C282.741 39.2776 284.19 38.4148 284.835 37.0037C285.005 36.6352 285.094 36.2937 285.076 35.9611C285.031 35.1882 284.119 34.5141 283.6 34.0557C281.837 32.4559 280.844 30.982 282.105 27.9981C283.474 24.7715 286.785 21.9404 290.714 21.9404C292.28 21.9404 293.282 22.2459 294.32 22.92C293.577 24.5108 293.21 25.3018 292.467 26.8836ZM288.736 42.7468C292.7 34.5411 294.687 30.4427 298.651 22.237H303.232C299.107 30.4427 297.04 34.5411 292.915 42.7468H288.736ZM311.142 25.9938C307.482 32.6986 305.657 36.051 301.997 42.7468H297.818C301.344 36.042 303.107 32.6896 306.632 25.9938H303.116C303.885 24.4929 304.27 23.7469 305.031 22.2459H316.762C315.921 23.7469 315.5 24.4929 314.659 25.9938H311.142ZM306.901 42.7468C311.572 34.5411 313.898 30.4427 318.569 22.237H327.768C326.837 23.7649 326.372 24.5198 325.45 26.0477H320.914C319.876 27.8183 319.348 28.7081 318.31 30.4786H322.229C321.29 32.0245 320.824 32.8065 319.885 34.3523H316.037C314.954 36.1948 314.408 37.1205 313.326 38.963H317.674C316.753 40.4729 316.296 41.2279 315.375 42.7468H306.928H306.901Z" fill="white"/>
<path d="M354.711 77.547L353.941 76.6483C351.436 74.4103 347.409 72.2803 341.96 70.303C337.709 68.7661 333.396 67.6426 329.164 66.9596C328.457 66.8427 327.795 66.8877 327.151 67.0584C326.891 66.9236 326.623 66.8068 326.336 66.7169L325.253 66.4832C319.58 66.0069 315.187 66.5371 311.956 68.074C312.1 67.7325 312.18 67.5617 312.216 67.5168C312.189 67.5617 312.028 67.8493 311.697 68.1909C311.616 68.2268 311.536 68.2628 311.464 68.3077L312.592 66.8697C312.753 66.5012 312.86 66.1776 312.941 65.899C313.335 64.4969 313.173 63.0589 312.493 61.8456C312.001 60.9648 310.999 59.7964 309.066 59.2481C308.198 59.0055 307.205 58.9426 305.827 59.0324C305.433 59.0594 305.236 59.0414 305.254 59.0504C305.138 59.0145 304.798 58.8976 304.198 58.5561C302.999 57.882 302.221 57.5315 301.487 57.3338C300.646 57.1181 299.796 57.0641 298.973 57.181C296.718 56.7945 294.561 56.3541 292.557 55.8778L291.716 55.7609C291.098 55.734 289.622 55.8149 288.262 56.9024L286.409 56.3541L285.658 55.4374L283.081 53.9095C280.011 53.3253 277.014 52.7501 274.088 52.1749C272.379 51.8423 270.67 51.5098 268.96 51.1952L268.379 51.1233C264.844 51.0154 262.733 53.2893 262.312 55.6621C262.285 55.8059 262.267 55.9766 262.258 56.1384C261.981 55.707 261.686 55.3115 261.346 54.97C261.023 54.5746 260.281 53.5679 259.073 51.9412C257.596 49.9459 255.529 48.5888 253.077 47.9866C251.637 47.3844 249.677 46.9261 247.127 46.5845C240.836 45.7397 235.807 45.9284 232.166 47.1238C228.926 47.681 225.732 49.7032 222.645 53.1365C222.85 51.9771 222.958 51.5817 222.985 51.4828C222.967 51.5547 222.761 52.2018 222.135 52.8759L223.217 50.7997C223.307 50.4043 223.352 50.0538 223.369 49.7572C223.584 46.7193 221.401 44.2477 218.242 44.0141C217.374 43.9601 216.408 44.086 215.092 44.4275C214.726 44.5264 214.529 44.5443 214.52 44.5533C214.448 44.5533 214.144 44.4994 213.473 44.2747C212.148 43.8343 211.289 43.6366 210.529 43.6006C209.625 43.5467 208.784 43.6815 207.988 43.9781C205.706 44.023 203.522 44.032 201.473 43.9871L200.972 44.0051C200.355 44.068 199.379 44.3106 198.449 44.9937C195.532 44.2747 192.606 43.5737 189.492 42.8636C186.396 42.2974 182.772 42.4772 179.828 43.6096C179.622 43.6905 178.745 43.9691 176.177 44.2118C173.635 44.5264 171.935 45.1105 170.692 46.0812C170.575 46.1351 170.28 46.243 169.689 46.3778C169.197 46.4857 168.669 46.6654 168.15 46.944L168.07 46.8452C162.423 48.0226 158.2 48.6966 155.157 48.9033C153.654 49.0022 152.903 48.9393 152.607 48.9033C152.061 48.6787 151.489 48.5708 150.898 48.5259C150.495 47.3215 149.824 46.5126 149.243 46.0183C148.151 45.1016 146.71 44.6612 145.252 44.805C144.688 44.8589 144.115 44.9847 143.534 45.1914C139.113 45.1735 134.863 45.3802 130.881 45.8565C124.134 46.6744 119.696 48.0315 117.056 50.0807C113.683 51.6985 110.828 55.1048 108.573 60.2098L108.699 60.6322L107.911 60.9918C107.249 63.0949 106.909 65.5215 106.9 68.3077C106.22 67.8583 105.477 67.5438 104.681 67.4359C104.654 66.3933 104.573 64.9014 104.403 62.6994C104.251 60.7131 104.171 59.4459 104.144 58.8976C104.242 57.927 104.207 57.0462 104.045 56.2283C103.643 54.1431 102.524 53.0017 101.656 52.4175C100.466 51.6176 98.9897 51.33 97.5401 51.6176C96.7169 51.7794 95.9026 52.103 94.9899 52.6602C94.6051 52.822 93.2629 53.2624 88.6188 54.269L87.1602 54.5925C83.2767 55.4194 79.948 56.1114 78.4537 56.3182L77.1383 57.199L75.3934 57.0462C71.3041 58.1067 67.1611 59.2481 62.9912 60.4435C61.2016 61.0097 60.6468 61.2164 60.3783 61.3423C59.6446 61.6568 58.4634 62.4028 57.7744 63.9038C57.6312 63.8408 57.5149 63.7689 57.3628 63.715L56.1816 63.4723C52.835 63.2387 48.3788 64.0476 42.9025 65.8451C38.6164 67.2562 34.527 69.0267 30.742 71.1119C30.1156 71.4534 29.6234 71.9028 29.2297 72.433C28.9255 72.487 28.6302 72.5679 28.3349 72.6757L27.3953 73.1431C20.7289 77.4931 17.1855 81.8521 16.6217 86.4178C15.7627 88.4491 15.7895 90.7858 16.7291 93.1316C16.9886 93.7787 17.4628 94.7494 19.172 97.3918L20.8542 97.6075L20.9079 99.3331C22.2949 100.555 24.0487 101.535 26.2947 102.344C27.458 102.757 28.6481 103.063 29.8829 103.261C29.7219 103.611 29.4803 104.106 29.1671 104.753L29.2297 104.861C28.9702 105.193 28.7644 105.553 28.6033 105.948C27.8785 107.395 27.1716 108.851 26.4647 110.298C24.9077 112.851 25.382 115.026 25.8205 116.122C26.581 118.027 28.2991 119.34 30.912 120.032C32.4332 120.436 33.7217 120.553 34.8671 120.4C36.5583 121.263 38.339 121.775 40.1823 121.946C40.576 121.982 40.9697 122 41.3545 122C42.7504 122 44.0479 121.784 45.2291 121.344C45.5154 121.236 45.8196 121.11 46.1328 120.957L46.276 120.733C48.3788 120.93 50.6964 120.571 53.3272 119.663C57.8102 118.108 61.6758 115.897 64.8435 113.093C66.7047 112.069 68.2438 110.631 69.4518 108.797C69.6755 109.318 69.8366 109.615 69.9976 109.867L70.6419 109.588L70.8388 110.055C71.0893 110.496 72.3242 112.347 74.9281 112.347C75.456 112.347 76.0377 112.275 76.6909 112.096C77.9168 111.754 79.9122 110.81 85.3259 108.15C90.9632 105.319 93.4866 104.438 94.3725 104.177C94.5067 104.133 94.6588 104.097 94.8288 104.061C96.0279 103.791 98.8913 103.378 104.645 103.674L105.79 103.728C111.875 104.034 112.68 104.07 113.665 103.881V103.818L115.079 103.342C117.378 101.958 117.915 99.423 117.879 97.0143C119.642 97.8232 121.673 98.5602 123.955 99.2702L124.823 98.9826C125.799 99.8544 127.096 100.34 128.51 100.34C128.805 100.34 129.1 100.322 129.405 100.277C130.094 100.178 130.827 99.9802 131.633 99.6477L132.42 98.8388C132.545 98.8568 132.689 98.8837 132.832 98.9017C134.442 99.1713 135.999 99.2163 137.458 99.0365L137.753 98.9916C138.773 98.7939 139.856 98.6321 141.019 98.5062C142.165 98.3804 143.525 98.2726 145.118 98.1827C146.88 98.0928 147.963 98.0299 148.366 97.994C149.628 97.8771 150.442 97.6794 151.077 97.3558C154.227 95.8729 155.086 92.107 155.408 86.9571C155.632 83.9822 155.694 81.9869 155.587 80.7107C155.506 79.722 155.31 78.9401 154.97 78.257L154.665 78.4098L153.788 76.6842C152.741 75.7944 151.408 75.399 149.851 75.5428C149.574 75.5607 149.198 75.5967 146.245 76.2258C144.59 76.5853 143.104 76.828 141.843 76.9628C141.762 76.9628 141.673 76.9808 141.583 76.9988C141.252 76.9359 140.894 76.9089 140.518 76.9269C139.981 76.9359 139.48 76.9718 139.033 77.0167C137.87 77.1426 136.626 77.4841 135.23 78.0683C134.344 78.4368 133.959 78.4907 133.932 78.4997C133.843 78.5087 133.583 78.5267 133.091 78.4638H132C131.57 78.5177 130.783 78.5357 129.494 78.329C128.608 78.1762 128.313 77.9874 128.304 77.9874C128.456 78.0863 128.769 78.4638 128.823 78.8412L124.877 75.0125C126.479 75.1653 127.409 76.2887 127.588 76.7741C127.588 76.7741 127.517 76.5674 127.436 76.0371C127.4 75.7765 127.302 74.9406 127.194 72.6667C127.114 71.2826 127.024 70.2401 126.926 69.539C126.908 69.3862 126.881 69.2424 126.854 69.1166C126.926 68.9728 127.051 68.7481 127.275 68.4335C127.901 67.5707 128.286 67.346 128.152 67.4L129.888 66.4383C129.342 66.9326 128.859 67.0764 128.859 67.0764C128.984 67.0404 129.145 67.0225 129.333 66.9955C129.825 66.9326 130.443 66.8877 131.132 66.8697C132.706 66.8337 133.691 66.8697 134.263 66.9056C136.25 67.7325 138.773 67.9572 142.102 67.6246C143.346 67.4988 144.554 67.3101 145.699 67.0584L149.037 63.5892C150.844 65.8721 152.536 67.5438 154.209 68.6223C155.909 69.6918 158.012 70.1412 160.634 69.9794C161.376 69.9345 162.262 69.8356 163.327 69.6738C163.282 71.3006 163.247 72.9364 163.22 74.6081V74.8417C163.238 75.1114 163.265 75.381 163.318 75.6506L163.086 75.9922C163.005 81.4926 163.032 85.7617 163.157 88.6737C163.291 91.6666 163.515 92.7272 163.757 93.5091C164.24 94.9471 165.681 97.3109 170.003 97.3109C170.155 97.3109 170.316 97.3109 170.477 97.3109C172.553 97.23 175.336 96.6997 179.291 95.6212C182.288 94.7674 184.257 94.1562 185.787 93.572C188.114 92.6193 189.545 90.4982 189.536 88.0716C189.536 86.9481 189.241 85.7438 188.642 84.4046L188.319 83.8204C188.212 83.6586 188.114 83.5058 188.024 83.3441C187.8 82.4633 187.613 81.7173 187.478 81.1061L187.219 80.8275C187.219 80.7107 187.228 80.5938 187.228 80.486L187.246 77.0976C187.281 72.3522 187.299 69.0717 187.308 67.2741C187.774 67.4539 188.364 67.6965 189.098 68.0291C192.31 69.4761 194.243 70.0783 195.764 70.1052C195.881 70.1052 196.024 70.1052 196.185 70.1052C196.185 70.3749 196.185 70.6625 196.185 70.9321C196.149 72.0106 196.086 73.0442 195.988 74.0418L195.97 74.3474C195.97 74.617 195.97 74.8777 196.006 75.1563L195.746 75.4799C195.218 81.0971 194.905 85.3932 194.816 88.2513C194.726 91.1903 194.87 92.2598 195.084 93.1406C195.505 94.6146 196.892 97.1222 201.473 97.3019C201.679 97.3019 201.894 97.3109 202.118 97.3109C204.122 97.3109 206.762 96.9873 210.386 96.2953C213.455 95.6751 215.459 95.2168 217.097 94.7404C218.529 94.2551 219.647 93.3563 220.354 92.1789C221.991 93.6259 224.041 95.046 226.43 96.529L227.351 96.4661C228.237 97.7783 229.696 98.668 231.477 98.8658C232.166 98.9466 232.917 98.9287 233.758 98.8118L234.725 98.2186C234.841 98.2726 234.966 98.3265 235.101 98.3804C236.595 99.0455 238.089 99.4769 239.548 99.6657L240.541 99.6836C240.738 99.6836 241.024 99.7106 241.373 99.7645C242.152 99.8724 243.154 100.061 244.371 100.331H246.277C247.449 100.061 248.621 99.8005 249.802 99.5398C251.44 99.5039 253.328 99.1354 255.225 98.1378C255.207 98.5422 255.225 98.8658 255.261 99.2073C255.825 102.955 259.806 103.719 261.328 104.007L261.865 104.097C265.56 104.528 269.309 105.013 272.996 105.553L276.137 104.807C276.361 104.645 276.584 104.474 276.799 104.276C277.408 105.876 278.947 107.53 282.481 108.393C284.405 108.869 286.964 109.184 290.356 109.363C291.734 109.408 292.879 109.435 293.845 109.435C294.857 109.435 295.68 109.408 296.369 109.354C298.132 109.193 299.626 108.339 300.601 107.027C301.156 107.593 301.729 108.06 302.319 108.411C303.125 110.136 304.198 111.637 305.541 112.904C306.901 114.163 308.359 115.053 309.898 115.556C310.185 115.646 310.489 115.727 310.82 115.799L311.089 115.709C312.628 117.165 314.677 118.315 317.308 119.214C321.791 120.751 326.202 121.416 330.435 121.146C331.124 121.263 331.821 121.317 332.51 121.317C336.081 121.317 339.624 119.816 343.051 116.85C344.734 115.448 346.353 113.695 347.848 111.637L348.555 110.154C349.745 105.607 349.61 101.535 348.134 98.0299C347.767 97.1491 347.185 96.3942 346.416 95.756L346.3 94.8932C345.629 93.9944 344.859 93.1496 343.982 92.3677L346.443 92.152C348.608 90.1387 350.792 88.1435 353.002 86.1662C354.281 85.4651 355.167 84.4945 355.642 83.2811C356.331 81.5286 356.026 79.6142 354.729 77.6009L354.711 77.547ZM305.523 86.9212C305.836 87.5413 306.176 88.1794 306.579 88.8265C307.241 89.8691 307.992 90.8488 308.834 91.7745C308.494 91.9453 308.001 92.1969 307.357 92.5205V92.6463C306.954 92.7452 306.588 92.8979 306.239 93.0867C305.263 93.563 304.288 94.0394 303.321 94.5157C304.234 91.37 304.968 88.8355 305.523 86.9122V86.9212ZM242.796 80.1534C243.029 79.6501 243.476 78.9311 244.281 78.3739L242.85 80.1534C242.85 80.1534 242.814 80.1534 242.796 80.1534ZM235.53 74.6889C235.575 74.3115 235.709 73.3318 236.165 71.0579C236.425 69.6918 236.595 68.6582 236.675 67.9572C237.409 67.5887 238.071 67.382 238.599 67.373L241.409 66.3124C241.311 66.3933 241.212 66.4383 241.185 66.4473C241.185 66.4473 241.373 66.3933 241.839 66.4473C241.865 66.4473 242.393 66.5371 244.058 67.0944C244.147 68.2538 244.12 70.5636 243.494 74.9136C243.055 77.9605 242.814 79.4344 242.698 80.1534C242.581 80.1534 242.429 80.1445 242.232 80.1175C241.758 80.0546 241.534 79.9647 241.463 79.9288L238.492 81.5735L238.027 80.3062C238.653 80.4051 239.02 80.6208 239.029 80.6298C238.984 80.6028 238.563 80.3422 237.329 79.2637C236.291 78.3559 236.156 77.8796 236.174 77.8436L233.302 73.224C234.796 73.7722 235.432 75.0754 235.485 75.5877C235.485 75.5787 235.458 75.3181 235.521 74.68L235.53 74.6889ZM61.2016 79.0659C61.3716 79.6591 61.3895 79.8928 61.3895 79.9018C61.2327 78.0116 64.0997 87.3256 62.0695 82.3734C62.1143 82.4813 62.1501 82.625 62.2038 82.8048C62.2396 82.9216 62.2754 83.0924 62.3111 83.2362C62.1501 83.2182 62.0069 83.1733 61.8458 83.1733L61.2284 82.5621C60.1546 82.2566 59.0272 82.0678 57.846 81.9869L59.6714 80.2972C59.8772 79.048 60.092 77.8077 60.3068 76.5584C60.8705 78.0413 61.1031 78.7604 61.1926 79.0839L61.2016 79.0659ZM132.796 98.3355L134.058 97.0323C133.888 97.4906 133.431 98.0119 132.796 98.3355ZM187.264 66.3124V66.2765C187.299 66.2226 187.353 66.1597 187.407 66.0788L187.783 65.935C187.613 66.0878 187.434 66.2136 187.255 66.3214L187.264 66.3124ZM235.217 97.8412L236.756 96.8975C236.479 97.3019 235.906 97.6884 235.217 97.8412Z" fill="#07090D"/>
<path d="M41.3097 117.003C41.0592 117.003 40.7997 116.994 40.5402 116.967C39.1711 116.841 37.8199 116.401 36.5225 115.655L36.6388 113.219L35.5829 112.994C34.7955 115.026 34.4733 115.349 34.4196 115.394C34.2854 115.439 34.0617 115.475 33.7933 115.475C33.3548 115.475 32.8 115.385 32.1378 115.205C30.7867 114.846 30.4556 114.45 30.3661 114.244C30.205 113.848 30.3303 113.336 30.724 112.734C31.5294 111.08 32.3079 109.48 33.1042 107.889C33.1669 107.889 33.498 107.799 34.6344 107.701C35.905 107.593 36.3077 107.485 36.4956 107.422C36.7551 107.323 36.9341 107.17 37.0325 106.964L37.4352 106.173C37.4352 106.173 34.8133 106.119 33.9454 106.11C34.357 105.256 34.5539 104.825 34.6433 104.573C34.9118 104.097 35.225 103.8 35.6097 103.656C35.6992 103.62 35.7976 103.602 35.8871 103.602C36.1108 103.602 36.3703 103.701 36.6388 103.908C38.4732 105.544 40.9965 106.388 44.1016 106.388C46.1149 106.388 48.4504 106.029 51.0454 105.328C54.3025 102.874 55.5373 100.924 55.0005 99.2702C54.6336 98.1378 53.4256 97.2929 51.4122 96.7537L51.2601 96.7087L51.108 96.7626C48.522 97.5895 44.2805 98.0838 37.7931 98.2905C37.7394 97.949 37.6052 97.5805 37.4978 97.2839C36.9162 95.6931 36.0392 93.9585 34.8939 92.143C33.3995 89.8691 32.2542 88.8086 31.2788 88.8086L31.2251 89.914C31.2251 89.914 31.6188 90.2286 32.8984 92.3767C33.9364 94.1203 34.7149 95.6931 35.225 97.0682C35.6634 98.2726 35.5829 98.5692 35.5829 98.5782C35.3502 98.5602 35.1086 98.5602 34.8581 98.5602C34.4107 98.5602 33.9364 98.5782 33.4711 98.5782C31.5204 98.5782 29.6413 98.2636 27.8964 97.6434C26.5452 97.1581 25.4267 96.5829 24.5677 95.9448C25.5251 94.8842 26.4915 93.4372 27.5116 91.5318C29.0239 88.5929 29.0328 88.2873 28.9075 87.9637L28.6123 87.1818L27.9948 87.7121C27.9143 87.793 27.789 87.9457 27.5116 88.4401C26.4468 90.3005 24.9077 92.2149 22.9212 94.1293C22.0174 92.7092 21.4627 91.7565 21.2747 91.2802C20.7468 89.95 20.7736 88.8535 21.3553 87.9278L21.4358 87.793V87.6312C21.4895 84.5125 24.4514 80.9444 30.0171 77.3133C30.0261 77.3403 30.0708 77.4212 30.1245 77.565C30.2229 77.8436 30.2856 78.2481 30.3035 78.7424C30.3214 79.2727 30.3214 79.6411 30.3035 79.8568L31.3415 80.1445C31.5025 79.8119 31.7889 79.012 32.29 77.4661C32.8447 75.7405 33.0953 75.4529 33.1221 75.4259C36.5851 73.5205 40.397 71.8668 44.3879 70.5546C48.7725 69.1166 52.3339 68.3886 54.9826 68.3886C55.2689 68.3886 55.5463 68.3886 55.8058 68.4156C56.638 68.7301 56.7275 69.0087 56.7275 69.0177C56.7453 69.0717 56.7722 69.2963 56.459 69.8446C55.8595 73.0262 55.3405 76.0371 54.8573 79.048C48.5578 79.6052 43.6273 80.441 40.5939 81.4926C39.538 81.8521 38.84 82.2206 38.4553 82.6161C36.8446 83.5867 35.8066 84.4765 35.386 85.2405C34.8939 86.1033 34.867 87.1458 35.2965 88.3412L35.4576 88.7726L35.6455 88.8715C36.9788 89.5545 38.6253 89.9051 40.5402 89.9051C43.171 89.9051 46.3297 89.2849 50.2132 88.0087L51.3854 87.6312C53.184 87.1369 54.911 86.8852 56.4948 86.8852C57.3896 86.8852 58.2576 86.9661 59.0719 87.1279C58.9198 87.2896 58.7139 87.4964 58.4544 87.757L57.9355 88.476L58.6961 89.249C59.3045 88.8265 59.9667 88.503 60.6557 88.2963C61.0405 88.1794 61.3805 88.1165 61.6579 88.1165C61.8727 88.1165 62.0516 88.1525 62.1858 88.2244C64.4855 89.5276 66.3557 91.8554 67.7606 95.1449C67.7874 97.0862 67.6263 99.0545 67.2505 100.798C66.4362 104.932 64.7361 107.575 62.0427 108.878C59.1256 111.547 55.7789 113.489 51.6717 114.909C50.0521 115.475 48.5936 115.763 47.3498 115.763C46.9471 115.763 46.5713 115.736 46.2044 115.673L45.9717 115.637L45.9091 115.691C45.8375 115.367 45.757 114.783 45.6675 113.588C45.5959 112.509 45.4885 111.799 45.3364 111.368C45.2827 111.215 45.2111 111.098 45.1396 110.999L44.9785 110.792L44.6742 110.747H44.5579L44.4416 110.801C44.0747 110.936 43.9405 110.981 43.6452 116.58C43.5915 116.598 43.5468 116.625 43.4931 116.643C42.8578 116.877 42.133 116.994 41.3276 116.994L41.3097 117.003ZM53.354 96.2683C54.1056 96.4301 54.9468 96.9514 55.7521 97.7962L56.6469 97.1851L55.3226 94.2731C55.3226 94.2731 52.486 95.019 51.287 95.3336L51.5286 96.4121C52.1102 96.3043 52.656 96.2503 53.1392 96.2503H53.354V96.2683ZM332.448 116.302C331.893 116.302 331.329 116.239 330.775 116.122C329.933 116.167 329.253 116.194 328.573 116.194C325.468 116.194 322.202 115.61 318.873 114.468C316.726 113.731 315.115 112.797 314.104 111.7L313.943 111.52H313.862C314.006 111.224 314.301 110.711 314.954 109.714C315.554 108.815 315.903 108.195 316.046 107.755C316.091 107.62 316.117 107.476 316.117 107.341V106.928L315.715 106.748C315.715 106.748 315.652 106.748 315.616 106.748C315.205 106.748 314.802 107.018 311.527 110.81C311.473 110.801 311.42 110.783 311.375 110.765C310.534 110.496 309.693 109.975 308.878 109.211C307.876 108.267 307.089 107.089 306.534 105.705L308.118 103.854L307.42 103.018C305.568 104.142 305.12 104.195 305.048 104.195C304.78 104.106 304.216 103.764 303.375 102.641C302.543 101.535 302.516 101.005 302.579 100.798C302.695 100.385 303.098 100.052 303.778 99.8274C305.415 99.0185 306.999 98.2366 308.592 97.4727C308.628 97.5086 308.932 97.6344 309.898 98.2726C310.954 98.9646 311.33 99.1354 311.536 99.1983L311.616 99.2253L311.867 99.2522C312.001 99.2522 312.127 99.2253 312.243 99.1713L313.012 98.7939C313.012 98.7939 310.999 97.1491 310.328 96.6009C311.169 96.1784 311.59 95.9627 311.813 95.8189C312.127 95.6931 312.413 95.6212 312.681 95.6212C312.833 95.6212 312.986 95.6482 313.129 95.6841C313.335 95.747 313.612 95.8998 313.791 96.52C314.534 100.573 317.961 103.854 324.26 106.523L324.726 106.568C328.43 106.568 330.515 105.786 331.097 104.186C331.499 103.054 331.079 101.679 329.799 99.9892L329.701 99.8634L329.549 99.8095C326.98 98.8568 323.339 96.6278 318.122 92.7991C318.256 92.5474 318.372 92.2149 318.498 91.8194C319.017 90.2016 319.383 88.2963 319.589 86.1572C319.804 83.4429 319.545 81.897 318.784 81.3039L318.068 82.1397C318.068 82.1397 318.176 82.634 317.88 85.1146C317.63 87.1279 317.281 88.8535 316.842 90.2466C316.457 91.4689 316.207 91.6576 316.198 91.6576C313.997 90.1567 312.109 88.3322 310.749 86.1842C309.988 84.9708 309.46 83.8294 309.183 82.7958C310.57 82.5442 312.216 81.9959 314.176 81.1331C317.155 79.749 317.343 79.5063 317.442 79.1738L317.683 78.3739L316.878 78.4098C316.762 78.4188 316.583 78.4638 316.055 78.6795C314.086 79.4973 311.715 80.0546 309.004 80.3422C309.165 78.6615 309.317 77.565 309.451 77.0886C309.845 75.7045 310.534 74.8597 311.554 74.4912L311.706 74.4373L311.804 74.3115C313.397 72.3072 316.636 71.2916 321.415 71.2916C322.471 71.2916 323.616 71.3455 324.815 71.4444C324.806 71.4714 324.797 71.5612 324.743 71.705C324.654 71.9926 324.457 72.3432 324.162 72.7476C323.849 73.179 323.625 73.4756 323.482 73.6284L324.126 74.5002C324.457 74.3384 325.173 73.8801 326.506 72.9723C327.974 71.9747 328.35 71.8848 328.412 71.8758C332.305 72.5139 336.322 73.5655 340.278 74.9945C345.056 76.7291 348.644 78.5896 350.648 80.3691C351.114 81.1331 351.015 81.4027 351.015 81.4117C350.997 81.4567 350.899 81.6544 350.299 81.897C347.875 84.0271 345.611 86.0943 343.374 88.1614C338.032 84.6922 333.62 82.3105 330.587 81.2679C329.701 80.9623 329.021 80.8185 328.502 80.8185C328.394 80.8185 328.296 80.8185 328.206 80.8365C327.544 80.7466 326.846 80.7017 326.256 80.7017C325.352 80.7017 324.672 80.8006 324.189 81.0163C323.276 81.3937 322.605 82.2026 322.22 83.407L322.148 83.6137L322.166 84.0361C323.652 87.2357 327.589 89.959 334.193 92.3497L335.356 92.7721C338.094 93.9136 340.242 95.3785 341.754 97.1311C341.53 97.1581 341.244 97.194 340.877 97.239L340.161 97.4367L340.143 98.5602C340.895 98.6141 341.62 98.7669 342.282 99.0275C342.971 99.2972 343.418 99.6117 343.553 99.9263C344.582 102.38 344.644 105.373 343.732 108.842C342.559 110.388 341.226 111.844 339.857 112.976C337.262 115.214 334.837 116.302 332.439 116.302H332.448ZM330.094 99.7825C330.712 100.106 331.231 100.448 331.634 100.789C332.135 101.382 332.475 102.308 332.591 103.485L333.674 103.557L334.408 100.439C334.408 100.439 331.705 99.2702 330.56 98.7849L330.086 99.7825H330.094ZM75.1965 107.314C75.4113 106.829 75.9839 105.481 77.702 102.335L76.8161 101.697C75.0444 103.665 74.0869 104.977 73.5948 105.885C73.1832 104.762 72.5478 102.82 71.5456 99.5308C71.134 98.1647 70.7582 96.8705 70.4092 95.6302C69.577 92.6912 68.9059 90.0758 68.4227 87.8559L71.5993 85.582L70.0781 85.4741C69.6755 85.4472 69.1654 85.3124 68.5748 85.0967C67.8142 84.6742 67.68 84.3687 67.6532 84.2878C67.3937 83.0565 67.1789 82.1307 66.991 81.4656C66.7852 80.7287 66.5973 80.2164 66.3467 79.9288C66.3646 79.3895 66.2394 78.6795 65.9709 77.7358C65.7025 76.7921 65.103 75.1473 64.1813 72.8555C63.2417 70.5187 62.669 68.9548 62.4274 68.083C61.9711 66.4652 62.1679 65.9799 62.2932 65.935C62.5527 65.8181 63.2596 65.5844 64.4408 65.207C68.3959 64.0655 72.4315 62.96 76.4224 61.9265L78.4178 62.8342L79.3664 61.2164C81.1023 60.9558 84.2521 60.2907 88.1624 59.4638L89.6478 59.1403C94.3277 58.1247 96.5827 57.5045 97.4238 56.9922C97.9517 56.6597 98.2649 56.5518 98.4439 56.5159C98.4976 56.5159 98.5423 56.5159 98.587 56.5159C98.8555 56.5159 99.0613 56.6058 99.1776 57.199C99.2492 57.5764 99.2582 58.0438 99.1955 58.592V58.5741C99.1597 58.9336 99.2134 59.8863 99.455 63.0949C99.5266 64.0296 99.5892 64.8654 99.625 65.6024L98.6407 65.5036L97.4059 69.3323L97.5491 69.3593C96.699 69.4851 95.5089 69.6469 93.9966 69.8446C91.5001 70.1861 89.442 70.5277 88.0461 70.8422C86.0149 71.3096 84.601 72.0016 83.8404 72.9184C83.6704 72.7566 83.4557 72.6308 83.1962 72.5499C83.1335 72.5319 83.0888 72.5049 83.0441 72.487C83.0441 72.478 83.053 72.46 83.062 72.442C83.2051 72.1185 83.2946 71.768 83.3214 71.4174C83.3572 71.2197 83.3483 70.995 83.3035 70.7793C83.1156 69.9794 82.364 69.4581 81.0665 69.2155L79.0621 68.847L80.6102 70.1771C81.4065 70.8602 81.6392 71.3096 81.7018 71.5612C81.7018 71.5882 81.7376 71.8219 81.496 72.7386L81.4423 72.9543L82.0687 74.0958C81.8539 75.2911 81.8629 75.7585 81.9076 76.0101C81.9076 76.0101 81.8987 76.0101 81.8808 76.0101C81.8003 76.0101 81.5408 76.1989 80.8696 76.4865C80.6549 76.4865 80.3328 76.5224 80.0375 76.5224C79.5274 76.5224 79.1337 76.4505 78.8653 76.2977C78.6505 76.1989 78.4447 76.1629 78.2031 76.1629C77.9346 76.1629 77.6304 76.2079 77.2635 76.3067C76.4135 76.5224 75.5634 76.9089 74.7491 77.4392C74.3912 77.6728 73.2995 78.3919 73.4427 79.3446C73.4963 79.6322 73.55 79.9018 73.6216 80.1714C74.0959 81.96 75.2412 83.0834 77.0398 83.5148C77.1114 83.8564 77.0756 84.3327 76.7982 85.1596C76.5477 85.9595 76.2792 86.7504 75.975 87.5413L76.9682 88.0087C78.8832 84.6293 78.9547 83.5148 78.8026 82.9216C78.731 82.634 78.6058 82.4453 76.8251 81.6454C76.0197 81.2949 75.5097 80.6568 75.2591 79.6951C75.2233 79.5603 75.1965 79.4165 75.1786 79.2637C75.0981 78.5986 76.2703 78.1941 76.9772 78.0144C77.2277 77.9515 77.4514 77.9155 77.6394 77.9155C77.8452 77.9155 78.0062 77.9515 78.1315 78.0234C78.4357 78.1762 78.8026 78.2391 79.2948 78.2391C80.1627 78.2391 81.4513 78.0324 83.223 77.6009C83.4825 77.538 89.2451 76.0641 89.3525 76.0371C89.3615 76.4955 89.4241 76.9718 89.5136 77.4661H90.5963C90.8916 75.8933 91.2674 75.2642 91.5269 75.0035C91.5538 74.9855 92.0459 74.68 95.3657 73.9789C97.4954 73.5295 100.251 73.0352 103.339 72.5499C103.598 72.451 103.705 72.4151 103.795 72.3971C103.822 72.3971 103.849 72.3971 103.875 72.3971C104.063 72.3971 104.296 72.46 104.555 72.9633C104.609 73.0712 104.69 73.2509 104.752 73.5924C104.976 74.7698 104.994 76.9988 104.815 80.4231C104.645 80.7646 104.287 81.1511 103.741 81.4207C97.6028 82.8587 91.7238 84.3147 86.2028 85.6719C85.7733 85.4921 85.4064 85.2225 85.0932 84.854C84.8784 84.5484 84.789 84.3417 84.7621 84.2249C84.7263 84.09 84.9321 83.9732 85.0753 83.9372C85.4153 83.8564 85.6569 83.7126 85.7822 83.4969L85.8985 83.2991L85.8627 82.9306C85.7822 82.5801 85.5048 82.2655 84.9858 81.96L84.7353 81.8072L84.4668 81.933C83.6346 82.3374 82.7488 83.2452 83.2409 85.2764C84.3952 86.9481 85.0395 88.1614 85.2632 89.0692C85.5406 90.2376 85.4064 91.2892 84.8337 92.2598L85.7733 92.835C86.3012 92.0082 86.7128 91.2532 87.017 90.5971C91.9117 89.1052 96.6363 87.8559 101.084 86.9032C101.11 87.011 101.146 87.1548 101.191 87.3615C101.307 87.9547 101.477 88.7726 102.104 88.7726C102.533 88.6917 102.775 88.476 103.437 87.2717C103.902 86.4268 104.063 86.2651 104.081 86.2561C106.13 85.9145 107.866 85.7078 109.056 85.7078C110.247 85.7078 110.515 85.9415 110.515 85.9415C111.123 87.1998 111.768 89.7702 112.466 93.7068C113.19 97.7872 112.743 98.7579 112.537 98.9826C112.421 98.9916 112.314 98.9916 112.161 98.9916C111.231 98.9916 109.137 98.8837 105.969 98.7219L104.824 98.668C103.374 98.5961 102.032 98.5602 100.797 98.5602C97.8444 98.5602 95.4462 98.7669 93.6566 99.1803C93.3524 99.2522 93.0839 99.3241 92.8244 99.405C90.7932 100.016 87.3213 101.526 83.0441 103.674C79.2142 105.562 76.2166 107.027 75.2949 107.278C75.2502 107.287 75.2144 107.305 75.1786 107.314H75.1965ZM99.4192 94.6146C99.2045 94.6865 98.8108 94.8752 97.7996 95.5853C97.2269 95.9897 96.5558 96.2773 95.8042 96.4391L95.2673 96.5559L95.1062 97.1491C95.2136 97.6434 95.7594 97.8052 97.039 98.0209L97.1553 98.0389L97.4238 97.976C98.4707 97.7513 99.3476 96.8975 100.099 95.3696L100.699 94.1472L99.4192 94.6056V94.6146ZM293.836 104.429C292.897 104.429 291.787 104.402 290.499 104.357C287.501 104.195 285.246 103.935 283.627 103.53C281.568 103.027 281.372 102.488 281.363 102.326C281.345 102.128 281.363 101.715 281.568 100.87C281.703 100.295 281.9 99.6027 282.15 98.7849C282.964 96.2324 283.77 93.6619 284.557 91.0735L284.629 90.8218L284.19 90.1657C283.367 88.9254 282.821 88.1075 282.58 87.7211C281.738 86.292 281.166 85.0068 280.888 83.9193L280.844 83.7305L280.692 83.6137C280.289 83.3081 279.77 82.679 279.152 81.7353L278.15 82.1307C278.276 82.8857 278.123 85.0967 276.745 91.3521C275.349 97.6614 274.195 99.8724 273.417 100.582C270.616 100.178 267.788 99.8005 264.97 99.4589L264.343 98.1018C263.941 97.221 263.493 96.3672 263.001 95.5583L262.375 92.9968L262.044 91.6756L261.372 92.853C261.265 93.0417 261.113 93.4102 260.907 94.5157C260.8 95.0999 260.71 95.765 260.639 96.511C260.594 96.8795 260.567 97.1761 260.567 97.4008L260.54 97.5625L260.594 97.6524C260.621 97.7872 260.683 97.8861 260.791 97.949V97.967L260.844 97.976C260.898 98.0029 260.97 98.0119 261.05 98.0209L261.525 98.0748V98.0209C261.766 98.0029 262.017 97.967 262.312 97.9131L264.361 99.387C263.699 99.3062 263.037 99.2253 262.375 99.1534L262.16 99.1084C260.317 98.7579 260.084 98.4254 260.075 98.4074C260.075 98.3894 260.084 97.931 260.496 95.6392C261.945 87.6132 263.806 79.048 266.025 70.1592C267.359 71.2287 268.683 72.3072 269.998 73.3947L271.189 74.3744L270.884 72.8555C270.84 72.6308 270.741 72.1634 268.459 69.9165C266.437 68.0381 266.169 67.5348 266.133 67.4269C266.025 67.0944 265.963 66.5281 266.16 65.4316L266.231 65.0092C266.446 64.0476 266.553 63.724 266.589 63.6251C266.929 63.2387 267.171 62.7084 267.287 62.0433C267.421 61.3243 267.403 60.3177 267.251 58.9605C267.072 57.4147 267.09 56.7945 267.135 56.5518C267.162 56.3901 267.216 56.0845 267.958 56.0845C269.712 56.3901 271.412 56.7136 273.095 57.0462C275.967 57.6124 278.911 58.1786 281.917 58.7448L283.313 60.4525L284.486 59.6526C284.817 60.6053 284.826 61.1625 284.754 61.4591C284.7 61.6928 284.584 61.9085 284.387 62.1332L284.244 62.295L284.307 63.6072C283.537 64.6677 283.376 65.0811 283.331 65.3148C283.266 65.3508 283.552 66.2975 284.19 68.1549C284.62 69.4312 285.219 71.1838 285.971 73.4127C287.394 77.6549 288.172 80.1624 288.378 80.9084L288.351 80.9354L288.459 81.232C288.906 82.4723 289.291 83.0295 289.783 83.1463H290.212L290.606 82.652C290.66 82.4453 290.642 82.1757 290.561 81.7802C290.436 80.9983 289.819 78.4727 288.468 73.7812C288.754 73.3408 289.004 72.6757 289.228 71.759C289.416 70.9591 289.586 69.9345 289.738 68.7121C290.078 65.8631 290.445 62.8881 290.57 62.3669C290.857 61.1445 291.206 60.7131 291.447 60.7131C293.729 61.2704 296.297 61.7737 298.982 62.2141L299.134 62.241L299.277 62.1871C299.447 62.1152 299.617 62.0793 299.805 62.0793C299.93 62.0793 300.073 62.0972 300.208 62.1332C300.36 62.1691 300.753 62.3219 301.738 62.8702C302.561 63.3375 303.304 63.6611 303.957 63.8408C304.351 63.9487 304.834 64.0026 305.397 64.0026C305.621 64.0026 305.863 64.0026 306.113 63.9757C306.391 63.9577 306.641 63.9487 306.856 63.9487C307.33 63.9487 307.581 63.9936 307.706 64.0296C308.028 64.1195 308.127 64.2273 308.145 64.2722C308.18 64.3441 308.162 64.461 308.145 64.5509C308.127 64.6228 308.091 64.7037 308.064 64.7845C307.787 65.1261 307.142 66.4023 304.834 72.8914C303.232 77.3583 302.257 80.2074 301.997 81.1331C301.836 81.7083 300.512 86.283 298.033 94.8483C297.774 94.8483 297.559 94.8303 297.308 94.7943C296.807 94.7224 296.449 94.6865 296.235 94.6865C295.707 94.6865 295.528 94.9381 295.483 95.1538L295.402 95.4864L295.662 95.7111C296.235 96.2054 296.906 96.6818 297.657 97.1311C297.013 98.4793 296.619 99.414 296.467 99.9802C296.413 100.196 296.387 100.349 296.387 100.484C296.494 101.059 296.584 101.517 296.682 101.966C296.852 102.703 296.879 103.27 296.771 103.665C296.655 104.097 296.378 104.303 295.877 104.348C295.34 104.393 294.651 104.411 293.819 104.411L293.836 104.429ZM302.427 65.2159C303.572 66.9146 304.091 68.5054 303.957 69.9255L305.031 70.1412L306.078 66.8877C306.078 66.8877 304.091 65.198 303.232 64.479L302.427 65.2159ZM245.266 95.4235C243.941 95.1359 242.85 94.9292 242 94.8123C241.373 94.7314 240.872 94.6865 240.496 94.6865C240.299 94.6865 240.138 94.6955 240.004 94.7135C239.154 94.5786 238.116 94.2731 237.051 93.8057C235.306 93.0328 234.966 92.9968 234.841 92.9788L234.573 92.9609C234.098 92.9609 233.436 93.1226 232.828 93.8776C232.631 93.8956 232.461 93.9046 232.3 93.9046C232.183 93.9046 232.067 93.9046 231.969 93.8866C231.342 93.8147 231.333 93.554 231.315 93.3743C231.28 92.7811 231.253 92.1879 231.226 91.6037L231.208 91.1364L230.635 90.9386H230.609C230.269 90.9386 229.875 91.0465 228.631 92.0351C223.629 88.9074 221.159 86.5437 221.285 85.0068V84.8899L221.258 84.7821C221.132 84.4136 220.962 83.3261 220.864 80.3062C220.757 77.3673 220.819 74.4283 221.052 71.5702C221.508 65.881 222.564 61.531 224.193 58.61C225.034 59.2481 226.081 60.0211 227.325 60.9288C227.665 61.1445 227.996 61.2524 228.345 61.2883C228.443 61.2883 228.542 61.2973 228.649 61.2973C229.544 61.2973 230.537 60.9378 231.673 60.2008L233.123 61.3602L233.329 60.5244C233.374 60.3446 233.4 60.1739 233.418 60.0301C233.481 59.4459 233.365 58.4213 231.933 58.0528C231.933 58.0528 231.664 58.0258 231.655 58.0258C230.886 58.0258 230.269 58.3314 229.651 58.9246C228.944 59.5987 228.559 59.7065 228.389 59.7065C227.79 59.6526 226.922 59.2392 225.32 57.5764C228.076 54.1701 230.743 52.2917 233.257 51.9771C235.056 51.339 237.266 51.0244 239.95 51.0244C241.874 51.0244 244.058 51.1862 246.447 51.5008C248.773 51.8153 250.447 52.2108 251.44 52.6961C253.06 53.0287 254.241 53.7657 255.091 54.9071C257.068 57.5764 257.56 58.2235 257.739 58.3853C258.706 59.2931 259.78 62.3848 259.368 71.9387C259.368 72.0286 259.368 72.1095 259.35 72.2353C259.225 72.9633 258.804 74.1047 258.088 75.6327L256.97 77.4661L257.874 78.0953C258.652 77.0976 259.18 76.4595 259.529 76.0461C259.574 77.1606 259.484 78.4817 259.27 80.0726C258.849 83.1643 258.822 83.8474 258.858 84.099C258.411 86.0583 257.757 87.9008 256.943 89.3928C255.037 92.844 252.585 94.5337 249.462 94.5337H249.176C247.87 94.8213 246.572 95.1179 245.275 95.4055L245.266 95.4235ZM222.904 85.2135C223.155 85.9145 223.701 86.8942 224.577 88.2064C225.302 88.8715 226.313 89.3388 227.763 89.7433L228.291 88.8086C226.806 87.4065 225.311 86.0044 223.799 84.6113L222.913 85.2045L222.904 85.2135ZM231.226 77.6908C231.154 79.5603 232.112 81.3039 234.063 83.0205C236.192 84.8809 236.854 85.1865 237.266 85.2315L237.821 85.2944L237.848 85.0607C238.018 84.9978 238.268 84.9079 238.599 84.7911C238.993 84.6652 239.279 84.5754 239.485 84.4945C240.085 84.7641 240.783 84.9439 241.57 85.0517C241.973 85.1056 242.358 85.1326 242.715 85.1326C244.908 85.1326 246.447 84.1619 247.279 82.2476C247.458 81.8431 247.682 80.5669 248.389 75.6416C249.391 68.7391 249.239 64.8205 247.941 63.3016L247.852 63.1937L247.717 63.1398C245.149 62.1961 243.387 61.6568 242.483 61.54C242.116 61.4951 241.767 61.4681 241.436 61.4681C240.201 61.4681 239.163 61.7916 238.349 62.4208C237.078 62.4747 235.745 62.8612 234.367 63.5712C232.792 64.416 231.942 65.4227 231.817 66.5821L231.799 66.8517C231.799 66.9685 231.799 67.1213 231.781 67.3101C231.718 67.9212 231.566 68.856 231.324 70.1232C230.958 71.9747 230.725 73.3408 230.635 74.1587C230.51 75.381 230.447 77.0078 231.253 77.6818L231.226 77.6908ZM128.447 95.3336C128.098 95.3336 127.991 95.2078 127.919 94.9831C127.731 94.4169 127.561 93.8596 127.4 93.2934L127.284 92.8979L126.765 92.7901C126.38 92.835 126.031 92.9968 124.993 94.3629C119.365 92.5834 116.376 90.9117 116.125 89.3928L116.108 89.2759L116.045 89.1771C115.83 88.8535 115.392 87.8469 114.56 84.9439C113.736 82.1397 113.065 79.2816 112.573 76.4415C111.607 70.8242 111.553 66.3394 112.412 63.1038C113.387 63.5173 114.595 64.0026 116.027 64.5688C116.278 64.6317 116.448 64.6497 116.609 64.6497L116.904 64.6317C117.987 64.461 119.078 63.4274 120.26 61.4771L120.841 60.5154L119.732 60.6412C118.89 60.7671 118.3 61.2344 117.79 62.0433C117.271 62.8792 116.922 63.0769 116.761 63.1128L116.43 63.1488C115.955 63.1488 115.034 62.9061 113.253 61.8186C115.087 57.8371 117.208 55.3475 119.562 54.4128C120.895 53.2174 123.866 51.7345 131.445 50.8177C134.944 50.3953 138.675 50.1796 142.549 50.1796C143.149 50.1796 144.5 50.1976 144.5 50.1976L144.625 50.1347C145.144 49.874 145.476 49.7931 145.663 49.7751H145.726C145.977 49.7751 146.227 49.8291 146.281 50.5301C146.317 50.9166 146.272 51.3839 146.147 51.9232C145.708 54.215 145.18 57.0731 144.563 60.4974C144.599 59.9312 144.608 59.4728 144.599 59.0774L143.543 58.8707C143.086 59.9042 141.941 62.5466 141.941 62.5466L142.057 62.5826C141.896 62.6005 141.726 62.6185 141.556 62.6365C140.742 62.7174 139.99 62.7623 139.301 62.7623C137.709 62.7623 136.492 62.5286 135.686 62.0703C134.756 61.8995 133.718 61.8456 132.411 61.8456C131.964 61.8456 131.481 61.8456 130.953 61.8636C130.031 61.8995 129.261 61.9534 128.644 62.0343C127.651 62.1601 127.006 62.3579 126.631 62.6275C125.476 62.996 124.34 63.9487 123.23 65.4676C122.139 66.9865 121.664 68.3347 121.834 69.4761L121.888 69.7637C121.924 69.8805 121.951 70.0333 121.978 70.2131C122.067 70.8242 122.139 71.723 122.21 72.9094C122.3 74.7159 122.398 76.0011 122.506 76.7291C122.676 77.8885 123.007 79.3895 123.955 79.8119C124.376 81.6274 125.933 82.7149 128.608 83.1823C129.61 83.3441 130.532 83.425 131.328 83.425C131.776 83.425 132.187 83.398 132.572 83.353C132.876 83.407 133.279 83.4339 133.655 83.4339C133.941 83.4339 134.219 83.416 134.478 83.389C135.185 83.2991 136.062 83.0385 137.082 82.6161C138.013 82.2296 138.836 81.9959 139.525 81.924C139.82 81.8881 140.133 81.8701 140.474 81.8611C140.545 81.96 140.67 82.1667 140.867 82.5711C141.315 83.4699 141.601 83.8923 142.048 83.8923C142.657 83.8384 142.675 83.5598 142.63 81.8341C143.999 81.6724 145.547 81.4117 147.229 81.0522C149.789 80.504 150.164 80.468 150.2 80.459H150.504C150.54 80.6028 150.576 80.7736 150.603 81.0792C150.683 82.0678 150.621 83.9103 150.424 86.5527C150.102 91.7295 149.27 92.6643 148.93 92.826C148.885 92.844 148.67 92.9339 147.856 93.0148C147.489 93.0507 146.478 93.1047 144.813 93.1856C143.113 93.2754 141.655 93.3923 140.429 93.5271C139.131 93.6709 137.914 93.8506 136.787 94.0753C136.438 94.1203 136.044 94.1382 135.633 94.1382C134.988 94.1382 134.299 94.0843 133.592 93.9585C132.528 93.7877 131.83 93.6978 131.454 93.6978C130.711 93.7787 129.977 94.0843 129.53 95.082C129.208 95.1988 128.921 95.2797 128.698 95.3066C128.617 95.3156 128.537 95.3246 128.465 95.3246L128.447 95.3336ZM139.972 90.669C139.606 90.7589 139.051 91.0285 138.272 91.4869C137.691 91.8284 137.046 92.0351 136.366 92.125L135.82 92.1879L135.48 92.7811C135.534 93.2395 135.928 93.4642 137.306 93.8327L137.404 93.8596L137.583 93.8416C138.738 93.7068 139.686 92.9429 140.572 91.4959L141.27 90.3544L139.972 90.669ZM117.727 89.1771C118.139 89.7972 118.917 90.6061 120.09 91.6666C120.949 92.125 122.049 92.3227 123.561 92.3587L123.839 91.3251C122.049 90.3365 120.251 89.3568 118.443 88.3861L117.727 89.186V89.1771ZM169.895 92.3048C168.875 92.3048 168.446 92.0891 168.374 91.9003C168.267 91.5678 168.123 90.687 168.025 88.4131C168.025 88.3322 168.025 88.2513 168.016 88.1614L169.081 88.0087L169.403 88.0266C169.627 88.0266 169.931 87.9547 170.835 87.5054L171.103 87.3705L171.613 83.4699L170.557 83.1913L169.832 85.0337C169.009 86.7054 168.723 86.9931 168.669 87.029L167.998 87.5683C167.909 84.863 167.891 81.1061 167.962 76.3876L170.11 75.4888L169.895 74.4283H169.582C168.723 74.4283 168.302 74.3744 168.114 74.3294C168.168 71.1388 168.258 67.9572 168.392 64.8205L168.41 64.461L168.088 64.2992C167.819 64.1644 167.452 64.1015 166.96 64.1015H166.647C166.03 64.1374 164.714 64.3531 163.712 64.5239C162.262 64.7756 161.108 64.9283 160.285 64.9823C160.052 65.0002 159.819 65.0002 159.605 65.0002C158.406 65.0002 157.457 64.7845 156.786 64.3621C155.435 63.4903 153.86 61.8456 152.106 59.4908C150.37 57.163 149.449 55.4643 149.368 54.4667C149.359 54.3049 149.368 54.1881 149.431 54.0982C149.735 53.7117 150.075 53.4781 150.406 53.4511H150.424C150.594 53.4511 150.692 53.487 150.791 53.55C151.596 53.8286 152.5 53.9364 153.681 53.9364C154.227 53.9364 154.826 53.9095 155.489 53.8645C158.638 53.6488 162.683 53.0287 168.186 51.9052C167.882 53.2444 167.604 55.5183 167.327 58.7898L168.365 59.0864C168.562 58.6909 168.893 57.7292 169.412 54.0443C169.654 52.3726 170.128 51.3749 170.745 51.2401C172.141 50.9256 173.116 50.5301 173.716 50.0268C173.975 49.8111 174.718 49.4067 176.803 49.146C178.995 48.9393 180.57 48.6427 181.59 48.2562C182.879 47.7709 184.302 47.5192 185.832 47.5103C186.807 47.5103 187.747 47.5911 188.624 47.7529C191.594 48.427 194.583 49.137 197.554 49.874C198.207 50.0358 199.057 50.4402 199.004 52.1569C199.004 52.3007 198.869 53.505 198.628 55.7609C198.431 57.8551 198.207 59.9402 197.948 62.0433C197.59 64.0476 196.901 65.0811 195.899 65.0811C195.102 65.0632 193.509 64.5059 191.102 63.4274C188.606 62.3129 186.879 61.7377 185.975 61.7377C185.689 61.7377 185.429 61.7737 185.188 61.8546C185.125 61.6029 185.044 61.2434 184.937 60.7041C184.633 59.0324 184.132 57.6933 183.452 56.7316C182.432 55.2666 181 54.5206 179.192 54.5206C178.441 54.5206 177.752 54.6285 177.036 54.8172L177.143 55.9047C180.051 56.0665 181.886 56.8035 182.593 58.0797C182.977 59.5178 183.416 61.0726 183.854 62.6275C182.834 63.8678 182.333 64.8744 182.342 65.7013C182.342 66.3304 182.324 70.0873 182.279 76.9718L182.262 80.1175C182.127 80.1534 181.913 80.2074 181.555 80.2703C180.579 80.441 179.935 80.5579 179.944 81.1511V81.5286L180.302 81.6634C181.054 81.942 181.859 82.2206 182.709 82.4902C182.879 83.2003 183.094 84.0721 183.353 85.0877C183.613 85.6179 183.872 86.0494 184.159 86.4808C184.418 87.0739 184.579 87.6222 184.579 88.0176C184.579 88.3322 184.499 88.6737 183.89 88.9254C182.646 89.3928 180.749 89.9859 177.922 90.7858C174.441 91.7296 171.935 92.2239 170.262 92.2868H169.931L169.895 92.3048ZM174.736 62.8073C176.248 64.0835 177.152 65.4586 177.421 66.8877L178.512 66.7978L178.602 63.3825C178.602 63.3825 176.302 62.3219 175.318 61.8725L174.736 62.7983V62.8073ZM201.607 92.2958C200.051 92.2329 199.818 91.8554 199.791 91.7385C199.719 91.433 199.63 90.5791 199.702 88.3682C199.791 85.6719 200.077 81.6005 200.578 76.2528C201.303 76.0101 202.028 75.7675 202.753 75.5248L202.619 74.4553C201.554 74.3834 201.08 74.2845 200.874 74.2216C200.963 73.206 201.026 72.1454 201.062 71.0489C201.142 68.7391 201.097 66.3124 200.954 63.8318C201.187 63.3285 201.321 62.5196 201.357 61.3333C201.393 60.3716 201.312 58.619 201.142 56.1384C200.963 53.6309 200.892 51.9681 200.918 51.0514C200.972 49.3707 201.303 48.9752 201.437 48.9573C202.314 48.9752 203.281 48.9842 204.265 48.9842C205.813 48.9842 207.415 48.9663 209.07 48.9213H209.249L209.392 48.8045C209.607 48.6427 209.858 48.5618 210.153 48.5618C210.404 48.5708 210.824 48.6427 211.907 49.0022C212.846 49.3168 213.598 49.4875 214.224 49.5235H214.466C214.985 49.5235 215.611 49.4336 216.345 49.2359C217.168 49.0202 217.607 48.9752 217.831 48.9752C218.466 49.0202 218.448 49.1909 218.43 49.3977C218.43 49.4696 218.412 49.5505 218.394 49.6403C218.18 50.0358 217.813 51.4109 216.846 58.2056C216.175 62.8252 215.772 65.872 215.71 66.7888C215.674 67.328 214.538 81.0702 214.538 81.0702C214.403 81.0971 214.171 81.1331 213.804 81.169C212.802 81.2679 212.14 81.3308 212.113 81.924L212.095 82.2925L212.435 82.4543C213.169 82.7958 213.947 83.1284 214.779 83.4609C214.896 84.1889 215.057 85.0697 215.262 86.1123C215.477 86.6335 215.656 87.065 215.835 87.4964C216.121 88.1884 216.256 88.7277 216.229 89.1231C216.193 89.5635 215.978 89.8152 215.495 89.977C214.224 90.3455 212.265 90.7858 209.375 91.37C206.135 91.9902 203.746 92.2868 202.091 92.2868H201.625L201.607 92.2958ZM202.61 83.2542C202.332 83.8564 202.055 84.4406 201.76 85.0068C200.561 87.2807 200.561 87.2896 200.543 87.4245L200.462 88.1255L201.16 88.0356C201.437 87.9997 201.885 87.8559 202.601 87.5683L202.878 87.4604L203.648 83.6047L202.61 83.2632V83.2542ZM212.963 51.1952C214.403 52.5703 215.218 54.0083 215.37 55.4643H216.461L216.837 52.1029C216.837 52.1029 214.582 50.8447 213.607 50.3144L212.972 51.2042L212.963 51.1952ZM99.6787 68.8829C99.6787 68.8829 99.6787 68.9099 99.6787 68.9189C99.6787 68.9189 99.6608 68.9189 99.6519 68.9189C99.6519 68.9009 99.6698 68.8919 99.6787 68.8739V68.8829Z" fill="#AACA4D"/>
</svg>
