<svg width="369" height="138" viewBox="0 0 369 138" fill="none" xmlns="http://www.w3.org/2000/svg">
<path d="M364.82 71.07C364.53 70.61 364.2 70.18 363.85 69.76L363.08 68.86C362.73 68.45 362.36 68.07 361.96 67.72C358.26 64.41 353.06 61.57 346.07 59.04C341.83 57.51 337.53 56.32 333.27 55.51L355.94 18.24C358.19 14.54 358.27 9.9 356.15 6.12C354.03 2.34 350.03 0 345.69 0H26.17C21.83 0 17.83 2.34 15.71 6.12C13.59 9.9 13.66 14.53 15.92 18.24L38.16 54.8C33.53 56.38 29.09 58.34 24.94 60.63C24.17 61.05 23.45 61.53 22.76 62.06L22.06 62.4C21.63 62.61 21.22 62.85 20.82 63.11C11.61 69.12 6.39998 75.78 4.93998 83.42C3.48998 87.95 3.69998 92.92 5.56998 97.6C6.24998 99.3 7.19998 101.02 9.07998 103.93C9.66998 104.83 10.36 105.65 11.15 106.35C11.67 107.08 12.28 107.75 12.96 108.35C13.3 108.65 13.65 108.94 14 109.22C13 112.99 13.21 116.94 14.67 120.6C16.86 126.07 21.54 129.99 27.81 131.64C29.42 132.07 30.96 132.33 32.46 132.43C34.6 133.21 36.82 133.7 39.08 133.9C39.12 133.9 39.15 133.9 39.19 133.9C39.92 133.96 40.64 133.99 41.33 133.99C44.02 133.99 46.61 133.56 48.99 132.73C51.64 132.57 54.37 131.99 57.25 130.99C62.28 129.24 66.79 126.83 70.69 123.81C73.44 124.52 76.71 124.53 79.91 123.64C82.22 122.99 84.55 121.89 90.7 118.86C95.02 116.69 97.02 115.93 97.61 115.72C98.13 115.64 100.04 115.43 104.02 115.64L105.17 115.7C112.02 116.05 113.44 116.12 115.87 115.66C116.81 115.48 117.72 115.19 118.58 114.8L118.88 114.7C119.7 114.42 120.5 114.06 121.24 113.61C122.02 113.14 122.91 112.52 123.83 111.71C125.33 112.12 126.9 112.33 128.49 112.33C129.37 112.33 130.25 112.27 131.01 112.16C132.39 111.97 133.75 111.63 135.14 111.14C136.41 111.16 137.66 111.1 138.89 110.95C139 110.94 139.1 110.92 139.21 110.91L139.51 110.87C139.68 110.84 139.84 110.82 140 110.79C140.71 110.65 141.48 110.54 142.34 110.44C143.25 110.34 144.39 110.25 145.72 110.18C148.01 110.06 148.87 110.01 149.45 109.95C151.14 109.79 153.68 109.43 156.27 108.17C157.39 107.63 158.39 107.02 159.29 106.34C162.27 108.26 165.92 109.31 169.95 109.31C170.22 109.31 170.5 109.31 170.88 109.29C173.94 109.17 177.49 108.53 182.39 107.19C182.43 107.18 182.47 107.17 182.51 107.16C185.41 106.34 187.47 105.7 189.17 105.09C192.02 107.44 195.89 109.1 200.91 109.29C201.28 109.31 201.66 109.31 202.07 109.31C204.89 109.31 208.14 108.93 212.59 108.08C212.63 108.08 212.68 108.06 212.72 108.05C215.79 107.43 217.88 106.95 219.65 106.47C219.79 106.56 219.93 106.64 220.07 106.73C220.54 107.02 221.03 107.28 221.54 107.5C224 109.29 226.92 110.43 230.04 110.78C231.4 110.94 232.8 110.95 234.27 110.82C235.48 111.16 236.7 111.41 237.92 111.57C238.39 111.63 238.86 111.67 239.33 111.67H239.86C240.18 111.73 240.77 111.83 241.77 112.05C242.63 112.24 243.49 112.33 244.38 112.33H246.28C247.16 112.33 248.04 112.22 248.9 112.03C249.17 111.97 249.45 111.91 249.72 111.85C251.97 113.58 254.99 115.03 259.06 115.8C259.15 115.82 259.25 115.84 259.35 115.85L259.89 115.94C260.08 115.97 260.27 116 260.46 116.02C264.1 116.44 267.74 116.92 271.25 117.43C271.93 117.53 272.62 117.57 273.31 117.55C275.03 118.56 277.11 119.44 279.59 120.04C282.29 120.71 285.51 121.12 289.71 121.34C289.78 121.34 289.85 121.34 289.92 121.34C293.11 121.45 295.21 121.45 296.98 121.32C297.1 121.44 297.22 121.56 297.35 121.67C299.88 124.02 302.7 125.75 305.81 126.83C307.99 128.33 310.5 129.56 313.38 130.55C318.96 132.47 324.5 133.35 329.91 133.17C337.18 133.93 344.47 131.41 350.79 125.98C353.21 123.95 355.47 121.5 357.53 118.68C357.97 118.08 358.35 117.44 358.67 116.77L359.38 115.28C359.7 114.6 359.96 113.89 360.15 113.17C361.76 107.01 361.75 101.21 360.1 95.88C360.14 95.84 360.19 95.8 360.23 95.76C363.27 93.73 365.53 90.93 366.81 87.62C368.92 82.23 368.21 76.35 364.82 71.07Z" fill="white"/>
<path d="M345.68 1.99999C349.29 1.99999 352.63 3.94999 354.4 7.09999C356.17 10.25 356.1 14.12 354.23 17.2L331.56 54.47L330.06 56.93L332.89 57.47C337.05 58.26 341.25 59.42 345.38 60.92C352.13 63.37 357.12 66.08 360.62 69.21C360.96 69.51 361.27 69.83 361.55 70.17L362.32 71.07C362.61 71.41 362.88 71.78 363.13 72.16C366.17 76.88 366.82 82.12 364.94 86.91C363.81 89.82 361.8 92.31 359.12 94.11L359 94.19L358.89 94.29L358.78 94.39L357.82 95.25L358.2 96.48C359.73 101.43 359.74 106.88 358.22 112.67C358.06 113.27 357.85 113.87 357.58 114.43L356.87 115.92C356.61 116.48 356.29 117.01 355.92 117.51C353.96 120.2 351.81 122.54 349.5 124.47C344.3 128.94 338.41 131.31 332.47 131.31C331.69 131.31 330.91 131.27 330.13 131.19H329.99H329.85C329.42 131.2 328.98 131.21 328.55 131.21C323.82 131.21 318.94 130.36 314.04 128.67C311.31 127.73 309 126.59 306.96 125.19L306.74 125.04L306.48 124.95C303.65 123.97 301.04 122.38 298.73 120.22C298.62 120.12 298.51 120.01 298.4 119.9L297.76 119.27L296.86 119.33C295.97 119.39 294.99 119.42 293.84 119.42C292.77 119.42 291.52 119.39 290.02 119.34H289.83C285.76 119.12 282.67 118.72 280.08 118.09C277.95 117.57 276.02 116.8 274.34 115.82L273.85 115.53H273.28C273.19 115.55 273.1 115.55 273.01 115.55C272.52 115.55 272.03 115.52 271.56 115.45C268.02 114.94 264.37 114.46 260.7 114.03C260.54 114.01 260.39 113.99 260.23 113.96L259.69 113.87C259.61 113.86 259.54 113.84 259.45 113.83C256.06 113.19 253.2 111.98 250.96 110.26L250.22 109.69L249.31 109.89L248.76 110.01L248.48 110.07C247.77 110.23 247.03 110.32 246.3 110.32H244.41C243.65 110.32 242.94 110.25 242.23 110.09C241.18 109.86 240.55 109.75 240.2 109.69L240.06 109.67H239.92H239.39C239 109.67 238.61 109.64 238.22 109.58C237.1 109.43 235.96 109.2 234.84 108.89L234.49 108.79L234.13 108.82C233.52 108.87 232.92 108.9 232.34 108.9C231.66 108.9 230.97 108.86 230.3 108.78C227.56 108.47 224.95 107.47 222.75 105.87L222.58 105.74L222.38 105.65C221.96 105.47 221.55 105.25 221.16 105.01L220.85 104.82L220.75 104.76L220.01 104.3L219.17 104.53C217.47 105 215.43 105.46 212.37 106.08L212.27 106.1C207.95 106.93 204.82 107.3 202.13 107.3C201.76 107.3 201.4 107.3 201.05 107.28C196.87 107.12 193.32 105.86 190.5 103.53L189.62 102.81L188.55 103.19C186.9 103.78 184.88 104.41 182.04 105.22H181.99L181.92 105.25C177.17 106.54 173.76 107.17 170.87 107.28C170.52 107.29 170.25 107.3 170 107.3C166.43 107.3 163.12 106.38 160.42 104.64L159.25 103.89L158.14 104.73C157.32 105.35 156.42 105.89 155.44 106.36C153.14 107.48 150.84 107.8 149.31 107.95C148.77 108 147.88 108.05 145.65 108.17C144.28 108.24 143.1 108.33 142.16 108.44C141.25 108.54 140.43 108.66 139.67 108.81C139.53 108.84 139.39 108.86 139.25 108.88L138.96 108.92C138.86 108.93 138.77 108.95 138.68 108.96C137.7 109.08 136.68 109.14 135.66 109.14C135.51 109.14 135.36 109.14 135.21 109.14H134.85L134.51 109.26C133.24 109.71 132.02 110.02 130.76 110.19C130.09 110.29 129.3 110.34 128.53 110.34C127.13 110.34 125.73 110.16 124.39 109.79L123.35 109.51L122.54 110.23C121.83 110.86 121.06 111.43 120.25 111.91C119.63 112.28 118.97 112.59 118.28 112.82L117.98 112.92L117.88 112.95L117.79 112.99C117.07 113.32 116.32 113.56 115.54 113.7C114.4 113.91 113.58 113.99 112.3 113.99C110.82 113.99 108.74 113.88 105.3 113.71L104.15 113.65C103 113.59 101.92 113.56 100.93 113.56C98.94 113.56 97.82 113.68 97.33 113.75L97.14 113.78L96.96 113.84C96.27 114.08 94.18 114.88 89.83 117.07C83.82 120.03 81.53 121.12 79.39 121.72C77.93 122.13 76.43 122.33 74.91 122.33C73.61 122.33 72.37 122.18 71.2 121.88L70.25 121.64L69.48 122.24C65.76 125.13 61.43 127.44 56.61 129.11C53.88 130.06 51.36 130.59 48.89 130.75L48.61 130.77L48.35 130.86C46.17 131.62 43.82 132.01 41.36 132.01C40.72 132.01 40.06 131.98 39.37 131.93H39.28C37.2 131.73 35.14 131.28 33.16 130.56L32.89 130.46L32.61 130.44C31.24 130.35 29.84 130.11 28.34 129.71C22.68 128.22 18.49 124.73 16.55 119.86C15.26 116.63 15.06 113.13 15.95 109.73L16.29 108.46L15.26 107.65C14.94 107.4 14.61 107.13 14.3 106.85C13.74 106.36 13.23 105.8 12.79 105.19L12.66 105.01L12.5 104.86C11.84 104.27 11.26 103.59 10.78 102.84C8.97998 100.05 8.06998 98.43 7.44998 96.86C5.74998 92.59 5.53998 88.16 6.86998 84.03L6.90998 83.91L6.92998 83.79C8.28998 76.7 13.2 70.48 21.94 64.78C22.27 64.57 22.62 64.37 22.97 64.19L23.67 63.85L23.85 63.76L24.01 63.64C24.61 63.17 25.26 62.75 25.93 62.38C29.97 60.15 34.31 58.24 38.83 56.69L41.18 55.88L39.89 53.75L17.63 17.2C15.75 14.12 15.69 10.25 17.46 7.09999C19.23 3.94999 22.57 1.99999 26.18 1.99999H345.69M345.69 -9.76585e-06H26.17C21.83 -9.76585e-06 17.83 2.33999 15.71 6.11999C13.59 9.89999 13.66 14.53 15.92 18.24L38.16 54.8C33.53 56.39 29.09 58.34 24.94 60.63C24.17 61.05 23.45 61.53 22.76 62.06L22.06 62.4C21.63 62.61 21.22 62.85 20.82 63.11C11.61 69.12 6.39998 75.78 4.93998 83.42C3.48998 87.95 3.69998 92.92 5.56998 97.6C6.24998 99.3 7.19998 101.02 9.07998 103.93C9.66998 104.83 10.36 105.65 11.15 106.35C11.67 107.08 12.28 107.75 12.96 108.35C13.3 108.65 13.65 108.94 14 109.22C13 112.99 13.21 116.94 14.67 120.6C16.86 126.07 21.54 129.99 27.81 131.64C29.42 132.07 30.96 132.33 32.46 132.43C34.6 133.21 36.82 133.7 39.08 133.9C39.12 133.9 39.15 133.9 39.19 133.9C39.92 133.96 40.64 133.99 41.33 133.99C44.02 133.99 46.61 133.56 48.99 132.73C51.64 132.57 54.37 131.99 57.25 130.99C62.28 129.24 66.79 126.83 70.69 123.81C71.99 124.15 73.42 124.32 74.89 124.32C76.53 124.32 78.23 124.1 79.9 123.63C82.21 122.98 84.54 121.88 90.69 118.85C95.01 116.68 97.01 115.92 97.6 115.71C97.96 115.66 98.98 115.54 100.9 115.54C101.75 115.54 102.78 115.56 104.01 115.63L105.16 115.69C108.65 115.87 110.73 115.97 112.26 115.97C113.79 115.97 114.67 115.87 115.87 115.65C116.81 115.47 117.72 115.18 118.58 114.79L118.88 114.69C119.7 114.41 120.5 114.05 121.24 113.6C122.02 113.13 122.91 112.51 123.83 111.7C125.33 112.11 126.9 112.32 128.49 112.32C129.37 112.32 130.25 112.26 131.01 112.15C132.39 111.96 133.75 111.62 135.14 111.13C135.3 111.13 135.46 111.13 135.62 111.13C136.72 111.13 137.82 111.07 138.89 110.94C139 110.93 139.1 110.91 139.21 110.9L139.51 110.86C139.68 110.83 139.84 110.81 140 110.78C140.71 110.64 141.48 110.53 142.34 110.43C143.25 110.33 144.39 110.24 145.72 110.17C148.01 110.05 148.87 110 149.45 109.94C151.14 109.78 153.68 109.42 156.27 108.16C157.39 107.62 158.39 107.01 159.29 106.33C162.27 108.25 165.92 109.3 169.95 109.3C170.22 109.3 170.5 109.3 170.88 109.28C173.94 109.16 177.49 108.52 182.39 107.18C182.43 107.17 182.47 107.16 182.51 107.15C185.41 106.33 187.47 105.69 189.17 105.08C192.02 107.43 195.89 109.09 200.91 109.28C201.28 109.3 201.66 109.3 202.07 109.3C204.89 109.3 208.14 108.92 212.59 108.07C212.63 108.07 212.68 108.05 212.72 108.04C215.79 107.42 217.88 106.94 219.65 106.46C219.79 106.55 219.93 106.63 220.07 106.72C220.54 107.01 221.03 107.27 221.54 107.49C224 109.28 226.92 110.42 230.04 110.77C230.78 110.86 231.53 110.9 232.3 110.9C232.94 110.9 233.6 110.87 234.27 110.81C235.48 111.15 236.7 111.4 237.92 111.56C238.39 111.62 238.86 111.66 239.33 111.66H239.86C240.18 111.72 240.77 111.82 241.77 112.04C242.63 112.23 243.49 112.32 244.38 112.32H246.28C247.16 112.32 248.04 112.21 248.9 112.02C249.17 111.96 249.45 111.9 249.72 111.84C251.97 113.57 254.99 115.02 259.06 115.79C259.15 115.81 259.25 115.83 259.35 115.84L259.89 115.93C260.08 115.96 260.27 115.99 260.46 116.01C264.1 116.43 267.74 116.91 271.25 117.42C271.83 117.5 272.41 117.54 272.99 117.54C273.1 117.54 273.21 117.54 273.31 117.54C275.03 118.55 277.11 119.43 279.59 120.03C282.29 120.69 285.51 121.11 289.71 121.33C289.78 121.33 289.85 121.33 289.92 121.33C291.44 121.38 292.72 121.41 293.83 121.41C295.05 121.41 296.06 121.38 296.99 121.31C297.11 121.43 297.23 121.55 297.36 121.66C299.89 124.01 302.71 125.74 305.82 126.82C308 128.32 310.51 129.55 313.39 130.54C318.5 132.3 323.58 133.18 328.55 133.18C329.01 133.18 329.46 133.18 329.92 133.16C330.77 133.25 331.62 133.29 332.46 133.29C338.87 133.29 345.22 130.77 350.8 125.97C353.22 123.94 355.48 121.49 357.54 118.67C357.98 118.07 358.36 117.43 358.68 116.76L359.39 115.27C359.71 114.59 359.97 113.88 360.16 113.16C361.77 107 361.76 101.2 360.11 95.87C360.15 95.83 360.2 95.79 360.24 95.75C363.28 93.72 365.54 90.92 366.82 87.61C368.93 82.22 368.22 76.34 364.83 71.06C364.54 70.6 364.21 70.17 363.86 69.75L363.09 68.85C362.74 68.44 362.37 68.06 361.97 67.71C358.27 64.4 353.07 61.56 346.08 59.03C341.84 57.5 337.54 56.31 333.28 55.5L355.95 18.23C358.2 14.53 358.28 9.88999 356.16 6.10999C354.04 2.32999 350.04 -0.0100098 345.7 -0.0100098L345.69 -9.76585e-06Z" fill="#231F20"/>
</svg>
