<svg width="404" height="147" viewBox="0 0 404 147" fill="none" xmlns="http://www.w3.org/2000/svg">
<mask id="path-1-inside-1_647_26152" fill="white">
<path d="M400.65 78.41C400.36 77.95 400.03 77.52 399.68 77.11L398.82 76.11C398.47 75.7 398.09 75.32 397.69 74.96C393.69 71.4 388.04 68.34 380.4 65.58C375.08 63.66 369.68 62.25 364.36 61.37L390.71 18.26C392.97 14.56 393.06 9.92 390.94 6.13C388.82 2.34 384.81 0 380.47 0H23.37C19.03 0 15.03 2.34 12.9 6.13C10.78 9.92 10.86 14.55 13.13 18.26L38.85 60.34C38.68 60.4 38.51 60.45 38.33 60.51C32.84 62.3 27.58 64.57 22.7 67.25C21.86 67.71 21.07 68.23 20.33 68.81L19.43 69.25C19 69.46 18.59 69.7 18.19 69.96C8.20001 76.45 2.57001 83.59 1.02001 91.76C-0.539989 96.53 -0.319989 101.78 1.67001 106.74C2.40001 108.55 3.43001 110.39 5.47001 113.54C6.09001 114.49 6.82001 115.33 7.66001 116.06C8.20001 116.83 8.84001 117.55 9.57001 118.18C10.15 118.69 10.76 119.17 11.39 119.63C10.08 123.8 10.21 128.23 11.85 132.31C14.13 137.98 19.03 142.05 25.6 143.77C27.38 144.24 29.08 144.52 30.72 144.61C33.06 145.47 35.47 146.02 37.95 146.24H38.05C38.82 146.31 39.59 146.34 40.33 146.34C43.23 146.34 46.02 145.87 48.6 144.95C51.49 144.79 54.47 144.17 57.64 143.08C63.36 141.1 68.46 138.34 72.82 134.87C75.81 135.77 79.44 135.87 83.05 134.87C85.51 134.18 88.07 132.97 94.84 129.65C100.06 127.04 102.33 126.22 102.86 126.04C103.36 125.96 105.59 125.66 110.46 125.91L111.74 125.97C119.42 126.36 120.81 126.43 123.36 125.95C124.32 125.77 125.25 125.47 126.12 125.07L126.54 124.93C127.36 124.65 128.15 124.29 128.9 123.85C129.87 123.27 131.01 122.46 132.16 121.35C133.95 121.92 135.83 122.21 137.75 122.21C138.65 122.21 139.55 122.15 140.37 122.03C141.89 121.82 143.39 121.44 144.95 120.87C146.4 120.91 147.82 120.84 149.21 120.67C149.31 120.66 149.42 120.64 149.52 120.63L149.85 120.58C150.02 120.55 150.18 120.53 150.35 120.49C151.17 120.33 152.08 120.2 153.07 120.09C154.13 119.97 155.43 119.87 156.94 119.79C159.47 119.66 160.43 119.6 161.05 119.54C162.83 119.37 165.48 119 168.17 117.7C169.68 116.98 170.99 116.12 172.13 115.16C175.12 117.36 179.09 118.83 184.11 118.83C184.39 118.83 184.67 118.83 184.97 118.82C185.02 118.82 185.06 118.82 185.11 118.82C188.41 118.69 192.28 117.99 197.64 116.53C197.68 116.52 197.72 116.51 197.75 116.5C201.43 115.46 203.88 114.69 205.91 113.93C208.93 116.64 213.17 118.6 218.79 118.81C219.19 118.83 219.59 118.84 220.02 118.84C223.08 118.84 226.62 118.43 231.5 117.5C231.54 117.5 231.59 117.48 231.63 117.47C235.41 116.71 237.83 116.15 239.89 115.56C240.22 115.77 240.55 115.98 240.89 116.19C241.41 116.51 241.95 116.79 242.5 117.02C245.08 118.91 248.15 120.12 251.45 120.49C252.95 120.66 254.49 120.67 256.13 120.5C257.51 120.89 258.89 121.18 260.27 121.37C260.73 121.43 261.2 121.46 261.67 121.47H262.36C262.72 121.53 263.43 121.66 264.69 121.93C265.54 122.12 266.38 122.19 267.28 122.2H269.4C270.27 122.2 271.15 122.09 272 121.9C272.54 121.78 273.08 121.66 273.62 121.54C276.02 123.53 279.35 125.21 283.95 126.08C284.04 126.1 284.14 126.11 284.23 126.13L284.83 126.23C285.02 126.26 285.21 126.29 285.39 126.31C289.48 126.78 293.55 127.31 297.5 127.88C298.32 128 299.15 128.03 299.97 127.98C301.86 129.14 304.16 130.13 306.97 130.81C309.9 131.53 313.41 131.97 318 132.21C318.07 132.21 318.15 132.21 318.22 132.21C321.92 132.34 324.27 132.33 326.27 132.17C326.32 132.17 326.37 132.17 326.42 132.16C326.48 132.16 326.54 132.15 326.6 132.14C326.87 132.42 327.15 132.69 327.44 132.96C330.18 135.49 333.23 137.33 336.58 138.46C338.95 140.11 341.68 141.45 344.85 142.53C350.95 144.62 357.02 145.58 362.9 145.36C370.59 146.19 378.46 143.52 385.25 137.71C387.87 135.53 390.33 132.87 392.56 129.82C393 129.22 393.38 128.58 393.7 127.91L394.49 126.26C394.81 125.58 395.07 124.87 395.27 124.14C397.09 117.22 396.99 110.74 394.98 104.83C395.27 104.57 395.56 104.31 395.84 104.06C399.04 101.95 401.41 99.04 402.76 95.59C404.97 89.99 404.22 83.87 400.65 78.36V78.41Z"/>
</mask>
<path d="M400.65 78.41C400.36 77.95 400.03 77.52 399.68 77.11L398.82 76.11C398.47 75.7 398.09 75.32 397.69 74.96C393.69 71.4 388.04 68.34 380.4 65.58C375.08 63.66 369.68 62.25 364.36 61.37L390.71 18.26C392.97 14.56 393.06 9.92 390.94 6.13C388.82 2.34 384.81 0 380.47 0H23.37C19.03 0 15.03 2.34 12.9 6.13C10.78 9.92 10.86 14.55 13.13 18.26L38.85 60.34C38.68 60.4 38.51 60.45 38.33 60.51C32.84 62.3 27.58 64.57 22.7 67.25C21.86 67.71 21.07 68.23 20.33 68.81L19.43 69.25C19 69.46 18.59 69.7 18.19 69.96C8.20001 76.45 2.57001 83.59 1.02001 91.76C-0.539989 96.53 -0.319989 101.78 1.67001 106.74C2.40001 108.55 3.43001 110.39 5.47001 113.54C6.09001 114.49 6.82001 115.33 7.66001 116.06C8.20001 116.83 8.84001 117.55 9.57001 118.18C10.15 118.69 10.76 119.17 11.39 119.63C10.08 123.8 10.21 128.23 11.85 132.31C14.13 137.98 19.03 142.05 25.6 143.77C27.38 144.24 29.08 144.52 30.72 144.61C33.06 145.47 35.47 146.02 37.95 146.24H38.05C38.82 146.31 39.59 146.34 40.33 146.34C43.23 146.34 46.02 145.87 48.6 144.95C51.49 144.79 54.47 144.17 57.64 143.08C63.36 141.1 68.46 138.34 72.82 134.87C75.81 135.77 79.44 135.87 83.05 134.87C85.51 134.18 88.07 132.97 94.84 129.65C100.06 127.04 102.33 126.22 102.86 126.04C103.36 125.96 105.59 125.66 110.46 125.91L111.74 125.97C119.42 126.36 120.81 126.43 123.36 125.95C124.32 125.77 125.25 125.47 126.12 125.07L126.54 124.93C127.36 124.65 128.15 124.29 128.9 123.85C129.87 123.27 131.01 122.46 132.16 121.35C133.95 121.92 135.83 122.21 137.75 122.21C138.65 122.21 139.55 122.15 140.37 122.03C141.89 121.82 143.39 121.44 144.95 120.87C146.4 120.91 147.82 120.84 149.21 120.67C149.31 120.66 149.42 120.64 149.52 120.63L149.85 120.58C150.02 120.55 150.18 120.53 150.35 120.49C151.17 120.33 152.08 120.2 153.07 120.09C154.13 119.97 155.43 119.87 156.94 119.79C159.47 119.66 160.43 119.6 161.05 119.54C162.83 119.37 165.48 119 168.17 117.7C169.68 116.98 170.99 116.12 172.13 115.16C175.12 117.36 179.09 118.83 184.11 118.83C184.39 118.83 184.67 118.83 184.97 118.82C185.02 118.82 185.06 118.82 185.11 118.82C188.41 118.69 192.28 117.99 197.64 116.53C197.68 116.52 197.72 116.51 197.75 116.5C201.43 115.46 203.88 114.69 205.91 113.93C208.93 116.64 213.17 118.6 218.79 118.81C219.19 118.83 219.59 118.84 220.02 118.84C223.08 118.84 226.62 118.43 231.5 117.5C231.54 117.5 231.59 117.48 231.63 117.47C235.41 116.71 237.83 116.15 239.89 115.56C240.22 115.77 240.55 115.98 240.89 116.19C241.41 116.51 241.95 116.79 242.5 117.02C245.08 118.91 248.15 120.12 251.45 120.49C252.95 120.66 254.49 120.67 256.13 120.5C257.51 120.89 258.89 121.18 260.27 121.37C260.73 121.43 261.2 121.46 261.67 121.47H262.36C262.72 121.53 263.43 121.66 264.69 121.93C265.54 122.12 266.38 122.19 267.28 122.2H269.4C270.27 122.2 271.15 122.09 272 121.9C272.54 121.78 273.08 121.66 273.62 121.54C276.02 123.53 279.35 125.21 283.95 126.08C284.04 126.1 284.14 126.11 284.23 126.13L284.83 126.23C285.02 126.26 285.21 126.29 285.39 126.31C289.48 126.78 293.55 127.31 297.5 127.88C298.32 128 299.15 128.03 299.97 127.98C301.86 129.14 304.16 130.13 306.97 130.81C309.9 131.53 313.41 131.97 318 132.21C318.07 132.21 318.15 132.21 318.22 132.21C321.92 132.34 324.27 132.33 326.27 132.17C326.32 132.17 326.37 132.17 326.42 132.16C326.48 132.16 326.54 132.15 326.6 132.14C326.87 132.42 327.15 132.69 327.44 132.96C330.18 135.49 333.23 137.33 336.58 138.46C338.95 140.11 341.68 141.45 344.85 142.53C350.95 144.62 357.02 145.58 362.9 145.36C370.59 146.19 378.46 143.52 385.25 137.71C387.87 135.53 390.33 132.87 392.56 129.82C393 129.22 393.38 128.58 393.7 127.91L394.49 126.26C394.81 125.58 395.07 124.87 395.27 124.14C397.09 117.22 396.99 110.74 394.98 104.83C395.27 104.57 395.56 104.31 395.84 104.06C399.04 101.95 401.41 99.04 402.76 95.59C404.97 89.99 404.22 83.87 400.65 78.36V78.41Z" fill="white" stroke="#07090D" stroke-width="4" mask="url(#path-1-inside-1_647_26152)"/>
<path d="M351.19 55.19H52.64L27.75 14.46H376.09L351.19 55.19Z" fill="#CC232A"/>
<path d="M352.57 57.64H51.27L23.37 12H380.47L352.57 57.64ZM54.02 52.73H349.82L371.71 16.91H32.13L54.02 52.73Z" fill="black"/>
<path d="M50.9 27.6C52.05 29.54 52.62 30.51 53.77 32.46H58.3C59.3 34.2 59.79 35.07 60.79 36.8H56.34C58.57 40.56 59.68 42.45 61.91 46.21H57.24C51.66 37.08 48.87 32.52 43.29 23.39H53.61C54.57 25.07 55.05 25.91 56.01 27.6H50.9ZM80.61 40.39C81.26 41.69 81.7 42.72 81.57 43.88C81.33 45.97 79.01 46.58 76.68 46.58C72.83 46.58 68.74 44.77 66.49 40.73C62.61 33.79 60.67 30.32 56.79 23.39H61.91C65.18 29.45 66.82 32.48 70.09 38.54C71.01 40.25 72.14 42.47 74.58 42.47C77.02 42.47 75.87 40.45 74.98 38.74C71.79 32.6 70.19 29.52 66.99 23.38H72.11C75.51 30.18 77.21 33.58 80.61 40.38V40.39ZM87.19 46.21C82.77 37.08 80.55 32.52 76.13 23.39H81.25C84.7 30.81 86.42 34.52 89.87 41.93H94.84C95.6 43.64 95.98 44.5 96.74 46.21H87.19ZM98.83 46.21C94.86 37.08 92.87 32.52 88.89 23.39H94.01C97.09 30.81 98.64 34.52 101.72 41.93H106.69C107.37 43.64 107.7 44.5 108.38 46.21H98.83ZM114.25 36.46C115.64 40.36 116.33 42.31 117.72 46.21H113.05C111.59 42.31 110.85 40.36 109.39 36.46C105.07 31.23 102.85 28.62 98.28 23.39H103.9C105.41 25.37 106.16 26.37 107.64 28.35C108.32 29.27 109.35 30.71 110.02 31.74C109.83 29.99 109.88 29.38 109.87 28.32C109.86 26.35 109.86 25.36 109.87 23.39H115.61C114.94 28.62 114.67 31.23 114.25 36.46ZM132.87 23.39C134.5 23.39 135.79 23.42 137.4 24.14C140.1 25.34 141.78 27.8 142.34 30.16C143.47 34.95 140.36 37.17 135.42 36.83C136.43 40.58 136.94 42.45 137.95 46.2H133.28C130.63 37.07 129.31 32.51 126.66 23.38H132.87V23.39ZM134.69 33.04C136.93 33.04 137.94 32.32 137.38 30.13C136.92 28.32 135.91 27.05 133.65 27.05H132.77C133.42 29.44 133.74 30.64 134.39 33.04H134.69ZM157.48 46.21C155.04 42.01 153.78 39.91 151.19 35.71C152.05 39.91 152.48 42.01 153.35 46.21H148.68C146.63 37.08 145.6 32.52 143.55 23.39H149.1C151 23.39 153.13 23.53 154.92 24.48C157.18 25.68 158.55 27.9 158.91 30.02C159.35 32.62 158.54 34.47 156.39 35.84C158.87 39.99 160.07 42.06 162.4 46.21H157.48ZM150.67 33.21C150.94 33.24 151.24 33.24 151.5 33.24C153.63 33.24 154.42 31.91 154.07 30.06C153.72 28.21 152.56 26.95 150.34 26.95H149.38C149.89 29.45 150.15 30.71 150.66 33.21H150.67ZM165.4 46.21C163.99 37.08 163.29 32.52 161.88 23.39H172.16C172.35 25.09 172.45 25.93 172.65 27.63H167.58C167.85 29.6 167.98 30.59 168.24 32.56H172.62C172.82 34.28 172.92 35.15 173.12 36.87H168.82C169.1 38.92 169.23 39.95 169.51 42H174.37C174.56 43.68 174.66 44.52 174.85 46.21H165.41H165.4ZM181.11 23.39C182.47 23.39 184.77 23.46 186.64 25C188.09 26.2 188.92 28.08 189.01 29.93C189.07 31.06 188.86 32.19 188.02 33.18C187.63 33.62 187.03 34.17 186.13 34.51C187.76 35.06 188.59 36.08 188.91 36.53C189.67 37.62 189.87 38.89 189.92 39.75C190 41.46 189.61 43 188.36 44.26C186.64 46.01 184.3 46.21 182.92 46.21H177.97C177.05 37.08 176.58 32.52 175.66 23.39H181.13H181.11ZM181.53 32.76C182.31 32.73 183.19 32.42 183.64 31.97C184.31 31.32 184.32 30.36 184.28 29.85C184.24 29.3 184.11 28.45 183.33 27.8C182.88 27.42 182.17 27.12 181.06 27.12C181.24 29.38 181.34 30.51 181.52 32.76H181.53ZM182.31 42.31C183.06 42.31 183.91 42.07 184.42 41.59C184.89 41.14 185.23 40.36 185.17 39.37C185.09 38.28 184.64 37.44 184.05 36.98C183.44 36.5 182.52 36.26 181.82 36.26C182.02 38.68 182.12 39.89 182.31 42.32V42.31ZM207.45 40.39C207.42 41.69 207.32 42.72 206.58 43.88C205.25 45.97 202.61 46.58 200.28 46.58C196.43 46.58 193.29 44.77 193.14 40.73C192.89 33.79 192.76 30.32 192.51 23.39H197.63C197.73 29.45 197.78 32.48 197.88 38.54C197.91 40.25 197.88 42.47 200.32 42.47C202.76 42.47 202.66 40.45 202.67 38.74C202.69 32.6 202.7 29.52 202.72 23.38H207.84C207.68 30.18 207.61 33.58 207.45 40.38V40.39ZM210.99 46.21C211.34 37.08 211.52 32.52 211.87 23.39H216.99C216.46 32.52 216.19 37.08 215.66 46.21H210.99ZM219.34 46.21C220.01 37.08 220.35 32.52 221.02 23.39H226.14C225.45 30.81 225.1 34.52 224.41 41.93H229.38C229.19 43.64 229.09 44.5 228.89 46.21H219.34ZM239.57 27.57C238.47 35.03 237.92 38.76 236.82 46.21H232.15C233.1 38.75 233.58 35.02 234.53 27.57H230.6C230.79 25.9 230.88 25.07 231.07 23.4H244.18C243.91 25.07 243.77 25.9 243.5 27.57H239.57ZM268.27 46.21H264.2C264.29 43.06 264.35 39.88 264.3 36.73C264.27 34.51 264.69 32.25 265.14 29.99C264.31 32.42 263.29 34.85 262.08 37.24C260.28 40.83 259.39 42.62 257.65 46.2H253.58C253.66 37.07 253.61 32.51 253.33 23.38H258.57C258.53 27.39 258.5 29.39 258.4 33.4C258.35 35.28 258.16 37.23 257.72 39.15C258.36 37.3 259.08 35.46 259.91 33.64C261.79 29.53 262.75 27.48 264.7 23.38H268.73C268.6 27.96 268.52 30.26 268.3 34.84C268.21 36.28 268.08 37.71 267.84 39.15C268.44 36.93 269.26 34.7 270.31 32.51C272.03 28.86 272.9 27.03 274.67 23.38H280.02C275.13 32.51 272.78 37.07 268.27 46.2V46.21ZM275.09 46.21C277.91 37.08 279.32 32.52 282.14 23.39H292.42C291.83 25.09 291.53 25.93 290.94 27.63H285.87C285.22 29.6 284.9 30.59 284.25 32.56H288.63C288.03 34.28 287.73 35.15 287.14 36.87H282.84C282.16 38.92 281.83 39.95 281.15 42H286.01C285.42 43.68 285.13 44.52 284.54 46.21H275.1H275.09ZM301.38 23.39C302.74 23.39 305.01 23.47 306.16 25C307.06 26.2 307.01 28.08 306.25 29.93C305.78 31.06 305.05 32.19 303.75 33.18C303.16 33.62 302.31 34.17 301.24 34.51C302.62 35.06 302.97 36.08 303.08 36.53C303.33 37.62 302.95 38.89 302.59 39.75C301.88 41.46 300.77 43 298.94 44.26C296.41 46.01 293.97 46.21 292.59 46.21H287.64C290.95 37.08 292.6 32.52 295.91 23.39H301.38ZM297.45 32.76C298.25 32.73 299.26 32.42 299.92 31.97C300.89 31.32 301.34 30.36 301.54 29.85C301.76 29.3 302.02 28.45 301.54 27.8C301.27 27.42 300.7 27.12 299.59 27.12C298.73 29.38 298.3 30.51 297.43 32.76H297.45ZM293.8 42.31C294.55 42.31 295.51 42.07 296.24 41.59C296.92 41.14 297.63 40.36 298.02 39.37C298.45 38.28 298.38 37.43 298.02 36.98C297.64 36.5 296.83 36.26 296.13 36.26C295.2 38.68 294.74 39.89 293.82 42.32L293.8 42.31ZM321.02 28.56C320.36 27.77 319.49 27.09 318.08 27.09C316.59 27.09 315.16 27.98 314.57 29.31C312.82 33.24 320.31 33.18 317.3 39.54C315.43 43.47 311.52 46.59 307.25 46.59C305.8 46.59 304.56 46.21 303.69 45.43C304.43 43.71 304.8 42.84 305.54 41.12C306.33 41.8 307.2 42.35 308.53 42.35C310.15 42.35 311.77 41.39 312.49 39.82C312.68 39.41 312.78 39.03 312.76 38.66C312.71 37.8 311.69 37.05 311.11 36.54C309.14 34.76 308.03 33.12 309.44 29.8C310.97 26.21 314.67 23.06 319.06 23.06C320.81 23.06 321.93 23.4 323.09 24.15C322.26 25.92 321.85 26.8 321.02 28.56ZM316.85 46.21C321.28 37.08 323.5 32.52 327.93 23.39H333.05C328.44 32.52 326.13 37.08 321.52 46.21H316.85ZM341.89 27.57C337.8 35.03 335.76 38.76 331.67 46.21H327C330.94 38.75 332.91 35.02 336.85 27.57H332.92C333.78 25.9 334.21 25.07 335.06 23.4H348.17C347.23 25.07 346.76 25.9 345.82 27.57H341.89ZM337.15 46.21C342.37 37.08 344.97 32.52 350.19 23.39H360.47C359.43 25.09 358.91 25.93 357.88 27.63H352.81C351.65 29.6 351.06 30.59 349.9 32.56H354.28C353.23 34.28 352.71 35.15 351.66 36.87H347.36C346.15 38.92 345.54 39.95 344.33 42H349.19C348.16 43.68 347.65 44.52 346.62 46.21H337.18H337.15Z" fill="white"/>
<path d="M390.58 84.93L389.72 83.93C386.92 81.44 382.42 79.07 376.33 76.87C371.58 75.16 366.76 73.91 362.03 73.15C361.24 73.02 360.5 73.07 359.78 73.26C359.49 73.11 359.19 72.98 358.87 72.88L357.66 72.62C351.32 72.09 346.41 72.68 342.8 74.39C342.96 74.01 343.05 73.82 343.09 73.77C343.06 73.82 342.88 74.14 342.51 74.52C342.42 74.56 342.33 74.6 342.25 74.65L343.51 73.05C343.69 72.64 343.81 72.28 343.9 71.97C344.34 70.41 344.16 68.81 343.4 67.46C342.85 66.48 341.73 65.18 339.57 64.57C338.6 64.3 337.49 64.23 335.95 64.33C335.51 64.36 335.29 64.34 335.31 64.35C335.18 64.31 334.8 64.18 334.13 63.8C332.79 63.05 331.92 62.66 331.1 62.44C330.16 62.2 329.21 62.14 328.29 62.27C325.77 61.84 323.36 61.35 321.12 60.82L320.18 60.69C319.49 60.66 317.84 60.75 316.32 61.96L314.25 61.35L313.41 60.33L310.53 58.63C307.1 57.98 303.75 57.34 300.48 56.7C298.57 56.33 296.66 55.96 294.75 55.61L294.1 55.53C290.15 55.41 287.79 57.94 287.32 60.58C287.29 60.74 287.27 60.93 287.26 61.11C286.95 60.63 286.62 60.19 286.24 59.81C285.88 59.37 285.05 58.25 283.7 56.44C282.05 54.22 279.74 52.71 277 52.04C275.39 51.37 273.2 50.86 270.35 50.48C263.32 49.54 257.7 49.75 253.63 51.08C250.01 51.7 246.44 53.95 242.99 57.77C243.22 56.48 243.34 56.04 243.37 55.93C243.35 56.01 243.12 56.73 242.42 57.48L243.63 55.17C243.73 54.73 243.78 54.34 243.8 54.01C244.04 50.63 241.6 47.88 238.07 47.62C237.1 47.56 236.02 47.7 234.55 48.08C234.14 48.19 233.92 48.21 233.91 48.22C233.83 48.22 233.49 48.16 232.74 47.91C231.26 47.42 230.3 47.2 229.45 47.16C228.44 47.1 227.5 47.25 226.61 47.58C224.06 47.63 221.62 47.64 219.33 47.59L218.77 47.61C218.08 47.68 216.99 47.95 215.95 48.71C212.69 47.91 209.42 47.13 205.94 46.34C202.48 45.71 198.43 45.91 195.14 47.17C194.91 47.26 193.93 47.57 191.06 47.84C188.22 48.19 186.32 48.84 184.93 49.92C184.8 49.98 184.47 50.1 183.81 50.25C183.26 50.37 182.67 50.57 182.09 50.88L182 50.77C175.69 52.08 170.97 52.83 167.57 53.06C165.89 53.17 165.05 53.1 164.72 53.06C164.11 52.81 163.47 52.69 162.81 52.64C162.36 51.3 161.61 50.4 160.96 49.85C159.74 48.83 158.13 48.34 156.5 48.5C155.87 48.56 155.23 48.7 154.58 48.93C149.64 48.91 144.89 49.14 140.44 49.67C132.9 50.58 127.94 52.09 124.99 54.37C121.22 56.17 118.03 59.96 115.51 65.64L115.65 66.11L114.77 66.51C114.03 68.85 113.65 71.55 113.64 74.65C112.88 74.15 112.05 73.8 111.16 73.68C111.13 72.52 111.04 70.86 110.85 68.41C110.68 66.2 110.59 64.79 110.56 64.18C110.67 63.1 110.63 62.12 110.45 61.21C110 58.89 108.75 57.62 107.78 56.97C106.45 56.08 104.8 55.76 103.18 56.08C102.26 56.26 101.35 56.62 100.33 57.24C99.9 57.42 98.4 57.91 93.21 59.03L91.58 59.39C87.24 60.31 83.52 61.08 81.85 61.31L80.38 62.29L78.43 62.12C73.86 63.3 69.23 64.57 64.57 65.9C62.57 66.53 61.95 66.76 61.65 66.9C60.83 67.25 59.51 68.08 58.74 69.75C58.58 69.68 58.45 69.6 58.28 69.54L56.96 69.27C53.22 69.01 48.24 69.91 42.12 71.91C37.33 73.48 32.76 75.45 28.53 77.77C27.83 78.15 27.28 78.65 26.84 79.24C26.5 79.3 26.17 79.39 25.84 79.51L24.79 80.03C17.34 84.87 13.38 89.72 12.75 94.8C11.79 97.06 11.82 99.66 12.87 102.27C13.16 102.99 13.69 104.07 15.6 107.01L17.48 107.25L17.54 109.17C19.09 110.53 21.05 111.62 23.56 112.52C24.86 112.98 26.19 113.32 27.57 113.54C27.39 113.93 27.12 114.48 26.77 115.2L26.84 115.32C26.55 115.69 26.32 116.09 26.14 116.53C25.33 118.14 24.54 119.76 23.75 121.37C22.01 124.21 22.54 126.63 23.03 127.85C23.88 129.97 25.8 131.43 28.72 132.2C30.42 132.65 31.86 132.78 33.14 132.61C35.03 133.57 37.02 134.14 39.08 134.33C39.52 134.37 39.96 134.39 40.39 134.39C41.95 134.39 43.4 134.15 44.72 133.66C45.04 133.54 45.38 133.4 45.73 133.23L45.89 132.98C48.24 133.2 50.83 132.8 53.77 131.79C58.78 130.06 63.1 127.6 66.64 124.48C68.72 123.34 70.44 121.74 71.79 119.7C72.04 120.28 72.22 120.61 72.4 120.89L73.12 120.58L73.34 121.1C73.62 121.59 75 123.65 77.91 123.65C78.5 123.65 79.15 123.57 79.88 123.37C81.25 122.99 83.48 121.94 89.53 118.98C95.83 115.83 98.65 114.85 99.64 114.56C99.79 114.51 99.96 114.47 100.15 114.43C101.49 114.13 104.69 113.67 111.12 114L112.4 114.06C119.2 114.4 120.1 114.44 121.2 114.23V114.16L122.78 113.63C125.35 112.09 125.95 109.27 125.91 106.59C127.88 107.49 130.15 108.31 132.7 109.1L133.67 108.78C134.76 109.75 136.21 110.29 137.79 110.29C138.12 110.29 138.45 110.27 138.79 110.22C139.56 110.11 140.38 109.89 141.28 109.52L142.16 108.62C142.3 108.64 142.46 108.67 142.62 108.69C144.42 108.99 146.16 109.04 147.79 108.84L148.12 108.79C149.26 108.57 150.47 108.39 151.77 108.25C153.05 108.11 154.57 107.99 156.35 107.89C158.32 107.79 159.53 107.72 159.98 107.68C161.39 107.55 162.3 107.33 163.01 106.97C166.53 105.32 167.49 101.13 167.85 95.4C168.1 92.09 168.17 89.87 168.05 88.45C167.96 87.35 167.74 86.48 167.36 85.72L167.02 85.89L166.04 83.97C164.87 82.98 163.38 82.54 161.64 82.7C161.33 82.72 160.91 82.76 157.61 83.46C155.76 83.86 154.1 84.13 152.69 84.28C152.6 84.28 152.5 84.3 152.4 84.32C152.03 84.25 151.63 84.22 151.21 84.24C150.61 84.25 150.05 84.29 149.55 84.34C148.25 84.48 146.86 84.86 145.3 85.51C144.31 85.92 143.88 85.98 143.85 85.99C143.75 86 143.46 86.02 142.91 85.95H141.69C141.21 86.01 140.33 86.03 138.89 85.8C137.9 85.63 137.57 85.42 137.56 85.42C137.73 85.53 138.08 85.95 138.14 86.37L133.73 82.11C135.52 82.28 136.56 83.53 136.76 84.07C136.76 84.07 136.68 83.84 136.59 83.25C136.55 82.96 136.44 82.03 136.32 79.5C136.23 77.96 136.13 76.8 136.02 76.02C136 75.85 135.97 75.69 135.94 75.55C136.02 75.39 136.16 75.14 136.41 74.79C137.11 73.83 137.54 73.58 137.39 73.64L139.33 72.57C138.72 73.12 138.18 73.28 138.18 73.28C138.32 73.24 138.5 73.22 138.71 73.19C139.26 73.12 139.95 73.07 140.72 73.05C142.48 73.01 143.58 73.05 144.22 73.09C146.44 74.01 149.26 74.26 152.98 73.89C154.37 73.75 155.72 73.54 157 73.26L160.73 69.4C162.75 71.94 164.64 73.8 166.51 75C168.41 76.19 170.76 76.69 173.69 76.51C174.52 76.46 175.51 76.35 176.7 76.17C176.65 77.98 176.61 79.8 176.58 81.66V81.92C176.6 82.22 176.63 82.52 176.69 82.82L176.43 83.2C176.34 89.32 176.37 94.07 176.51 97.31C176.66 100.64 176.91 101.82 177.18 102.69C177.72 104.29 179.33 106.92 184.16 106.92C184.33 106.92 184.51 106.92 184.69 106.92C187.01 106.83 190.12 106.24 194.54 105.04C197.89 104.09 200.09 103.41 201.8 102.76C204.4 101.7 206 99.34 205.99 96.64C205.99 95.39 205.66 94.05 204.99 92.56L204.63 91.91C204.51 91.73 204.4 91.56 204.3 91.38C204.05 90.4 203.84 89.57 203.69 88.89L203.4 88.58C203.4 88.45 203.41 88.32 203.41 88.2L203.43 84.43C203.47 79.15 203.49 75.5 203.5 73.5C204.02 73.7 204.68 73.97 205.5 74.34C209.09 75.95 211.25 76.62 212.95 76.65C213.08 76.65 213.24 76.65 213.42 76.65C213.42 76.95 213.42 77.27 213.42 77.57C213.38 78.77 213.31 79.92 213.2 81.03L213.18 81.37C213.18 81.67 213.18 81.96 213.22 82.27L212.93 82.63C212.34 88.88 211.99 93.66 211.89 96.84C211.79 100.11 211.95 101.3 212.19 102.28C212.66 103.92 214.21 106.71 219.33 106.91C219.56 106.91 219.8 106.92 220.05 106.92C222.29 106.92 225.24 106.56 229.29 105.79C232.72 105.1 234.96 104.59 236.79 104.06C238.39 103.52 239.64 102.52 240.43 101.21C242.26 102.82 244.55 104.4 247.22 106.05L248.25 105.98C249.24 107.44 250.87 108.43 252.86 108.65C253.63 108.74 254.47 108.72 255.41 108.59L256.49 107.93C256.62 107.99 256.76 108.05 256.91 108.11C258.58 108.85 260.25 109.33 261.88 109.54L262.99 109.56C263.21 109.56 263.53 109.59 263.92 109.65C264.79 109.77 265.91 109.98 267.27 110.28H269.4C270.71 109.98 272.02 109.69 273.34 109.4C275.17 109.36 277.28 108.95 279.4 107.84C279.38 108.29 279.4 108.65 279.44 109.03C280.07 113.2 284.52 114.05 286.22 114.37L286.82 114.47C290.95 114.95 295.14 115.49 299.26 116.09L302.77 115.26C303.02 115.08 303.27 114.89 303.51 114.67C304.19 116.45 305.91 118.29 309.86 119.25C312.01 119.78 314.87 120.13 318.66 120.33C320.2 120.38 321.48 120.41 322.56 120.41C323.69 120.41 324.61 120.38 325.38 120.32C327.35 120.14 329.02 119.19 330.11 117.73C330.73 118.36 331.37 118.88 332.03 119.27C332.93 121.19 334.13 122.86 335.63 124.27C337.15 125.67 338.78 126.66 340.5 127.22C340.82 127.32 341.16 127.41 341.53 127.49L341.83 127.39C343.55 129.01 345.84 130.29 348.78 131.29C353.79 133 358.72 133.74 363.45 133.44C364.22 133.57 365 133.63 365.77 133.63C369.76 133.63 373.72 131.96 377.55 128.66C379.43 127.1 381.24 125.15 382.91 122.86L383.7 121.21C385.03 116.15 384.88 111.62 383.23 107.72C382.82 106.74 382.17 105.9 381.31 105.19L381.18 104.23C380.43 103.23 379.57 102.29 378.59 101.42L381.34 101.18C383.76 98.94 386.2 96.72 388.67 94.52C390.1 93.74 391.09 92.66 391.62 91.31C392.39 89.36 392.05 87.23 390.6 84.99L390.58 84.93ZM335.61 95.36C335.96 96.05 336.34 96.76 336.79 97.48C337.53 98.64 338.37 99.73 339.31 100.76C338.93 100.95 338.38 101.23 337.66 101.59V101.73C337.21 101.84 336.8 102.01 336.41 102.22C335.32 102.75 334.23 103.28 333.15 103.81C334.17 100.31 334.99 97.49 335.61 95.35V95.36ZM265.51 87.83C265.77 87.27 266.27 86.47 267.17 85.85L265.57 87.83C265.57 87.83 265.53 87.83 265.51 87.83ZM257.39 81.75C257.44 81.33 257.59 80.24 258.1 77.71C258.39 76.19 258.58 75.04 258.67 74.26C259.49 73.85 260.23 73.62 260.82 73.61L263.96 72.43C263.85 72.52 263.74 72.57 263.71 72.58C263.71 72.58 263.92 72.52 264.44 72.58C264.47 72.58 265.06 72.68 266.92 73.3C267.02 74.59 266.99 77.16 266.29 82C265.8 85.39 265.53 87.03 265.4 87.83C265.27 87.83 265.1 87.82 264.88 87.79C264.35 87.72 264.1 87.62 264.02 87.58L260.7 89.41L260.18 88C260.88 88.11 261.29 88.35 261.3 88.36C261.25 88.33 260.78 88.04 259.4 86.84C258.24 85.83 258.09 85.3 258.11 85.26L254.9 80.12C256.57 80.73 257.28 82.18 257.34 82.75C257.34 82.74 257.31 82.45 257.38 81.74L257.39 81.75ZM62.57 86.62C62.76 87.28 62.78 87.54 62.78 87.55C62.6047 85.4469 65.8088 95.81 63.54 90.3C63.59 90.42 63.63 90.58 63.69 90.78C63.73 90.91 63.77 91.1 63.81 91.26C63.63 91.24 63.47 91.19 63.29 91.19L62.6 90.51C61.4 90.17 60.14 89.96 58.82 89.87L60.86 87.99C61.09 86.6 61.33 85.22 61.57 83.83C62.2 85.48 62.46 86.28 62.56 86.64L62.57 86.62ZM142.58 108.06L143.99 106.61C143.8 107.12 143.29 107.7 142.58 108.06ZM203.45 72.43V72.39C203.49 72.33 203.55 72.26 203.61 72.17L204.03 72.01C203.84 72.18 203.64 72.32 203.44 72.44L203.45 72.43ZM257.04 107.51L258.76 106.46C258.45 106.91 257.81 107.34 257.04 107.51Z" fill="black"/>
<path d="M40.34 128.83C40.06 128.83 39.77 128.82 39.48 128.79C37.95 128.65 36.44 128.16 34.99 127.33L35.12 124.62L33.94 124.37C33.06 126.63 32.7 126.99 32.64 127.04C32.49 127.09 32.24 127.13 31.94 127.13C31.45 127.13 30.83 127.03 30.09 126.83C28.58 126.43 28.21 125.99 28.11 125.76C27.93 125.32 28.07 124.75 28.51 124.08C29.41 122.24 30.28 120.46 31.17 118.69C31.24 118.69 31.61 118.59 32.88 118.48C34.3 118.36 34.75 118.24 34.96 118.17C35.25 118.06 35.45 117.89 35.56 117.66L36.01 116.78C36.01 116.78 33.08 116.72 32.11 116.71C32.57 115.76 32.79 115.28 32.89 115C33.19 114.47 33.54 114.14 33.97 113.98C34.07 113.94 34.18 113.92 34.28 113.92C34.53 113.92 34.82 114.03 35.12 114.26C37.17 116.08 39.99 117.02 43.46 117.02C45.71 117.02 48.32 116.62 51.22 115.84C54.86 113.11 56.24 110.94 55.64 109.1C55.23 107.84 53.88 106.9 51.63 106.3L51.46 106.25L51.29 106.31C48.4 107.23 43.66 107.78 36.41 108.01C36.35 107.63 36.2 107.22 36.08 106.89C35.43 105.12 34.45 103.19 33.17 101.17C31.5 98.64 30.22 97.46 29.13 97.46L29.07 98.69C29.07 98.69 29.51 99.04 30.94 101.43C32.1 103.37 32.97 105.12 33.54 106.65C34.03 107.99 33.94 108.32 33.94 108.33C33.68 108.31 33.41 108.31 33.13 108.31C32.63 108.31 32.1 108.33 31.58 108.33C29.4 108.33 27.3 107.98 25.35 107.29C23.84 106.75 22.59 106.11 21.63 105.4C22.7 104.22 23.78 102.61 24.92 100.49C26.61 97.22 26.62 96.88 26.48 96.52L26.15 95.65L25.46 96.24C25.37 96.33 25.23 96.5 24.92 97.05C23.73 99.12 22.01 101.25 19.79 103.38C18.78 101.8 18.16 100.74 17.95 100.21C17.36 98.73 17.39 97.51 18.04 96.48L18.13 96.33V96.15C18.19 92.68 21.5 88.71 27.72 84.67C27.73 84.7 27.78 84.79 27.84 84.95C27.95 85.26 28.02 85.71 28.04 86.26C28.06 86.85 28.06 87.26 28.04 87.5L29.2 87.82C29.38 87.45 29.7 86.56 30.26 84.84C30.88 82.92 31.16 82.6 31.19 82.57C35.06 80.45 39.32 78.61 43.78 77.15C48.68 75.55 52.66 74.74 55.62 74.74C55.94 74.74 56.25 74.74 56.54 74.77C57.47 75.12 57.57 75.43 57.57 75.44C57.59 75.5 57.62 75.75 57.27 76.36C56.6 79.9 56.02 83.25 55.48 86.6C48.44 87.22 42.93 88.15 39.54 89.32C38.36 89.72 37.58 90.13 37.15 90.57C35.35 91.65 34.19 92.64 33.72 93.49C33.17 94.45 33.14 95.61 33.62 96.94L33.8 97.42L34.01 97.53C35.5 98.29 37.34 98.68 39.48 98.68C42.42 98.68 45.95 97.99 50.29 96.57L51.6 96.15C53.61 95.6 55.54 95.32 57.31 95.32C58.31 95.32 59.28 95.41 60.19 95.59C60.02 95.77 59.79 96 59.5 96.29L58.92 97.09L59.77 97.95C60.45 97.48 61.19 97.12 61.96 96.89C62.39 96.76 62.77 96.69 63.08 96.69C63.32 96.69 63.52 96.73 63.67 96.81C66.24 98.26 68.33 100.85 69.9 104.51C69.93 106.67 69.75 108.86 69.33 110.8C68.42 115.4 66.52 118.34 63.51 119.79C60.25 122.76 56.51 124.92 51.92 126.5C50.11 127.13 48.48 127.45 47.09 127.45C46.64 127.45 46.22 127.42 45.81 127.35L45.55 127.31L45.48 127.37C45.4 127.01 45.31 126.36 45.21 125.03C45.13 123.83 45.01 123.04 44.84 122.56C44.78 122.39 44.7 122.26 44.62 122.15L44.44 121.92L44.1 121.87H43.97L43.84 121.93C43.43 122.08 43.28 122.13 42.95 128.36C42.89 128.38 42.84 128.41 42.78 128.43C42.07 128.69 41.26 128.82 40.36 128.82L40.34 128.83ZM53.8 105.76C54.64 105.94 55.58 106.52 56.48 107.46L57.48 106.78L56 103.54C56 103.54 52.83 104.37 51.49 104.72L51.76 105.92C52.41 105.8 53.02 105.74 53.56 105.74H53.8V105.76ZM365.7 128.05C365.08 128.05 364.45 127.98 363.83 127.85C362.89 127.9 362.13 127.93 361.37 127.93C357.9 127.93 354.25 127.28 350.53 126.01C348.13 125.19 346.33 124.15 345.2 122.93L345.02 122.73H344.93C345.09 122.4 345.42 121.83 346.15 120.72C346.82 119.72 347.21 119.03 347.37 118.54C347.42 118.39 347.45 118.23 347.45 118.08V117.62L347 117.42C347 117.42 346.93 117.42 346.89 117.42C346.43 117.42 345.98 117.72 342.32 121.94C342.26 121.93 342.2 121.91 342.15 121.89C341.21 121.59 340.27 121.01 339.36 120.16C338.24 119.11 337.36 117.8 336.74 116.26L338.51 114.2L337.73 113.27C335.66 114.52 335.16 114.58 335.08 114.58C334.78 114.48 334.15 114.1 333.21 112.85C332.28 111.62 332.25 111.03 332.32 110.8C332.45 110.34 332.9 109.97 333.66 109.72C335.49 108.82 337.26 107.95 339.04 107.1C339.08 107.14 339.42 107.28 340.5 107.99C341.68 108.76 342.1 108.95 342.33 109.02L342.42 109.05L342.7 109.08C342.85 109.08 342.99 109.05 343.12 108.99L343.98 108.57C343.98 108.57 341.73 106.74 340.98 106.13C341.92 105.66 342.39 105.42 342.64 105.26C342.99 105.12 343.31 105.04 343.61 105.04C343.78 105.04 343.95 105.07 344.11 105.11C344.34 105.18 344.65 105.35 344.85 106.04C345.68 110.55 349.51 114.2 356.55 117.17L357.07 117.22C361.21 117.22 363.54 116.35 364.19 114.57C364.64 113.31 364.17 111.78 362.74 109.9L362.63 109.76L362.46 109.7C359.59 108.64 355.52 106.16 349.69 101.9C349.84 101.62 349.97 101.25 350.11 100.81C350.69 99.01 351.1 96.89 351.33 94.51C351.57 91.49 351.28 89.77 350.43 89.11L349.63 90.04C349.63 90.04 349.75 90.59 349.42 93.35C349.14 95.59 348.75 97.51 348.26 99.06C347.83 100.42 347.55 100.63 347.54 100.63C345.08 98.96 342.97 96.93 341.45 94.54C340.6 93.19 340.01 91.92 339.7 90.77C341.25 90.49 343.09 89.88 345.28 88.92C348.61 87.38 348.82 87.11 348.93 86.74L349.2 85.85L348.3 85.89C348.17 85.9 347.97 85.95 347.38 86.19C345.18 87.1 342.53 87.72 339.5 88.04C339.68 86.17 339.85 84.95 340 84.42C340.44 82.88 341.21 81.94 342.35 81.53L342.52 81.47L342.63 81.33C344.41 79.1 348.03 77.97 353.37 77.97C354.55 77.97 355.83 78.03 357.17 78.14C357.16 78.17 357.15 78.27 357.09 78.43C356.99 78.75 356.77 79.14 356.44 79.59C356.09 80.07 355.84 80.4 355.68 80.57L356.4 81.54C356.77 81.36 357.57 80.85 359.06 79.84C360.7 78.73 361.12 78.63 361.19 78.62C365.54 79.33 370.03 80.5 374.45 82.09C379.79 84.02 383.8 86.09 386.04 88.07C386.56 88.92 386.45 89.22 386.45 89.23C386.43 89.28 386.32 89.5 385.65 89.77C382.94 92.14 380.41 94.44 377.91 96.74C371.94 92.88 367.01 90.23 363.62 89.07C362.63 88.73 361.87 88.57 361.29 88.57C361.17 88.57 361.06 88.57 360.96 88.59C360.22 88.49 359.44 88.44 358.78 88.44C357.77 88.44 357.01 88.55 356.47 88.79C355.45 89.21 354.7 90.11 354.27 91.45L354.19 91.68L354.21 92.15C355.87 95.71 360.27 98.74 367.65 101.4L368.95 101.87C372.01 103.14 374.41 104.77 376.1 106.72C375.85 106.75 375.53 106.79 375.12 106.84L374.32 107.06L374.3 108.31C375.14 108.37 375.95 108.54 376.69 108.83C377.46 109.13 377.96 109.48 378.11 109.83C379.26 112.56 379.33 115.89 378.31 119.75C377 121.47 375.51 123.09 373.98 124.35C371.08 126.84 368.37 128.05 365.69 128.05H365.7ZM363.07 109.67C363.76 110.03 364.34 110.41 364.79 110.79C365.35 111.45 365.73 112.48 365.86 113.79L367.07 113.87L367.89 110.4C367.89 110.4 364.87 109.1 363.59 108.56L363.06 109.67H363.07ZM78.21 118.05C78.45 117.51 79.09 116.01 81.01 112.51L80.02 111.8C78.04 113.99 76.97 115.45 76.42 116.46C75.96 115.21 75.25 113.05 74.13 109.39C73.67 107.87 73.25 106.43 72.86 105.05C71.93 101.78 71.18 98.87 70.64 96.4L74.19 93.87L72.49 93.75C72.04 93.72 71.47 93.57 70.81 93.33C69.96 92.86 69.81 92.52 69.78 92.43C69.49 91.06 69.25 90.03 69.04 89.29C68.81 88.47 68.6 87.9 68.32 87.58C68.34 86.98 68.2 86.19 67.9 85.14C67.6 84.09 66.93 82.26 65.9 79.71C64.85 77.11 64.21 75.37 63.94 74.4C63.43 72.6 63.65 72.06 63.79 72.01C64.08 71.88 64.87 71.62 66.19 71.2C70.61 69.93 75.12 68.7 79.58 67.55L81.81 68.56L82.87 66.76C84.81 66.47 88.3299 65.73 92.7 64.81L94.36 64.45C99.59 63.32 102.11 62.63 103.05 62.06C103.64 61.69 103.99 61.57 104.19 61.53C104.25 61.53 104.3 61.53 104.35 61.53C104.65 61.53 104.88 61.63 105.01 62.29C105.09 62.71 105.1 63.23 105.03 63.84V63.82C104.99 64.22 105.05 65.28 105.32 68.85C105.4 69.89 105.47 70.82 105.51 71.64L104.41 71.53L103.03 75.79L103.19 75.82C102.24 75.96 100.91 76.14 99.22 76.36C96.43 76.74 94.13 77.12 92.57 77.47C90.3 77.99 88.72 78.76 87.87 79.78C87.68 79.6 87.44 79.46 87.15 79.37C87.08 79.35 87.03 79.32 86.98 79.3C86.98 79.29 86.99 79.27 87 79.25C87.16 78.89 87.26 78.5 87.29 78.11C87.33 77.89 87.32 77.64 87.27 77.4C87.06 76.51 86.2199 75.93 84.77 75.66L82.53 75.25L84.26 76.73C85.15 77.49 85.41 77.99 85.48 78.27C85.48 78.3 85.52 78.56 85.25 79.58L85.19 79.82L85.89 81.09C85.65 82.42 85.66 82.94 85.71 83.22C85.71 83.22 85.7 83.22 85.68 83.22C85.59 83.22 85.3 83.43 84.55 83.75C84.31 83.75 83.95 83.79 83.62 83.79C83.05 83.79 82.61 83.71 82.31 83.54C82.07 83.43 81.84 83.39 81.57 83.39C81.27 83.39 80.93 83.44 80.52 83.55C79.57 83.79 78.62 84.22 77.71 84.81C77.31 85.07 76.09 85.87 76.25 86.93C76.31 87.25 76.37 87.55 76.45 87.85C76.98 89.84 78.26 91.09 80.27 91.57C80.35 91.95 80.31 92.48 80 93.4C79.72 94.29 79.42 95.17 79.08 96.05L80.19 96.57C82.33 92.81 82.41 91.57 82.24 90.91C82.16 90.59 82.02 90.38 80.03 89.49C79.13 89.1 78.56 88.39 78.28 87.32C78.24 87.17 78.21 87.01 78.19 86.84C78.1 86.1 79.41 85.65 80.2 85.45C80.48 85.38 80.73 85.34 80.94 85.34C81.17 85.34 81.35 85.38 81.49 85.46C81.83 85.63 82.24 85.7 82.79 85.7C83.76 85.7 85.2 85.47 87.18 84.99C87.47 84.92 93.91 83.28 94.03 83.25C94.04 83.76 94.11 84.29 94.21 84.84H95.42C95.75 83.09 96.17 82.39 96.46 82.1C96.49 82.08 97.04 81.74 100.75 80.96C103.13 80.46 106.21 79.91 109.66 79.37C109.95 79.26 110.07 79.22 110.17 79.2C110.2 79.2 110.23 79.2 110.26 79.2C110.47 79.2 110.73 79.27 111.02 79.83C111.08 79.95 111.17 80.15 111.24 80.53C111.49 81.84 111.51 84.32 111.31 88.13C111.12 88.51 110.72 88.94 110.11 89.24C103.25 90.84 96.68 92.46 90.51 93.97C90.03 93.77 89.6199 93.47 89.27 93.06C89.03 92.72 88.93 92.49 88.9 92.36C88.86 92.21 89.09 92.08 89.25 92.04C89.63 91.95 89.9 91.79 90.04 91.55L90.17 91.33L90.13 90.92C90.04 90.53 89.73 90.18 89.15 89.84L88.87 89.67L88.57 89.81C87.64 90.26 86.6499 91.27 87.2 93.53C88.49 95.39 89.21 96.74 89.46 97.75C89.77 99.05 89.62 100.22 88.98 101.3L90.03 101.94C90.6199 101.02 91.08 100.18 91.42 99.45C96.89 97.79 102.17 96.4 107.14 95.34C107.17 95.46 107.21 95.62 107.26 95.85C107.39 96.51 107.58 97.42 108.28 97.42C108.76 97.33 109.03 97.09 109.77 95.75C110.29 94.81 110.47 94.63 110.49 94.62C112.78 94.24 114.72 94.01 116.05 94.01C117.38 94.01 117.68 94.27 117.68 94.27C118.36 95.67 119.08 98.53 119.86 102.91C120.67 107.45 120.17 108.53 119.94 108.78C119.81 108.79 119.69 108.79 119.52 108.79C118.48 108.79 116.14 108.67 112.6 108.49L111.32 108.43C109.7 108.35 108.2 108.31 106.82 108.31C103.52 108.31 100.84 108.54 98.84 109C98.5 109.08 98.2 109.16 97.91 109.25C95.64 109.93 91.76 111.61 86.98 114C82.7 116.1 79.35 117.73 78.32 118.01C78.27 118.02 78.23 118.04 78.19 118.05H78.21ZM105.28 103.92C105.04 104 104.6 104.21 103.47 105C102.83 105.45 102.08 105.77 101.24 105.95L100.64 106.08L100.46 106.74C100.58 107.29 101.19 107.47 102.62 107.71L102.75 107.73L103.05 107.66C104.22 107.41 105.2 106.46 106.04 104.76L106.71 103.4L105.28 103.91V103.92ZM322.55 114.84C321.5 114.84 320.26 114.81 318.82 114.76C315.47 114.58 312.95 114.29 311.14 113.84C308.84 113.28 308.62 112.68 308.61 112.5C308.59 112.28 308.61 111.82 308.84 110.88C308.99 110.24 309.21 109.47 309.49 108.56C310.4 105.72 311.3 102.86 312.18 99.98L312.26 99.7L311.77 98.97C310.85 97.59 310.24 96.68 309.97 96.25C309.03 94.66 308.39 93.23 308.08 92.02L308.03 91.81L307.86 91.68C307.41 91.34 306.83 90.64 306.14 89.59L305.02 90.03C305.16 90.87 304.99 93.33 303.45 100.29C301.89 107.31 300.6 109.77 299.73 110.56C296.6 110.11 293.44 109.69 290.29 109.31L289.59 107.8C289.14 106.82 288.64 105.87 288.09 104.97L287.39 102.12L287.02 100.65L286.27 101.96C286.15 102.17 285.98 102.58 285.75 103.81C285.63 104.46 285.53 105.2 285.45 106.03C285.4 106.44 285.37 106.77 285.37 107.02L285.34 107.2L285.4 107.3C285.43 107.45 285.5 107.56 285.62 107.63V107.65L285.68 107.66C285.74 107.69 285.82 107.7 285.91 107.71L286.44 107.77V107.71C286.71 107.69 286.99 107.65 287.32 107.59L289.61 109.23C288.87 109.14 288.13 109.05 287.39 108.97L287.15 108.92C285.09 108.53 284.83 108.16 284.82 108.14C284.82 108.12 284.83 107.61 285.29 105.06C286.91 96.13 288.99 86.6 291.47 76.71C292.96 77.9 294.44 79.1 295.91 80.31L297.24 81.4L296.9 79.71C296.85 79.46 296.74 78.94 294.19 76.44C291.93 74.35 291.63 73.79 291.59 73.67C291.47 73.3 291.4 72.67 291.62 71.45L291.7 70.98C291.94 69.91 292.06 69.55 292.1 69.44C292.48 69.01 292.75 68.42 292.88 67.68C293.03 66.88 293.01 65.76 292.84 64.25C292.64 62.53 292.66 61.84 292.71 61.57C292.74 61.39 292.8 61.05 293.63 61.05C295.59 61.39 297.49 61.75 299.37 62.12C302.58 62.75 305.87 63.38 309.23 64.01L310.79 65.91L312.1 65.02C312.47 66.08 312.48 66.7 312.4 67.03C312.34 67.29 312.21 67.53 311.99 67.78L311.83 67.96L311.9 69.42C311.04 70.6 310.86 71.06 310.81 71.32C310.737 71.36 311.057 72.4133 311.77 74.48C312.25 75.9 312.92 77.85 313.76 80.33C315.35 85.05 316.22 87.84 316.45 88.67L316.42 88.7L316.54 89.03C317.04 90.41 317.47 91.03 318.02 91.16H318.5L318.94 90.61C319 90.38 318.98 90.08 318.89 89.64C318.75 88.77 318.06 85.96 316.55 80.74C316.87 80.25 317.15 79.51 317.4 78.49C317.61 77.6 317.8 76.46 317.97 75.1C318.35 71.93 318.76 68.62 318.9 68.04C319.22 66.68 319.61 66.2 319.88 66.2C322.43 66.82 325.3 67.38 328.3 67.87L328.47 67.9L328.63 67.84C328.82 67.76 329.01 67.72 329.22 67.72C329.36 67.72 329.52 67.74 329.67 67.78C329.84 67.82 330.28 67.99 331.38 68.6C332.3 69.12 333.13 69.48 333.86 69.68C334.3 69.8 334.84 69.86 335.47 69.86C335.72 69.86 335.99 69.86 336.27 69.83C336.58 69.81 336.86 69.8 337.1 69.8C337.63 69.8 337.91 69.85 338.05 69.89C338.41 69.99 338.52 70.11 338.54 70.16C338.58 70.24 338.56 70.37 338.54 70.47C338.52 70.55 338.48 70.64 338.45 70.73C338.14 71.11 337.42 72.53 334.84 79.75C333.05 84.72 331.96 87.89 331.67 88.92C331.49 89.56 330.01 94.65 327.24 104.18C326.95 104.18 326.71 104.16 326.43 104.12C325.87 104.04 325.47 104 325.23 104C324.64 104 324.44 104.28 324.39 104.52L324.3 104.89L324.59 105.14C325.23 105.69 325.98 106.22 326.82 106.72C326.1 108.22 325.66 109.26 325.49 109.89C325.43 110.13 325.4 110.3 325.4 110.45C325.52 111.09 325.62 111.6 325.73 112.1C325.92 112.92 325.95 113.55 325.83 113.99C325.7 114.47 325.39 114.7 324.83 114.75C324.23 114.8 323.46 114.82 322.53 114.82L322.55 114.84ZM332.15 71.21C333.43 73.1 334.01 74.87 333.86 76.45L335.06 76.69L336.23 73.07C336.23 73.07 334.01 71.19 333.05 70.39L332.15 71.21ZM268.27 104.82C266.79 104.5 265.57 104.27 264.62 104.14C263.92 104.05 263.36 104 262.94 104C262.72 104 262.54 104.01 262.39 104.03C261.44 103.88 260.28 103.54 259.09 103.02C257.14 102.16 256.76 102.12 256.62 102.1L256.32 102.08C255.79 102.08 255.05 102.26 254.37 103.1C254.15 103.12 253.96 103.13 253.78 103.13C253.65 103.13 253.52 103.13 253.41 103.11C252.71 103.03 252.7 102.74 252.68 102.54C252.64 101.88 252.61 101.22 252.58 100.57L252.56 100.05L251.92 99.83H251.89C251.51 99.83 251.07 99.95 249.68 101.05C244.09 97.57 241.33 94.94 241.47 93.23V93.1L241.44 92.98C241.3 92.57 241.11 91.36 241 88C240.88 84.73 240.95 81.46 241.21 78.28C241.72 71.95 242.9 67.11 244.72 63.86C245.66 64.57 246.83 65.43 248.22 66.44C248.6 66.68 248.97 66.8 249.36 66.84C249.47 66.84 249.58 66.85 249.7 66.85C250.7 66.85 251.81 66.45 253.08 65.63L254.7 66.92L254.93 65.99C254.98 65.79 255.01 65.6 255.03 65.44C255.1 64.79 254.97 63.65 253.37 63.24C253.37 63.24 253.07 63.21 253.06 63.21C252.2 63.21 251.51 63.55 250.82 64.21C250.03 64.96 249.6 65.08 249.41 65.08C248.74 65.02 247.77 64.56 245.98 62.71C249.06 58.92 252.04 56.83 254.85 56.48C256.86 55.77 259.33 55.42 262.33 55.42C264.48 55.42 266.92 55.6 269.59 55.95C272.19 56.3 274.06 56.74 275.17 57.28C276.98 57.65 278.3 58.47 279.25 59.74C281.46 62.71 282.01 63.43 282.21 63.61C283.29 64.62 284.49 68.06 284.03 78.69C284.03 78.79 284.03 78.88 284.01 79.02C283.87 79.83 283.4 81.1 282.6 82.8L281.35 84.84L282.36 85.54C283.23 84.43 283.82 83.72 284.21 83.26C284.26 84.5 284.16 85.97 283.92 87.74C283.45 91.18 283.42 91.94 283.46 92.22C282.96 94.4 282.23 96.45 281.32 98.11C279.19 101.95 276.45 103.83 272.96 103.83H272.64C271.18 104.15 269.73 104.48 268.28 104.8L268.27 104.82ZM243.28 93.46C243.56 94.24 244.17 95.33 245.15 96.79C245.96 97.53 247.09 98.05 248.71 98.5L249.3 97.46C247.64 95.9 245.97 94.34 244.28 92.79L243.29 93.45L243.28 93.46ZM252.58 85.09C252.5 87.17 253.57 89.11 255.75 91.02C258.13 93.09 258.87 93.43 259.33 93.48L259.95 93.55L259.98 93.29C260.17 93.22 260.45 93.12 260.82 92.99C261.26 92.85 261.58 92.75 261.81 92.66C262.48 92.96 263.26 93.16 264.14 93.28C264.59 93.34 265.02 93.37 265.42 93.37C267.87 93.37 269.59 92.29 270.52 90.16C270.72 89.71 270.97 88.29 271.76 82.81C272.88 75.13 272.71 70.77 271.26 69.08L271.16 68.96L271.01 68.9C268.14 67.85 266.17 67.25 265.16 67.12C264.75 67.07 264.36 67.04 263.99 67.04C262.61 67.04 261.45 67.4 260.54 68.1C259.12 68.16 257.63 68.59 256.09 69.38C254.33 70.32 253.38 71.44 253.24 72.73L253.22 73.03C253.22 73.16 253.22 73.33 253.2 73.54C253.13 74.22 252.96 75.26 252.69 76.67C252.28 78.73 252.02 80.25 251.92 81.16C251.78 82.52 251.71 84.33 252.61 85.08L252.58 85.09ZM137.72 104.72C137.33 104.72 137.21 104.58 137.13 104.33C136.92 103.7 136.73 103.08 136.55 102.45L136.42 102.01L135.84 101.89C135.41 101.94 135.02 102.12 133.86 103.64C127.57 101.66 124.23 99.8 123.95 98.11L123.93 97.98L123.86 97.87C123.62 97.51 123.13 96.39 122.2 93.16C121.28 90.04 120.53 86.86 119.98 83.7C118.9 77.45 118.84 72.46 119.8 68.86C120.89 69.32 122.24 69.86 123.84 70.49C124.12 70.56 124.31 70.58 124.49 70.58L124.82 70.56C126.03 70.37 127.25 69.22 128.57 67.05L129.22 65.98L127.98 66.12C127.04 66.26 126.38 66.78 125.81 67.68C125.23 68.61 124.84 68.83 124.66 68.87L124.29 68.91C123.76 68.91 122.73 68.64 120.74 67.43C122.79 63 125.16 60.23 127.79 59.19C129.28 57.86 132.6 56.21 141.07 55.19C144.98 54.72 149.15 54.48 153.48 54.48C154.15 54.48 155.66 54.5 155.66 54.5L155.8 54.43C156.38 54.14 156.75 54.05 156.96 54.03H157.03C157.31 54.03 157.59 54.09 157.65 54.87C157.69 55.3 157.64 55.82 157.5 56.42C157.01 58.97 156.42 62.15 155.73 65.96C155.77 65.33 155.78 64.82 155.77 64.38L154.59 64.15C154.08 65.3 152.8 68.24 152.8 68.24L152.93 68.28C152.75 68.3 152.56 68.32 152.37 68.34C151.46 68.43 150.62 68.48 149.85 68.48C148.07 68.48 146.71 68.22 145.81 67.71C144.77 67.52 143.61 67.46 142.15 67.46C141.65 67.46 141.11 67.46 140.52 67.48C139.49 67.52 138.63 67.58 137.94 67.67C136.83 67.81 136.11 68.03 135.69 68.33C134.4 68.74 133.13 69.8 131.89 71.49C130.67 73.18 130.14 74.68 130.33 75.95L130.39 76.27C130.43 76.4 130.46 76.57 130.49 76.77C130.59 77.45 130.67 78.45 130.75 79.77C130.85 81.78 130.96 83.21 131.08 84.02C131.27 85.31 131.64 86.98 132.7 87.45C133.17 89.47 134.91 90.68 137.9 91.2C139.02 91.38 140.05 91.47 140.94 91.47C141.44 91.47 141.9 91.44 142.33 91.39C142.67 91.45 143.12 91.48 143.54 91.48C143.86 91.48 144.17 91.46 144.46 91.43C145.25 91.33 146.23 91.04 147.37 90.57C148.41 90.14 149.33 89.88 150.1 89.8C150.43 89.76 150.78 89.74 151.16 89.73C151.24 89.84 151.38 90.07 151.6 90.52C152.1 91.52 152.42 91.99 152.92 91.99C153.6 91.93 153.62 91.62 153.57 89.7C155.1 89.52 156.83 89.23 158.71 88.83C161.57 88.22 161.99 88.18 162.03 88.17H162.37C162.41 88.33 162.45 88.52 162.48 88.86C162.57 89.96 162.5 92.01 162.28 94.95C161.92 100.71 160.99 101.75 160.61 101.93C160.56 101.95 160.32 102.05 159.41 102.14C159 102.18 157.87 102.24 156.01 102.33C154.11 102.43 152.48 102.56 151.11 102.71C149.66 102.87 148.3 103.07 147.04 103.32C146.65 103.37 146.21 103.39 145.75 103.39C145.03 103.39 144.26 103.33 143.47 103.19C142.28 103 141.5 102.9 141.08 102.9C140.25 102.99 139.43 103.33 138.93 104.44C138.57 104.57 138.25 104.66 138 104.69C137.91 104.7 137.82 104.71 137.74 104.71L137.72 104.72ZM150.6 99.53C150.19 99.63 149.57 99.93 148.7 100.44C148.05 100.82 147.33 101.05 146.57 101.15L145.96 101.22L145.58 101.88C145.64 102.39 146.08 102.64 147.62 103.05L147.73 103.08L147.93 103.06C149.22 102.91 150.28 102.06 151.27 100.45L152.05 99.18L150.6 99.53ZM125.74 97.87C126.2 98.56 127.07 99.46 128.38 100.64C129.34 101.15 130.57 101.37 132.26 101.41L132.57 100.26C130.57 99.16 128.56 98.07 126.54 96.99L125.74 97.88V97.87ZM184.04 101.35C182.9 101.35 182.42 101.11 182.34 100.9C182.22 100.53 182.06 99.55 181.95 97.02C181.95 96.93 181.95 96.84 181.94 96.74L183.13 96.57L183.49 96.59C183.74 96.59 184.08 96.51 185.09 96.01L185.39 95.86L185.96 91.52L184.78 91.21L183.97 93.26C183.05 95.12 182.73 95.44 182.67 95.48L181.92 96.08C181.82 93.07 181.8 88.89 181.88 83.64L184.28 82.64L184.04 81.46H183.69C182.73 81.46 182.26 81.4 182.05 81.35C182.11 77.8 182.21 74.26 182.36 70.77L182.38 70.37L182.02 70.19C181.72 70.04 181.31 69.97 180.76 69.97H180.41C179.72 70.01 178.25 70.25 177.13 70.44C175.51 70.72 174.22 70.89 173.3 70.95C173.04 70.97 172.78 70.97 172.54 70.97C171.2 70.97 170.14 70.73 169.39 70.26C167.88 69.29 166.12 67.46 164.16 64.84C162.22 62.25 161.19 60.36 161.1 59.25C161.09 59.07 161.1 58.94 161.17 58.84C161.51 58.41 161.89 58.15 162.26 58.12H162.28C162.47 58.12 162.58 58.16 162.69 58.23C163.59 58.54 164.6 58.66 165.92 58.66C166.53 58.66 167.2 58.63 167.94 58.58C171.46 58.34 175.98 57.65 182.13 56.4C181.79 57.89 181.48 60.42 181.17 64.06L182.33 64.39C182.55 63.95 182.92 62.88 183.5 58.78C183.77 56.92 184.3 55.81 184.99 55.66C186.55 55.31 187.64 54.87 188.31 54.31C188.6 54.07 189.43 53.62 191.76 53.33C194.21 53.1 195.97 52.77 197.11 52.34C198.55 51.8 200.14 51.52 201.85 51.51C202.94 51.51 203.99 51.6 204.97 51.78C208.29 52.53 211.63 53.32 214.95 54.14C215.68 54.32 216.63 54.77 216.57 56.68C216.57 56.84 216.42 58.18 216.15 60.69C215.93 63.02 215.68 65.34 215.39 67.68C214.99 69.91 214.22 71.06 213.1 71.06C212.21 71.04 210.43 70.42 207.74 69.22C204.95 67.98 203.02 67.34 202.01 67.34C201.69 67.34 201.4 67.38 201.13 67.47C201.06 67.19 200.97 66.79 200.85 66.19C200.51 64.33 199.95 62.84 199.19 61.77C198.05 60.14 196.45 59.31 194.43 59.31C193.59 59.31 192.82 59.43 192.02 59.64L192.14 60.85C195.39 61.03 197.44 61.85 198.23 63.27C198.66 64.87 199.15 66.6 199.64 68.33C198.5 69.71 197.94 70.83 197.95 71.75C197.95 72.45 197.93 76.63 197.88 84.29L197.86 87.79C197.71 87.83 197.47 87.89 197.07 87.96C195.98 88.15 195.26 88.28 195.27 88.94V89.36L195.67 89.51C196.51 89.82 197.41 90.13 198.36 90.43C198.55 91.22 198.79 92.19 199.08 93.32C199.37 93.91 199.66 94.39 199.98 94.87C200.27 95.53 200.45 96.14 200.45 96.58C200.45 96.93 200.36 97.31 199.68 97.59C198.29 98.11 196.17 98.77 193.01 99.66C189.12 100.71 186.32 101.26 184.45 101.33H184.08L184.04 101.35ZM189.45 68.53C191.14 69.95 192.15 71.48 192.45 73.07L193.67 72.97L193.77 69.17C193.77 69.17 191.2 67.99 190.1 67.49L189.45 68.52V68.53ZM219.48 101.34C217.74 101.27 217.48 100.85 217.45 100.72C217.37 100.38 217.27 99.43 217.35 96.97C217.45 93.97 217.77 89.44 218.33 83.49C219.14 83.22 219.95 82.95 220.76 82.68L220.61 81.49C219.42 81.41 218.89 81.3 218.66 81.23C218.76 80.1 218.83 78.92 218.87 77.7C218.96 75.13 218.91 72.43 218.75 69.67C219.01 69.11 219.16 68.21 219.2 66.89C219.24 65.82 219.15 63.87 218.96 61.11C218.76 58.32 218.68 56.47 218.71 55.45C218.77 53.58 219.14 53.14 219.29 53.12C220.27 53.14 221.35 53.15 222.45 53.15C224.18 53.15 225.97 53.13 227.82 53.08H228.02L228.18 52.95C228.42 52.77 228.7 52.68 229.03 52.68C229.31 52.69 229.78 52.77 230.99 53.17C232.04 53.52 232.88 53.71 233.58 53.75H233.85C234.43 53.75 235.13 53.65 235.95 53.43C236.87 53.19 237.36 53.14 237.61 53.14C238.32 53.19 238.3 53.38 238.28 53.61C238.28 53.69 238.26 53.78 238.24 53.88C238 54.32 237.59 55.85 236.51 63.41C235.76 68.55 235.31 71.94 235.24 72.96C235.2 73.56 233.93 88.85 233.93 88.85C233.78 88.88 233.52 88.92 233.11 88.96C231.99 89.07 231.25 89.14 231.22 89.8L231.2 90.21L231.58 90.39C232.4 90.77 233.27 91.14 234.2 91.51C234.33 92.32 234.51 93.3 234.74 94.46C234.98 95.04 235.18 95.52 235.38 96C235.7 96.77 235.85 97.37 235.82 97.81C235.78 98.3 235.54 98.58 235 98.76C233.58 99.17 231.39 99.66 228.16 100.31C224.54 101 221.87 101.33 220.02 101.33H219.5L219.48 101.34ZM220.6 91.28C220.29 91.95 219.98 92.6 219.65 93.23C218.31 95.76 218.31 95.77 218.29 95.92L218.2 96.7L218.98 96.6C219.29 96.56 219.79 96.4 220.59 96.08L220.9 95.96L221.76 91.67L220.6 91.29V91.28ZM232.17 55.61C233.78 57.14 234.69 58.74 234.86 60.36H236.08L236.5 56.62C236.5 56.62 233.98 55.22 232.89 54.63L232.18 55.62L232.17 55.61ZM105.57 75.29C105.57 75.29 105.57 75.32 105.57 75.33C105.57 75.33 105.55 75.33 105.54 75.33C105.54 75.31 105.56 75.3 105.57 75.28V75.29Z" fill="#AACA4D"/>
</svg>
