<svg width="404" height="147" viewBox="0 0 404 147" fill="none" xmlns="http://www.w3.org/2000/svg">
<mask id="path-1-inside-1_647_26152" fill="white">
<path d="M400.65 78.41C400.36 77.95 400.03 77.52 399.68 77.11L398.82 76.11C398.47 75.7 398.09 75.32 397.69 74.96C393.69 71.4 388.04 68.34 380.4 65.58C375.08 63.66 369.68 62.25 364.36 61.37L390.71 18.26C392.97 14.56 393.06 9.92 390.94 6.13C388.82 2.34 384.81 0 380.47 0H23.37C19.03 0 15.03 2.34 12.9 6.13C10.78 9.92 10.86 14.55 13.13 18.26L38.85 60.34C38.68 60.4 38.51 60.45 38.33 60.51C32.84 62.3 27.58 64.57 22.7 67.25C21.86 67.71 21.07 68.23 20.33 68.81L19.43 69.25C19 69.46 18.59 69.7 18.19 69.96C8.20001 76.45 2.57001 83.59 1.02001 91.76C-0.539989 96.53 -0.319989 101.78 1.67001 106.74C2.40001 108.55 3.43001 110.39 5.47001 113.54C6.09001 114.49 6.82001 115.33 7.66001 116.06C8.20001 116.83 8.84001 117.55 9.57001 118.18C10.15 118.69 10.76 119.17 11.39 119.63C10.08 123.8 10.21 128.23 11.85 132.31C14.13 137.98 19.03 142.05 25.6 143.77C27.38 144.24 29.08 144.52 30.72 144.61C33.06 145.47 35.47 146.02 37.95 146.24H38.05C38.82 146.31 39.59 146.34 40.33 146.34C43.23 146.34 46.02 145.87 48.6 144.95C51.49 144.79 54.47 144.17 57.64 143.08C63.36 141.1 68.46 138.34 72.82 134.87C75.81 135.77 79.44 135.87 83.05 134.87C85.51 134.18 88.07 132.97 94.84 129.65C100.06 127.04 102.33 126.22 102.86 126.04C103.36 125.96 105.59 125.66 110.46 125.91L111.74 125.97C119.42 126.36 120.81 126.43 123.36 125.95C124.32 125.77 125.25 125.47 126.12 125.07L126.54 124.93C127.36 124.65 128.15 124.29 128.9 123.85C129.87 123.27 131.01 122.46 132.16 121.35C133.95 121.92 135.83 122.21 137.75 122.21C138.65 122.21 139.55 122.15 140.37 122.03C141.89 121.82 143.39 121.44 144.95 120.87C146.4 120.91 147.82 120.84 149.21 120.67C149.31 120.66 149.42 120.64 149.52 120.63L149.85 120.58C150.02 120.55 150.18 120.53 150.35 120.49C151.17 120.33 152.08 120.2 153.07 120.09C154.13 119.97 155.43 119.87 156.94 119.79C159.47 119.66 160.43 119.6 161.05 119.54C162.83 119.37 165.48 119 168.17 117.7C169.68 116.98 170.99 116.12 172.13 115.16C175.12 117.36 179.09 118.83 184.11 118.83C184.39 118.83 184.67 118.83 184.97 118.82C185.02 118.82 185.06 118.82 185.11 118.82C188.41 118.69 192.28 117.99 197.64 116.53C197.68 116.52 197.72 116.51 197.75 116.5C201.43 115.46 203.88 114.69 205.91 113.93C208.93 116.64 213.17 118.6 218.79 118.81C219.19 118.83 219.59 118.84 220.02 118.84C223.08 118.84 226.62 118.43 231.5 117.5C231.54 117.5 231.59 117.48 231.63 117.47C235.41 116.71 237.83 116.15 239.89 115.56C240.22 115.77 240.55 115.98 240.89 116.19C241.41 116.51 241.95 116.79 242.5 117.02C245.08 118.91 248.15 120.12 251.45 120.49C252.95 120.66 254.49 120.67 256.13 120.5C257.51 120.89 258.89 121.18 260.27 121.37C260.73 121.43 261.2 121.46 261.67 121.47H262.36C262.72 121.53 263.43 121.66 264.69 121.93C265.54 122.12 266.38 122.19 267.28 122.2H269.4C270.27 122.2 271.15 122.09 272 121.9C272.54 121.78 273.08 121.66 273.62 121.54C276.02 123.53 279.35 125.21 283.95 126.08C284.04 126.1 284.14 126.11 284.23 126.13L284.83 126.23C285.02 126.26 285.21 126.29 285.39 126.31C289.48 126.78 293.55 127.31 297.5 127.88C298.32 128 299.15 128.03 299.97 127.98C301.86 129.14 304.16 130.13 306.97 130.81C309.9 131.53 313.41 131.97 318 132.21C318.07 132.21 318.15 132.21 318.22 132.21C321.92 132.34 324.27 132.33 326.27 132.17C326.32 132.17 326.37 132.17 326.42 132.16C326.48 132.16 326.54 132.15 326.6 132.14C326.87 132.42 327.15 132.69 327.44 132.96C330.18 135.49 333.23 137.33 336.58 138.46C338.95 140.11 341.68 141.45 344.85 142.53C350.95 144.62 357.02 145.58 362.9 145.36C370.59 146.19 378.46 143.52 385.25 137.71C387.87 135.53 390.33 132.87 392.56 129.82C393 129.22 393.38 128.58 393.7 127.91L394.49 126.26C394.81 125.58 395.07 124.87 395.27 124.14C397.09 117.22 396.99 110.74 394.98 104.83C395.27 104.57 395.56 104.31 395.84 104.06C399.04 101.95 401.41 99.04 402.76 95.59C404.97 89.99 404.22 83.87 400.65 78.36V78.41Z"/>
</mask>
<path d="M400.65 78.41C400.36 77.95 400.03 77.52 399.68 77.11L398.82 76.11C398.47 75.7 398.09 75.32 397.69 74.96C393.69 71.4 388.04 68.34 380.4 65.58C375.08 63.66 369.68 62.25 364.36 61.37L390.71 18.26C392.97 14.56 393.06 9.92 390.94 6.13C388.82 2.34 384.81 0 380.47 0H23.37C19.03 0 15.03 2.34 12.9 6.13C10.78 9.92 10.86 14.55 13.13 18.26L38.85 60.34C38.68 60.4 38.51 60.45 38.33 60.51C32.84 62.3 27.58 64.57 22.7 67.25C21.86 67.71 21.07 68.23 20.33 68.81L19.43 69.25C19 69.46 18.59 69.7 18.19 69.96C8.20001 76.45 2.57001 83.59 1.02001 91.76C-0.539989 96.53 -0.319989 101.78 1.67001 106.74C2.40001 108.55 3.43001 110.39 5.47001 113.54C6.09001 114.49 6.82001 115.33 7.66001 116.06C8.20001 116.83 8.84001 117.55 9.57001 118.18C10.15 118.69 10.76 119.17 11.39 119.63C10.08 123.8 10.21 128.23 11.85 132.31C14.13 137.98 19.03 142.05 25.6 143.77C27.38 144.24 29.08 144.52 30.72 144.61C33.06 145.47 35.47 146.02 37.95 146.24H38.05C38.82 146.31 39.59 146.34 40.33 146.34C43.23 146.34 46.02 145.87 48.6 144.95C51.49 144.79 54.47 144.17 57.64 143.08C63.36 141.1 68.46 138.34 72.82 134.87C75.81 135.77 79.44 135.87 83.05 134.87C85.51 134.18 88.07 132.97 94.84 129.65C100.06 127.04 102.33 126.22 102.86 126.04C103.36 125.96 105.59 125.66 110.46 125.91L111.74 125.97C119.42 126.36 120.81 126.43 123.36 125.95C124.32 125.77 125.25 125.47 126.12 125.07L126.54 124.93C127.36 124.65 128.15 124.29 128.9 123.85C129.87 123.27 131.01 122.46 132.16 121.35C133.95 121.92 135.83 122.21 137.75 122.21C138.65 122.21 139.55 122.15 140.37 122.03C141.89 121.82 143.39 121.44 144.95 120.87C146.4 120.91 147.82 120.84 149.21 120.67C149.31 120.66 149.42 120.64 149.52 120.63L149.85 120.58C150.02 120.55 150.18 120.53 150.35 120.49C151.17 120.33 152.08 120.2 153.07 120.09C154.13 119.97 155.43 119.87 156.94 119.79C159.47 119.66 160.43 119.6 161.05 119.54C162.83 119.37 165.48 119 168.17 117.7C169.68 116.98 170.99 116.12 172.13 115.16C175.12 117.36 179.09 118.83 184.11 118.83C184.39 118.83 184.67 118.83 184.97 118.82C185.02 118.82 185.06 118.82 185.11 118.82C188.41 118.69 192.28 117.99 197.64 116.53C197.68 116.52 197.72 116.51 197.75 116.5C201.43 115.46 203.88 114.69 205.91 113.93C208.93 116.64 213.17 118.6 218.79 118.81C219.19 118.83 219.59 118.84 220.02 118.84C223.08 118.84 226.62 118.43 231.5 117.5C231.54 117.5 231.59 117.48 231.63 117.47C235.41 116.71 237.83 116.15 239.89 115.56C240.22 115.77 240.55 115.98 240.89 116.19C241.41 116.51 241.95 116.79 242.5 117.02C245.08 118.91 248.15 120.12 251.45 120.49C252.95 120.66 254.49 120.67 256.13 120.5C257.51 120.89 258.89 121.18 260.27 121.37C260.73 121.43 261.2 121.46 261.67 121.47H262.36C262.72 121.53 263.43 121.66 264.69 121.93C265.54 122.12 266.38 122.19 267.28 122.2H269.4C270.27 122.2 271.15 122.09 272 121.9C272.54 121.78 273.08 121.66 273.62 121.54C276.02 123.53 279.35 125.21 283.95 126.08C284.04 126.1 284.14 126.11 284.23 126.13L284.83 126.23C285.02 126.26 285.21 126.29 285.39 126.31C289.48 126.78 293.55 127.31 297.5 127.88C298.32 128 299.15 128.03 299.97 127.98C301.86 129.14 304.16 130.13 306.97 130.81C309.9 131.53 313.41 131.97 318 132.21C318.07 132.21 318.15 132.21 318.22 132.21C321.92 132.34 324.27 132.33 326.27 132.17C326.32 132.17 326.37 132.17 326.42 132.16C326.48 132.16 326.54 132.15 326.6 132.14C326.87 132.42 327.15 132.69 327.44 132.96C330.18 135.49 333.23 137.33 336.58 138.46C338.95 140.11 341.68 141.45 344.85 142.53C350.95 144.62 357.02 145.58 362.9 145.36C370.59 146.19 378.46 143.52 385.25 137.71C387.87 135.53 390.33 132.87 392.56 129.82C393 129.22 393.38 128.58 393.7 127.91L394.49 126.26C394.81 125.58 395.07 124.87 395.27 124.14C397.09 117.22 396.99 110.74 394.98 104.83C395.27 104.57 395.56 104.31 395.84 104.06C399.04 101.95 401.41 99.04 402.76 95.59C404.97 89.99 404.22 83.87 400.65 78.36V78.41Z" fill="white" stroke="#07090D" stroke-width="4" mask="url(#path-1-inside-1_647_26152)"/>
</svg>
