<svg width="284" height="284" viewBox="0 0 284 284" fill="none" xmlns="http://www.w3.org/2000/svg">
<g clip-path="url(#clip0_647_26149)">
<path d="M0 -51L-390 339" stroke="black" stroke-width="1.5"/>
<path d="M5 -51L-385 339" stroke="black" stroke-width="1.5"/>
<path d="M10 -51L-380 339" stroke="black" stroke-width="1.5"/>
<path d="M15 -51L-375 339" stroke="black" stroke-width="1.5"/>
<path d="M20 -51L-370 339" stroke="black" stroke-width="1.5"/>
<path d="M25 -51L-365 339" stroke="black" stroke-width="1.5"/>
<path d="M30 -51L-360 339" stroke="black" stroke-width="1.5"/>
<path d="M35 -51L-355 339" stroke="black" stroke-width="1.5"/>
<path d="M40 -51L-350 339" stroke="black" stroke-width="1.5"/>
<path d="M45 -51L-345 339" stroke="black" stroke-width="1.5"/>
<path d="M50 -51L-340 339" stroke="black" stroke-width="1.5"/>
<path d="M55 -51L-335 339" stroke="black" stroke-width="1.5"/>
<path d="M60 -51L-330 339" stroke="black" stroke-width="1.5"/>
<path d="M65 -51L-325 339" stroke="black" stroke-width="1.5"/>
<path d="M70 -51L-320 339" stroke="black" stroke-width="1.5"/>
<path d="M75 -51L-315 339" stroke="black" stroke-width="1.5"/>
<path d="M80 -51L-310 339" stroke="black" stroke-width="1.5"/>
<path d="M85 -51L-305 339" stroke="black" stroke-width="1.5"/>
<path d="M90 -51L-300 339" stroke="black" stroke-width="1.5"/>
<path d="M95 -51L-295 339" stroke="black" stroke-width="1.5"/>
<path d="M100 -51L-290 339" stroke="black" stroke-width="1.5"/>
<path d="M105 -51L-285 339" stroke="black" stroke-width="1.5"/>
<path d="M110 -51L-280 339" stroke="black" stroke-width="1.5"/>
<path d="M115 -51L-275 339" stroke="black" stroke-width="1.5"/>
<path d="M120 -51L-270 339" stroke="black" stroke-width="1.5"/>
<path d="M125 -51L-265 339" stroke="black" stroke-width="1.5"/>
<path d="M130 -51L-260 339" stroke="black" stroke-width="1.5"/>
<path d="M135 -51L-255 339" stroke="black" stroke-width="1.5"/>
<path d="M140 -51L-250 339" stroke="black" stroke-width="1.5"/>
<path d="M145 -51L-245 339" stroke="black" stroke-width="1.5"/>
<path d="M150 -51L-240 339" stroke="black" stroke-width="1.5"/>
<path d="M155 -51L-235 339" stroke="black" stroke-width="1.5"/>
<path d="M160 -51L-230 339" stroke="black" stroke-width="1.5"/>
<path d="M165 -51L-225 339" stroke="black" stroke-width="1.5"/>
<path d="M170 -51L-220 339" stroke="black" stroke-width="1.5"/>
<path d="M175 -51L-215 339" stroke="black" stroke-width="1.5"/>
<path d="M180 -51L-210 339" stroke="black" stroke-width="1.5"/>
<path d="M185 -51L-205 339" stroke="black" stroke-width="1.5"/>
<path d="M190 -51L-200 339" stroke="black" stroke-width="1.5"/>
<path d="M195 -51L-195 339" stroke="black" stroke-width="1.5"/>
<path d="M200 -51L-190 339" stroke="black" stroke-width="1.5"/>
<path d="M205 -51L-185 339" stroke="black" stroke-width="1.5"/>
<path d="M210 -51L-180 339" stroke="black" stroke-width="1.5"/>
<path d="M215 -51L-175 339" stroke="black" stroke-width="1.5"/>
<path d="M220 -51L-170 339" stroke="black" stroke-width="1.5"/>
<path d="M225 -51L-165 339" stroke="black" stroke-width="1.5"/>
<path d="M230 -51L-160 339" stroke="black" stroke-width="1.5"/>
<path d="M235 -51L-155 339" stroke="black" stroke-width="1.5"/>
<path d="M240 -51L-150 339" stroke="black" stroke-width="1.5"/>
<path d="M245 -51L-145 339" stroke="black" stroke-width="1.5"/>
<path d="M250 -51L-140 339" stroke="black" stroke-width="1.5"/>
<path d="M255 -51L-135 339" stroke="black" stroke-width="1.5"/>
<path d="M260 -51L-130 339" stroke="black" stroke-width="1.5"/>
<path d="M265 -51L-125 339" stroke="black" stroke-width="1.5"/>
<path d="M270 -51L-120 339" stroke="black" stroke-width="1.5"/>
<path d="M275 -51L-115 339" stroke="black" stroke-width="1.5"/>
<path d="M280 -51L-110 339" stroke="black" stroke-width="1.5"/>
<path d="M285 -51L-105 339" stroke="black" stroke-width="1.5"/>
<path d="M290 -51L-100 339" stroke="black" stroke-width="1.5"/>
<path d="M295 -51L-95 339" stroke="black" stroke-width="1.5"/>
<path d="M300 -51L-90 339" stroke="black" stroke-width="1.5"/>
<path d="M305 -51L-85 339" stroke="black" stroke-width="1.5"/>
<path d="M310 -51L-80 339" stroke="black" stroke-width="1.5"/>
<path d="M315 -51L-75 339" stroke="black" stroke-width="1.5"/>
<path d="M320 -51L-70 339" stroke="black" stroke-width="1.5"/>
<path d="M325 -51L-65 339" stroke="black" stroke-width="1.5"/>
<path d="M330 -51L-60 339" stroke="black" stroke-width="1.5"/>
<path d="M335 -51L-55 339" stroke="black" stroke-width="1.5"/>
<path d="M340 -51L-50 339" stroke="black" stroke-width="1.5"/>
<path d="M345 -51L-45 339" stroke="black" stroke-width="1.5"/>
<path d="M350 -51L-40 339" stroke="black" stroke-width="1.5"/>
<path d="M355 -51L-35 339" stroke="black" stroke-width="1.5"/>
<path d="M360 -51L-30 339" stroke="black" stroke-width="1.5"/>
<path d="M365 -51L-25 339" stroke="black" stroke-width="1.5"/>
<path d="M370 -51L-20 339" stroke="black" stroke-width="1.5"/>
<path d="M375 -51L-15 339" stroke="black" stroke-width="1.5"/>
<path d="M380 -51L-10 339" stroke="black" stroke-width="1.5"/>
<path d="M385 -51L-5 339" stroke="black" stroke-width="1.5"/>
<path d="M390 -51L0 339" stroke="black" stroke-width="1.5"/>
<path d="M395 -51L5 339" stroke="black" stroke-width="1.5"/>
<path d="M400 -51L10 339" stroke="black" stroke-width="1.5"/>
<path d="M405 -51L15 339" stroke="black" stroke-width="1.5"/>
<path d="M410 -51L20 339" stroke="black" stroke-width="1.5"/>
<path d="M415 -51L25 339" stroke="black" stroke-width="1.5"/>
<path d="M420 -51L30 339" stroke="black" stroke-width="1.5"/>
<path d="M425 -51L35 339" stroke="black" stroke-width="1.5"/>
<path d="M430 -51L40 339" stroke="black" stroke-width="1.5"/>
<path d="M435 -51L45 339" stroke="black" stroke-width="1.5"/>
<path d="M440 -51L50 339" stroke="black" stroke-width="1.5"/>
<path d="M445 -51L55 339" stroke="black" stroke-width="1.5"/>
<path d="M450 -51L60 339" stroke="black" stroke-width="1.5"/>
<path d="M455 -51L65 339" stroke="black" stroke-width="1.5"/>
<path d="M460 -51L70 339" stroke="black" stroke-width="1.5"/>
<path d="M465 -51L75 339" stroke="black" stroke-width="1.5"/>
<path d="M470 -51L80 339" stroke="black" stroke-width="1.5"/>
<path d="M475 -51L85 339" stroke="black" stroke-width="1.5"/>
<path d="M480 -51L90 339" stroke="black" stroke-width="1.5"/>
<path d="M485 -51L95 339" stroke="black" stroke-width="1.5"/>
<path d="M490 -51L100 339" stroke="black" stroke-width="1.5"/>
<path d="M495 -51L105 339" stroke="black" stroke-width="1.5"/>
<path d="M500 -51L110 339" stroke="black" stroke-width="1.5"/>
<path d="M505 -51L115 339" stroke="black" stroke-width="1.5"/>
<path d="M510 -51L120 339" stroke="black" stroke-width="1.5"/>
<path d="M515 -51L125 339" stroke="black" stroke-width="1.5"/>
<path d="M520 -51L130 339" stroke="black" stroke-width="1.5"/>
<path d="M525 -51L135 339" stroke="black" stroke-width="1.5"/>
<path d="M530 -51L140 339" stroke="black" stroke-width="1.5"/>
<path d="M535 -51L145 339" stroke="black" stroke-width="1.5"/>
<path d="M540 -51L150 339" stroke="black" stroke-width="1.5"/>
<path d="M545 -51L155 339" stroke="black" stroke-width="1.5"/>
<path d="M550 -51L160 339" stroke="black" stroke-width="1.5"/>
<path d="M555 -51L165 339" stroke="black" stroke-width="1.5"/>
<path d="M560 -51L170 339" stroke="black" stroke-width="1.5"/>
<path d="M565 -51L175 339" stroke="black" stroke-width="1.5"/>
<path d="M570 -51L180 339" stroke="black" stroke-width="1.5"/>
<path d="M575 -51L185 339" stroke="black" stroke-width="1.5"/>
<path d="M580 -51L190 339" stroke="black" stroke-width="1.5"/>
<path d="M585 -51L195 339" stroke="black" stroke-width="1.5"/>
<path d="M590 -51L200 339" stroke="black" stroke-width="1.5"/>
<path d="M595 -51L205 339" stroke="black" stroke-width="1.5"/>
<path d="M600 -51L210 339" stroke="black" stroke-width="1.5"/>
<path d="M605 -51L215 339" stroke="black" stroke-width="1.5"/>
<path d="M610 -51L220 339" stroke="black" stroke-width="1.5"/>
<path d="M615 -51L225 339" stroke="black" stroke-width="1.5"/>
<path d="M620 -51L230 339" stroke="black" stroke-width="1.5"/>
<path d="M625 -51L235 339" stroke="black" stroke-width="1.5"/>
<path d="M630 -51L240 339" stroke="black" stroke-width="1.5"/>
<path d="M635 -51L245 339" stroke="black" stroke-width="1.5"/>
<path d="M640 -51L250 339" stroke="black" stroke-width="1.5"/>
<path d="M645 -51L255 339" stroke="black" stroke-width="1.5"/>
<path d="M650 -51L260 339" stroke="black" stroke-width="1.5"/>
<path d="M655 -51L265 339" stroke="black" stroke-width="1.5"/>
<path d="M660 -51L270 339" stroke="black" stroke-width="1.5"/>
<path d="M665 -51L275 339" stroke="black" stroke-width="1.5"/>
<path d="M670 -51L280 339" stroke="black" stroke-width="1.5"/>
</g>
<defs>
<clipPath id="clip0_647_26149">
<rect y="4" width="280" height="280" rx="140" fill="white"/>
</clipPath>
</defs>
</svg>
