<svg width="251" height="302" viewBox="0 0 251 302" fill="none" xmlns="http://www.w3.org/2000/svg">
<path d="M37.6409 27.6287C39.6463 12.5879 52.4764 1.35499 67.6503 1.35499H219.608C223.967 1.35499 228.147 3.08653 231.23 6.16869L243.48 18.4193C247.481 22.42 249.389 28.0564 248.641 33.6646L219.01 255.898C215.859 279.533 195.697 297.185 171.852 297.185H35.7576C30.9399 297.185 26.3196 295.271 22.913 291.865L10.5646 279.516C6.94486 275.897 5.21847 270.797 5.89502 265.723L37.6409 27.6287Z" fill="white" stroke="#07090D" stroke-width="1.73"/>
<path d="M48.818 30.7038C50.1693 20.569 58.8145 13 69.039 13H221.178L235.208 27.0298C237.08 28.9019 237.973 31.5393 237.623 34.1636L208.506 252.543C206.029 271.123 190.179 285 171.434 285H37.6993C35.4449 285 33.2829 284.104 31.6889 282.51L17.1785 268L48.818 30.7038Z" fill="url(#paint0_linear_647_26150)"/>
<path d="M48.818 30.7038C50.1693 20.569 58.8145 13 69.039 13H221.178L190.719 241.444C188.692 256.646 175.724 268 160.388 268H17.1785L48.818 30.7038Z" fill="url(#paint1_linear_647_26150)"/>
<rect x="80.9285" y="232.3" width="20.4" height="8.5" rx="4.25" fill="#F64BF9"/>
<rect x="79.2285" y="230.6" width="20.4" height="8.5" rx="4.25" fill="url(#paint2_linear_647_26150)"/>
<rect x="109.828" y="232.3" width="20.4" height="8.5" rx="4.25" fill="#F64BF9"/>
<rect x="108.129" y="230.6" width="20.4" height="8.5" rx="4.25" fill="url(#paint3_linear_647_26150)"/>
<circle cx="138.728" cy="194.05" r="11.9" fill="#F64BF9"/>
<circle cx="136.178" cy="191.5" r="11.9" fill="url(#paint4_linear_647_26150)"/>
<circle cx="169.328" cy="175.35" r="11.9" fill="#F64BF9"/>
<circle cx="166.778" cy="172.8" r="11.9" fill="url(#paint5_linear_647_26150)"/>
<path d="M61.3785 211.9H73.2785L75.0847 197.45H90.2785L91.9785 185.55L88.5785 182.15L76.5722 185.55L78.3785 171.1L75.0847 167.7L64.6722 185.55L46.0785 194.05L49.4785 197.45H63.1847L57.9785 208.5L61.3785 211.9Z" fill="#F64BF9"/>
<path fill-rule="evenodd" clip-rule="evenodd" d="M57.9785 208.5H69.8785L71.6847 194.05H86.8785L88.5785 182.15L73.1722 182.15L74.9785 167.7L63.0785 167.7L61.2722 182.15L47.7785 182.15L46.0785 194.05H59.7847L57.9785 208.5Z" fill="url(#paint6_linear_647_26150)"/>
<path d="M72.4285 33.4C70.2984 33.4 68.4973 34.9769 68.2158 37.0883L54.6158 139.088C54.4539 140.303 54.8239 141.528 55.6309 142.45C56.4379 143.371 57.6034 143.9 58.8285 143.9H177.828C179.959 143.9 181.76 142.323 182.041 140.212L195.641 38.2117C195.803 36.9973 195.433 35.7722 194.626 34.8504C193.819 33.9287 192.654 33.4 191.428 33.4H72.4285Z" fill="#D5F84B" stroke="url(#paint7_linear_647_26150)" stroke-width="8.5" stroke-linejoin="round"/>
<path fill-rule="evenodd" clip-rule="evenodd" d="M106.573 82.9715H98.9369H98.9276L99.1609 81.0891H97.238L97.4714 79.2254L97.7048 77.3152L97.9381 75.4144L98.1715 73.5043L98.4049 71.6034L98.6382 69.6933L98.8716 67.7831L99.1049 65.9194L99.3383 64.0092H106.974L106.741 65.9194H108.663L108.897 64.0092H116.57L116.336 65.9194H119.678L119.912 64.0092H133.316L133.083 65.9194H134.996L134.763 67.7831H136.172L136.406 65.9194L136.639 64.0092H150.043L149.81 65.9194H151.733L151.5 67.7831H153.413L153.18 69.6933H155.065L154.832 71.6034L154.599 73.5043L154.365 75.4144L154.132 77.3152L153.899 79.2254H152.013L151.78 81.0891H149.866L149.633 82.9715H136.228L136.462 81.0891H135.015L134.781 82.9715H127.146L127.379 81.0891H125.456L125.223 82.9715H117.587L117.821 81.0891H116.364L116.131 82.9715H108.495L108.729 81.0891H106.806L106.573 82.9715ZM147.906 65.9101H140.261H138.347L138.114 67.7739L137.881 69.684L137.647 71.5941L137.414 73.495L137.18 75.4051L136.947 77.306L136.714 79.2161H146.272L146.506 77.306H148.419L148.653 75.4051H150.575L150.809 73.495L151.042 71.5941L151.276 69.684H149.353L149.586 67.7739H147.672L147.906 65.9101ZM121.61 65.9101L121.377 67.7739H119.464L119.23 69.684L118.997 71.5941L118.763 73.495L118.53 75.4051L118.297 77.306L118.063 79.2161H121.9L122.133 77.306L122.367 75.4051H128.089L127.855 77.306L127.622 79.2161H131.458L131.692 77.306L131.925 75.4051L132.158 73.495L132.392 71.5941L132.625 69.684L132.859 67.7739H130.936L131.169 65.9101H121.61ZM99.861 75.4144L99.6277 77.3152L99.3943 79.2254H103.231L103.464 77.3152L103.698 75.4144L103.931 73.5043L104.164 71.6034H106.04L105.807 73.5043H107.73L107.963 71.6034H109.886L109.653 73.5043L109.42 75.4144L109.186 77.3152L108.953 79.2254H112.789L113.023 77.3152L113.256 75.4144L113.489 73.5043L113.723 71.6034L113.956 69.6933L114.19 67.7831L114.423 65.9194H110.586L110.353 67.7831H108.43L108.197 69.6933H106.274L106.507 67.7831H104.631L104.864 65.9194H101.028L100.794 67.7831L100.561 69.6933L100.328 71.6034L100.094 73.5043L99.861 75.4144ZM128.322 73.495H126.399H124.476H122.6L122.833 71.5941L123.067 69.684L123.309 67.7739H125.186H127.108H129.031L128.789 69.684L128.555 71.5941L128.322 73.495ZM144.573 77.3153L144.816 75.4051H146.739L146.972 73.495L147.206 71.5941L147.439 69.684H145.516L145.759 67.7739H143.836H141.96L141.717 69.684L141.484 71.5941L141.25 73.495L141.008 75.4051L140.774 77.3153H142.65H144.573ZM87.8102 99.4579H85.8873H83.9644H82.0881L82.3215 97.5571L82.5549 95.6469L82.7976 93.7368H84.6738H86.5967H88.5196L88.2769 95.6469L88.0436 97.5571L87.8102 99.4579ZM103.315 93.7368H101.448L101.205 95.6469L100.972 97.5571H102.848H104.771H106.694L106.927 95.6469L107.17 93.7368H105.247H103.315ZM124.635 103.269H122.712H120.789H118.913L119.146 101.368L119.389 99.4579L119.622 97.5571L119.856 95.6469L120.089 93.7368H121.965H123.897H125.82L125.578 95.6469L125.344 97.5571L125.111 99.4579L124.877 101.368L124.635 103.269ZM141.838 99.4579H143.761L143.995 97.5571L144.228 95.6469L144.461 93.7368H142.538H140.616H138.739L138.506 95.6469L138.273 97.5571L138.039 99.4579H139.906H141.838ZM169.104 91.873L168.871 93.7368H170.729L170.495 95.6469L170.262 97.5571L170.029 99.4579L169.795 101.368L169.562 103.269L169.329 105.179L169.095 107.043H167.21L166.976 108.925H153.572L153.805 107.043H151.892L152.125 105.179H150.202L150.435 103.269H149.026L148.793 105.179H141.12L140.886 107.043L140.653 108.925H133.017L133.251 107.043H129.918L129.685 108.925H116.28L116.514 107.043H114.6L114.834 105.179H113.387L113.153 107.043L112.92 108.925H105.284L105.518 107.043H103.595L103.361 108.925H95.7258L95.9592 107.043H94.0363L94.2697 105.179L94.503 103.269H93.0935L92.8601 105.179H85.1872L84.9538 107.043L84.7204 108.925H77.0848L77.3182 107.043H75.3953L75.6286 105.179L75.862 103.269L76.0954 101.368L76.3287 99.4579L76.5621 97.5571L76.7954 95.6469L77.0288 93.7368L77.2622 91.873L77.4955 89.9629H92.8228L92.5894 91.873H94.503L94.2697 93.7368H95.6792L95.9125 91.873L96.1459 89.9629H111.473L111.24 91.873H113.153L112.92 93.7368H114.33L114.563 91.873H116.486L116.719 89.9629H130.124L129.89 91.873H131.804L131.57 93.7368H132.98L133.213 91.873L133.447 89.9629H148.774L148.541 91.873H150.454L150.221 93.7368H151.63L151.864 91.873H153.787L154.02 89.9629H167.424L167.191 91.873H169.104ZM78.0089 101.368L77.7756 103.269L77.5422 105.179H81.3787L81.6121 103.269L81.8454 101.368H89.4811L89.7144 99.4579H91.6373L91.8707 97.5571L92.104 95.6469L92.3374 93.7368H90.4145L90.6479 91.873H79.1757L78.9424 93.7368L78.709 95.6469L78.4757 97.5571L78.2423 99.4579L78.0089 101.368ZM106.218 101.368L105.984 103.269L105.751 105.179H109.588L109.821 103.269L110.054 101.368L110.288 99.4579H108.365L108.598 97.5571H110.521L110.754 95.6469L110.988 93.7368H109.065L109.298 91.873H97.8261L97.5927 93.7368L97.3594 95.6469L97.126 97.5571L96.8927 99.4579L96.6593 101.368L96.4259 103.269L96.1926 105.179H100.029L100.262 103.269L100.496 101.368L100.729 99.4579H106.451L106.218 101.368ZM115.31 101.368L115.076 103.269H116.99L116.757 105.179H126.315L126.548 103.269H128.471L128.705 101.368L128.938 99.4579L129.171 97.5571L129.405 95.6469L129.638 93.7368H127.715L127.949 91.873H118.39L118.157 93.7368H116.243L116.01 95.6469L115.776 97.5571L115.543 99.4579L115.31 101.368ZM133.96 101.368L133.727 103.269L133.493 105.179H137.33L137.563 103.269L137.797 101.368H145.432L145.666 99.4579H147.588L147.822 97.5571L148.055 95.6469L148.289 93.7368H146.366L146.599 91.873H135.127L134.893 93.7368L134.66 95.6469L134.427 97.5571L134.193 99.4579L133.96 101.368ZM152.61 101.368L152.377 103.269H154.291L154.057 105.179H163.616L163.849 103.269H165.772L166.005 101.368L166.239 99.4579H164.316L164.549 97.5571H156.914L157.147 95.6469L157.38 93.7368H163.102L162.869 95.6469H166.706L166.939 93.7368H165.016L165.249 91.873H155.691L155.457 93.7368H153.544L153.31 95.6469L153.077 97.5571H154.991L154.757 99.4579H162.402L162.169 101.368L161.936 103.269H156.214L156.447 101.368H152.61Z" fill="black"/>
<defs>
<linearGradient id="paint0_linear_647_26150" x1="129.166" y1="14.7" x2="129.166" y2="285" gradientUnits="userSpaceOnUse">
<stop stop-color="#5727DF"/>
<stop offset="1" stop-color="#5B0EA8"/>
</linearGradient>
<linearGradient id="paint1_linear_647_26150" x1="119.178" y1="13" x2="119.178" y2="268" gradientUnits="userSpaceOnUse">
<stop stop-color="#D661FF"/>
<stop offset="1" stop-color="#A845FE"/>
</linearGradient>
<linearGradient id="paint2_linear_647_26150" x1="89.4285" y1="230.6" x2="89.4285" y2="239.1" gradientUnits="userSpaceOnUse">
<stop stop-color="#FEA5FF"/>
<stop offset="1" stop-color="#FF83CD"/>
</linearGradient>
<linearGradient id="paint3_linear_647_26150" x1="118.329" y1="230.6" x2="118.329" y2="239.1" gradientUnits="userSpaceOnUse">
<stop stop-color="#FEA5FF"/>
<stop offset="1" stop-color="#FF83CD"/>
</linearGradient>
<linearGradient id="paint4_linear_647_26150" x1="136.178" y1="179.6" x2="136.178" y2="203.4" gradientUnits="userSpaceOnUse">
<stop stop-color="#FEA5FF"/>
<stop offset="1" stop-color="#FF83CD"/>
</linearGradient>
<linearGradient id="paint5_linear_647_26150" x1="166.778" y1="160.9" x2="166.778" y2="184.7" gradientUnits="userSpaceOnUse">
<stop stop-color="#FEA5FF"/>
<stop offset="1" stop-color="#FF83CD"/>
</linearGradient>
<linearGradient id="paint6_linear_647_26150" x1="67.3285" y1="167.7" x2="67.3285" y2="208.5" gradientUnits="userSpaceOnUse">
<stop stop-color="#FEA5FF"/>
<stop offset="1" stop-color="#FF83CD"/>
</linearGradient>
<linearGradient id="paint7_linear_647_26150" x1="125.128" y1="37.65" x2="125.128" y2="139.65" gradientUnits="userSpaceOnUse">
<stop stop-color="#FEA3FD"/>
<stop offset="1" stop-color="#F64BF9"/>
</linearGradient>
</defs>
</svg>
