<svg width="251" height="302" viewBox="0 0 251 302" fill="none" xmlns="http://www.w3.org/2000/svg">
<mask id="mask0_647_26150" style="mask-type:alpha" maskUnits="userSpaceOnUse" x="1" y="3" width="246" height="299">
<path d="M34.1808 31.0887C36.1863 16.0479 49.0163 4.81495 64.1902 4.81495H216.148C220.507 4.81495 224.687 6.54649 227.769 9.62865L240.02 21.8792C244.021 25.88 245.929 31.5164 245.181 37.1246L215.55 259.358C212.399 282.993 192.237 300.645 168.392 300.645H32.2975C27.4798 300.645 22.8595 298.731 19.4529 295.325L7.10447 282.976C3.48478 279.356 1.75839 274.257 2.43494 269.183L34.1808 31.0887Z" fill="white" stroke="#07090D" stroke-width="1.73"/>
</mask>
<g mask="url(#mask0_647_26150)">
<path d="M2.6665 -45.0002L-387.333 345" stroke="black" stroke-width="1.5"/>
<path d="M7.6665 -45.0002L-382.333 345" stroke="black" stroke-width="1.5"/>
<path d="M12.6665 -45.0002L-377.333 345" stroke="black" stroke-width="1.5"/>
<path d="M17.6665 -45.0002L-372.333 345" stroke="black" stroke-width="1.5"/>
<path d="M22.6665 -45.0002L-367.333 345" stroke="black" stroke-width="1.5"/>
<path d="M27.6665 -45.0002L-362.333 345" stroke="black" stroke-width="1.5"/>
<path d="M32.6665 -45.0002L-357.333 345" stroke="black" stroke-width="1.5"/>
<path d="M37.6665 -45.0002L-352.333 345" stroke="black" stroke-width="1.5"/>
<path d="M42.6665 -45.0002L-347.333 345" stroke="black" stroke-width="1.5"/>
<path d="M47.6665 -45.0002L-342.333 345" stroke="black" stroke-width="1.5"/>
<path d="M52.6665 -45.0002L-337.333 345" stroke="black" stroke-width="1.5"/>
<path d="M57.6665 -45.0002L-332.333 345" stroke="black" stroke-width="1.5"/>
<path d="M62.6665 -45.0002L-327.333 345" stroke="black" stroke-width="1.5"/>
<path d="M67.6665 -45.0002L-322.333 345" stroke="black" stroke-width="1.5"/>
<path d="M72.6665 -45.0002L-317.333 345" stroke="black" stroke-width="1.5"/>
<path d="M77.6665 -45.0002L-312.333 345" stroke="black" stroke-width="1.5"/>
<path d="M82.6665 -45.0002L-307.333 345" stroke="black" stroke-width="1.5"/>
<path d="M87.6665 -45.0002L-302.333 345" stroke="black" stroke-width="1.5"/>
<path d="M92.6665 -45.0002L-297.333 345" stroke="black" stroke-width="1.5"/>
<path d="M97.6665 -45.0002L-292.333 345" stroke="black" stroke-width="1.5"/>
<path d="M102.667 -45.0002L-287.333 345" stroke="black" stroke-width="1.5"/>
<path d="M107.667 -45.0002L-282.333 345" stroke="black" stroke-width="1.5"/>
<path d="M112.667 -45.0002L-277.333 345" stroke="black" stroke-width="1.5"/>
<path d="M117.667 -45.0002L-272.333 345" stroke="black" stroke-width="1.5"/>
<path d="M122.667 -45.0002L-267.333 345" stroke="black" stroke-width="1.5"/>
<path d="M127.667 -45.0002L-262.333 345" stroke="black" stroke-width="1.5"/>
<path d="M132.667 -45.0002L-257.333 345" stroke="black" stroke-width="1.5"/>
<path d="M137.667 -45.0002L-252.333 345" stroke="black" stroke-width="1.5"/>
<path d="M142.667 -45.0002L-247.333 345" stroke="black" stroke-width="1.5"/>
<path d="M147.667 -45.0002L-242.333 345" stroke="black" stroke-width="1.5"/>
<path d="M152.667 -45.0002L-237.333 345" stroke="black" stroke-width="1.5"/>
<path d="M157.667 -45.0002L-232.333 345" stroke="black" stroke-width="1.5"/>
<path d="M162.667 -45.0002L-227.333 345" stroke="black" stroke-width="1.5"/>
<path d="M167.667 -45.0002L-222.333 345" stroke="black" stroke-width="1.5"/>
<path d="M172.667 -45.0002L-217.333 345" stroke="black" stroke-width="1.5"/>
<path d="M177.667 -45.0002L-212.333 345" stroke="black" stroke-width="1.5"/>
<path d="M182.667 -45.0002L-207.333 345" stroke="black" stroke-width="1.5"/>
<path d="M187.667 -45.0002L-202.333 345" stroke="black" stroke-width="1.5"/>
<path d="M192.667 -45.0002L-197.333 345" stroke="black" stroke-width="1.5"/>
<path d="M197.667 -45.0002L-192.333 345" stroke="black" stroke-width="1.5"/>
<path d="M202.667 -45.0002L-187.333 345" stroke="black" stroke-width="1.5"/>
<path d="M207.667 -45.0002L-182.333 345" stroke="black" stroke-width="1.5"/>
<path d="M212.667 -45.0002L-177.333 345" stroke="black" stroke-width="1.5"/>
<path d="M217.667 -45.0002L-172.333 345" stroke="black" stroke-width="1.5"/>
<path d="M222.667 -45.0002L-167.333 345" stroke="black" stroke-width="1.5"/>
<path d="M227.667 -45.0002L-162.333 345" stroke="black" stroke-width="1.5"/>
<path d="M232.667 -45.0002L-157.333 345" stroke="black" stroke-width="1.5"/>
<path d="M237.667 -45.0002L-152.333 345" stroke="black" stroke-width="1.5"/>
<path d="M242.667 -45.0002L-147.333 345" stroke="black" stroke-width="1.5"/>
<path d="M247.667 -45.0002L-142.333 345" stroke="black" stroke-width="1.5"/>
<path d="M252.667 -45.0002L-137.333 345" stroke="black" stroke-width="1.5"/>
<path d="M257.667 -45.0002L-132.333 345" stroke="black" stroke-width="1.5"/>
<path d="M262.667 -45.0002L-127.333 345" stroke="black" stroke-width="1.5"/>
<path d="M267.667 -45.0002L-122.333 345" stroke="black" stroke-width="1.5"/>
<path d="M272.667 -45.0002L-117.333 345" stroke="black" stroke-width="1.5"/>
<path d="M277.667 -45.0002L-112.333 345" stroke="black" stroke-width="1.5"/>
<path d="M282.667 -45.0002L-107.333 345" stroke="black" stroke-width="1.5"/>
<path d="M287.667 -45.0002L-102.333 345" stroke="black" stroke-width="1.5"/>
<path d="M292.667 -45.0002L-97.3335 345" stroke="black" stroke-width="1.5"/>
<path d="M297.667 -45.0002L-92.3335 345" stroke="black" stroke-width="1.5"/>
<path d="M302.667 -45.0002L-87.3335 345" stroke="black" stroke-width="1.5"/>
<path d="M307.667 -45.0002L-82.3335 345" stroke="black" stroke-width="1.5"/>
<path d="M312.667 -45.0002L-77.3335 345" stroke="black" stroke-width="1.5"/>
<path d="M317.667 -45.0002L-72.3335 345" stroke="black" stroke-width="1.5"/>
<path d="M322.667 -45.0002L-67.3335 345" stroke="black" stroke-width="1.5"/>
<path d="M327.667 -45.0002L-62.3335 345" stroke="black" stroke-width="1.5"/>
<path d="M332.667 -45.0002L-57.3335 345" stroke="black" stroke-width="1.5"/>
<path d="M337.667 -45.0002L-52.3335 345" stroke="black" stroke-width="1.5"/>
<path d="M342.667 -45.0002L-47.3335 345" stroke="black" stroke-width="1.5"/>
<path d="M347.667 -45.0002L-42.3335 345" stroke="black" stroke-width="1.5"/>
<path d="M352.667 -45.0002L-37.3335 345" stroke="black" stroke-width="1.5"/>
<path d="M357.667 -45.0002L-32.3335 345" stroke="black" stroke-width="1.5"/>
<path d="M362.667 -45.0002L-27.3335 345" stroke="black" stroke-width="1.5"/>
<path d="M367.667 -45.0002L-22.3335 345" stroke="black" stroke-width="1.5"/>
<path d="M372.667 -45.0002L-17.3335 345" stroke="black" stroke-width="1.5"/>
<path d="M377.667 -45.0002L-12.3335 345" stroke="black" stroke-width="1.5"/>
<path d="M382.667 -45.0002L-7.33349 345" stroke="black" stroke-width="1.5"/>
<path d="M387.667 -45.0002L-2.33349 345" stroke="black" stroke-width="1.5"/>
<path d="M392.667 -45.0002L2.66651 345" stroke="black" stroke-width="1.5"/>
<path d="M397.667 -45.0002L7.66651 345" stroke="black" stroke-width="1.5"/>
<path d="M402.667 -45.0002L12.6665 345" stroke="black" stroke-width="1.5"/>
<path d="M407.667 -45.0002L17.6665 345" stroke="black" stroke-width="1.5"/>
<path d="M412.667 -45.0002L22.6665 345" stroke="black" stroke-width="1.5"/>
<path d="M417.667 -45.0002L27.6665 345" stroke="black" stroke-width="1.5"/>
<path d="M422.667 -45.0002L32.6665 345" stroke="black" stroke-width="1.5"/>
<path d="M427.667 -45.0002L37.6665 345" stroke="black" stroke-width="1.5"/>
<path d="M432.667 -45.0002L42.6665 345" stroke="black" stroke-width="1.5"/>
<path d="M437.667 -45.0002L47.6665 345" stroke="black" stroke-width="1.5"/>
<path d="M442.667 -45.0002L52.6665 345" stroke="black" stroke-width="1.5"/>
<path d="M447.667 -45.0002L57.6665 345" stroke="black" stroke-width="1.5"/>
<path d="M452.667 -45.0002L62.6665 345" stroke="black" stroke-width="1.5"/>
<path d="M457.667 -45.0002L67.6665 345" stroke="black" stroke-width="1.5"/>
<path d="M462.667 -45.0002L72.6665 345" stroke="black" stroke-width="1.5"/>
<path d="M467.667 -45.0002L77.6665 345" stroke="black" stroke-width="1.5"/>
<path d="M472.667 -45.0002L82.6665 345" stroke="black" stroke-width="1.5"/>
<path d="M477.667 -45.0002L87.6665 345" stroke="black" stroke-width="1.5"/>
<path d="M482.667 -45.0002L92.6665 345" stroke="black" stroke-width="1.5"/>
<path d="M487.667 -45.0002L97.6665 345" stroke="black" stroke-width="1.5"/>
<path d="M492.667 -45.0002L102.667 345" stroke="black" stroke-width="1.5"/>
<path d="M497.667 -45.0002L107.667 345" stroke="black" stroke-width="1.5"/>
<path d="M502.667 -45.0002L112.667 345" stroke="black" stroke-width="1.5"/>
<path d="M507.667 -45.0002L117.667 345" stroke="black" stroke-width="1.5"/>
<path d="M512.667 -45.0002L122.667 345" stroke="black" stroke-width="1.5"/>
<path d="M517.667 -45.0002L127.667 345" stroke="black" stroke-width="1.5"/>
<path d="M522.667 -45.0002L132.667 345" stroke="black" stroke-width="1.5"/>
<path d="M527.667 -45.0002L137.667 345" stroke="black" stroke-width="1.5"/>
<path d="M532.667 -45.0002L142.667 345" stroke="black" stroke-width="1.5"/>
<path d="M537.667 -45.0002L147.667 345" stroke="black" stroke-width="1.5"/>
<path d="M542.667 -45.0002L152.667 345" stroke="black" stroke-width="1.5"/>
<path d="M547.667 -45.0002L157.667 345" stroke="black" stroke-width="1.5"/>
<path d="M552.667 -45.0002L162.667 345" stroke="black" stroke-width="1.5"/>
<path d="M557.667 -45.0002L167.667 345" stroke="black" stroke-width="1.5"/>
<path d="M562.667 -45.0002L172.667 345" stroke="black" stroke-width="1.5"/>
<path d="M567.667 -45.0002L177.667 345" stroke="black" stroke-width="1.5"/>
<path d="M572.667 -45.0002L182.667 345" stroke="black" stroke-width="1.5"/>
<path d="M577.667 -45.0002L187.667 345" stroke="black" stroke-width="1.5"/>
<path d="M582.667 -45.0002L192.667 345" stroke="black" stroke-width="1.5"/>
<path d="M587.667 -45.0002L197.667 345" stroke="black" stroke-width="1.5"/>
<path d="M592.667 -45.0002L202.667 345" stroke="black" stroke-width="1.5"/>
<path d="M597.667 -45.0002L207.667 345" stroke="black" stroke-width="1.5"/>
<path d="M602.667 -45.0002L212.667 345" stroke="black" stroke-width="1.5"/>
<path d="M607.667 -45.0002L217.667 345" stroke="black" stroke-width="1.5"/>
<path d="M612.667 -45.0002L222.667 345" stroke="black" stroke-width="1.5"/>
<path d="M617.667 -45.0002L227.667 345" stroke="black" stroke-width="1.5"/>
<path d="M622.667 -45.0002L232.667 345" stroke="black" stroke-width="1.5"/>
<path d="M627.667 -45.0002L237.667 345" stroke="black" stroke-width="1.5"/>
<path d="M632.667 -45.0002L242.667 345" stroke="black" stroke-width="1.5"/>
</g>
</svg>
