<svg width="229" height="207" viewBox="0 0 229 207" fill="none" xmlns="http://www.w3.org/2000/svg">
<mask id="mask0_647_26156" style="mask-type:alpha" maskUnits="userSpaceOnUse" x="0" y="3" width="225" height="204">
<path d="M40.3928 64.5113L41.1736 64.2235L41.0325 63.4034C40.9491 62.9189 40.8689 62.4362 40.7918 61.9554C39.1528 51.7248 38.8431 41.6383 40.7421 32.7601C42.6383 23.8948 47.1844 14.5141 56.6295 9.06096C66.0745 3.60785 76.4715 4.36118 85.0972 7.15167C93.7354 9.94619 102.316 15.2576 110.356 21.7924C110.734 22.0995 111.112 22.4103 111.49 22.7248L112.129 23.2571L112.769 22.7248C113.147 22.4103 113.525 22.0995 113.903 21.7924C121.943 15.2577 130.524 9.94625 139.162 7.15173C147.787 4.36123 158.184 3.60791 167.629 9.06101C177.075 14.5141 181.621 23.8948 183.517 32.7602C185.416 41.6383 185.106 51.7248 183.467 61.9554C183.39 62.4362 183.31 62.9189 183.226 63.4033L183.085 64.2234L183.866 64.5112C184.327 64.6813 184.786 64.8531 185.24 65.0268C194.92 68.7226 203.81 73.4978 210.549 79.5814C217.279 85.6562 223.13 94.2836 223.13 105.19C223.13 116.096 217.279 124.723 210.549 130.798C203.81 136.882 194.92 141.657 185.24 145.353C184.786 145.527 184.327 145.698 183.866 145.868L183.085 146.156L183.226 146.976C183.31 147.461 183.39 147.943 183.467 148.424C185.106 158.655 185.416 168.741 183.517 177.619C181.621 186.485 177.075 195.865 167.629 201.319C158.184 206.772 147.787 206.018 139.162 203.228C130.524 200.433 121.943 195.122 113.903 188.587C113.525 188.28 113.147 187.969 112.769 187.655L112.129 187.123L111.49 187.655C111.112 187.969 110.734 188.28 110.356 188.587C102.316 195.122 93.7354 200.433 85.0972 203.228C76.4715 206.018 66.0745 206.772 56.6294 201.319C47.1844 195.866 42.6383 186.485 40.7421 177.619C38.8431 168.741 39.1528 158.655 40.7918 148.424C40.8689 147.943 40.9491 147.461 41.0325 146.976L41.1736 146.156L40.3928 145.868C39.9316 145.698 39.4735 145.527 39.0186 145.353C29.3391 141.657 20.4491 136.882 13.7099 130.798C6.9804 124.723 1.12952 116.096 1.12952 105.19C1.12952 94.2836 6.9804 85.6562 13.7099 79.5814C20.4491 73.4978 29.3391 68.7226 39.0186 65.0268C39.4735 64.8532 39.9316 64.6813 40.3928 64.5113Z" fill="white" stroke="#07090D" stroke-width="2"/>
</mask>
<g mask="url(#mask0_647_26156)">
<path d="M1.56392 -101.477L-438.918 230.45" stroke="black" stroke-width="1.5"/>
<path d="M6.51533 -100.781L-433.967 231.146" stroke="black" stroke-width="1.5"/>
<path d="M11.4666 -100.085L-429.015 231.842" stroke="black" stroke-width="1.5"/>
<path d="M16.418 -99.3894L-424.064 232.538" stroke="black" stroke-width="1.5"/>
<path d="M21.3693 -98.6936L-419.113 233.233" stroke="black" stroke-width="1.5"/>
<path d="M26.3206 -97.9976L-414.161 233.929" stroke="black" stroke-width="1.5"/>
<path d="M31.272 -97.3018L-409.21 234.625" stroke="black" stroke-width="1.5"/>
<path d="M36.2233 -96.6059L-404.259 235.321" stroke="black" stroke-width="1.5"/>
<path d="M41.1748 -95.9101L-399.307 236.017" stroke="black" stroke-width="1.5"/>
<path d="M46.126 -95.2142L-394.356 236.713" stroke="black" stroke-width="1.5"/>
<path d="M51.0773 -94.5183L-389.405 237.409" stroke="black" stroke-width="1.5"/>
<path d="M56.0288 -93.8225L-384.453 238.105" stroke="black" stroke-width="1.5"/>
<path d="M60.9801 -93.1266L-379.502 238.8" stroke="black" stroke-width="1.5"/>
<path d="M65.9313 -92.4307L-374.551 239.496" stroke="black" stroke-width="1.5"/>
<path d="M70.8828 -91.7349L-369.599 240.192" stroke="black" stroke-width="1.5"/>
<path d="M75.8341 -91.039L-364.648 240.888" stroke="black" stroke-width="1.5"/>
<path d="M80.7855 -90.3432L-359.697 241.584" stroke="black" stroke-width="1.5"/>
<path d="M85.7368 -89.6473L-354.745 242.28" stroke="black" stroke-width="1.5"/>
<path d="M90.6881 -88.9514L-349.794 242.976" stroke="black" stroke-width="1.5"/>
<path d="M95.6395 -88.2556L-344.843 243.671" stroke="black" stroke-width="1.5"/>
<path d="M100.591 -87.5597L-339.891 244.367" stroke="black" stroke-width="1.5"/>
<path d="M105.542 -86.8639L-334.94 245.063" stroke="black" stroke-width="1.5"/>
<path d="M110.493 -86.1679L-329.989 245.759" stroke="black" stroke-width="1.5"/>
<path d="M115.445 -85.4721L-325.037 246.455" stroke="black" stroke-width="1.5"/>
<path d="M120.396 -84.7762L-320.086 247.151" stroke="black" stroke-width="1.5"/>
<path d="M125.347 -84.0803L-315.135 247.847" stroke="black" stroke-width="1.5"/>
<path d="M130.299 -83.3845L-310.183 248.543" stroke="black" stroke-width="1.5"/>
<path d="M135.25 -82.6886L-305.232 249.238" stroke="black" stroke-width="1.5"/>
<path d="M140.201 -81.9928L-300.281 249.934" stroke="black" stroke-width="1.5"/>
<path d="M145.153 -81.2969L-295.329 250.63" stroke="black" stroke-width="1.5"/>
<path d="M150.104 -80.601L-290.378 251.326" stroke="black" stroke-width="1.5"/>
<path d="M155.055 -79.9052L-285.427 252.022" stroke="black" stroke-width="1.5"/>
<path d="M160.007 -79.2093L-280.475 252.718" stroke="black" stroke-width="1.5"/>
<path d="M164.958 -78.5134L-275.524 253.414" stroke="black" stroke-width="1.5"/>
<path d="M169.909 -77.8176L-270.573 254.109" stroke="black" stroke-width="1.5"/>
<path d="M174.861 -77.1217L-265.621 254.805" stroke="black" stroke-width="1.5"/>
<path d="M179.812 -76.4259L-260.67 255.501" stroke="black" stroke-width="1.5"/>
<path d="M184.764 -75.73L-255.718 256.197" stroke="black" stroke-width="1.5"/>
<path d="M189.715 -75.0341L-250.767 256.893" stroke="black" stroke-width="1.5"/>
<path d="M194.666 -74.3382L-245.816 257.589" stroke="black" stroke-width="1.5"/>
<path d="M199.618 -73.6424L-240.864 258.285" stroke="black" stroke-width="1.5"/>
<path d="M204.569 -72.9465L-235.913 258.981" stroke="black" stroke-width="1.5"/>
<path d="M209.52 -72.2506L-230.962 259.676" stroke="black" stroke-width="1.5"/>
<path d="M214.472 -71.5548L-226.01 260.372" stroke="black" stroke-width="1.5"/>
<path d="M219.423 -70.8589L-221.059 261.068" stroke="black" stroke-width="1.5"/>
<path d="M224.374 -70.163L-216.108 261.764" stroke="black" stroke-width="1.5"/>
<path d="M229.326 -69.4672L-211.156 262.46" stroke="black" stroke-width="1.5"/>
<path d="M234.277 -68.7713L-206.205 263.156" stroke="black" stroke-width="1.5"/>
<path d="M239.228 -68.0755L-201.254 263.852" stroke="black" stroke-width="1.5"/>
<path d="M244.18 -67.3796L-196.302 264.547" stroke="black" stroke-width="1.5"/>
<path d="M249.131 -66.6837L-191.351 265.243" stroke="black" stroke-width="1.5"/>
<path d="M254.082 -65.9879L-186.4 265.939" stroke="black" stroke-width="1.5"/>
<path d="M259.034 -65.292L-181.448 266.635" stroke="black" stroke-width="1.5"/>
<path d="M263.985 -64.5962L-176.497 267.331" stroke="black" stroke-width="1.5"/>
<path d="M268.936 -63.9003L-171.546 268.027" stroke="black" stroke-width="1.5"/>
<path d="M273.888 -63.2044L-166.594 268.723" stroke="black" stroke-width="1.5"/>
<path d="M278.839 -62.5085L-161.643 269.419" stroke="black" stroke-width="1.5"/>
<path d="M283.79 -61.8126L-156.692 270.114" stroke="black" stroke-width="1.5"/>
<path d="M288.742 -61.1168L-151.74 270.81" stroke="black" stroke-width="1.5"/>
<path d="M293.693 -60.4209L-146.789 271.506" stroke="black" stroke-width="1.5"/>
<path d="M298.644 -59.7251L-141.838 272.202" stroke="black" stroke-width="1.5"/>
<path d="M303.596 -59.0292L-136.886 272.898" stroke="black" stroke-width="1.5"/>
<path d="M308.547 -58.3333L-131.935 273.594" stroke="black" stroke-width="1.5"/>
<path d="M313.498 -57.6375L-126.984 274.29" stroke="black" stroke-width="1.5"/>
<path d="M318.45 -56.9416L-122.032 274.985" stroke="black" stroke-width="1.5"/>
<path d="M323.401 -56.2457L-117.081 275.681" stroke="black" stroke-width="1.5"/>
<path d="M328.352 -55.5499L-112.13 276.377" stroke="black" stroke-width="1.5"/>
<path d="M333.304 -54.854L-107.178 277.073" stroke="black" stroke-width="1.5"/>
<path d="M338.255 -54.1582L-102.227 277.769" stroke="black" stroke-width="1.5"/>
<path d="M343.206 -53.4623L-97.2756 278.465" stroke="black" stroke-width="1.5"/>
<path d="M348.158 -52.7664L-92.3243 279.161" stroke="black" stroke-width="1.5"/>
<path d="M353.109 -52.0706L-87.3729 279.856" stroke="black" stroke-width="1.5"/>
<path d="M358.06 -51.3747L-82.4215 280.552" stroke="black" stroke-width="1.5"/>
<path d="M363.012 -50.6788L-77.4703 281.248" stroke="black" stroke-width="1.5"/>
<path d="M367.963 -49.9829L-72.5189 281.944" stroke="black" stroke-width="1.5"/>
<path d="M372.915 -49.2871L-67.5675 282.64" stroke="black" stroke-width="1.5"/>
<path d="M377.866 -48.5912L-62.6162 283.336" stroke="black" stroke-width="1.5"/>
<path d="M382.817 -47.8953L-57.6649 284.032" stroke="black" stroke-width="1.5"/>
<path d="M387.769 -47.1995L-52.7135 284.728" stroke="black" stroke-width="1.5"/>
<path d="M392.72 -46.5036L-47.7622 285.423" stroke="black" stroke-width="1.5"/>
<path d="M397.671 -45.8078L-42.8108 286.119" stroke="black" stroke-width="1.5"/>
<path d="M402.623 -45.1119L-37.8595 286.815" stroke="black" stroke-width="1.5"/>
<path d="M407.574 -44.416L-32.9082 287.511" stroke="black" stroke-width="1.5"/>
<path d="M412.525 -43.7202L-27.9568 288.207" stroke="black" stroke-width="1.5"/>
<path d="M417.477 -43.0243L-23.0055 288.903" stroke="black" stroke-width="1.5"/>
<path d="M422.428 -42.3285L-18.0542 289.599" stroke="black" stroke-width="1.5"/>
<path d="M427.379 -41.6326L-13.1028 290.294" stroke="black" stroke-width="1.5"/>
<path d="M432.331 -40.9367L-8.15147 290.99" stroke="black" stroke-width="1.5"/>
<path d="M437.282 -40.2409L-3.20011 291.686" stroke="black" stroke-width="1.5"/>
<path d="M442.233 -39.5449L1.75124 292.382" stroke="black" stroke-width="1.5"/>
<path d="M447.185 -38.8491L6.70254 293.078" stroke="black" stroke-width="1.5"/>
<path d="M452.136 -38.1532L11.6539 293.774" stroke="black" stroke-width="1.5"/>
<path d="M457.087 -37.4574L16.6052 294.47" stroke="black" stroke-width="1.5"/>
<path d="M462.039 -36.7615L21.5566 295.166" stroke="black" stroke-width="1.5"/>
<path d="M466.99 -36.0656L26.5079 295.861" stroke="black" stroke-width="1.5"/>
<path d="M471.941 -35.3698L31.4593 296.557" stroke="black" stroke-width="1.5"/>
<path d="M476.893 -34.6739L36.4106 297.253" stroke="black" stroke-width="1.5"/>
<path d="M481.844 -33.978L41.362 297.949" stroke="black" stroke-width="1.5"/>
<path d="M486.795 -33.2822L46.3133 298.645" stroke="black" stroke-width="1.5"/>
<path d="M491.747 -32.5863L51.2646 299.341" stroke="black" stroke-width="1.5"/>
<path d="M496.698 -31.8905L56.216 300.037" stroke="black" stroke-width="1.5"/>
<path d="M501.649 -31.1946L61.1673 300.732" stroke="black" stroke-width="1.5"/>
<path d="M506.601 -30.4987L66.1186 301.428" stroke="black" stroke-width="1.5"/>
<path d="M511.552 -29.8029L71.07 302.124" stroke="black" stroke-width="1.5"/>
<path d="M516.503 -29.107L76.0213 302.82" stroke="black" stroke-width="1.5"/>
<path d="M521.455 -28.4112L80.9727 303.516" stroke="black" stroke-width="1.5"/>
<path d="M526.406 -27.7152L85.924 304.212" stroke="black" stroke-width="1.5"/>
<path d="M531.357 -27.0194L90.8753 304.908" stroke="black" stroke-width="1.5"/>
<path d="M536.309 -26.3235L95.8267 305.604" stroke="black" stroke-width="1.5"/>
<path d="M541.26 -25.6276L100.778 306.299" stroke="black" stroke-width="1.5"/>
<path d="M546.211 -24.9318L105.729 306.995" stroke="black" stroke-width="1.5"/>
<path d="M551.163 -24.2359L110.681 307.691" stroke="black" stroke-width="1.5"/>
<path d="M556.114 -23.5401L115.632 308.387" stroke="black" stroke-width="1.5"/>
<path d="M561.065 -22.8442L120.583 309.083" stroke="black" stroke-width="1.5"/>
<path d="M566.017 -22.1483L125.535 309.779" stroke="black" stroke-width="1.5"/>
<path d="M570.968 -21.4525L130.486 310.475" stroke="black" stroke-width="1.5"/>
<path d="M575.919 -20.7566L135.437 311.17" stroke="black" stroke-width="1.5"/>
<path d="M580.871 -20.0608L140.389 311.866" stroke="black" stroke-width="1.5"/>
<path d="M585.822 -19.3649L145.34 312.562" stroke="black" stroke-width="1.5"/>
<path d="M590.773 -18.669L150.291 313.258" stroke="black" stroke-width="1.5"/>
<path d="M595.725 -17.9732L155.243 313.954" stroke="black" stroke-width="1.5"/>
<path d="M600.676 -17.2773L160.194 314.65" stroke="black" stroke-width="1.5"/>
<path d="M605.628 -16.5814L165.145 315.346" stroke="black" stroke-width="1.5"/>
<path d="M610.579 -15.8855L170.097 316.042" stroke="black" stroke-width="1.5"/>
<path d="M615.53 -15.1897L175.048 316.737" stroke="black" stroke-width="1.5"/>
<path d="M620.482 -14.4938L179.999 317.433" stroke="black" stroke-width="1.5"/>
<path d="M625.433 -13.7979L184.951 318.129" stroke="black" stroke-width="1.5"/>
<path d="M630.384 -13.1021L189.902 318.825" stroke="black" stroke-width="1.5"/>
<path d="M635.336 -12.4062L194.853 319.521" stroke="black" stroke-width="1.5"/>
<path d="M640.287 -11.7103L199.805 320.217" stroke="black" stroke-width="1.5"/>
<path d="M645.238 -11.0145L204.756 320.913" stroke="black" stroke-width="1.5"/>
<path d="M650.19 -10.3186L209.707 321.608" stroke="black" stroke-width="1.5"/>
<path d="M655.141 -9.62276L214.659 322.304" stroke="black" stroke-width="1.5"/>
<path d="M660.092 -8.9269L219.61 323" stroke="black" stroke-width="1.5"/>
<path d="M665.044 -8.23104L224.562 323.696" stroke="black" stroke-width="1.5"/>
</g>
</svg>
