<svg width="229" height="207" viewBox="0 0 229 207" fill="none" xmlns="http://www.w3.org/2000/svg">
<path d="M44.3928 60.5113L45.1736 60.2235L45.0324 59.4034C44.949 58.9189 44.8688 58.4362 44.7918 57.9554C43.1527 47.7248 42.8431 37.6383 44.742 28.7601C46.6383 19.8948 51.1843 10.5141 60.6294 5.06096C70.0745 -0.392155 80.4714 0.361181 89.0971 3.15167C97.7353 5.94619 106.316 11.2576 114.356 17.7924C114.734 18.0995 115.112 18.4103 115.49 18.7248L116.129 19.2571L116.769 18.7248C117.147 18.4103 117.525 18.0995 117.903 17.7924C125.943 11.2577 134.523 5.94625 143.162 3.15173C151.787 0.361233 162.184 -0.392093 171.629 5.06101C181.074 10.5141 185.621 19.8948 187.517 28.7602C189.416 37.6383 189.106 47.7248 187.467 57.9554C187.39 58.4362 187.31 58.9189 187.226 59.4033L187.085 60.2234L187.866 60.5112C188.327 60.6813 188.785 60.8531 189.24 61.0268C198.92 64.7226 207.81 69.4978 214.549 75.5814C221.279 81.6562 227.129 90.2836 227.129 101.19C227.129 112.096 221.279 120.723 214.549 126.798C207.81 132.882 198.92 137.657 189.24 141.353C188.785 141.527 188.327 141.698 187.866 141.868L187.085 142.156L187.226 142.976C187.31 143.461 187.39 143.943 187.467 144.424C189.106 154.655 189.416 164.741 187.517 173.619C185.621 182.485 181.074 191.865 171.629 197.319C162.184 202.772 151.787 202.018 143.162 199.228C134.523 196.433 125.943 191.122 117.903 184.587C117.525 184.28 117.147 183.969 116.769 183.655L116.129 183.123L115.49 183.655C115.112 183.969 114.734 184.28 114.356 184.587C106.316 191.122 97.7353 196.433 89.0972 199.228C80.4714 202.018 70.0745 202.772 60.6294 197.319C51.1843 191.866 46.6383 182.485 44.742 173.619C42.8431 164.741 43.1527 154.655 44.7918 144.424C44.8688 143.943 44.949 143.461 45.0324 142.976L45.1736 142.156L44.3928 141.868C43.9315 141.698 43.4734 141.527 43.0186 141.353C33.3391 137.657 24.4491 132.882 17.7098 126.798C10.9803 120.723 5.12946 112.096 5.12946 101.19C5.12946 90.2836 10.9803 81.6562 17.7098 75.5814C24.4491 69.4978 33.3391 64.7226 43.0186 61.0268C43.4734 60.8532 43.9315 60.6813 44.3928 60.5113Z" fill="white" stroke="#07090D" stroke-width="2"/>
</svg>
