<svg width="24" height="24" viewBox="0 0 24 24" fill="none" xmlns="http://www.w3.org/2000/svg">
<circle cx="12" cy="12" r="6.5" fill="#FAD880" stroke="#07090D"/>
<path fill-rule="evenodd" clip-rule="evenodd" d="M12.5 3V0H11.5V3H12.5ZM12.5 24V21H11.5V24H12.5ZM18.433 1.85767L16.933 4.45575L16.067 3.95575L17.567 1.35767L18.433 1.85767ZM6.43301 22.6423L7.93301 20.0442L7.06699 19.5442L5.56699 22.1423L6.43301 22.6423ZM22.6423 6.43301L20.0443 7.93301L19.5443 7.06699L22.1423 5.56699L22.6423 6.43301ZM1.85772 18.433L4.4558 16.933L3.9558 16.067L1.35772 17.567L1.85772 18.433ZM24 12.5H21V11.5H24V12.5ZM0 12.5H3V11.5H0V12.5ZM22.1423 18.433L19.5443 16.933L20.0443 16.067L22.6423 17.567L22.1423 18.433ZM1.35772 6.43301L3.9558 7.93301L4.4558 7.06699L1.85772 5.56699L1.35772 6.43301ZM17.567 22.6423L16.067 20.0443L16.933 19.5443L18.433 22.1423L17.567 22.6423ZM5.56699 1.85772L7.06699 4.4558L7.93301 3.9558L6.43301 1.35772L5.56699 1.85772Z" fill="#07090D"/>
</svg>
