<svg width="336" height="176" viewBox="0 0 336 176" fill="none" xmlns="http://www.w3.org/2000/svg">
<path d="M210.529 12.8517C210.539 13.1306 210.664 13.393 210.875 13.5754C211.086 13.7578 211.364 13.8437 211.641 13.8123L324.245 1.0617C328.285 0.60427 332.179 2.7233 333.989 6.36374C335.799 10.0042 335.138 14.388 332.334 17.3324L295.57 55.9476C295.369 56.1593 295.27 56.4485 295.3 56.7392C295.33 57.0299 295.485 57.293 295.725 57.4593C296.016 57.6603 296.296 57.8781 296.565 58.112C298.5 59.794 299.688 62.1757 299.867 64.7332L301.841 92.9753C301.887 93.6264 301.867 94.266 301.787 94.8879C301.774 94.9944 301.777 95.1023 301.798 95.2076C301.875 95.5986 301.928 95.9961 301.956 96.3978L302.781 108.191C303.153 113.517 299.138 118.136 293.812 118.509L281.832 119.346C278.761 119.561 275.925 118.318 274 116.201C273.795 115.975 273.496 115.855 273.191 115.876C272.885 115.898 272.607 116.058 272.434 116.311C270.823 118.674 268.188 120.3 265.116 120.515L253.323 121.34C250.766 121.519 248.242 120.674 246.307 118.992C246.086 118.8 245.874 118.599 245.673 118.389C245.468 118.175 245.178 118.063 244.882 118.084C244.586 118.105 244.314 118.256 244.141 118.496C243.971 118.732 243.79 118.961 243.597 119.182C241.915 121.117 239.534 122.304 236.976 122.483L232.273 122.812C232.024 122.829 231.791 122.939 231.618 123.12L188.468 168.443C185.184 171.893 179.877 172.436 175.962 169.723L116.733 128.684C116.4 128.453 115.961 128.446 115.62 128.666C111.538 131.306 106.663 132.78 101.376 133.15C95.54 133.558 89.857 132.585 84.8905 129.786C83.7285 129.131 82.6414 128.397 81.629 127.59C81.3819 127.393 81.0563 127.325 80.7509 127.405C80.4454 127.486 80.196 127.706 80.0781 127.999C79.6803 128.988 79.1181 129.913 78.4055 130.733C76.7235 132.668 74.3418 133.855 71.7843 134.034L59.9909 134.859C54.6651 135.231 50.0459 131.216 49.6735 125.89L48.1379 103.931C48.1007 103.399 47.6528 102.99 47.1197 103.001C44.7266 103.05 42.3935 102.21 40.5785 100.632C38.6436 98.9499 37.4561 96.5682 37.2773 94.0107L36.5177 83.1483C36.3305 80.4712 37.2509 77.9742 38.891 76.1026C39.0789 75.8883 39.1663 75.604 39.1315 75.3212C39.0966 75.0384 38.9428 74.7839 38.7085 74.6216L8.7173 53.8409C5.40687 51.5471 3.86546 47.4412 4.84857 43.5356C5.83168 39.6299 9.13327 36.7431 13.1351 36.2899L113.171 24.9625C113.505 24.9247 113.798 24.7215 113.95 24.4216C117.15 18.1205 123.06 12.779 131.606 11.3141C131.618 11.3121 131.629 11.31 131.64 11.3076C133.757 10.8681 135.725 11.0526 137.462 11.6718C137.768 11.7808 138.107 11.7346 138.373 11.5478C143.705 7.79758 151.36 6.0103 158.135 11.1241L158.136 11.1249C160.405 12.8328 161.995 14.9084 163.06 17.1482C163.21 17.4641 163.514 17.6786 163.862 17.7137C164.21 17.7489 164.552 17.5996 164.762 17.3201C165.066 16.9162 165.452 16.4219 165.9 15.9073C169.881 11.3272 176.719 10.7527 181.458 14.5365L181.459 14.5369C181.542 14.6037 181.625 14.6713 181.706 14.7397C181.915 14.9163 182.188 14.9991 182.461 14.9689C182.733 14.9386 182.981 14.7979 183.147 14.5797C186.114 10.6714 189.078 7.19401 191.681 4.86033C191.815 4.74095 191.951 4.62528 192.091 4.51348C196.468 1.00672 202.038 1.50215 205.703 4.04464C208.432 5.93748 210.409 9.20864 210.529 12.8517Z" fill="white" stroke="#07090D" stroke-width="2" stroke-linejoin="round"/>
<path d="M181.467 161.778L14.2228 45.8952L325.333 10.6669L181.467 161.778Z" fill="#5BF5D0"/>
<mask id="mask0_647_26155" style="mask-type:alpha" maskUnits="userSpaceOnUse" x="14" y="10" width="312" height="152">
<path d="M181.467 161.778L14.2228 45.8952L325.333 10.6669L181.467 161.778Z" fill="#5BF5D0"/>
</mask>
<g mask="url(#mask0_647_26155)">
<path d="M55.1116 56.0001L69.3338 50.6668" stroke="#EBFF71" stroke-width="2" stroke-linecap="round"/>
<path d="M34.6672 37.7022L40.9709 51.5216" stroke="#EBFF71" stroke-width="2" stroke-linecap="round"/>
<path d="M169.778 68.4445L184 63.1112" stroke="#EBFF71" stroke-width="2" stroke-linecap="round"/>
<path d="M127.683 69.7211L142.747 71.6688" stroke="#EBFF71" stroke-width="2" stroke-linecap="round"/>
<path d="M209.778 65.5993L221.13 75.6909" stroke="#EBFF71" stroke-width="2" stroke-linecap="round"/>
<path d="M78.2227 66.2013L92.3846 71.6927" stroke="#EBFF71" stroke-width="2" stroke-linecap="round"/>
<path d="M99.9861 46.6121L105.451 32.4399" stroke="#EBFF71" stroke-width="2" stroke-linecap="round"/>
<path d="M93.7639 111.501L99.2284 97.3286" stroke="#EBFF71" stroke-width="2" stroke-linecap="round"/>
<path d="M52.8751 83.9454L58.3396 69.7731" stroke="#EBFF71" stroke-width="2" stroke-linecap="round"/>
<path d="M148.933 143.937L149.408 128.755" stroke="#EBFF71" stroke-width="2" stroke-linecap="round"/>
<path d="M168.232 146.468L182.209 140.522" stroke="#EBFF71" stroke-width="2" stroke-linecap="round"/>
<path d="M161.473 116.684L174.92 123.748" stroke="#EBFF71" stroke-width="2" stroke-linecap="round"/>
<path d="M193.548 127.97L192.577 112.812" stroke="#EBFF71" stroke-width="2" stroke-linecap="round"/>
<path d="M211.131 145.601L201.039 134.25" stroke="#EBFF71" stroke-width="2" stroke-linecap="round"/>
<path d="M241.015 62.9046L247.622 49.2275" stroke="#EBFF71" stroke-width="2" stroke-linecap="round"/>
<path d="M289.395 39.5146L280.937 26.8983" stroke="#EBFF71" stroke-width="2" stroke-linecap="round"/>
<path d="M256.197 24.2587L242.429 30.675" stroke="#EBFF71" stroke-width="2" stroke-linecap="round"/>
<path d="M260.946 37.9984L273.921 45.8963" stroke="#EBFF71" stroke-width="2" stroke-linecap="round"/>
<path d="M283.299 57.593L268.658 61.6365" stroke="#EBFF71" stroke-width="2" stroke-linecap="round"/>
<path d="M306.75 7.11138L300.064 20.7502" stroke="#EBFF71" stroke-width="2" stroke-linecap="round"/>
</g>
<path d="M294.865 96.3162L282.699 97.1669L280.724 68.9249L292.89 68.0741L294.865 96.3162ZM295.804 111.532L283.825 112.37L283 100.576L294.98 99.7388L295.804 111.532Z" fill="white"/>
<path d="M264.257 70.0764L276.857 69.1953L266.119 99.3867L267.109 113.539L255.315 114.363L254.326 100.211L239.491 71.8082L252.091 70.9271L258.238 83.9077L258.705 88.8026L260.195 88.6984L259.976 83.7862L264.257 70.0764Z" fill="white"/>
<path d="M238.969 115.506L227.796 116.288L225.556 84.2594L224.005 84.3679C224.021 90.8536 221.561 94.0196 217.092 94.3321L214.547 94.5101L213.635 81.4753L215.125 81.3711C219.532 81.063 221.469 78.4326 221.095 73.0945L235.93 72.0572L238.969 115.506Z" fill="white"/>
<path d="M212.07 117.387L200.897 118.169L198.657 86.1404L197.106 86.2489C197.123 92.7346 194.662 95.9006 190.193 96.2131L187.648 96.3911L186.736 83.3563L188.226 83.2521C192.633 82.9439 194.57 80.3136 194.197 74.9755L209.031 73.9381L212.07 117.387Z" fill="white"/>
<path d="M191.039 118.858L178.501 119.735L176.047 109.615L166.736 110.266L165.714 120.629L153.176 121.506L159.076 77.4314L179.063 76.0338L191.039 118.858ZM168.922 88.9058L167.852 99.4595L173.438 99.0688L170.909 88.7669L170.278 83.322L168.789 83.4262L168.922 88.9058Z" fill="white"/>
<path d="M119.658 80.1877L151.687 77.948L152.446 88.8104L142.329 89.5179L144.607 122.105L132.814 122.93L130.535 90.3425L120.418 91.05L119.658 80.1877Z" fill="white"/>
<path d="M103.368 126.174C94.6785 126.781 88.4997 123.159 85.522 116.257C84.1791 113.107 83.4047 109.169 83.0835 104.576C82.7623 99.9829 82.9768 95.9136 83.8684 92.6078C85.8564 85.3582 91.4753 80.9733 100.165 80.3657C108.917 79.7537 115.03 83.3182 118.007 90.2206C119.412 93.3658 120.191 97.3657 120.512 101.959C120.833 106.552 120.614 110.559 119.661 113.869C117.611 121.123 112.12 125.562 103.368 126.174ZM102.609 115.311C105.402 115.116 107.156 113.434 107.913 110.886C108.457 108.852 108.435 105.86 108.222 102.818C108.005 99.7147 107.615 96.8105 106.793 94.8719C105.689 92.4542 103.718 91.0327 100.925 91.228C98.1316 91.4233 96.3779 93.1053 95.6826 95.6489C95.0766 97.6872 95.0944 100.618 95.3114 103.721C95.5241 106.763 95.9187 109.729 96.8024 111.663C97.845 114.085 99.8156 115.507 102.609 115.311Z" fill="white"/>
<path d="M48.8275 85.1407L80.8559 82.901L81.6155 93.7634L71.498 94.4709L73.7767 127.058L61.9833 127.883L59.7046 95.2955L49.5871 96.003L48.8275 85.1407Z" fill="white"/>
<path d="M210.996 55.083C206.313 46.2148 215.644 32.0896 224.637 27.6648C230.318 24.8082 235.44 27.7113 234.439 34.0366C232.928 43.0171 220.432 49.3442 213.736 47.6204C214.034 46.5303 214.339 45.5466 214.854 44.4948C218.915 45.2267 224.919 42.401 228.363 38.8989C230.266 37.055 232.632 32.6659 230.667 30.5579C229.916 29.755 227.514 29.816 224.681 31.3507C220.003 34.0302 214.661 40.9797 213.312 46.1531C211.963 51.3264 213.992 56.6378 219.985 55.9514C222.9 55.5872 226.11 54.0797 228.728 51.7581C229.683 50.8893 230.584 50.0243 231.585 49.0455C232.183 48.4156 233.197 48.3981 233.831 49.0488C234.461 49.6463 234.478 50.6609 233.828 51.2945C232.834 52.3798 231.826 53.2522 230.818 54.1247C227.8 56.8485 223.975 58.7199 220.368 59.1325C216.762 59.545 212.792 58.593 210.996 55.083ZM203.481 54.6462C202.851 54.0487 202.94 53.0267 203.537 52.3968C205.497 50.6024 207.389 48.5989 209.372 46.3752C208.959 48.1149 208.812 49.836 208.931 51.5385C207.781 52.6881 206.788 53.7734 205.734 54.756C205.137 55.3859 204.115 55.2969 203.481 54.6462Z" fill="white"/>
<path d="M194.625 60.5583C191.445 60.1926 189.601 58.2899 188.643 56.058C187.514 53.6776 187.291 50.4854 187.434 48.7111C188.418 49.0166 189.501 49.2082 190.678 49.2327C190.656 51.2124 190.783 53.0213 191.544 54.7324C192.234 56.1812 193.209 57.1288 194.937 57.3821C196.601 57.4796 198.536 56.8631 201.812 54.0144C202.821 53.1419 203.875 52.1593 204.921 51.0703C205.519 50.4405 206.537 50.4762 207.167 51.0737C207.801 51.7244 207.818 52.739 207.167 53.3726C206.014 54.469 205.067 55.4442 203.903 56.381C200.425 59.4043 197.687 60.7719 194.625 60.5583ZM170.151 59.9708C170.467 59.1467 170.788 58.3758 171.207 57.4911L171.203 57.4379C175.258 49.6695 180.855 39.4943 185.875 31.7653C185.928 31.7616 185.928 31.7616 185.924 31.7084C191.001 24.0289 196.289 17.0831 199.912 13.8359C201.228 12.7815 203.244 14.084 202.447 15.6902C200.728 19.3924 196.567 24.8694 192.044 30.532L188.401 35.0103C192.068 29.3541 196.193 23.3451 200.88 16.976C201.028 16.8052 201.013 16.5924 200.843 16.4439C200.619 16.2992 200.463 16.3636 200.314 16.5343C194.306 24.6532 189.017 32.3476 184.849 39.2685C182.299 41.7991 179.848 44.9645 177.145 48.3614C176.947 48.589 176.958 48.7487 177.182 48.8934C177.41 49.0913 177.569 49.0802 177.714 48.8562C181.445 44.1044 185.209 39.8314 189.653 36.099C193.287 33.0113 196.919 30.6723 199.828 29.4531C201.234 28.927 202.759 28.5531 204.062 28.8362C205.63 29.1007 206.609 30.1016 206.991 31.7323C207.776 35.3129 204.865 40.3281 201.204 43.7919C197.335 47.3238 191.624 49.7547 187.264 47.8141C186.213 47.2995 185.272 46.0822 185.665 44.825C186.402 42.3676 189.59 42.8398 190.305 44.661C189.826 44.6945 188.801 44.5523 188.322 44.5858C188.056 44.6044 187.975 44.9843 188.359 45.1178C189.012 45.286 189.977 45.3255 190.566 45.3377C193.774 45.3273 196.599 43.6862 199.008 41.4327C200.663 39.8735 202.038 38.12 202.933 36.4C203.825 34.6268 204.104 33.2707 203.889 32.4838C203.545 31.3851 201.522 32.2751 200.997 32.4187C190.382 36.5826 177.676 51.3716 173.075 61.2633C172.19 63.1429 169.43 61.8924 170.151 59.9708ZM166.442 57.3966C165.809 56.7458 165.848 55.7807 166.499 55.1471C170.213 51.6796 173.22 48.0477 176.337 44.4615L179.938 40.1465C177.218 44.8276 174.555 49.5582 172.242 53.9436C171.051 55.2565 169.845 56.3567 168.692 57.4531C168.041 58.0867 167.076 58.0473 166.442 57.3966Z" fill="white"/>
<path d="M157.641 62.8772C155.29 62.1327 154.449 60.053 154.46 57.9137C154.725 53.2973 157 49.1285 159.297 45.2789C161.156 42.048 165.695 35.8496 169.566 31.5692C170.92 30.2983 173.456 32.1526 172.333 33.6746C171.8 34.4604 166.166 43.355 161.644 49.0176C163.534 45.4638 168.103 38.9425 170.498 35.7276C170.647 35.5568 170.578 35.3478 170.408 35.1993C170.184 35.0546 170.028 35.1189 169.879 35.2897C165.539 41.2604 157.68 51.968 157.667 57.9033C157.734 61.1598 160.461 59.6326 162.157 58.6586C163.949 57.5175 166.072 55.7651 168.317 53.4696C168.968 52.836 169.982 52.8185 170.616 53.4692C171.246 54.0667 171.21 55.085 170.613 55.7149C166.86 59.399 161.579 64.1523 157.641 62.8772ZM148.459 58.4937C147.829 57.8962 147.865 56.8779 148.516 56.2443C151.069 53.7668 154.863 49.9194 157.535 46.8456C156.198 49.1311 154.609 52.3966 154.111 55.2115C152.919 56.5244 151.865 57.507 150.712 58.6035C150.062 59.2371 149.093 59.1444 148.459 58.4937ZM177.207 23.8708C177.887 24.4113 178.007 25.3653 177.47 26.0978C176.823 26.7847 176.29 27.5704 175.654 28.4168C174.078 30.3448 171.748 28.3692 173.012 26.57C173.751 25.6629 174.231 24.8809 174.973 24.027C175.517 23.4008 176.471 23.2807 177.207 23.8708Z" fill="white"/>
<path d="M136.001 65.4062C126.589 65.3693 119.887 59.7432 111.75 55.7678C109.817 54.8871 108.23 54.3566 106.676 54.3049C102.815 54.1471 101.041 56.3028 100.906 58.1835C100.77 60.0642 102.084 62.8058 105.978 63.4424C111.198 63.9328 115.239 62.8483 118.567 60.7444L118.719 60.6268L121.939 62.3263L121.886 62.33C117.621 65.5687 112.447 67.2671 105.722 66.6681C100.305 65.6569 97.4157 61.7957 97.7331 57.9241C98.0505 54.0526 101.464 50.8734 106.772 51.0904C111.487 51.2418 115.704 54.2082 119.444 56.4595C124.857 59.7164 130.504 62.4759 136.208 62.2375C140.049 62.1292 143.532 60.7095 146.957 57.6899L150.065 54.7459C150.663 54.116 151.681 54.1517 152.311 54.7492C152.945 55.4 152.962 56.4145 152.311 57.0481C151.162 58.1978 150.112 59.2336 149.05 60.1097C145.017 63.5996 140.922 65.4364 136.001 65.4062ZM122.611 57.4141C123.502 56.3895 126.46 52.8145 128.38 49.6863C129.272 50.212 130.267 50.6771 131.304 50.9788C129.978 53.4239 127.442 56.916 125.6 58.8625C124.495 58.3517 123.557 57.9361 122.611 57.4141ZM135.582 51.0004C127.729 50.3199 122.341 45.1365 122.592 37.2598C122.83 30.7206 127.267 23.8344 135.252 22.5809C136.092 22.3618 136.939 22.9976 137.055 23.8984C137.274 24.7385 136.639 25.5849 135.738 25.7013C129.554 26.7218 126.024 32.0477 125.807 37.3558C125.573 43.9482 129.748 47.0779 135.519 47.797C144.136 47.9429 151.946 37.2923 153.519 29.9647C154.276 26.2762 153.322 24.0975 152.187 23.161C151.117 22.3805 149.289 22.2409 146.721 24.5056C141.288 29.3765 137.638 38.3462 133.521 46.7605C132.492 46.5652 131.505 46.2065 130.552 45.5781C134.767 37.05 138.539 27.537 144.578 22.1427C147.793 19.1912 151.442 18.6153 154.095 20.6218C156.634 22.5293 157.594 26.3116 156.664 30.6002C154.739 39.7701 145.378 51.1708 135.582 51.0004Z" fill="white"/>
<path d="M292.198 93.6495L280.033 94.5002L278.058 66.2582L290.223 65.4075L292.198 93.6495ZM293.138 108.865L281.158 109.703L280.333 97.9098L292.313 97.0721L293.138 108.865Z" fill="#474FFF"/>
<path d="M261.59 67.4097L274.19 66.5286L263.453 96.72L264.442 110.872L252.649 111.697L251.659 97.5447L236.824 69.1415L249.424 68.2604L255.571 81.241L256.038 86.1359L257.528 86.0317L257.309 81.1195L261.59 67.4097Z" fill="#EC2B99"/>
<path d="M236.302 112.84L225.129 113.621L222.89 81.5927L221.338 81.7012C221.355 88.1869 218.894 91.3529 214.425 91.6655L211.88 91.8434L210.969 78.8086L212.458 78.7044C216.865 78.3963 218.802 75.7659 218.429 70.4278L233.264 69.3905L236.302 112.84Z" fill="#EC2B99"/>
<path d="M209.403 114.721L198.23 115.502L195.991 83.4737L194.439 83.5822C194.456 90.0679 191.995 93.2339 187.526 93.5464L184.981 93.7244L184.07 80.6896L185.559 80.5854C189.966 80.2773 191.903 77.6469 191.53 72.3088L206.365 71.2715L209.403 114.721Z" fill="#EC2B99"/>
<path d="M188.372 116.191L175.834 117.068L173.38 106.948L164.069 107.599L163.048 117.962L150.509 118.839L156.409 74.7647L176.396 73.3671L188.372 116.191ZM166.256 86.2391L165.185 96.7928L170.771 96.4022L168.242 86.1002L167.612 80.6553L166.122 80.7595L166.256 86.2391Z" fill="#EC2B99"/>
<path d="M116.992 77.521L149.02 75.2814L149.779 86.1437L139.662 86.8512L141.941 119.438L130.147 120.263L127.869 87.6758L117.751 88.3833L116.992 77.521Z" fill="#474FFF"/>
<path d="M100.702 123.507C92.0117 124.115 85.8329 120.492 82.8553 113.59C81.5123 110.44 80.738 106.503 80.4168 101.909C80.0956 97.3162 80.31 93.2469 81.2016 89.9411C83.1896 82.6915 88.8085 78.3066 97.4984 77.699C106.25 77.087 112.363 80.6515 115.34 87.5539C116.745 90.6991 117.524 94.699 117.845 99.2922C118.166 103.885 117.948 107.893 116.994 111.203C114.944 118.457 109.454 122.895 100.702 123.507ZM99.942 112.645C102.735 112.449 104.489 110.767 105.246 108.219C105.79 106.185 105.768 103.193 105.555 100.152C105.338 97.0481 104.948 94.1438 104.126 92.2053C103.022 89.7875 101.051 88.366 98.258 88.5613C95.4648 88.7566 93.7112 90.4386 93.0158 92.9822C92.4099 95.0205 92.4277 97.9509 92.6447 101.054C92.8574 104.096 93.2519 107.062 94.1356 108.996C95.1782 111.418 97.1489 112.84 99.942 112.645Z" fill="#474FFF"/>
<path d="M46.1608 82.474L78.1892 80.2344L78.9488 91.0967L68.8313 91.8042L71.11 124.391L59.3166 125.216L57.0379 92.6288L46.9204 93.3363L46.1608 82.474Z" fill="#474FFF"/>
<path d="M209.219 53.3053C204.535 44.437 213.866 30.3118 222.859 25.887C228.54 23.0304 233.662 25.9336 232.661 32.2588C231.15 41.2393 218.655 47.5664 211.958 45.8427C212.256 44.7526 212.562 43.7689 213.076 42.7171C217.137 43.4489 223.141 40.6232 226.585 37.1211C228.488 35.2772 230.854 30.8882 228.889 28.7801C228.138 27.9772 225.736 28.0382 222.903 29.5729C218.225 32.2524 212.884 39.2019 211.535 44.3753C210.186 49.5487 212.214 54.8601 218.208 54.1736C221.123 53.8094 224.332 52.3019 226.95 49.9803C227.905 49.1116 228.807 48.2465 229.808 47.2677C230.405 46.6378 231.42 46.6203 232.053 47.271C232.683 47.8686 232.701 48.8831 232.05 49.5167C231.057 50.602 230.048 51.4745 229.04 52.3469C226.023 55.0707 222.197 56.9421 218.591 57.3547C214.984 57.7673 211.014 56.8152 209.219 53.3053ZM201.703 52.8684C201.073 52.2709 201.162 51.2489 201.76 50.619C203.719 48.8246 205.611 46.8211 207.594 44.5974C207.181 46.3371 207.034 48.0582 207.153 49.7607C206.004 50.9104 205.01 51.9956 203.956 52.9782C203.359 53.6081 202.337 53.5192 201.703 52.8684Z" fill="#474FFF"/>
<path d="M192.847 58.7806C189.667 58.4148 187.823 56.5122 186.865 54.2802C185.736 51.8998 185.513 48.7077 185.656 46.9333C186.64 47.2388 187.723 47.4304 188.901 47.455C188.879 49.4346 189.005 51.2436 189.766 52.9546C190.456 54.4034 191.431 55.351 193.159 55.6044C194.824 55.7019 196.759 55.0854 200.035 52.2366C201.043 51.3641 202.097 50.3816 203.143 49.2926C203.741 48.6627 204.759 48.6984 205.389 49.2959C206.023 49.9466 206.04 50.9612 205.39 51.5948C204.237 52.6913 203.289 53.6664 202.125 54.6032C198.647 57.6265 195.909 58.9941 192.847 58.7806ZM168.373 58.193C168.69 57.3689 169.01 56.598 169.429 55.7133L169.426 55.6601C173.48 47.8917 179.077 37.7165 184.097 29.9875C184.15 29.9838 184.15 29.9838 184.147 29.9306C189.223 22.2511 194.512 15.3053 198.134 12.0581C199.45 11.0037 201.466 12.3063 200.669 13.9124C198.95 17.6147 194.789 23.0916 190.266 28.7542L186.623 33.2326C190.291 27.5763 194.415 21.5673 199.102 15.1982C199.25 15.0274 199.236 14.8146 199.065 14.6662C198.841 14.5214 198.685 14.5858 198.536 14.7566C192.528 22.8754 187.239 30.5698 183.071 37.4907C180.522 40.0214 178.07 43.1868 175.367 46.5836C175.169 46.8113 175.18 46.9709 175.404 47.1156C175.632 47.3135 175.791 47.3024 175.936 47.0784C179.667 42.3266 183.432 38.0536 187.875 34.3212C191.509 31.2336 195.141 28.8945 198.05 27.6753C199.457 27.1492 200.981 26.7753 202.284 27.0584C203.853 27.323 204.832 28.3238 205.213 29.9545C205.998 33.5351 203.087 38.5504 199.427 42.0141C195.557 45.546 189.846 47.977 185.487 46.0363C184.435 45.5218 183.494 44.3044 183.888 43.0473C184.625 40.5899 187.812 41.062 188.527 42.8832C188.049 42.9167 187.023 42.7746 186.544 42.808C186.278 42.8266 186.198 43.2065 186.581 43.3401C187.235 43.5082 188.2 43.5477 188.789 43.56C191.996 43.5496 194.821 41.9085 197.23 39.655C198.885 38.0957 200.26 36.3422 201.155 34.6222C202.047 32.849 202.327 31.4929 202.111 30.706C201.767 29.6074 199.744 30.4973 199.22 30.6409C188.604 34.8049 175.898 49.5938 171.297 59.4855C170.413 61.3651 167.652 60.1147 168.373 58.193ZM164.664 55.6188C164.031 54.9681 164.07 54.003 164.721 53.3694C168.435 49.9019 171.442 46.2699 174.56 42.6837L178.161 38.3687C175.441 43.0498 172.777 47.7805 170.464 52.1658C169.273 53.4788 168.067 54.5789 166.914 55.6754C166.263 56.309 165.298 56.2695 164.664 55.6188Z" fill="#474FFF"/>
<path d="M155.863 61.0995C153.512 60.355 152.671 58.2752 152.682 56.1359C152.948 51.5195 155.222 47.3507 157.519 43.5011C159.378 40.2702 163.917 34.0719 167.788 29.7914C169.143 28.5205 171.678 30.3748 170.555 31.8969C170.022 32.6826 164.388 41.5772 159.866 47.2398C161.756 43.686 166.325 37.1647 168.72 33.9498C168.869 33.7791 168.801 33.57 168.63 33.4215C168.406 33.2768 168.25 33.3412 168.102 33.5119C163.761 39.4826 155.902 50.1902 155.889 56.1255C155.957 59.3821 158.683 57.8548 160.38 56.8808C162.171 55.7397 164.294 53.9874 166.539 51.6918C167.19 51.0582 168.205 51.0407 168.838 51.6915C169.468 52.289 169.432 53.3073 168.835 53.9372C165.083 57.6212 159.801 62.3745 155.863 61.0995ZM146.681 56.7159C146.052 56.1184 146.087 55.1001 146.738 54.4665C149.291 51.989 153.086 48.1417 155.758 45.0678C154.42 47.3533 152.831 50.6188 152.333 53.4337C151.142 54.7467 150.088 55.7293 148.935 56.8257C148.284 57.4593 147.315 57.3666 146.681 56.7159ZM175.43 22.093C176.109 22.6336 176.229 23.5875 175.692 24.3201C175.045 25.0069 174.512 25.7927 173.876 26.6391C172.3 28.567 169.97 26.5914 171.234 24.7922C171.973 23.8851 172.453 23.1031 173.195 22.2492C173.739 21.6231 174.693 21.5029 175.43 22.093Z" fill="#474FFF"/>
<path d="M134.224 63.6284C124.812 63.5916 118.109 57.9654 109.972 53.99C108.04 53.1094 106.452 52.5788 104.898 52.5271C101.038 52.3693 99.2636 54.525 99.1278 56.4057C98.992 58.2864 100.306 61.0281 104.2 61.6647C109.421 62.155 113.461 61.0705 116.789 58.9666L116.942 58.849L120.161 60.5486L120.108 60.5523C115.844 63.791 110.67 65.4894 103.945 64.8903C98.5277 63.8791 95.638 60.0179 95.9553 56.1464C96.2727 52.2748 99.6859 49.0957 104.994 49.3126C109.709 49.464 113.927 52.4304 117.666 54.6817C123.08 57.9386 128.726 60.6981 134.43 60.4597C138.272 60.3514 141.754 58.9317 145.179 55.9121L148.288 52.9681C148.885 52.3382 149.903 52.374 150.533 52.9715C151.167 53.6222 151.184 54.6368 150.534 55.2704C149.384 56.42 148.334 57.4558 147.273 58.332C143.24 61.8218 139.144 63.6586 134.224 63.6284ZM120.834 55.6364C121.724 54.6117 124.682 51.0367 126.602 47.9085C127.494 48.4342 128.489 48.8993 129.526 49.201C128.2 51.6462 125.664 55.1382 123.822 57.0848C122.717 56.5739 121.779 56.1584 120.834 55.6364ZM133.804 49.2226C125.951 48.5421 120.563 43.3587 120.814 35.482C121.052 28.9429 125.489 22.0566 133.475 20.8032C134.315 20.584 135.161 21.2199 135.277 22.1206C135.497 22.9607 134.861 23.8071 133.96 23.9236C127.776 24.9441 124.246 30.27 124.029 35.578C123.795 42.1704 127.97 45.3001 133.741 46.0193C142.359 46.1652 150.168 35.5145 151.741 28.1869C152.499 24.4984 151.544 22.3197 150.41 21.3833C149.339 20.6027 147.512 20.4632 144.943 22.7278C139.51 27.5987 135.86 36.5685 131.744 44.9827C130.714 44.7874 129.727 44.4287 128.774 43.8004C132.989 35.2722 136.762 25.7593 142.8 20.3649C146.015 17.4135 149.664 16.8375 152.317 18.844C154.856 20.7515 155.816 24.5338 154.886 28.8224C152.961 37.9923 143.6 49.3931 133.804 49.2226Z" fill="#474FFF"/>
</svg>
