<svg width="378" height="198" viewBox="0 0 378 198" fill="none" xmlns="http://www.w3.org/2000/svg">
<path d="M236.971 14.4541C236.98 14.733 237.106 14.9954 237.317 15.1778C237.528 15.3602 237.806 15.4461 238.083 15.4147L364.763 1.0702C369.36 0.549681 373.791 2.961 375.851 7.10359C377.91 11.2462 377.157 16.2346 373.967 19.5852L332.608 63.0274C332.406 63.2391 332.308 63.5283 332.337 63.819C332.367 64.1097 332.523 64.3728 332.763 64.5392C333.093 64.7679 333.413 65.0157 333.719 65.2819C335.921 67.1958 337.272 69.9061 337.475 72.8163L339.697 104.589C339.749 105.33 339.726 106.057 339.636 106.765C339.622 106.872 339.626 106.979 339.646 107.085C339.734 107.53 339.794 107.982 339.826 108.439L340.754 121.707C341.178 127.767 336.608 133.023 330.548 133.447L317.071 134.39C313.576 134.634 310.348 133.219 308.159 130.811C307.953 130.584 307.655 130.465 307.349 130.486C307.044 130.507 306.765 130.667 306.593 130.92C304.76 133.61 301.761 135.46 298.265 135.705L284.998 136.632C282.088 136.836 279.216 135.875 277.014 133.961C276.762 133.742 276.522 133.513 276.293 133.275C276.087 133.061 275.798 132.949 275.502 132.97C275.206 132.99 274.934 133.141 274.76 133.382C274.567 133.65 274.361 133.91 274.142 134.162C272.228 136.364 269.518 137.715 266.608 137.918L261.316 138.288C261.068 138.306 260.834 138.416 260.662 138.596L212.118 189.585C208.381 193.511 202.341 194.129 197.886 191.042L131.254 144.873C130.921 144.642 130.481 144.635 130.141 144.855C125.528 147.838 120.023 149.502 114.057 149.919C107.472 150.379 101.053 149.282 95.4407 146.119C94.1276 145.379 92.8991 144.548 91.7549 143.637C91.5079 143.44 91.1823 143.372 90.8769 143.452C90.5714 143.533 90.322 143.753 90.2041 144.046C89.7514 145.171 89.1116 146.224 88.3007 147.157C86.3867 149.359 83.6765 150.71 80.7662 150.914L67.4986 151.841C61.4383 152.265 56.1819 147.696 55.7581 141.636L54.0306 116.931C53.9934 116.4 53.5455 115.99 53.0124 116.001C50.2892 116.058 47.6342 115.101 45.5689 113.306C43.3671 111.392 42.0159 108.681 41.8123 105.771L40.9578 93.5509C40.7448 90.5045 41.7923 87.6628 43.6585 85.5333C43.8464 85.319 43.9338 85.0347 43.899 84.7519C43.8641 84.4691 43.7102 84.2146 43.476 84.0523L9.73579 60.6739C5.96875 58.0637 4.21473 53.3915 5.33344 48.9471C6.45215 44.5028 10.2092 41.2178 14.763 40.7021L127.303 27.9587C127.638 27.9209 127.93 27.7176 128.083 27.4178C131.698 20.2988 138.378 14.2608 148.036 12.6052C148.042 12.6042 148.048 12.6032 148.053 12.6021C148.059 12.601 148.065 12.5999 148.07 12.5987C150.475 12.0995 152.711 12.3088 154.687 13.0131C154.993 13.1221 155.332 13.0758 155.598 12.8891C161.624 8.65124 170.298 6.61777 177.977 12.4149L177.979 12.4157C180.548 14.35 182.349 16.7013 183.556 19.2381C183.706 19.554 184.01 19.7685 184.358 19.8036C184.706 19.8388 185.047 19.6895 185.258 19.41C185.601 18.9541 186.037 18.3956 186.543 17.8137C191.067 12.6098 198.836 11.958 204.219 16.256L204.219 16.2563C204.314 16.3321 204.408 16.4089 204.5 16.4866C204.71 16.6632 204.983 16.746 205.255 16.7158C205.527 16.6856 205.775 16.5449 205.941 16.3266C209.281 11.9277 212.621 8.00817 215.559 5.37481C215.71 5.23896 215.865 5.10734 216.024 4.98012C220.998 0.995805 227.325 1.5601 231.488 4.44752C234.588 6.59796 236.834 10.3135 236.971 14.4541Z" fill="white" stroke="#07090D" stroke-width="2" stroke-linejoin="round"/>
<path d="M204.151 182L16.0007 51.6323L366.001 12.0004L204.151 182Z" fill="#5BF5D0"/>
<mask id="mask0_647_26155" style="mask-type:alpha" maskUnits="userSpaceOnUse" x="16" y="12" width="351" height="171">
<path d="M204.151 182L16.0007 51.6323L366.001 12.0004L204.151 182Z" fill="#5BF5D0"/>
</mask>
<g mask="url(#mask0_647_26155)">
<path d="M62.0007 63.0004L78.0007 57.0004" stroke="#EBFF71" stroke-width="2" stroke-linecap="round"/>
<path d="M39.0007 42.4152L46.0924 57.9621" stroke="#EBFF71" stroke-width="2" stroke-linecap="round"/>
<path d="M191.001 77.0004L207.001 71.0004" stroke="#EBFF71" stroke-width="2" stroke-linecap="round"/>
<path d="M143.644 78.4365L160.591 80.6277" stroke="#EBFF71" stroke-width="2" stroke-linecap="round"/>
<path d="M236.001 73.7995L248.772 85.1526" stroke="#EBFF71" stroke-width="2" stroke-linecap="round"/>
<path d="M88.0008 74.4767L103.933 80.6546" stroke="#EBFF71" stroke-width="2" stroke-linecap="round"/>
<path d="M112.485 52.4389L118.632 36.495" stroke="#EBFF71" stroke-width="2" stroke-linecap="round"/>
<path d="M105.485 125.439L111.632 109.495" stroke="#EBFF71" stroke-width="2" stroke-linecap="round"/>
<path d="M59.4846 94.4389L65.6323 78.495" stroke="#EBFF71" stroke-width="2" stroke-linecap="round"/>
<path d="M167.55 161.93L168.084 144.85" stroke="#EBFF71" stroke-width="2" stroke-linecap="round"/>
<path d="M189.262 164.777L204.986 158.087" stroke="#EBFF71" stroke-width="2" stroke-linecap="round"/>
<path d="M181.657 131.27L196.785 139.217" stroke="#EBFF71" stroke-width="2" stroke-linecap="round"/>
<path d="M217.742 143.967L216.65 126.914" stroke="#EBFF71" stroke-width="2" stroke-linecap="round"/>
<path d="M237.523 163.802L226.169 151.032" stroke="#EBFF71" stroke-width="2" stroke-linecap="round"/>
<path d="M271.143 70.7679L278.576 55.3811" stroke="#EBFF71" stroke-width="2" stroke-linecap="round"/>
<path d="M325.571 44.454L316.055 30.2607" stroke="#EBFF71" stroke-width="2" stroke-linecap="round"/>
<path d="M288.222 27.2913L272.733 34.5096" stroke="#EBFF71" stroke-width="2" stroke-linecap="round"/>
<path d="M293.565 42.7483L308.162 51.6335" stroke="#EBFF71" stroke-width="2" stroke-linecap="round"/>
<path d="M318.712 64.7923L302.241 69.3413" stroke="#EBFF71" stroke-width="2" stroke-linecap="round"/>
<path d="M345.094 8.00039L337.573 23.3441" stroke="#EBFF71" stroke-width="2" stroke-linecap="round"/>
</g>
<path d="M54.9311 95.7835L90.9631 93.2639L91.8176 105.484L80.4354 106.28L82.999 142.94L69.7314 143.868L67.1678 107.208L55.7856 108.004L54.9311 95.7835ZM116.29 141.946C106.514 142.629 99.5623 138.554 96.2125 130.789C94.7016 127.246 93.8305 122.816 93.4692 117.649C93.1078 112.481 93.3491 107.903 94.3521 104.184C96.5886 96.0282 102.91 91.0953 112.686 90.4117C122.532 89.7232 129.408 93.7333 132.758 101.498C134.339 105.037 135.215 109.537 135.576 114.704C135.938 119.871 135.692 124.38 134.619 128.104C132.312 136.264 126.136 141.257 116.29 141.946ZM115.435 129.726C118.577 129.506 120.55 127.614 121.402 124.747C122.014 122.459 121.989 119.093 121.75 115.671C121.506 112.179 121.067 108.912 120.143 106.731C118.9 104.011 116.683 102.412 113.541 102.632C110.398 102.852 108.425 104.744 107.643 107.605C106.961 109.898 106.981 113.195 107.226 116.687C107.465 120.108 107.909 123.445 108.903 125.621C110.076 128.346 112.293 129.945 115.435 129.726ZM134.616 90.2114L170.648 87.6918L171.502 99.912L160.12 100.708L162.684 137.368L149.416 138.296L146.853 101.636L135.47 102.432L134.616 90.2114ZM214.919 133.716L200.814 134.702L198.053 123.317L187.579 124.049L186.429 135.708L172.323 136.694L178.961 87.1105L201.446 85.5382L214.919 133.716ZM190.038 100.019L188.834 111.892L195.118 111.453L192.273 99.863L191.564 93.7375L189.888 93.8547L190.038 100.019ZM238.579 132.061L226.01 132.94L223.49 96.9082L221.744 97.0303C221.763 104.327 218.995 107.888 213.967 108.24L211.104 108.44L210.079 93.7761L211.755 93.6589C216.713 93.3122 218.892 90.353 218.472 84.3477L235.161 83.1806L238.579 132.061ZM268.84 129.945L256.271 130.824L253.751 94.7921L252.006 94.9142C252.025 102.211 249.256 105.772 244.229 106.124L241.366 106.324L240.34 91.66L242.016 91.5428C246.974 91.1961 249.153 88.2369 248.733 82.2316L265.422 81.0646L268.84 129.945ZM297.29 78.8362L311.465 77.8449L299.385 111.81L300.498 127.731L287.231 128.659L286.117 112.738L269.428 80.7845L283.603 79.7932L290.519 94.3964L291.044 99.9032L292.72 99.786L292.474 94.2597L297.29 78.8362ZM331.724 108.356L318.037 109.313L315.816 77.5407L329.502 76.5836L331.724 108.356ZM332.781 125.474L319.304 126.416L318.376 113.149L331.853 112.206L332.781 125.474Z" fill="white"/>
<path d="M153.002 73.5822C142.413 73.5407 134.874 67.2112 125.719 62.7389C123.545 61.7482 121.759 61.1513 120.011 61.0931C115.668 60.9157 113.672 63.3408 113.519 65.4566C113.366 67.5724 114.845 70.6568 119.226 71.3729C125.098 71.9246 129.644 70.7045 133.388 68.3376L133.56 68.2053L137.182 70.1173L137.122 70.1215C132.324 73.765 126.504 75.6757 118.938 75.0018C112.844 73.8642 109.593 69.5204 109.95 65.1648C110.307 60.8093 114.147 57.2328 120.119 57.4768C125.423 57.6472 130.168 60.9843 134.375 63.5171C140.465 67.1811 146.817 70.2856 153.234 70.0173C157.556 69.8955 161.474 68.2983 165.327 64.9013L168.824 61.5893C169.496 60.8807 170.642 60.9209 171.35 61.5931C172.063 62.3251 172.083 63.4665 171.351 64.1793C170.058 65.4727 168.876 66.6379 167.682 67.6236C163.145 71.5497 158.538 73.6161 153.002 73.5822ZM137.938 64.5911C138.94 63.4384 142.268 59.4165 144.428 55.8972C145.431 56.4887 146.55 57.0119 147.717 57.3513C146.225 60.1021 143.372 64.0307 141.3 66.2205C140.057 65.6459 139.002 65.1783 137.938 64.5911ZM152.53 57.3756C143.695 56.61 137.634 50.7787 137.917 41.9174C138.184 34.5608 143.176 26.8137 152.159 25.4036C153.104 25.1571 154.057 25.8724 154.188 26.8857C154.434 27.8308 153.719 28.7831 152.705 28.9141C145.749 30.0621 141.777 36.0538 141.533 42.0254C141.27 49.4418 145.967 52.9627 152.459 53.7718C162.154 53.9359 170.939 41.9539 172.709 33.7104C173.561 29.5608 172.488 27.1097 171.211 26.0562C170.007 25.1781 167.951 25.0211 165.062 27.5689C158.949 33.0486 154.843 43.1396 150.212 52.6057C149.054 52.386 147.943 51.9825 146.871 51.2755C151.613 41.6813 155.857 30.9792 162.65 24.9106C166.268 21.5902 170.372 20.9423 173.357 23.1996C176.214 25.3455 177.293 29.6006 176.247 34.4253C174.082 44.7415 163.551 57.5673 152.53 57.3756ZM177.346 70.7371C174.701 69.8995 173.756 67.5598 173.768 65.1531C174.066 59.9596 176.625 55.2697 179.21 50.9389C181.301 47.3041 186.407 40.331 190.762 35.5155C192.286 34.0857 195.138 36.1718 193.875 37.8841C193.275 38.7681 186.938 48.7745 181.85 55.145C183.976 51.1469 189.117 43.8104 191.811 40.1937C191.978 40.0016 191.901 39.7663 191.709 39.5993C191.457 39.4365 191.282 39.5089 191.115 39.701C186.231 46.418 177.39 58.4641 177.376 65.1414C177.452 68.805 180.519 67.0869 182.428 65.9911C184.443 64.7074 186.831 62.736 189.357 60.1535C190.089 59.4407 191.231 59.421 191.943 60.1531C192.652 60.8253 192.612 61.9709 191.94 62.6795C187.719 66.824 181.777 72.1715 177.346 70.7371ZM167.017 65.8056C166.308 65.1334 166.349 63.9878 167.081 63.275C169.953 60.4878 174.222 56.1595 177.228 52.7014C175.723 55.2726 173.935 58.9463 173.375 62.1131C172.035 63.5902 170.849 64.6956 169.552 65.9291C168.82 66.6419 167.73 66.5377 167.017 65.8056ZM199.359 26.8547C200.123 27.4628 200.258 28.536 199.654 29.3602C198.926 30.1328 198.327 31.0168 197.611 31.969C195.838 34.138 193.217 31.9154 194.639 29.8913C195.47 28.8709 196.01 27.9911 196.845 27.0305C197.457 26.326 198.53 26.1908 199.359 26.8547ZM218.953 68.1284C215.376 67.7169 213.302 65.5764 212.224 63.0655C210.954 60.3875 210.703 56.7963 210.864 54.8002C211.971 55.1438 213.189 55.3594 214.514 55.387C214.489 57.6142 214.631 59.6492 215.488 61.5742C216.263 63.204 217.36 64.2701 219.305 64.5551C221.177 64.6648 223.354 63.9713 227.04 60.7664C228.174 59.7849 229.36 58.6794 230.537 57.4543C231.209 56.7457 232.355 56.7859 233.063 57.4581C233.776 58.1902 233.796 59.3316 233.064 60.0444C231.767 61.2779 230.701 62.3749 229.391 63.4288C225.479 66.83 222.399 68.3686 218.953 68.1284ZM191.42 67.4674C191.776 66.5403 192.137 65.673 192.609 64.6777L192.604 64.6178C197.166 55.8784 203.463 44.4312 209.11 35.7361C209.17 35.7319 209.17 35.7319 209.166 35.6721C214.877 27.0326 220.826 19.2186 224.901 15.5654C226.382 14.3792 228.65 15.8446 227.754 17.6515C225.82 21.8166 221.138 27.9782 216.05 34.3486L211.951 39.3868C216.078 33.0235 220.717 26.2633 225.99 19.0981C226.157 18.9059 226.141 18.6665 225.948 18.4995C225.697 18.3367 225.521 18.4091 225.354 18.6012C218.595 27.735 212.644 36.3912 207.956 44.1772C205.087 47.0242 202.329 50.5853 199.288 54.4067C199.066 54.6629 199.078 54.8424 199.33 55.0052C199.586 55.2279 199.766 55.2154 199.929 54.9634C204.126 49.6176 208.361 44.8105 213.36 40.6115C217.448 37.1379 221.534 34.5064 224.807 33.1348C226.389 32.543 228.104 32.1223 229.57 32.4409C231.335 32.7385 232.436 33.8644 232.865 35.6989C233.748 39.7271 230.474 45.3693 226.356 49.2661C222.002 53.2394 215.577 55.9743 210.673 53.791C209.49 53.2122 208.432 51.8426 208.874 50.4283C209.703 47.6638 213.289 48.1949 214.094 50.2438C213.555 50.2814 212.401 50.1215 211.863 50.1592C211.563 50.1801 211.473 50.6075 211.905 50.7578C212.639 50.9469 213.725 50.9913 214.388 51.0051C217.996 50.9934 221.175 49.1472 223.884 46.612C225.747 44.8578 227.293 42.8851 228.3 40.9502C229.304 38.9553 229.618 37.4297 229.376 36.5444C228.988 35.3084 226.713 36.3096 226.123 36.4712C214.18 41.1556 199.886 57.7933 194.71 68.9215C193.715 71.036 190.609 69.6292 191.42 67.4674ZM187.248 64.5714C186.535 63.8393 186.58 62.7536 187.312 62.0408C191.49 58.1398 194.873 54.0538 198.38 50.0194L202.431 45.165C199.371 50.4312 196.375 55.7532 193.773 60.6867C192.433 62.1638 191.076 63.4015 189.779 64.635C189.047 65.3478 187.961 65.3034 187.248 64.5714ZM237.372 61.9686C232.103 51.9918 242.6 36.1009 252.717 31.123C259.109 27.9093 264.87 31.1753 263.744 38.2912C262.045 48.3944 247.987 55.5124 240.453 53.5731C240.789 52.3468 241.132 51.2401 241.711 50.0568C246.28 50.8802 253.034 47.7012 256.909 43.7614C259.05 41.687 261.712 36.7493 259.501 34.3777C258.656 33.4745 255.954 33.5431 252.767 35.2696C247.504 38.2841 241.495 46.1023 239.977 51.9223C238.459 57.7424 240.742 63.7177 247.484 62.9455C250.764 62.5358 254.374 60.8398 257.319 58.228C258.394 57.2507 259.408 56.2775 260.534 55.1763C261.206 54.4677 262.348 54.448 263.061 55.1801C263.769 55.8523 263.789 56.9937 263.057 57.7065C261.939 58.9274 260.805 59.9089 259.671 60.8904C256.276 63.9547 251.973 66.06 247.915 66.5242C243.858 66.9884 239.392 65.9173 237.372 61.9686ZM228.917 61.4772C228.208 60.805 228.308 59.6552 228.98 58.9466C231.185 56.9279 233.313 54.6739 235.544 52.1722C235.079 54.1294 234.914 56.0656 235.048 57.981C233.755 59.2743 232.637 60.4952 231.451 61.6006C230.779 62.3093 229.629 62.2092 228.917 61.4772Z" fill="white"/>
<path d="M51.9311 92.7835L87.9631 90.2639L88.8176 102.484L77.4354 103.28L79.999 139.94L66.7314 140.868L64.1678 104.208L52.7856 105.004L51.9311 92.7835ZM113.29 138.946C103.514 139.629 96.5623 135.554 93.2125 127.789C91.7016 124.246 90.8305 119.816 90.4692 114.649C90.1078 109.481 90.3491 104.903 91.3521 101.184C93.5886 93.0282 99.9099 88.0953 109.686 87.4117C119.532 86.7232 126.408 90.7333 129.758 98.4985C131.339 102.037 132.215 106.537 132.576 111.704C132.938 116.871 132.692 121.38 131.619 125.104C129.312 133.264 123.136 138.257 113.29 138.946ZM112.435 126.726C115.577 126.506 117.55 124.614 118.402 121.747C119.014 119.459 118.989 116.093 118.75 112.671C118.506 109.179 118.067 105.912 117.143 103.731C115.9 101.011 113.683 99.4121 110.541 99.6318C107.398 99.8516 105.425 101.744 104.643 104.605C103.961 106.898 103.981 110.195 104.226 113.687C104.465 117.108 104.909 120.445 105.903 122.621C107.076 125.346 109.293 126.945 112.435 126.726ZM131.616 87.2114L167.648 84.6918L168.502 96.912L157.12 97.7079L159.684 134.368L146.416 135.296L143.853 98.6357L132.47 99.4316L131.616 87.2114ZM328.724 105.356L315.037 106.313L312.816 74.5407L326.502 73.5836L328.724 105.356ZM329.781 122.474L316.304 123.416L315.376 110.149L328.853 109.206L329.781 122.474Z" fill="#474FFF"/>
<path d="M211.919 130.716L197.814 131.702L195.053 120.317L184.579 121.049L183.429 132.708L169.323 133.694L175.961 84.1105L198.446 82.5382L211.919 130.716ZM187.038 97.0192L185.834 108.892L192.118 108.453L189.273 96.863L188.564 90.7375L186.888 90.8547L187.038 97.0192ZM235.579 129.061L223.01 129.94L220.49 93.9082L218.744 94.0303C218.763 101.327 215.995 104.888 210.967 105.24L208.104 105.44L207.079 90.7761L208.755 90.6589C213.713 90.3122 215.892 87.353 215.472 81.3477L232.161 80.1806L235.579 129.061ZM265.84 126.945L253.271 127.824L250.751 91.7921L249.006 91.9142C249.025 99.2106 246.256 102.772 241.229 103.124L238.366 103.324L237.34 88.66L239.016 88.5428C243.974 88.1961 246.153 85.2369 245.733 79.2316L262.422 78.0646L265.84 126.945ZM294.29 75.8362L308.465 74.8449L296.385 108.81L297.498 124.731L284.231 125.659L283.117 109.738L266.428 77.7845L280.603 76.7932L287.519 91.3964L288.044 96.9032L289.72 96.786L289.474 91.2597L294.29 75.8362Z" fill="#EC2B99"/>
<path d="M151.002 71.5822C140.413 71.5407 132.874 65.2112 123.719 60.7389C121.545 59.7482 119.759 59.1513 118.011 59.0931C113.668 58.9157 111.672 61.3408 111.519 63.4566C111.366 65.5724 112.845 68.6568 117.226 69.3729C123.098 69.9246 127.644 68.7045 131.388 66.3376L131.56 66.2053L135.182 68.1173L135.122 68.1215C130.324 71.765 124.504 73.6757 116.938 73.0018C110.844 71.8642 107.593 67.5204 107.95 63.1648C108.307 58.8093 112.147 55.2328 118.119 55.4768C123.423 55.6472 128.168 58.9843 132.375 61.5171C138.465 65.1811 144.817 68.2856 151.234 68.0173C155.556 67.8955 159.474 66.2983 163.327 62.9013L166.824 59.5893C167.496 58.8807 168.642 58.9209 169.35 59.5931C170.063 60.3251 170.083 61.4665 169.351 62.1793C168.058 63.4727 166.876 64.6379 165.682 65.6236C161.145 69.5497 156.538 71.6161 151.002 71.5822ZM135.938 62.5911C136.94 61.4384 140.268 57.4165 142.428 53.8972C143.431 54.4887 144.55 55.0119 145.717 55.3513C144.225 58.1021 141.372 62.0307 139.3 64.2205C138.057 63.6459 137.002 63.1783 135.938 62.5911ZM150.53 55.3756C141.695 54.61 135.634 48.7787 135.917 39.9174C136.184 32.5608 141.176 24.8137 150.159 23.4036C151.104 23.1571 152.057 23.8724 152.188 24.8857C152.434 25.8308 151.719 26.7831 150.705 26.9141C143.749 28.0621 139.777 34.0538 139.533 40.0254C139.27 47.4418 143.967 50.9627 150.459 51.7718C160.154 51.9359 168.939 39.9539 170.709 31.7104C171.561 27.5608 170.488 25.1097 169.211 24.0562C168.007 23.1781 165.951 23.0211 163.062 25.5689C156.949 31.0486 152.843 41.1396 148.212 50.6057C147.054 50.386 145.943 49.9825 144.871 49.2755C149.613 39.6813 153.857 28.9792 160.65 22.9106C164.268 19.5902 168.372 18.9423 171.357 21.1996C174.214 23.3455 175.293 27.6006 174.247 32.4253C172.082 42.7415 161.551 55.5673 150.53 55.3756ZM175.346 68.7371C172.701 67.8995 171.756 65.5598 171.768 63.1531C172.066 57.9596 174.625 53.2697 177.21 48.9389C179.301 45.3041 184.407 38.331 188.762 33.5155C190.286 32.0857 193.138 34.1718 191.875 35.8841C191.275 36.7681 184.938 46.7745 179.85 53.145C181.976 49.1469 187.117 41.8104 189.811 38.1937C189.978 38.0016 189.901 37.7663 189.709 37.5993C189.457 37.4365 189.282 37.5089 189.115 37.701C184.231 44.418 175.39 56.4641 175.376 63.1414C175.452 66.805 178.519 65.0869 180.428 63.9911C182.443 62.7074 184.831 60.736 187.357 58.1535C188.089 57.4407 189.231 57.421 189.943 58.1531C190.652 58.8253 190.612 59.9709 189.94 60.6795C185.719 64.824 179.777 70.1715 175.346 68.7371ZM165.017 63.8056C164.308 63.1334 164.349 61.9878 165.081 61.275C167.953 58.4878 172.222 54.1595 175.228 50.7014C173.723 53.2726 171.935 56.9463 171.375 60.1131C170.035 61.5902 168.849 62.6956 167.552 63.9291C166.82 64.6419 165.73 64.5377 165.017 63.8056ZM197.359 24.8547C198.123 25.4628 198.258 26.536 197.654 27.3602C196.926 28.1328 196.327 29.0168 195.611 29.969C193.838 32.138 191.217 29.9154 192.639 27.8913C193.47 26.8709 194.01 25.9911 194.845 25.0305C195.457 24.326 196.53 24.1908 197.359 24.8547ZM216.953 66.1284C213.376 65.7169 211.302 63.5764 210.224 61.0655C208.954 58.3875 208.703 54.7963 208.864 52.8002C209.971 53.1438 211.189 53.3594 212.514 53.387C212.489 55.6142 212.631 57.6492 213.488 59.5742C214.263 61.204 215.36 62.2701 217.305 62.5551C219.177 62.6648 221.354 61.9713 225.04 58.7664C226.174 57.7849 227.36 56.6794 228.537 55.4543C229.209 54.7457 230.355 54.7859 231.063 55.4581C231.776 56.1902 231.796 57.3316 231.064 58.0444C229.767 59.2779 228.701 60.3749 227.391 61.4288C223.479 64.83 220.399 66.3686 216.953 66.1284ZM189.42 65.4674C189.776 64.5403 190.137 63.673 190.609 62.6777L190.604 62.6178C195.166 53.8784 201.463 42.4312 207.11 33.7361C207.17 33.7319 207.17 33.7319 207.166 33.6721C212.877 25.0326 218.826 17.2186 222.901 13.5654C224.382 12.3792 226.65 13.8446 225.754 15.6515C223.82 19.8166 219.138 25.9782 214.05 32.3486L209.951 37.3868C214.078 31.0235 218.717 24.2633 223.99 17.0981C224.157 16.9059 224.141 16.6665 223.948 16.4995C223.697 16.3367 223.521 16.4091 223.354 16.6012C216.595 25.735 210.644 34.3912 205.956 42.1772C203.087 45.0242 200.329 48.5853 197.288 52.4067C197.066 52.6629 197.078 52.8424 197.33 53.0052C197.586 53.2279 197.766 53.2154 197.929 52.9634C202.126 47.6176 206.361 42.8105 211.36 38.6115C215.448 35.1379 219.534 32.5064 222.807 31.1348C224.389 30.543 226.104 30.1223 227.57 30.4409C229.335 30.7385 230.436 31.8644 230.865 33.6989C231.748 37.7271 228.474 43.3693 224.356 47.2661C220.002 51.2394 213.577 53.9743 208.673 51.791C207.49 51.2122 206.432 49.8426 206.874 48.4283C207.703 45.6638 211.289 46.1949 212.094 48.2438C211.555 48.2814 210.401 48.1215 209.863 48.1592C209.563 48.1801 209.473 48.6075 209.905 48.7578C210.639 48.9469 211.725 48.9913 212.388 49.0051C215.996 48.9934 219.175 47.1472 221.884 44.612C223.747 42.8578 225.293 40.8851 226.3 38.9502C227.304 36.9553 227.618 35.4297 227.376 34.5444C226.988 33.3084 224.713 34.3096 224.123 34.4712C212.18 39.1556 197.886 55.7933 192.71 66.9215C191.715 69.036 188.609 67.6292 189.42 65.4674ZM185.248 62.5714C184.535 61.8393 184.58 60.7536 185.312 60.0408C189.49 56.1398 192.873 52.0538 196.38 48.0194L200.431 43.165C197.371 48.4312 194.375 53.7532 191.773 58.6867C190.433 60.1638 189.076 61.4015 187.779 62.635C187.047 63.3478 185.961 63.3034 185.248 62.5714ZM235.372 59.9686C230.103 49.9918 240.6 34.1009 250.717 29.123C257.109 25.9093 262.87 29.1753 261.744 36.2912C260.045 46.3944 245.987 53.5124 238.453 51.5731C238.789 50.3468 239.132 49.2401 239.711 48.0568C244.28 48.8802 251.034 45.7012 254.909 41.7614C257.05 39.687 259.712 34.7493 257.501 32.3777C256.656 31.4745 253.954 31.5431 250.767 33.2696C245.504 36.2841 239.495 44.1023 237.977 49.9223C236.459 55.7424 238.742 61.7177 245.484 60.9455C248.764 60.5358 252.374 58.8398 255.319 56.228C256.394 55.2507 257.408 54.2775 258.534 53.1763C259.206 52.4677 260.348 52.448 261.061 53.1801C261.769 53.8523 261.789 54.9937 261.057 55.7065C259.939 56.9274 258.805 57.9089 257.671 58.8904C254.276 61.9547 249.973 64.06 245.915 64.5242C241.858 64.9884 237.392 63.9173 235.372 59.9686ZM226.917 59.4772C226.208 58.805 226.308 57.6552 226.98 56.9466C229.185 54.9279 231.313 52.6739 233.544 50.1722C233.079 52.1294 232.914 54.0656 233.048 55.981C231.755 57.2743 230.637 58.4952 229.451 59.6006C228.779 60.3093 227.629 60.2092 226.917 59.4772Z" fill="#474FFF"/>
</svg>
