<svg width="336" height="176" viewBox="0 0 336 176" fill="none" xmlns="http://www.w3.org/2000/svg">
<mask id="mask0_647_26155" style="mask-type:alpha" maskUnits="userSpaceOnUse" x="0" y="3" width="333" height="173">
<path d="M206.974 16.4073C206.983 16.6862 207.108 16.9485 207.32 17.131C207.531 17.3134 207.808 17.3993 208.086 17.3679L320.69 4.61724C324.73 4.15981 328.624 6.27884 330.434 9.91929C332.243 13.5597 331.582 17.9435 328.779 20.8879L292.015 59.5032C291.813 59.7148 291.714 60.004 291.744 60.2947C291.774 60.5854 291.93 60.8485 292.17 61.0149C292.46 61.2159 292.741 61.4336 293.01 61.6675C294.945 63.3495 296.132 65.7312 296.311 68.2887L298.286 96.5308C298.331 97.1819 298.311 97.8215 298.232 98.4434C298.218 98.5499 298.222 98.6579 298.243 98.7632C298.319 99.1542 298.372 99.5516 298.4 99.9534L299.225 111.747C299.598 117.072 295.582 121.692 290.256 122.064L278.277 122.902C275.205 123.117 272.369 121.873 270.445 119.757C270.239 119.53 269.941 119.41 269.635 119.432C269.33 119.453 269.051 119.613 268.879 119.866C267.268 122.23 264.632 123.856 261.561 124.071L249.767 124.895C247.21 125.074 244.686 124.23 242.751 122.548C242.53 122.356 242.319 122.154 242.118 121.945C241.912 121.731 241.622 121.619 241.326 121.639C241.03 121.66 240.759 121.811 240.585 122.052C240.415 122.287 240.234 122.516 240.042 122.737C238.36 124.672 235.978 125.86 233.421 126.038L228.717 126.367C228.468 126.385 228.235 126.495 228.063 126.675L184.913 171.999C181.628 175.448 176.321 175.991 172.406 173.279L113.177 132.24C112.844 132.009 112.405 132.002 112.065 132.222C107.982 134.862 103.108 136.336 97.8204 136.706C91.9845 137.114 86.3014 136.141 81.335 133.342C80.173 132.687 79.0858 131.952 78.0734 131.146C77.8263 130.949 77.5008 130.88 77.1954 130.961C76.8899 131.041 76.6405 131.261 76.5226 131.555C76.1248 132.543 75.5625 133.469 74.8499 134.289C73.168 136.223 70.7862 137.411 68.2287 137.59L56.4353 138.414C51.1096 138.787 46.4903 134.771 46.1179 129.446L44.5824 107.487C44.5452 106.955 44.0972 106.545 43.5642 106.556C41.1711 106.606 38.8379 105.765 37.0229 104.187C35.0881 102.505 33.9006 100.124 33.7217 97.5662L32.9622 86.7039C32.775 84.0267 33.6953 81.5297 35.3355 79.6582C35.5233 79.4438 35.6108 79.1596 35.5759 78.8768C35.5411 78.5939 35.3872 78.3394 35.153 78.1771L5.16175 57.3964C1.85133 55.1026 0.30992 50.9967 1.29303 47.0911C2.27613 43.1855 5.57773 40.2986 9.57961 39.8455L109.615 28.5181C109.949 28.4802 110.242 28.277 110.394 27.9772C113.594 21.6761 119.505 16.3346 128.051 14.8696C128.062 14.8677 128.073 14.8655 128.085 14.8631C130.202 14.4236 132.169 14.6081 133.906 15.2273C134.212 15.3363 134.552 15.2901 134.817 15.1033C140.15 11.3531 147.805 9.56584 154.579 14.6796L154.58 14.6804C156.85 16.3884 158.439 18.4639 159.504 20.7037C159.654 21.0196 159.959 21.2341 160.307 21.2692C160.655 21.3044 160.996 21.1551 161.206 20.8757C161.51 20.4717 161.897 19.9774 162.344 19.4628C166.326 14.8827 173.164 14.3083 177.903 18.0921L177.903 18.0924C177.987 18.1592 178.069 18.2268 178.15 18.2952C178.36 18.4718 178.633 18.5547 178.905 18.5244C179.177 18.4942 179.425 18.3535 179.591 18.1352C182.559 14.2269 185.523 10.7495 188.126 8.41587C188.259 8.29649 188.395 8.18082 188.535 8.06902C192.913 4.56227 198.482 5.05769 202.148 7.60018C204.877 9.49303 206.853 12.7642 206.974 16.4073Z" fill="white" stroke="#07090D" stroke-width="2" stroke-linejoin="round"/>
</mask>
<g mask="url(#mask0_647_26155)">
<path d="M4.16956 -101.184L-385.83 288.816" stroke="black" stroke-width="1.5"/>
<path d="M9.16956 -101.184L-380.83 288.816" stroke="black" stroke-width="1.5"/>
<path d="M14.1696 -101.184L-375.83 288.816" stroke="black" stroke-width="1.5"/>
<path d="M19.1696 -101.184L-370.83 288.816" stroke="black" stroke-width="1.5"/>
<path d="M24.1696 -101.184L-365.83 288.816" stroke="black" stroke-width="1.5"/>
<path d="M29.1696 -101.184L-360.83 288.816" stroke="black" stroke-width="1.5"/>
<path d="M34.1696 -101.184L-355.83 288.816" stroke="black" stroke-width="1.5"/>
<path d="M39.1696 -101.184L-350.83 288.816" stroke="black" stroke-width="1.5"/>
<path d="M44.1696 -101.184L-345.83 288.816" stroke="black" stroke-width="1.5"/>
<path d="M49.1696 -101.184L-340.83 288.816" stroke="black" stroke-width="1.5"/>
<path d="M54.1696 -101.184L-335.83 288.816" stroke="black" stroke-width="1.5"/>
<path d="M59.1696 -101.184L-330.83 288.816" stroke="black" stroke-width="1.5"/>
<path d="M64.1696 -101.184L-325.83 288.816" stroke="black" stroke-width="1.5"/>
<path d="M69.1696 -101.184L-320.83 288.816" stroke="black" stroke-width="1.5"/>
<path d="M74.1696 -101.184L-315.83 288.816" stroke="black" stroke-width="1.5"/>
<path d="M79.1696 -101.184L-310.83 288.816" stroke="black" stroke-width="1.5"/>
<path d="M84.1696 -101.184L-305.83 288.816" stroke="black" stroke-width="1.5"/>
<path d="M89.1696 -101.184L-300.83 288.816" stroke="black" stroke-width="1.5"/>
<path d="M94.1696 -101.184L-295.83 288.816" stroke="black" stroke-width="1.5"/>
<path d="M99.1696 -101.184L-290.83 288.816" stroke="black" stroke-width="1.5"/>
<path d="M104.17 -101.184L-285.83 288.816" stroke="black" stroke-width="1.5"/>
<path d="M109.17 -101.184L-280.83 288.816" stroke="black" stroke-width="1.5"/>
<path d="M114.17 -101.184L-275.83 288.816" stroke="black" stroke-width="1.5"/>
<path d="M119.17 -101.184L-270.83 288.816" stroke="black" stroke-width="1.5"/>
<path d="M124.17 -101.184L-265.83 288.816" stroke="black" stroke-width="1.5"/>
<path d="M129.17 -101.184L-260.83 288.816" stroke="black" stroke-width="1.5"/>
<path d="M134.17 -101.184L-255.83 288.816" stroke="black" stroke-width="1.5"/>
<path d="M139.17 -101.184L-250.83 288.816" stroke="black" stroke-width="1.5"/>
<path d="M144.17 -101.184L-245.83 288.816" stroke="black" stroke-width="1.5"/>
<path d="M149.17 -101.184L-240.83 288.816" stroke="black" stroke-width="1.5"/>
<path d="M154.17 -101.184L-235.83 288.816" stroke="black" stroke-width="1.5"/>
<path d="M159.17 -101.184L-230.83 288.816" stroke="black" stroke-width="1.5"/>
<path d="M164.17 -101.184L-225.83 288.816" stroke="black" stroke-width="1.5"/>
<path d="M169.17 -101.184L-220.83 288.816" stroke="black" stroke-width="1.5"/>
<path d="M174.17 -101.184L-215.83 288.816" stroke="black" stroke-width="1.5"/>
<path d="M179.17 -101.184L-210.83 288.816" stroke="black" stroke-width="1.5"/>
<path d="M184.17 -101.184L-205.83 288.816" stroke="black" stroke-width="1.5"/>
<path d="M189.17 -101.184L-200.83 288.816" stroke="black" stroke-width="1.5"/>
<path d="M194.17 -101.184L-195.83 288.816" stroke="black" stroke-width="1.5"/>
<path d="M199.17 -101.184L-190.83 288.816" stroke="black" stroke-width="1.5"/>
<path d="M204.17 -101.184L-185.83 288.816" stroke="black" stroke-width="1.5"/>
<path d="M209.17 -101.184L-180.83 288.816" stroke="black" stroke-width="1.5"/>
<path d="M214.17 -101.184L-175.83 288.816" stroke="black" stroke-width="1.5"/>
<path d="M219.17 -101.184L-170.83 288.816" stroke="black" stroke-width="1.5"/>
<path d="M224.17 -101.184L-165.83 288.816" stroke="black" stroke-width="1.5"/>
<path d="M229.17 -101.184L-160.83 288.816" stroke="black" stroke-width="1.5"/>
<path d="M234.17 -101.184L-155.83 288.816" stroke="black" stroke-width="1.5"/>
<path d="M239.17 -101.184L-150.83 288.816" stroke="black" stroke-width="1.5"/>
<path d="M244.17 -101.184L-145.83 288.816" stroke="black" stroke-width="1.5"/>
<path d="M249.17 -101.184L-140.83 288.816" stroke="black" stroke-width="1.5"/>
<path d="M254.17 -101.184L-135.83 288.816" stroke="black" stroke-width="1.5"/>
<path d="M259.17 -101.184L-130.83 288.816" stroke="black" stroke-width="1.5"/>
<path d="M264.17 -101.184L-125.83 288.816" stroke="black" stroke-width="1.5"/>
<path d="M269.17 -101.184L-120.83 288.816" stroke="black" stroke-width="1.5"/>
<path d="M274.17 -101.184L-115.83 288.816" stroke="black" stroke-width="1.5"/>
<path d="M279.17 -101.184L-110.83 288.816" stroke="black" stroke-width="1.5"/>
<path d="M284.17 -101.184L-105.83 288.816" stroke="black" stroke-width="1.5"/>
<path d="M289.17 -101.184L-100.83 288.816" stroke="black" stroke-width="1.5"/>
<path d="M294.17 -101.184L-95.8304 288.816" stroke="black" stroke-width="1.5"/>
<path d="M299.17 -101.184L-90.8304 288.816" stroke="black" stroke-width="1.5"/>
<path d="M304.17 -101.184L-85.8304 288.816" stroke="black" stroke-width="1.5"/>
<path d="M309.17 -101.184L-80.8304 288.816" stroke="black" stroke-width="1.5"/>
<path d="M314.17 -101.184L-75.8304 288.816" stroke="black" stroke-width="1.5"/>
<path d="M319.17 -101.184L-70.8304 288.816" stroke="black" stroke-width="1.5"/>
<path d="M324.17 -101.184L-65.8304 288.816" stroke="black" stroke-width="1.5"/>
<path d="M329.17 -101.184L-60.8304 288.816" stroke="black" stroke-width="1.5"/>
<path d="M334.17 -101.184L-55.8304 288.816" stroke="black" stroke-width="1.5"/>
<path d="M339.17 -101.184L-50.8304 288.816" stroke="black" stroke-width="1.5"/>
<path d="M344.17 -101.184L-45.8304 288.816" stroke="black" stroke-width="1.5"/>
<path d="M349.17 -101.184L-40.8304 288.816" stroke="black" stroke-width="1.5"/>
<path d="M354.17 -101.184L-35.8304 288.816" stroke="black" stroke-width="1.5"/>
<path d="M359.17 -101.184L-30.8304 288.816" stroke="black" stroke-width="1.5"/>
<path d="M364.17 -101.184L-25.8304 288.816" stroke="black" stroke-width="1.5"/>
<path d="M369.17 -101.184L-20.8304 288.816" stroke="black" stroke-width="1.5"/>
<path d="M374.17 -101.184L-15.8304 288.816" stroke="black" stroke-width="1.5"/>
<path d="M379.17 -101.184L-10.8304 288.816" stroke="black" stroke-width="1.5"/>
<path d="M384.17 -101.184L-5.83044 288.816" stroke="black" stroke-width="1.5"/>
<path d="M389.17 -101.184L-0.830442 288.816" stroke="black" stroke-width="1.5"/>
<path d="M394.17 -101.184L4.16956 288.816" stroke="black" stroke-width="1.5"/>
<path d="M399.17 -101.184L9.16956 288.816" stroke="black" stroke-width="1.5"/>
<path d="M404.17 -101.184L14.1696 288.816" stroke="black" stroke-width="1.5"/>
<path d="M409.17 -101.184L19.1696 288.816" stroke="black" stroke-width="1.5"/>
<path d="M414.17 -101.184L24.1696 288.816" stroke="black" stroke-width="1.5"/>
<path d="M419.17 -101.184L29.1696 288.816" stroke="black" stroke-width="1.5"/>
<path d="M424.17 -101.184L34.1696 288.816" stroke="black" stroke-width="1.5"/>
<path d="M429.17 -101.184L39.1696 288.816" stroke="black" stroke-width="1.5"/>
<path d="M434.17 -101.184L44.1696 288.816" stroke="black" stroke-width="1.5"/>
<path d="M439.17 -101.184L49.1696 288.816" stroke="black" stroke-width="1.5"/>
<path d="M444.17 -101.184L54.1696 288.816" stroke="black" stroke-width="1.5"/>
<path d="M449.17 -101.184L59.1696 288.816" stroke="black" stroke-width="1.5"/>
<path d="M454.17 -101.184L64.1696 288.816" stroke="black" stroke-width="1.5"/>
<path d="M459.17 -101.184L69.1696 288.816" stroke="black" stroke-width="1.5"/>
<path d="M464.17 -101.184L74.1696 288.816" stroke="black" stroke-width="1.5"/>
<path d="M469.17 -101.184L79.1696 288.816" stroke="black" stroke-width="1.5"/>
<path d="M474.17 -101.184L84.1696 288.816" stroke="black" stroke-width="1.5"/>
<path d="M479.17 -101.184L89.1696 288.816" stroke="black" stroke-width="1.5"/>
<path d="M484.17 -101.184L94.1696 288.816" stroke="black" stroke-width="1.5"/>
<path d="M489.17 -101.184L99.1696 288.816" stroke="black" stroke-width="1.5"/>
<path d="M494.17 -101.184L104.17 288.816" stroke="black" stroke-width="1.5"/>
<path d="M499.17 -101.184L109.17 288.816" stroke="black" stroke-width="1.5"/>
<path d="M504.17 -101.184L114.17 288.816" stroke="black" stroke-width="1.5"/>
<path d="M509.17 -101.184L119.17 288.816" stroke="black" stroke-width="1.5"/>
<path d="M514.17 -101.184L124.17 288.816" stroke="black" stroke-width="1.5"/>
<path d="M519.17 -101.184L129.17 288.816" stroke="black" stroke-width="1.5"/>
<path d="M524.17 -101.184L134.17 288.816" stroke="black" stroke-width="1.5"/>
<path d="M529.17 -101.184L139.17 288.816" stroke="black" stroke-width="1.5"/>
<path d="M534.17 -101.184L144.17 288.816" stroke="black" stroke-width="1.5"/>
<path d="M539.17 -101.184L149.17 288.816" stroke="black" stroke-width="1.5"/>
<path d="M544.17 -101.184L154.17 288.816" stroke="black" stroke-width="1.5"/>
<path d="M549.17 -101.184L159.17 288.816" stroke="black" stroke-width="1.5"/>
<path d="M554.17 -101.184L164.17 288.816" stroke="black" stroke-width="1.5"/>
<path d="M559.17 -101.184L169.17 288.816" stroke="black" stroke-width="1.5"/>
<path d="M564.17 -101.184L174.17 288.816" stroke="black" stroke-width="1.5"/>
<path d="M569.17 -101.184L179.17 288.816" stroke="black" stroke-width="1.5"/>
<path d="M574.17 -101.184L184.17 288.816" stroke="black" stroke-width="1.5"/>
<path d="M579.17 -101.184L189.17 288.816" stroke="black" stroke-width="1.5"/>
<path d="M584.17 -101.184L194.17 288.816" stroke="black" stroke-width="1.5"/>
<path d="M589.17 -101.184L199.17 288.816" stroke="black" stroke-width="1.5"/>
<path d="M594.17 -101.184L204.17 288.816" stroke="black" stroke-width="1.5"/>
<path d="M599.17 -101.184L209.17 288.816" stroke="black" stroke-width="1.5"/>
<path d="M604.17 -101.184L214.17 288.816" stroke="black" stroke-width="1.5"/>
<path d="M609.17 -101.184L219.17 288.816" stroke="black" stroke-width="1.5"/>
<path d="M614.17 -101.184L224.17 288.816" stroke="black" stroke-width="1.5"/>
<path d="M619.17 -101.184L229.17 288.816" stroke="black" stroke-width="1.5"/>
<path d="M624.17 -101.184L234.17 288.816" stroke="black" stroke-width="1.5"/>
<path d="M629.17 -101.184L239.17 288.816" stroke="black" stroke-width="1.5"/>
<path d="M634.17 -101.184L244.17 288.816" stroke="black" stroke-width="1.5"/>
<path d="M639.17 -101.184L249.17 288.816" stroke="black" stroke-width="1.5"/>
<path d="M644.17 -101.184L254.17 288.816" stroke="black" stroke-width="1.5"/>
<path d="M649.17 -101.184L259.17 288.816" stroke="black" stroke-width="1.5"/>
<path d="M654.17 -101.184L264.17 288.816" stroke="black" stroke-width="1.5"/>
<path d="M659.17 -101.184L269.17 288.816" stroke="black" stroke-width="1.5"/>
<path d="M664.17 -101.184L274.17 288.816" stroke="black" stroke-width="1.5"/>
<path d="M669.17 -101.184L279.17 288.816" stroke="black" stroke-width="1.5"/>
<path d="M674.17 -101.184L284.17 288.816" stroke="black" stroke-width="1.5"/>
<path d="M679.17 -101.184L289.17 288.816" stroke="black" stroke-width="1.5"/>
<path d="M684.17 -101.184L294.17 288.816" stroke="black" stroke-width="1.5"/>
<path d="M689.17 -101.184L299.17 288.816" stroke="black" stroke-width="1.5"/>
<path d="M694.17 -101.184L304.17 288.816" stroke="black" stroke-width="1.5"/>
<path d="M699.17 -101.184L309.17 288.816" stroke="black" stroke-width="1.5"/>
<path d="M704.17 -101.184L314.17 288.816" stroke="black" stroke-width="1.5"/>
<path d="M709.17 -101.184L319.17 288.816" stroke="black" stroke-width="1.5"/>
<path d="M714.17 -101.184L324.17 288.816" stroke="black" stroke-width="1.5"/>
<path d="M719.17 -101.184L329.17 288.816" stroke="black" stroke-width="1.5"/>
</g>
</svg>
