<svg width="340" height="172" viewBox="0 0 340 172" fill="none" xmlns="http://www.w3.org/2000/svg">
<path d="M213.745 13.1268C213.722 13.4049 213.817 13.6798 214.006 13.8849C214.196 14.0901 214.462 14.2069 214.741 14.2071L328.065 14.2856C332.13 14.2884 335.759 16.8346 337.146 20.6565C338.532 24.4785 337.378 28.7592 334.26 31.3673L293.361 65.5725C293.136 65.76 293.006 66.0362 293.002 66.3284C292.999 66.6206 293.124 66.8996 293.344 67.0921C293.609 67.3247 293.863 67.5728 294.104 67.8356C295.836 69.7258 296.746 72.2267 296.635 74.788L295.4 103.072C295.371 103.724 295.279 104.357 295.13 104.966C295.104 105.071 295.095 105.178 295.104 105.285C295.136 105.682 295.144 106.083 295.126 106.486L294.61 118.297C294.378 123.63 289.865 127.765 284.531 127.532L272.534 127.008C269.458 126.874 266.781 125.318 265.109 122.997C264.93 122.749 264.647 122.596 264.341 122.583C264.035 122.569 263.74 122.697 263.54 122.928C261.672 125.094 258.869 126.412 255.793 126.278L243.982 125.762C241.421 125.65 239.009 124.525 237.277 122.635C237.079 122.419 236.892 122.195 236.716 121.964C236.536 121.728 236.26 121.584 235.964 121.571C235.668 121.558 235.381 121.678 235.181 121.897C234.985 122.112 234.779 122.319 234.563 122.517C232.673 124.249 230.172 125.159 227.611 125.047L222.901 124.841C222.652 124.831 222.407 124.913 222.216 125.073L174.212 165.221C170.559 168.276 165.224 168.215 161.641 165.077L107.439 117.597C107.134 117.33 106.698 117.273 106.335 117.453C101.98 119.614 96.9703 120.527 91.675 120.295C85.8304 120.04 80.294 118.43 75.6763 115.087C74.5959 114.305 73.599 113.452 72.6844 112.536C72.4611 112.312 72.1455 112.207 71.8328 112.253C71.5202 112.298 71.2475 112.488 71.0972 112.766C70.59 113.704 69.9266 114.56 69.1258 115.293C67.2356 117.026 64.7347 117.936 62.1734 117.824L50.3625 117.308C45.0288 117.075 40.8938 112.563 41.1267 107.229L42.0869 85.2373C42.1101 84.7046 41.7114 84.2474 41.1805 84.198C38.7972 83.9762 36.5742 82.8767 34.9495 81.1036C33.2175 79.2134 32.3072 76.7126 32.4191 74.1513L32.894 63.2728C33.0111 60.5917 34.2082 58.2149 36.0497 56.5411C36.2606 56.3494 36.3797 56.0768 36.377 55.7919C36.3744 55.5069 36.2504 55.2366 36.036 55.0489L8.59001 31.0066C5.56053 28.3529 4.49383 24.0989 5.91275 20.3296C7.33166 16.5604 10.9388 14.0659 14.9663 14.0687L115.641 14.1384C115.978 14.1386 116.291 13.9699 116.477 13.6892C120.369 7.79082 126.846 3.15274 135.503 2.66466C135.515 2.66401 135.526 2.66315 135.538 2.66209C137.691 2.46507 139.625 2.87102 141.281 3.68293C141.572 3.82585 141.915 3.81837 142.2 3.66288C147.922 0.540402 155.731 -0.368817 161.883 5.47899L161.884 5.47994C163.945 7.43376 165.289 9.67593 166.094 12.0219C166.208 12.3528 166.486 12.6003 166.828 12.6746C167.169 12.749 167.525 12.6393 167.766 12.3854C168.114 12.0185 168.553 11.5711 169.056 11.1104C173.53 7.01051 180.39 7.21382 184.67 11.5098L184.67 11.5102C184.746 11.586 184.82 11.6625 184.893 11.7397C185.081 11.9389 185.343 12.0521 185.617 12.0528C185.891 12.0536 186.153 11.9419 186.343 11.7438C189.733 8.19655 193.072 5.07707 195.923 3.05309C196.069 2.94955 196.217 2.85007 196.369 2.75479C201.115 -0.23383 206.593 0.888885 209.947 3.82998C212.444 6.01958 214.037 9.49345 213.745 13.1268Z" fill="white" stroke="#07090D" stroke-width="2" stroke-linejoin="round"/>
</svg>
