<svg width="378" height="198" viewBox="0 0 378 198" fill="none" xmlns="http://www.w3.org/2000/svg">
<mask id="mask0_647_26155" style="mask-type:alpha" maskUnits="userSpaceOnUse" x="0" y="4" width="375" height="195">
<path d="M232.971 18.4541C232.98 18.733 233.106 18.9954 233.317 19.1778C233.528 19.3602 233.806 19.4461 234.083 19.4147L360.763 5.0702C365.36 4.54968 369.791 6.961 371.851 11.1036C373.91 15.2462 373.157 20.2346 369.967 23.5852L328.608 67.0274C328.406 67.2391 328.308 67.5283 328.337 67.819C328.367 68.1097 328.523 68.3728 328.763 68.5392C329.093 68.7679 329.413 69.0157 329.719 69.2819C331.921 71.1958 333.272 73.9061 333.475 76.8163L335.697 108.589C335.749 109.33 335.726 110.057 335.636 110.765C335.622 110.872 335.626 110.979 335.646 111.085C335.734 111.53 335.794 111.982 335.826 112.439L336.754 125.707C337.178 131.767 332.608 137.023 326.548 137.447L313.071 138.39C309.576 138.634 306.348 137.219 304.159 134.811C303.953 134.584 303.655 134.465 303.349 134.486C303.044 134.507 302.765 134.667 302.593 134.92C300.76 137.61 297.761 139.46 294.265 139.705L280.998 140.632C278.088 140.836 275.216 139.875 273.014 137.961C272.762 137.742 272.522 137.513 272.293 137.275C272.087 137.061 271.798 136.949 271.502 136.97C271.206 136.99 270.934 137.141 270.76 137.382C270.567 137.65 270.361 137.91 270.142 138.162C268.228 140.364 265.518 141.715 262.608 141.918L257.316 142.288C257.068 142.306 256.834 142.416 256.662 142.596L208.118 193.585C204.381 197.511 198.341 198.129 193.886 195.042L127.254 148.873C126.921 148.642 126.481 148.635 126.141 148.855C121.528 151.838 116.023 153.502 110.057 153.919C103.472 154.379 97.0534 153.282 91.4407 150.119C90.1276 149.379 88.8991 148.548 87.7549 147.637C87.5079 147.44 87.1823 147.372 86.8769 147.452C86.5714 147.533 86.322 147.753 86.2041 148.046C85.7514 149.171 85.1116 150.224 84.3007 151.157C82.3867 153.359 79.6765 154.71 76.7662 154.914L63.4986 155.841C57.4383 156.265 52.1819 151.696 51.7581 145.636L50.0306 120.931C49.9934 120.4 49.5455 119.99 49.0124 120.001C46.2892 120.058 43.6342 119.101 41.5689 117.306C39.3671 115.392 38.0159 112.681 37.8123 109.771L36.9578 97.5509C36.7448 94.5045 37.7923 91.6628 39.6585 89.5333C39.8464 89.319 39.9338 89.0347 39.899 88.7519C39.8641 88.4691 39.7102 88.2146 39.476 88.0523L5.73579 64.6739C1.96875 62.0637 0.214727 57.3915 1.33344 52.9471C2.45215 48.5028 6.20915 45.2178 10.763 44.7021L123.303 31.9587C123.638 31.9209 123.93 31.7176 124.083 31.4178C127.698 24.2988 134.378 18.2608 144.036 16.6052C144.042 16.6042 144.048 16.6032 144.053 16.6021C144.059 16.601 144.065 16.5999 144.07 16.5987C146.475 16.0995 148.711 16.3088 150.687 17.0131C150.993 17.1221 151.332 17.0758 151.598 16.8891C157.624 12.6512 166.298 10.6178 173.977 16.4149L173.979 16.4157C176.548 18.35 178.349 20.7013 179.556 23.2381C179.706 23.554 180.01 23.7685 180.358 23.8036C180.706 23.8388 181.047 23.6895 181.258 23.41C181.601 22.9541 182.037 22.3956 182.543 21.8137C187.067 16.6098 194.836 15.958 200.219 20.256L200.219 20.2563C200.314 20.3321 200.408 20.4089 200.5 20.4866C200.71 20.6632 200.983 20.746 201.255 20.7158C201.527 20.6856 201.775 20.5449 201.941 20.3266C205.281 15.9277 208.621 12.0082 211.559 9.37481C211.71 9.23896 211.865 9.10734 212.024 8.98012C216.998 4.99581 223.325 5.5601 227.488 8.44752C230.588 10.598 232.834 14.3135 232.971 18.4541Z" fill="white" stroke="#07090D" stroke-width="2" stroke-linejoin="round"/>
</mask>
<g mask="url(#mask0_647_26155)">
<path d="M0.939209 -113.833L-389.061 276.167" stroke="black" stroke-width="1.5"/>
<path d="M5.93921 -113.833L-384.061 276.167" stroke="black" stroke-width="1.5"/>
<path d="M10.9392 -113.833L-379.061 276.167" stroke="black" stroke-width="1.5"/>
<path d="M15.9392 -113.833L-374.061 276.167" stroke="black" stroke-width="1.5"/>
<path d="M20.9392 -113.833L-369.061 276.167" stroke="black" stroke-width="1.5"/>
<path d="M25.9392 -113.833L-364.061 276.167" stroke="black" stroke-width="1.5"/>
<path d="M30.9392 -113.833L-359.061 276.167" stroke="black" stroke-width="1.5"/>
<path d="M35.9392 -113.833L-354.061 276.167" stroke="black" stroke-width="1.5"/>
<path d="M40.9392 -113.833L-349.061 276.167" stroke="black" stroke-width="1.5"/>
<path d="M45.9392 -113.833L-344.061 276.167" stroke="black" stroke-width="1.5"/>
<path d="M50.9392 -113.833L-339.061 276.167" stroke="black" stroke-width="1.5"/>
<path d="M55.9392 -113.833L-334.061 276.167" stroke="black" stroke-width="1.5"/>
<path d="M60.9392 -113.833L-329.061 276.167" stroke="black" stroke-width="1.5"/>
<path d="M65.9392 -113.833L-324.061 276.167" stroke="black" stroke-width="1.5"/>
<path d="M70.9392 -113.833L-319.061 276.167" stroke="black" stroke-width="1.5"/>
<path d="M75.9392 -113.833L-314.061 276.167" stroke="black" stroke-width="1.5"/>
<path d="M80.9392 -113.833L-309.061 276.167" stroke="black" stroke-width="1.5"/>
<path d="M85.9392 -113.833L-304.061 276.167" stroke="black" stroke-width="1.5"/>
<path d="M90.9392 -113.833L-299.061 276.167" stroke="black" stroke-width="1.5"/>
<path d="M95.9392 -113.833L-294.061 276.167" stroke="black" stroke-width="1.5"/>
<path d="M100.939 -113.833L-289.061 276.167" stroke="black" stroke-width="1.5"/>
<path d="M105.939 -113.833L-284.061 276.167" stroke="black" stroke-width="1.5"/>
<path d="M110.939 -113.833L-279.061 276.167" stroke="black" stroke-width="1.5"/>
<path d="M115.939 -113.833L-274.061 276.167" stroke="black" stroke-width="1.5"/>
<path d="M120.939 -113.833L-269.061 276.167" stroke="black" stroke-width="1.5"/>
<path d="M125.939 -113.833L-264.061 276.167" stroke="black" stroke-width="1.5"/>
<path d="M130.939 -113.833L-259.061 276.167" stroke="black" stroke-width="1.5"/>
<path d="M135.939 -113.833L-254.061 276.167" stroke="black" stroke-width="1.5"/>
<path d="M140.939 -113.833L-249.061 276.167" stroke="black" stroke-width="1.5"/>
<path d="M145.939 -113.833L-244.061 276.167" stroke="black" stroke-width="1.5"/>
<path d="M150.939 -113.833L-239.061 276.167" stroke="black" stroke-width="1.5"/>
<path d="M155.939 -113.833L-234.061 276.167" stroke="black" stroke-width="1.5"/>
<path d="M160.939 -113.833L-229.061 276.167" stroke="black" stroke-width="1.5"/>
<path d="M165.939 -113.833L-224.061 276.167" stroke="black" stroke-width="1.5"/>
<path d="M170.939 -113.833L-219.061 276.167" stroke="black" stroke-width="1.5"/>
<path d="M175.939 -113.833L-214.061 276.167" stroke="black" stroke-width="1.5"/>
<path d="M180.939 -113.833L-209.061 276.167" stroke="black" stroke-width="1.5"/>
<path d="M185.939 -113.833L-204.061 276.167" stroke="black" stroke-width="1.5"/>
<path d="M190.939 -113.833L-199.061 276.167" stroke="black" stroke-width="1.5"/>
<path d="M195.939 -113.833L-194.061 276.167" stroke="black" stroke-width="1.5"/>
<path d="M200.939 -113.833L-189.061 276.167" stroke="black" stroke-width="1.5"/>
<path d="M205.939 -113.833L-184.061 276.167" stroke="black" stroke-width="1.5"/>
<path d="M210.939 -113.833L-179.061 276.167" stroke="black" stroke-width="1.5"/>
<path d="M215.939 -113.833L-174.061 276.167" stroke="black" stroke-width="1.5"/>
<path d="M220.939 -113.833L-169.061 276.167" stroke="black" stroke-width="1.5"/>
<path d="M225.939 -113.833L-164.061 276.167" stroke="black" stroke-width="1.5"/>
<path d="M230.939 -113.833L-159.061 276.167" stroke="black" stroke-width="1.5"/>
<path d="M235.939 -113.833L-154.061 276.167" stroke="black" stroke-width="1.5"/>
<path d="M240.939 -113.833L-149.061 276.167" stroke="black" stroke-width="1.5"/>
<path d="M245.939 -113.833L-144.061 276.167" stroke="black" stroke-width="1.5"/>
<path d="M250.939 -113.833L-139.061 276.167" stroke="black" stroke-width="1.5"/>
<path d="M255.939 -113.833L-134.061 276.167" stroke="black" stroke-width="1.5"/>
<path d="M260.939 -113.833L-129.061 276.167" stroke="black" stroke-width="1.5"/>
<path d="M265.939 -113.833L-124.061 276.167" stroke="black" stroke-width="1.5"/>
<path d="M270.939 -113.833L-119.061 276.167" stroke="black" stroke-width="1.5"/>
<path d="M275.939 -113.833L-114.061 276.167" stroke="black" stroke-width="1.5"/>
<path d="M280.939 -113.833L-109.061 276.167" stroke="black" stroke-width="1.5"/>
<path d="M285.939 -113.833L-104.061 276.167" stroke="black" stroke-width="1.5"/>
<path d="M290.939 -113.833L-99.0608 276.167" stroke="black" stroke-width="1.5"/>
<path d="M295.939 -113.833L-94.0608 276.167" stroke="black" stroke-width="1.5"/>
<path d="M300.939 -113.833L-89.0608 276.167" stroke="black" stroke-width="1.5"/>
<path d="M305.939 -113.833L-84.0608 276.167" stroke="black" stroke-width="1.5"/>
<path d="M310.939 -113.833L-79.0608 276.167" stroke="black" stroke-width="1.5"/>
<path d="M315.939 -113.833L-74.0608 276.167" stroke="black" stroke-width="1.5"/>
<path d="M320.939 -113.833L-69.0608 276.167" stroke="black" stroke-width="1.5"/>
<path d="M325.939 -113.833L-64.0608 276.167" stroke="black" stroke-width="1.5"/>
<path d="M330.939 -113.833L-59.0608 276.167" stroke="black" stroke-width="1.5"/>
<path d="M335.939 -113.833L-54.0608 276.167" stroke="black" stroke-width="1.5"/>
<path d="M340.939 -113.833L-49.0608 276.167" stroke="black" stroke-width="1.5"/>
<path d="M345.939 -113.833L-44.0608 276.167" stroke="black" stroke-width="1.5"/>
<path d="M350.939 -113.833L-39.0608 276.167" stroke="black" stroke-width="1.5"/>
<path d="M355.939 -113.833L-34.0608 276.167" stroke="black" stroke-width="1.5"/>
<path d="M360.939 -113.833L-29.0608 276.167" stroke="black" stroke-width="1.5"/>
<path d="M365.939 -113.833L-24.0608 276.167" stroke="black" stroke-width="1.5"/>
<path d="M370.939 -113.833L-19.0608 276.167" stroke="black" stroke-width="1.5"/>
<path d="M375.939 -113.833L-14.0608 276.167" stroke="black" stroke-width="1.5"/>
<path d="M380.939 -113.833L-9.06079 276.167" stroke="black" stroke-width="1.5"/>
<path d="M385.939 -113.833L-4.06079 276.167" stroke="black" stroke-width="1.5"/>
<path d="M390.939 -113.833L0.939212 276.167" stroke="black" stroke-width="1.5"/>
<path d="M395.939 -113.833L5.93921 276.167" stroke="black" stroke-width="1.5"/>
<path d="M400.939 -113.833L10.9392 276.167" stroke="black" stroke-width="1.5"/>
<path d="M405.939 -113.833L15.9392 276.167" stroke="black" stroke-width="1.5"/>
<path d="M410.939 -113.833L20.9392 276.167" stroke="black" stroke-width="1.5"/>
<path d="M415.939 -113.833L25.9392 276.167" stroke="black" stroke-width="1.5"/>
<path d="M420.939 -113.833L30.9392 276.167" stroke="black" stroke-width="1.5"/>
<path d="M425.939 -113.833L35.9392 276.167" stroke="black" stroke-width="1.5"/>
<path d="M430.939 -113.833L40.9392 276.167" stroke="black" stroke-width="1.5"/>
<path d="M435.939 -113.833L45.9392 276.167" stroke="black" stroke-width="1.5"/>
<path d="M440.939 -113.833L50.9392 276.167" stroke="black" stroke-width="1.5"/>
<path d="M445.939 -113.833L55.9392 276.167" stroke="black" stroke-width="1.5"/>
<path d="M450.939 -113.833L60.9392 276.167" stroke="black" stroke-width="1.5"/>
<path d="M455.939 -113.833L65.9392 276.167" stroke="black" stroke-width="1.5"/>
<path d="M460.939 -113.833L70.9392 276.167" stroke="black" stroke-width="1.5"/>
<path d="M465.939 -113.833L75.9392 276.167" stroke="black" stroke-width="1.5"/>
<path d="M470.939 -113.833L80.9392 276.167" stroke="black" stroke-width="1.5"/>
<path d="M475.939 -113.833L85.9392 276.167" stroke="black" stroke-width="1.5"/>
<path d="M480.939 -113.833L90.9392 276.167" stroke="black" stroke-width="1.5"/>
<path d="M485.939 -113.833L95.9392 276.167" stroke="black" stroke-width="1.5"/>
<path d="M490.939 -113.833L100.939 276.167" stroke="black" stroke-width="1.5"/>
<path d="M495.939 -113.833L105.939 276.167" stroke="black" stroke-width="1.5"/>
<path d="M500.939 -113.833L110.939 276.167" stroke="black" stroke-width="1.5"/>
<path d="M505.939 -113.833L115.939 276.167" stroke="black" stroke-width="1.5"/>
<path d="M510.939 -113.833L120.939 276.167" stroke="black" stroke-width="1.5"/>
<path d="M515.939 -113.833L125.939 276.167" stroke="black" stroke-width="1.5"/>
<path d="M520.939 -113.833L130.939 276.167" stroke="black" stroke-width="1.5"/>
<path d="M525.939 -113.833L135.939 276.167" stroke="black" stroke-width="1.5"/>
<path d="M530.939 -113.833L140.939 276.167" stroke="black" stroke-width="1.5"/>
<path d="M535.939 -113.833L145.939 276.167" stroke="black" stroke-width="1.5"/>
<path d="M540.939 -113.833L150.939 276.167" stroke="black" stroke-width="1.5"/>
<path d="M545.939 -113.833L155.939 276.167" stroke="black" stroke-width="1.5"/>
<path d="M550.939 -113.833L160.939 276.167" stroke="black" stroke-width="1.5"/>
<path d="M555.939 -113.833L165.939 276.167" stroke="black" stroke-width="1.5"/>
<path d="M560.939 -113.833L170.939 276.167" stroke="black" stroke-width="1.5"/>
<path d="M565.939 -113.833L175.939 276.167" stroke="black" stroke-width="1.5"/>
<path d="M570.939 -113.833L180.939 276.167" stroke="black" stroke-width="1.5"/>
<path d="M575.939 -113.833L185.939 276.167" stroke="black" stroke-width="1.5"/>
<path d="M580.939 -113.833L190.939 276.167" stroke="black" stroke-width="1.5"/>
<path d="M585.939 -113.833L195.939 276.167" stroke="black" stroke-width="1.5"/>
<path d="M590.939 -113.833L200.939 276.167" stroke="black" stroke-width="1.5"/>
<path d="M595.939 -113.833L205.939 276.167" stroke="black" stroke-width="1.5"/>
<path d="M600.939 -113.833L210.939 276.167" stroke="black" stroke-width="1.5"/>
<path d="M605.939 -113.833L215.939 276.167" stroke="black" stroke-width="1.5"/>
<path d="M610.939 -113.833L220.939 276.167" stroke="black" stroke-width="1.5"/>
<path d="M615.939 -113.833L225.939 276.167" stroke="black" stroke-width="1.5"/>
<path d="M620.939 -113.833L230.939 276.167" stroke="black" stroke-width="1.5"/>
<path d="M625.939 -113.833L235.939 276.167" stroke="black" stroke-width="1.5"/>
<path d="M630.939 -113.833L240.939 276.167" stroke="black" stroke-width="1.5"/>
<path d="M635.939 -113.833L245.939 276.167" stroke="black" stroke-width="1.5"/>
<path d="M640.939 -113.833L250.939 276.167" stroke="black" stroke-width="1.5"/>
<path d="M645.939 -113.833L255.939 276.167" stroke="black" stroke-width="1.5"/>
<path d="M650.939 -113.833L260.939 276.167" stroke="black" stroke-width="1.5"/>
<path d="M655.939 -113.833L265.939 276.167" stroke="black" stroke-width="1.5"/>
<path d="M660.939 -113.833L270.939 276.167" stroke="black" stroke-width="1.5"/>
<path d="M665.939 -113.833L275.939 276.167" stroke="black" stroke-width="1.5"/>
<path d="M670.939 -113.833L280.939 276.167" stroke="black" stroke-width="1.5"/>
<path d="M675.939 -113.833L285.939 276.167" stroke="black" stroke-width="1.5"/>
<path d="M680.939 -113.833L290.939 276.167" stroke="black" stroke-width="1.5"/>
<path d="M685.939 -113.833L295.939 276.167" stroke="black" stroke-width="1.5"/>
<path d="M690.939 -113.833L300.939 276.167" stroke="black" stroke-width="1.5"/>
<path d="M695.939 -113.833L305.939 276.167" stroke="black" stroke-width="1.5"/>
<path d="M700.939 -113.833L310.939 276.167" stroke="black" stroke-width="1.5"/>
<path d="M705.939 -113.833L315.939 276.167" stroke="black" stroke-width="1.5"/>
<path d="M710.939 -113.833L320.939 276.167" stroke="black" stroke-width="1.5"/>
<path d="M715.939 -113.833L325.939 276.167" stroke="black" stroke-width="1.5"/>
<path d="M720.939 -113.833L330.939 276.167" stroke="black" stroke-width="1.5"/>
<path d="M725.939 -113.833L335.939 276.167" stroke="black" stroke-width="1.5"/>
<path d="M730.939 -113.833L340.939 276.167" stroke="black" stroke-width="1.5"/>
<path d="M735.939 -113.833L345.939 276.167" stroke="black" stroke-width="1.5"/>
<path d="M740.939 -113.833L350.939 276.167" stroke="black" stroke-width="1.5"/>
<path d="M745.939 -113.833L355.939 276.167" stroke="black" stroke-width="1.5"/>
<path d="M750.939 -113.833L360.939 276.167" stroke="black" stroke-width="1.5"/>
<path d="M755.939 -113.833L365.939 276.167" stroke="black" stroke-width="1.5"/>
<path d="M760.939 -113.833L370.939 276.167" stroke="black" stroke-width="1.5"/>
</g>
</svg>
