<svg width="340" height="172" viewBox="0 0 340 172" fill="none" xmlns="http://www.w3.org/2000/svg">
<mask id="mask0_647_26155" style="mask-type:alpha" maskUnits="userSpaceOnUse" x="0" y="3" width="335" height="169">
<path d="M209.846 16.3019C209.823 16.5801 209.918 16.855 210.107 17.0601C210.297 17.2653 210.563 17.382 210.842 17.3822L324.166 17.4607C328.231 17.4635 331.86 20.0098 333.247 23.8317C334.633 27.6536 333.479 31.9343 330.361 34.5425L289.462 68.7477C289.237 68.9352 289.107 69.2113 289.103 69.5036C289.1 69.7958 289.225 70.0748 289.445 70.2673C289.71 70.4999 289.964 70.7479 290.205 71.0108C291.937 72.901 292.847 75.4018 292.736 77.9632L291.501 106.247C291.472 106.899 291.38 107.533 291.231 108.141C291.205 108.246 291.196 108.353 291.205 108.46C291.237 108.858 291.245 109.258 291.227 109.661L290.711 121.472C290.479 126.805 285.966 130.94 280.632 130.707L268.635 130.184C265.559 130.049 262.882 128.493 261.21 126.172C261.031 125.924 260.748 125.771 260.442 125.758C260.136 125.744 259.841 125.872 259.641 126.104C257.773 128.27 254.97 129.587 251.894 129.453L240.083 128.937C237.522 128.825 235.11 127.701 233.378 125.81C233.18 125.594 232.993 125.37 232.817 125.139C232.637 124.903 232.361 124.759 232.065 124.747C231.769 124.734 231.482 124.853 231.282 125.072C231.086 125.287 230.88 125.494 230.664 125.692C228.774 127.424 226.273 128.334 223.712 128.222L219.002 128.017C218.753 128.006 218.508 128.088 218.317 128.249L170.313 168.396C166.66 171.451 161.325 171.39 157.742 168.252L103.54 120.772C103.235 120.505 102.799 120.448 102.436 120.628C98.0814 122.789 93.0713 123.702 87.776 123.471C81.9314 123.215 76.395 121.605 71.7773 118.262C70.6969 117.48 69.7 116.627 68.7854 115.711C68.5622 115.487 68.2465 115.382 67.9339 115.428C67.6213 115.473 67.3485 115.664 67.1982 115.941C66.691 116.879 66.0276 117.735 65.2268 118.469C63.3366 120.201 60.8358 121.111 58.2744 120.999L46.4635 120.483C41.1298 120.251 36.9948 115.738 37.2277 110.404L38.1879 88.4125C38.2112 87.8798 37.8124 87.4226 37.2815 87.3732C34.8982 87.1514 32.6752 86.0519 31.0505 84.2788C29.3185 82.3886 28.4082 79.8878 28.5201 77.3265L28.995 66.448C29.1121 63.7668 30.3092 61.3901 32.1507 59.7162C32.3616 59.5246 32.4807 59.252 32.4781 58.9671C32.4754 58.6821 32.3514 58.4118 32.137 58.224L4.69103 34.1818C1.66154 31.528 0.594845 27.274 2.01376 23.5048C3.43268 19.7356 7.03985 17.241 11.0673 17.2438L111.742 17.3136C112.079 17.3138 112.392 17.145 112.578 16.8644C116.47 10.966 122.947 6.32791 131.604 5.83984C131.616 5.83918 131.627 5.83832 131.639 5.83726C133.792 5.64024 135.726 6.04619 137.382 6.8581C137.673 7.00102 138.016 6.99354 138.301 6.83805C144.024 3.71557 151.832 2.80635 157.984 8.65416L157.985 8.65511C160.046 10.6089 161.39 12.8511 162.195 15.1971C162.309 15.528 162.587 15.7755 162.929 15.8498C163.27 15.9241 163.626 15.8145 163.867 15.5606C164.215 15.1937 164.654 14.7462 165.157 14.2856C169.631 10.1857 176.491 10.389 180.771 14.6849L180.771 14.6853C180.847 14.7612 180.921 14.8377 180.994 14.9149C181.182 15.114 181.444 15.2272 181.718 15.228C181.992 15.2288 182.254 15.1171 182.444 14.919C185.834 11.3717 189.173 8.25224 192.024 6.22826C192.17 6.12472 192.318 6.02524 192.47 5.92996C197.216 2.94134 202.694 4.06406 206.048 7.00515C208.545 9.19475 210.138 12.6686 209.846 16.3019Z" fill="white" stroke="#07090D" stroke-width="2" stroke-linejoin="round"/>
</mask>
<g mask="url(#mask0_647_26155)">
<path d="M1.78557 -125.756L-429.857 217.588" stroke="black" stroke-width="1.5"/>
<path d="M6.75347 -125.19L-424.889 218.154" stroke="black" stroke-width="1.5"/>
<path d="M11.7213 -124.624L-419.921 218.72" stroke="black" stroke-width="1.5"/>
<path d="M16.6892 -124.058L-414.953 219.286" stroke="black" stroke-width="1.5"/>
<path d="M21.657 -123.492L-409.985 219.852" stroke="black" stroke-width="1.5"/>
<path d="M26.6249 -122.926L-405.017 220.418" stroke="black" stroke-width="1.5"/>
<path d="M31.5928 -122.36L-400.05 220.984" stroke="black" stroke-width="1.5"/>
<path d="M36.5606 -121.794L-395.082 221.55" stroke="black" stroke-width="1.5"/>
<path d="M41.5285 -121.228L-390.114 222.116" stroke="black" stroke-width="1.5"/>
<path d="M46.4963 -120.662L-385.146 222.682" stroke="black" stroke-width="1.5"/>
<path d="M51.4642 -120.096L-380.178 223.248" stroke="black" stroke-width="1.5"/>
<path d="M56.4321 -119.53L-375.21 223.814" stroke="black" stroke-width="1.5"/>
<path d="M61.3999 -118.964L-370.242 224.38" stroke="black" stroke-width="1.5"/>
<path d="M66.3678 -118.398L-365.274 224.946" stroke="black" stroke-width="1.5"/>
<path d="M71.3356 -117.832L-360.307 225.512" stroke="black" stroke-width="1.5"/>
<path d="M76.3035 -117.266L-355.339 226.078" stroke="black" stroke-width="1.5"/>
<path d="M81.2714 -116.7L-350.371 226.644" stroke="black" stroke-width="1.5"/>
<path d="M86.2392 -116.134L-345.403 227.21" stroke="black" stroke-width="1.5"/>
<path d="M91.2071 -115.568L-340.435 227.776" stroke="black" stroke-width="1.5"/>
<path d="M96.1749 -115.002L-335.467 228.342" stroke="black" stroke-width="1.5"/>
<path d="M101.143 -114.436L-330.499 228.908" stroke="black" stroke-width="1.5"/>
<path d="M106.111 -113.87L-325.532 229.474" stroke="black" stroke-width="1.5"/>
<path d="M111.078 -113.304L-320.564 230.04" stroke="black" stroke-width="1.5"/>
<path d="M116.046 -112.738L-315.596 230.606" stroke="black" stroke-width="1.5"/>
<path d="M121.014 -112.172L-310.628 231.172" stroke="black" stroke-width="1.5"/>
<path d="M125.982 -111.606L-305.66 231.738" stroke="black" stroke-width="1.5"/>
<path d="M130.95 -111.04L-300.692 232.304" stroke="black" stroke-width="1.5"/>
<path d="M135.918 -110.474L-295.725 232.87" stroke="black" stroke-width="1.5"/>
<path d="M140.886 -109.908L-290.757 233.436" stroke="black" stroke-width="1.5"/>
<path d="M145.854 -109.342L-285.789 234.002" stroke="black" stroke-width="1.5"/>
<path d="M150.821 -108.776L-280.821 234.568" stroke="black" stroke-width="1.5"/>
<path d="M155.789 -108.21L-275.853 235.134" stroke="black" stroke-width="1.5"/>
<path d="M160.757 -107.644L-270.885 235.7" stroke="black" stroke-width="1.5"/>
<path d="M165.725 -107.077L-265.917 236.266" stroke="black" stroke-width="1.5"/>
<path d="M170.693 -106.511L-260.949 236.832" stroke="black" stroke-width="1.5"/>
<path d="M175.661 -105.945L-255.982 237.398" stroke="black" stroke-width="1.5"/>
<path d="M180.629 -105.379L-251.014 237.964" stroke="black" stroke-width="1.5"/>
<path d="M185.596 -104.813L-246.046 238.53" stroke="black" stroke-width="1.5"/>
<path d="M190.564 -104.247L-241.078 239.096" stroke="black" stroke-width="1.5"/>
<path d="M195.532 -103.681L-236.11 239.662" stroke="black" stroke-width="1.5"/>
<path d="M200.5 -103.115L-231.142 240.228" stroke="black" stroke-width="1.5"/>
<path d="M205.468 -102.549L-226.174 240.794" stroke="black" stroke-width="1.5"/>
<path d="M210.436 -101.983L-221.207 241.36" stroke="black" stroke-width="1.5"/>
<path d="M215.404 -101.417L-216.239 241.926" stroke="black" stroke-width="1.5"/>
<path d="M220.371 -100.851L-211.271 242.492" stroke="black" stroke-width="1.5"/>
<path d="M225.339 -100.285L-206.303 243.058" stroke="black" stroke-width="1.5"/>
<path d="M230.307 -99.7193L-201.335 243.625" stroke="black" stroke-width="1.5"/>
<path d="M235.275 -99.1533L-196.367 244.191" stroke="black" stroke-width="1.5"/>
<path d="M240.243 -98.5873L-191.399 244.757" stroke="black" stroke-width="1.5"/>
<path d="M245.211 -98.0213L-186.432 245.323" stroke="black" stroke-width="1.5"/>
<path d="M250.179 -97.4552L-181.464 245.889" stroke="black" stroke-width="1.5"/>
<path d="M255.146 -96.8892L-176.496 246.455" stroke="black" stroke-width="1.5"/>
<path d="M260.114 -96.3232L-171.528 247.021" stroke="black" stroke-width="1.5"/>
<path d="M265.082 -95.7572L-166.56 247.587" stroke="black" stroke-width="1.5"/>
<path d="M270.05 -95.1912L-161.592 248.153" stroke="black" stroke-width="1.5"/>
<path d="M275.018 -94.6251L-156.624 248.719" stroke="black" stroke-width="1.5"/>
<path d="M279.986 -94.0591L-151.657 249.285" stroke="black" stroke-width="1.5"/>
<path d="M284.954 -93.4931L-146.689 249.851" stroke="black" stroke-width="1.5"/>
<path d="M289.921 -92.9271L-141.721 250.417" stroke="black" stroke-width="1.5"/>
<path d="M294.889 -92.3611L-136.753 250.983" stroke="black" stroke-width="1.5"/>
<path d="M299.857 -91.7951L-131.785 251.549" stroke="black" stroke-width="1.5"/>
<path d="M304.825 -91.229L-126.817 252.115" stroke="black" stroke-width="1.5"/>
<path d="M309.793 -90.663L-121.849 252.681" stroke="black" stroke-width="1.5"/>
<path d="M314.761 -90.097L-116.882 253.247" stroke="black" stroke-width="1.5"/>
<path d="M319.729 -89.531L-111.914 253.813" stroke="black" stroke-width="1.5"/>
<path d="M324.696 -88.965L-106.946 254.379" stroke="black" stroke-width="1.5"/>
<path d="M329.664 -88.399L-101.978 254.945" stroke="black" stroke-width="1.5"/>
<path d="M334.632 -87.833L-97.0101 255.511" stroke="black" stroke-width="1.5"/>
<path d="M339.6 -87.2669L-92.0423 256.077" stroke="black" stroke-width="1.5"/>
<path d="M344.568 -86.7009L-87.0744 256.643" stroke="black" stroke-width="1.5"/>
<path d="M349.536 -86.1349L-82.1065 257.209" stroke="black" stroke-width="1.5"/>
<path d="M354.504 -85.5689L-77.1387 257.775" stroke="black" stroke-width="1.5"/>
<path d="M359.471 -85.0029L-72.1708 258.341" stroke="black" stroke-width="1.5"/>
<path d="M364.439 -84.4368L-67.203 258.907" stroke="black" stroke-width="1.5"/>
<path d="M369.407 -83.8708L-62.2351 259.473" stroke="black" stroke-width="1.5"/>
<path d="M374.375 -83.3048L-57.2672 260.039" stroke="black" stroke-width="1.5"/>
<path d="M379.343 -82.7388L-52.2994 260.605" stroke="black" stroke-width="1.5"/>
<path d="M384.311 -82.1728L-47.3315 261.171" stroke="black" stroke-width="1.5"/>
<path d="M389.279 -81.6068L-42.3637 261.737" stroke="black" stroke-width="1.5"/>
<path d="M394.247 -81.0408L-37.3958 262.303" stroke="black" stroke-width="1.5"/>
<path d="M399.214 -80.4747L-32.4279 262.869" stroke="black" stroke-width="1.5"/>
<path d="M404.182 -79.9087L-27.4601 263.435" stroke="black" stroke-width="1.5"/>
<path d="M409.15 -79.3427L-22.4922 264.001" stroke="black" stroke-width="1.5"/>
<path d="M414.118 -78.7767L-17.5244 264.567" stroke="black" stroke-width="1.5"/>
<path d="M419.086 -78.2107L-12.5565 265.133" stroke="black" stroke-width="1.5"/>
<path d="M424.054 -77.6447L-7.58864 265.699" stroke="black" stroke-width="1.5"/>
<path d="M429.022 -77.0787L-2.62075 266.265" stroke="black" stroke-width="1.5"/>
<path d="M433.989 -76.5126L2.34709 266.831" stroke="black" stroke-width="1.5"/>
<path d="M438.957 -75.9466L7.31492 267.397" stroke="black" stroke-width="1.5"/>
<path d="M443.925 -75.3806L12.2828 267.963" stroke="black" stroke-width="1.5"/>
<path d="M448.893 -74.8146L17.2507 268.529" stroke="black" stroke-width="1.5"/>
<path d="M453.861 -74.2486L22.2185 269.095" stroke="black" stroke-width="1.5"/>
<path d="M458.829 -73.6825L27.1864 269.661" stroke="black" stroke-width="1.5"/>
<path d="M463.796 -73.1165L32.1542 270.227" stroke="black" stroke-width="1.5"/>
<path d="M468.764 -72.5505L37.1221 270.793" stroke="black" stroke-width="1.5"/>
<path d="M473.732 -71.9845L42.0899 271.359" stroke="black" stroke-width="1.5"/>
<path d="M478.7 -71.4185L47.0578 271.925" stroke="black" stroke-width="1.5"/>
<path d="M483.668 -70.8525L52.0257 272.491" stroke="black" stroke-width="1.5"/>
<path d="M488.636 -70.2864L56.9935 273.057" stroke="black" stroke-width="1.5"/>
<path d="M493.604 -69.7204L61.9614 273.623" stroke="black" stroke-width="1.5"/>
<path d="M498.572 -69.1544L66.9292 274.189" stroke="black" stroke-width="1.5"/>
<path d="M503.539 -68.5884L71.8971 274.755" stroke="black" stroke-width="1.5"/>
<path d="M508.507 -68.0224L76.865 275.321" stroke="black" stroke-width="1.5"/>
<path d="M513.475 -67.4564L81.8328 275.887" stroke="black" stroke-width="1.5"/>
<path d="M518.443 -66.8904L86.8007 276.453" stroke="black" stroke-width="1.5"/>
<path d="M523.411 -66.3244L91.7686 277.019" stroke="black" stroke-width="1.5"/>
<path d="M528.379 -65.7583L96.7364 277.585" stroke="black" stroke-width="1.5"/>
<path d="M533.347 -65.1923L101.704 278.151" stroke="black" stroke-width="1.5"/>
<path d="M538.314 -64.6263L106.672 278.717" stroke="black" stroke-width="1.5"/>
<path d="M543.282 -64.0603L111.64 279.283" stroke="black" stroke-width="1.5"/>
<path d="M548.25 -63.4943L116.608 279.85" stroke="black" stroke-width="1.5"/>
<path d="M553.218 -62.9282L121.576 280.416" stroke="black" stroke-width="1.5"/>
<path d="M558.186 -62.3622L126.544 280.982" stroke="black" stroke-width="1.5"/>
<path d="M563.154 -61.7962L131.511 281.548" stroke="black" stroke-width="1.5"/>
<path d="M568.122 -61.2302L136.479 282.114" stroke="black" stroke-width="1.5"/>
<path d="M573.089 -60.6642L141.447 282.68" stroke="black" stroke-width="1.5"/>
<path d="M578.057 -60.0982L146.415 283.246" stroke="black" stroke-width="1.5"/>
<path d="M583.025 -59.5321L151.383 283.812" stroke="black" stroke-width="1.5"/>
<path d="M587.993 -58.9661L156.351 284.378" stroke="black" stroke-width="1.5"/>
<path d="M592.961 -58.4001L161.319 284.944" stroke="black" stroke-width="1.5"/>
<path d="M597.929 -57.8341L166.286 285.51" stroke="black" stroke-width="1.5"/>
<path d="M602.897 -57.2681L171.254 286.076" stroke="black" stroke-width="1.5"/>
<path d="M607.864 -56.7021L176.222 286.642" stroke="black" stroke-width="1.5"/>
<path d="M612.832 -56.1361L181.19 287.208" stroke="black" stroke-width="1.5"/>
<path d="M617.8 -55.57L186.158 287.774" stroke="black" stroke-width="1.5"/>
<path d="M622.768 -55.004L191.126 288.34" stroke="black" stroke-width="1.5"/>
<path d="M627.736 -54.438L196.094 288.906" stroke="black" stroke-width="1.5"/>
<path d="M632.704 -53.872L201.061 289.472" stroke="black" stroke-width="1.5"/>
<path d="M637.672 -53.306L206.029 290.038" stroke="black" stroke-width="1.5"/>
<path d="M642.639 -52.74L210.997 290.604" stroke="black" stroke-width="1.5"/>
<path d="M647.607 -52.1739L215.965 291.17" stroke="black" stroke-width="1.5"/>
<path d="M652.575 -51.6079L220.933 291.736" stroke="black" stroke-width="1.5"/>
<path d="M657.543 -51.0419L225.901 292.302" stroke="black" stroke-width="1.5"/>
<path d="M662.511 -50.4759L230.869 292.868" stroke="black" stroke-width="1.5"/>
<path d="M667.479 -49.9099L235.836 293.434" stroke="black" stroke-width="1.5"/>
<path d="M672.447 -49.3439L240.804 294" stroke="black" stroke-width="1.5"/>
<path d="M677.414 -48.7778L245.772 294.566" stroke="black" stroke-width="1.5"/>
<path d="M682.382 -48.2118L250.74 295.132" stroke="black" stroke-width="1.5"/>
<path d="M687.35 -47.6458L255.708 295.698" stroke="black" stroke-width="1.5"/>
<path d="M692.318 -47.0798L260.676 296.264" stroke="black" stroke-width="1.5"/>
<path d="M697.286 -46.5138L265.644 296.83" stroke="black" stroke-width="1.5"/>
<path d="M702.254 -45.9478L270.611 297.396" stroke="black" stroke-width="1.5"/>
<path d="M707.222 -45.3818L275.579 297.962" stroke="black" stroke-width="1.5"/>
<path d="M712.19 -44.8157L280.547 298.528" stroke="black" stroke-width="1.5"/>
<path d="M717.157 -44.2497L285.515 299.094" stroke="black" stroke-width="1.5"/>
<path d="M722.125 -43.6837L290.483 299.66" stroke="black" stroke-width="1.5"/>
<path d="M727.093 -43.1177L295.451 300.226" stroke="black" stroke-width="1.5"/>
<path d="M732.061 -42.5517L300.419 300.792" stroke="black" stroke-width="1.5"/>
<path d="M737.029 -41.9856L305.387 301.358" stroke="black" stroke-width="1.5"/>
<path d="M741.997 -41.4196L310.354 301.924" stroke="black" stroke-width="1.5"/>
<path d="M746.965 -40.8536L315.322 302.49" stroke="black" stroke-width="1.5"/>
<path d="M751.932 -40.2876L320.29 303.056" stroke="black" stroke-width="1.5"/>
<path d="M756.9 -39.7216L325.258 303.622" stroke="black" stroke-width="1.5"/>
<path d="M761.868 -39.1556L330.226 304.188" stroke="black" stroke-width="1.5"/>
<path d="M766.836 -38.5896L335.194 304.754" stroke="black" stroke-width="1.5"/>
</g>
</svg>
