<svg width="336" height="176" viewBox="0 0 336 176" fill="none" xmlns="http://www.w3.org/2000/svg">
<path d="M210.529 12.8517C210.539 13.1306 210.664 13.393 210.875 13.5754C211.086 13.7578 211.364 13.8437 211.641 13.8123L324.245 1.0617C328.285 0.60427 332.179 2.7233 333.989 6.36374C335.799 10.0042 335.138 14.388 332.334 17.3324L295.57 55.9476C295.369 56.1593 295.27 56.4485 295.3 56.7392C295.33 57.0299 295.485 57.293 295.725 57.4593C296.016 57.6603 296.296 57.8781 296.565 58.112C298.5 59.794 299.688 62.1757 299.867 64.7332L301.841 92.9753C301.887 93.6264 301.867 94.266 301.787 94.8879C301.774 94.9944 301.777 95.1023 301.798 95.2076C301.875 95.5986 301.928 95.9961 301.956 96.3978L302.781 108.191C303.153 113.517 299.138 118.136 293.812 118.509L281.832 119.346C278.761 119.561 275.925 118.318 274 116.201C273.795 115.975 273.496 115.855 273.191 115.876C272.885 115.898 272.607 116.058 272.434 116.311C270.823 118.674 268.188 120.3 265.116 120.515L253.323 121.34C250.766 121.519 248.242 120.674 246.307 118.992C246.086 118.8 245.874 118.599 245.673 118.389C245.468 118.175 245.178 118.063 244.882 118.084C244.586 118.105 244.314 118.256 244.141 118.496C243.971 118.732 243.79 118.961 243.597 119.182C241.915 121.117 239.534 122.304 236.976 122.483L232.273 122.812C232.024 122.829 231.791 122.939 231.618 123.12L188.468 168.443C185.184 171.893 179.877 172.436 175.962 169.723L116.733 128.684C116.4 128.453 115.961 128.446 115.62 128.666C111.538 131.306 106.663 132.78 101.376 133.15C95.54 133.558 89.857 132.585 84.8905 129.786C83.7285 129.131 82.6414 128.397 81.629 127.59C81.3819 127.393 81.0563 127.325 80.7509 127.405C80.4454 127.486 80.196 127.706 80.0781 127.999C79.6803 128.988 79.1181 129.913 78.4055 130.733C76.7235 132.668 74.3418 133.855 71.7843 134.034L59.9909 134.859C54.6651 135.231 50.0459 131.216 49.6735 125.89L48.1379 103.931C48.1007 103.399 47.6528 102.99 47.1197 103.001C44.7266 103.05 42.3935 102.21 40.5785 100.632C38.6436 98.9499 37.4561 96.5682 37.2773 94.0107L36.5177 83.1483C36.3305 80.4712 37.2509 77.9742 38.891 76.1026C39.0789 75.8883 39.1663 75.604 39.1315 75.3212C39.0966 75.0384 38.9428 74.7839 38.7085 74.6216L8.7173 53.8409C5.40687 51.5471 3.86546 47.4412 4.84857 43.5356C5.83168 39.6299 9.13327 36.7431 13.1351 36.2899L113.171 24.9625C113.505 24.9247 113.798 24.7215 113.95 24.4216C117.15 18.1205 123.06 12.779 131.606 11.3141C131.618 11.3121 131.629 11.31 131.64 11.3076C133.757 10.8681 135.725 11.0526 137.462 11.6718C137.768 11.7808 138.107 11.7346 138.373 11.5478C143.705 7.79758 151.36 6.0103 158.135 11.1241L158.136 11.1249C160.405 12.8328 161.995 14.9084 163.06 17.1482C163.21 17.4641 163.514 17.6786 163.862 17.7137C164.21 17.7489 164.552 17.5996 164.762 17.3201C165.066 16.9162 165.452 16.4219 165.9 15.9073C169.881 11.3272 176.719 10.7527 181.458 14.5365L181.459 14.5369C181.542 14.6037 181.625 14.6713 181.706 14.7397C181.915 14.9163 182.188 14.9991 182.461 14.9689C182.733 14.9386 182.981 14.7979 183.147 14.5797C186.114 10.6714 189.078 7.19401 191.681 4.86033C191.815 4.74095 191.951 4.62528 192.091 4.51348C196.468 1.00672 202.038 1.50215 205.703 4.04464C208.432 5.93748 210.409 9.20864 210.529 12.8517Z" fill="white" stroke="#07090D" stroke-width="2" stroke-linejoin="round"/>
</svg>
