<svg width="378" height="198" viewBox="0 0 378 198" fill="none" xmlns="http://www.w3.org/2000/svg">
<path d="M236.971 14.4541C236.98 14.733 237.106 14.9954 237.317 15.1778C237.528 15.3602 237.806 15.4461 238.083 15.4147L364.763 1.0702C369.36 0.549681 373.791 2.961 375.851 7.10359C377.91 11.2462 377.157 16.2346 373.967 19.5852L332.608 63.0274C332.406 63.2391 332.308 63.5283 332.337 63.819C332.367 64.1097 332.523 64.3728 332.763 64.5392C333.093 64.7679 333.413 65.0157 333.719 65.2819C335.921 67.1958 337.272 69.9061 337.475 72.8163L339.697 104.589C339.749 105.33 339.726 106.057 339.636 106.765C339.622 106.872 339.626 106.979 339.646 107.085C339.734 107.53 339.794 107.982 339.826 108.439L340.754 121.707C341.178 127.767 336.608 133.023 330.548 133.447L317.071 134.39C313.576 134.634 310.348 133.219 308.159 130.811C307.953 130.584 307.655 130.465 307.349 130.486C307.044 130.507 306.765 130.667 306.593 130.92C304.76 133.61 301.761 135.46 298.265 135.705L284.998 136.632C282.088 136.836 279.216 135.875 277.014 133.961C276.762 133.742 276.522 133.513 276.293 133.275C276.087 133.061 275.798 132.949 275.502 132.97C275.206 132.99 274.934 133.141 274.76 133.382C274.567 133.65 274.361 133.91 274.142 134.162C272.228 136.364 269.518 137.715 266.608 137.918L261.316 138.288C261.068 138.306 260.834 138.416 260.662 138.596L212.118 189.585C208.381 193.511 202.341 194.129 197.886 191.042L131.254 144.873C130.921 144.642 130.481 144.635 130.141 144.855C125.528 147.838 120.023 149.502 114.057 149.919C107.472 150.379 101.053 149.282 95.4407 146.119C94.1276 145.379 92.8991 144.548 91.7549 143.637C91.5079 143.44 91.1823 143.372 90.8769 143.452C90.5714 143.533 90.322 143.753 90.2041 144.046C89.7514 145.171 89.1116 146.224 88.3007 147.157C86.3867 149.359 83.6765 150.71 80.7662 150.914L67.4986 151.841C61.4383 152.265 56.1819 147.696 55.7581 141.636L54.0306 116.931C53.9934 116.4 53.5455 115.99 53.0124 116.001C50.2892 116.058 47.6342 115.101 45.5689 113.306C43.3671 111.392 42.0159 108.681 41.8123 105.771L40.9578 93.5509C40.7448 90.5045 41.7923 87.6628 43.6585 85.5333C43.8464 85.319 43.9338 85.0347 43.899 84.7519C43.8641 84.4691 43.7102 84.2146 43.476 84.0523L9.73579 60.6739C5.96875 58.0637 4.21473 53.3915 5.33344 48.9471C6.45215 44.5028 10.2092 41.2178 14.763 40.7021L127.303 27.9587C127.638 27.9209 127.93 27.7176 128.083 27.4178C131.698 20.2988 138.378 14.2608 148.036 12.6052C148.042 12.6042 148.048 12.6032 148.053 12.6021C148.059 12.601 148.065 12.5999 148.07 12.5987C150.475 12.0995 152.711 12.3088 154.687 13.0131C154.993 13.1221 155.332 13.0758 155.598 12.8891C161.624 8.65124 170.298 6.61777 177.977 12.4149L177.979 12.4157C180.548 14.35 182.349 16.7013 183.556 19.2381C183.706 19.554 184.01 19.7685 184.358 19.8036C184.706 19.8388 185.047 19.6895 185.258 19.41C185.601 18.9541 186.037 18.3956 186.543 17.8137C191.067 12.6098 198.836 11.958 204.219 16.256L204.219 16.2563C204.314 16.3321 204.408 16.4089 204.5 16.4866C204.71 16.6632 204.983 16.746 205.255 16.7158C205.527 16.6856 205.775 16.5449 205.941 16.3266C209.281 11.9277 212.621 8.00817 215.559 5.37481C215.71 5.23896 215.865 5.10734 216.024 4.98012C220.998 0.995805 227.325 1.5601 231.488 4.44752C234.588 6.59796 236.834 10.3135 236.971 14.4541Z" fill="white" stroke="#07090D" stroke-width="2" stroke-linejoin="round"/>
</svg>
