<svg width="340" height="172" viewBox="0 0 340 172" fill="none" xmlns="http://www.w3.org/2000/svg">
<path d="M213.745 13.1268C213.722 13.4049 213.817 13.6798 214.006 13.8849C214.196 14.0901 214.462 14.2069 214.741 14.2071L328.065 14.2856C332.13 14.2884 335.759 16.8346 337.146 20.6565C338.532 24.4785 337.378 28.7592 334.26 31.3673L293.361 65.5725C293.136 65.76 293.006 66.0362 293.002 66.3284C292.999 66.6206 293.124 66.8996 293.344 67.0921C293.609 67.3247 293.863 67.5728 294.104 67.8356C295.836 69.7258 296.746 72.2267 296.635 74.788L295.4 103.072C295.371 103.724 295.279 104.357 295.13 104.966C295.104 105.071 295.095 105.178 295.104 105.285C295.136 105.682 295.144 106.083 295.126 106.486L294.61 118.297C294.378 123.63 289.865 127.765 284.531 127.532L272.534 127.008C269.458 126.874 266.781 125.318 265.109 122.997C264.93 122.749 264.647 122.596 264.341 122.583C264.035 122.569 263.74 122.697 263.54 122.928C261.672 125.094 258.869 126.412 255.793 126.278L243.982 125.762C241.421 125.65 239.009 124.525 237.277 122.635C237.079 122.419 236.892 122.195 236.716 121.964C236.536 121.728 236.26 121.584 235.964 121.571C235.668 121.558 235.381 121.678 235.181 121.897C234.985 122.112 234.779 122.319 234.563 122.517C232.673 124.249 230.172 125.159 227.611 125.047L222.901 124.841C222.652 124.831 222.407 124.913 222.216 125.073L174.212 165.221C170.559 168.276 165.224 168.215 161.641 165.077L107.439 117.597C107.134 117.33 106.698 117.273 106.335 117.453C101.98 119.614 96.9703 120.527 91.675 120.295C85.8304 120.04 80.294 118.43 75.6763 115.087C74.5959 114.305 73.599 113.452 72.6844 112.536C72.4611 112.312 72.1455 112.207 71.8328 112.253C71.5202 112.298 71.2475 112.488 71.0972 112.766C70.59 113.704 69.9266 114.56 69.1258 115.293C67.2356 117.026 64.7347 117.936 62.1734 117.824L50.3625 117.308C45.0288 117.075 40.8938 112.563 41.1267 107.229L42.0869 85.2373C42.1101 84.7046 41.7114 84.2474 41.1805 84.198C38.7972 83.9762 36.5742 82.8767 34.9495 81.1036C33.2175 79.2134 32.3072 76.7126 32.4191 74.1513L32.894 63.2728C33.0111 60.5917 34.2082 58.2149 36.0497 56.5411C36.2606 56.3494 36.3797 56.0768 36.377 55.7919C36.3744 55.5069 36.2504 55.2366 36.036 55.0489L8.59001 31.0066C5.56053 28.3529 4.49383 24.0989 5.91275 20.3296C7.33166 16.5604 10.9388 14.0659 14.9663 14.0687L115.641 14.1384C115.978 14.1386 116.291 13.9699 116.477 13.6892C120.369 7.79082 126.846 3.15274 135.503 2.66466C135.515 2.66401 135.526 2.66315 135.538 2.66209C137.691 2.46507 139.625 2.87102 141.281 3.68293C141.572 3.82585 141.915 3.81837 142.2 3.66288C147.922 0.540402 155.731 -0.368817 161.883 5.47899L161.884 5.47994C163.945 7.43376 165.289 9.67593 166.094 12.0219C166.208 12.3528 166.486 12.6003 166.828 12.6746C167.169 12.749 167.525 12.6393 167.766 12.3854C168.114 12.0185 168.553 11.5711 169.056 11.1104C173.53 7.01051 180.39 7.21382 184.67 11.5098L184.67 11.5102C184.746 11.586 184.82 11.6625 184.893 11.7397C185.081 11.9389 185.343 12.0521 185.617 12.0528C185.891 12.0536 186.153 11.9419 186.343 11.7438C189.733 8.19655 193.072 5.07707 195.923 3.05309C196.069 2.94955 196.217 2.85007 196.369 2.75479C201.115 -0.23383 206.593 0.888885 209.947 3.82998C212.444 6.01958 214.037 9.49345 213.745 13.1268Z" fill="white" stroke="#07090D" stroke-width="2" stroke-linejoin="round"/>
<path d="M168.011 157.805L14.9597 23.7353L328.058 23.9521L168.011 157.805Z" fill="#5BF5D0"/>
<mask id="mask0_647_26155" style="mask-type:alpha" maskUnits="userSpaceOnUse" x="14" y="23" width="315" height="135">
<path d="M168.011 157.805L14.9597 23.7353L328.058 23.9521L168.011 157.805Z" fill="#5BF5D0"/>
</mask>
<g mask="url(#mask0_647_26155)">
<path d="M54.4417 38.404L69.1762 34.715" stroke="#EBFF71" stroke-width="2" stroke-linecap="round"/>
<path d="M36.2001 17.9093L40.8989 32.3536" stroke="#EBFF71" stroke-width="2" stroke-linecap="round"/>
<path d="M166.962 63.749L181.697 60.0599" stroke="#EBFF71" stroke-width="2" stroke-linecap="round"/>
<path d="M124.993 60.2521L139.74 63.8925" stroke="#EBFF71" stroke-width="2" stroke-linecap="round"/>
<path d="M207.027 65.4502L217.164 76.7621" stroke="#EBFF71" stroke-width="2" stroke-linecap="round"/>
<path d="M76.2495 51.1558L89.6986 58.2151" stroke="#EBFF71" stroke-width="2" stroke-linecap="round"/>
<path d="M100.09 34.1563L107.124 20.6937" stroke="#EBFF71" stroke-width="2" stroke-linecap="round"/>
<path d="M86.5627 97.9235L93.5964 84.4609" stroke="#EBFF71" stroke-width="2" stroke-linecap="round"/>
<path d="M49.0561 65.9164L56.0898 52.4538" stroke="#EBFF71" stroke-width="2" stroke-linecap="round"/>
<path d="M137.705 136.397L139.895 121.366" stroke="#EBFF71" stroke-width="2" stroke-linecap="round"/>
<path d="M156.594 141.096L171.154 136.77" stroke="#EBFF71" stroke-width="2" stroke-linecap="round"/>
<path d="M153.249 110.739L165.81 119.279" stroke="#EBFF71" stroke-width="2" stroke-linecap="round"/>
<path d="M183.841 125.583L184.592 110.412" stroke="#EBFF71" stroke-width="2" stroke-linecap="round"/>
<path d="M199.315 145.091L190.572 132.67" stroke="#EBFF71" stroke-width="2" stroke-linecap="round"/>
<path d="M238.369 66.309L246.482 53.4677" stroke="#EBFF71" stroke-width="2" stroke-linecap="round"/>
<path d="M289.086 48.5461L282.11 35.0534" stroke="#EBFF71" stroke-width="2" stroke-linecap="round"/>
<path d="M257.827 29.6301L243.422 34.4466" stroke="#EBFF71" stroke-width="2" stroke-linecap="round"/>
<path d="M260.991 43.8191L272.988 53.135" stroke="#EBFF71" stroke-width="2" stroke-linecap="round"/>
<path d="M280.982 65.8182L265.977 68.1783" stroke="#EBFF71" stroke-width="2" stroke-linecap="round"/>
<path d="M309.997 18.3157L301.81 31.11" stroke="#EBFF71" stroke-width="2" stroke-linecap="round"/>
</g>
<path d="M288.09 105.602L275.906 105.07L277.141 76.7858L289.325 77.3177L288.09 105.602ZM287.301 120.826L275.303 120.302L275.819 108.492L287.816 109.015L287.301 120.826Z" fill="white"/>
<path d="M260.649 76.0657L273.268 76.6167L259.181 105.398L258.563 119.572L246.752 119.056L247.371 104.883L235.846 74.9828L248.465 75.5337L253.103 89.1267L253.013 94.043L254.505 94.1082L254.844 89.2027L260.649 76.0657Z" fill="white"/>
<path d="M230.38 118.341L219.191 117.853L220.592 85.7765L219.038 85.7087C218.32 92.1546 215.517 95.0217 211.041 94.8263L208.492 94.715L209.062 81.6608L210.554 81.726C214.968 81.9187 217.19 79.5244 217.423 74.1784L232.28 74.8271L230.38 118.341Z" fill="white"/>
<path d="M203.442 117.165L192.252 116.676L193.653 84.6003L192.099 84.5325C191.381 90.9784 188.578 93.8455 184.102 93.6501L181.554 93.5388L182.124 80.4846L183.616 80.5498C188.029 80.7425 190.251 78.3482 190.485 73.0022L205.341 73.6509L203.442 117.165Z" fill="white"/>
<path d="M182.38 116.245L169.823 115.697L168.53 105.364L159.206 104.957L157.017 115.138L144.46 114.59L155.312 71.4665L175.328 72.3405L182.38 116.245ZM163.796 83.9818L161.537 94.3465L167.132 94.5907L165.785 84.0687L165.775 78.5875L164.283 78.5223L163.796 83.9818Z" fill="white"/>
<path d="M115.835 69.743L147.911 71.1435L147.436 82.0219L137.304 81.5795L135.879 114.215L124.068 113.699L125.493 81.0639L115.36 80.6215L115.835 69.743Z" fill="white"/>
<path d="M94.4444 113.589C85.7416 113.209 80.0125 108.911 77.8354 101.716C76.8576 98.4344 76.534 94.4343 76.7348 89.8343C76.9357 85.2342 77.6094 81.2153 78.8695 78.0317C81.6654 71.0537 87.7445 67.3331 96.4473 67.7131C105.212 68.0958 110.882 72.3294 113.059 79.5245C114.099 82.8085 114.42 86.8708 114.219 91.4709C114.018 96.0709 113.347 100.028 112.025 103.209C109.167 110.184 103.209 113.972 94.4444 113.589ZM94.9193 102.711C97.7166 102.833 99.6494 101.36 100.69 98.9145C101.461 96.9551 101.778 93.9794 101.911 90.9335C102.046 87.8253 101.988 84.8955 101.391 82.8765C100.567 80.3492 98.7697 78.7137 95.9724 78.5916C93.1751 78.4695 91.2423 79.9421 90.2635 82.3906C89.4307 84.3473 89.1166 87.2608 88.9809 90.3689C88.8479 93.4149 88.9041 96.4069 89.5632 98.4287C90.325 100.953 92.122 102.589 94.9193 102.711Z" fill="white"/>
<path d="M44.8992 66.6458L76.9752 68.0463L76.5002 78.9248L66.3677 78.4824L64.9428 111.118L53.1319 110.602L54.5568 77.9667L44.4242 77.5243L44.8992 66.6458Z" fill="white"/>
<path d="M209.428 55.1394C205.779 45.798 216.649 32.8198 226.085 29.4416C232.053 27.2465 236.813 30.7107 235.102 36.882C232.585 45.6338 219.453 50.5056 212.995 48.0349C213.414 46.9855 213.829 46.0427 214.46 45.056C218.412 46.2428 224.697 44.1149 228.515 41.0252C230.615 39.4086 233.462 35.3156 231.749 32.9986C231.093 32.1159 228.7 31.9046 225.711 33.1087C220.76 35.2415 214.666 41.5416 212.74 46.529C210.814 51.5164 212.229 57.0233 218.261 57.0198C221.199 56.9879 224.558 55.8534 227.422 53.843C228.469 53.088 229.463 52.3306 230.568 51.4714C231.233 50.9132 232.243 51.0107 232.799 51.7289C233.357 52.3939 233.26 53.4039 232.542 53.9598C231.432 54.9256 230.331 55.6783 229.231 56.4311C225.924 58.7957 221.912 60.2221 218.282 60.2237C214.651 60.2254 210.815 58.8301 209.428 55.1394ZM202.011 53.8546C201.452 53.1896 201.656 52.1842 202.321 51.6261C204.472 50.065 206.578 48.2886 208.8 46.3036C208.192 47.9854 207.852 49.6788 207.777 51.3838C206.505 52.3959 205.395 53.3618 204.237 54.2187C203.572 54.7769 202.566 54.5729 202.011 53.8546Z" fill="white"/>
<path d="M192.542 58.7262C189.424 58.0029 187.807 55.9037 187.108 53.5776C186.256 51.0848 186.396 47.8878 186.739 46.1411C187.682 46.556 188.736 46.8689 189.903 47.0267C189.657 48.9912 189.578 50.8028 190.141 52.589C190.662 54.1065 191.523 55.1584 193.212 55.6058C194.855 55.8911 196.847 55.4976 200.424 53.038C201.525 52.2853 202.683 51.4283 203.846 50.4648C204.511 49.9066 205.519 50.0574 206.077 50.7224C206.633 51.4406 206.536 52.4507 205.817 53.0065C204.548 53.9654 203.496 54.827 202.233 55.626C198.436 58.2362 195.561 59.2851 192.542 58.7262ZM168.292 55.3719C168.7 54.589 169.105 53.8593 169.622 53.0277L169.624 52.9744C174.532 45.715 181.246 36.2388 187.108 29.1278C187.161 29.1301 187.161 29.1301 187.164 29.0768C193.077 22.0214 199.118 15.7189 203.084 12.9026C204.511 12.004 206.367 13.5264 205.393 15.032C203.266 18.5158 198.511 23.4865 193.377 28.6007L189.25 32.6379C193.535 27.4332 198.313 21.9297 203.691 16.1321C203.857 15.9792 203.867 15.7661 203.714 15.5993C203.508 15.4301 203.345 15.4764 203.179 15.6293C196.29 23.0158 190.163 30.0619 185.239 36.4666C182.42 38.6923 179.625 41.5598 176.555 44.6288C176.333 44.8327 176.326 44.9925 176.532 45.1617C176.736 45.3841 176.896 45.3911 177.065 45.1849C181.31 40.886 185.533 37.0666 190.371 33.8613C194.331 31.2048 198.205 29.292 201.233 28.4099C202.69 28.0464 204.247 27.8475 205.509 28.2763C207.038 28.7167 207.897 29.8219 208.092 31.4853C208.466 35.1318 205.007 39.7853 200.978 42.8124C196.733 45.8835 190.783 47.6523 186.672 45.2307C185.685 44.6004 184.888 43.2844 185.421 42.0798C186.432 39.7217 189.545 40.5516 190.05 42.4421C189.57 42.4211 188.567 42.1638 188.088 42.1429C187.821 42.1312 187.699 42.4996 188.065 42.6757C188.695 42.9167 189.649 43.0652 190.233 43.144C193.42 43.4968 196.414 42.1861 199.062 40.2197C200.883 38.8579 202.447 37.2713 203.532 35.6637C204.619 34.0029 205.05 32.6871 204.925 31.8809C204.707 30.7503 202.597 31.4055 202.059 31.4888C191.041 34.4243 176.742 47.6799 171.051 56.9871C169.959 58.7545 167.358 57.1996 168.292 55.3719ZM164.899 52.3944C164.343 51.6762 164.491 50.7217 165.209 50.1659C169.292 47.1411 172.691 43.8729 176.194 40.6627L180.261 36.783C177.028 41.1262 173.847 45.5249 171.052 49.6202C169.72 50.7899 168.397 51.7464 167.127 52.7053C166.409 53.2611 165.454 53.1127 164.899 52.3944Z" fill="white"/>
<path d="M155.533 56.8435C153.282 55.8376 152.682 53.6761 152.935 51.5518C153.721 46.9951 156.453 43.1106 159.171 39.5458C161.384 36.5461 166.595 30.9014 170.926 27.0867C172.416 25.9773 174.725 28.1067 173.437 29.4918C172.818 30.2122 166.214 38.4119 161.079 43.5261C163.36 40.2091 168.638 34.247 171.381 31.3239C171.548 31.171 171.504 30.9556 171.351 30.7887C171.145 30.6196 170.983 30.6659 170.816 30.8188C165.827 36.2596 156.807 46.0088 156.122 51.9045C155.821 55.1478 158.703 53.939 160.498 53.1632C162.408 52.2323 164.715 50.7315 167.206 48.7049C167.924 48.1491 168.934 48.2465 169.49 48.9648C170.048 49.6298 169.898 50.6375 169.233 51.1957C165.087 54.4313 159.302 58.5562 155.533 56.8435ZM146.907 51.4488C146.349 50.7838 146.5 49.7761 147.218 49.2202C150.035 47.0477 154.241 43.6546 157.243 40.903C155.656 43.0224 153.707 46.087 152.894 48.8274C151.561 49.9971 150.403 50.854 149.133 51.8129C148.415 52.3687 147.463 52.167 146.907 51.4488ZM179.39 20.3028C180.004 20.9168 180.015 21.8782 179.399 22.5453C178.678 23.1544 178.059 23.8748 177.332 24.6438C175.548 26.3809 173.456 24.1543 174.916 22.5097C175.752 21.6921 176.318 20.9694 177.152 20.205C177.764 19.6445 178.725 19.6331 179.39 20.3028Z" fill="white"/>
<path d="M133.747 56.9066C124.399 55.8045 118.377 49.4558 110.742 44.5848C108.922 43.491 107.404 42.7841 105.866 42.5568C102.049 41.9631 100.042 43.904 99.6941 45.7573C99.3463 47.6106 100.342 50.4834 104.139 51.5567C109.27 52.6349 113.408 52.0147 116.952 50.3011L117.117 50.2015L120.123 52.2546L120.07 52.2523C115.466 54.9874 110.133 56.0891 103.52 54.7327C98.2518 53.1147 95.8178 48.9512 96.5714 45.1405C97.325 41.3298 101.076 38.5574 106.326 39.3738C110.993 40.0581 114.848 43.4828 118.308 46.1429C123.319 49.9918 128.616 53.3728 134.31 53.7815C138.14 54.1089 141.761 53.0925 145.505 50.48L148.927 47.9069C149.592 47.3487 150.6 47.4994 151.158 48.1644C151.714 48.8827 151.616 49.8927 150.898 50.4486C149.626 51.4607 148.465 52.371 147.311 53.1213C142.909 56.1322 138.632 57.4936 133.747 56.9066ZM121.348 47.4501C122.348 46.5329 125.692 43.3157 127.954 40.4249C128.78 41.0482 129.716 41.6229 130.712 42.0401C129.118 44.3194 126.203 47.5019 124.153 49.2275C123.113 48.5948 122.228 48.0757 121.348 47.4501ZM134.961 42.5459C127.235 40.9808 122.469 35.2207 123.61 27.4231C124.586 20.9529 129.775 14.6132 137.85 14.2718C138.71 14.1492 139.479 14.8767 139.493 15.7849C139.615 16.6444 138.888 17.4133 137.98 17.4271C131.72 17.741 127.609 22.633 126.793 27.8824C125.814 34.4059 129.608 37.9881 135.26 39.3559C143.806 40.4764 152.771 30.7783 155.163 23.6759C156.334 20.0969 155.632 17.8241 154.611 16.7652C153.636 15.8685 151.836 15.523 149.028 17.4824C143.078 21.7069 138.436 30.2058 133.393 38.1C132.393 37.7894 131.452 37.3212 130.577 36.589C135.73 28.5929 140.555 19.5681 147.166 14.892C150.694 12.3235 154.385 12.1643 156.794 14.4583C159.101 16.641 159.626 20.5075 158.216 24.6633C155.266 33.5564 144.674 43.8242 134.961 42.5459Z" fill="white"/>
<path d="M285.742 102.65L273.558 102.118L274.793 73.8344L286.977 74.3663L285.742 102.65ZM284.953 117.875L272.956 117.351L273.471 105.54L285.469 106.064L284.953 117.875Z" fill="#474FFF"/>
<path d="M258.301 73.1143L270.92 73.6653L256.834 102.447L256.215 116.62L244.404 116.104L245.023 101.931L233.498 72.0314L246.117 72.5823L250.756 86.1753L250.665 91.0916L252.157 91.1568L252.496 86.2513L258.301 73.1143Z" fill="#EC2B99"/>
<path d="M228.033 115.39L216.844 114.901L218.244 82.8251L216.69 82.7572C215.973 89.2032 213.169 92.0703 208.694 91.8749L206.145 91.7636L206.715 78.7094L208.207 78.7745C212.62 78.9672 214.842 76.573 215.076 71.227L229.933 71.8757L228.033 115.39Z" fill="#EC2B99"/>
<path d="M201.094 114.213L189.905 113.725L191.305 81.6489L189.751 81.581C189.034 88.027 186.23 90.8941 181.755 90.6987L179.206 90.5874L179.776 77.5332L181.268 77.5983C185.681 77.791 187.904 75.3968 188.137 70.0508L202.994 70.6995L201.094 114.213Z" fill="#EC2B99"/>
<path d="M180.032 113.294L167.475 112.746L166.182 102.413L156.858 102.006L154.67 112.187L142.113 111.638L152.964 68.5152L172.98 69.3891L180.032 113.294ZM161.448 81.0305L159.19 91.3951L164.784 91.6394L163.438 81.1173L163.428 75.6361L161.936 75.571L161.448 81.0305Z" fill="#EC2B99"/>
<path d="M113.488 66.7916L145.564 68.192L145.089 79.0705L134.956 78.6281L133.531 111.264L121.72 110.748L123.145 78.1125L113.013 77.6701L113.488 66.7916Z" fill="#474FFF"/>
<path d="M92.0967 110.638C83.3939 110.258 77.6648 105.959 75.4877 98.7643C74.5099 95.483 74.1863 91.4829 74.3872 86.8828C74.588 82.2828 75.2617 78.2639 76.5218 75.0803C79.3177 68.1023 85.3969 64.3817 94.0997 64.7617C102.865 65.1444 108.534 69.3779 110.711 76.5731C111.751 79.8571 112.072 83.9194 111.871 88.5194C111.671 93.1195 111 97.0762 109.677 100.257C106.819 107.232 100.862 111.021 92.0967 110.638ZM92.5717 99.7594C95.369 99.8815 97.3017 98.4089 98.3427 95.9631C99.1134 94.0037 99.4301 91.028 99.5631 87.9821C99.6988 84.8739 99.6399 81.9441 99.043 79.9251C98.2191 77.3978 96.4221 75.7623 93.6247 75.6402C90.8274 75.5181 88.8947 76.9907 87.9158 79.4392C87.083 81.3959 86.769 84.3094 86.6333 87.4175C86.5003 90.4635 86.5565 93.4555 87.2156 95.4772C87.9773 98.0017 89.7743 99.6372 92.5717 99.7594Z" fill="#474FFF"/>
<path d="M42.5515 63.6944L74.6275 65.0949L74.1526 75.9734L64.02 75.531L62.5951 108.166L50.7842 107.651L52.2091 75.0153L42.0765 74.5729L42.5515 63.6944Z" fill="#474FFF"/>
<path d="M207.863 53.1718C204.214 43.8304 215.084 30.8522 224.52 27.474C230.488 25.2789 235.248 28.7431 233.537 34.9144C231.02 43.6662 217.888 48.538 211.43 46.0673C211.849 45.0179 212.264 44.0751 212.894 43.0884C216.846 44.2752 223.132 42.1474 226.95 39.0576C229.049 37.441 231.897 33.348 230.183 31.0311C229.528 30.1483 227.135 29.937 224.146 31.1412C219.195 33.2739 213.101 39.574 211.175 44.5614C209.249 49.5488 210.664 55.0557 216.696 55.0522C219.634 55.0203 222.993 53.8858 225.857 51.8754C226.904 51.1204 227.898 50.363 229.003 49.5038C229.668 48.9456 230.678 49.0431 231.234 49.7613C231.792 50.4263 231.695 51.4363 230.977 51.9922C229.867 52.958 228.766 53.7108 227.666 54.4635C224.359 56.8282 220.347 58.2545 216.716 58.2561C213.086 58.2578 209.25 56.8625 207.863 53.1718ZM200.445 51.887C199.887 51.222 200.091 50.2167 200.756 49.6585C202.906 48.0974 205.013 46.321 207.235 44.336C206.627 46.0178 206.287 47.7112 206.212 49.4162C204.94 50.4284 203.83 51.3942 202.672 52.2511C202.007 52.8093 201.001 52.6053 200.445 51.887Z" fill="#474FFF"/>
<path d="M190.977 56.7586C187.859 56.0353 186.242 53.9361 185.543 51.6101C184.691 49.1172 184.831 45.9202 185.174 44.1736C186.117 44.5884 187.171 44.9013 188.338 45.0591C188.092 47.0236 188.013 48.8352 188.576 50.6214C189.097 52.1389 189.958 53.1908 191.647 53.6382C193.289 53.9235 195.282 53.53 198.859 51.0704C199.96 50.3177 201.118 49.4607 202.281 48.4972C202.946 47.939 203.954 48.0898 204.512 48.7548C205.068 49.473 204.971 50.4831 204.252 51.0389C202.983 51.9978 201.931 52.8594 200.668 53.6584C196.871 56.2686 193.995 57.3175 190.977 56.7586ZM166.727 53.4043C167.135 52.6214 167.54 51.8917 168.057 51.0601L168.059 51.0069C172.967 43.7474 179.68 34.2712 185.543 27.1602C185.596 27.1625 185.596 27.1625 185.598 27.1092C191.512 20.0538 197.552 13.7513 201.519 10.935C202.946 10.0364 204.802 11.5588 203.828 13.0644C201.701 16.5483 196.946 21.5189 191.812 26.6331L187.685 30.6703C191.97 25.4656 196.747 19.9621 202.125 14.1645C202.292 14.0116 202.302 13.7985 202.149 13.6317C201.943 13.4625 201.78 13.5088 201.614 13.6617C194.725 21.0482 188.598 28.0943 183.674 34.499C180.855 36.7247 178.06 39.5922 174.99 42.6612C174.768 42.8651 174.761 43.0249 174.967 43.1941C175.171 43.4165 175.33 43.4235 175.5 43.2173C179.744 38.9184 183.968 35.099 188.806 31.8937C192.766 29.2372 196.64 27.3244 199.668 26.4423C201.125 26.0788 202.682 25.8799 203.944 26.3087C205.473 26.7491 206.332 27.8543 206.527 29.5177C206.901 33.1642 203.442 37.8177 199.412 40.8448C195.168 43.9159 189.218 45.6847 185.107 43.2631C184.12 42.6328 183.323 41.3168 183.856 40.1122C184.867 37.7541 187.98 38.584 188.485 40.4745C188.005 40.4535 187.002 40.1962 186.523 40.1753C186.256 40.1636 186.133 40.532 186.499 40.7081C187.13 40.9491 188.084 41.0976 188.668 41.1765C191.855 41.5292 194.849 40.2185 197.497 38.2521C199.318 36.8903 200.882 35.3037 201.967 33.6961C203.053 32.0353 203.485 30.7195 203.36 29.9133C203.142 28.7827 201.032 29.4379 200.494 29.5212C189.476 32.4567 175.177 45.7123 169.486 55.0195C168.394 56.7869 165.793 55.232 166.727 53.4043ZM163.334 50.4268C162.778 49.7086 162.926 48.7541 163.644 48.1983C167.727 45.1735 171.126 41.9053 174.629 38.6951L178.696 34.8154C175.463 39.1586 172.282 43.5573 169.487 47.6526C168.155 48.8223 166.832 49.7788 165.562 50.7377C164.844 51.2935 163.889 51.1451 163.334 50.4268Z" fill="#474FFF"/>
<path d="M153.968 54.8759C151.716 53.8701 151.117 51.7085 151.37 49.5842C152.156 45.0275 154.888 41.143 157.606 37.5782C159.819 34.5785 165.03 28.9338 169.361 25.1191C170.85 24.0097 173.16 26.1391 171.871 27.5242C171.253 28.2446 164.649 36.4443 159.514 41.5585C161.794 38.2415 167.073 32.2794 169.816 29.3563C169.983 29.2034 169.939 28.988 169.786 28.8211C169.58 28.652 169.418 28.6983 169.251 28.8512C164.262 34.2921 155.242 44.0412 154.557 49.9369C154.256 53.1802 157.138 51.9714 158.933 51.1956C160.842 50.2647 163.15 48.7639 165.641 46.7373C166.359 46.1815 167.369 46.2789 167.925 46.9972C168.483 47.6622 168.332 48.6699 167.667 49.2281C163.522 52.4637 157.737 56.5886 153.968 54.8759ZM145.342 49.4812C144.784 48.8162 144.934 47.8085 145.653 47.2526C148.47 45.0801 152.675 41.687 155.678 38.9354C154.091 41.0548 152.142 44.1194 151.329 46.8598C149.996 48.0295 148.838 48.8864 147.568 49.8453C146.85 50.4012 145.898 50.1994 145.342 49.4812ZM177.825 18.3352C178.438 18.9492 178.45 19.9106 177.833 20.5777C177.113 21.1868 176.494 21.9072 175.767 22.6762C173.983 24.4133 171.891 22.1867 173.351 20.5421C174.187 19.7245 174.753 19.0018 175.587 18.2375C176.198 17.6769 177.16 17.6655 177.825 18.3352Z" fill="#474FFF"/>
<path d="M132.182 54.939C122.834 53.8369 116.812 47.4882 109.177 42.6172C107.357 41.5234 105.839 40.8165 104.301 40.5892C100.483 39.9955 98.4769 41.9365 98.1291 43.7897C97.7812 45.643 98.7769 48.5158 102.574 49.5891C107.705 50.6673 111.842 50.0472 115.387 48.3335L115.552 48.2339L118.558 50.287L118.505 50.2847C113.901 53.0198 108.568 54.1215 101.955 52.7651C96.6868 51.1471 94.2527 46.9837 95.0063 43.1729C95.7599 39.3622 99.5111 36.5898 104.76 37.4062C109.428 38.0905 113.283 41.5152 116.743 44.1754C121.753 48.0242 127.051 51.4052 132.745 51.8139C136.575 52.1413 140.196 51.1249 143.94 48.5124L147.362 45.9393C148.027 45.3811 149.035 45.5318 149.593 46.1968C150.149 46.9151 150.051 47.9251 149.333 48.481C148.061 49.4931 146.9 50.4034 145.746 51.1537C141.344 54.1646 137.067 55.526 132.182 54.939ZM119.782 45.4825C120.783 44.5653 124.127 41.3481 126.388 38.4573C127.215 39.0806 128.151 39.6553 129.147 40.0725C127.553 42.3518 124.638 45.5343 122.588 47.2599C121.548 46.6272 120.663 46.1081 119.782 45.4825ZM133.396 40.5783C125.67 39.0132 120.904 33.2531 122.045 25.4555C123.021 18.9853 128.209 12.6456 136.285 12.3042C137.145 12.1816 137.914 12.9091 137.928 13.8173C138.05 14.6768 137.323 15.4458 136.414 15.4595C130.155 15.7734 126.044 20.6654 125.228 25.9148C124.249 32.4383 128.043 36.0205 133.695 37.3884C142.241 38.5089 151.206 28.8107 153.598 21.7083C154.769 18.1293 154.067 15.8565 153.046 14.7976C152.071 13.9009 150.271 13.5554 147.463 15.5148C141.513 19.7393 136.871 28.2382 131.828 36.1324C130.828 35.8218 129.887 35.3536 129.012 34.6214C134.165 26.6253 138.99 17.6005 145.6 12.9244C149.129 10.3559 152.82 10.1967 155.229 12.4907C157.536 14.6734 158.061 18.5399 156.651 22.6957C153.701 31.5888 143.109 41.8566 133.396 40.5783Z" fill="#474FFF"/>
</svg>
