<svg width="200" height="200" viewBox="0 0 200 200" fill="none" xmlns="http://www.w3.org/2000/svg">
<rect x="5" y="1" width="194" height="194" rx="31" fill="white"/>
<rect x="5" y="1" width="194" height="194" rx="31" stroke="#07090D" stroke-width="2"/>
<rect x="12" y="8" width="180" height="180" rx="24" fill="url(#paint0_linear_647_26159)"/>
<path fill-rule="evenodd" clip-rule="evenodd" d="M123.533 147.907V164.553C126.262 165.94 129.49 166.98 133.216 167.674C136.942 168.368 140.869 168.714 144.997 168.714C149.02 168.714 152.843 168.333 156.464 167.57C160.084 166.807 163.26 165.55 165.988 163.799C168.717 162.047 170.877 159.758 172.47 156.932C174.061 154.106 174.857 150.612 174.857 146.451C174.857 143.434 174.402 140.789 173.493 138.518C172.583 136.246 171.271 134.226 169.557 132.458C167.843 130.689 165.787 129.103 163.391 127.698C160.994 126.294 158.292 124.967 155.283 123.719C153.078 122.817 151.102 121.942 149.353 121.092C147.604 120.242 146.116 119.375 144.892 118.491C143.668 117.607 142.723 116.67 142.058 115.682C141.394 114.693 141.061 113.575 141.061 112.326C141.061 111.182 141.358 110.151 141.953 109.232C142.548 108.313 143.388 107.524 144.472 106.865C145.557 106.206 146.886 105.695 148.461 105.33C150.035 104.966 151.784 104.784 153.708 104.784C155.108 104.784 156.586 104.888 158.143 105.096C159.7 105.304 161.265 105.625 162.84 106.059C164.414 106.492 165.944 107.038 167.432 107.697C168.918 108.356 170.292 109.119 171.551 109.986V94.4323C168.997 93.4614 166.207 92.7418 163.181 92.2735C160.155 91.8053 156.682 91.5714 152.764 91.5714C148.775 91.5714 144.997 91.9963 141.429 92.8461C137.86 93.6952 134.72 95.0217 132.009 96.825C129.297 98.6288 127.155 100.926 125.58 103.718C124.006 106.509 123.219 109.847 123.219 113.731C123.219 118.69 124.662 122.921 127.548 126.424C130.435 129.926 134.816 132.891 140.694 135.319C143.003 136.255 145.155 137.174 147.149 138.076C149.143 138.978 150.866 139.913 152.318 140.884C153.77 141.855 154.916 142.913 155.755 144.057C156.595 145.202 157.015 146.503 157.015 147.959C157.015 149.034 156.752 150.031 156.227 150.95C155.703 151.869 154.906 152.667 153.84 153.343C152.773 154.019 151.443 154.548 149.851 154.929C148.26 155.311 146.396 155.502 144.262 155.502C140.624 155.502 137.021 154.869 133.452 153.603C129.883 152.337 126.577 150.439 123.533 147.907ZM95.566 106.483H117.144V92.7768H57V106.483H78.4723V167.509H95.566V106.483Z" fill="white"/>
<defs>
<linearGradient id="paint0_linear_647_26159" x1="102" y1="8" x2="102" y2="188" gradientUnits="userSpaceOnUse">
<stop stop-color="#8FD0FF"/>
<stop offset="1" stop-color="#8076F0"/>
</linearGradient>
</defs>
</svg>
